<?xml version="1.0" encoding="UTF-8" standalone="no"?>
<!DOCTYPE svg PUBLIC "-//W3C//DTD SVG 1.1//EN"
 "http://www.w3.org/Graphics/SVG/1.1/DTD/svg11.dtd">
<!-- Generated by graphviz version 2.40.1 (20161225.0304)
 -->
<!-- Title: budgets Pages: 1 -->
<svg width="996pt" height="802pt"
 viewBox="0.00 0.00 996.00 802.00" xmlns="http://www.w3.org/2000/svg" xmlns:xlink="http://www.w3.org/1999/xlink">
<g id="graph0" class="graph" transform="scale(1 1) rotate(0) translate(4 798)">
<title>budgets</title>
<polygon fill="#ffffff" stroke="transparent" points="-4,4 -4,-798 992,-798 992,4 -4,4"/>
<!-- budgets -->
<g id="node1" class="node">
<title>budgets</title>
<polygon fill="#efefef" stroke="transparent" points="206,-712.5 206,-747.5 411,-747.5 411,-712.5 206,-712.5"/>
<polygon fill="none" stroke="#000000" points="206,-712.5 206,-747.5 411,-747.5 411,-712.5 206,-712.5"/>
<text text-anchor="start" x="212.6994" y="-725.3" font-family="Arial Bold" font-size="18.00" fill="#000000">budgets</text>
<text text-anchor="start" x="276.7326" y="-725.3" font-family="Arial" font-size="14.00" fill="#000000">    </text>
<text text-anchor="start" x="310.9374" y="-725.3" font-family="Arial" font-size="14.00" fill="#666666">[BASE TABLE]</text>
<polygon fill="none" stroke="#000000" points="206,-682.5 206,-712.5 411,-712.5 411,-682.5 206,-682.5"/>
<text text-anchor="start" x="213" y="-693.9" font-family="Arial" font-size="14.00" fill="#000000">id </text>
<text text-anchor="start" x="227.7798" y="-693.9" font-family="Arial" font-size="14.00" fill="#666666">[int]</text>
<polygon fill="none" stroke="#000000" points="206,-652.5 206,-682.5 411,-682.5 411,-652.5 206,-652.5"/>
<text text-anchor="start" x="213" y="-663.9" font-family="Arial" font-size="14.00" fill="#000000">projectId </text>
<text text-anchor="start" x="270.5694" y="-663.9" font-family="Arial" font-size="14.00" fill="#666666">[int]</text>
<polygon fill="none" stroke="#000000" points="206,-622.5 206,-652.5 411,-652.5 411,-622.5 206,-622.5"/>
<text text-anchor="start" x="213" y="-633.9" font-family="Arial" font-size="14.00" fill="#000000">categoryId </text>
<text text-anchor="start" x="282.2454" y="-633.9" font-family="Arial" font-size="14.00" fill="#666666">[int]</text>
<polygon fill="none" stroke="#000000" points="206,-592.5 206,-622.5 411,-622.5 411,-592.5 206,-592.5"/>
<text text-anchor="start" x="213" y="-603.9" font-family="Arial" font-size="14.00" fill="#000000">amount </text>
<text text-anchor="start" x="263.5722" y="-603.9" font-family="Arial" font-size="14.00" fill="#666666">[int]</text>
<polygon fill="none" stroke="#000000" points="206,-562.5 206,-592.5 411,-592.5 411,-562.5 206,-562.5"/>
<text text-anchor="start" x="213" y="-573.9" font-family="Arial" font-size="14.00" fill="#000000">createdAt </text>
<text text-anchor="start" x="276.7994" y="-573.9" font-family="Arial" font-size="14.00" fill="#666666">[timestamp]</text>
<polygon fill="none" stroke="#000000" points="206,-532.5 206,-562.5 411,-562.5 411,-532.5 206,-532.5"/>
<text text-anchor="start" x="213" y="-543.9" font-family="Arial" font-size="14.00" fill="#000000">updatedAt </text>
<text text-anchor="start" x="280.704" y="-543.9" font-family="Arial" font-size="14.00" fill="#666666">[timestamp]</text>
<polygon fill="none" stroke="#000000" points="206,-502.5 206,-532.5 411,-532.5 411,-502.5 206,-502.5"/>
<text text-anchor="start" x="213" y="-513.9" font-family="Arial" font-size="14.00" fill="#000000">organizationId </text>
<text text-anchor="start" x="304.8064" y="-513.9" font-family="Arial" font-size="14.00" fill="#666666">[int]</text>
<polygon fill="none" stroke="#000000" stroke-width="3" points="204,-501.5 204,-749.5 412,-749.5 412,-501.5 204,-501.5"/>
</g>
<!-- projects -->
<g id="node2" class="node">
<title>projects</title>
<polygon fill="#efefef" stroke="transparent" points="43,-342.5 43,-377.5 247,-377.5 247,-342.5 43,-342.5"/>
<polygon fill="none" stroke="#000000" points="43,-342.5 43,-377.5 247,-377.5 247,-342.5 43,-342.5"/>
<text text-anchor="start" x="49.7124" y="-355.3" font-family="Arial Bold" font-size="18.00" fill="#000000">projects</text>
<text text-anchor="start" x="112.7196" y="-355.3" font-family="Arial" font-size="14.00" fill="#000000">    </text>
<text text-anchor="start" x="146.9244" y="-355.3" font-family="Arial" font-size="14.00" fill="#666666">[BASE TABLE]</text>
<polygon fill="none" stroke="#000000" points="43,-312.5 43,-342.5 247,-342.5 247,-312.5 43,-312.5"/>
<text text-anchor="start" x="50" y="-323.9" font-family="Arial" font-size="14.00" fill="#000000">id    </text>
<text text-anchor="start" x="95.094" y="-323.9" font-family="Arial" font-size="14.00" fill="#666666">[int]</text>
<polygon fill="none" stroke="#000000" points="43,-282.5 43,-312.5 247,-312.5 247,-282.5 43,-282.5"/>
<text text-anchor="start" x="50" y="-293.9" font-family="Arial" font-size="14.00" fill="#000000">name    </text>
<text text-anchor="start" x="119.2132" y="-293.9" font-family="Arial" font-size="14.00" fill="#666666">[varchar(255)]</text>
<polygon fill="none" stroke="#000000" points="43,-252.5 43,-282.5 247,-282.5 247,-252.5 43,-252.5"/>
<text text-anchor="start" x="50" y="-263.9" font-family="Arial" font-size="14.00" fill="#000000">description    </text>
<text text-anchor="start" x="151.8822" y="-263.9" font-family="Arial" font-size="14.00" fill="#666666">[varchar(255)]</text>
<polygon fill="none" stroke="#000000" points="43,-222.5 43,-252.5 247,-252.5 247,-222.5 43,-222.5"/>
<text text-anchor="start" x="50" y="-233.9" font-family="Arial" font-size="14.00" fill="#000000">totalBudget    </text>
<text text-anchor="start" x="155.0154" y="-233.9" font-family="Arial" font-size="14.00" fill="#666666">[int]</text>
<polygon fill="none" stroke="#000000" points="43,-192.5 43,-222.5 247,-222.5 247,-192.5 43,-192.5"/>
<text text-anchor="start" x="50" y="-203.9" font-family="Arial" font-size="14.00" fill="#000000">startDate    </text>
<text text-anchor="start" x="140.9916" y="-203.9" font-family="Arial" font-size="14.00" fill="#666666">[timestamp]</text>
<polygon fill="none" stroke="#000000" points="43,-162.5 43,-192.5 247,-192.5 247,-162.5 43,-162.5"/>
<text text-anchor="start" x="50" y="-173.9" font-family="Arial" font-size="14.00" fill="#000000">endDate    </text>
<text text-anchor="start" x="137.115" y="-173.9" font-family="Arial" font-size="14.00" fill="#666666">[timestamp]</text>
<polygon fill="none" stroke="#000000" points="43,-132.5 43,-162.5 247,-162.5 247,-132.5 43,-132.5"/>
<text text-anchor="start" x="50" y="-143.9" font-family="Arial" font-size="14.00" fill="#000000">createdAt    </text>
<text text-anchor="start" x="144.1136" y="-143.9" font-family="Arial" font-size="14.00" fill="#666666">[timestamp]</text>
<polygon fill="none" stroke="#000000" points="43,-102.5 43,-132.5 247,-132.5 247,-102.5 43,-102.5"/>
<text text-anchor="start" x="50" y="-113.9" font-family="Arial" font-size="14.00" fill="#000000">updatedAt    </text>
<text text-anchor="start" x="148.0182" y="-113.9" font-family="Arial" font-size="14.00" fill="#666666">[timestamp]</text>
<polygon fill="none" stroke="#000000" points="43,-72.5 43,-102.5 247,-102.5 247,-72.5 43,-72.5"/>
<text text-anchor="start" x="50" y="-83.9" font-family="Arial" font-size="14.00" fill="#000000">organizationId    </text>
<text text-anchor="start" x="172.1206" y="-83.9" font-family="Arial" font-size="14.00" fill="#666666">[int]</text>
<polygon fill="none" stroke="#000000" points="43,-42.5 43,-72.5 247,-72.5 247,-42.5 43,-42.5"/>
<text text-anchor="start" x="50" y="-53.9" font-family="Arial" font-size="14.00" fill="#000000">creatorId    </text>
<text text-anchor="start" x="139.4376" y="-53.9" font-family="Arial" font-size="14.00" fill="#666666">[int]</text>
</g>
<!-- budgets&#45;&gt;projects -->
<g id="edge1" class="edge">
<title>budgets:projectId&#45;&gt;projects:id</title>
<path fill="none" stroke="#000000" stroke-dasharray="5,2" d="M195.7601,-667.0427C107.2893,-658.7413 159.7713,-539.2318 197,-457 207.0013,-434.9088 227.9987,-443.0912 238,-421 255.1388,-383.1434 279.5556,-327.5 247,-327.5"/>
<polygon fill="#000000" stroke="#000000" points="196.01,-667.0538 205.7992,-671.9955 201.005,-667.2769 206,-667.5 206,-667.5 206,-667.5 201.005,-667.2769 206.2008,-663.0045 196.01,-667.0538 196.01,-667.0538"/>
<text text-anchor="start" x="184.7765" y="-677.5" font-family="Arial" font-size="10.00" fill="#000000">1&#45;n</text>
</g>
<!-- budgets&#45;&gt;projects -->
<g id="edge2" class="edge">
<title>budgets:projectId&#45;&gt;projects:id</title>
<path fill="none" stroke="#000000" stroke-dasharray="5,2" d="M195.4536,-666.7593C126.341,-656.3466 178.1449,-538.4066 215,-457 225.0013,-434.9088 245.9987,-443.0912 256,-421 273.1053,-383.2173 297.4602,-327.7173 247.2954,-327.5006"/>
<polygon fill="#000000" stroke="#000000" points="195.5331,-666.7651 205.1761,-671.9865 200.5196,-667.1318 205.5062,-667.4986 205.5062,-667.4986 205.5062,-667.4986 200.5196,-667.1318 205.8362,-663.0107 195.5331,-666.7651 195.5331,-666.7651"/>
<text text-anchor="start" x="184.2827" y="-651.4986" font-family="Arial" font-size="10.00" fill="#000000">1&#45;n</text>
</g>
<!-- categories -->
<g id="node3" class="node">
<title>categories</title>
<polygon fill="#efefef" stroke="transparent" points="352,-327.5 352,-362.5 593,-362.5 593,-327.5 352,-327.5"/>
<polygon fill="none" stroke="#000000" points="352,-327.5 352,-362.5 593,-362.5 593,-327.5 352,-327.5"/>
<text text-anchor="start" x="367.2062" y="-340.3" font-family="Arial Bold" font-size="18.00" fill="#000000">categories</text>
<text text-anchor="start" x="450.2258" y="-340.3" font-family="Arial" font-size="14.00" fill="#000000">    </text>
<text text-anchor="start" x="484.4306" y="-340.3" font-family="Arial" font-size="14.00" fill="#666666">[BASE TABLE]</text>
<polygon fill="none" stroke="#000000" points="352,-297.5 352,-327.5 593,-327.5 593,-297.5 352,-297.5"/>
<text text-anchor="start" x="359" y="-308.9" font-family="Arial" font-size="14.00" fill="#000000">id    </text>
<text text-anchor="start" x="404.094" y="-308.9" font-family="Arial" font-size="14.00" fill="#666666">[int]</text>
<polygon fill="none" stroke="#000000" points="352,-267.5 352,-297.5 593,-297.5 593,-267.5 352,-267.5"/>
<text text-anchor="start" x="359" y="-278.9" font-family="Arial" font-size="14.00" fill="#000000">name    </text>
<text text-anchor="start" x="428.2132" y="-278.9" font-family="Arial" font-size="14.00" fill="#666666">[varchar(255)]</text>
<polygon fill="none" stroke="#000000" points="352,-237.5 352,-267.5 593,-267.5 593,-237.5 352,-237.5"/>
<text text-anchor="start" x="359" y="-248.9" font-family="Arial" font-size="14.00" fill="#000000">color    </text>
<text text-anchor="start" x="423.5372" y="-248.9" font-family="Arial" font-size="14.00" fill="#666666">[varchar(255)]</text>
<polygon fill="none" stroke="#000000" points="352,-207.5 352,-237.5 593,-237.5 593,-207.5 352,-207.5"/>
<text text-anchor="start" x="359" y="-218.9" font-family="Arial" font-size="14.00" fill="#000000">icon    </text>
<text text-anchor="start" x="418.8766" y="-218.9" font-family="Arial" font-size="14.00" fill="#666666">[varchar(255)]</text>
<polygon fill="none" stroke="#000000" points="352,-177.5 352,-207.5 593,-207.5 593,-177.5 352,-177.5"/>
<text text-anchor="start" x="358.9698" y="-188.9" font-family="Arial" font-size="14.00" fill="#000000">type    </text>
<text text-anchor="start" x="419.6304" y="-188.9" font-family="Arial" font-size="14.00" fill="#666666">[enum(&#39;expense&#39;,&#39;income&#39;)]</text>
<polygon fill="none" stroke="#000000" points="352,-147.5 352,-177.5 593,-177.5 593,-147.5 352,-147.5"/>
<text text-anchor="start" x="359" y="-158.9" font-family="Arial" font-size="14.00" fill="#000000">createdAt    </text>
<text text-anchor="start" x="453.1136" y="-158.9" font-family="Arial" font-size="14.00" fill="#666666">[timestamp]</text>
<polygon fill="none" stroke="#000000" points="352,-117.5 352,-147.5 593,-147.5 593,-117.5 352,-117.5"/>
<text text-anchor="start" x="359" y="-128.9" font-family="Arial" font-size="14.00" fill="#000000">updatedAt    </text>
<text text-anchor="start" x="457.0182" y="-128.9" font-family="Arial" font-size="14.00" fill="#666666">[timestamp]</text>
<polygon fill="none" stroke="#000000" points="352,-87.5 352,-117.5 593,-117.5 593,-87.5 352,-87.5"/>
<text text-anchor="start" x="359" y="-98.9" font-family="Arial" font-size="14.00" fill="#000000">organizationId    </text>
<text text-anchor="start" x="481.1206" y="-98.9" font-family="Arial" font-size="14.00" fill="#666666">[int]</text>
<polygon fill="none" stroke="#000000" points="352,-57.5 352,-87.5 593,-87.5 593,-57.5 352,-57.5"/>
<text text-anchor="start" x="359" y="-68.9" font-family="Arial" font-size="14.00" fill="#000000">projectId    </text>
<text text-anchor="start" x="446.8836" y="-68.9" font-family="Arial" font-size="14.00" fill="#666666">[int]</text>
</g>
<!-- budgets&#45;&gt;categories -->
<g id="edge3" class="edge">
<title>budgets:categoryId&#45;&gt;categories:id</title>
<path fill="none" stroke="#000000" stroke-dasharray="5,2" d="M421.0546,-636.8618C487.04,-627.9074 442.8703,-526.6755 411,-457 396.5824,-425.4799 366.4176,-437.5201 352,-406 334.7145,-368.2101 310.4444,-312.5 352,-312.5"/>
<polygon fill="#000000" stroke="#000000" points="420.9799,-636.8665 410.7149,-633.009 415.99,-637.1832 411,-637.5 411,-637.5 411,-637.5 415.99,-637.1832 411.2851,-641.991 420.9799,-636.8665 420.9799,-636.8665"/>
<text text-anchor="start" x="389.7765" y="-647.5" font-family="Arial" font-size="10.00" fill="#000000">1&#45;1</text>
</g>
<!-- organizations -->
<g id="node4" class="node">
<title>organizations</title>
<polygon fill="#efefef" stroke="transparent" points="697,-297.5 697,-332.5 945,-332.5 945,-297.5 697,-297.5"/>
<polygon fill="none" stroke="#000000" points="697,-297.5 697,-332.5 945,-332.5 945,-297.5 697,-297.5"/>
<text text-anchor="start" x="703.7029" y="-310.3" font-family="Arial Bold" font-size="18.00" fill="#000000">organizations</text>
<text text-anchor="start" x="810.7291" y="-310.3" font-family="Arial" font-size="14.00" fill="#000000">    </text>
<text text-anchor="start" x="844.9339" y="-310.3" font-family="Arial" font-size="14.00" fill="#666666">[BASE TABLE]</text>
<polygon fill="none" stroke="#000000" points="697,-267.5 697,-297.5 945,-297.5 945,-267.5 697,-267.5"/>
<text text-anchor="start" x="704" y="-278.9" font-family="Arial" font-size="14.00" fill="#000000">id    </text>
<text text-anchor="start" x="749.094" y="-278.9" font-family="Arial" font-size="14.00" fill="#666666">[int]</text>
<polygon fill="none" stroke="#000000" points="697,-237.5 697,-267.5 945,-267.5 945,-237.5 697,-237.5"/>
<text text-anchor="start" x="704" y="-248.9" font-family="Arial" font-size="14.00" fill="#000000">name    </text>
<text text-anchor="start" x="773.2132" y="-248.9" font-family="Arial" font-size="14.00" fill="#666666">[varchar(255)]</text>
<polygon fill="none" stroke="#000000" points="697,-207.5 697,-237.5 945,-237.5 945,-207.5 697,-207.5"/>
<text text-anchor="start" x="704" y="-218.9" font-family="Arial" font-size="14.00" fill="#000000">uniqueName    </text>
<text text-anchor="start" x="817.5568" y="-218.9" font-family="Arial" font-size="14.00" fill="#666666">[varchar(255)]</text>
<polygon fill="none" stroke="#000000" points="697,-177.5 697,-207.5 945,-207.5 945,-177.5 697,-177.5"/>
<text text-anchor="start" x="704" y="-188.9" font-family="Arial" font-size="14.00" fill="#000000">createdAt    </text>
<text text-anchor="start" x="798.1136" y="-188.9" font-family="Arial" font-size="14.00" fill="#666666">[timestamp]</text>
<polygon fill="none" stroke="#000000" points="697,-147.5 697,-177.5 945,-177.5 945,-147.5 697,-147.5"/>
<text text-anchor="start" x="704" y="-158.9" font-family="Arial" font-size="14.00" fill="#000000">updatedAt    </text>
<text text-anchor="start" x="802.0182" y="-158.9" font-family="Arial" font-size="14.00" fill="#666666">[timestamp]</text>
<polygon fill="none" stroke="#000000" points="697,-117.5 697,-147.5 945,-147.5 945,-117.5 697,-117.5"/>
<text text-anchor="start" x="704" y="-128.9" font-family="Arial" font-size="14.00" fill="#000000">phone    </text>
<text text-anchor="start" x="777.1178" y="-128.9" font-family="Arial" font-size="14.00" fill="#666666">[varchar(255)]</text>
<polygon fill="none" stroke="#000000" points="697,-87.5 697,-117.5 945,-117.5 945,-87.5 697,-87.5"/>
<text text-anchor="start" x="704" y="-98.9" font-family="Arial" font-size="14.00" fill="#000000">address    </text>
<text text-anchor="start" x="787.9958" y="-98.9" font-family="Arial" font-size="14.00" fill="#666666">[varchar(255)]</text>
</g>
<!-- budgets&#45;&gt;organizations -->
<g id="edge4" class="edge">
<title>budgets:organizationId&#45;&gt;organizations:id</title>
<path fill="none" stroke="#000000" stroke-dasharray="5,2" d="M421.0294,-517.4555C526.1465,-516.4903 569.1043,-499.3623 645,-421 690.7438,-373.7695 631.2489,-282.5 697,-282.5"/>
<polygon fill="#000000" stroke="#000000" points="420.9999,-517.4555 410.98,-513 416,-517.4778 411,-517.5 411,-517.5 411,-517.5 416,-517.4778 411.02,-522 420.9999,-517.4555 420.9999,-517.4555"/>
<text text-anchor="start" x="389.7765" y="-527.5" font-family="Arial" font-size="10.00" fill="#000000">1&#45;n</text>
</g>
</g>
</svg>
