<?xml version="1.0" encoding="UTF-8" standalone="no"?>
<!DOCTYPE svg PUBLIC "-//W3C//DTD SVG 1.1//EN"
 "http://www.w3.org/Graphics/SVG/1.1/DTD/svg11.dtd">
<!-- Generated by graphviz version 2.40.1 (20161225.0304)
 -->
<!-- Title: budgets Pages: 1 -->
<svg width="1002pt" height="832pt"
 viewBox="0.00 0.00 1002.00 832.00" xmlns="http://www.w3.org/2000/svg" xmlns:xlink="http://www.w3.org/1999/xlink">
<g id="graph0" class="graph" transform="scale(1 1) rotate(0) translate(4 828)">
<title>budgets</title>
<polygon fill="#ffffff" stroke="transparent" points="-4,4 -4,-828 998,-828 998,4 -4,4"/>
<!-- budgets -->
<g id="node1" class="node">
<title>budgets</title>
<polygon fill="#efefef" stroke="transparent" points="210,-742.5 210,-777.5 415,-777.5 415,-742.5 210,-742.5"/>
<polygon fill="none" stroke="#000000" points="210,-742.5 210,-777.5 415,-777.5 415,-742.5 210,-742.5"/>
<text text-anchor="start" x="216.6994" y="-755.3" font-family="Arial Bold" font-size="18.00" fill="#000000">budgets</text>
<text text-anchor="start" x="280.7326" y="-755.3" font-family="Arial" font-size="14.00" fill="#000000">    </text>
<text text-anchor="start" x="314.9374" y="-755.3" font-family="Arial" font-size="14.00" fill="#666666">[BASE TABLE]</text>
<polygon fill="none" stroke="#000000" points="210,-712.5 210,-742.5 415,-742.5 415,-712.5 210,-712.5"/>
<text text-anchor="start" x="217" y="-723.9" font-family="Arial" font-size="14.00" fill="#000000">id </text>
<text text-anchor="start" x="231.7798" y="-723.9" font-family="Arial" font-size="14.00" fill="#666666">[int]</text>
<polygon fill="none" stroke="#000000" points="210,-682.5 210,-712.5 415,-712.5 415,-682.5 210,-682.5"/>
<text text-anchor="start" x="217" y="-693.9" font-family="Arial" font-size="14.00" fill="#000000">projectId </text>
<text text-anchor="start" x="274.5694" y="-693.9" font-family="Arial" font-size="14.00" fill="#666666">[int]</text>
<polygon fill="none" stroke="#000000" points="210,-652.5 210,-682.5 415,-682.5 415,-652.5 210,-652.5"/>
<text text-anchor="start" x="217" y="-663.9" font-family="Arial" font-size="14.00" fill="#000000">categoryId </text>
<text text-anchor="start" x="286.2454" y="-663.9" font-family="Arial" font-size="14.00" fill="#666666">[int]</text>
<polygon fill="none" stroke="#000000" points="210,-622.5 210,-652.5 415,-652.5 415,-622.5 210,-622.5"/>
<text text-anchor="start" x="217" y="-633.9" font-family="Arial" font-size="14.00" fill="#000000">amount </text>
<text text-anchor="start" x="267.5722" y="-633.9" font-family="Arial" font-size="14.00" fill="#666666">[int]</text>
<polygon fill="none" stroke="#000000" points="210,-592.5 210,-622.5 415,-622.5 415,-592.5 210,-592.5"/>
<text text-anchor="start" x="217" y="-603.9" font-family="Arial" font-size="14.00" fill="#000000">createdAt </text>
<text text-anchor="start" x="280.7994" y="-603.9" font-family="Arial" font-size="14.00" fill="#666666">[timestamp]</text>
<polygon fill="none" stroke="#000000" points="210,-562.5 210,-592.5 415,-592.5 415,-562.5 210,-562.5"/>
<text text-anchor="start" x="217" y="-573.9" font-family="Arial" font-size="14.00" fill="#000000">updatedAt </text>
<text text-anchor="start" x="284.704" y="-573.9" font-family="Arial" font-size="14.00" fill="#666666">[timestamp]</text>
<polygon fill="none" stroke="#000000" points="210,-532.5 210,-562.5 415,-562.5 415,-532.5 210,-532.5"/>
<text text-anchor="start" x="217" y="-543.9" font-family="Arial" font-size="14.00" fill="#000000">organizationId </text>
<text text-anchor="start" x="308.8064" y="-543.9" font-family="Arial" font-size="14.00" fill="#666666">[int]</text>
<polygon fill="none" stroke="#000000" stroke-width="3" points="208,-531.5 208,-779.5 416,-779.5 416,-531.5 208,-531.5"/>
</g>
<!-- projects -->
<g id="node2" class="node">
<title>projects</title>
<polygon fill="#efefef" stroke="transparent" points="43,-357.5 43,-392.5 253,-392.5 253,-357.5 43,-357.5"/>
<polygon fill="none" stroke="#000000" points="43,-357.5 43,-392.5 253,-392.5 253,-357.5 43,-357.5"/>
<text text-anchor="start" x="52.7124" y="-370.3" font-family="Arial Bold" font-size="18.00" fill="#000000">projects</text>
<text text-anchor="start" x="115.7196" y="-370.3" font-family="Arial" font-size="14.00" fill="#000000">    </text>
<text text-anchor="start" x="149.9244" y="-370.3" font-family="Arial" font-size="14.00" fill="#666666">[BASE TABLE]</text>
<polygon fill="none" stroke="#000000" points="43,-327.5 43,-357.5 253,-357.5 253,-327.5 43,-327.5"/>
<text text-anchor="start" x="50" y="-338.9" font-family="Arial" font-size="14.00" fill="#000000">id    </text>
<text text-anchor="start" x="95.094" y="-338.9" font-family="Arial" font-size="14.00" fill="#666666">[int]</text>
<polygon fill="none" stroke="#000000" points="43,-297.5 43,-327.5 253,-327.5 253,-297.5 43,-297.5"/>
<text text-anchor="start" x="50" y="-308.9" font-family="Arial" font-size="14.00" fill="#000000">name    </text>
<text text-anchor="start" x="119.2132" y="-308.9" font-family="Arial" font-size="14.00" fill="#666666">[varchar(255)]</text>
<polygon fill="none" stroke="#000000" points="43,-267.5 43,-297.5 253,-297.5 253,-267.5 43,-267.5"/>
<text text-anchor="start" x="50" y="-278.9" font-family="Arial" font-size="14.00" fill="#000000">totalBudget    </text>
<text text-anchor="start" x="155.0154" y="-278.9" font-family="Arial" font-size="14.00" fill="#666666">[int]</text>
<polygon fill="none" stroke="#000000" points="43,-237.5 43,-267.5 253,-267.5 253,-237.5 43,-237.5"/>
<text text-anchor="start" x="50" y="-248.9" font-family="Arial" font-size="14.00" fill="#000000">startDate    </text>
<text text-anchor="start" x="140.9916" y="-248.9" font-family="Arial" font-size="14.00" fill="#666666">[timestamp]</text>
<polygon fill="none" stroke="#000000" points="43,-207.5 43,-237.5 253,-237.5 253,-207.5 43,-207.5"/>
<text text-anchor="start" x="50" y="-218.9" font-family="Arial" font-size="14.00" fill="#000000">endDate    </text>
<text text-anchor="start" x="137.115" y="-218.9" font-family="Arial" font-size="14.00" fill="#666666">[timestamp]</text>
<polygon fill="none" stroke="#000000" points="43,-177.5 43,-207.5 253,-207.5 253,-177.5 43,-177.5"/>
<text text-anchor="start" x="50" y="-188.9" font-family="Arial" font-size="14.00" fill="#000000">createdAt    </text>
<text text-anchor="start" x="144.1136" y="-188.9" font-family="Arial" font-size="14.00" fill="#666666">[timestamp]</text>
<polygon fill="none" stroke="#000000" points="43,-147.5 43,-177.5 253,-177.5 253,-147.5 43,-147.5"/>
<text text-anchor="start" x="50" y="-158.9" font-family="Arial" font-size="14.00" fill="#000000">updatedAt    </text>
<text text-anchor="start" x="148.0182" y="-158.9" font-family="Arial" font-size="14.00" fill="#666666">[timestamp]</text>
<polygon fill="none" stroke="#000000" points="43,-117.5 43,-147.5 253,-147.5 253,-117.5 43,-117.5"/>
<text text-anchor="start" x="50" y="-128.9" font-family="Arial" font-size="14.00" fill="#000000">organizationId    </text>
<text text-anchor="start" x="172.1206" y="-128.9" font-family="Arial" font-size="14.00" fill="#666666">[int]</text>
<polygon fill="none" stroke="#000000" points="43,-87.5 43,-117.5 253,-117.5 253,-87.5 43,-87.5"/>
<text text-anchor="start" x="50" y="-98.9" font-family="Arial" font-size="14.00" fill="#000000">creatorId    </text>
<text text-anchor="start" x="139.4376" y="-98.9" font-family="Arial" font-size="14.00" fill="#666666">[int]</text>
<polygon fill="none" stroke="#000000" points="43,-57.5 43,-87.5 253,-87.5 253,-57.5 43,-57.5"/>
<text text-anchor="start" x="49.608" y="-68.9" font-family="Arial" font-size="14.00" fill="#000000">description    </text>
<text text-anchor="start" x="151.4902" y="-68.9" font-family="Arial" font-size="14.00" fill="#666666">[varchar(2000)]</text>
</g>
<!-- budgets&#45;&gt;projects -->
<g id="edge1" class="edge">
<title>budgets:projectId&#45;&gt;projects:id</title>
<path fill="none" stroke="#000000" stroke-dasharray="5,2" d="M199.7833,-697.0522C111.7291,-688.9209 170.0268,-571.7862 201,-487 211.1732,-459.1519 233.8268,-463.8481 244,-436 258.259,-396.9674 285.5556,-342.5 253,-342.5"/>
<polygon fill="#000000" stroke="#000000" points="200.0096,-697.062 209.8029,-701.9957 205.0048,-697.281 210,-697.5 210,-697.5 210,-697.5 205.0048,-697.281 210.1971,-693.0043 200.0096,-697.062 200.0096,-697.062"/>
<text text-anchor="start" x="188.7765" y="-707.5" font-family="Arial" font-size="10.00" fill="#000000">1&#45;n</text>
</g>
<!-- budgets&#45;&gt;projects -->
<g id="edge2" class="edge">
<title>budgets:projectId&#45;&gt;projects:id</title>
<path fill="none" stroke="#000000" stroke-dasharray="5,2" d="M199.4909,-696.7746C130.8964,-686.5734 188.3376,-570.9354 219,-487 229.1732,-459.1519 251.8268,-463.8481 262,-436 276.2311,-397.0436 303.449,-342.7127 253.2953,-342.5006"/>
<polygon fill="#000000" stroke="#000000" points="199.5323,-696.7775 209.1817,-701.9869 204.5192,-697.138 209.5062,-697.4986 209.5062,-697.4986 209.5062,-697.4986 204.5192,-697.138 209.8307,-693.0103 199.5323,-696.7775 199.5323,-696.7775"/>
<text text-anchor="start" x="188.2827" y="-681.4986" font-family="Arial" font-size="10.00" fill="#000000">1&#45;n</text>
</g>
<!-- categories -->
<g id="node3" class="node">
<title>categories</title>
<polygon fill="#efefef" stroke="transparent" points="358,-342.5 358,-377.5 599,-377.5 599,-342.5 358,-342.5"/>
<polygon fill="none" stroke="#000000" points="358,-342.5 358,-377.5 599,-377.5 599,-342.5 358,-342.5"/>
<text text-anchor="start" x="373.2062" y="-355.3" font-family="Arial Bold" font-size="18.00" fill="#000000">categories</text>
<text text-anchor="start" x="456.2258" y="-355.3" font-family="Arial" font-size="14.00" fill="#000000">    </text>
<text text-anchor="start" x="490.4306" y="-355.3" font-family="Arial" font-size="14.00" fill="#666666">[BASE TABLE]</text>
<polygon fill="none" stroke="#000000" points="358,-312.5 358,-342.5 599,-342.5 599,-312.5 358,-312.5"/>
<text text-anchor="start" x="365" y="-323.9" font-family="Arial" font-size="14.00" fill="#000000">id    </text>
<text text-anchor="start" x="410.094" y="-323.9" font-family="Arial" font-size="14.00" fill="#666666">[int]</text>
<polygon fill="none" stroke="#000000" points="358,-282.5 358,-312.5 599,-312.5 599,-282.5 358,-282.5"/>
<text text-anchor="start" x="365" y="-293.9" font-family="Arial" font-size="14.00" fill="#000000">name    </text>
<text text-anchor="start" x="434.2132" y="-293.9" font-family="Arial" font-size="14.00" fill="#666666">[varchar(255)]</text>
<polygon fill="none" stroke="#000000" points="358,-252.5 358,-282.5 599,-282.5 599,-252.5 358,-252.5"/>
<text text-anchor="start" x="365" y="-263.9" font-family="Arial" font-size="14.00" fill="#000000">color    </text>
<text text-anchor="start" x="429.5372" y="-263.9" font-family="Arial" font-size="14.00" fill="#666666">[varchar(255)]</text>
<polygon fill="none" stroke="#000000" points="358,-222.5 358,-252.5 599,-252.5 599,-222.5 358,-222.5"/>
<text text-anchor="start" x="365" y="-233.9" font-family="Arial" font-size="14.00" fill="#000000">icon    </text>
<text text-anchor="start" x="424.8766" y="-233.9" font-family="Arial" font-size="14.00" fill="#666666">[varchar(255)]</text>
<polygon fill="none" stroke="#000000" points="358,-192.5 358,-222.5 599,-222.5 599,-192.5 358,-192.5"/>
<text text-anchor="start" x="364.9698" y="-203.9" font-family="Arial" font-size="14.00" fill="#000000">type    </text>
<text text-anchor="start" x="425.6304" y="-203.9" font-family="Arial" font-size="14.00" fill="#666666">[enum(&#39;expense&#39;,&#39;income&#39;)]</text>
<polygon fill="none" stroke="#000000" points="358,-162.5 358,-192.5 599,-192.5 599,-162.5 358,-162.5"/>
<text text-anchor="start" x="365" y="-173.9" font-family="Arial" font-size="14.00" fill="#000000">createdAt    </text>
<text text-anchor="start" x="459.1136" y="-173.9" font-family="Arial" font-size="14.00" fill="#666666">[timestamp]</text>
<polygon fill="none" stroke="#000000" points="358,-132.5 358,-162.5 599,-162.5 599,-132.5 358,-132.5"/>
<text text-anchor="start" x="365" y="-143.9" font-family="Arial" font-size="14.00" fill="#000000">updatedAt    </text>
<text text-anchor="start" x="463.0182" y="-143.9" font-family="Arial" font-size="14.00" fill="#666666">[timestamp]</text>
<polygon fill="none" stroke="#000000" points="358,-102.5 358,-132.5 599,-132.5 599,-102.5 358,-102.5"/>
<text text-anchor="start" x="365" y="-113.9" font-family="Arial" font-size="14.00" fill="#000000">organizationId    </text>
<text text-anchor="start" x="487.1206" y="-113.9" font-family="Arial" font-size="14.00" fill="#666666">[int]</text>
<polygon fill="none" stroke="#000000" points="358,-72.5 358,-102.5 599,-102.5 599,-72.5 358,-72.5"/>
<text text-anchor="start" x="365" y="-83.9" font-family="Arial" font-size="14.00" fill="#000000">projectId    </text>
<text text-anchor="start" x="452.8836" y="-83.9" font-family="Arial" font-size="14.00" fill="#666666">[int]</text>
</g>
<!-- budgets&#45;&gt;categories -->
<g id="edge3" class="edge">
<title>budgets:categoryId&#45;&gt;categories:id</title>
<path fill="none" stroke="#000000" stroke-dasharray="5,2" d="M425.0234,-666.8747C490.577,-658.0991 441.7165,-558.8096 415,-487 401.4851,-450.6741 371.5149,-457.3259 358,-421 343.5098,-382.0526 316.4444,-327.5 358,-327.5"/>
<polygon fill="#000000" stroke="#000000" points="424.9806,-666.8773 414.7198,-663.0087 419.9903,-667.1887 415,-667.5 415,-667.5 415,-667.5 419.9903,-667.1887 415.2802,-671.9913 424.9806,-666.8773 424.9806,-666.8773"/>
<text text-anchor="start" x="393.7765" y="-677.5" font-family="Arial" font-size="10.00" fill="#000000">1&#45;1</text>
</g>
<!-- organizations -->
<g id="node4" class="node">
<title>organizations</title>
<polygon fill="#efefef" stroke="transparent" points="703,-372.5 703,-407.5 951,-407.5 951,-372.5 703,-372.5"/>
<polygon fill="none" stroke="#000000" points="703,-372.5 703,-407.5 951,-407.5 951,-372.5 703,-372.5"/>
<text text-anchor="start" x="709.7029" y="-385.3" font-family="Arial Bold" font-size="18.00" fill="#000000">organizations</text>
<text text-anchor="start" x="816.7291" y="-385.3" font-family="Arial" font-size="14.00" fill="#000000">    </text>
<text text-anchor="start" x="850.9339" y="-385.3" font-family="Arial" font-size="14.00" fill="#666666">[BASE TABLE]</text>
<polygon fill="none" stroke="#000000" points="703,-342.5 703,-372.5 951,-372.5 951,-342.5 703,-342.5"/>
<text text-anchor="start" x="710" y="-353.9" font-family="Arial" font-size="14.00" fill="#000000">id    </text>
<text text-anchor="start" x="755.094" y="-353.9" font-family="Arial" font-size="14.00" fill="#666666">[int]</text>
<polygon fill="none" stroke="#000000" points="703,-312.5 703,-342.5 951,-342.5 951,-312.5 703,-312.5"/>
<text text-anchor="start" x="710" y="-323.9" font-family="Arial" font-size="14.00" fill="#000000">name    </text>
<text text-anchor="start" x="779.2132" y="-323.9" font-family="Arial" font-size="14.00" fill="#666666">[varchar(255)]</text>
<polygon fill="none" stroke="#000000" points="703,-282.5 703,-312.5 951,-312.5 951,-282.5 703,-282.5"/>
<text text-anchor="start" x="710" y="-293.9" font-family="Arial" font-size="14.00" fill="#000000">uniqueName    </text>
<text text-anchor="start" x="823.5568" y="-293.9" font-family="Arial" font-size="14.00" fill="#666666">[varchar(255)]</text>
<polygon fill="none" stroke="#000000" points="703,-252.5 703,-282.5 951,-282.5 951,-252.5 703,-252.5"/>
<text text-anchor="start" x="710" y="-263.9" font-family="Arial" font-size="14.00" fill="#000000">createdAt    </text>
<text text-anchor="start" x="804.1136" y="-263.9" font-family="Arial" font-size="14.00" fill="#666666">[timestamp]</text>
<polygon fill="none" stroke="#000000" points="703,-222.5 703,-252.5 951,-252.5 951,-222.5 703,-222.5"/>
<text text-anchor="start" x="710" y="-233.9" font-family="Arial" font-size="14.00" fill="#000000">updatedAt    </text>
<text text-anchor="start" x="808.0182" y="-233.9" font-family="Arial" font-size="14.00" fill="#666666">[timestamp]</text>
<polygon fill="none" stroke="#000000" points="703,-192.5 703,-222.5 951,-222.5 951,-192.5 703,-192.5"/>
<text text-anchor="start" x="710" y="-203.9" font-family="Arial" font-size="14.00" fill="#000000">phone    </text>
<text text-anchor="start" x="783.1178" y="-203.9" font-family="Arial" font-size="14.00" fill="#666666">[varchar(255)]</text>
<polygon fill="none" stroke="#000000" points="703,-162.5 703,-192.5 951,-192.5 951,-162.5 703,-162.5"/>
<text text-anchor="start" x="710" y="-173.9" font-family="Arial" font-size="14.00" fill="#000000">address    </text>
<text text-anchor="start" x="793.9958" y="-173.9" font-family="Arial" font-size="14.00" fill="#666666">[varchar(255)]</text>
<polygon fill="none" stroke="#000000" points="703,-132.5 703,-162.5 951,-162.5 951,-132.5 703,-132.5"/>
<text text-anchor="start" x="710" y="-143.9" font-family="Arial" font-size="14.00" fill="#000000">dateFormat    </text>
<text text-anchor="start" x="815.7728" y="-143.9" font-family="Arial" font-size="14.00" fill="#666666">[varchar(255)]</text>
<polygon fill="none" stroke="#000000" points="703,-102.5 703,-132.5 951,-132.5 951,-102.5 703,-102.5"/>
<text text-anchor="start" x="710" y="-113.9" font-family="Arial" font-size="14.00" fill="#000000">currency    </text>
<text text-anchor="start" x="797.8738" y="-113.9" font-family="Arial" font-size="14.00" fill="#666666">[enum(&#39;vnd&#39;,&#39;usd&#39;)]</text>
<polygon fill="none" stroke="#000000" points="703,-72.5 703,-102.5 951,-102.5 951,-72.5 703,-72.5"/>
<text text-anchor="start" x="710" y="-83.9" font-family="Arial" font-size="14.00" fill="#000000">bank    </text>
<text text-anchor="start" x="774.5526" y="-83.9" font-family="Arial" font-size="14.00" fill="#666666">[enum(&#39;bidv&#39;,&#39;vcb&#39;)]</text>
<polygon fill="none" stroke="#000000" points="703,-42.5 703,-72.5 951,-72.5 951,-42.5 703,-42.5"/>
<text text-anchor="start" x="710" y="-53.9" font-family="Arial" font-size="14.00" fill="#000000">exchangeRate    </text>
<text text-anchor="start" x="834.4628" y="-53.9" font-family="Arial" font-size="14.00" fill="#666666">[int]</text>
</g>
<!-- budgets&#45;&gt;organizations -->
<g id="edge4" class="edge">
<title>budgets:organizationId&#45;&gt;organizations:id</title>
<path fill="none" stroke="#000000" stroke-dasharray="5,2" d="M425.0877,-547.4405C530.6573,-546.1612 568.7997,-523.9282 651,-451 686.569,-419.4431 655.4502,-357.5 703,-357.5"/>
<polygon fill="#000000" stroke="#000000" points="424.9998,-547.441 414.9734,-543.0001 419.9999,-547.4705 415,-547.5 415,-547.5 415,-547.5 419.9999,-547.4705 415.0266,-551.9999 424.9998,-547.441 424.9998,-547.441"/>
<text text-anchor="start" x="393.7765" y="-557.5" font-family="Arial" font-size="10.00" fill="#000000">1&#45;n</text>
</g>
</g>
</svg>
