<?xml version="1.0" encoding="UTF-8" standalone="no"?>
<!DOCTYPE svg PUBLIC "-//W3C//DTD SVG 1.1//EN"
 "http://www.w3.org/Graphics/SVG/1.1/DTD/svg11.dtd">
<!-- Generated by graphviz version 2.40.1 (20161225.0304)
 -->
<!-- Title: budgets Pages: 1 -->
<svg width="1002pt" height="802pt"
 viewBox="0.00 0.00 1002.00 802.00" xmlns="http://www.w3.org/2000/svg" xmlns:xlink="http://www.w3.org/1999/xlink">
<g id="graph0" class="graph" transform="scale(1 1) rotate(0) translate(4 798)">
<title>budgets</title>
<polygon fill="#ffffff" stroke="transparent" points="-4,4 -4,-798 998,-798 998,4 -4,4"/>
<!-- budgets -->
<g id="node1" class="node">
<title>budgets</title>
<polygon fill="#efefef" stroke="transparent" points="210,-712.5 210,-747.5 415,-747.5 415,-712.5 210,-712.5"/>
<polygon fill="none" stroke="#000000" points="210,-712.5 210,-747.5 415,-747.5 415,-712.5 210,-712.5"/>
<text text-anchor="start" x="216.6994" y="-725.3" font-family="Arial Bold" font-size="18.00" fill="#000000">budgets</text>
<text text-anchor="start" x="280.7326" y="-725.3" font-family="Arial" font-size="14.00" fill="#000000">    </text>
<text text-anchor="start" x="314.9374" y="-725.3" font-family="Arial" font-size="14.00" fill="#666666">[BASE TABLE]</text>
<polygon fill="none" stroke="#000000" points="210,-682.5 210,-712.5 415,-712.5 415,-682.5 210,-682.5"/>
<text text-anchor="start" x="217" y="-693.9" font-family="Arial" font-size="14.00" fill="#000000">id </text>
<text text-anchor="start" x="231.7798" y="-693.9" font-family="Arial" font-size="14.00" fill="#666666">[int]</text>
<polygon fill="none" stroke="#000000" points="210,-652.5 210,-682.5 415,-682.5 415,-652.5 210,-652.5"/>
<text text-anchor="start" x="217" y="-663.9" font-family="Arial" font-size="14.00" fill="#000000">projectId </text>
<text text-anchor="start" x="274.5694" y="-663.9" font-family="Arial" font-size="14.00" fill="#666666">[int]</text>
<polygon fill="none" stroke="#000000" points="210,-622.5 210,-652.5 415,-652.5 415,-622.5 210,-622.5"/>
<text text-anchor="start" x="217" y="-633.9" font-family="Arial" font-size="14.00" fill="#000000">categoryId </text>
<text text-anchor="start" x="286.2454" y="-633.9" font-family="Arial" font-size="14.00" fill="#666666">[int]</text>
<polygon fill="none" stroke="#000000" points="210,-592.5 210,-622.5 415,-622.5 415,-592.5 210,-592.5"/>
<text text-anchor="start" x="217" y="-603.9" font-family="Arial" font-size="14.00" fill="#000000">amount </text>
<text text-anchor="start" x="267.5722" y="-603.9" font-family="Arial" font-size="14.00" fill="#666666">[int]</text>
<polygon fill="none" stroke="#000000" points="210,-562.5 210,-592.5 415,-592.5 415,-562.5 210,-562.5"/>
<text text-anchor="start" x="217" y="-573.9" font-family="Arial" font-size="14.00" fill="#000000">createdAt </text>
<text text-anchor="start" x="280.7994" y="-573.9" font-family="Arial" font-size="14.00" fill="#666666">[timestamp]</text>
<polygon fill="none" stroke="#000000" points="210,-532.5 210,-562.5 415,-562.5 415,-532.5 210,-532.5"/>
<text text-anchor="start" x="217" y="-543.9" font-family="Arial" font-size="14.00" fill="#000000">updatedAt </text>
<text text-anchor="start" x="284.704" y="-543.9" font-family="Arial" font-size="14.00" fill="#666666">[timestamp]</text>
<polygon fill="none" stroke="#000000" points="210,-502.5 210,-532.5 415,-532.5 415,-502.5 210,-502.5"/>
<text text-anchor="start" x="217" y="-513.9" font-family="Arial" font-size="14.00" fill="#000000">organizationId </text>
<text text-anchor="start" x="308.8064" y="-513.9" font-family="Arial" font-size="14.00" fill="#666666">[int]</text>
<polygon fill="none" stroke="#000000" stroke-width="3" points="208,-501.5 208,-749.5 416,-749.5 416,-501.5 208,-501.5"/>
</g>
<!-- projects -->
<g id="node2" class="node">
<title>projects</title>
<polygon fill="#efefef" stroke="transparent" points="43,-342.5 43,-377.5 253,-377.5 253,-342.5 43,-342.5"/>
<polygon fill="none" stroke="#000000" points="43,-342.5 43,-377.5 253,-377.5 253,-342.5 43,-342.5"/>
<text text-anchor="start" x="52.7124" y="-355.3" font-family="Arial Bold" font-size="18.00" fill="#000000">projects</text>
<text text-anchor="start" x="115.7196" y="-355.3" font-family="Arial" font-size="14.00" fill="#000000">    </text>
<text text-anchor="start" x="149.9244" y="-355.3" font-family="Arial" font-size="14.00" fill="#666666">[BASE TABLE]</text>
<polygon fill="none" stroke="#000000" points="43,-312.5 43,-342.5 253,-342.5 253,-312.5 43,-312.5"/>
<text text-anchor="start" x="50" y="-323.9" font-family="Arial" font-size="14.00" fill="#000000">id    </text>
<text text-anchor="start" x="95.094" y="-323.9" font-family="Arial" font-size="14.00" fill="#666666">[int]</text>
<polygon fill="none" stroke="#000000" points="43,-282.5 43,-312.5 253,-312.5 253,-282.5 43,-282.5"/>
<text text-anchor="start" x="50" y="-293.9" font-family="Arial" font-size="14.00" fill="#000000">name    </text>
<text text-anchor="start" x="119.2132" y="-293.9" font-family="Arial" font-size="14.00" fill="#666666">[varchar(255)]</text>
<polygon fill="none" stroke="#000000" points="43,-252.5 43,-282.5 253,-282.5 253,-252.5 43,-252.5"/>
<text text-anchor="start" x="50" y="-263.9" font-family="Arial" font-size="14.00" fill="#000000">totalBudget    </text>
<text text-anchor="start" x="155.0154" y="-263.9" font-family="Arial" font-size="14.00" fill="#666666">[int]</text>
<polygon fill="none" stroke="#000000" points="43,-222.5 43,-252.5 253,-252.5 253,-222.5 43,-222.5"/>
<text text-anchor="start" x="50" y="-233.9" font-family="Arial" font-size="14.00" fill="#000000">startDate    </text>
<text text-anchor="start" x="140.9916" y="-233.9" font-family="Arial" font-size="14.00" fill="#666666">[timestamp]</text>
<polygon fill="none" stroke="#000000" points="43,-192.5 43,-222.5 253,-222.5 253,-192.5 43,-192.5"/>
<text text-anchor="start" x="50" y="-203.9" font-family="Arial" font-size="14.00" fill="#000000">endDate    </text>
<text text-anchor="start" x="137.115" y="-203.9" font-family="Arial" font-size="14.00" fill="#666666">[timestamp]</text>
<polygon fill="none" stroke="#000000" points="43,-162.5 43,-192.5 253,-192.5 253,-162.5 43,-162.5"/>
<text text-anchor="start" x="50" y="-173.9" font-family="Arial" font-size="14.00" fill="#000000">createdAt    </text>
<text text-anchor="start" x="144.1136" y="-173.9" font-family="Arial" font-size="14.00" fill="#666666">[timestamp]</text>
<polygon fill="none" stroke="#000000" points="43,-132.5 43,-162.5 253,-162.5 253,-132.5 43,-132.5"/>
<text text-anchor="start" x="50" y="-143.9" font-family="Arial" font-size="14.00" fill="#000000">updatedAt    </text>
<text text-anchor="start" x="148.0182" y="-143.9" font-family="Arial" font-size="14.00" fill="#666666">[timestamp]</text>
<polygon fill="none" stroke="#000000" points="43,-102.5 43,-132.5 253,-132.5 253,-102.5 43,-102.5"/>
<text text-anchor="start" x="50" y="-113.9" font-family="Arial" font-size="14.00" fill="#000000">organizationId    </text>
<text text-anchor="start" x="172.1206" y="-113.9" font-family="Arial" font-size="14.00" fill="#666666">[int]</text>
<polygon fill="none" stroke="#000000" points="43,-72.5 43,-102.5 253,-102.5 253,-72.5 43,-72.5"/>
<text text-anchor="start" x="50" y="-83.9" font-family="Arial" font-size="14.00" fill="#000000">creatorId    </text>
<text text-anchor="start" x="139.4376" y="-83.9" font-family="Arial" font-size="14.00" fill="#666666">[int]</text>
<polygon fill="none" stroke="#000000" points="43,-42.5 43,-72.5 253,-72.5 253,-42.5 43,-42.5"/>
<text text-anchor="start" x="49.608" y="-53.9" font-family="Arial" font-size="14.00" fill="#000000">description    </text>
<text text-anchor="start" x="151.4902" y="-53.9" font-family="Arial" font-size="14.00" fill="#666666">[varchar(2000)]</text>
</g>
<!-- budgets&#45;&gt;projects -->
<g id="edge1" class="edge">
<title>budgets:projectId&#45;&gt;projects:id</title>
<path fill="none" stroke="#000000" stroke-dasharray="5,2" d="M199.7565,-667.041C111.2214,-658.7101 162.8063,-538.788 201,-457 211.5461,-434.4165 233.4539,-443.5835 244,-421 261.583,-383.3476 285.5556,-327.5 253,-327.5"/>
<polygon fill="#000000" stroke="#000000" points="200.01,-667.0523 209.7985,-671.9955 205.005,-667.2762 210,-667.5 210,-667.5 210,-667.5 205.005,-667.2762 210.2015,-663.0045 200.01,-667.0523 200.01,-667.0523"/>
<text text-anchor="start" x="188.7765" y="-677.5" font-family="Arial" font-size="10.00" fill="#000000">1&#45;n</text>
</g>
<!-- budgets&#45;&gt;projects -->
<g id="edge2" class="edge">
<title>budgets:projectId&#45;&gt;projects:id</title>
<path fill="none" stroke="#000000" stroke-dasharray="5,2" d="M199.4478,-666.7567C130.2554,-656.3072 181.1896,-537.9673 219,-457 229.5461,-434.4165 251.4539,-443.5835 262,-421 279.5487,-383.4212 303.4619,-327.7181 253.2954,-327.5006"/>
<polygon fill="#000000" stroke="#000000" points="199.5332,-666.7629 209.1751,-671.9864 204.5197,-667.1307 209.5061,-667.4986 209.5061,-667.4986 209.5061,-667.4986 204.5197,-667.1307 209.8372,-663.0108 199.5332,-666.7629 199.5332,-666.7629"/>
<text text-anchor="start" x="188.2826" y="-651.4986" font-family="Arial" font-size="10.00" fill="#000000">1&#45;n</text>
</g>
<!-- categories -->
<g id="node3" class="node">
<title>categories</title>
<polygon fill="#efefef" stroke="transparent" points="358,-327.5 358,-362.5 599,-362.5 599,-327.5 358,-327.5"/>
<polygon fill="none" stroke="#000000" points="358,-327.5 358,-362.5 599,-362.5 599,-327.5 358,-327.5"/>
<text text-anchor="start" x="373.2062" y="-340.3" font-family="Arial Bold" font-size="18.00" fill="#000000">categories</text>
<text text-anchor="start" x="456.2258" y="-340.3" font-family="Arial" font-size="14.00" fill="#000000">    </text>
<text text-anchor="start" x="490.4306" y="-340.3" font-family="Arial" font-size="14.00" fill="#666666">[BASE TABLE]</text>
<polygon fill="none" stroke="#000000" points="358,-297.5 358,-327.5 599,-327.5 599,-297.5 358,-297.5"/>
<text text-anchor="start" x="365" y="-308.9" font-family="Arial" font-size="14.00" fill="#000000">id    </text>
<text text-anchor="start" x="410.094" y="-308.9" font-family="Arial" font-size="14.00" fill="#666666">[int]</text>
<polygon fill="none" stroke="#000000" points="358,-267.5 358,-297.5 599,-297.5 599,-267.5 358,-267.5"/>
<text text-anchor="start" x="365" y="-278.9" font-family="Arial" font-size="14.00" fill="#000000">name    </text>
<text text-anchor="start" x="434.2132" y="-278.9" font-family="Arial" font-size="14.00" fill="#666666">[varchar(255)]</text>
<polygon fill="none" stroke="#000000" points="358,-237.5 358,-267.5 599,-267.5 599,-237.5 358,-237.5"/>
<text text-anchor="start" x="365" y="-248.9" font-family="Arial" font-size="14.00" fill="#000000">color    </text>
<text text-anchor="start" x="429.5372" y="-248.9" font-family="Arial" font-size="14.00" fill="#666666">[varchar(255)]</text>
<polygon fill="none" stroke="#000000" points="358,-207.5 358,-237.5 599,-237.5 599,-207.5 358,-207.5"/>
<text text-anchor="start" x="365" y="-218.9" font-family="Arial" font-size="14.00" fill="#000000">icon    </text>
<text text-anchor="start" x="424.8766" y="-218.9" font-family="Arial" font-size="14.00" fill="#666666">[varchar(255)]</text>
<polygon fill="none" stroke="#000000" points="358,-177.5 358,-207.5 599,-207.5 599,-177.5 358,-177.5"/>
<text text-anchor="start" x="364.9698" y="-188.9" font-family="Arial" font-size="14.00" fill="#000000">type    </text>
<text text-anchor="start" x="425.6304" y="-188.9" font-family="Arial" font-size="14.00" fill="#666666">[enum(&#39;expense&#39;,&#39;income&#39;)]</text>
<polygon fill="none" stroke="#000000" points="358,-147.5 358,-177.5 599,-177.5 599,-147.5 358,-147.5"/>
<text text-anchor="start" x="365" y="-158.9" font-family="Arial" font-size="14.00" fill="#000000">createdAt    </text>
<text text-anchor="start" x="459.1136" y="-158.9" font-family="Arial" font-size="14.00" fill="#666666">[timestamp]</text>
<polygon fill="none" stroke="#000000" points="358,-117.5 358,-147.5 599,-147.5 599,-117.5 358,-117.5"/>
<text text-anchor="start" x="365" y="-128.9" font-family="Arial" font-size="14.00" fill="#000000">updatedAt    </text>
<text text-anchor="start" x="463.0182" y="-128.9" font-family="Arial" font-size="14.00" fill="#666666">[timestamp]</text>
<polygon fill="none" stroke="#000000" points="358,-87.5 358,-117.5 599,-117.5 599,-87.5 358,-87.5"/>
<text text-anchor="start" x="365" y="-98.9" font-family="Arial" font-size="14.00" fill="#000000">organizationId    </text>
<text text-anchor="start" x="487.1206" y="-98.9" font-family="Arial" font-size="14.00" fill="#666666">[int]</text>
<polygon fill="none" stroke="#000000" points="358,-57.5 358,-87.5 599,-87.5 599,-57.5 358,-57.5"/>
<text text-anchor="start" x="365" y="-68.9" font-family="Arial" font-size="14.00" fill="#000000">projectId    </text>
<text text-anchor="start" x="452.8836" y="-68.9" font-family="Arial" font-size="14.00" fill="#666666">[int]</text>
</g>
<!-- budgets&#45;&gt;categories -->
<g id="edge3" class="edge">
<title>budgets:categoryId&#45;&gt;categories:id</title>
<path fill="none" stroke="#000000" stroke-dasharray="5,2" d="M425.051,-636.8634C490.9864,-627.9316 446.2734,-526.9455 415,-457 401.1249,-425.9672 371.8751,-437.0328 358,-406 341.0383,-368.0637 316.4444,-312.5 358,-312.5"/>
<polygon fill="#000000" stroke="#000000" points="424.98,-636.8678 414.7155,-633.009 419.99,-637.1839 415,-637.5 415,-637.5 415,-637.5 419.99,-637.1839 415.2845,-641.991 424.98,-636.8678 424.98,-636.8678"/>
<text text-anchor="start" x="393.7765" y="-647.5" font-family="Arial" font-size="10.00" fill="#000000">1&#45;1</text>
</g>
<!-- organizations -->
<g id="node4" class="node">
<title>organizations</title>
<polygon fill="#efefef" stroke="transparent" points="703,-312.5 703,-347.5 951,-347.5 951,-312.5 703,-312.5"/>
<polygon fill="none" stroke="#000000" points="703,-312.5 703,-347.5 951,-347.5 951,-312.5 703,-312.5"/>
<text text-anchor="start" x="709.7029" y="-325.3" font-family="Arial Bold" font-size="18.00" fill="#000000">organizations</text>
<text text-anchor="start" x="816.7291" y="-325.3" font-family="Arial" font-size="14.00" fill="#000000">    </text>
<text text-anchor="start" x="850.9339" y="-325.3" font-family="Arial" font-size="14.00" fill="#666666">[BASE TABLE]</text>
<polygon fill="none" stroke="#000000" points="703,-282.5 703,-312.5 951,-312.5 951,-282.5 703,-282.5"/>
<text text-anchor="start" x="710" y="-293.9" font-family="Arial" font-size="14.00" fill="#000000">id    </text>
<text text-anchor="start" x="755.094" y="-293.9" font-family="Arial" font-size="14.00" fill="#666666">[int]</text>
<polygon fill="none" stroke="#000000" points="703,-252.5 703,-282.5 951,-282.5 951,-252.5 703,-252.5"/>
<text text-anchor="start" x="710" y="-263.9" font-family="Arial" font-size="14.00" fill="#000000">name    </text>
<text text-anchor="start" x="779.2132" y="-263.9" font-family="Arial" font-size="14.00" fill="#666666">[varchar(255)]</text>
<polygon fill="none" stroke="#000000" points="703,-222.5 703,-252.5 951,-252.5 951,-222.5 703,-222.5"/>
<text text-anchor="start" x="710" y="-233.9" font-family="Arial" font-size="14.00" fill="#000000">uniqueName    </text>
<text text-anchor="start" x="823.5568" y="-233.9" font-family="Arial" font-size="14.00" fill="#666666">[varchar(255)]</text>
<polygon fill="none" stroke="#000000" points="703,-192.5 703,-222.5 951,-222.5 951,-192.5 703,-192.5"/>
<text text-anchor="start" x="710" y="-203.9" font-family="Arial" font-size="14.00" fill="#000000">createdAt    </text>
<text text-anchor="start" x="804.1136" y="-203.9" font-family="Arial" font-size="14.00" fill="#666666">[timestamp]</text>
<polygon fill="none" stroke="#000000" points="703,-162.5 703,-192.5 951,-192.5 951,-162.5 703,-162.5"/>
<text text-anchor="start" x="710" y="-173.9" font-family="Arial" font-size="14.00" fill="#000000">updatedAt    </text>
<text text-anchor="start" x="808.0182" y="-173.9" font-family="Arial" font-size="14.00" fill="#666666">[timestamp]</text>
<polygon fill="none" stroke="#000000" points="703,-132.5 703,-162.5 951,-162.5 951,-132.5 703,-132.5"/>
<text text-anchor="start" x="710" y="-143.9" font-family="Arial" font-size="14.00" fill="#000000">phone    </text>
<text text-anchor="start" x="783.1178" y="-143.9" font-family="Arial" font-size="14.00" fill="#666666">[varchar(255)]</text>
<polygon fill="none" stroke="#000000" points="703,-102.5 703,-132.5 951,-132.5 951,-102.5 703,-102.5"/>
<text text-anchor="start" x="710" y="-113.9" font-family="Arial" font-size="14.00" fill="#000000">address    </text>
<text text-anchor="start" x="793.9958" y="-113.9" font-family="Arial" font-size="14.00" fill="#666666">[varchar(255)]</text>
<polygon fill="none" stroke="#000000" points="703,-72.5 703,-102.5 951,-102.5 951,-72.5 703,-72.5"/>
<text text-anchor="start" x="710" y="-83.9" font-family="Arial" font-size="14.00" fill="#000000">dateFormat    </text>
<text text-anchor="start" x="815.7728" y="-83.9" font-family="Arial" font-size="14.00" fill="#666666">[varchar(255)]</text>
</g>
<!-- budgets&#45;&gt;organizations -->
<g id="edge4" class="edge">
<title>budgets:organizationId&#45;&gt;organizations:id</title>
<path fill="none" stroke="#000000" stroke-dasharray="5,2" d="M425.099,-517.4526C530.9053,-516.4259 572.8955,-498.2988 651,-421 693.3302,-379.1065 643.444,-297.5 703,-297.5"/>
<polygon fill="#000000" stroke="#000000" points="424.9999,-517.4529 414.9788,-513 419.9999,-517.4765 415,-517.5 415,-517.5 415,-517.5 419.9999,-517.4765 415.0212,-522 424.9999,-517.4529 424.9999,-517.4529"/>
<text text-anchor="start" x="393.7765" y="-527.5" font-family="Arial" font-size="10.00" fill="#000000">1&#45;n</text>
</g>
</g>
</svg>
