<?xml version="1.0" encoding="UTF-8" standalone="no"?>
<!DOCTYPE svg PUBLIC "-//W3C//DTD SVG 1.1//EN"
 "http://www.w3.org/Graphics/SVG/1.1/DTD/svg11.dtd">
<!-- Generated by graphviz version 2.40.1 (20161225.0304)
 -->
<!-- Title: categories Pages: 1 -->
<svg width="644pt" height="1529pt"
 viewBox="0.00 0.00 644.00 1529.00" xmlns="http://www.w3.org/2000/svg" xmlns:xlink="http://www.w3.org/1999/xlink">
<g id="graph0" class="graph" transform="scale(1 1) rotate(0) translate(4 1525)">
<title>categories</title>
<polygon fill="#ffffff" stroke="transparent" points="-4,4 -4,-1525 640,-1525 640,4 -4,4"/>
<!-- categories -->
<g id="node1" class="node">
<title>categories</title>
<polygon fill="#efefef" stroke="transparent" points="215.5,-802.5 215.5,-837.5 439.5,-837.5 439.5,-802.5 215.5,-802.5"/>
<polygon fill="none" stroke="#000000" points="215.5,-802.5 215.5,-837.5 439.5,-837.5 439.5,-802.5 215.5,-802.5"/>
<text text-anchor="start" x="222.2062" y="-815.3" font-family="Arial Bold" font-size="18.00" fill="#000000">categories</text>
<text text-anchor="start" x="305.2258" y="-815.3" font-family="Arial" font-size="14.00" fill="#000000">    </text>
<text text-anchor="start" x="339.4306" y="-815.3" font-family="Arial" font-size="14.00" fill="#666666">[BASE TABLE]</text>
<polygon fill="none" stroke="#000000" points="215.5,-772.5 215.5,-802.5 439.5,-802.5 439.5,-772.5 215.5,-772.5"/>
<text text-anchor="start" x="222.5" y="-783.9" font-family="Arial" font-size="14.00" fill="#000000">id </text>
<text text-anchor="start" x="237.2798" y="-783.9" font-family="Arial" font-size="14.00" fill="#666666">[int]</text>
<polygon fill="none" stroke="#000000" points="215.5,-742.5 215.5,-772.5 439.5,-772.5 439.5,-742.5 215.5,-742.5"/>
<text text-anchor="start" x="222.5" y="-753.9" font-family="Arial" font-size="14.00" fill="#000000">name </text>
<text text-anchor="start" x="261.399" y="-753.9" font-family="Arial" font-size="14.00" fill="#666666">[varchar(255)]</text>
<polygon fill="none" stroke="#000000" points="215.5,-712.5 215.5,-742.5 439.5,-742.5 439.5,-712.5 215.5,-712.5"/>
<text text-anchor="start" x="222.5" y="-723.9" font-family="Arial" font-size="14.00" fill="#000000">color </text>
<text text-anchor="start" x="256.723" y="-723.9" font-family="Arial" font-size="14.00" fill="#666666">[varchar(255)]</text>
<polygon fill="none" stroke="#000000" points="215.5,-682.5 215.5,-712.5 439.5,-712.5 439.5,-682.5 215.5,-682.5"/>
<text text-anchor="start" x="222.5" y="-693.9" font-family="Arial" font-size="14.00" fill="#000000">icon </text>
<text text-anchor="start" x="252.0624" y="-693.9" font-family="Arial" font-size="14.00" fill="#666666">[varchar(255)]</text>
<polygon fill="none" stroke="#000000" points="215.5,-652.5 215.5,-682.5 439.5,-682.5 439.5,-652.5 215.5,-652.5"/>
<text text-anchor="start" x="222.5" y="-663.9" font-family="Arial" font-size="14.00" fill="#000000">type </text>
<text text-anchor="start" x="252.8464" y="-663.9" font-family="Arial" font-size="14.00" fill="#666666">[enum(&#39;expense&#39;,&#39;income&#39;)]</text>
<polygon fill="none" stroke="#000000" points="215.5,-622.5 215.5,-652.5 439.5,-652.5 439.5,-622.5 215.5,-622.5"/>
<text text-anchor="start" x="222.5" y="-633.9" font-family="Arial" font-size="14.00" fill="#000000">createdAt </text>
<text text-anchor="start" x="286.2994" y="-633.9" font-family="Arial" font-size="14.00" fill="#666666">[timestamp]</text>
<polygon fill="none" stroke="#000000" points="215.5,-592.5 215.5,-622.5 439.5,-622.5 439.5,-592.5 215.5,-592.5"/>
<text text-anchor="start" x="222.5" y="-603.9" font-family="Arial" font-size="14.00" fill="#000000">updatedAt </text>
<text text-anchor="start" x="290.204" y="-603.9" font-family="Arial" font-size="14.00" fill="#666666">[timestamp]</text>
<polygon fill="none" stroke="#000000" points="215.5,-562.5 215.5,-592.5 439.5,-592.5 439.5,-562.5 215.5,-562.5"/>
<text text-anchor="start" x="222.5" y="-573.9" font-family="Arial" font-size="14.00" fill="#000000">organizationId </text>
<text text-anchor="start" x="314.3064" y="-573.9" font-family="Arial" font-size="14.00" fill="#666666">[int]</text>
<polygon fill="none" stroke="#000000" points="215.5,-532.5 215.5,-562.5 439.5,-562.5 439.5,-532.5 215.5,-532.5"/>
<text text-anchor="start" x="222.5" y="-543.9" font-family="Arial" font-size="14.00" fill="#000000">projectId </text>
<text text-anchor="start" x="280.0694" y="-543.9" font-family="Arial" font-size="14.00" fill="#666666">[int]</text>
<polygon fill="none" stroke="#000000" stroke-width="3" points="214,-531.5 214,-839.5 441,-839.5 441,-531.5 214,-531.5"/>
</g>
<!-- organizations -->
<g id="node4" class="node">
<title>organizations</title>
<polygon fill="#efefef" stroke="transparent" points="203.5,-372.5 203.5,-407.5 451.5,-407.5 451.5,-372.5 203.5,-372.5"/>
<polygon fill="none" stroke="#000000" points="203.5,-372.5 203.5,-407.5 451.5,-407.5 451.5,-372.5 203.5,-372.5"/>
<text text-anchor="start" x="210.2029" y="-385.3" font-family="Arial Bold" font-size="18.00" fill="#000000">organizations</text>
<text text-anchor="start" x="317.2291" y="-385.3" font-family="Arial" font-size="14.00" fill="#000000">    </text>
<text text-anchor="start" x="351.4339" y="-385.3" font-family="Arial" font-size="14.00" fill="#666666">[BASE TABLE]</text>
<polygon fill="none" stroke="#000000" points="203.5,-342.5 203.5,-372.5 451.5,-372.5 451.5,-342.5 203.5,-342.5"/>
<text text-anchor="start" x="210.5" y="-353.9" font-family="Arial" font-size="14.00" fill="#000000">id    </text>
<text text-anchor="start" x="255.594" y="-353.9" font-family="Arial" font-size="14.00" fill="#666666">[int]</text>
<polygon fill="none" stroke="#000000" points="203.5,-312.5 203.5,-342.5 451.5,-342.5 451.5,-312.5 203.5,-312.5"/>
<text text-anchor="start" x="210.5" y="-323.9" font-family="Arial" font-size="14.00" fill="#000000">name    </text>
<text text-anchor="start" x="279.7132" y="-323.9" font-family="Arial" font-size="14.00" fill="#666666">[varchar(255)]</text>
<polygon fill="none" stroke="#000000" points="203.5,-282.5 203.5,-312.5 451.5,-312.5 451.5,-282.5 203.5,-282.5"/>
<text text-anchor="start" x="210.5" y="-293.9" font-family="Arial" font-size="14.00" fill="#000000">uniqueName    </text>
<text text-anchor="start" x="324.0568" y="-293.9" font-family="Arial" font-size="14.00" fill="#666666">[varchar(255)]</text>
<polygon fill="none" stroke="#000000" points="203.5,-252.5 203.5,-282.5 451.5,-282.5 451.5,-252.5 203.5,-252.5"/>
<text text-anchor="start" x="210.5" y="-263.9" font-family="Arial" font-size="14.00" fill="#000000">createdAt    </text>
<text text-anchor="start" x="304.6136" y="-263.9" font-family="Arial" font-size="14.00" fill="#666666">[timestamp]</text>
<polygon fill="none" stroke="#000000" points="203.5,-222.5 203.5,-252.5 451.5,-252.5 451.5,-222.5 203.5,-222.5"/>
<text text-anchor="start" x="210.5" y="-233.9" font-family="Arial" font-size="14.00" fill="#000000">updatedAt    </text>
<text text-anchor="start" x="308.5182" y="-233.9" font-family="Arial" font-size="14.00" fill="#666666">[timestamp]</text>
<polygon fill="none" stroke="#000000" points="203.5,-192.5 203.5,-222.5 451.5,-222.5 451.5,-192.5 203.5,-192.5"/>
<text text-anchor="start" x="210.5" y="-203.9" font-family="Arial" font-size="14.00" fill="#000000">phone    </text>
<text text-anchor="start" x="283.6178" y="-203.9" font-family="Arial" font-size="14.00" fill="#666666">[varchar(255)]</text>
<polygon fill="none" stroke="#000000" points="203.5,-162.5 203.5,-192.5 451.5,-192.5 451.5,-162.5 203.5,-162.5"/>
<text text-anchor="start" x="210.5" y="-173.9" font-family="Arial" font-size="14.00" fill="#000000">address    </text>
<text text-anchor="start" x="294.4958" y="-173.9" font-family="Arial" font-size="14.00" fill="#666666">[varchar(255)]</text>
<polygon fill="none" stroke="#000000" points="203.5,-132.5 203.5,-162.5 451.5,-162.5 451.5,-132.5 203.5,-132.5"/>
<text text-anchor="start" x="210.5" y="-143.9" font-family="Arial" font-size="14.00" fill="#000000">dateFormat    </text>
<text text-anchor="start" x="316.2728" y="-143.9" font-family="Arial" font-size="14.00" fill="#666666">[varchar(255)]</text>
<polygon fill="none" stroke="#000000" points="203.5,-102.5 203.5,-132.5 451.5,-132.5 451.5,-102.5 203.5,-102.5"/>
<text text-anchor="start" x="210.5" y="-113.9" font-family="Arial" font-size="14.00" fill="#000000">currency    </text>
<text text-anchor="start" x="298.3738" y="-113.9" font-family="Arial" font-size="14.00" fill="#666666">[enum(&#39;vnd&#39;,&#39;usd&#39;)]</text>
<polygon fill="none" stroke="#000000" points="203.5,-72.5 203.5,-102.5 451.5,-102.5 451.5,-72.5 203.5,-72.5"/>
<text text-anchor="start" x="210.5" y="-83.9" font-family="Arial" font-size="14.00" fill="#000000">bank    </text>
<text text-anchor="start" x="275.0526" y="-83.9" font-family="Arial" font-size="14.00" fill="#666666">[enum(&#39;bidv&#39;,&#39;vcb&#39;)]</text>
<polygon fill="none" stroke="#000000" points="203.5,-42.5 203.5,-72.5 451.5,-72.5 451.5,-42.5 203.5,-42.5"/>
<text text-anchor="start" x="210.5" y="-53.9" font-family="Arial" font-size="14.00" fill="#000000">exchangeRate    </text>
<text text-anchor="start" x="334.9628" y="-53.9" font-family="Arial" font-size="14.00" fill="#666666">[int]</text>
</g>
<!-- categories&#45;&gt;organizations -->
<g id="edge3" class="edge">
<title>categories:organizationId&#45;&gt;organizations:id</title>
<path fill="none" stroke="#000000" stroke-dasharray="5,2" d="M449.5082,-576.7034C538.131,-562.3032 545.9805,-357.5 451.5,-357.5"/>
<polygon fill="#000000" stroke="#000000" points="449.4685,-576.7065 439.1429,-573.0142 444.4842,-577.1032 439.5,-577.5 439.5,-577.5 439.5,-577.5 444.4842,-577.1032 439.8571,-581.9858 449.4685,-576.7065 449.4685,-576.7065"/>
<text text-anchor="start" x="418.2765" y="-587.5" font-family="Arial" font-size="10.00" fill="#000000">1&#45;n</text>
</g>
<!-- invoices -->
<g id="node2" class="node">
<title>invoices</title>
<polygon fill="#efefef" stroke="transparent" points="43.5,-1442.5 43.5,-1477.5 284.5,-1477.5 284.5,-1442.5 43.5,-1442.5"/>
<polygon fill="none" stroke="#000000" points="43.5,-1442.5 43.5,-1477.5 284.5,-1477.5 284.5,-1442.5 43.5,-1442.5"/>
<text text-anchor="start" x="67.7125" y="-1455.3" font-family="Arial Bold" font-size="18.00" fill="#000000">invoices</text>
<text text-anchor="start" x="132.7195" y="-1455.3" font-family="Arial" font-size="14.00" fill="#000000">    </text>
<text text-anchor="start" x="166.9243" y="-1455.3" font-family="Arial" font-size="14.00" fill="#666666">[BASE TABLE]</text>
<polygon fill="none" stroke="#000000" points="43.5,-1412.5 43.5,-1442.5 284.5,-1442.5 284.5,-1412.5 43.5,-1412.5"/>
<text text-anchor="start" x="50.5" y="-1423.9" font-family="Arial" font-size="14.00" fill="#000000">id    </text>
<text text-anchor="start" x="95.594" y="-1423.9" font-family="Arial" font-size="14.00" fill="#666666">[int]</text>
<polygon fill="none" stroke="#000000" points="43.5,-1382.5 43.5,-1412.5 284.5,-1412.5 284.5,-1382.5 43.5,-1382.5"/>
<text text-anchor="start" x="50.5" y="-1393.9" font-family="Arial" font-size="14.00" fill="#000000">date    </text>
<text text-anchor="start" x="111.9432" y="-1393.9" font-family="Arial" font-size="14.00" fill="#666666">[timestamp]</text>
<polygon fill="none" stroke="#000000" points="43.5,-1352.5 43.5,-1382.5 284.5,-1382.5 284.5,-1352.5 43.5,-1352.5"/>
<text text-anchor="start" x="50.5" y="-1363.9" font-family="Arial" font-size="14.00" fill="#000000">createdAt    </text>
<text text-anchor="start" x="144.6136" y="-1363.9" font-family="Arial" font-size="14.00" fill="#666666">[timestamp]</text>
<polygon fill="none" stroke="#000000" points="43.5,-1322.5 43.5,-1352.5 284.5,-1352.5 284.5,-1322.5 43.5,-1322.5"/>
<text text-anchor="start" x="50.5" y="-1333.9" font-family="Arial" font-size="14.00" fill="#000000">updatedAt    </text>
<text text-anchor="start" x="148.5182" y="-1333.9" font-family="Arial" font-size="14.00" fill="#666666">[timestamp]</text>
<polygon fill="none" stroke="#000000" points="43.5,-1292.5 43.5,-1322.5 284.5,-1322.5 284.5,-1292.5 43.5,-1292.5"/>
<text text-anchor="start" x="50.5" y="-1303.9" font-family="Arial" font-size="14.00" fill="#000000">organizationId    </text>
<text text-anchor="start" x="172.6206" y="-1303.9" font-family="Arial" font-size="14.00" fill="#666666">[int]</text>
<polygon fill="none" stroke="#000000" points="43.5,-1262.5 43.5,-1292.5 284.5,-1292.5 284.5,-1262.5 43.5,-1262.5"/>
<text text-anchor="start" x="50.5" y="-1273.9" font-family="Arial" font-size="14.00" fill="#000000">total    </text>
<text text-anchor="start" x="111.1578" y="-1273.9" font-family="Arial" font-size="14.00" fill="#666666">[int]</text>
<polygon fill="none" stroke="#000000" points="43.5,-1232.5 43.5,-1262.5 284.5,-1262.5 284.5,-1232.5 43.5,-1232.5"/>
<text text-anchor="start" x="50.5" y="-1243.9" font-family="Arial" font-size="14.00" fill="#000000">currency    </text>
<text text-anchor="start" x="138.3738" y="-1243.9" font-family="Arial" font-size="14.00" fill="#666666">[enum(&#39;vnd&#39;,&#39;usd&#39;)]</text>
<polygon fill="none" stroke="#000000" points="43.5,-1202.5 43.5,-1232.5 284.5,-1232.5 284.5,-1202.5 43.5,-1202.5"/>
<text text-anchor="start" x="50.4698" y="-1213.9" font-family="Arial" font-size="14.00" fill="#000000">type    </text>
<text text-anchor="start" x="111.1304" y="-1213.9" font-family="Arial" font-size="14.00" fill="#666666">[enum(&#39;expense&#39;,&#39;income&#39;)]</text>
<polygon fill="none" stroke="#000000" points="43.5,-1172.5 43.5,-1202.5 284.5,-1202.5 284.5,-1172.5 43.5,-1172.5"/>
<text text-anchor="start" x="50.5" y="-1183.9" font-family="Arial" font-size="14.00" fill="#000000">projectId    </text>
<text text-anchor="start" x="138.3836" y="-1183.9" font-family="Arial" font-size="14.00" fill="#666666">[int]</text>
<polygon fill="none" stroke="#000000" points="43.5,-1142.5 43.5,-1172.5 284.5,-1172.5 284.5,-1142.5 43.5,-1142.5"/>
<text text-anchor="start" x="50.5" y="-1153.9" font-family="Arial" font-size="14.00" fill="#000000">categoryId    </text>
<text text-anchor="start" x="150.0596" y="-1153.9" font-family="Arial" font-size="14.00" fill="#666666">[int]</text>
<polygon fill="none" stroke="#000000" points="43.5,-1112.5 43.5,-1142.5 284.5,-1142.5 284.5,-1112.5 43.5,-1112.5"/>
<text text-anchor="start" x="50.5" y="-1123.9" font-family="Arial" font-size="14.00" fill="#000000">clientName    </text>
<text text-anchor="start" x="154.7062" y="-1123.9" font-family="Arial" font-size="14.00" fill="#666666">[varchar(255)]</text>
<polygon fill="none" stroke="#000000" points="43.5,-1082.5 43.5,-1112.5 284.5,-1112.5 284.5,-1082.5 43.5,-1082.5"/>
<text text-anchor="start" x="50.5" y="-1093.9" font-family="Arial" font-size="14.00" fill="#000000">tax    </text>
<text text-anchor="start" x="103.378" y="-1093.9" font-family="Arial" font-size="14.00" fill="#666666">[int]</text>
<polygon fill="none" stroke="#000000" points="43.5,-1052.5 43.5,-1082.5 284.5,-1082.5 284.5,-1052.5 43.5,-1052.5"/>
<text text-anchor="start" x="50.5" y="-1063.9" font-family="Arial" font-size="14.00" fill="#000000">uid    </text>
<text text-anchor="start" x="103.3766" y="-1063.9" font-family="Arial" font-size="14.00" fill="#666666">[varchar(255)]</text>
<polygon fill="none" stroke="#000000" points="43.5,-1022.5 43.5,-1052.5 284.5,-1052.5 284.5,-1022.5 43.5,-1022.5"/>
<text text-anchor="start" x="50.5" y="-1033.9" font-family="Arial" font-size="14.00" fill="#000000">exchangeRate    </text>
<text text-anchor="start" x="174.9628" y="-1033.9" font-family="Arial" font-size="14.00" fill="#666666">[decimal(10,0)]</text>
<polygon fill="none" stroke="#000000" points="43.5,-992.5 43.5,-1022.5 284.5,-1022.5 284.5,-992.5 43.5,-992.5"/>
<text text-anchor="start" x="50.5" y="-1003.9" font-family="Arial" font-size="14.00" fill="#000000">note    </text>
<text text-anchor="start" x="111.9432" y="-1003.9" font-family="Arial" font-size="14.00" fill="#666666">[varchar(255)]</text>
<polygon fill="none" stroke="#000000" points="43.5,-962.5 43.5,-992.5 284.5,-992.5 284.5,-962.5 43.5,-962.5"/>
<text text-anchor="start" x="50.5" y="-973.9" font-family="Arial" font-size="14.00" fill="#000000">discount    </text>
<text text-anchor="start" x="136.8324" y="-973.9" font-family="Arial" font-size="14.00" fill="#666666">[int]</text>
</g>
<!-- invoices&#45;&gt;categories -->
<g id="edge1" class="edge">
<title>invoices:categoryId&#45;&gt;categories:id</title>
<path fill="none" stroke="#000000" stroke-dasharray="5,2" d="M294.4995,-1154.765C333.6937,-1131.1763 309.9352,-961.9596 284.5,-920 266.5694,-890.4206 233.4306,-913.5794 215.5,-884 193.2673,-847.3235 172.6111,-787.5 215.5,-787.5"/>
<polygon fill="#000000" stroke="#000000" points="294.1457,-1154.8617 283.3127,-1153.1594 289.3229,-1156.1808 284.5,-1157.5 284.5,-1157.5 284.5,-1157.5 289.3229,-1156.1808 285.6873,-1161.8406 294.1457,-1154.8617 294.1457,-1154.8617"/>
<text text-anchor="start" x="263.2765" y="-1167.5" font-family="Arial" font-size="10.00" fill="#000000">1&#45;n</text>
</g>
<!-- budgets -->
<g id="node3" class="node">
<title>budgets</title>
<polygon fill="#efefef" stroke="transparent" points="388.5,-1307.5 388.5,-1342.5 593.5,-1342.5 593.5,-1307.5 388.5,-1307.5"/>
<polygon fill="none" stroke="#000000" points="388.5,-1307.5 388.5,-1342.5 593.5,-1342.5 593.5,-1307.5 388.5,-1307.5"/>
<text text-anchor="start" x="395.1994" y="-1320.3" font-family="Arial Bold" font-size="18.00" fill="#000000">budgets</text>
<text text-anchor="start" x="459.2326" y="-1320.3" font-family="Arial" font-size="14.00" fill="#000000">    </text>
<text text-anchor="start" x="493.4374" y="-1320.3" font-family="Arial" font-size="14.00" fill="#666666">[BASE TABLE]</text>
<polygon fill="none" stroke="#000000" points="388.5,-1277.5 388.5,-1307.5 593.5,-1307.5 593.5,-1277.5 388.5,-1277.5"/>
<text text-anchor="start" x="395.5" y="-1288.9" font-family="Arial" font-size="14.00" fill="#000000">id    </text>
<text text-anchor="start" x="440.594" y="-1288.9" font-family="Arial" font-size="14.00" fill="#666666">[int]</text>
<polygon fill="none" stroke="#000000" points="388.5,-1247.5 388.5,-1277.5 593.5,-1277.5 593.5,-1247.5 388.5,-1247.5"/>
<text text-anchor="start" x="395.5" y="-1258.9" font-family="Arial" font-size="14.00" fill="#000000">projectId    </text>
<text text-anchor="start" x="483.3836" y="-1258.9" font-family="Arial" font-size="14.00" fill="#666666">[int]</text>
<polygon fill="none" stroke="#000000" points="388.5,-1217.5 388.5,-1247.5 593.5,-1247.5 593.5,-1217.5 388.5,-1217.5"/>
<text text-anchor="start" x="395.5" y="-1228.9" font-family="Arial" font-size="14.00" fill="#000000">categoryId    </text>
<text text-anchor="start" x="495.0596" y="-1228.9" font-family="Arial" font-size="14.00" fill="#666666">[int]</text>
<polygon fill="none" stroke="#000000" points="388.5,-1187.5 388.5,-1217.5 593.5,-1217.5 593.5,-1187.5 388.5,-1187.5"/>
<text text-anchor="start" x="395.5" y="-1198.9" font-family="Arial" font-size="14.00" fill="#000000">amount    </text>
<text text-anchor="start" x="476.3864" y="-1198.9" font-family="Arial" font-size="14.00" fill="#666666">[int]</text>
<polygon fill="none" stroke="#000000" points="388.5,-1157.5 388.5,-1187.5 593.5,-1187.5 593.5,-1157.5 388.5,-1157.5"/>
<text text-anchor="start" x="395.5" y="-1168.9" font-family="Arial" font-size="14.00" fill="#000000">createdAt    </text>
<text text-anchor="start" x="489.6136" y="-1168.9" font-family="Arial" font-size="14.00" fill="#666666">[timestamp]</text>
<polygon fill="none" stroke="#000000" points="388.5,-1127.5 388.5,-1157.5 593.5,-1157.5 593.5,-1127.5 388.5,-1127.5"/>
<text text-anchor="start" x="395.5" y="-1138.9" font-family="Arial" font-size="14.00" fill="#000000">updatedAt    </text>
<text text-anchor="start" x="493.5182" y="-1138.9" font-family="Arial" font-size="14.00" fill="#666666">[timestamp]</text>
<polygon fill="none" stroke="#000000" points="388.5,-1097.5 388.5,-1127.5 593.5,-1127.5 593.5,-1097.5 388.5,-1097.5"/>
<text text-anchor="start" x="395.5" y="-1108.9" font-family="Arial" font-size="14.00" fill="#000000">organizationId    </text>
<text text-anchor="start" x="517.6206" y="-1108.9" font-family="Arial" font-size="14.00" fill="#666666">[int]</text>
</g>
<!-- budgets&#45;&gt;categories -->
<g id="edge2" class="edge">
<title>budgets:categoryId&#45;&gt;categories:id</title>
<path fill="none" stroke="#000000" stroke-dasharray="5,2" d="M378.3174,-1230.8573C307.7285,-1205.6041 437.5328,-897.4792 439.5,-884 445.6939,-841.5607 482.3889,-787.5 439.5,-787.5"/>
<polygon fill="#000000" stroke="#000000" points="378.6276,-1230.9073 387.7833,-1236.9426 383.5638,-1231.7036 388.5,-1232.5 388.5,-1232.5 388.5,-1232.5 383.5638,-1231.7036 389.2167,-1228.0574 378.6276,-1230.9073 378.6276,-1230.9073"/>
<text text-anchor="start" x="367.2765" y="-1242.5" font-family="Arial" font-size="10.00" fill="#000000">1&#45;1</text>
</g>
</g>
</svg>
