<?xml version="1.0" encoding="UTF-8" standalone="no"?>
<!DOCTYPE svg PUBLIC "-//W3C//DTD SVG 1.1//EN"
 "http://www.w3.org/Graphics/SVG/1.1/DTD/svg11.dtd">
<!-- Generated by graphviz version 2.40.1 (20161225.0304)
 -->
<!-- Title: categories Pages: 1 -->
<svg width="644pt" height="1319pt"
 viewBox="0.00 0.00 644.00 1319.00" xmlns="http://www.w3.org/2000/svg" xmlns:xlink="http://www.w3.org/1999/xlink">
<g id="graph0" class="graph" transform="scale(1 1) rotate(0) translate(4 1315)">
<title>categories</title>
<polygon fill="#ffffff" stroke="transparent" points="-4,4 -4,-1315 640,-1315 640,4 -4,4"/>
<!-- categories -->
<g id="node1" class="node">
<title>categories</title>
<polygon fill="#efefef" stroke="transparent" points="215.5,-682.5 215.5,-717.5 439.5,-717.5 439.5,-682.5 215.5,-682.5"/>
<polygon fill="none" stroke="#000000" points="215.5,-682.5 215.5,-717.5 439.5,-717.5 439.5,-682.5 215.5,-682.5"/>
<text text-anchor="start" x="222.2062" y="-695.3" font-family="Arial Bold" font-size="18.00" fill="#000000">categories</text>
<text text-anchor="start" x="305.2258" y="-695.3" font-family="Arial" font-size="14.00" fill="#000000">    </text>
<text text-anchor="start" x="339.4306" y="-695.3" font-family="Arial" font-size="14.00" fill="#666666">[BASE TABLE]</text>
<polygon fill="none" stroke="#000000" points="215.5,-652.5 215.5,-682.5 439.5,-682.5 439.5,-652.5 215.5,-652.5"/>
<text text-anchor="start" x="222.5" y="-663.9" font-family="Arial" font-size="14.00" fill="#000000">id </text>
<text text-anchor="start" x="237.2798" y="-663.9" font-family="Arial" font-size="14.00" fill="#666666">[int]</text>
<polygon fill="none" stroke="#000000" points="215.5,-622.5 215.5,-652.5 439.5,-652.5 439.5,-622.5 215.5,-622.5"/>
<text text-anchor="start" x="222.5" y="-633.9" font-family="Arial" font-size="14.00" fill="#000000">name </text>
<text text-anchor="start" x="261.399" y="-633.9" font-family="Arial" font-size="14.00" fill="#666666">[varchar(255)]</text>
<polygon fill="none" stroke="#000000" points="215.5,-592.5 215.5,-622.5 439.5,-622.5 439.5,-592.5 215.5,-592.5"/>
<text text-anchor="start" x="222.5" y="-603.9" font-family="Arial" font-size="14.00" fill="#000000">color </text>
<text text-anchor="start" x="256.723" y="-603.9" font-family="Arial" font-size="14.00" fill="#666666">[varchar(255)]</text>
<polygon fill="none" stroke="#000000" points="215.5,-562.5 215.5,-592.5 439.5,-592.5 439.5,-562.5 215.5,-562.5"/>
<text text-anchor="start" x="222.5" y="-573.9" font-family="Arial" font-size="14.00" fill="#000000">icon </text>
<text text-anchor="start" x="252.0624" y="-573.9" font-family="Arial" font-size="14.00" fill="#666666">[varchar(255)]</text>
<polygon fill="none" stroke="#000000" points="215.5,-532.5 215.5,-562.5 439.5,-562.5 439.5,-532.5 215.5,-532.5"/>
<text text-anchor="start" x="222.5" y="-543.9" font-family="Arial" font-size="14.00" fill="#000000">type </text>
<text text-anchor="start" x="252.8464" y="-543.9" font-family="Arial" font-size="14.00" fill="#666666">[enum(&#39;expense&#39;,&#39;income&#39;)]</text>
<polygon fill="none" stroke="#000000" points="215.5,-502.5 215.5,-532.5 439.5,-532.5 439.5,-502.5 215.5,-502.5"/>
<text text-anchor="start" x="222.5" y="-513.9" font-family="Arial" font-size="14.00" fill="#000000">createdAt </text>
<text text-anchor="start" x="286.2994" y="-513.9" font-family="Arial" font-size="14.00" fill="#666666">[timestamp]</text>
<polygon fill="none" stroke="#000000" points="215.5,-472.5 215.5,-502.5 439.5,-502.5 439.5,-472.5 215.5,-472.5"/>
<text text-anchor="start" x="222.5" y="-483.9" font-family="Arial" font-size="14.00" fill="#000000">updatedAt </text>
<text text-anchor="start" x="290.204" y="-483.9" font-family="Arial" font-size="14.00" fill="#666666">[timestamp]</text>
<polygon fill="none" stroke="#000000" points="215.5,-442.5 215.5,-472.5 439.5,-472.5 439.5,-442.5 215.5,-442.5"/>
<text text-anchor="start" x="222.5" y="-453.9" font-family="Arial" font-size="14.00" fill="#000000">organizationId </text>
<text text-anchor="start" x="314.3064" y="-453.9" font-family="Arial" font-size="14.00" fill="#666666">[int]</text>
<polygon fill="none" stroke="#000000" points="215.5,-412.5 215.5,-442.5 439.5,-442.5 439.5,-412.5 215.5,-412.5"/>
<text text-anchor="start" x="222.5" y="-423.9" font-family="Arial" font-size="14.00" fill="#000000">projectId </text>
<text text-anchor="start" x="280.0694" y="-423.9" font-family="Arial" font-size="14.00" fill="#666666">[int]</text>
<polygon fill="none" stroke="#000000" stroke-width="3" points="214,-411.5 214,-719.5 441,-719.5 441,-411.5 214,-411.5"/>
</g>
<!-- organizations -->
<g id="node4" class="node">
<title>organizations</title>
<polygon fill="#efefef" stroke="transparent" points="203.5,-252.5 203.5,-287.5 451.5,-287.5 451.5,-252.5 203.5,-252.5"/>
<polygon fill="none" stroke="#000000" points="203.5,-252.5 203.5,-287.5 451.5,-287.5 451.5,-252.5 203.5,-252.5"/>
<text text-anchor="start" x="210.2029" y="-265.3" font-family="Arial Bold" font-size="18.00" fill="#000000">organizations</text>
<text text-anchor="start" x="317.2291" y="-265.3" font-family="Arial" font-size="14.00" fill="#000000">    </text>
<text text-anchor="start" x="351.4339" y="-265.3" font-family="Arial" font-size="14.00" fill="#666666">[BASE TABLE]</text>
<polygon fill="none" stroke="#000000" points="203.5,-222.5 203.5,-252.5 451.5,-252.5 451.5,-222.5 203.5,-222.5"/>
<text text-anchor="start" x="210.5" y="-233.9" font-family="Arial" font-size="14.00" fill="#000000">id    </text>
<text text-anchor="start" x="255.594" y="-233.9" font-family="Arial" font-size="14.00" fill="#666666">[int]</text>
<polygon fill="none" stroke="#000000" points="203.5,-192.5 203.5,-222.5 451.5,-222.5 451.5,-192.5 203.5,-192.5"/>
<text text-anchor="start" x="210.5" y="-203.9" font-family="Arial" font-size="14.00" fill="#000000">name    </text>
<text text-anchor="start" x="279.7132" y="-203.9" font-family="Arial" font-size="14.00" fill="#666666">[varchar(255)]</text>
<polygon fill="none" stroke="#000000" points="203.5,-162.5 203.5,-192.5 451.5,-192.5 451.5,-162.5 203.5,-162.5"/>
<text text-anchor="start" x="210.5" y="-173.9" font-family="Arial" font-size="14.00" fill="#000000">uniqueName    </text>
<text text-anchor="start" x="324.0568" y="-173.9" font-family="Arial" font-size="14.00" fill="#666666">[varchar(255)]</text>
<polygon fill="none" stroke="#000000" points="203.5,-132.5 203.5,-162.5 451.5,-162.5 451.5,-132.5 203.5,-132.5"/>
<text text-anchor="start" x="210.5" y="-143.9" font-family="Arial" font-size="14.00" fill="#000000">createdAt    </text>
<text text-anchor="start" x="304.6136" y="-143.9" font-family="Arial" font-size="14.00" fill="#666666">[timestamp]</text>
<polygon fill="none" stroke="#000000" points="203.5,-102.5 203.5,-132.5 451.5,-132.5 451.5,-102.5 203.5,-102.5"/>
<text text-anchor="start" x="210.5" y="-113.9" font-family="Arial" font-size="14.00" fill="#000000">updatedAt    </text>
<text text-anchor="start" x="308.5182" y="-113.9" font-family="Arial" font-size="14.00" fill="#666666">[timestamp]</text>
<polygon fill="none" stroke="#000000" points="203.5,-72.5 203.5,-102.5 451.5,-102.5 451.5,-72.5 203.5,-72.5"/>
<text text-anchor="start" x="210.5" y="-83.9" font-family="Arial" font-size="14.00" fill="#000000">phone    </text>
<text text-anchor="start" x="283.6178" y="-83.9" font-family="Arial" font-size="14.00" fill="#666666">[varchar(255)]</text>
<polygon fill="none" stroke="#000000" points="203.5,-42.5 203.5,-72.5 451.5,-72.5 451.5,-42.5 203.5,-42.5"/>
<text text-anchor="start" x="210.5" y="-53.9" font-family="Arial" font-size="14.00" fill="#000000">address    </text>
<text text-anchor="start" x="294.4958" y="-53.9" font-family="Arial" font-size="14.00" fill="#666666">[varchar(255)]</text>
</g>
<!-- categories&#45;&gt;organizations -->
<g id="edge3" class="edge">
<title>categories:organizationId&#45;&gt;organizations:id</title>
<path fill="none" stroke="#000000" stroke-dasharray="5,2" d="M449.5082,-456.7034C538.131,-442.3032 545.9805,-237.5 451.5,-237.5"/>
<polygon fill="#000000" stroke="#000000" points="449.4685,-456.7065 439.1429,-453.0142 444.4842,-457.1032 439.5,-457.5 439.5,-457.5 439.5,-457.5 444.4842,-457.1032 439.8571,-461.9858 449.4685,-456.7065 449.4685,-456.7065"/>
<text text-anchor="start" x="418.2765" y="-467.5" font-family="Arial" font-size="10.00" fill="#000000">1&#45;n</text>
</g>
<!-- invoices -->
<g id="node2" class="node">
<title>invoices</title>
<polygon fill="#efefef" stroke="transparent" points="43.5,-1232.5 43.5,-1267.5 284.5,-1267.5 284.5,-1232.5 43.5,-1232.5"/>
<polygon fill="none" stroke="#000000" points="43.5,-1232.5 43.5,-1267.5 284.5,-1267.5 284.5,-1232.5 43.5,-1232.5"/>
<text text-anchor="start" x="67.7125" y="-1245.3" font-family="Arial Bold" font-size="18.00" fill="#000000">invoices</text>
<text text-anchor="start" x="132.7195" y="-1245.3" font-family="Arial" font-size="14.00" fill="#000000">    </text>
<text text-anchor="start" x="166.9243" y="-1245.3" font-family="Arial" font-size="14.00" fill="#666666">[BASE TABLE]</text>
<polygon fill="none" stroke="#000000" points="43.5,-1202.5 43.5,-1232.5 284.5,-1232.5 284.5,-1202.5 43.5,-1202.5"/>
<text text-anchor="start" x="50.5" y="-1213.9" font-family="Arial" font-size="14.00" fill="#000000">id    </text>
<text text-anchor="start" x="95.594" y="-1213.9" font-family="Arial" font-size="14.00" fill="#666666">[int]</text>
<polygon fill="none" stroke="#000000" points="43.5,-1172.5 43.5,-1202.5 284.5,-1202.5 284.5,-1172.5 43.5,-1172.5"/>
<text text-anchor="start" x="50.5" y="-1183.9" font-family="Arial" font-size="14.00" fill="#000000">date    </text>
<text text-anchor="start" x="111.9432" y="-1183.9" font-family="Arial" font-size="14.00" fill="#666666">[timestamp]</text>
<polygon fill="none" stroke="#000000" points="43.5,-1142.5 43.5,-1172.5 284.5,-1172.5 284.5,-1142.5 43.5,-1142.5"/>
<text text-anchor="start" x="50.5" y="-1153.9" font-family="Arial" font-size="14.00" fill="#000000">createdAt    </text>
<text text-anchor="start" x="144.6136" y="-1153.9" font-family="Arial" font-size="14.00" fill="#666666">[timestamp]</text>
<polygon fill="none" stroke="#000000" points="43.5,-1112.5 43.5,-1142.5 284.5,-1142.5 284.5,-1112.5 43.5,-1112.5"/>
<text text-anchor="start" x="50.5" y="-1123.9" font-family="Arial" font-size="14.00" fill="#000000">updatedAt    </text>
<text text-anchor="start" x="148.5182" y="-1123.9" font-family="Arial" font-size="14.00" fill="#666666">[timestamp]</text>
<polygon fill="none" stroke="#000000" points="43.5,-1082.5 43.5,-1112.5 284.5,-1112.5 284.5,-1082.5 43.5,-1082.5"/>
<text text-anchor="start" x="50.5" y="-1093.9" font-family="Arial" font-size="14.00" fill="#000000">organizationId    </text>
<text text-anchor="start" x="172.6206" y="-1093.9" font-family="Arial" font-size="14.00" fill="#666666">[int]</text>
<polygon fill="none" stroke="#000000" points="43.5,-1052.5 43.5,-1082.5 284.5,-1082.5 284.5,-1052.5 43.5,-1052.5"/>
<text text-anchor="start" x="50.5" y="-1063.9" font-family="Arial" font-size="14.00" fill="#000000">total    </text>
<text text-anchor="start" x="111.1578" y="-1063.9" font-family="Arial" font-size="14.00" fill="#666666">[int]</text>
<polygon fill="none" stroke="#000000" points="43.5,-1022.5 43.5,-1052.5 284.5,-1052.5 284.5,-1022.5 43.5,-1022.5"/>
<text text-anchor="start" x="50.5" y="-1033.9" font-family="Arial" font-size="14.00" fill="#000000">currency    </text>
<text text-anchor="start" x="138.3738" y="-1033.9" font-family="Arial" font-size="14.00" fill="#666666">[enum(&#39;vnd&#39;,&#39;usd&#39;)]</text>
<polygon fill="none" stroke="#000000" points="43.5,-992.5 43.5,-1022.5 284.5,-1022.5 284.5,-992.5 43.5,-992.5"/>
<text text-anchor="start" x="50.4698" y="-1003.9" font-family="Arial" font-size="14.00" fill="#000000">type    </text>
<text text-anchor="start" x="111.1304" y="-1003.9" font-family="Arial" font-size="14.00" fill="#666666">[enum(&#39;expense&#39;,&#39;income&#39;)]</text>
<polygon fill="none" stroke="#000000" points="43.5,-962.5 43.5,-992.5 284.5,-992.5 284.5,-962.5 43.5,-962.5"/>
<text text-anchor="start" x="50.5" y="-973.9" font-family="Arial" font-size="14.00" fill="#000000">projectId    </text>
<text text-anchor="start" x="138.3836" y="-973.9" font-family="Arial" font-size="14.00" fill="#666666">[int]</text>
<polygon fill="none" stroke="#000000" points="43.5,-932.5 43.5,-962.5 284.5,-962.5 284.5,-932.5 43.5,-932.5"/>
<text text-anchor="start" x="50.5" y="-943.9" font-family="Arial" font-size="14.00" fill="#000000">categoryId    </text>
<text text-anchor="start" x="150.0596" y="-943.9" font-family="Arial" font-size="14.00" fill="#666666">[int]</text>
<polygon fill="none" stroke="#000000" points="43.5,-902.5 43.5,-932.5 284.5,-932.5 284.5,-902.5 43.5,-902.5"/>
<text text-anchor="start" x="50.5" y="-913.9" font-family="Arial" font-size="14.00" fill="#000000">clientName    </text>
<text text-anchor="start" x="154.7062" y="-913.9" font-family="Arial" font-size="14.00" fill="#666666">[varchar(255)]</text>
<polygon fill="none" stroke="#000000" points="43.5,-872.5 43.5,-902.5 284.5,-902.5 284.5,-872.5 43.5,-872.5"/>
<text text-anchor="start" x="50.5" y="-883.9" font-family="Arial" font-size="14.00" fill="#000000">tax    </text>
<text text-anchor="start" x="103.378" y="-883.9" font-family="Arial" font-size="14.00" fill="#666666">[int]</text>
<polygon fill="none" stroke="#000000" points="43.5,-842.5 43.5,-872.5 284.5,-872.5 284.5,-842.5 43.5,-842.5"/>
<text text-anchor="start" x="50.5" y="-853.9" font-family="Arial" font-size="14.00" fill="#000000">uid    </text>
<text text-anchor="start" x="103.3766" y="-853.9" font-family="Arial" font-size="14.00" fill="#666666">[varchar(255)]</text>
</g>
<!-- invoices&#45;&gt;categories -->
<g id="edge1" class="edge">
<title>invoices:categoryId&#45;&gt;categories:id</title>
<path fill="none" stroke="#000000" stroke-dasharray="5,2" d="M294.7217,-946.643C346.4712,-937.2551 316.5578,-852.8846 284.5,-800 266.5694,-770.4206 233.4306,-793.5794 215.5,-764 193.2673,-727.3235 172.6111,-667.5 215.5,-667.5"/>
<polygon fill="#000000" stroke="#000000" points="294.465,-946.6644 284.124,-943.0157 289.4825,-947.0822 284.5,-947.5 284.5,-947.5 284.5,-947.5 289.4825,-947.0822 284.876,-951.9843 294.465,-946.6644 294.465,-946.6644"/>
<text text-anchor="start" x="263.2765" y="-957.5" font-family="Arial" font-size="10.00" fill="#000000">1&#45;n</text>
</g>
<!-- budgets -->
<g id="node3" class="node">
<title>budgets</title>
<polygon fill="#efefef" stroke="transparent" points="388.5,-1142.5 388.5,-1177.5 593.5,-1177.5 593.5,-1142.5 388.5,-1142.5"/>
<polygon fill="none" stroke="#000000" points="388.5,-1142.5 388.5,-1177.5 593.5,-1177.5 593.5,-1142.5 388.5,-1142.5"/>
<text text-anchor="start" x="395.1994" y="-1155.3" font-family="Arial Bold" font-size="18.00" fill="#000000">budgets</text>
<text text-anchor="start" x="459.2326" y="-1155.3" font-family="Arial" font-size="14.00" fill="#000000">    </text>
<text text-anchor="start" x="493.4374" y="-1155.3" font-family="Arial" font-size="14.00" fill="#666666">[BASE TABLE]</text>
<polygon fill="none" stroke="#000000" points="388.5,-1112.5 388.5,-1142.5 593.5,-1142.5 593.5,-1112.5 388.5,-1112.5"/>
<text text-anchor="start" x="395.5" y="-1123.9" font-family="Arial" font-size="14.00" fill="#000000">id    </text>
<text text-anchor="start" x="440.594" y="-1123.9" font-family="Arial" font-size="14.00" fill="#666666">[int]</text>
<polygon fill="none" stroke="#000000" points="388.5,-1082.5 388.5,-1112.5 593.5,-1112.5 593.5,-1082.5 388.5,-1082.5"/>
<text text-anchor="start" x="395.5" y="-1093.9" font-family="Arial" font-size="14.00" fill="#000000">projectId    </text>
<text text-anchor="start" x="483.3836" y="-1093.9" font-family="Arial" font-size="14.00" fill="#666666">[int]</text>
<polygon fill="none" stroke="#000000" points="388.5,-1052.5 388.5,-1082.5 593.5,-1082.5 593.5,-1052.5 388.5,-1052.5"/>
<text text-anchor="start" x="395.5" y="-1063.9" font-family="Arial" font-size="14.00" fill="#000000">categoryId    </text>
<text text-anchor="start" x="495.0596" y="-1063.9" font-family="Arial" font-size="14.00" fill="#666666">[int]</text>
<polygon fill="none" stroke="#000000" points="388.5,-1022.5 388.5,-1052.5 593.5,-1052.5 593.5,-1022.5 388.5,-1022.5"/>
<text text-anchor="start" x="395.5" y="-1033.9" font-family="Arial" font-size="14.00" fill="#000000">amount    </text>
<text text-anchor="start" x="476.3864" y="-1033.9" font-family="Arial" font-size="14.00" fill="#666666">[int]</text>
<polygon fill="none" stroke="#000000" points="388.5,-992.5 388.5,-1022.5 593.5,-1022.5 593.5,-992.5 388.5,-992.5"/>
<text text-anchor="start" x="395.5" y="-1003.9" font-family="Arial" font-size="14.00" fill="#000000">createdAt    </text>
<text text-anchor="start" x="489.6136" y="-1003.9" font-family="Arial" font-size="14.00" fill="#666666">[timestamp]</text>
<polygon fill="none" stroke="#000000" points="388.5,-962.5 388.5,-992.5 593.5,-992.5 593.5,-962.5 388.5,-962.5"/>
<text text-anchor="start" x="395.5" y="-973.9" font-family="Arial" font-size="14.00" fill="#000000">updatedAt    </text>
<text text-anchor="start" x="493.5182" y="-973.9" font-family="Arial" font-size="14.00" fill="#666666">[timestamp]</text>
<polygon fill="none" stroke="#000000" points="388.5,-932.5 388.5,-962.5 593.5,-962.5 593.5,-932.5 388.5,-932.5"/>
<text text-anchor="start" x="395.5" y="-943.9" font-family="Arial" font-size="14.00" fill="#000000">organizationId    </text>
<text text-anchor="start" x="517.6206" y="-943.9" font-family="Arial" font-size="14.00" fill="#666666">[int]</text>
</g>
<!-- budgets&#45;&gt;categories -->
<g id="edge2" class="edge">
<title>budgets:categoryId&#45;&gt;categories:id</title>
<path fill="none" stroke="#000000" stroke-dasharray="5,2" d="M378.3272,-1066.853C315.4864,-1058.1686 374.1296,-963.805 388.5,-890 400.0462,-830.7002 427.9538,-823.2998 439.5,-764 447.6969,-721.9017 482.3889,-667.5 439.5,-667.5"/>
<polygon fill="#000000" stroke="#000000" points="378.5202,-1066.8652 388.2143,-1071.9909 383.5101,-1067.1826 388.5,-1067.5 388.5,-1067.5 388.5,-1067.5 383.5101,-1067.1826 388.7857,-1063.0091 378.5202,-1066.8652 378.5202,-1066.8652"/>
<text text-anchor="start" x="367.2765" y="-1077.5" font-family="Arial" font-size="10.00" fill="#000000">1&#45;1</text>
</g>
</g>
</svg>
