<?xml version="1.0" encoding="UTF-8" standalone="no"?>
<!DOCTYPE svg PUBLIC "-//W3C//DTD SVG 1.1//EN"
 "http://www.w3.org/Graphics/SVG/1.1/DTD/svg11.dtd">
<!-- Generated by graphviz version 2.40.1 (20161225.0304)
 -->
<!-- Title: invoices Pages: 1 -->
<svg width="996pt" height="1379pt"
 viewBox="0.00 0.00 995.50 1379.00" xmlns="http://www.w3.org/2000/svg" xmlns:xlink="http://www.w3.org/1999/xlink">
<g id="graph0" class="graph" transform="scale(1 1) rotate(0) translate(4 1375)">
<title>invoices</title>
<polygon fill="#ffffff" stroke="transparent" points="-4,4 -4,-1375 991.5,-1375 991.5,4 -4,4"/>
<!-- invoices -->
<g id="node1" class="node">
<title>invoices</title>
<polygon fill="#efefef" stroke="transparent" points="392,-892.5 392,-927.5 602,-927.5 602,-892.5 392,-892.5"/>
<polygon fill="none" stroke="#000000" points="392,-892.5 392,-927.5 602,-927.5 602,-892.5 392,-892.5"/>
<text text-anchor="start" x="400.7125" y="-905.3" font-family="Arial Bold" font-size="18.00" fill="#000000">invoices</text>
<text text-anchor="start" x="465.7195" y="-905.3" font-family="Arial" font-size="14.00" fill="#000000">    </text>
<text text-anchor="start" x="499.9243" y="-905.3" font-family="Arial" font-size="14.00" fill="#666666">[BASE TABLE]</text>
<polygon fill="none" stroke="#000000" points="392,-862.5 392,-892.5 602,-892.5 602,-862.5 392,-862.5"/>
<text text-anchor="start" x="399" y="-873.9" font-family="Arial" font-size="14.00" fill="#000000">id </text>
<text text-anchor="start" x="413.7798" y="-873.9" font-family="Arial" font-size="14.00" fill="#666666">[int]</text>
<polygon fill="none" stroke="#000000" points="392,-832.5 392,-862.5 602,-862.5 602,-832.5 392,-832.5"/>
<text text-anchor="start" x="399" y="-843.9" font-family="Arial" font-size="14.00" fill="#000000">date </text>
<text text-anchor="start" x="430.129" y="-843.9" font-family="Arial" font-size="14.00" fill="#666666">[timestamp]</text>
<polygon fill="none" stroke="#000000" points="392,-802.5 392,-832.5 602,-832.5 602,-802.5 392,-802.5"/>
<text text-anchor="start" x="399" y="-813.9" font-family="Arial" font-size="14.00" fill="#000000">createdAt </text>
<text text-anchor="start" x="462.7994" y="-813.9" font-family="Arial" font-size="14.00" fill="#666666">[timestamp]</text>
<polygon fill="none" stroke="#000000" points="392,-772.5 392,-802.5 602,-802.5 602,-772.5 392,-772.5"/>
<text text-anchor="start" x="399" y="-783.9" font-family="Arial" font-size="14.00" fill="#000000">updatedAt </text>
<text text-anchor="start" x="466.704" y="-783.9" font-family="Arial" font-size="14.00" fill="#666666">[timestamp]</text>
<polygon fill="none" stroke="#000000" points="392,-742.5 392,-772.5 602,-772.5 602,-742.5 392,-742.5"/>
<text text-anchor="start" x="399" y="-753.9" font-family="Arial" font-size="14.00" fill="#000000">organizationId </text>
<text text-anchor="start" x="490.8064" y="-753.9" font-family="Arial" font-size="14.00" fill="#666666">[int]</text>
<polygon fill="none" stroke="#000000" points="392,-712.5 392,-742.5 602,-742.5 602,-712.5 392,-712.5"/>
<text text-anchor="start" x="399" y="-723.9" font-family="Arial" font-size="14.00" fill="#000000">total </text>
<text text-anchor="start" x="429.3436" y="-723.9" font-family="Arial" font-size="14.00" fill="#666666">[int]</text>
<polygon fill="none" stroke="#000000" points="392,-682.5 392,-712.5 602,-712.5 602,-682.5 392,-682.5"/>
<text text-anchor="start" x="399" y="-693.9" font-family="Arial" font-size="14.00" fill="#000000">currency </text>
<text text-anchor="start" x="456.5596" y="-693.9" font-family="Arial" font-size="14.00" fill="#666666">[enum(&#39;vnd&#39;,&#39;usd&#39;)]</text>
<polygon fill="none" stroke="#000000" points="392,-652.5 392,-682.5 602,-682.5 602,-652.5 392,-652.5"/>
<text text-anchor="start" x="398.6269" y="-663.9" font-family="Arial" font-size="14.00" fill="#000000">type </text>
<text text-anchor="start" x="428.9733" y="-663.9" font-family="Arial" font-size="14.00" fill="#666666">[enum(&#39;expense&#39;,&#39;income&#39;)]</text>
<polygon fill="none" stroke="#000000" points="392,-622.5 392,-652.5 602,-652.5 602,-622.5 392,-622.5"/>
<text text-anchor="start" x="399" y="-633.9" font-family="Arial" font-size="14.00" fill="#000000">projectId </text>
<text text-anchor="start" x="456.5694" y="-633.9" font-family="Arial" font-size="14.00" fill="#666666">[int]</text>
<polygon fill="none" stroke="#000000" points="392,-592.5 392,-622.5 602,-622.5 602,-592.5 392,-592.5"/>
<text text-anchor="start" x="399" y="-603.9" font-family="Arial" font-size="14.00" fill="#000000">categoryId </text>
<text text-anchor="start" x="468.2454" y="-603.9" font-family="Arial" font-size="14.00" fill="#666666">[int]</text>
<polygon fill="none" stroke="#000000" points="392,-562.5 392,-592.5 602,-592.5 602,-562.5 392,-562.5"/>
<text text-anchor="start" x="399" y="-573.9" font-family="Arial" font-size="14.00" fill="#000000">clientName </text>
<text text-anchor="start" x="472.892" y="-573.9" font-family="Arial" font-size="14.00" fill="#666666">[varchar(255)]</text>
<polygon fill="none" stroke="#000000" points="392,-532.5 392,-562.5 602,-562.5 602,-532.5 392,-532.5"/>
<text text-anchor="start" x="399" y="-543.9" font-family="Arial" font-size="14.00" fill="#000000">tax </text>
<text text-anchor="start" x="421.5638" y="-543.9" font-family="Arial" font-size="14.00" fill="#666666">[int]</text>
<polygon fill="none" stroke="#000000" points="392,-502.5 392,-532.5 602,-532.5 602,-502.5 392,-502.5"/>
<text text-anchor="start" x="399" y="-513.9" font-family="Arial" font-size="14.00" fill="#000000">uid </text>
<text text-anchor="start" x="421.5624" y="-513.9" font-family="Arial" font-size="14.00" fill="#666666">[varchar(255)]</text>
<polygon fill="none" stroke="#000000" stroke-width="3" points="390.5,-501.5 390.5,-929.5 603.5,-929.5 603.5,-501.5 390.5,-501.5"/>
</g>
<!-- organizations -->
<g id="node4" class="node">
<title>organizations</title>
<polygon fill="#efefef" stroke="transparent" points="43,-297.5 43,-332.5 291,-332.5 291,-297.5 43,-297.5"/>
<polygon fill="none" stroke="#000000" points="43,-297.5 43,-332.5 291,-332.5 291,-297.5 43,-297.5"/>
<text text-anchor="start" x="49.7029" y="-310.3" font-family="Arial Bold" font-size="18.00" fill="#000000">organizations</text>
<text text-anchor="start" x="156.7291" y="-310.3" font-family="Arial" font-size="14.00" fill="#000000">    </text>
<text text-anchor="start" x="190.9339" y="-310.3" font-family="Arial" font-size="14.00" fill="#666666">[BASE TABLE]</text>
<polygon fill="none" stroke="#000000" points="43,-267.5 43,-297.5 291,-297.5 291,-267.5 43,-267.5"/>
<text text-anchor="start" x="50" y="-278.9" font-family="Arial" font-size="14.00" fill="#000000">id    </text>
<text text-anchor="start" x="95.094" y="-278.9" font-family="Arial" font-size="14.00" fill="#666666">[int]</text>
<polygon fill="none" stroke="#000000" points="43,-237.5 43,-267.5 291,-267.5 291,-237.5 43,-237.5"/>
<text text-anchor="start" x="50" y="-248.9" font-family="Arial" font-size="14.00" fill="#000000">name    </text>
<text text-anchor="start" x="119.2132" y="-248.9" font-family="Arial" font-size="14.00" fill="#666666">[varchar(255)]</text>
<polygon fill="none" stroke="#000000" points="43,-207.5 43,-237.5 291,-237.5 291,-207.5 43,-207.5"/>
<text text-anchor="start" x="50" y="-218.9" font-family="Arial" font-size="14.00" fill="#000000">uniqueName    </text>
<text text-anchor="start" x="163.5568" y="-218.9" font-family="Arial" font-size="14.00" fill="#666666">[varchar(255)]</text>
<polygon fill="none" stroke="#000000" points="43,-177.5 43,-207.5 291,-207.5 291,-177.5 43,-177.5"/>
<text text-anchor="start" x="50" y="-188.9" font-family="Arial" font-size="14.00" fill="#000000">createdAt    </text>
<text text-anchor="start" x="144.1136" y="-188.9" font-family="Arial" font-size="14.00" fill="#666666">[timestamp]</text>
<polygon fill="none" stroke="#000000" points="43,-147.5 43,-177.5 291,-177.5 291,-147.5 43,-147.5"/>
<text text-anchor="start" x="50" y="-158.9" font-family="Arial" font-size="14.00" fill="#000000">updatedAt    </text>
<text text-anchor="start" x="148.0182" y="-158.9" font-family="Arial" font-size="14.00" fill="#666666">[timestamp]</text>
<polygon fill="none" stroke="#000000" points="43,-117.5 43,-147.5 291,-147.5 291,-117.5 43,-117.5"/>
<text text-anchor="start" x="50" y="-128.9" font-family="Arial" font-size="14.00" fill="#000000">phone    </text>
<text text-anchor="start" x="123.1178" y="-128.9" font-family="Arial" font-size="14.00" fill="#666666">[varchar(255)]</text>
<polygon fill="none" stroke="#000000" points="43,-87.5 43,-117.5 291,-117.5 291,-87.5 43,-87.5"/>
<text text-anchor="start" x="50" y="-98.9" font-family="Arial" font-size="14.00" fill="#000000">address    </text>
<text text-anchor="start" x="133.9958" y="-98.9" font-family="Arial" font-size="14.00" fill="#666666">[varchar(255)]</text>
</g>
<!-- invoices&#45;&gt;organizations -->
<g id="edge3" class="edge">
<title>invoices:organizationId&#45;&gt;organizations:id</title>
<path fill="none" stroke="#000000" stroke-dasharray="5,2" d="M381.971,-755.9638C291.4645,-726.4807 395.3322,-282.5 291,-282.5"/>
<polygon fill="#000000" stroke="#000000" points="382.1153,-755.9858 391.3186,-761.9481 387.0576,-756.7429 392,-757.5 392,-757.5 392,-757.5 387.0576,-756.7429 392.6814,-753.0519 382.1153,-755.9858 382.1153,-755.9858"/>
<text text-anchor="start" x="370.7765" y="-767.5" font-family="Arial" font-size="10.00" fill="#000000">1&#45;n</text>
</g>
<!-- projects -->
<g id="node5" class="node">
<title>projects</title>
<polygon fill="#efefef" stroke="transparent" points="395,-342.5 395,-377.5 599,-377.5 599,-342.5 395,-342.5"/>
<polygon fill="none" stroke="#000000" points="395,-342.5 395,-377.5 599,-377.5 599,-342.5 395,-342.5"/>
<text text-anchor="start" x="401.7124" y="-355.3" font-family="Arial Bold" font-size="18.00" fill="#000000">projects</text>
<text text-anchor="start" x="464.7196" y="-355.3" font-family="Arial" font-size="14.00" fill="#000000">    </text>
<text text-anchor="start" x="498.9244" y="-355.3" font-family="Arial" font-size="14.00" fill="#666666">[BASE TABLE]</text>
<polygon fill="none" stroke="#000000" points="395,-312.5 395,-342.5 599,-342.5 599,-312.5 395,-312.5"/>
<text text-anchor="start" x="402" y="-323.9" font-family="Arial" font-size="14.00" fill="#000000">id    </text>
<text text-anchor="start" x="447.094" y="-323.9" font-family="Arial" font-size="14.00" fill="#666666">[int]</text>
<polygon fill="none" stroke="#000000" points="395,-282.5 395,-312.5 599,-312.5 599,-282.5 395,-282.5"/>
<text text-anchor="start" x="402" y="-293.9" font-family="Arial" font-size="14.00" fill="#000000">name    </text>
<text text-anchor="start" x="471.2132" y="-293.9" font-family="Arial" font-size="14.00" fill="#666666">[varchar(255)]</text>
<polygon fill="none" stroke="#000000" points="395,-252.5 395,-282.5 599,-282.5 599,-252.5 395,-252.5"/>
<text text-anchor="start" x="402" y="-263.9" font-family="Arial" font-size="14.00" fill="#000000">description    </text>
<text text-anchor="start" x="503.8822" y="-263.9" font-family="Arial" font-size="14.00" fill="#666666">[varchar(255)]</text>
<polygon fill="none" stroke="#000000" points="395,-222.5 395,-252.5 599,-252.5 599,-222.5 395,-222.5"/>
<text text-anchor="start" x="402" y="-233.9" font-family="Arial" font-size="14.00" fill="#000000">totalBudget    </text>
<text text-anchor="start" x="507.0154" y="-233.9" font-family="Arial" font-size="14.00" fill="#666666">[int]</text>
<polygon fill="none" stroke="#000000" points="395,-192.5 395,-222.5 599,-222.5 599,-192.5 395,-192.5"/>
<text text-anchor="start" x="402" y="-203.9" font-family="Arial" font-size="14.00" fill="#000000">startDate    </text>
<text text-anchor="start" x="492.9916" y="-203.9" font-family="Arial" font-size="14.00" fill="#666666">[timestamp]</text>
<polygon fill="none" stroke="#000000" points="395,-162.5 395,-192.5 599,-192.5 599,-162.5 395,-162.5"/>
<text text-anchor="start" x="402" y="-173.9" font-family="Arial" font-size="14.00" fill="#000000">endDate    </text>
<text text-anchor="start" x="489.115" y="-173.9" font-family="Arial" font-size="14.00" fill="#666666">[timestamp]</text>
<polygon fill="none" stroke="#000000" points="395,-132.5 395,-162.5 599,-162.5 599,-132.5 395,-132.5"/>
<text text-anchor="start" x="402" y="-143.9" font-family="Arial" font-size="14.00" fill="#000000">createdAt    </text>
<text text-anchor="start" x="496.1136" y="-143.9" font-family="Arial" font-size="14.00" fill="#666666">[timestamp]</text>
<polygon fill="none" stroke="#000000" points="395,-102.5 395,-132.5 599,-132.5 599,-102.5 395,-102.5"/>
<text text-anchor="start" x="402" y="-113.9" font-family="Arial" font-size="14.00" fill="#000000">updatedAt    </text>
<text text-anchor="start" x="500.0182" y="-113.9" font-family="Arial" font-size="14.00" fill="#666666">[timestamp]</text>
<polygon fill="none" stroke="#000000" points="395,-72.5 395,-102.5 599,-102.5 599,-72.5 395,-72.5"/>
<text text-anchor="start" x="402" y="-83.9" font-family="Arial" font-size="14.00" fill="#000000">organizationId    </text>
<text text-anchor="start" x="524.1206" y="-83.9" font-family="Arial" font-size="14.00" fill="#666666">[int]</text>
<polygon fill="none" stroke="#000000" points="395,-42.5 395,-72.5 599,-72.5 599,-42.5 395,-42.5"/>
<text text-anchor="start" x="402" y="-53.9" font-family="Arial" font-size="14.00" fill="#000000">creatorId    </text>
<text text-anchor="start" x="491.4376" y="-53.9" font-family="Arial" font-size="14.00" fill="#666666">[int]</text>
</g>
<!-- invoices&#45;&gt;projects -->
<g id="edge4" class="edge">
<title>invoices:projectId&#45;&gt;projects:id</title>
<path fill="none" stroke="#000000" stroke-dasharray="5,2" d="M611.9399,-635.183C670.4175,-606.815 664.3937,-327.5 599,-327.5"/>
<polygon fill="#000000" stroke="#000000" points="611.7389,-635.2297 600.9784,-633.1175 606.8695,-636.3649 602,-637.5 602,-637.5 602,-637.5 606.8695,-636.3649 603.0216,-641.8825 611.7389,-635.2297 611.7389,-635.2297"/>
<text text-anchor="start" x="580.7765" y="-647.5" font-family="Arial" font-size="10.00" fill="#000000">1&#45;n</text>
</g>
<!-- categories -->
<g id="node6" class="node">
<title>categories</title>
<polygon fill="#efefef" stroke="transparent" points="704,-327.5 704,-362.5 945,-362.5 945,-327.5 704,-327.5"/>
<polygon fill="none" stroke="#000000" points="704,-327.5 704,-362.5 945,-362.5 945,-327.5 704,-327.5"/>
<text text-anchor="start" x="719.2062" y="-340.3" font-family="Arial Bold" font-size="18.00" fill="#000000">categories</text>
<text text-anchor="start" x="802.2258" y="-340.3" font-family="Arial" font-size="14.00" fill="#000000">    </text>
<text text-anchor="start" x="836.4306" y="-340.3" font-family="Arial" font-size="14.00" fill="#666666">[BASE TABLE]</text>
<polygon fill="none" stroke="#000000" points="704,-297.5 704,-327.5 945,-327.5 945,-297.5 704,-297.5"/>
<text text-anchor="start" x="711" y="-308.9" font-family="Arial" font-size="14.00" fill="#000000">id    </text>
<text text-anchor="start" x="756.094" y="-308.9" font-family="Arial" font-size="14.00" fill="#666666">[int]</text>
<polygon fill="none" stroke="#000000" points="704,-267.5 704,-297.5 945,-297.5 945,-267.5 704,-267.5"/>
<text text-anchor="start" x="711" y="-278.9" font-family="Arial" font-size="14.00" fill="#000000">name    </text>
<text text-anchor="start" x="780.2132" y="-278.9" font-family="Arial" font-size="14.00" fill="#666666">[varchar(255)]</text>
<polygon fill="none" stroke="#000000" points="704,-237.5 704,-267.5 945,-267.5 945,-237.5 704,-237.5"/>
<text text-anchor="start" x="711" y="-248.9" font-family="Arial" font-size="14.00" fill="#000000">color    </text>
<text text-anchor="start" x="775.5372" y="-248.9" font-family="Arial" font-size="14.00" fill="#666666">[varchar(255)]</text>
<polygon fill="none" stroke="#000000" points="704,-207.5 704,-237.5 945,-237.5 945,-207.5 704,-207.5"/>
<text text-anchor="start" x="711" y="-218.9" font-family="Arial" font-size="14.00" fill="#000000">icon    </text>
<text text-anchor="start" x="770.8766" y="-218.9" font-family="Arial" font-size="14.00" fill="#666666">[varchar(255)]</text>
<polygon fill="none" stroke="#000000" points="704,-177.5 704,-207.5 945,-207.5 945,-177.5 704,-177.5"/>
<text text-anchor="start" x="710.9698" y="-188.9" font-family="Arial" font-size="14.00" fill="#000000">type    </text>
<text text-anchor="start" x="771.6304" y="-188.9" font-family="Arial" font-size="14.00" fill="#666666">[enum(&#39;expense&#39;,&#39;income&#39;)]</text>
<polygon fill="none" stroke="#000000" points="704,-147.5 704,-177.5 945,-177.5 945,-147.5 704,-147.5"/>
<text text-anchor="start" x="711" y="-158.9" font-family="Arial" font-size="14.00" fill="#000000">createdAt    </text>
<text text-anchor="start" x="805.1136" y="-158.9" font-family="Arial" font-size="14.00" fill="#666666">[timestamp]</text>
<polygon fill="none" stroke="#000000" points="704,-117.5 704,-147.5 945,-147.5 945,-117.5 704,-117.5"/>
<text text-anchor="start" x="711" y="-128.9" font-family="Arial" font-size="14.00" fill="#000000">updatedAt    </text>
<text text-anchor="start" x="809.0182" y="-128.9" font-family="Arial" font-size="14.00" fill="#666666">[timestamp]</text>
<polygon fill="none" stroke="#000000" points="704,-87.5 704,-117.5 945,-117.5 945,-87.5 704,-87.5"/>
<text text-anchor="start" x="711" y="-98.9" font-family="Arial" font-size="14.00" fill="#000000">organizationId    </text>
<text text-anchor="start" x="833.1206" y="-98.9" font-family="Arial" font-size="14.00" fill="#666666">[int]</text>
<polygon fill="none" stroke="#000000" points="704,-57.5 704,-87.5 945,-87.5 945,-57.5 704,-57.5"/>
<text text-anchor="start" x="711" y="-68.9" font-family="Arial" font-size="14.00" fill="#000000">projectId    </text>
<text text-anchor="start" x="798.8836" y="-68.9" font-family="Arial" font-size="14.00" fill="#666666">[int]</text>
</g>
<!-- invoices&#45;&gt;categories -->
<g id="edge5" class="edge">
<title>invoices:categoryId&#45;&gt;categories:id</title>
<path fill="none" stroke="#000000" stroke-dasharray="5,2" d="M611.7742,-605.2951C667.9071,-578.2998 638.1588,-312.5 704,-312.5"/>
<polygon fill="#000000" stroke="#000000" points="611.7549,-605.2994 601.0097,-603.1103 606.8774,-606.3997 602,-607.5 602,-607.5 602,-607.5 606.8774,-606.3997 602.9903,-611.8897 611.7549,-605.2994 611.7549,-605.2994"/>
<text text-anchor="start" x="580.7765" y="-617.5" font-family="Arial" font-size="10.00" fill="#000000">1&#45;n</text>
</g>
<!-- invoice_items -->
<g id="node2" class="node">
<title>invoice_items</title>
<polygon fill="#efefef" stroke="transparent" points="167,-1292.5 167,-1327.5 417,-1327.5 417,-1292.5 167,-1292.5"/>
<polygon fill="none" stroke="#000000" points="167,-1292.5 167,-1327.5 417,-1327.5 417,-1292.5 167,-1292.5"/>
<text text-anchor="start" x="173.712" y="-1305.3" font-family="Arial Bold" font-size="18.00" fill="#000000">invoice_items</text>
<text text-anchor="start" x="282.72" y="-1305.3" font-family="Arial" font-size="14.00" fill="#000000">    </text>
<text text-anchor="start" x="316.9248" y="-1305.3" font-family="Arial" font-size="14.00" fill="#666666">[BASE TABLE]</text>
<polygon fill="none" stroke="#000000" points="167,-1262.5 167,-1292.5 417,-1292.5 417,-1262.5 167,-1262.5"/>
<text text-anchor="start" x="174" y="-1273.9" font-family="Arial" font-size="14.00" fill="#000000">id    </text>
<text text-anchor="start" x="219.094" y="-1273.9" font-family="Arial" font-size="14.00" fill="#666666">[int]</text>
<polygon fill="none" stroke="#000000" points="167,-1232.5 167,-1262.5 417,-1262.5 417,-1232.5 167,-1232.5"/>
<text text-anchor="start" x="174" y="-1243.9" font-family="Arial" font-size="14.00" fill="#000000">invoiceId    </text>
<text text-anchor="start" x="263.439" y="-1243.9" font-family="Arial" font-size="14.00" fill="#666666">[int]</text>
<polygon fill="none" stroke="#000000" points="167,-1202.5 167,-1232.5 417,-1232.5 417,-1202.5 167,-1202.5"/>
<text text-anchor="start" x="174" y="-1213.9" font-family="Arial" font-size="14.00" fill="#000000">name    </text>
<text text-anchor="start" x="243.2132" y="-1213.9" font-family="Arial" font-size="14.00" fill="#666666">[varchar(255)]</text>
<polygon fill="none" stroke="#000000" points="167,-1172.5 167,-1202.5 417,-1202.5 417,-1172.5 167,-1172.5"/>
<text text-anchor="start" x="174" y="-1183.9" font-family="Arial" font-size="14.00" fill="#000000">note    </text>
<text text-anchor="start" x="235.4432" y="-1183.9" font-family="Arial" font-size="14.00" fill="#666666">[varchar(255)]</text>
<polygon fill="none" stroke="#000000" points="167,-1142.5 167,-1172.5 417,-1172.5 417,-1142.5 167,-1142.5"/>
<text text-anchor="start" x="174" y="-1153.9" font-family="Arial" font-size="14.00" fill="#000000">price    </text>
<text text-anchor="start" x="238.5372" y="-1153.9" font-family="Arial" font-size="14.00" fill="#666666">[int]</text>
<polygon fill="none" stroke="#000000" points="167,-1112.5 167,-1142.5 417,-1142.5 417,-1112.5 167,-1112.5"/>
<text text-anchor="start" x="174" y="-1123.9" font-family="Arial" font-size="14.00" fill="#000000">createdAt    </text>
<text text-anchor="start" x="268.1136" y="-1123.9" font-family="Arial" font-size="14.00" fill="#666666">[timestamp]</text>
<polygon fill="none" stroke="#000000" points="167,-1082.5 167,-1112.5 417,-1112.5 417,-1082.5 167,-1082.5"/>
<text text-anchor="start" x="174" y="-1093.9" font-family="Arial" font-size="14.00" fill="#000000">updatedAt    </text>
<text text-anchor="start" x="272.0182" y="-1093.9" font-family="Arial" font-size="14.00" fill="#666666">[timestamp]</text>
<polygon fill="none" stroke="#000000" points="167,-1052.5 167,-1082.5 417,-1082.5 417,-1052.5 167,-1052.5"/>
<text text-anchor="start" x="174" y="-1063.9" font-family="Arial" font-size="14.00" fill="#000000">quantity    </text>
<text text-anchor="start" x="257.223" y="-1063.9" font-family="Arial" font-size="14.00" fill="#666666">[int]</text>
</g>
<!-- invoice_items&#45;&gt;invoices -->
<g id="edge1" class="edge">
<title>invoice_items:invoiceId&#45;&gt;invoices:id</title>
<path fill="none" stroke="#000000" stroke-dasharray="5,2" d="M426.8398,-1244.8371C464.6789,-1221.8604 431.6639,-1056.8244 417,-1010 411.1784,-991.4106 397.8216,-992.5894 392,-974 379.1824,-933.0712 349.1111,-877.5 392,-877.5"/>
<polygon fill="#000000" stroke="#000000" points="426.6528,-1244.8876 415.8244,-1243.1563 421.8264,-1246.1938 417,-1247.5 417,-1247.5 417,-1247.5 421.8264,-1246.1938 418.1756,-1251.8437 426.6528,-1244.8876 426.6528,-1244.8876"/>
<text text-anchor="start" x="395.7765" y="-1257.5" font-family="Arial" font-size="10.00" fill="#000000">1&#45;n</text>
</g>
<!-- user_organization_invoices -->
<g id="node3" class="node">
<title>user_organization_invoices</title>
<polygon fill="#efefef" stroke="transparent" points="522,-1262.5 522,-1297.5 881,-1297.5 881,-1262.5 522,-1262.5"/>
<polygon fill="none" stroke="#000000" points="522,-1262.5 522,-1297.5 881,-1297.5 881,-1262.5 522,-1262.5"/>
<text text-anchor="start" x="528.6909" y="-1275.3" font-family="Arial Bold" font-size="18.00" fill="#000000">user_organization_invoices</text>
<text text-anchor="start" x="746.7411" y="-1275.3" font-family="Arial" font-size="14.00" fill="#000000">    </text>
<text text-anchor="start" x="780.9459" y="-1275.3" font-family="Arial" font-size="14.00" fill="#666666">[BASE TABLE]</text>
<polygon fill="none" stroke="#000000" points="522,-1232.5 522,-1262.5 881,-1262.5 881,-1232.5 522,-1232.5"/>
<text text-anchor="start" x="529" y="-1243.9" font-family="Arial" font-size="14.00" fill="#000000">id    </text>
<text text-anchor="start" x="574.094" y="-1243.9" font-family="Arial" font-size="14.00" fill="#666666">[int]</text>
<polygon fill="none" stroke="#000000" points="522,-1202.5 522,-1232.5 881,-1232.5 881,-1202.5 522,-1202.5"/>
<text text-anchor="start" x="529" y="-1213.9" font-family="Arial" font-size="14.00" fill="#000000">userId    </text>
<text text-anchor="start" x="602.1038" y="-1213.9" font-family="Arial" font-size="14.00" fill="#666666">[int]</text>
<polygon fill="none" stroke="#000000" points="522,-1172.5 522,-1202.5 881,-1202.5 881,-1172.5 522,-1172.5"/>
<text text-anchor="start" x="529" y="-1183.9" font-family="Arial" font-size="14.00" fill="#000000">organizationId    </text>
<text text-anchor="start" x="651.1206" y="-1183.9" font-family="Arial" font-size="14.00" fill="#666666">[int]</text>
<polygon fill="none" stroke="#000000" points="522,-1142.5 522,-1172.5 881,-1172.5 881,-1142.5 522,-1142.5"/>
<text text-anchor="start" x="529" y="-1153.9" font-family="Arial" font-size="14.00" fill="#000000">invoiceId    </text>
<text text-anchor="start" x="618.439" y="-1153.9" font-family="Arial" font-size="14.00" fill="#666666">[int]</text>
<polygon fill="none" stroke="#000000" points="522,-1112.5 522,-1142.5 881,-1142.5 881,-1112.5 522,-1112.5"/>
<text text-anchor="start" x="529" y="-1123.9" font-family="Arial" font-size="14.00" fill="#000000">createdAt    </text>
<text text-anchor="start" x="623.1136" y="-1123.9" font-family="Arial" font-size="14.00" fill="#666666">[timestamp]</text>
<polygon fill="none" stroke="#000000" points="522,-1082.5 522,-1112.5 881,-1112.5 881,-1082.5 522,-1082.5"/>
<text text-anchor="start" x="529" y="-1093.9" font-family="Arial" font-size="14.00" fill="#000000">updatedAt    </text>
<text text-anchor="start" x="627.0182" y="-1093.9" font-family="Arial" font-size="14.00" fill="#666666">[timestamp]</text>
</g>
<!-- user_organization_invoices&#45;&gt;invoices -->
<g id="edge2" class="edge">
<title>user_organization_invoices:invoiceId&#45;&gt;invoices:id</title>
<path fill="none" stroke="#000000" stroke-dasharray="5,2" d="M511.6937,-1156.377C474.1819,-1147.1972 501.3856,-1083.7312 522,-1040 541.654,-998.3063 582.346,-1015.6937 602,-974 620.2874,-935.2053 644.8889,-877.5 602,-877.5"/>
<polygon fill="#000000" stroke="#000000" points="512.0588,-1156.4167 521.5125,-1161.9735 517.0294,-1156.9584 522,-1157.5 522,-1157.5 522,-1157.5 517.0294,-1156.9584 522.4875,-1153.0265 512.0588,-1156.4167 512.0588,-1156.4167"/>
<text text-anchor="start" x="500.7765" y="-1167.5" font-family="Arial" font-size="10.00" fill="#000000">n&#45;n</text>
</g>
</g>
</svg>
