<?xml version="1.0" encoding="UTF-8" standalone="no"?>
<!DOCTYPE svg PUBLIC "-//W3C//DTD SVG 1.1//EN"
 "http://www.w3.org/Graphics/SVG/1.1/DTD/svg11.dtd">
<!-- Generated by graphviz version 2.40.1 (20161225.0304)
 -->
<!-- Title: invoices Pages: 1 -->
<svg width="1177pt" height="1079pt"
 viewBox="0.00 0.00 1176.50 1079.00" xmlns="http://www.w3.org/2000/svg" xmlns:xlink="http://www.w3.org/1999/xlink">
<g id="graph0" class="graph" transform="scale(1 1) rotate(0) translate(4 1075)">
<title>invoices</title>
<polygon fill="#ffffff" stroke="transparent" points="-4,4 -4,-1075 1172.5,-1075 1172.5,4 -4,4"/>
<!-- invoices -->
<g id="node1" class="node">
<title>invoices</title>
<polygon fill="#efefef" stroke="transparent" points="428,-562.5 428,-597.5 634,-597.5 634,-562.5 428,-562.5"/>
<polygon fill="none" stroke="#000000" points="428,-562.5 428,-597.5 634,-597.5 634,-562.5 428,-562.5"/>
<text text-anchor="start" x="434.7125" y="-575.3" font-family="Arial Bold" font-size="18.00" fill="#000000">invoices</text>
<text text-anchor="start" x="499.7195" y="-575.3" font-family="Arial" font-size="14.00" fill="#000000">    </text>
<text text-anchor="start" x="533.9243" y="-575.3" font-family="Arial" font-size="14.00" fill="#666666">[BASE TABLE]</text>
<polygon fill="none" stroke="#000000" points="428,-532.5 428,-562.5 634,-562.5 634,-532.5 428,-532.5"/>
<text text-anchor="start" x="435" y="-543.9" font-family="Arial" font-size="14.00" fill="#000000">id </text>
<text text-anchor="start" x="449.7798" y="-543.9" font-family="Arial" font-size="14.00" fill="#666666">[int]</text>
<polygon fill="none" stroke="#000000" points="428,-502.5 428,-532.5 634,-532.5 634,-502.5 428,-502.5"/>
<text text-anchor="start" x="435" y="-513.9" font-family="Arial" font-size="14.00" fill="#000000">date </text>
<text text-anchor="start" x="466.129" y="-513.9" font-family="Arial" font-size="14.00" fill="#666666">[timestamp]</text>
<polygon fill="none" stroke="#000000" points="428,-472.5 428,-502.5 634,-502.5 634,-472.5 428,-472.5"/>
<text text-anchor="start" x="435" y="-483.9" font-family="Arial" font-size="14.00" fill="#000000">createdAt </text>
<text text-anchor="start" x="498.7994" y="-483.9" font-family="Arial" font-size="14.00" fill="#666666">[timestamp]</text>
<polygon fill="none" stroke="#000000" points="428,-442.5 428,-472.5 634,-472.5 634,-442.5 428,-442.5"/>
<text text-anchor="start" x="435" y="-453.9" font-family="Arial" font-size="14.00" fill="#000000">updatedAt </text>
<text text-anchor="start" x="502.704" y="-453.9" font-family="Arial" font-size="14.00" fill="#666666">[timestamp]</text>
<polygon fill="none" stroke="#000000" points="428,-412.5 428,-442.5 634,-442.5 634,-412.5 428,-412.5"/>
<text text-anchor="start" x="435" y="-423.9" font-family="Arial" font-size="14.00" fill="#000000">organizationId </text>
<text text-anchor="start" x="526.8064" y="-423.9" font-family="Arial" font-size="14.00" fill="#666666">[int]</text>
<polygon fill="none" stroke="#000000" points="428,-382.5 428,-412.5 634,-412.5 634,-382.5 428,-382.5"/>
<text text-anchor="start" x="435" y="-393.9" font-family="Arial" font-size="14.00" fill="#000000">total </text>
<text text-anchor="start" x="465.3436" y="-393.9" font-family="Arial" font-size="14.00" fill="#666666">[int]</text>
<polygon fill="none" stroke="#000000" points="428,-352.5 428,-382.5 634,-382.5 634,-352.5 428,-352.5"/>
<text text-anchor="start" x="435" y="-363.9" font-family="Arial" font-size="14.00" fill="#000000">currency </text>
<text text-anchor="start" x="492.5596" y="-363.9" font-family="Arial" font-size="14.00" fill="#666666">[enum(&#39;vnd&#39;,&#39;usd&#39;)]</text>
<polygon fill="none" stroke="#000000" stroke-width="3" points="426.5,-351.5 426.5,-599.5 635.5,-599.5 635.5,-351.5 426.5,-351.5"/>
</g>
<!-- organizations -->
<g id="node5" class="node">
<title>organizations</title>
<polygon fill="#efefef" stroke="transparent" points="407,-192.5 407,-227.5 655,-227.5 655,-192.5 407,-192.5"/>
<polygon fill="none" stroke="#000000" points="407,-192.5 407,-227.5 655,-227.5 655,-192.5 407,-192.5"/>
<text text-anchor="start" x="413.7029" y="-205.3" font-family="Arial Bold" font-size="18.00" fill="#000000">organizations</text>
<text text-anchor="start" x="520.7291" y="-205.3" font-family="Arial" font-size="14.00" fill="#000000">    </text>
<text text-anchor="start" x="554.9339" y="-205.3" font-family="Arial" font-size="14.00" fill="#666666">[BASE TABLE]</text>
<polygon fill="none" stroke="#000000" points="407,-162.5 407,-192.5 655,-192.5 655,-162.5 407,-162.5"/>
<text text-anchor="start" x="414" y="-173.9" font-family="Arial" font-size="14.00" fill="#000000">id    </text>
<text text-anchor="start" x="459.094" y="-173.9" font-family="Arial" font-size="14.00" fill="#666666">[int]</text>
<polygon fill="none" stroke="#000000" points="407,-132.5 407,-162.5 655,-162.5 655,-132.5 407,-132.5"/>
<text text-anchor="start" x="414" y="-143.9" font-family="Arial" font-size="14.00" fill="#000000">name    </text>
<text text-anchor="start" x="483.2132" y="-143.9" font-family="Arial" font-size="14.00" fill="#666666">[varchar(255)]</text>
<polygon fill="none" stroke="#000000" points="407,-102.5 407,-132.5 655,-132.5 655,-102.5 407,-102.5"/>
<text text-anchor="start" x="414" y="-113.9" font-family="Arial" font-size="14.00" fill="#000000">uniqueName    </text>
<text text-anchor="start" x="527.5568" y="-113.9" font-family="Arial" font-size="14.00" fill="#666666">[varchar(255)]</text>
<polygon fill="none" stroke="#000000" points="407,-72.5 407,-102.5 655,-102.5 655,-72.5 407,-72.5"/>
<text text-anchor="start" x="414" y="-83.9" font-family="Arial" font-size="14.00" fill="#000000">createdAt    </text>
<text text-anchor="start" x="508.1136" y="-83.9" font-family="Arial" font-size="14.00" fill="#666666">[timestamp]</text>
<polygon fill="none" stroke="#000000" points="407,-42.5 407,-72.5 655,-72.5 655,-42.5 407,-42.5"/>
<text text-anchor="start" x="414" y="-53.9" font-family="Arial" font-size="14.00" fill="#000000">updatedAt    </text>
<text text-anchor="start" x="512.0182" y="-53.9" font-family="Arial" font-size="14.00" fill="#666666">[timestamp]</text>
</g>
<!-- invoices&#45;&gt;organizations -->
<g id="edge4" class="edge">
<title>invoices:organizationId&#45;&gt;organizations:id</title>
<path fill="none" stroke="#000000" stroke-dasharray="5,2" d="M644.1869,-426.7828C746.6855,-412.1191 763.018,-177.5 655,-177.5"/>
<polygon fill="#000000" stroke="#000000" points="643.9753,-426.7976 633.6839,-423.0111 638.9877,-427.1488 634,-427.5 634,-427.5 634,-427.5 638.9877,-427.1488 634.3161,-431.9889 643.9753,-426.7976 643.9753,-426.7976"/>
<text text-anchor="start" x="612.7765" y="-437.5" font-family="Arial" font-size="10.00" fill="#000000">1&#45;n</text>
</g>
<!-- invoice_items -->
<g id="node2" class="node">
<title>invoice_items</title>
<polygon fill="#efefef" stroke="transparent" points="43,-992.5 43,-1027.5 293,-1027.5 293,-992.5 43,-992.5"/>
<polygon fill="none" stroke="#000000" points="43,-992.5 43,-1027.5 293,-1027.5 293,-992.5 43,-992.5"/>
<text text-anchor="start" x="49.712" y="-1005.3" font-family="Arial Bold" font-size="18.00" fill="#000000">invoice_items</text>
<text text-anchor="start" x="158.72" y="-1005.3" font-family="Arial" font-size="14.00" fill="#000000">    </text>
<text text-anchor="start" x="192.9248" y="-1005.3" font-family="Arial" font-size="14.00" fill="#666666">[BASE TABLE]</text>
<polygon fill="none" stroke="#000000" points="43,-962.5 43,-992.5 293,-992.5 293,-962.5 43,-962.5"/>
<text text-anchor="start" x="50" y="-973.9" font-family="Arial" font-size="14.00" fill="#000000">id    </text>
<text text-anchor="start" x="95.094" y="-973.9" font-family="Arial" font-size="14.00" fill="#666666">[int]</text>
<polygon fill="none" stroke="#000000" points="43,-932.5 43,-962.5 293,-962.5 293,-932.5 43,-932.5"/>
<text text-anchor="start" x="50" y="-943.9" font-family="Arial" font-size="14.00" fill="#000000">invoiceId    </text>
<text text-anchor="start" x="139.439" y="-943.9" font-family="Arial" font-size="14.00" fill="#666666">[int]</text>
<polygon fill="none" stroke="#000000" points="43,-902.5 43,-932.5 293,-932.5 293,-902.5 43,-902.5"/>
<text text-anchor="start" x="50" y="-913.9" font-family="Arial" font-size="14.00" fill="#000000">name    </text>
<text text-anchor="start" x="119.2132" y="-913.9" font-family="Arial" font-size="14.00" fill="#666666">[varchar(255)]</text>
<polygon fill="none" stroke="#000000" points="43,-872.5 43,-902.5 293,-902.5 293,-872.5 43,-872.5"/>
<text text-anchor="start" x="50" y="-883.9" font-family="Arial" font-size="14.00" fill="#000000">note    </text>
<text text-anchor="start" x="111.4432" y="-883.9" font-family="Arial" font-size="14.00" fill="#666666">[varchar(255)]</text>
<polygon fill="none" stroke="#000000" points="43,-842.5 43,-872.5 293,-872.5 293,-842.5 43,-842.5"/>
<text text-anchor="start" x="50" y="-853.9" font-family="Arial" font-size="14.00" fill="#000000">price    </text>
<text text-anchor="start" x="114.5372" y="-853.9" font-family="Arial" font-size="14.00" fill="#666666">[int]</text>
<polygon fill="none" stroke="#000000" points="43,-812.5 43,-842.5 293,-842.5 293,-812.5 43,-812.5"/>
<text text-anchor="start" x="50" y="-823.9" font-family="Arial" font-size="14.00" fill="#000000">type    </text>
<text text-anchor="start" x="110.6606" y="-823.9" font-family="Arial" font-size="14.00" fill="#666666">[enum(&#39;expense&#39;,&#39;income&#39;)]</text>
<polygon fill="none" stroke="#000000" points="43,-782.5 43,-812.5 293,-812.5 293,-782.5 43,-782.5"/>
<text text-anchor="start" x="50" y="-793.9" font-family="Arial" font-size="14.00" fill="#000000">createdAt    </text>
<text text-anchor="start" x="144.1136" y="-793.9" font-family="Arial" font-size="14.00" fill="#666666">[timestamp]</text>
<polygon fill="none" stroke="#000000" points="43,-752.5 43,-782.5 293,-782.5 293,-752.5 43,-752.5"/>
<text text-anchor="start" x="50" y="-763.9" font-family="Arial" font-size="14.00" fill="#000000">updatedAt    </text>
<text text-anchor="start" x="148.0182" y="-763.9" font-family="Arial" font-size="14.00" fill="#666666">[timestamp]</text>
<polygon fill="none" stroke="#000000" points="43,-722.5 43,-752.5 293,-752.5 293,-722.5 43,-722.5"/>
<text text-anchor="start" x="50" y="-733.9" font-family="Arial" font-size="14.00" fill="#000000">quantity    </text>
<text text-anchor="start" x="133.223" y="-733.9" font-family="Arial" font-size="14.00" fill="#666666">[int]</text>
</g>
<!-- invoice_items&#45;&gt;invoices -->
<g id="edge1" class="edge">
<title>invoice_items:invoiceId&#45;&gt;invoices:id</title>
<path fill="none" stroke="#000000" stroke-dasharray="5,2" d="M303.0271,-945.2589C350.0239,-922.4964 324.1198,-732.9203 345,-680 370.504,-615.3607 358.5112,-547.5 428,-547.5"/>
<polygon fill="#000000" stroke="#000000" points="302.7592,-945.3187 292.0184,-943.1084 297.8796,-946.4093 293,-947.5 293,-947.5 293,-947.5 297.8796,-946.4093 293.9816,-951.8916 302.7592,-945.3187 302.7592,-945.3187"/>
<text text-anchor="start" x="271.7765" y="-957.5" font-family="Arial" font-size="10.00" fill="#000000">1&#45;n</text>
</g>
<!-- invoice_owners -->
<g id="node3" class="node">
<title>invoice_owners</title>
<polygon fill="#efefef" stroke="transparent" points="398,-932.5 398,-967.5 663,-967.5 663,-932.5 398,-932.5"/>
<polygon fill="none" stroke="#000000" points="398,-932.5 398,-967.5 663,-967.5 663,-932.5 398,-932.5"/>
<text text-anchor="start" x="404.7069" y="-945.3" font-family="Arial Bold" font-size="18.00" fill="#000000">invoice_owners</text>
<text text-anchor="start" x="528.7251" y="-945.3" font-family="Arial" font-size="14.00" fill="#000000">    </text>
<text text-anchor="start" x="562.9299" y="-945.3" font-family="Arial" font-size="14.00" fill="#666666">[BASE TABLE]</text>
<polygon fill="none" stroke="#000000" points="398,-902.5 398,-932.5 663,-932.5 663,-902.5 398,-902.5"/>
<text text-anchor="start" x="405" y="-913.9" font-family="Arial" font-size="14.00" fill="#000000">id    </text>
<text text-anchor="start" x="450.094" y="-913.9" font-family="Arial" font-size="14.00" fill="#666666">[int]</text>
<polygon fill="none" stroke="#000000" points="398,-872.5 398,-902.5 663,-902.5 663,-872.5 398,-872.5"/>
<text text-anchor="start" x="405" y="-883.9" font-family="Arial" font-size="14.00" fill="#000000">invoiceId    </text>
<text text-anchor="start" x="494.439" y="-883.9" font-family="Arial" font-size="14.00" fill="#666666">[int]</text>
<polygon fill="none" stroke="#000000" points="398,-842.5 398,-872.5 663,-872.5 663,-842.5 398,-842.5"/>
<text text-anchor="start" x="405" y="-853.9" font-family="Arial" font-size="14.00" fill="#000000">userId    </text>
<text text-anchor="start" x="478.1038" y="-853.9" font-family="Arial" font-size="14.00" fill="#666666">[int]</text>
<polygon fill="none" stroke="#000000" points="398,-812.5 398,-842.5 663,-842.5 663,-812.5 398,-812.5"/>
<text text-anchor="start" x="405" y="-823.9" font-family="Arial" font-size="14.00" fill="#000000">createdAt    </text>
<text text-anchor="start" x="499.1136" y="-823.9" font-family="Arial" font-size="14.00" fill="#666666">[timestamp]</text>
<polygon fill="none" stroke="#000000" points="398,-782.5 398,-812.5 663,-812.5 663,-782.5 398,-782.5"/>
<text text-anchor="start" x="405" y="-793.9" font-family="Arial" font-size="14.00" fill="#000000">updatedAt    </text>
<text text-anchor="start" x="503.0182" y="-793.9" font-family="Arial" font-size="14.00" fill="#666666">[timestamp]</text>
</g>
<!-- invoice_owners&#45;&gt;invoices -->
<g id="edge2" class="edge">
<title>invoice_owners:invoiceId&#45;&gt;invoices:id</title>
<path fill="none" stroke="#000000" stroke-dasharray="5,2" d="M673.2451,-886.6281C725.2459,-877.0796 697.4831,-791.3362 663,-740 600.0902,-646.344 490.9098,-737.656 428,-644 404.0853,-608.3974 385.1111,-547.5 428,-547.5"/>
<polygon fill="#000000" stroke="#000000" points="672.964,-886.6519 662.6184,-883.0162 667.982,-887.076 663,-887.5 663,-887.5 663,-887.5 667.982,-887.076 663.3816,-891.9838 672.964,-886.6519 672.964,-886.6519"/>
<text text-anchor="start" x="641.7765" y="-897.5" font-family="Arial" font-size="10.00" fill="#000000">n&#45;1</text>
</g>
<!-- user_organization_invoices -->
<g id="node4" class="node">
<title>user_organization_invoices</title>
<polygon fill="#efefef" stroke="transparent" points="767,-947.5 767,-982.5 1126,-982.5 1126,-947.5 767,-947.5"/>
<polygon fill="none" stroke="#000000" points="767,-947.5 767,-982.5 1126,-982.5 1126,-947.5 767,-947.5"/>
<text text-anchor="start" x="773.6909" y="-960.3" font-family="Arial Bold" font-size="18.00" fill="#000000">user_organization_invoices</text>
<text text-anchor="start" x="991.7411" y="-960.3" font-family="Arial" font-size="14.00" fill="#000000">    </text>
<text text-anchor="start" x="1025.9459" y="-960.3" font-family="Arial" font-size="14.00" fill="#666666">[BASE TABLE]</text>
<polygon fill="none" stroke="#000000" points="767,-917.5 767,-947.5 1126,-947.5 1126,-917.5 767,-917.5"/>
<text text-anchor="start" x="774" y="-928.9" font-family="Arial" font-size="14.00" fill="#000000">id    </text>
<text text-anchor="start" x="819.094" y="-928.9" font-family="Arial" font-size="14.00" fill="#666666">[int]</text>
<polygon fill="none" stroke="#000000" points="767,-887.5 767,-917.5 1126,-917.5 1126,-887.5 767,-887.5"/>
<text text-anchor="start" x="774" y="-898.9" font-family="Arial" font-size="14.00" fill="#000000">userId    </text>
<text text-anchor="start" x="847.1038" y="-898.9" font-family="Arial" font-size="14.00" fill="#666666">[int]</text>
<polygon fill="none" stroke="#000000" points="767,-857.5 767,-887.5 1126,-887.5 1126,-857.5 767,-857.5"/>
<text text-anchor="start" x="774" y="-868.9" font-family="Arial" font-size="14.00" fill="#000000">organizationId    </text>
<text text-anchor="start" x="896.1206" y="-868.9" font-family="Arial" font-size="14.00" fill="#666666">[int]</text>
<polygon fill="none" stroke="#000000" points="767,-827.5 767,-857.5 1126,-857.5 1126,-827.5 767,-827.5"/>
<text text-anchor="start" x="774" y="-838.9" font-family="Arial" font-size="14.00" fill="#000000">invoiceId    </text>
<text text-anchor="start" x="863.439" y="-838.9" font-family="Arial" font-size="14.00" fill="#666666">[int]</text>
<polygon fill="none" stroke="#000000" points="767,-797.5 767,-827.5 1126,-827.5 1126,-797.5 767,-797.5"/>
<text text-anchor="start" x="774" y="-808.9" font-family="Arial" font-size="14.00" fill="#000000">createdAt    </text>
<text text-anchor="start" x="868.1136" y="-808.9" font-family="Arial" font-size="14.00" fill="#666666">[timestamp]</text>
<polygon fill="none" stroke="#000000" points="767,-767.5 767,-797.5 1126,-797.5 1126,-767.5 767,-767.5"/>
<text text-anchor="start" x="774" y="-778.9" font-family="Arial" font-size="14.00" fill="#000000">updatedAt    </text>
<text text-anchor="start" x="872.0182" y="-778.9" font-family="Arial" font-size="14.00" fill="#666666">[timestamp]</text>
</g>
<!-- user_organization_invoices&#45;&gt;invoices -->
<g id="edge3" class="edge">
<title>user_organization_invoices:invoiceId&#45;&gt;invoices:id</title>
<path fill="none" stroke="#000000" stroke-dasharray="5,2" d="M756.8052,-841.8446C696.3716,-833.4231 745.0155,-745.5852 715,-680 686.2772,-617.2393 703.021,-547.5 634,-547.5"/>
<polygon fill="#000000" stroke="#000000" points="757.0206,-841.8584 766.7113,-846.9907 762.0103,-842.1792 767,-842.5 767,-842.5 767,-842.5 762.0103,-842.1792 767.2887,-838.0093 757.0206,-841.8584 757.0206,-841.8584"/>
<text text-anchor="start" x="745.7765" y="-852.5" font-family="Arial" font-size="10.00" fill="#000000">n&#45;n</text>
</g>
</g>
</svg>
