<?xml version="1.0" encoding="UTF-8" standalone="no"?>
<!DOCTYPE svg PUBLIC "-//W3C//DTD SVG 1.1//EN"
 "http://www.w3.org/Graphics/SVG/1.1/DTD/svg11.dtd">
<!-- Generated by graphviz version 2.40.1 (20161225.0304)
 -->
<!-- Title: invoice_items Pages: 1 -->
<svg width="380pt" height="772pt"
 viewBox="0.00 0.00 379.70 772.00" xmlns="http://www.w3.org/2000/svg" xmlns:xlink="http://www.w3.org/1999/xlink">
<g id="graph0" class="graph" transform="scale(1 1) rotate(0) translate(4 768)">
<title>invoice_items</title>
<polygon fill="#ffffff" stroke="transparent" points="-4,4 -4,-768 375.7048,-768 375.7048,4 -4,4"/>
<!-- invoice_items -->
<g id="node1" class="node">
<title>invoice_items</title>
<polygon fill="#efefef" stroke="transparent" points="75.7048,-682.5 75.7048,-717.5 325.7048,-717.5 325.7048,-682.5 75.7048,-682.5"/>
<polygon fill="none" stroke="#000000" points="75.7048,-682.5 75.7048,-717.5 325.7048,-717.5 325.7048,-682.5 75.7048,-682.5"/>
<text text-anchor="start" x="82.4168" y="-695.3" font-family="Arial Bold" font-size="18.00" fill="#000000">invoice_items</text>
<text text-anchor="start" x="191.4248" y="-695.3" font-family="Arial" font-size="14.00" fill="#000000">    </text>
<text text-anchor="start" x="225.6296" y="-695.3" font-family="Arial" font-size="14.00" fill="#666666">[BASE TABLE]</text>
<polygon fill="none" stroke="#000000" points="75.7048,-652.5 75.7048,-682.5 325.7048,-682.5 325.7048,-652.5 75.7048,-652.5"/>
<text text-anchor="start" x="82.7048" y="-663.9" font-family="Arial" font-size="14.00" fill="#000000">id </text>
<text text-anchor="start" x="97.4846" y="-663.9" font-family="Arial" font-size="14.00" fill="#666666">[int]</text>
<polygon fill="none" stroke="#000000" points="75.7048,-622.5 75.7048,-652.5 325.7048,-652.5 325.7048,-622.5 75.7048,-622.5"/>
<text text-anchor="start" x="82.7048" y="-633.9" font-family="Arial" font-size="14.00" fill="#000000">invoiceId </text>
<text text-anchor="start" x="141.8296" y="-633.9" font-family="Arial" font-size="14.00" fill="#666666">[int]</text>
<polygon fill="none" stroke="#000000" points="75.7048,-592.5 75.7048,-622.5 325.7048,-622.5 325.7048,-592.5 75.7048,-592.5"/>
<text text-anchor="start" x="82.7048" y="-603.9" font-family="Arial" font-size="14.00" fill="#000000">name </text>
<text text-anchor="start" x="121.6038" y="-603.9" font-family="Arial" font-size="14.00" fill="#666666">[varchar(255)]</text>
<polygon fill="none" stroke="#000000" points="75.7048,-562.5 75.7048,-592.5 325.7048,-592.5 325.7048,-562.5 75.7048,-562.5"/>
<text text-anchor="start" x="82.7048" y="-573.9" font-family="Arial" font-size="14.00" fill="#000000">note </text>
<text text-anchor="start" x="113.8338" y="-573.9" font-family="Arial" font-size="14.00" fill="#666666">[varchar(255)]</text>
<polygon fill="none" stroke="#000000" points="75.7048,-532.5 75.7048,-562.5 325.7048,-562.5 325.7048,-532.5 75.7048,-532.5"/>
<text text-anchor="start" x="82.7048" y="-543.9" font-family="Arial" font-size="14.00" fill="#000000">price </text>
<text text-anchor="start" x="116.9278" y="-543.9" font-family="Arial" font-size="14.00" fill="#666666">[int]</text>
<polygon fill="none" stroke="#000000" points="75.7048,-502.5 75.7048,-532.5 325.7048,-532.5 325.7048,-502.5 75.7048,-502.5"/>
<text text-anchor="start" x="82.7048" y="-513.9" font-family="Arial" font-size="14.00" fill="#000000">type </text>
<text text-anchor="start" x="113.0512" y="-513.9" font-family="Arial" font-size="14.00" fill="#666666">[enum(&#39;expense&#39;,&#39;income&#39;)]</text>
<polygon fill="none" stroke="#000000" points="75.7048,-472.5 75.7048,-502.5 325.7048,-502.5 325.7048,-472.5 75.7048,-472.5"/>
<text text-anchor="start" x="82.7048" y="-483.9" font-family="Arial" font-size="14.00" fill="#000000">createdAt </text>
<text text-anchor="start" x="146.5042" y="-483.9" font-family="Arial" font-size="14.00" fill="#666666">[timestamp]</text>
<polygon fill="none" stroke="#000000" points="75.7048,-442.5 75.7048,-472.5 325.7048,-472.5 325.7048,-442.5 75.7048,-442.5"/>
<text text-anchor="start" x="82.7048" y="-453.9" font-family="Arial" font-size="14.00" fill="#000000">updatedAt </text>
<text text-anchor="start" x="150.4088" y="-453.9" font-family="Arial" font-size="14.00" fill="#666666">[timestamp]</text>
<polygon fill="none" stroke="#000000" points="75.7048,-412.5 75.7048,-442.5 325.7048,-442.5 325.7048,-412.5 75.7048,-412.5"/>
<text text-anchor="start" x="82.7048" y="-423.9" font-family="Arial" font-size="14.00" fill="#000000">quantity </text>
<text text-anchor="start" x="135.6136" y="-423.9" font-family="Arial" font-size="14.00" fill="#666666">[int]</text>
<polygon fill="none" stroke="#000000" stroke-width="3" points="74.2048,-411.5 74.2048,-719.5 327.2048,-719.5 327.2048,-411.5 74.2048,-411.5"/>
</g>
<!-- invoices -->
<g id="node2" class="node">
<title>invoices</title>
<polygon fill="#efefef" stroke="transparent" points="92.7048,-252.5 92.7048,-287.5 307.7048,-287.5 307.7048,-252.5 92.7048,-252.5"/>
<polygon fill="none" stroke="#000000" points="92.7048,-252.5 92.7048,-287.5 307.7048,-287.5 307.7048,-252.5 92.7048,-252.5"/>
<text text-anchor="start" x="103.9173" y="-265.3" font-family="Arial Bold" font-size="18.00" fill="#000000">invoices</text>
<text text-anchor="start" x="168.9243" y="-265.3" font-family="Arial" font-size="14.00" fill="#000000">    </text>
<text text-anchor="start" x="203.1291" y="-265.3" font-family="Arial" font-size="14.00" fill="#666666">[BASE TABLE]</text>
<polygon fill="none" stroke="#000000" points="92.7048,-222.5 92.7048,-252.5 307.7048,-252.5 307.7048,-222.5 92.7048,-222.5"/>
<text text-anchor="start" x="99.7048" y="-233.9" font-family="Arial" font-size="14.00" fill="#000000">id    </text>
<text text-anchor="start" x="144.7988" y="-233.9" font-family="Arial" font-size="14.00" fill="#666666">[int]</text>
<polygon fill="none" stroke="#000000" points="92.7048,-192.5 92.7048,-222.5 307.7048,-222.5 307.7048,-192.5 92.7048,-192.5"/>
<text text-anchor="start" x="99.7048" y="-203.9" font-family="Arial" font-size="14.00" fill="#000000">date    </text>
<text text-anchor="start" x="161.148" y="-203.9" font-family="Arial" font-size="14.00" fill="#666666">[timestamp]</text>
<polygon fill="none" stroke="#000000" points="92.7048,-162.5 92.7048,-192.5 307.7048,-192.5 307.7048,-162.5 92.7048,-162.5"/>
<text text-anchor="start" x="99.7048" y="-173.9" font-family="Arial" font-size="14.00" fill="#000000">createdAt    </text>
<text text-anchor="start" x="193.8184" y="-173.9" font-family="Arial" font-size="14.00" fill="#666666">[timestamp]</text>
<polygon fill="none" stroke="#000000" points="92.7048,-132.5 92.7048,-162.5 307.7048,-162.5 307.7048,-132.5 92.7048,-132.5"/>
<text text-anchor="start" x="99.7048" y="-143.9" font-family="Arial" font-size="14.00" fill="#000000">updatedAt    </text>
<text text-anchor="start" x="197.723" y="-143.9" font-family="Arial" font-size="14.00" fill="#666666">[timestamp]</text>
<polygon fill="none" stroke="#000000" points="92.7048,-102.5 92.7048,-132.5 307.7048,-132.5 307.7048,-102.5 92.7048,-102.5"/>
<text text-anchor="start" x="99.7048" y="-113.9" font-family="Arial" font-size="14.00" fill="#000000">organizationId    </text>
<text text-anchor="start" x="221.8254" y="-113.9" font-family="Arial" font-size="14.00" fill="#666666">[int]</text>
<polygon fill="none" stroke="#000000" points="92.7048,-72.5 92.7048,-102.5 307.7048,-102.5 307.7048,-72.5 92.7048,-72.5"/>
<text text-anchor="start" x="99.7048" y="-83.9" font-family="Arial" font-size="14.00" fill="#000000">total    </text>
<text text-anchor="start" x="160.3626" y="-83.9" font-family="Arial" font-size="14.00" fill="#666666">[int]</text>
<polygon fill="none" stroke="#000000" points="92.7048,-42.5 92.7048,-72.5 307.7048,-72.5 307.7048,-42.5 92.7048,-42.5"/>
<text text-anchor="start" x="99.5168" y="-53.9" font-family="Arial" font-size="14.00" fill="#000000">currency    </text>
<text text-anchor="start" x="187.3906" y="-53.9" font-family="Arial" font-size="14.00" fill="#666666">[enum(&#39;vnd&#39;,&#39;usd&#39;)]</text>
</g>
<!-- invoice_items&#45;&gt;invoices -->
<g id="edge1" class="edge">
<title>invoice_items:invoiceId&#45;&gt;invoices:id</title>
<path fill="none" stroke="#000000" stroke-dasharray="5,2" d="M65.5529,-637.0453C-42.0254,-627.0752 -.2249,-455.6205 75.7048,-367 143.5958,-287.7617 239.8138,-410.2383 307.7048,-331 334.7424,-299.4432 349.2603,-237.5 307.7048,-237.5"/>
<polygon fill="#000000" stroke="#000000" points="65.7148,-637.0524 75.5034,-641.9955 70.7098,-637.2762 75.7048,-637.5 75.7048,-637.5 75.7048,-637.5 70.7098,-637.2762 75.9062,-633.0045 65.7148,-637.0524 65.7148,-637.0524"/>
<text text-anchor="start" x="54.4813" y="-647.5" font-family="Arial" font-size="10.00" fill="#000000">1&#45;n</text>
</g>
</g>
</svg>
