<?xml version="1.0" encoding="UTF-8" standalone="no"?>
<!DOCTYPE svg PUBLIC "-//W3C//DTD SVG 1.1//EN"
 "http://www.w3.org/Graphics/SVG/1.1/DTD/svg11.dtd">
<!-- Generated by graphviz version 2.40.1 (20161225.0304)
 -->
<!-- Title: invoices Pages: 1 -->
<svg width="1002pt" height="1499pt"
 viewBox="0.00 0.00 1001.50 1499.00" xmlns="http://www.w3.org/2000/svg" xmlns:xlink="http://www.w3.org/1999/xlink">
<g id="graph0" class="graph" transform="scale(1 1) rotate(0) translate(4 1495)">
<title>invoices</title>
<polygon fill="#ffffff" stroke="transparent" points="-4,4 -4,-1495 997.5,-1495 997.5,4 -4,4"/>
<!-- invoices -->
<g id="node1" class="node">
<title>invoices</title>
<polygon fill="#efefef" stroke="transparent" points="395,-1012.5 395,-1047.5 605,-1047.5 605,-1012.5 395,-1012.5"/>
<polygon fill="none" stroke="#000000" points="395,-1012.5 395,-1047.5 605,-1047.5 605,-1012.5 395,-1012.5"/>
<text text-anchor="start" x="403.7125" y="-1025.3" font-family="Arial Bold" font-size="18.00" fill="#000000">invoices</text>
<text text-anchor="start" x="468.7195" y="-1025.3" font-family="Arial" font-size="14.00" fill="#000000">    </text>
<text text-anchor="start" x="502.9243" y="-1025.3" font-family="Arial" font-size="14.00" fill="#666666">[BASE TABLE]</text>
<polygon fill="none" stroke="#000000" points="395,-982.5 395,-1012.5 605,-1012.5 605,-982.5 395,-982.5"/>
<text text-anchor="start" x="402" y="-993.9" font-family="Arial" font-size="14.00" fill="#000000">id </text>
<text text-anchor="start" x="416.7798" y="-993.9" font-family="Arial" font-size="14.00" fill="#666666">[int]</text>
<polygon fill="none" stroke="#000000" points="395,-952.5 395,-982.5 605,-982.5 605,-952.5 395,-952.5"/>
<text text-anchor="start" x="402" y="-963.9" font-family="Arial" font-size="14.00" fill="#000000">date </text>
<text text-anchor="start" x="433.129" y="-963.9" font-family="Arial" font-size="14.00" fill="#666666">[timestamp]</text>
<polygon fill="none" stroke="#000000" points="395,-922.5 395,-952.5 605,-952.5 605,-922.5 395,-922.5"/>
<text text-anchor="start" x="402" y="-933.9" font-family="Arial" font-size="14.00" fill="#000000">createdAt </text>
<text text-anchor="start" x="465.7994" y="-933.9" font-family="Arial" font-size="14.00" fill="#666666">[timestamp]</text>
<polygon fill="none" stroke="#000000" points="395,-892.5 395,-922.5 605,-922.5 605,-892.5 395,-892.5"/>
<text text-anchor="start" x="402" y="-903.9" font-family="Arial" font-size="14.00" fill="#000000">updatedAt </text>
<text text-anchor="start" x="469.704" y="-903.9" font-family="Arial" font-size="14.00" fill="#666666">[timestamp]</text>
<polygon fill="none" stroke="#000000" points="395,-862.5 395,-892.5 605,-892.5 605,-862.5 395,-862.5"/>
<text text-anchor="start" x="402" y="-873.9" font-family="Arial" font-size="14.00" fill="#000000">organizationId </text>
<text text-anchor="start" x="493.8064" y="-873.9" font-family="Arial" font-size="14.00" fill="#666666">[int]</text>
<polygon fill="none" stroke="#000000" points="395,-832.5 395,-862.5 605,-862.5 605,-832.5 395,-832.5"/>
<text text-anchor="start" x="402" y="-843.9" font-family="Arial" font-size="14.00" fill="#000000">total </text>
<text text-anchor="start" x="432.3436" y="-843.9" font-family="Arial" font-size="14.00" fill="#666666">[int]</text>
<polygon fill="none" stroke="#000000" points="395,-802.5 395,-832.5 605,-832.5 605,-802.5 395,-802.5"/>
<text text-anchor="start" x="402" y="-813.9" font-family="Arial" font-size="14.00" fill="#000000">currency </text>
<text text-anchor="start" x="459.5596" y="-813.9" font-family="Arial" font-size="14.00" fill="#666666">[enum(&#39;vnd&#39;,&#39;usd&#39;)]</text>
<polygon fill="none" stroke="#000000" points="395,-772.5 395,-802.5 605,-802.5 605,-772.5 395,-772.5"/>
<text text-anchor="start" x="401.6269" y="-783.9" font-family="Arial" font-size="14.00" fill="#000000">type </text>
<text text-anchor="start" x="431.9733" y="-783.9" font-family="Arial" font-size="14.00" fill="#666666">[enum(&#39;expense&#39;,&#39;income&#39;)]</text>
<polygon fill="none" stroke="#000000" points="395,-742.5 395,-772.5 605,-772.5 605,-742.5 395,-742.5"/>
<text text-anchor="start" x="402" y="-753.9" font-family="Arial" font-size="14.00" fill="#000000">projectId </text>
<text text-anchor="start" x="459.5694" y="-753.9" font-family="Arial" font-size="14.00" fill="#666666">[int]</text>
<polygon fill="none" stroke="#000000" points="395,-712.5 395,-742.5 605,-742.5 605,-712.5 395,-712.5"/>
<text text-anchor="start" x="402" y="-723.9" font-family="Arial" font-size="14.00" fill="#000000">categoryId </text>
<text text-anchor="start" x="471.2454" y="-723.9" font-family="Arial" font-size="14.00" fill="#666666">[int]</text>
<polygon fill="none" stroke="#000000" points="395,-682.5 395,-712.5 605,-712.5 605,-682.5 395,-682.5"/>
<text text-anchor="start" x="402" y="-693.9" font-family="Arial" font-size="14.00" fill="#000000">clientName </text>
<text text-anchor="start" x="475.892" y="-693.9" font-family="Arial" font-size="14.00" fill="#666666">[varchar(255)]</text>
<polygon fill="none" stroke="#000000" points="395,-652.5 395,-682.5 605,-682.5 605,-652.5 395,-652.5"/>
<text text-anchor="start" x="402" y="-663.9" font-family="Arial" font-size="14.00" fill="#000000">tax </text>
<text text-anchor="start" x="424.5638" y="-663.9" font-family="Arial" font-size="14.00" fill="#666666">[int]</text>
<polygon fill="none" stroke="#000000" points="395,-622.5 395,-652.5 605,-652.5 605,-622.5 395,-622.5"/>
<text text-anchor="start" x="402" y="-633.9" font-family="Arial" font-size="14.00" fill="#000000">uid </text>
<text text-anchor="start" x="424.5624" y="-633.9" font-family="Arial" font-size="14.00" fill="#666666">[varchar(255)]</text>
<polygon fill="none" stroke="#000000" points="395,-592.5 395,-622.5 605,-622.5 605,-592.5 395,-592.5"/>
<text text-anchor="start" x="402" y="-603.9" font-family="Arial" font-size="14.00" fill="#000000">exchangeRate </text>
<text text-anchor="start" x="496.1486" y="-603.9" font-family="Arial" font-size="14.00" fill="#666666">[decimal(10,0)]</text>
<polygon fill="none" stroke="#000000" points="395,-562.5 395,-592.5 605,-592.5 605,-562.5 395,-562.5"/>
<text text-anchor="start" x="402" y="-573.9" font-family="Arial" font-size="14.00" fill="#000000">note </text>
<text text-anchor="start" x="433.129" y="-573.9" font-family="Arial" font-size="14.00" fill="#666666">[varchar(255)]</text>
<polygon fill="none" stroke="#000000" points="395,-532.5 395,-562.5 605,-562.5 605,-532.5 395,-532.5"/>
<text text-anchor="start" x="402" y="-543.9" font-family="Arial" font-size="14.00" fill="#000000">discount </text>
<text text-anchor="start" x="458.0182" y="-543.9" font-family="Arial" font-size="14.00" fill="#666666">[int]</text>
<polygon fill="none" stroke="#000000" stroke-width="3" points="393.5,-531.5 393.5,-1049.5 606.5,-1049.5 606.5,-531.5 393.5,-531.5"/>
</g>
<!-- organizations -->
<g id="node4" class="node">
<title>organizations</title>
<polygon fill="#efefef" stroke="transparent" points="43,-372.5 43,-407.5 291,-407.5 291,-372.5 43,-372.5"/>
<polygon fill="none" stroke="#000000" points="43,-372.5 43,-407.5 291,-407.5 291,-372.5 43,-372.5"/>
<text text-anchor="start" x="49.7029" y="-385.3" font-family="Arial Bold" font-size="18.00" fill="#000000">organizations</text>
<text text-anchor="start" x="156.7291" y="-385.3" font-family="Arial" font-size="14.00" fill="#000000">    </text>
<text text-anchor="start" x="190.9339" y="-385.3" font-family="Arial" font-size="14.00" fill="#666666">[BASE TABLE]</text>
<polygon fill="none" stroke="#000000" points="43,-342.5 43,-372.5 291,-372.5 291,-342.5 43,-342.5"/>
<text text-anchor="start" x="50" y="-353.9" font-family="Arial" font-size="14.00" fill="#000000">id    </text>
<text text-anchor="start" x="95.094" y="-353.9" font-family="Arial" font-size="14.00" fill="#666666">[int]</text>
<polygon fill="none" stroke="#000000" points="43,-312.5 43,-342.5 291,-342.5 291,-312.5 43,-312.5"/>
<text text-anchor="start" x="50" y="-323.9" font-family="Arial" font-size="14.00" fill="#000000">name    </text>
<text text-anchor="start" x="119.2132" y="-323.9" font-family="Arial" font-size="14.00" fill="#666666">[varchar(255)]</text>
<polygon fill="none" stroke="#000000" points="43,-282.5 43,-312.5 291,-312.5 291,-282.5 43,-282.5"/>
<text text-anchor="start" x="50" y="-293.9" font-family="Arial" font-size="14.00" fill="#000000">uniqueName    </text>
<text text-anchor="start" x="163.5568" y="-293.9" font-family="Arial" font-size="14.00" fill="#666666">[varchar(255)]</text>
<polygon fill="none" stroke="#000000" points="43,-252.5 43,-282.5 291,-282.5 291,-252.5 43,-252.5"/>
<text text-anchor="start" x="50" y="-263.9" font-family="Arial" font-size="14.00" fill="#000000">createdAt    </text>
<text text-anchor="start" x="144.1136" y="-263.9" font-family="Arial" font-size="14.00" fill="#666666">[timestamp]</text>
<polygon fill="none" stroke="#000000" points="43,-222.5 43,-252.5 291,-252.5 291,-222.5 43,-222.5"/>
<text text-anchor="start" x="50" y="-233.9" font-family="Arial" font-size="14.00" fill="#000000">updatedAt    </text>
<text text-anchor="start" x="148.0182" y="-233.9" font-family="Arial" font-size="14.00" fill="#666666">[timestamp]</text>
<polygon fill="none" stroke="#000000" points="43,-192.5 43,-222.5 291,-222.5 291,-192.5 43,-192.5"/>
<text text-anchor="start" x="50" y="-203.9" font-family="Arial" font-size="14.00" fill="#000000">phone    </text>
<text text-anchor="start" x="123.1178" y="-203.9" font-family="Arial" font-size="14.00" fill="#666666">[varchar(255)]</text>
<polygon fill="none" stroke="#000000" points="43,-162.5 43,-192.5 291,-192.5 291,-162.5 43,-162.5"/>
<text text-anchor="start" x="50" y="-173.9" font-family="Arial" font-size="14.00" fill="#000000">address    </text>
<text text-anchor="start" x="133.9958" y="-173.9" font-family="Arial" font-size="14.00" fill="#666666">[varchar(255)]</text>
<polygon fill="none" stroke="#000000" points="43,-132.5 43,-162.5 291,-162.5 291,-132.5 43,-132.5"/>
<text text-anchor="start" x="50" y="-143.9" font-family="Arial" font-size="14.00" fill="#000000">dateFormat    </text>
<text text-anchor="start" x="155.7728" y="-143.9" font-family="Arial" font-size="14.00" fill="#666666">[varchar(255)]</text>
<polygon fill="none" stroke="#000000" points="43,-102.5 43,-132.5 291,-132.5 291,-102.5 43,-102.5"/>
<text text-anchor="start" x="50" y="-113.9" font-family="Arial" font-size="14.00" fill="#000000">currency    </text>
<text text-anchor="start" x="137.8738" y="-113.9" font-family="Arial" font-size="14.00" fill="#666666">[enum(&#39;vnd&#39;,&#39;usd&#39;)]</text>
<polygon fill="none" stroke="#000000" points="43,-72.5 43,-102.5 291,-102.5 291,-72.5 43,-72.5"/>
<text text-anchor="start" x="50" y="-83.9" font-family="Arial" font-size="14.00" fill="#000000">bank    </text>
<text text-anchor="start" x="114.5526" y="-83.9" font-family="Arial" font-size="14.00" fill="#666666">[enum(&#39;bidv&#39;,&#39;vcb&#39;)]</text>
<polygon fill="none" stroke="#000000" points="43,-42.5 43,-72.5 291,-72.5 291,-42.5 43,-42.5"/>
<text text-anchor="start" x="50" y="-53.9" font-family="Arial" font-size="14.00" fill="#000000">exchangeRate    </text>
<text text-anchor="start" x="174.4628" y="-53.9" font-family="Arial" font-size="14.00" fill="#666666">[int]</text>
</g>
<!-- invoices&#45;&gt;organizations -->
<g id="edge3" class="edge">
<title>invoices:organizationId&#45;&gt;organizations:id</title>
<path fill="none" stroke="#000000" stroke-dasharray="5,2" d="M384.9696,-876.0991C284.9006,-846.4922 405.2765,-357.5 291,-357.5"/>
<polygon fill="#000000" stroke="#000000" points="385.0961,-876.1167 394.3775,-881.9567 390.0481,-876.8084 395,-877.5 395,-877.5 395,-877.5 390.0481,-876.8084 395.6225,-873.0433 385.0961,-876.1167 385.0961,-876.1167"/>
<text text-anchor="start" x="373.7765" y="-887.5" font-family="Arial" font-size="10.00" fill="#000000">1&#45;n</text>
</g>
<!-- projects -->
<g id="node5" class="node">
<title>projects</title>
<polygon fill="#efefef" stroke="transparent" points="395,-357.5 395,-392.5 605,-392.5 605,-357.5 395,-357.5"/>
<polygon fill="none" stroke="#000000" points="395,-357.5 395,-392.5 605,-392.5 605,-357.5 395,-357.5"/>
<text text-anchor="start" x="404.7124" y="-370.3" font-family="Arial Bold" font-size="18.00" fill="#000000">projects</text>
<text text-anchor="start" x="467.7196" y="-370.3" font-family="Arial" font-size="14.00" fill="#000000">    </text>
<text text-anchor="start" x="501.9244" y="-370.3" font-family="Arial" font-size="14.00" fill="#666666">[BASE TABLE]</text>
<polygon fill="none" stroke="#000000" points="395,-327.5 395,-357.5 605,-357.5 605,-327.5 395,-327.5"/>
<text text-anchor="start" x="402" y="-338.9" font-family="Arial" font-size="14.00" fill="#000000">id    </text>
<text text-anchor="start" x="447.094" y="-338.9" font-family="Arial" font-size="14.00" fill="#666666">[int]</text>
<polygon fill="none" stroke="#000000" points="395,-297.5 395,-327.5 605,-327.5 605,-297.5 395,-297.5"/>
<text text-anchor="start" x="402" y="-308.9" font-family="Arial" font-size="14.00" fill="#000000">name    </text>
<text text-anchor="start" x="471.2132" y="-308.9" font-family="Arial" font-size="14.00" fill="#666666">[varchar(255)]</text>
<polygon fill="none" stroke="#000000" points="395,-267.5 395,-297.5 605,-297.5 605,-267.5 395,-267.5"/>
<text text-anchor="start" x="402" y="-278.9" font-family="Arial" font-size="14.00" fill="#000000">totalBudget    </text>
<text text-anchor="start" x="507.0154" y="-278.9" font-family="Arial" font-size="14.00" fill="#666666">[int]</text>
<polygon fill="none" stroke="#000000" points="395,-237.5 395,-267.5 605,-267.5 605,-237.5 395,-237.5"/>
<text text-anchor="start" x="402" y="-248.9" font-family="Arial" font-size="14.00" fill="#000000">startDate    </text>
<text text-anchor="start" x="492.9916" y="-248.9" font-family="Arial" font-size="14.00" fill="#666666">[timestamp]</text>
<polygon fill="none" stroke="#000000" points="395,-207.5 395,-237.5 605,-237.5 605,-207.5 395,-207.5"/>
<text text-anchor="start" x="402" y="-218.9" font-family="Arial" font-size="14.00" fill="#000000">endDate    </text>
<text text-anchor="start" x="489.115" y="-218.9" font-family="Arial" font-size="14.00" fill="#666666">[timestamp]</text>
<polygon fill="none" stroke="#000000" points="395,-177.5 395,-207.5 605,-207.5 605,-177.5 395,-177.5"/>
<text text-anchor="start" x="402" y="-188.9" font-family="Arial" font-size="14.00" fill="#000000">createdAt    </text>
<text text-anchor="start" x="496.1136" y="-188.9" font-family="Arial" font-size="14.00" fill="#666666">[timestamp]</text>
<polygon fill="none" stroke="#000000" points="395,-147.5 395,-177.5 605,-177.5 605,-147.5 395,-147.5"/>
<text text-anchor="start" x="402" y="-158.9" font-family="Arial" font-size="14.00" fill="#000000">updatedAt    </text>
<text text-anchor="start" x="500.0182" y="-158.9" font-family="Arial" font-size="14.00" fill="#666666">[timestamp]</text>
<polygon fill="none" stroke="#000000" points="395,-117.5 395,-147.5 605,-147.5 605,-117.5 395,-117.5"/>
<text text-anchor="start" x="402" y="-128.9" font-family="Arial" font-size="14.00" fill="#000000">organizationId    </text>
<text text-anchor="start" x="524.1206" y="-128.9" font-family="Arial" font-size="14.00" fill="#666666">[int]</text>
<polygon fill="none" stroke="#000000" points="395,-87.5 395,-117.5 605,-117.5 605,-87.5 395,-87.5"/>
<text text-anchor="start" x="402" y="-98.9" font-family="Arial" font-size="14.00" fill="#000000">creatorId    </text>
<text text-anchor="start" x="491.4376" y="-98.9" font-family="Arial" font-size="14.00" fill="#666666">[int]</text>
<polygon fill="none" stroke="#000000" points="395,-57.5 395,-87.5 605,-87.5 605,-57.5 395,-57.5"/>
<text text-anchor="start" x="401.608" y="-68.9" font-family="Arial" font-size="14.00" fill="#000000">description    </text>
<text text-anchor="start" x="503.4902" y="-68.9" font-family="Arial" font-size="14.00" fill="#666666">[varchar(2000)]</text>
</g>
<!-- invoices&#45;&gt;projects -->
<g id="edge4" class="edge">
<title>invoices:projectId&#45;&gt;projects:id</title>
<path fill="none" stroke="#000000" stroke-dasharray="5,2" d="M613.5762,-752.2529C650.9078,-704.2129 648.049,-342.5 605,-342.5"/>
<polygon fill="#000000" stroke="#000000" points="613.5301,-752.281 602.6515,-753.6614 609.2651,-754.8905 605,-757.5 605,-757.5 605,-757.5 609.2651,-754.8905 607.3485,-761.3386 613.5301,-752.281 613.5301,-752.281"/>
<text text-anchor="start" x="583.7765" y="-767.5" font-family="Arial" font-size="10.00" fill="#000000">1&#45;n</text>
</g>
<!-- categories -->
<g id="node6" class="node">
<title>categories</title>
<polygon fill="#efefef" stroke="transparent" points="710,-342.5 710,-377.5 951,-377.5 951,-342.5 710,-342.5"/>
<polygon fill="none" stroke="#000000" points="710,-342.5 710,-377.5 951,-377.5 951,-342.5 710,-342.5"/>
<text text-anchor="start" x="725.2062" y="-355.3" font-family="Arial Bold" font-size="18.00" fill="#000000">categories</text>
<text text-anchor="start" x="808.2258" y="-355.3" font-family="Arial" font-size="14.00" fill="#000000">    </text>
<text text-anchor="start" x="842.4306" y="-355.3" font-family="Arial" font-size="14.00" fill="#666666">[BASE TABLE]</text>
<polygon fill="none" stroke="#000000" points="710,-312.5 710,-342.5 951,-342.5 951,-312.5 710,-312.5"/>
<text text-anchor="start" x="717" y="-323.9" font-family="Arial" font-size="14.00" fill="#000000">id    </text>
<text text-anchor="start" x="762.094" y="-323.9" font-family="Arial" font-size="14.00" fill="#666666">[int]</text>
<polygon fill="none" stroke="#000000" points="710,-282.5 710,-312.5 951,-312.5 951,-282.5 710,-282.5"/>
<text text-anchor="start" x="717" y="-293.9" font-family="Arial" font-size="14.00" fill="#000000">name    </text>
<text text-anchor="start" x="786.2132" y="-293.9" font-family="Arial" font-size="14.00" fill="#666666">[varchar(255)]</text>
<polygon fill="none" stroke="#000000" points="710,-252.5 710,-282.5 951,-282.5 951,-252.5 710,-252.5"/>
<text text-anchor="start" x="717" y="-263.9" font-family="Arial" font-size="14.00" fill="#000000">color    </text>
<text text-anchor="start" x="781.5372" y="-263.9" font-family="Arial" font-size="14.00" fill="#666666">[varchar(255)]</text>
<polygon fill="none" stroke="#000000" points="710,-222.5 710,-252.5 951,-252.5 951,-222.5 710,-222.5"/>
<text text-anchor="start" x="717" y="-233.9" font-family="Arial" font-size="14.00" fill="#000000">icon    </text>
<text text-anchor="start" x="776.8766" y="-233.9" font-family="Arial" font-size="14.00" fill="#666666">[varchar(255)]</text>
<polygon fill="none" stroke="#000000" points="710,-192.5 710,-222.5 951,-222.5 951,-192.5 710,-192.5"/>
<text text-anchor="start" x="716.9698" y="-203.9" font-family="Arial" font-size="14.00" fill="#000000">type    </text>
<text text-anchor="start" x="777.6304" y="-203.9" font-family="Arial" font-size="14.00" fill="#666666">[enum(&#39;expense&#39;,&#39;income&#39;)]</text>
<polygon fill="none" stroke="#000000" points="710,-162.5 710,-192.5 951,-192.5 951,-162.5 710,-162.5"/>
<text text-anchor="start" x="717" y="-173.9" font-family="Arial" font-size="14.00" fill="#000000">createdAt    </text>
<text text-anchor="start" x="811.1136" y="-173.9" font-family="Arial" font-size="14.00" fill="#666666">[timestamp]</text>
<polygon fill="none" stroke="#000000" points="710,-132.5 710,-162.5 951,-162.5 951,-132.5 710,-132.5"/>
<text text-anchor="start" x="717" y="-143.9" font-family="Arial" font-size="14.00" fill="#000000">updatedAt    </text>
<text text-anchor="start" x="815.0182" y="-143.9" font-family="Arial" font-size="14.00" fill="#666666">[timestamp]</text>
<polygon fill="none" stroke="#000000" points="710,-102.5 710,-132.5 951,-132.5 951,-102.5 710,-102.5"/>
<text text-anchor="start" x="717" y="-113.9" font-family="Arial" font-size="14.00" fill="#000000">organizationId    </text>
<text text-anchor="start" x="839.1206" y="-113.9" font-family="Arial" font-size="14.00" fill="#666666">[int]</text>
<polygon fill="none" stroke="#000000" points="710,-72.5 710,-102.5 951,-102.5 951,-72.5 710,-72.5"/>
<text text-anchor="start" x="717" y="-83.9" font-family="Arial" font-size="14.00" fill="#000000">projectId    </text>
<text text-anchor="start" x="804.8836" y="-83.9" font-family="Arial" font-size="14.00" fill="#666666">[int]</text>
</g>
<!-- invoices&#45;&gt;categories -->
<g id="edge5" class="edge">
<title>invoices:categoryId&#45;&gt;categories:id</title>
<path fill="none" stroke="#000000" stroke-dasharray="5,2" d="M615.0085,-725.7166C691.0045,-696.8604 621.6895,-327.5 710,-327.5"/>
<polygon fill="#000000" stroke="#000000" points="614.8449,-725.7457 604.2106,-723.0698 609.9225,-726.6228 605,-727.5 605,-727.5 605,-727.5 609.9225,-726.6228 605.7894,-731.9302 614.8449,-725.7457 614.8449,-725.7457"/>
<text text-anchor="start" x="583.7765" y="-737.5" font-family="Arial" font-size="10.00" fill="#000000">1&#45;n</text>
</g>
<!-- invoice_items -->
<g id="node2" class="node">
<title>invoice_items</title>
<polygon fill="#efefef" stroke="transparent" points="170,-1412.5 170,-1447.5 420,-1447.5 420,-1412.5 170,-1412.5"/>
<polygon fill="none" stroke="#000000" points="170,-1412.5 170,-1447.5 420,-1447.5 420,-1412.5 170,-1412.5"/>
<text text-anchor="start" x="176.712" y="-1425.3" font-family="Arial Bold" font-size="18.00" fill="#000000">invoice_items</text>
<text text-anchor="start" x="285.72" y="-1425.3" font-family="Arial" font-size="14.00" fill="#000000">    </text>
<text text-anchor="start" x="319.9248" y="-1425.3" font-family="Arial" font-size="14.00" fill="#666666">[BASE TABLE]</text>
<polygon fill="none" stroke="#000000" points="170,-1382.5 170,-1412.5 420,-1412.5 420,-1382.5 170,-1382.5"/>
<text text-anchor="start" x="177" y="-1393.9" font-family="Arial" font-size="14.00" fill="#000000">id    </text>
<text text-anchor="start" x="222.094" y="-1393.9" font-family="Arial" font-size="14.00" fill="#666666">[int]</text>
<polygon fill="none" stroke="#000000" points="170,-1352.5 170,-1382.5 420,-1382.5 420,-1352.5 170,-1352.5"/>
<text text-anchor="start" x="177" y="-1363.9" font-family="Arial" font-size="14.00" fill="#000000">invoiceId    </text>
<text text-anchor="start" x="266.439" y="-1363.9" font-family="Arial" font-size="14.00" fill="#666666">[int]</text>
<polygon fill="none" stroke="#000000" points="170,-1322.5 170,-1352.5 420,-1352.5 420,-1322.5 170,-1322.5"/>
<text text-anchor="start" x="177" y="-1333.9" font-family="Arial" font-size="14.00" fill="#000000">name    </text>
<text text-anchor="start" x="246.2132" y="-1333.9" font-family="Arial" font-size="14.00" fill="#666666">[varchar(255)]</text>
<polygon fill="none" stroke="#000000" points="170,-1292.5 170,-1322.5 420,-1322.5 420,-1292.5 170,-1292.5"/>
<text text-anchor="start" x="177" y="-1303.9" font-family="Arial" font-size="14.00" fill="#000000">note    </text>
<text text-anchor="start" x="238.4432" y="-1303.9" font-family="Arial" font-size="14.00" fill="#666666">[varchar(255)]</text>
<polygon fill="none" stroke="#000000" points="170,-1262.5 170,-1292.5 420,-1292.5 420,-1262.5 170,-1262.5"/>
<text text-anchor="start" x="177" y="-1273.9" font-family="Arial" font-size="14.00" fill="#000000">price    </text>
<text text-anchor="start" x="241.5372" y="-1273.9" font-family="Arial" font-size="14.00" fill="#666666">[int]</text>
<polygon fill="none" stroke="#000000" points="170,-1232.5 170,-1262.5 420,-1262.5 420,-1232.5 170,-1232.5"/>
<text text-anchor="start" x="177" y="-1243.9" font-family="Arial" font-size="14.00" fill="#000000">createdAt    </text>
<text text-anchor="start" x="271.1136" y="-1243.9" font-family="Arial" font-size="14.00" fill="#666666">[timestamp]</text>
<polygon fill="none" stroke="#000000" points="170,-1202.5 170,-1232.5 420,-1232.5 420,-1202.5 170,-1202.5"/>
<text text-anchor="start" x="177" y="-1213.9" font-family="Arial" font-size="14.00" fill="#000000">updatedAt    </text>
<text text-anchor="start" x="275.0182" y="-1213.9" font-family="Arial" font-size="14.00" fill="#666666">[timestamp]</text>
<polygon fill="none" stroke="#000000" points="170,-1172.5 170,-1202.5 420,-1202.5 420,-1172.5 170,-1172.5"/>
<text text-anchor="start" x="177" y="-1183.9" font-family="Arial" font-size="14.00" fill="#000000">quantity    </text>
<text text-anchor="start" x="260.223" y="-1183.9" font-family="Arial" font-size="14.00" fill="#666666">[int]</text>
</g>
<!-- invoice_items&#45;&gt;invoices -->
<g id="edge1" class="edge">
<title>invoice_items:invoiceId&#45;&gt;invoices:id</title>
<path fill="none" stroke="#000000" stroke-dasharray="5,2" d="M429.8398,-1364.8371C467.6789,-1341.8604 434.6639,-1176.8244 420,-1130 414.1784,-1111.4106 400.8216,-1112.5894 395,-1094 382.1824,-1053.0712 352.1111,-997.5 395,-997.5"/>
<polygon fill="#000000" stroke="#000000" points="429.6528,-1364.8876 418.8244,-1363.1563 424.8264,-1366.1938 420,-1367.5 420,-1367.5 420,-1367.5 424.8264,-1366.1938 421.1756,-1371.8437 429.6528,-1364.8876 429.6528,-1364.8876"/>
<text text-anchor="start" x="398.7765" y="-1377.5" font-family="Arial" font-size="10.00" fill="#000000">1&#45;n</text>
</g>
<!-- user_organization_invoices -->
<g id="node3" class="node">
<title>user_organization_invoices</title>
<polygon fill="#efefef" stroke="transparent" points="525,-1382.5 525,-1417.5 884,-1417.5 884,-1382.5 525,-1382.5"/>
<polygon fill="none" stroke="#000000" points="525,-1382.5 525,-1417.5 884,-1417.5 884,-1382.5 525,-1382.5"/>
<text text-anchor="start" x="531.6909" y="-1395.3" font-family="Arial Bold" font-size="18.00" fill="#000000">user_organization_invoices</text>
<text text-anchor="start" x="749.7411" y="-1395.3" font-family="Arial" font-size="14.00" fill="#000000">    </text>
<text text-anchor="start" x="783.9459" y="-1395.3" font-family="Arial" font-size="14.00" fill="#666666">[BASE TABLE]</text>
<polygon fill="none" stroke="#000000" points="525,-1352.5 525,-1382.5 884,-1382.5 884,-1352.5 525,-1352.5"/>
<text text-anchor="start" x="532" y="-1363.9" font-family="Arial" font-size="14.00" fill="#000000">id    </text>
<text text-anchor="start" x="577.094" y="-1363.9" font-family="Arial" font-size="14.00" fill="#666666">[int]</text>
<polygon fill="none" stroke="#000000" points="525,-1322.5 525,-1352.5 884,-1352.5 884,-1322.5 525,-1322.5"/>
<text text-anchor="start" x="532" y="-1333.9" font-family="Arial" font-size="14.00" fill="#000000">userId    </text>
<text text-anchor="start" x="605.1038" y="-1333.9" font-family="Arial" font-size="14.00" fill="#666666">[int]</text>
<polygon fill="none" stroke="#000000" points="525,-1292.5 525,-1322.5 884,-1322.5 884,-1292.5 525,-1292.5"/>
<text text-anchor="start" x="532" y="-1303.9" font-family="Arial" font-size="14.00" fill="#000000">organizationId    </text>
<text text-anchor="start" x="654.1206" y="-1303.9" font-family="Arial" font-size="14.00" fill="#666666">[int]</text>
<polygon fill="none" stroke="#000000" points="525,-1262.5 525,-1292.5 884,-1292.5 884,-1262.5 525,-1262.5"/>
<text text-anchor="start" x="532" y="-1273.9" font-family="Arial" font-size="14.00" fill="#000000">invoiceId    </text>
<text text-anchor="start" x="621.439" y="-1273.9" font-family="Arial" font-size="14.00" fill="#666666">[int]</text>
<polygon fill="none" stroke="#000000" points="525,-1232.5 525,-1262.5 884,-1262.5 884,-1232.5 525,-1232.5"/>
<text text-anchor="start" x="532" y="-1243.9" font-family="Arial" font-size="14.00" fill="#000000">createdAt    </text>
<text text-anchor="start" x="626.1136" y="-1243.9" font-family="Arial" font-size="14.00" fill="#666666">[timestamp]</text>
<polygon fill="none" stroke="#000000" points="525,-1202.5 525,-1232.5 884,-1232.5 884,-1202.5 525,-1202.5"/>
<text text-anchor="start" x="532" y="-1213.9" font-family="Arial" font-size="14.00" fill="#000000">updatedAt    </text>
<text text-anchor="start" x="630.0182" y="-1213.9" font-family="Arial" font-size="14.00" fill="#666666">[timestamp]</text>
</g>
<!-- user_organization_invoices&#45;&gt;invoices -->
<g id="edge2" class="edge">
<title>user_organization_invoices:invoiceId&#45;&gt;invoices:id</title>
<path fill="none" stroke="#000000" stroke-dasharray="5,2" d="M514.6937,-1276.377C477.1819,-1267.1972 504.3856,-1203.7312 525,-1160 544.654,-1118.3063 585.346,-1135.6937 605,-1094 623.2874,-1055.2053 647.8889,-997.5 605,-997.5"/>
<polygon fill="#000000" stroke="#000000" points="515.0588,-1276.4167 524.5125,-1281.9735 520.0294,-1276.9584 525,-1277.5 525,-1277.5 525,-1277.5 520.0294,-1276.9584 525.4875,-1273.0265 515.0588,-1276.4167 515.0588,-1276.4167"/>
<text text-anchor="start" x="503.7765" y="-1287.5" font-family="Arial" font-size="10.00" fill="#000000">n&#45;n</text>
</g>
</g>
</svg>
