<?xml version="1.0" encoding="UTF-8" standalone="no"?>
<!DOCTYPE svg PUBLIC "-//W3C//DTD SVG 1.1//EN"
 "http://www.w3.org/Graphics/SVG/1.1/DTD/svg11.dtd">
<!-- Generated by graphviz version 2.40.1 (20161225.0304)
 -->
<!-- Title: invoice_items Pages: 1 -->
<svg width="371pt" height="922pt"
 viewBox="0.00 0.00 371.43 922.00" xmlns="http://www.w3.org/2000/svg" xmlns:xlink="http://www.w3.org/1999/xlink">
<g id="graph0" class="graph" transform="scale(1 1) rotate(0) translate(4 918)">
<title>invoice_items</title>
<polygon fill="#ffffff" stroke="transparent" points="-4,4 -4,-918 367.4267,-918 367.4267,4 -4,4"/>
<!-- invoice_items -->
<g id="node1" class="node">
<title>invoice_items</title>
<polygon fill="#efefef" stroke="transparent" points="67.4267,-832.5 67.4267,-867.5 317.4267,-867.5 317.4267,-832.5 67.4267,-832.5"/>
<polygon fill="none" stroke="#000000" points="67.4267,-832.5 67.4267,-867.5 317.4267,-867.5 317.4267,-832.5 67.4267,-832.5"/>
<text text-anchor="start" x="74.1387" y="-845.3" font-family="Arial Bold" font-size="18.00" fill="#000000">invoice_items</text>
<text text-anchor="start" x="183.1467" y="-845.3" font-family="Arial" font-size="14.00" fill="#000000">    </text>
<text text-anchor="start" x="217.3515" y="-845.3" font-family="Arial" font-size="14.00" fill="#666666">[BASE TABLE]</text>
<polygon fill="none" stroke="#000000" points="67.4267,-802.5 67.4267,-832.5 317.4267,-832.5 317.4267,-802.5 67.4267,-802.5"/>
<text text-anchor="start" x="74.4267" y="-813.9" font-family="Arial" font-size="14.00" fill="#000000">id </text>
<text text-anchor="start" x="89.2065" y="-813.9" font-family="Arial" font-size="14.00" fill="#666666">[int]</text>
<polygon fill="none" stroke="#000000" points="67.4267,-772.5 67.4267,-802.5 317.4267,-802.5 317.4267,-772.5 67.4267,-772.5"/>
<text text-anchor="start" x="74.4267" y="-783.9" font-family="Arial" font-size="14.00" fill="#000000">invoiceId </text>
<text text-anchor="start" x="133.5515" y="-783.9" font-family="Arial" font-size="14.00" fill="#666666">[int]</text>
<polygon fill="none" stroke="#000000" points="67.4267,-742.5 67.4267,-772.5 317.4267,-772.5 317.4267,-742.5 67.4267,-742.5"/>
<text text-anchor="start" x="74.4267" y="-753.9" font-family="Arial" font-size="14.00" fill="#000000">name </text>
<text text-anchor="start" x="113.3257" y="-753.9" font-family="Arial" font-size="14.00" fill="#666666">[varchar(255)]</text>
<polygon fill="none" stroke="#000000" points="67.4267,-712.5 67.4267,-742.5 317.4267,-742.5 317.4267,-712.5 67.4267,-712.5"/>
<text text-anchor="start" x="74.4267" y="-723.9" font-family="Arial" font-size="14.00" fill="#000000">note </text>
<text text-anchor="start" x="105.5557" y="-723.9" font-family="Arial" font-size="14.00" fill="#666666">[varchar(255)]</text>
<polygon fill="none" stroke="#000000" points="67.4267,-682.5 67.4267,-712.5 317.4267,-712.5 317.4267,-682.5 67.4267,-682.5"/>
<text text-anchor="start" x="74.4267" y="-693.9" font-family="Arial" font-size="14.00" fill="#000000">price </text>
<text text-anchor="start" x="108.6497" y="-693.9" font-family="Arial" font-size="14.00" fill="#666666">[int]</text>
<polygon fill="none" stroke="#000000" points="67.4267,-652.5 67.4267,-682.5 317.4267,-682.5 317.4267,-652.5 67.4267,-652.5"/>
<text text-anchor="start" x="74.4267" y="-663.9" font-family="Arial" font-size="14.00" fill="#000000">createdAt </text>
<text text-anchor="start" x="138.2261" y="-663.9" font-family="Arial" font-size="14.00" fill="#666666">[timestamp]</text>
<polygon fill="none" stroke="#000000" points="67.4267,-622.5 67.4267,-652.5 317.4267,-652.5 317.4267,-622.5 67.4267,-622.5"/>
<text text-anchor="start" x="74.4267" y="-633.9" font-family="Arial" font-size="14.00" fill="#000000">updatedAt </text>
<text text-anchor="start" x="142.1307" y="-633.9" font-family="Arial" font-size="14.00" fill="#666666">[timestamp]</text>
<polygon fill="none" stroke="#000000" points="67.4267,-592.5 67.4267,-622.5 317.4267,-622.5 317.4267,-592.5 67.4267,-592.5"/>
<text text-anchor="start" x="74.4267" y="-603.9" font-family="Arial" font-size="14.00" fill="#000000">quantity </text>
<text text-anchor="start" x="127.3355" y="-603.9" font-family="Arial" font-size="14.00" fill="#666666">[int]</text>
<polygon fill="none" stroke="#000000" stroke-width="3" points="65.9267,-591.5 65.9267,-869.5 318.9267,-869.5 318.9267,-591.5 65.9267,-591.5"/>
</g>
<!-- invoices -->
<g id="node2" class="node">
<title>invoices</title>
<polygon fill="#efefef" stroke="transparent" points="71.4267,-432.5 71.4267,-467.5 312.4267,-467.5 312.4267,-432.5 71.4267,-432.5"/>
<polygon fill="none" stroke="#000000" points="71.4267,-432.5 71.4267,-467.5 312.4267,-467.5 312.4267,-432.5 71.4267,-432.5"/>
<text text-anchor="start" x="95.6392" y="-445.3" font-family="Arial Bold" font-size="18.00" fill="#000000">invoices</text>
<text text-anchor="start" x="160.6462" y="-445.3" font-family="Arial" font-size="14.00" fill="#000000">    </text>
<text text-anchor="start" x="194.851" y="-445.3" font-family="Arial" font-size="14.00" fill="#666666">[BASE TABLE]</text>
<polygon fill="none" stroke="#000000" points="71.4267,-402.5 71.4267,-432.5 312.4267,-432.5 312.4267,-402.5 71.4267,-402.5"/>
<text text-anchor="start" x="78.4267" y="-413.9" font-family="Arial" font-size="14.00" fill="#000000">id    </text>
<text text-anchor="start" x="123.5207" y="-413.9" font-family="Arial" font-size="14.00" fill="#666666">[int]</text>
<polygon fill="none" stroke="#000000" points="71.4267,-372.5 71.4267,-402.5 312.4267,-402.5 312.4267,-372.5 71.4267,-372.5"/>
<text text-anchor="start" x="78.4267" y="-383.9" font-family="Arial" font-size="14.00" fill="#000000">date    </text>
<text text-anchor="start" x="139.8699" y="-383.9" font-family="Arial" font-size="14.00" fill="#666666">[timestamp]</text>
<polygon fill="none" stroke="#000000" points="71.4267,-342.5 71.4267,-372.5 312.4267,-372.5 312.4267,-342.5 71.4267,-342.5"/>
<text text-anchor="start" x="78.4267" y="-353.9" font-family="Arial" font-size="14.00" fill="#000000">createdAt    </text>
<text text-anchor="start" x="172.5403" y="-353.9" font-family="Arial" font-size="14.00" fill="#666666">[timestamp]</text>
<polygon fill="none" stroke="#000000" points="71.4267,-312.5 71.4267,-342.5 312.4267,-342.5 312.4267,-312.5 71.4267,-312.5"/>
<text text-anchor="start" x="78.4267" y="-323.9" font-family="Arial" font-size="14.00" fill="#000000">updatedAt    </text>
<text text-anchor="start" x="176.4449" y="-323.9" font-family="Arial" font-size="14.00" fill="#666666">[timestamp]</text>
<polygon fill="none" stroke="#000000" points="71.4267,-282.5 71.4267,-312.5 312.4267,-312.5 312.4267,-282.5 71.4267,-282.5"/>
<text text-anchor="start" x="78.4267" y="-293.9" font-family="Arial" font-size="14.00" fill="#000000">organizationId    </text>
<text text-anchor="start" x="200.5473" y="-293.9" font-family="Arial" font-size="14.00" fill="#666666">[int]</text>
<polygon fill="none" stroke="#000000" points="71.4267,-252.5 71.4267,-282.5 312.4267,-282.5 312.4267,-252.5 71.4267,-252.5"/>
<text text-anchor="start" x="78.4267" y="-263.9" font-family="Arial" font-size="14.00" fill="#000000">total    </text>
<text text-anchor="start" x="139.0845" y="-263.9" font-family="Arial" font-size="14.00" fill="#666666">[int]</text>
<polygon fill="none" stroke="#000000" points="71.4267,-222.5 71.4267,-252.5 312.4267,-252.5 312.4267,-222.5 71.4267,-222.5"/>
<text text-anchor="start" x="78.4267" y="-233.9" font-family="Arial" font-size="14.00" fill="#000000">currency    </text>
<text text-anchor="start" x="166.3005" y="-233.9" font-family="Arial" font-size="14.00" fill="#666666">[enum(&#39;vnd&#39;,&#39;usd&#39;)]</text>
<polygon fill="none" stroke="#000000" points="71.4267,-192.5 71.4267,-222.5 312.4267,-222.5 312.4267,-192.5 71.4267,-192.5"/>
<text text-anchor="start" x="78.3965" y="-203.9" font-family="Arial" font-size="14.00" fill="#000000">type    </text>
<text text-anchor="start" x="139.0571" y="-203.9" font-family="Arial" font-size="14.00" fill="#666666">[enum(&#39;expense&#39;,&#39;income&#39;)]</text>
<polygon fill="none" stroke="#000000" points="71.4267,-162.5 71.4267,-192.5 312.4267,-192.5 312.4267,-162.5 71.4267,-162.5"/>
<text text-anchor="start" x="78.4267" y="-173.9" font-family="Arial" font-size="14.00" fill="#000000">projectId    </text>
<text text-anchor="start" x="166.3103" y="-173.9" font-family="Arial" font-size="14.00" fill="#666666">[int]</text>
<polygon fill="none" stroke="#000000" points="71.4267,-132.5 71.4267,-162.5 312.4267,-162.5 312.4267,-132.5 71.4267,-132.5"/>
<text text-anchor="start" x="78.4267" y="-143.9" font-family="Arial" font-size="14.00" fill="#000000">categoryId    </text>
<text text-anchor="start" x="177.9863" y="-143.9" font-family="Arial" font-size="14.00" fill="#666666">[int]</text>
<polygon fill="none" stroke="#000000" points="71.4267,-102.5 71.4267,-132.5 312.4267,-132.5 312.4267,-102.5 71.4267,-102.5"/>
<text text-anchor="start" x="78.4267" y="-113.9" font-family="Arial" font-size="14.00" fill="#000000">clientName    </text>
<text text-anchor="start" x="182.6329" y="-113.9" font-family="Arial" font-size="14.00" fill="#666666">[varchar(255)]</text>
<polygon fill="none" stroke="#000000" points="71.4267,-72.5 71.4267,-102.5 312.4267,-102.5 312.4267,-72.5 71.4267,-72.5"/>
<text text-anchor="start" x="78.4267" y="-83.9" font-family="Arial" font-size="14.00" fill="#000000">tax    </text>
<text text-anchor="start" x="131.3047" y="-83.9" font-family="Arial" font-size="14.00" fill="#666666">[int]</text>
<polygon fill="none" stroke="#000000" points="71.4267,-42.5 71.4267,-72.5 312.4267,-72.5 312.4267,-42.5 71.4267,-42.5"/>
<text text-anchor="start" x="78.4267" y="-53.9" font-family="Arial" font-size="14.00" fill="#000000">uid    </text>
<text text-anchor="start" x="131.3033" y="-53.9" font-family="Arial" font-size="14.00" fill="#666666">[varchar(255)]</text>
</g>
<!-- invoice_items&#45;&gt;invoices -->
<g id="edge1" class="edge">
<title>invoice_items:invoiceId&#45;&gt;invoices:id</title>
<path fill="none" stroke="#000000" stroke-dasharray="5,2" d="M57.2515,-786.9808C-36.9678,-776.9876 -.1256,-625.2037 67.4267,-547 139.3706,-463.7122 240.4828,-594.2878 312.4267,-511 339.5912,-479.5523 353.9823,-417.5 312.4267,-417.5"/>
<polygon fill="#000000" stroke="#000000" points="57.4397,-786.9903 67.1974,-791.9942 62.4332,-787.2452 67.4267,-787.5 67.4267,-787.5 67.4267,-787.5 62.4332,-787.2452 67.6561,-783.0058 57.4397,-786.9903 57.4397,-786.9903"/>
<text text-anchor="start" x="46.2032" y="-797.5" font-family="Arial" font-size="10.00" fill="#000000">1&#45;n</text>
</g>
</g>
</svg>
