<?xml version="1.0" encoding="UTF-8" standalone="no"?>
<!DOCTYPE svg PUBLIC "-//W3C//DTD SVG 1.1//EN"
 "http://www.w3.org/Graphics/SVG/1.1/DTD/svg11.dtd">
<!-- Generated by graphviz version 2.40.1 (20161225.0304)
 -->
<!-- Title: invoice_owners Pages: 1 -->
<svg width="608pt" height="712pt"
 viewBox="0.00 0.00 608.00 712.00" xmlns="http://www.w3.org/2000/svg" xmlns:xlink="http://www.w3.org/1999/xlink">
<g id="graph0" class="graph" transform="scale(1 1) rotate(0) translate(4 708)">
<title>invoice_owners</title>
<polygon fill="#ffffff" stroke="transparent" points="-4,4 -4,-708 604,-708 604,4 -4,4"/>
<!-- invoice_owners -->
<g id="node1" class="node">
<title>invoice_owners</title>
<polygon fill="#efefef" stroke="transparent" points="172.5,-622.5 172.5,-657.5 437.5,-657.5 437.5,-622.5 172.5,-622.5"/>
<polygon fill="none" stroke="#000000" points="172.5,-622.5 172.5,-657.5 437.5,-657.5 437.5,-622.5 172.5,-622.5"/>
<text text-anchor="start" x="179.2069" y="-635.3" font-family="Arial Bold" font-size="18.00" fill="#000000">invoice_owners</text>
<text text-anchor="start" x="303.2251" y="-635.3" font-family="Arial" font-size="14.00" fill="#000000">    </text>
<text text-anchor="start" x="337.4299" y="-635.3" font-family="Arial" font-size="14.00" fill="#666666">[BASE TABLE]</text>
<polygon fill="none" stroke="#000000" points="172.5,-592.5 172.5,-622.5 437.5,-622.5 437.5,-592.5 172.5,-592.5"/>
<text text-anchor="start" x="179.5" y="-603.9" font-family="Arial" font-size="14.00" fill="#000000">id </text>
<text text-anchor="start" x="194.2798" y="-603.9" font-family="Arial" font-size="14.00" fill="#666666">[int]</text>
<polygon fill="none" stroke="#000000" points="172.5,-562.5 172.5,-592.5 437.5,-592.5 437.5,-562.5 172.5,-562.5"/>
<text text-anchor="start" x="179.5" y="-573.9" font-family="Arial" font-size="14.00" fill="#000000">invoiceId </text>
<text text-anchor="start" x="238.6248" y="-573.9" font-family="Arial" font-size="14.00" fill="#666666">[int]</text>
<polygon fill="none" stroke="#000000" points="172.5,-532.5 172.5,-562.5 437.5,-562.5 437.5,-532.5 172.5,-532.5"/>
<text text-anchor="start" x="179.5" y="-543.9" font-family="Arial" font-size="14.00" fill="#000000">userId </text>
<text text-anchor="start" x="222.2896" y="-543.9" font-family="Arial" font-size="14.00" fill="#666666">[int]</text>
<polygon fill="none" stroke="#000000" points="172.5,-502.5 172.5,-532.5 437.5,-532.5 437.5,-502.5 172.5,-502.5"/>
<text text-anchor="start" x="179.5" y="-513.9" font-family="Arial" font-size="14.00" fill="#000000">createdAt </text>
<text text-anchor="start" x="243.2994" y="-513.9" font-family="Arial" font-size="14.00" fill="#666666">[timestamp]</text>
<polygon fill="none" stroke="#000000" points="172.5,-472.5 172.5,-502.5 437.5,-502.5 437.5,-472.5 172.5,-472.5"/>
<text text-anchor="start" x="179.5" y="-483.9" font-family="Arial" font-size="14.00" fill="#000000">updatedAt </text>
<text text-anchor="start" x="247.204" y="-483.9" font-family="Arial" font-size="14.00" fill="#666666">[timestamp]</text>
<polygon fill="none" stroke="#000000" stroke-width="3" points="170.5,-471.5 170.5,-659.5 438.5,-659.5 438.5,-471.5 170.5,-471.5"/>
</g>
<!-- invoices -->
<g id="node2" class="node">
<title>invoices</title>
<polygon fill="#efefef" stroke="transparent" points="43.5,-282.5 43.5,-317.5 258.5,-317.5 258.5,-282.5 43.5,-282.5"/>
<polygon fill="none" stroke="#000000" points="43.5,-282.5 43.5,-317.5 258.5,-317.5 258.5,-282.5 43.5,-282.5"/>
<text text-anchor="start" x="54.7125" y="-295.3" font-family="Arial Bold" font-size="18.00" fill="#000000">invoices</text>
<text text-anchor="start" x="119.7195" y="-295.3" font-family="Arial" font-size="14.00" fill="#000000">    </text>
<text text-anchor="start" x="153.9243" y="-295.3" font-family="Arial" font-size="14.00" fill="#666666">[BASE TABLE]</text>
<polygon fill="none" stroke="#000000" points="43.5,-252.5 43.5,-282.5 258.5,-282.5 258.5,-252.5 43.5,-252.5"/>
<text text-anchor="start" x="50.5" y="-263.9" font-family="Arial" font-size="14.00" fill="#000000">id    </text>
<text text-anchor="start" x="95.594" y="-263.9" font-family="Arial" font-size="14.00" fill="#666666">[int]</text>
<polygon fill="none" stroke="#000000" points="43.5,-222.5 43.5,-252.5 258.5,-252.5 258.5,-222.5 43.5,-222.5"/>
<text text-anchor="start" x="50.5" y="-233.9" font-family="Arial" font-size="14.00" fill="#000000">date    </text>
<text text-anchor="start" x="111.9432" y="-233.9" font-family="Arial" font-size="14.00" fill="#666666">[timestamp]</text>
<polygon fill="none" stroke="#000000" points="43.5,-192.5 43.5,-222.5 258.5,-222.5 258.5,-192.5 43.5,-192.5"/>
<text text-anchor="start" x="50.5" y="-203.9" font-family="Arial" font-size="14.00" fill="#000000">createdAt    </text>
<text text-anchor="start" x="144.6136" y="-203.9" font-family="Arial" font-size="14.00" fill="#666666">[timestamp]</text>
<polygon fill="none" stroke="#000000" points="43.5,-162.5 43.5,-192.5 258.5,-192.5 258.5,-162.5 43.5,-162.5"/>
<text text-anchor="start" x="50.5" y="-173.9" font-family="Arial" font-size="14.00" fill="#000000">updatedAt    </text>
<text text-anchor="start" x="148.5182" y="-173.9" font-family="Arial" font-size="14.00" fill="#666666">[timestamp]</text>
<polygon fill="none" stroke="#000000" points="43.5,-132.5 43.5,-162.5 258.5,-162.5 258.5,-132.5 43.5,-132.5"/>
<text text-anchor="start" x="50.5" y="-143.9" font-family="Arial" font-size="14.00" fill="#000000">organizationId    </text>
<text text-anchor="start" x="172.6206" y="-143.9" font-family="Arial" font-size="14.00" fill="#666666">[int]</text>
<polygon fill="none" stroke="#000000" points="43.5,-102.5 43.5,-132.5 258.5,-132.5 258.5,-102.5 43.5,-102.5"/>
<text text-anchor="start" x="50.5" y="-113.9" font-family="Arial" font-size="14.00" fill="#000000">total    </text>
<text text-anchor="start" x="111.1578" y="-113.9" font-family="Arial" font-size="14.00" fill="#666666">[int]</text>
<polygon fill="none" stroke="#000000" points="43.5,-72.5 43.5,-102.5 258.5,-102.5 258.5,-72.5 43.5,-72.5"/>
<text text-anchor="start" x="50.312" y="-83.9" font-family="Arial" font-size="14.00" fill="#000000">currency    </text>
<text text-anchor="start" x="138.1858" y="-83.9" font-family="Arial" font-size="14.00" fill="#666666">[enum(&#39;vnd&#39;,&#39;usd&#39;)]</text>
</g>
<!-- invoice_owners&#45;&gt;invoices -->
<g id="edge1" class="edge">
<title>invoice_owners:invoiceId&#45;&gt;invoices:id</title>
<path fill="none" stroke="#000000" stroke-dasharray="5,2" d="M162.4426,-576.7077C109.6684,-567.6919 144.5357,-483.7111 172.5,-427 193.8082,-383.7872 237.1918,-404.2128 258.5,-361 276.8782,-323.7293 300.0556,-267.5 258.5,-267.5"/>
<polygon fill="#000000" stroke="#000000" points="162.5309,-576.7146 172.1466,-581.9861 167.5154,-577.1073 172.5,-577.5 172.5,-577.5 172.5,-577.5 167.5154,-577.1073 172.8534,-573.0139 162.5309,-576.7146 162.5309,-576.7146"/>
<text text-anchor="start" x="151.2765" y="-587.5" font-family="Arial" font-size="10.00" fill="#000000">n&#45;1</text>
</g>
<!-- users -->
<g id="node3" class="node">
<title>users</title>
<polygon fill="#efefef" stroke="transparent" points="362.5,-312.5 362.5,-347.5 557.5,-347.5 557.5,-312.5 362.5,-312.5"/>
<polygon fill="none" stroke="#000000" points="362.5,-312.5 362.5,-347.5 557.5,-347.5 557.5,-312.5 362.5,-312.5"/>
<text text-anchor="start" x="374.2137" y="-325.3" font-family="Arial Bold" font-size="18.00" fill="#000000">users</text>
<text text-anchor="start" x="418.2183" y="-325.3" font-family="Arial" font-size="14.00" fill="#000000">    </text>
<text text-anchor="start" x="452.4231" y="-325.3" font-family="Arial" font-size="14.00" fill="#666666">[BASE TABLE]</text>
<polygon fill="none" stroke="#000000" points="362.5,-282.5 362.5,-312.5 557.5,-312.5 557.5,-282.5 362.5,-282.5"/>
<text text-anchor="start" x="369.5" y="-293.9" font-family="Arial" font-size="14.00" fill="#000000">id    </text>
<text text-anchor="start" x="414.594" y="-293.9" font-family="Arial" font-size="14.00" fill="#666666">[int]</text>
<polygon fill="none" stroke="#000000" points="362.5,-252.5 362.5,-282.5 557.5,-282.5 557.5,-252.5 362.5,-252.5"/>
<text text-anchor="start" x="369.5" y="-263.9" font-family="Arial" font-size="14.00" fill="#000000">name    </text>
<text text-anchor="start" x="438.7132" y="-263.9" font-family="Arial" font-size="14.00" fill="#666666">[varchar(255)]</text>
<polygon fill="none" stroke="#000000" points="362.5,-222.5 362.5,-252.5 557.5,-252.5 557.5,-222.5 362.5,-222.5"/>
<text text-anchor="start" x="369.5" y="-233.9" font-family="Arial" font-size="14.00" fill="#000000">email    </text>
<text text-anchor="start" x="437.1438" y="-233.9" font-family="Arial" font-size="14.00" fill="#666666">[varchar(255)]</text>
<polygon fill="none" stroke="#000000" points="362.5,-192.5 362.5,-222.5 557.5,-222.5 557.5,-192.5 362.5,-192.5"/>
<text text-anchor="start" x="369.3892" y="-203.9" font-family="Arial" font-size="14.00" fill="#000000">password    </text>
<text text-anchor="start" x="463.4916" y="-203.9" font-family="Arial" font-size="14.00" fill="#666666">[varchar(255)]</text>
<polygon fill="none" stroke="#000000" points="362.5,-162.5 362.5,-192.5 557.5,-192.5 557.5,-162.5 362.5,-162.5"/>
<text text-anchor="start" x="369.5" y="-173.9" font-family="Arial" font-size="14.00" fill="#000000">createdAt    </text>
<text text-anchor="start" x="463.6136" y="-173.9" font-family="Arial" font-size="14.00" fill="#666666">[timestamp]</text>
<polygon fill="none" stroke="#000000" points="362.5,-132.5 362.5,-162.5 557.5,-162.5 557.5,-132.5 362.5,-132.5"/>
<text text-anchor="start" x="369.5" y="-143.9" font-family="Arial" font-size="14.00" fill="#000000">updatedAt    </text>
<text text-anchor="start" x="467.5182" y="-143.9" font-family="Arial" font-size="14.00" fill="#666666">[timestamp]</text>
<polygon fill="none" stroke="#000000" points="362.5,-102.5 362.5,-132.5 557.5,-132.5 557.5,-102.5 362.5,-102.5"/>
<text text-anchor="start" x="369.5" y="-113.9" font-family="Arial" font-size="14.00" fill="#000000">phone    </text>
<text text-anchor="start" x="442.6178" y="-113.9" font-family="Arial" font-size="14.00" fill="#666666">[varchar(255)]</text>
<polygon fill="none" stroke="#000000" points="362.5,-72.5 362.5,-102.5 557.5,-102.5 557.5,-72.5 362.5,-72.5"/>
<text text-anchor="start" x="369.5" y="-83.9" font-family="Arial" font-size="14.00" fill="#000000">address    </text>
<text text-anchor="start" x="453.4958" y="-83.9" font-family="Arial" font-size="14.00" fill="#666666">[varchar(255)]</text>
<polygon fill="none" stroke="#000000" points="362.5,-42.5 362.5,-72.5 557.5,-72.5 557.5,-42.5 362.5,-42.5"/>
<text text-anchor="start" x="369.5" y="-53.9" font-family="Arial" font-size="14.00" fill="#000000">avatar    </text>
<text text-anchor="start" x="442.6038" y="-53.9" font-family="Arial" font-size="14.00" fill="#666666">[varchar(255)]</text>
</g>
<!-- invoice_owners&#45;&gt;users -->
<g id="edge2" class="edge">
<title>invoice_owners:userId&#45;&gt;users:id</title>
<path fill="none" stroke="#000000" stroke-dasharray="5,2" d="M447.6574,-546.4216C487.518,-537.0766 464.0168,-469.1414 437.5,-427 417.8084,-395.7054 382.1916,-422.2946 362.5,-391 340.3686,-355.8281 320.9444,-297.5 362.5,-297.5"/>
<polygon fill="#000000" stroke="#000000" points="447.4441,-546.4442 437.0249,-543.0251 442.4721,-546.9721 437.5,-547.5 437.5,-547.5 437.5,-547.5 442.4721,-546.9721 437.9751,-551.9749 447.4441,-546.4442 447.4441,-546.4442"/>
<text text-anchor="start" x="416.2765" y="-557.5" font-family="Arial" font-size="10.00" fill="#000000">n&#45;1</text>
</g>
</g>
</svg>
