<?xml version="1.0" encoding="UTF-8" standalone="no"?>
<!DOCTYPE svg PUBLIC "-//W3C//DTD SVG 1.1//EN"
 "http://www.w3.org/Graphics/SVG/1.1/DTD/svg11.dtd">
<!-- Generated by graphviz version 2.40.1 (20161225.0304)
 -->
<!-- Title: organizations Pages: 1 -->
<svg width="2884pt" height="922pt"
 viewBox="0.00 0.00 2883.50 922.00" xmlns="http://www.w3.org/2000/svg" xmlns:xlink="http://www.w3.org/1999/xlink">
<g id="graph0" class="graph" transform="scale(1 1) rotate(0) translate(4 918)">
<title>organizations</title>
<polygon fill="#ffffff" stroke="transparent" points="-4,4 -4,-918 2879.5,-918 2879.5,4 -4,4"/>
<!-- organizations -->
<g id="node1" class="node">
<title>organizations</title>
<polygon fill="#efefef" stroke="transparent" points="1365,-255.5 1365,-290.5 1613,-290.5 1613,-255.5 1365,-255.5"/>
<polygon fill="none" stroke="#000000" points="1365,-255.5 1365,-290.5 1613,-290.5 1613,-255.5 1365,-255.5"/>
<text text-anchor="start" x="1371.7029" y="-268.3" font-family="Arial Bold" font-size="18.00" fill="#000000">organizations</text>
<text text-anchor="start" x="1478.7291" y="-268.3" font-family="Arial" font-size="14.00" fill="#000000">    </text>
<text text-anchor="start" x="1512.9339" y="-268.3" font-family="Arial" font-size="14.00" fill="#666666">[BASE TABLE]</text>
<polygon fill="none" stroke="#000000" points="1365,-225.5 1365,-255.5 1613,-255.5 1613,-225.5 1365,-225.5"/>
<text text-anchor="start" x="1372" y="-236.9" font-family="Arial" font-size="14.00" fill="#000000">id </text>
<text text-anchor="start" x="1386.7798" y="-236.9" font-family="Arial" font-size="14.00" fill="#666666">[int]</text>
<polygon fill="none" stroke="#000000" points="1365,-195.5 1365,-225.5 1613,-225.5 1613,-195.5 1365,-195.5"/>
<text text-anchor="start" x="1372" y="-206.9" font-family="Arial" font-size="14.00" fill="#000000">name </text>
<text text-anchor="start" x="1410.899" y="-206.9" font-family="Arial" font-size="14.00" fill="#666666">[varchar(255)]</text>
<polygon fill="none" stroke="#000000" points="1365,-165.5 1365,-195.5 1613,-195.5 1613,-165.5 1365,-165.5"/>
<text text-anchor="start" x="1372" y="-176.9" font-family="Arial" font-size="14.00" fill="#000000">uniqueName </text>
<text text-anchor="start" x="1455.2426" y="-176.9" font-family="Arial" font-size="14.00" fill="#666666">[varchar(255)]</text>
<polygon fill="none" stroke="#000000" points="1365,-135.5 1365,-165.5 1613,-165.5 1613,-135.5 1365,-135.5"/>
<text text-anchor="start" x="1372" y="-146.9" font-family="Arial" font-size="14.00" fill="#000000">createdAt </text>
<text text-anchor="start" x="1435.7994" y="-146.9" font-family="Arial" font-size="14.00" fill="#666666">[timestamp]</text>
<polygon fill="none" stroke="#000000" points="1365,-105.5 1365,-135.5 1613,-135.5 1613,-105.5 1365,-105.5"/>
<text text-anchor="start" x="1372" y="-116.9" font-family="Arial" font-size="14.00" fill="#000000">updatedAt </text>
<text text-anchor="start" x="1439.704" y="-116.9" font-family="Arial" font-size="14.00" fill="#666666">[timestamp]</text>
<polygon fill="none" stroke="#000000" points="1365,-75.5 1365,-105.5 1613,-105.5 1613,-75.5 1365,-75.5"/>
<text text-anchor="start" x="1372" y="-86.9" font-family="Arial" font-size="14.00" fill="#000000">phone </text>
<text text-anchor="start" x="1414.8036" y="-86.9" font-family="Arial" font-size="14.00" fill="#666666">[varchar(255)]</text>
<polygon fill="none" stroke="#000000" points="1365,-45.5 1365,-75.5 1613,-75.5 1613,-45.5 1365,-45.5"/>
<text text-anchor="start" x="1372" y="-56.9" font-family="Arial" font-size="14.00" fill="#000000">address </text>
<text text-anchor="start" x="1425.6816" y="-56.9" font-family="Arial" font-size="14.00" fill="#666666">[varchar(255)]</text>
<polygon fill="none" stroke="#000000" stroke-width="3" points="1363.5,-44.5 1363.5,-292.5 1614.5,-292.5 1614.5,-44.5 1363.5,-44.5"/>
</g>
<!-- roles -->
<g id="node2" class="node">
<title>roles</title>
<polygon fill="#efefef" stroke="transparent" points="43,-715.5 43,-750.5 227,-750.5 227,-715.5 43,-715.5"/>
<polygon fill="none" stroke="#000000" points="43,-715.5 43,-750.5 227,-750.5 227,-715.5 43,-715.5"/>
<text text-anchor="start" x="51.7166" y="-728.3" font-family="Arial Bold" font-size="18.00" fill="#000000">roles</text>
<text text-anchor="start" x="90.7154" y="-728.3" font-family="Arial" font-size="14.00" fill="#000000">    </text>
<text text-anchor="start" x="124.9202" y="-728.3" font-family="Arial" font-size="14.00" fill="#666666">[BASE TABLE]</text>
<polygon fill="none" stroke="#000000" points="43,-685.5 43,-715.5 227,-715.5 227,-685.5 43,-685.5"/>
<text text-anchor="start" x="50" y="-696.9" font-family="Arial" font-size="14.00" fill="#000000">id    </text>
<text text-anchor="start" x="95.094" y="-696.9" font-family="Arial" font-size="14.00" fill="#666666">[int]</text>
<polygon fill="none" stroke="#000000" points="43,-655.5 43,-685.5 227,-685.5 227,-655.5 43,-655.5"/>
<text text-anchor="start" x="50" y="-666.9" font-family="Arial" font-size="14.00" fill="#000000">name    </text>
<text text-anchor="start" x="119.2132" y="-666.9" font-family="Arial" font-size="14.00" fill="#666666">[varchar(255)]</text>
<polygon fill="none" stroke="#000000" points="43,-625.5 43,-655.5 227,-655.5 227,-625.5 43,-625.5"/>
<text text-anchor="start" x="50" y="-636.9" font-family="Arial" font-size="14.00" fill="#000000">slug    </text>
<text text-anchor="start" x="109.8766" y="-636.9" font-family="Arial" font-size="14.00" fill="#666666">[varchar(255)]</text>
<polygon fill="none" stroke="#000000" points="43,-595.5 43,-625.5 227,-625.5 227,-595.5 43,-595.5"/>
<text text-anchor="start" x="50" y="-606.9" font-family="Arial" font-size="14.00" fill="#000000">createdAt    </text>
<text text-anchor="start" x="144.1136" y="-606.9" font-family="Arial" font-size="14.00" fill="#666666">[timestamp]</text>
<polygon fill="none" stroke="#000000" points="43,-565.5 43,-595.5 227,-595.5 227,-565.5 43,-565.5"/>
<text text-anchor="start" x="49.8219" y="-576.9" font-family="Arial" font-size="14.00" fill="#000000">updatedAt    </text>
<text text-anchor="start" x="147.8401" y="-576.9" font-family="Arial" font-size="14.00" fill="#666666">[timestamp]</text>
<polygon fill="none" stroke="#000000" points="43,-535.5 43,-565.5 227,-565.5 227,-535.5 43,-535.5"/>
<text text-anchor="start" x="50" y="-546.9" font-family="Arial" font-size="14.00" fill="#000000">organizationId    </text>
<text text-anchor="start" x="172.1206" y="-546.9" font-family="Arial" font-size="14.00" fill="#666666">[int]</text>
</g>
<!-- roles&#45;&gt;organizations -->
<g id="edge1" class="edge">
<title>roles:organizationId&#45;&gt;organizations:id</title>
<path fill="none" stroke="#000000" stroke-dasharray="5,2" d="M237.0483,-549.7651C301.1732,-539.4745 219.1339,-423.7951 279,-373 371.692,-294.3528 1243.4385,-240.5 1365,-240.5"/>
<polygon fill="#000000" stroke="#000000" points="236.9734,-549.7705 226.6717,-546.012 231.9867,-550.1353 227,-550.5 227,-550.5 227,-550.5 231.9867,-550.1353 227.3283,-554.988 236.9734,-549.7705 236.9734,-549.7705"/>
<text text-anchor="start" x="205.7765" y="-560.5" font-family="Arial" font-size="10.00" fill="#000000">1&#45;n</text>
</g>
<!-- user_organization_roles -->
<g id="node3" class="node">
<title>user_organization_roles</title>
<polygon fill="#efefef" stroke="transparent" points="332,-715.5 332,-750.5 665,-750.5 665,-715.5 332,-715.5"/>
<polygon fill="none" stroke="#000000" points="332,-715.5 332,-750.5 665,-750.5 665,-715.5 332,-715.5"/>
<text text-anchor="start" x="338.695" y="-728.3" font-family="Arial Bold" font-size="18.00" fill="#000000">user_organization_roles</text>
<text text-anchor="start" x="530.737" y="-728.3" font-family="Arial" font-size="14.00" fill="#000000">    </text>
<text text-anchor="start" x="564.9418" y="-728.3" font-family="Arial" font-size="14.00" fill="#666666">[BASE TABLE]</text>
<polygon fill="none" stroke="#000000" points="332,-685.5 332,-715.5 665,-715.5 665,-685.5 332,-685.5"/>
<text text-anchor="start" x="339" y="-696.9" font-family="Arial" font-size="14.00" fill="#000000">id    </text>
<text text-anchor="start" x="384.094" y="-696.9" font-family="Arial" font-size="14.00" fill="#666666">[int]</text>
<polygon fill="none" stroke="#000000" points="332,-655.5 332,-685.5 665,-685.5 665,-655.5 332,-655.5"/>
<text text-anchor="start" x="339" y="-666.9" font-family="Arial" font-size="14.00" fill="#000000">userId    </text>
<text text-anchor="start" x="412.1038" y="-666.9" font-family="Arial" font-size="14.00" fill="#666666">[int]</text>
<polygon fill="none" stroke="#000000" points="332,-625.5 332,-655.5 665,-655.5 665,-625.5 332,-625.5"/>
<text text-anchor="start" x="339" y="-636.9" font-family="Arial" font-size="14.00" fill="#000000">organizationId    </text>
<text text-anchor="start" x="461.1206" y="-636.9" font-family="Arial" font-size="14.00" fill="#666666">[int]</text>
<polygon fill="none" stroke="#000000" points="332,-595.5 332,-625.5 665,-625.5 665,-595.5 332,-595.5"/>
<text text-anchor="start" x="339" y="-606.9" font-family="Arial" font-size="14.00" fill="#000000">roleId    </text>
<text text-anchor="start" x="408.2104" y="-606.9" font-family="Arial" font-size="14.00" fill="#666666">[int]</text>
<polygon fill="none" stroke="#000000" points="332,-565.5 332,-595.5 665,-595.5 665,-565.5 332,-565.5"/>
<text text-anchor="start" x="339" y="-576.9" font-family="Arial" font-size="14.00" fill="#000000">createdAt    </text>
<text text-anchor="start" x="433.1136" y="-576.9" font-family="Arial" font-size="14.00" fill="#666666">[timestamp]</text>
<polygon fill="none" stroke="#000000" points="332,-535.5 332,-565.5 665,-565.5 665,-535.5 332,-535.5"/>
<text text-anchor="start" x="339" y="-546.9" font-family="Arial" font-size="14.00" fill="#000000">updatedAt    </text>
<text text-anchor="start" x="437.0182" y="-546.9" font-family="Arial" font-size="14.00" fill="#666666">[timestamp]</text>
</g>
<!-- user_organization_roles&#45;&gt;organizations -->
<g id="edge2" class="edge">
<title>user_organization_roles:organizationId&#45;&gt;organizations:id</title>
<path fill="none" stroke="#000000" stroke-dasharray="5,2" d="M675.2473,-640.009C776.8624,-629.6062 633.5506,-456.5282 716,-373 819.4055,-268.2415 1217.8028,-240.5 1365,-240.5"/>
<polygon fill="#000000" stroke="#000000" points="674.9885,-640.0213 664.7846,-636.0052 669.9943,-640.2607 665,-640.5 665,-640.5 665,-640.5 669.9943,-640.2607 665.2154,-644.9948 674.9885,-640.0213 674.9885,-640.0213"/>
<text text-anchor="start" x="643.7765" y="-650.5" font-family="Arial" font-size="10.00" fill="#000000">1&#45;n</text>
</g>
<!-- user_organizations -->
<g id="node4" class="node">
<title>user_organizations</title>
<polygon fill="#efefef" stroke="transparent" points="769,-700.5 769,-735.5 1062,-735.5 1062,-700.5 769,-700.5"/>
<polygon fill="none" stroke="#000000" points="769,-700.5 769,-735.5 1062,-735.5 1062,-700.5 769,-700.5"/>
<text text-anchor="start" x="775.6975" y="-713.3" font-family="Arial Bold" font-size="18.00" fill="#000000">user_organizations</text>
<text text-anchor="start" x="927.7345" y="-713.3" font-family="Arial" font-size="14.00" fill="#000000">    </text>
<text text-anchor="start" x="961.9393" y="-713.3" font-family="Arial" font-size="14.00" fill="#666666">[BASE TABLE]</text>
<polygon fill="none" stroke="#000000" points="769,-670.5 769,-700.5 1062,-700.5 1062,-670.5 769,-670.5"/>
<text text-anchor="start" x="776" y="-681.9" font-family="Arial" font-size="14.00" fill="#000000">id    </text>
<text text-anchor="start" x="821.094" y="-681.9" font-family="Arial" font-size="14.00" fill="#666666">[int]</text>
<polygon fill="none" stroke="#000000" points="769,-640.5 769,-670.5 1062,-670.5 1062,-640.5 769,-640.5"/>
<text text-anchor="start" x="776" y="-651.9" font-family="Arial" font-size="14.00" fill="#000000">userId    </text>
<text text-anchor="start" x="849.1038" y="-651.9" font-family="Arial" font-size="14.00" fill="#666666">[int]</text>
<polygon fill="none" stroke="#000000" points="769,-610.5 769,-640.5 1062,-640.5 1062,-610.5 769,-610.5"/>
<text text-anchor="start" x="776" y="-621.9" font-family="Arial" font-size="14.00" fill="#000000">organizationId    </text>
<text text-anchor="start" x="898.1206" y="-621.9" font-family="Arial" font-size="14.00" fill="#666666">[int]</text>
<polygon fill="none" stroke="#000000" points="769,-580.5 769,-610.5 1062,-610.5 1062,-580.5 769,-580.5"/>
<text text-anchor="start" x="776" y="-591.9" font-family="Arial" font-size="14.00" fill="#000000">createdAt    </text>
<text text-anchor="start" x="870.1136" y="-591.9" font-family="Arial" font-size="14.00" fill="#666666">[timestamp]</text>
<polygon fill="none" stroke="#000000" points="769,-550.5 769,-580.5 1062,-580.5 1062,-550.5 769,-550.5"/>
<text text-anchor="start" x="776" y="-561.9" font-family="Arial" font-size="14.00" fill="#000000">updatedAt    </text>
<text text-anchor="start" x="874.0182" y="-561.9" font-family="Arial" font-size="14.00" fill="#666666">[timestamp]</text>
</g>
<!-- user_organizations&#45;&gt;organizations -->
<g id="edge3" class="edge">
<title>user_organizations:organizationId&#45;&gt;organizations:id</title>
<path fill="none" stroke="#000000" stroke-dasharray="5,2" d="M1072.0244,-625.0357C1168.426,-615.5129 1046.4969,-461.761 1113,-373 1188.8735,-271.7324 1238.4619,-240.5 1365,-240.5"/>
<polygon fill="#000000" stroke="#000000" points="1071.9893,-625.0372 1061.7918,-621.0048 1066.9946,-625.2686 1062,-625.5 1062,-625.5 1062,-625.5 1066.9946,-625.2686 1062.2082,-629.9952 1071.9893,-625.0372 1071.9893,-625.0372"/>
<text text-anchor="start" x="1040.7765" y="-635.5" font-family="Arial" font-size="10.00" fill="#000000">1&#45;n</text>
</g>
<!-- invoices -->
<g id="node5" class="node">
<title>invoices</title>
<polygon fill="#efefef" stroke="transparent" points="1166,-835.5 1166,-870.5 1407,-870.5 1407,-835.5 1166,-835.5"/>
<polygon fill="none" stroke="#000000" points="1166,-835.5 1166,-870.5 1407,-870.5 1407,-835.5 1166,-835.5"/>
<text text-anchor="start" x="1190.2125" y="-848.3" font-family="Arial Bold" font-size="18.00" fill="#000000">invoices</text>
<text text-anchor="start" x="1255.2195" y="-848.3" font-family="Arial" font-size="14.00" fill="#000000">    </text>
<text text-anchor="start" x="1289.4243" y="-848.3" font-family="Arial" font-size="14.00" fill="#666666">[BASE TABLE]</text>
<polygon fill="none" stroke="#000000" points="1166,-805.5 1166,-835.5 1407,-835.5 1407,-805.5 1166,-805.5"/>
<text text-anchor="start" x="1173" y="-816.9" font-family="Arial" font-size="14.00" fill="#000000">id    </text>
<text text-anchor="start" x="1218.094" y="-816.9" font-family="Arial" font-size="14.00" fill="#666666">[int]</text>
<polygon fill="none" stroke="#000000" points="1166,-775.5 1166,-805.5 1407,-805.5 1407,-775.5 1166,-775.5"/>
<text text-anchor="start" x="1173" y="-786.9" font-family="Arial" font-size="14.00" fill="#000000">date    </text>
<text text-anchor="start" x="1234.4432" y="-786.9" font-family="Arial" font-size="14.00" fill="#666666">[timestamp]</text>
<polygon fill="none" stroke="#000000" points="1166,-745.5 1166,-775.5 1407,-775.5 1407,-745.5 1166,-745.5"/>
<text text-anchor="start" x="1173" y="-756.9" font-family="Arial" font-size="14.00" fill="#000000">createdAt    </text>
<text text-anchor="start" x="1267.1136" y="-756.9" font-family="Arial" font-size="14.00" fill="#666666">[timestamp]</text>
<polygon fill="none" stroke="#000000" points="1166,-715.5 1166,-745.5 1407,-745.5 1407,-715.5 1166,-715.5"/>
<text text-anchor="start" x="1173" y="-726.9" font-family="Arial" font-size="14.00" fill="#000000">updatedAt    </text>
<text text-anchor="start" x="1271.0182" y="-726.9" font-family="Arial" font-size="14.00" fill="#666666">[timestamp]</text>
<polygon fill="none" stroke="#000000" points="1166,-685.5 1166,-715.5 1407,-715.5 1407,-685.5 1166,-685.5"/>
<text text-anchor="start" x="1173" y="-696.9" font-family="Arial" font-size="14.00" fill="#000000">organizationId    </text>
<text text-anchor="start" x="1295.1206" y="-696.9" font-family="Arial" font-size="14.00" fill="#666666">[int]</text>
<polygon fill="none" stroke="#000000" points="1166,-655.5 1166,-685.5 1407,-685.5 1407,-655.5 1166,-655.5"/>
<text text-anchor="start" x="1173" y="-666.9" font-family="Arial" font-size="14.00" fill="#000000">total    </text>
<text text-anchor="start" x="1233.6578" y="-666.9" font-family="Arial" font-size="14.00" fill="#666666">[int]</text>
<polygon fill="none" stroke="#000000" points="1166,-625.5 1166,-655.5 1407,-655.5 1407,-625.5 1166,-625.5"/>
<text text-anchor="start" x="1173" y="-636.9" font-family="Arial" font-size="14.00" fill="#000000">currency    </text>
<text text-anchor="start" x="1260.8738" y="-636.9" font-family="Arial" font-size="14.00" fill="#666666">[enum(&#39;vnd&#39;,&#39;usd&#39;)]</text>
<polygon fill="none" stroke="#000000" points="1166,-595.5 1166,-625.5 1407,-625.5 1407,-595.5 1166,-595.5"/>
<text text-anchor="start" x="1172.9698" y="-606.9" font-family="Arial" font-size="14.00" fill="#000000">type    </text>
<text text-anchor="start" x="1233.6304" y="-606.9" font-family="Arial" font-size="14.00" fill="#666666">[enum(&#39;expense&#39;,&#39;income&#39;)]</text>
<polygon fill="none" stroke="#000000" points="1166,-565.5 1166,-595.5 1407,-595.5 1407,-565.5 1166,-565.5"/>
<text text-anchor="start" x="1173" y="-576.9" font-family="Arial" font-size="14.00" fill="#000000">projectId    </text>
<text text-anchor="start" x="1260.8836" y="-576.9" font-family="Arial" font-size="14.00" fill="#666666">[int]</text>
<polygon fill="none" stroke="#000000" points="1166,-535.5 1166,-565.5 1407,-565.5 1407,-535.5 1166,-535.5"/>
<text text-anchor="start" x="1173" y="-546.9" font-family="Arial" font-size="14.00" fill="#000000">categoryId    </text>
<text text-anchor="start" x="1272.5596" y="-546.9" font-family="Arial" font-size="14.00" fill="#666666">[int]</text>
<polygon fill="none" stroke="#000000" points="1166,-505.5 1166,-535.5 1407,-535.5 1407,-505.5 1166,-505.5"/>
<text text-anchor="start" x="1173" y="-516.9" font-family="Arial" font-size="14.00" fill="#000000">clientName    </text>
<text text-anchor="start" x="1277.2062" y="-516.9" font-family="Arial" font-size="14.00" fill="#666666">[varchar(255)]</text>
<polygon fill="none" stroke="#000000" points="1166,-475.5 1166,-505.5 1407,-505.5 1407,-475.5 1166,-475.5"/>
<text text-anchor="start" x="1173" y="-486.9" font-family="Arial" font-size="14.00" fill="#000000">tax    </text>
<text text-anchor="start" x="1225.878" y="-486.9" font-family="Arial" font-size="14.00" fill="#666666">[int]</text>
<polygon fill="none" stroke="#000000" points="1166,-445.5 1166,-475.5 1407,-475.5 1407,-445.5 1166,-445.5"/>
<text text-anchor="start" x="1173" y="-456.9" font-family="Arial" font-size="14.00" fill="#000000">uid    </text>
<text text-anchor="start" x="1225.8766" y="-456.9" font-family="Arial" font-size="14.00" fill="#666666">[varchar(255)]</text>
<polygon fill="none" stroke="#000000" points="1166,-415.5 1166,-445.5 1407,-445.5 1407,-415.5 1166,-415.5"/>
<text text-anchor="start" x="1173" y="-426.9" font-family="Arial" font-size="14.00" fill="#000000">exchangeRate    </text>
<text text-anchor="start" x="1297.4628" y="-426.9" font-family="Arial" font-size="14.00" fill="#666666">[decimal(10,0)]</text>
</g>
<!-- invoices&#45;&gt;organizations -->
<g id="edge4" class="edge">
<title>invoices:organizationId&#45;&gt;organizations:id</title>
<path fill="none" stroke="#000000" stroke-dasharray="5,2" d="M1416.852,-698.6836C1475.6689,-675.4401 1435.9258,-435.8911 1407,-373 1396.7268,-350.6638 1375.2732,-359.3362 1365,-337 1347.0786,-298.0349 1322.1111,-240.5 1365,-240.5"/>
<polygon fill="#000000" stroke="#000000" points="1416.8343,-698.6868 1406.1841,-696.0746 1411.9171,-699.5934 1407,-700.5 1407,-700.5 1407,-700.5 1411.9171,-699.5934 1407.8159,-704.9254 1416.8343,-698.6868 1416.8343,-698.6868"/>
<text text-anchor="start" x="1385.7765" y="-710.5" font-family="Arial" font-size="10.00" fill="#000000">1&#45;n</text>
</g>
<!-- user_organization_invoices -->
<g id="node6" class="node">
<title>user_organization_invoices</title>
<polygon fill="#efefef" stroke="transparent" points="1511,-715.5 1511,-750.5 1870,-750.5 1870,-715.5 1511,-715.5"/>
<polygon fill="none" stroke="#000000" points="1511,-715.5 1511,-750.5 1870,-750.5 1870,-715.5 1511,-715.5"/>
<text text-anchor="start" x="1517.6909" y="-728.3" font-family="Arial Bold" font-size="18.00" fill="#000000">user_organization_invoices</text>
<text text-anchor="start" x="1735.7411" y="-728.3" font-family="Arial" font-size="14.00" fill="#000000">    </text>
<text text-anchor="start" x="1769.9459" y="-728.3" font-family="Arial" font-size="14.00" fill="#666666">[BASE TABLE]</text>
<polygon fill="none" stroke="#000000" points="1511,-685.5 1511,-715.5 1870,-715.5 1870,-685.5 1511,-685.5"/>
<text text-anchor="start" x="1518" y="-696.9" font-family="Arial" font-size="14.00" fill="#000000">id    </text>
<text text-anchor="start" x="1563.094" y="-696.9" font-family="Arial" font-size="14.00" fill="#666666">[int]</text>
<polygon fill="none" stroke="#000000" points="1511,-655.5 1511,-685.5 1870,-685.5 1870,-655.5 1511,-655.5"/>
<text text-anchor="start" x="1518" y="-666.9" font-family="Arial" font-size="14.00" fill="#000000">userId    </text>
<text text-anchor="start" x="1591.1038" y="-666.9" font-family="Arial" font-size="14.00" fill="#666666">[int]</text>
<polygon fill="none" stroke="#000000" points="1511,-625.5 1511,-655.5 1870,-655.5 1870,-625.5 1511,-625.5"/>
<text text-anchor="start" x="1518" y="-636.9" font-family="Arial" font-size="14.00" fill="#000000">organizationId    </text>
<text text-anchor="start" x="1640.1206" y="-636.9" font-family="Arial" font-size="14.00" fill="#666666">[int]</text>
<polygon fill="none" stroke="#000000" points="1511,-595.5 1511,-625.5 1870,-625.5 1870,-595.5 1511,-595.5"/>
<text text-anchor="start" x="1518" y="-606.9" font-family="Arial" font-size="14.00" fill="#000000">invoiceId    </text>
<text text-anchor="start" x="1607.439" y="-606.9" font-family="Arial" font-size="14.00" fill="#666666">[int]</text>
<polygon fill="none" stroke="#000000" points="1511,-565.5 1511,-595.5 1870,-595.5 1870,-565.5 1511,-565.5"/>
<text text-anchor="start" x="1518" y="-576.9" font-family="Arial" font-size="14.00" fill="#000000">createdAt    </text>
<text text-anchor="start" x="1612.1136" y="-576.9" font-family="Arial" font-size="14.00" fill="#666666">[timestamp]</text>
<polygon fill="none" stroke="#000000" points="1511,-535.5 1511,-565.5 1870,-565.5 1870,-535.5 1511,-535.5"/>
<text text-anchor="start" x="1518" y="-546.9" font-family="Arial" font-size="14.00" fill="#000000">updatedAt    </text>
<text text-anchor="start" x="1616.0182" y="-546.9" font-family="Arial" font-size="14.00" fill="#666666">[timestamp]</text>
</g>
<!-- user_organization_invoices&#45;&gt;organizations -->
<g id="edge5" class="edge">
<title>user_organization_invoices:organizationId&#45;&gt;organizations:id</title>
<path fill="none" stroke="#000000" stroke-dasharray="5,2" d="M1500.9169,-639.7044C1450.6602,-630.9782 1493.3434,-552.2683 1511,-493 1534.6511,-413.6095 1589.3489,-416.3905 1613,-337 1625.2451,-295.8963 1655.8889,-240.5 1613,-240.5"/>
<polygon fill="#000000" stroke="#000000" points="1501.031,-639.7133 1510.646,-644.9861 1506.0155,-640.1067 1511,-640.5 1511,-640.5 1511,-640.5 1506.0155,-640.1067 1511.354,-636.0139 1501.031,-639.7133 1501.031,-639.7133"/>
<text text-anchor="start" x="1489.7765" y="-650.5" font-family="Arial" font-size="10.00" fill="#000000">1&#45;n</text>
</g>
<!-- projects -->
<g id="node7" class="node">
<title>projects</title>
<polygon fill="#efefef" stroke="transparent" points="1974,-775.5 1974,-810.5 2178,-810.5 2178,-775.5 1974,-775.5"/>
<polygon fill="none" stroke="#000000" points="1974,-775.5 1974,-810.5 2178,-810.5 2178,-775.5 1974,-775.5"/>
<text text-anchor="start" x="1980.7124" y="-788.3" font-family="Arial Bold" font-size="18.00" fill="#000000">projects</text>
<text text-anchor="start" x="2043.7196" y="-788.3" font-family="Arial" font-size="14.00" fill="#000000">    </text>
<text text-anchor="start" x="2077.9244" y="-788.3" font-family="Arial" font-size="14.00" fill="#666666">[BASE TABLE]</text>
<polygon fill="none" stroke="#000000" points="1974,-745.5 1974,-775.5 2178,-775.5 2178,-745.5 1974,-745.5"/>
<text text-anchor="start" x="1981" y="-756.9" font-family="Arial" font-size="14.00" fill="#000000">id    </text>
<text text-anchor="start" x="2026.094" y="-756.9" font-family="Arial" font-size="14.00" fill="#666666">[int]</text>
<polygon fill="none" stroke="#000000" points="1974,-715.5 1974,-745.5 2178,-745.5 2178,-715.5 1974,-715.5"/>
<text text-anchor="start" x="1981" y="-726.9" font-family="Arial" font-size="14.00" fill="#000000">name    </text>
<text text-anchor="start" x="2050.2132" y="-726.9" font-family="Arial" font-size="14.00" fill="#666666">[varchar(255)]</text>
<polygon fill="none" stroke="#000000" points="1974,-685.5 1974,-715.5 2178,-715.5 2178,-685.5 1974,-685.5"/>
<text text-anchor="start" x="1981" y="-696.9" font-family="Arial" font-size="14.00" fill="#000000">description    </text>
<text text-anchor="start" x="2082.8822" y="-696.9" font-family="Arial" font-size="14.00" fill="#666666">[varchar(255)]</text>
<polygon fill="none" stroke="#000000" points="1974,-655.5 1974,-685.5 2178,-685.5 2178,-655.5 1974,-655.5"/>
<text text-anchor="start" x="1981" y="-666.9" font-family="Arial" font-size="14.00" fill="#000000">totalBudget    </text>
<text text-anchor="start" x="2086.0154" y="-666.9" font-family="Arial" font-size="14.00" fill="#666666">[int]</text>
<polygon fill="none" stroke="#000000" points="1974,-625.5 1974,-655.5 2178,-655.5 2178,-625.5 1974,-625.5"/>
<text text-anchor="start" x="1981" y="-636.9" font-family="Arial" font-size="14.00" fill="#000000">startDate    </text>
<text text-anchor="start" x="2071.9916" y="-636.9" font-family="Arial" font-size="14.00" fill="#666666">[timestamp]</text>
<polygon fill="none" stroke="#000000" points="1974,-595.5 1974,-625.5 2178,-625.5 2178,-595.5 1974,-595.5"/>
<text text-anchor="start" x="1981" y="-606.9" font-family="Arial" font-size="14.00" fill="#000000">endDate    </text>
<text text-anchor="start" x="2068.115" y="-606.9" font-family="Arial" font-size="14.00" fill="#666666">[timestamp]</text>
<polygon fill="none" stroke="#000000" points="1974,-565.5 1974,-595.5 2178,-595.5 2178,-565.5 1974,-565.5"/>
<text text-anchor="start" x="1981" y="-576.9" font-family="Arial" font-size="14.00" fill="#000000">createdAt    </text>
<text text-anchor="start" x="2075.1136" y="-576.9" font-family="Arial" font-size="14.00" fill="#666666">[timestamp]</text>
<polygon fill="none" stroke="#000000" points="1974,-535.5 1974,-565.5 2178,-565.5 2178,-535.5 1974,-535.5"/>
<text text-anchor="start" x="1981" y="-546.9" font-family="Arial" font-size="14.00" fill="#000000">updatedAt    </text>
<text text-anchor="start" x="2079.0182" y="-546.9" font-family="Arial" font-size="14.00" fill="#666666">[timestamp]</text>
<polygon fill="none" stroke="#000000" points="1974,-505.5 1974,-535.5 2178,-535.5 2178,-505.5 1974,-505.5"/>
<text text-anchor="start" x="1981" y="-516.9" font-family="Arial" font-size="14.00" fill="#000000">organizationId    </text>
<text text-anchor="start" x="2103.1206" y="-516.9" font-family="Arial" font-size="14.00" fill="#666666">[int]</text>
<polygon fill="none" stroke="#000000" points="1974,-475.5 1974,-505.5 2178,-505.5 2178,-475.5 1974,-475.5"/>
<text text-anchor="start" x="1981" y="-486.9" font-family="Arial" font-size="14.00" fill="#000000">creatorId    </text>
<text text-anchor="start" x="2070.4376" y="-486.9" font-family="Arial" font-size="14.00" fill="#666666">[int]</text>
</g>
<!-- projects&#45;&gt;organizations -->
<g id="edge6" class="edge">
<title>projects:organizationId&#45;&gt;organizations:id</title>
<path fill="none" stroke="#000000" stroke-dasharray="5,2" d="M1963.7625,-519.6553C1911.2638,-510.0555 1966.9012,-420.9742 1922,-373 1819.8912,-263.9031 1762.4267,-240.5 1613,-240.5"/>
<polygon fill="#000000" stroke="#000000" points="1964.0339,-519.6776 1973.6299,-524.9848 1969.0169,-520.0888 1974,-520.5 1974,-520.5 1974,-520.5 1969.0169,-520.0888 1974.3701,-516.0152 1964.0339,-519.6776 1964.0339,-519.6776"/>
<text text-anchor="start" x="1952.7765" y="-530.5" font-family="Arial" font-size="10.00" fill="#000000">1&#45;n</text>
</g>
<!-- budgets -->
<g id="node8" class="node">
<title>budgets</title>
<polygon fill="#efefef" stroke="transparent" points="2283,-730.5 2283,-765.5 2488,-765.5 2488,-730.5 2283,-730.5"/>
<polygon fill="none" stroke="#000000" points="2283,-730.5 2283,-765.5 2488,-765.5 2488,-730.5 2283,-730.5"/>
<text text-anchor="start" x="2289.6994" y="-743.3" font-family="Arial Bold" font-size="18.00" fill="#000000">budgets</text>
<text text-anchor="start" x="2353.7326" y="-743.3" font-family="Arial" font-size="14.00" fill="#000000">    </text>
<text text-anchor="start" x="2387.9374" y="-743.3" font-family="Arial" font-size="14.00" fill="#666666">[BASE TABLE]</text>
<polygon fill="none" stroke="#000000" points="2283,-700.5 2283,-730.5 2488,-730.5 2488,-700.5 2283,-700.5"/>
<text text-anchor="start" x="2290" y="-711.9" font-family="Arial" font-size="14.00" fill="#000000">id    </text>
<text text-anchor="start" x="2335.094" y="-711.9" font-family="Arial" font-size="14.00" fill="#666666">[int]</text>
<polygon fill="none" stroke="#000000" points="2283,-670.5 2283,-700.5 2488,-700.5 2488,-670.5 2283,-670.5"/>
<text text-anchor="start" x="2290" y="-681.9" font-family="Arial" font-size="14.00" fill="#000000">projectId    </text>
<text text-anchor="start" x="2377.8836" y="-681.9" font-family="Arial" font-size="14.00" fill="#666666">[int]</text>
<polygon fill="none" stroke="#000000" points="2283,-640.5 2283,-670.5 2488,-670.5 2488,-640.5 2283,-640.5"/>
<text text-anchor="start" x="2290" y="-651.9" font-family="Arial" font-size="14.00" fill="#000000">categoryId    </text>
<text text-anchor="start" x="2389.5596" y="-651.9" font-family="Arial" font-size="14.00" fill="#666666">[int]</text>
<polygon fill="none" stroke="#000000" points="2283,-610.5 2283,-640.5 2488,-640.5 2488,-610.5 2283,-610.5"/>
<text text-anchor="start" x="2290" y="-621.9" font-family="Arial" font-size="14.00" fill="#000000">amount    </text>
<text text-anchor="start" x="2370.8864" y="-621.9" font-family="Arial" font-size="14.00" fill="#666666">[int]</text>
<polygon fill="none" stroke="#000000" points="2283,-580.5 2283,-610.5 2488,-610.5 2488,-580.5 2283,-580.5"/>
<text text-anchor="start" x="2290" y="-591.9" font-family="Arial" font-size="14.00" fill="#000000">createdAt    </text>
<text text-anchor="start" x="2384.1136" y="-591.9" font-family="Arial" font-size="14.00" fill="#666666">[timestamp]</text>
<polygon fill="none" stroke="#000000" points="2283,-550.5 2283,-580.5 2488,-580.5 2488,-550.5 2283,-550.5"/>
<text text-anchor="start" x="2290" y="-561.9" font-family="Arial" font-size="14.00" fill="#000000">updatedAt    </text>
<text text-anchor="start" x="2388.0182" y="-561.9" font-family="Arial" font-size="14.00" fill="#666666">[timestamp]</text>
<polygon fill="none" stroke="#000000" points="2283,-520.5 2283,-550.5 2488,-550.5 2488,-520.5 2283,-520.5"/>
<text text-anchor="start" x="2290" y="-531.9" font-family="Arial" font-size="14.00" fill="#000000">organizationId    </text>
<text text-anchor="start" x="2412.1206" y="-531.9" font-family="Arial" font-size="14.00" fill="#666666">[int]</text>
</g>
<!-- budgets&#45;&gt;organizations -->
<g id="edge7" class="edge">
<title>budgets:organizationId&#45;&gt;organizations:id</title>
<path fill="none" stroke="#000000" stroke-dasharray="5,2" d="M2272.9494,-534.7216C2214.4631,-524.7425 2283.6739,-421.3758 2230,-373 2125.8296,-279.112 1753.2371,-240.5 1613,-240.5"/>
<polygon fill="#000000" stroke="#000000" points="2273.0299,-534.7277 2282.6525,-539.9866 2278.0149,-535.1138 2283,-535.5 2283,-535.5 2283,-535.5 2278.0149,-535.1138 2283.3475,-531.0134 2273.0299,-534.7277 2273.0299,-534.7277"/>
<text text-anchor="start" x="2261.7765" y="-545.5" font-family="Arial" font-size="10.00" fill="#000000">1&#45;n</text>
</g>
<!-- categories -->
<g id="node9" class="node">
<title>categories</title>
<polygon fill="#efefef" stroke="transparent" points="2592,-760.5 2592,-795.5 2833,-795.5 2833,-760.5 2592,-760.5"/>
<polygon fill="none" stroke="#000000" points="2592,-760.5 2592,-795.5 2833,-795.5 2833,-760.5 2592,-760.5"/>
<text text-anchor="start" x="2607.2062" y="-773.3" font-family="Arial Bold" font-size="18.00" fill="#000000">categories</text>
<text text-anchor="start" x="2690.2258" y="-773.3" font-family="Arial" font-size="14.00" fill="#000000">    </text>
<text text-anchor="start" x="2724.4306" y="-773.3" font-family="Arial" font-size="14.00" fill="#666666">[BASE TABLE]</text>
<polygon fill="none" stroke="#000000" points="2592,-730.5 2592,-760.5 2833,-760.5 2833,-730.5 2592,-730.5"/>
<text text-anchor="start" x="2599" y="-741.9" font-family="Arial" font-size="14.00" fill="#000000">id    </text>
<text text-anchor="start" x="2644.094" y="-741.9" font-family="Arial" font-size="14.00" fill="#666666">[int]</text>
<polygon fill="none" stroke="#000000" points="2592,-700.5 2592,-730.5 2833,-730.5 2833,-700.5 2592,-700.5"/>
<text text-anchor="start" x="2599" y="-711.9" font-family="Arial" font-size="14.00" fill="#000000">name    </text>
<text text-anchor="start" x="2668.2132" y="-711.9" font-family="Arial" font-size="14.00" fill="#666666">[varchar(255)]</text>
<polygon fill="none" stroke="#000000" points="2592,-670.5 2592,-700.5 2833,-700.5 2833,-670.5 2592,-670.5"/>
<text text-anchor="start" x="2599" y="-681.9" font-family="Arial" font-size="14.00" fill="#000000">color    </text>
<text text-anchor="start" x="2663.5372" y="-681.9" font-family="Arial" font-size="14.00" fill="#666666">[varchar(255)]</text>
<polygon fill="none" stroke="#000000" points="2592,-640.5 2592,-670.5 2833,-670.5 2833,-640.5 2592,-640.5"/>
<text text-anchor="start" x="2599" y="-651.9" font-family="Arial" font-size="14.00" fill="#000000">icon    </text>
<text text-anchor="start" x="2658.8766" y="-651.9" font-family="Arial" font-size="14.00" fill="#666666">[varchar(255)]</text>
<polygon fill="none" stroke="#000000" points="2592,-610.5 2592,-640.5 2833,-640.5 2833,-610.5 2592,-610.5"/>
<text text-anchor="start" x="2598.9698" y="-621.9" font-family="Arial" font-size="14.00" fill="#000000">type    </text>
<text text-anchor="start" x="2659.6304" y="-621.9" font-family="Arial" font-size="14.00" fill="#666666">[enum(&#39;expense&#39;,&#39;income&#39;)]</text>
<polygon fill="none" stroke="#000000" points="2592,-580.5 2592,-610.5 2833,-610.5 2833,-580.5 2592,-580.5"/>
<text text-anchor="start" x="2599" y="-591.9" font-family="Arial" font-size="14.00" fill="#000000">createdAt    </text>
<text text-anchor="start" x="2693.1136" y="-591.9" font-family="Arial" font-size="14.00" fill="#666666">[timestamp]</text>
<polygon fill="none" stroke="#000000" points="2592,-550.5 2592,-580.5 2833,-580.5 2833,-550.5 2592,-550.5"/>
<text text-anchor="start" x="2599" y="-561.9" font-family="Arial" font-size="14.00" fill="#000000">updatedAt    </text>
<text text-anchor="start" x="2697.0182" y="-561.9" font-family="Arial" font-size="14.00" fill="#666666">[timestamp]</text>
<polygon fill="none" stroke="#000000" points="2592,-520.5 2592,-550.5 2833,-550.5 2833,-520.5 2592,-520.5"/>
<text text-anchor="start" x="2599" y="-531.9" font-family="Arial" font-size="14.00" fill="#000000">organizationId    </text>
<text text-anchor="start" x="2721.1206" y="-531.9" font-family="Arial" font-size="14.00" fill="#666666">[int]</text>
<polygon fill="none" stroke="#000000" points="2592,-490.5 2592,-520.5 2833,-520.5 2833,-490.5 2592,-490.5"/>
<text text-anchor="start" x="2599" y="-501.9" font-family="Arial" font-size="14.00" fill="#000000">projectId    </text>
<text text-anchor="start" x="2686.8836" y="-501.9" font-family="Arial" font-size="14.00" fill="#666666">[int]</text>
</g>
<!-- categories&#45;&gt;organizations -->
<g id="edge8" class="edge">
<title>categories:organizationId&#45;&gt;organizations:id</title>
<path fill="none" stroke="#000000" stroke-dasharray="5,2" d="M2581.9846,-534.7085C2523.8208,-524.5642 2595.0947,-419.5502 2540,-373 2460.5234,-305.8493 1717.0468,-240.5 1613,-240.5"/>
<polygon fill="#000000" stroke="#000000" points="2582.0311,-534.7121 2591.6454,-539.986 2587.0155,-535.106 2592,-535.5 2592,-535.5 2592,-535.5 2587.0155,-535.106 2592.3546,-531.014 2582.0311,-534.7121 2582.0311,-534.7121"/>
<text text-anchor="start" x="2570.7765" y="-545.5" font-family="Arial" font-size="10.00" fill="#000000">1&#45;n</text>
</g>
</g>
</svg>
