<?xml version="1.0" encoding="UTF-8" standalone="no"?>
<!DOCTYPE svg PUBLIC "-//W3C//DTD SVG 1.1//EN"
 "http://www.w3.org/Graphics/SVG/1.1/DTD/svg11.dtd">
<!-- Generated by graphviz version 2.40.1 (20161225.0304)
 -->
<!-- Title: organizations Pages: 1 -->
<svg width="824pt" height="622pt"
 viewBox="0.00 0.00 824.00 622.00" xmlns="http://www.w3.org/2000/svg" xmlns:xlink="http://www.w3.org/1999/xlink">
<g id="graph0" class="graph" transform="scale(1 1) rotate(0) translate(4 618)">
<title>organizations</title>
<polygon fill="#ffffff" stroke="transparent" points="-4,4 -4,-618 820,-618 820,4 -4,4"/>
<!-- organizations -->
<g id="node1" class="node">
<title>organizations</title>
<polygon fill="#efefef" stroke="transparent" points="294.5,-195.5 294.5,-230.5 542.5,-230.5 542.5,-195.5 294.5,-195.5"/>
<polygon fill="none" stroke="#000000" points="294.5,-195.5 294.5,-230.5 542.5,-230.5 542.5,-195.5 294.5,-195.5"/>
<text text-anchor="start" x="301.2029" y="-208.3" font-family="Arial Bold" font-size="18.00" fill="#000000">organizations</text>
<text text-anchor="start" x="408.2291" y="-208.3" font-family="Arial" font-size="14.00" fill="#000000">    </text>
<text text-anchor="start" x="442.4339" y="-208.3" font-family="Arial" font-size="14.00" fill="#666666">[BASE TABLE]</text>
<polygon fill="none" stroke="#000000" points="294.5,-165.5 294.5,-195.5 542.5,-195.5 542.5,-165.5 294.5,-165.5"/>
<text text-anchor="start" x="301.5" y="-176.9" font-family="Arial" font-size="14.00" fill="#000000">id </text>
<text text-anchor="start" x="316.2798" y="-176.9" font-family="Arial" font-size="14.00" fill="#666666">[int]</text>
<polygon fill="none" stroke="#000000" points="294.5,-135.5 294.5,-165.5 542.5,-165.5 542.5,-135.5 294.5,-135.5"/>
<text text-anchor="start" x="301.5" y="-146.9" font-family="Arial" font-size="14.00" fill="#000000">name </text>
<text text-anchor="start" x="340.399" y="-146.9" font-family="Arial" font-size="14.00" fill="#666666">[varchar(255)]</text>
<polygon fill="none" stroke="#000000" points="294.5,-105.5 294.5,-135.5 542.5,-135.5 542.5,-105.5 294.5,-105.5"/>
<text text-anchor="start" x="301.5" y="-116.9" font-family="Arial" font-size="14.00" fill="#000000">uniqueName </text>
<text text-anchor="start" x="384.7426" y="-116.9" font-family="Arial" font-size="14.00" fill="#666666">[varchar(255)]</text>
<polygon fill="none" stroke="#000000" points="294.5,-75.5 294.5,-105.5 542.5,-105.5 542.5,-75.5 294.5,-75.5"/>
<text text-anchor="start" x="301.5" y="-86.9" font-family="Arial" font-size="14.00" fill="#000000">createdAt </text>
<text text-anchor="start" x="365.2994" y="-86.9" font-family="Arial" font-size="14.00" fill="#666666">[timestamp]</text>
<polygon fill="none" stroke="#000000" points="294.5,-45.5 294.5,-75.5 542.5,-75.5 542.5,-45.5 294.5,-45.5"/>
<text text-anchor="start" x="301.5" y="-56.9" font-family="Arial" font-size="14.00" fill="#000000">updatedAt </text>
<text text-anchor="start" x="369.204" y="-56.9" font-family="Arial" font-size="14.00" fill="#666666">[timestamp]</text>
<polygon fill="none" stroke="#000000" stroke-width="3" points="293,-44.5 293,-232.5 544,-232.5 544,-44.5 293,-44.5"/>
</g>
<!-- user_organization_roles -->
<g id="node2" class="node">
<title>user_organization_roles</title>
<polygon fill="#efefef" stroke="transparent" points="43.5,-535.5 43.5,-570.5 376.5,-570.5 376.5,-535.5 43.5,-535.5"/>
<polygon fill="none" stroke="#000000" points="43.5,-535.5 43.5,-570.5 376.5,-570.5 376.5,-535.5 43.5,-535.5"/>
<text text-anchor="start" x="50.195" y="-548.3" font-family="Arial Bold" font-size="18.00" fill="#000000">user_organization_roles</text>
<text text-anchor="start" x="242.237" y="-548.3" font-family="Arial" font-size="14.00" fill="#000000">    </text>
<text text-anchor="start" x="276.4418" y="-548.3" font-family="Arial" font-size="14.00" fill="#666666">[BASE TABLE]</text>
<polygon fill="none" stroke="#000000" points="43.5,-505.5 43.5,-535.5 376.5,-535.5 376.5,-505.5 43.5,-505.5"/>
<text text-anchor="start" x="50.5" y="-516.9" font-family="Arial" font-size="14.00" fill="#000000">id    </text>
<text text-anchor="start" x="95.594" y="-516.9" font-family="Arial" font-size="14.00" fill="#666666">[int]</text>
<polygon fill="none" stroke="#000000" points="43.5,-475.5 43.5,-505.5 376.5,-505.5 376.5,-475.5 43.5,-475.5"/>
<text text-anchor="start" x="50.5" y="-486.9" font-family="Arial" font-size="14.00" fill="#000000">userId    </text>
<text text-anchor="start" x="123.6038" y="-486.9" font-family="Arial" font-size="14.00" fill="#666666">[int]</text>
<polygon fill="none" stroke="#000000" points="43.5,-445.5 43.5,-475.5 376.5,-475.5 376.5,-445.5 43.5,-445.5"/>
<text text-anchor="start" x="50.5" y="-456.9" font-family="Arial" font-size="14.00" fill="#000000">organizationId    </text>
<text text-anchor="start" x="172.6206" y="-456.9" font-family="Arial" font-size="14.00" fill="#666666">[int]</text>
<polygon fill="none" stroke="#000000" points="43.5,-415.5 43.5,-445.5 376.5,-445.5 376.5,-415.5 43.5,-415.5"/>
<text text-anchor="start" x="50.5" y="-426.9" font-family="Arial" font-size="14.00" fill="#000000">roleId    </text>
<text text-anchor="start" x="119.7104" y="-426.9" font-family="Arial" font-size="14.00" fill="#666666">[int]</text>
<polygon fill="none" stroke="#000000" points="43.5,-385.5 43.5,-415.5 376.5,-415.5 376.5,-385.5 43.5,-385.5"/>
<text text-anchor="start" x="50.5" y="-396.9" font-family="Arial" font-size="14.00" fill="#000000">createdAt    </text>
<text text-anchor="start" x="144.6136" y="-396.9" font-family="Arial" font-size="14.00" fill="#666666">[timestamp]</text>
<polygon fill="none" stroke="#000000" points="43.5,-355.5 43.5,-385.5 376.5,-385.5 376.5,-355.5 43.5,-355.5"/>
<text text-anchor="start" x="50.5" y="-366.9" font-family="Arial" font-size="14.00" fill="#000000">updatedAt    </text>
<text text-anchor="start" x="148.5182" y="-366.9" font-family="Arial" font-size="14.00" fill="#666666">[timestamp]</text>
</g>
<!-- user_organization_roles&#45;&gt;organizations -->
<g id="edge1" class="edge">
<title>user_organization_roles:organizationId&#45;&gt;organizations:id</title>
<path fill="none" stroke="#000000" stroke-dasharray="5,2" d="M386.7386,-459.6323C438.6704,-450.1297 410.3163,-364.7779 376.5,-313 354.7357,-279.6756 316.2643,-310.3244 294.5,-277 271.0478,-241.0911 251.6111,-180.5 294.5,-180.5"/>
<polygon fill="#000000" stroke="#000000" points="386.4643,-459.6555 376.12,-456.0161 381.4821,-460.0777 376.5,-460.5 376.5,-460.5 376.5,-460.5 381.4821,-460.0777 376.88,-464.9839 386.4643,-459.6555 386.4643,-459.6555"/>
<text text-anchor="start" x="355.2765" y="-470.5" font-family="Arial" font-size="10.00" fill="#000000">1&#45;n</text>
</g>
<!-- user_organizations -->
<g id="node3" class="node">
<title>user_organizations</title>
<polygon fill="#efefef" stroke="transparent" points="480.5,-520.5 480.5,-555.5 773.5,-555.5 773.5,-520.5 480.5,-520.5"/>
<polygon fill="none" stroke="#000000" points="480.5,-520.5 480.5,-555.5 773.5,-555.5 773.5,-520.5 480.5,-520.5"/>
<text text-anchor="start" x="487.1975" y="-533.3" font-family="Arial Bold" font-size="18.00" fill="#000000">user_organizations</text>
<text text-anchor="start" x="639.2345" y="-533.3" font-family="Arial" font-size="14.00" fill="#000000">    </text>
<text text-anchor="start" x="673.4393" y="-533.3" font-family="Arial" font-size="14.00" fill="#666666">[BASE TABLE]</text>
<polygon fill="none" stroke="#000000" points="480.5,-490.5 480.5,-520.5 773.5,-520.5 773.5,-490.5 480.5,-490.5"/>
<text text-anchor="start" x="487.5" y="-501.9" font-family="Arial" font-size="14.00" fill="#000000">id    </text>
<text text-anchor="start" x="532.594" y="-501.9" font-family="Arial" font-size="14.00" fill="#666666">[int]</text>
<polygon fill="none" stroke="#000000" points="480.5,-460.5 480.5,-490.5 773.5,-490.5 773.5,-460.5 480.5,-460.5"/>
<text text-anchor="start" x="487.5" y="-471.9" font-family="Arial" font-size="14.00" fill="#000000">userId    </text>
<text text-anchor="start" x="560.6038" y="-471.9" font-family="Arial" font-size="14.00" fill="#666666">[int]</text>
<polygon fill="none" stroke="#000000" points="480.5,-430.5 480.5,-460.5 773.5,-460.5 773.5,-430.5 480.5,-430.5"/>
<text text-anchor="start" x="487.5" y="-441.9" font-family="Arial" font-size="14.00" fill="#000000">organizationId    </text>
<text text-anchor="start" x="609.6206" y="-441.9" font-family="Arial" font-size="14.00" fill="#666666">[int]</text>
<polygon fill="none" stroke="#000000" points="480.5,-400.5 480.5,-430.5 773.5,-430.5 773.5,-400.5 480.5,-400.5"/>
<text text-anchor="start" x="487.5" y="-411.9" font-family="Arial" font-size="14.00" fill="#000000">createdAt    </text>
<text text-anchor="start" x="581.6136" y="-411.9" font-family="Arial" font-size="14.00" fill="#666666">[timestamp]</text>
<polygon fill="none" stroke="#000000" points="480.5,-370.5 480.5,-400.5 773.5,-400.5 773.5,-370.5 480.5,-370.5"/>
<text text-anchor="start" x="487.5" y="-381.9" font-family="Arial" font-size="14.00" fill="#000000">updatedAt    </text>
<text text-anchor="start" x="585.5182" y="-381.9" font-family="Arial" font-size="14.00" fill="#666666">[timestamp]</text>
</g>
<!-- user_organizations&#45;&gt;organizations -->
<g id="edge2" class="edge">
<title>user_organizations:organizationId&#45;&gt;organizations:id</title>
<path fill="none" stroke="#000000" stroke-dasharray="5,2" d="M470.1931,-444.3768C432.6772,-435.195 459.8541,-371.7163 480.5,-328 495.737,-295.7367 527.263,-309.2633 542.5,-277 560.8153,-238.2185 585.3889,-180.5 542.5,-180.5"/>
<polygon fill="#000000" stroke="#000000" points="470.5589,-444.4165 480.0124,-449.9735 475.5294,-444.9583 480.5,-445.5 480.5,-445.5 480.5,-445.5 475.5294,-444.9583 480.9876,-441.0265 470.5589,-444.4165 470.5589,-444.4165"/>
<text text-anchor="start" x="459.2765" y="-455.5" font-family="Arial" font-size="10.00" fill="#000000">1&#45;n</text>
</g>
</g>
</svg>
