<?xml version="1.0" encoding="UTF-8" standalone="no"?>
<!DOCTYPE svg PUBLIC "-//W3C//DTD SVG 1.1//EN"
 "http://www.w3.org/Graphics/SVG/1.1/DTD/svg11.dtd">
<!-- Generated by graphviz version 2.40.1 (20161225.0304)
 -->
<!-- Title: organizations Pages: 1 -->
<svg width="1113pt" height="622pt"
 viewBox="0.00 0.00 1112.50 622.00" xmlns="http://www.w3.org/2000/svg" xmlns:xlink="http://www.w3.org/1999/xlink">
<g id="graph0" class="graph" transform="scale(1 1) rotate(0) translate(4 618)">
<title>organizations</title>
<polygon fill="#ffffff" stroke="transparent" points="-4,4 -4,-618 1108.5,-618 1108.5,4 -4,4"/>
<!-- organizations -->
<g id="node1" class="node">
<title>organizations</title>
<polygon fill="#efefef" stroke="transparent" points="375,-195.5 375,-230.5 623,-230.5 623,-195.5 375,-195.5"/>
<polygon fill="none" stroke="#000000" points="375,-195.5 375,-230.5 623,-230.5 623,-195.5 375,-195.5"/>
<text text-anchor="start" x="381.7029" y="-208.3" font-family="Arial Bold" font-size="18.00" fill="#000000">organizations</text>
<text text-anchor="start" x="488.7291" y="-208.3" font-family="Arial" font-size="14.00" fill="#000000">    </text>
<text text-anchor="start" x="522.9339" y="-208.3" font-family="Arial" font-size="14.00" fill="#666666">[BASE TABLE]</text>
<polygon fill="none" stroke="#000000" points="375,-165.5 375,-195.5 623,-195.5 623,-165.5 375,-165.5"/>
<text text-anchor="start" x="382" y="-176.9" font-family="Arial" font-size="14.00" fill="#000000">id </text>
<text text-anchor="start" x="396.7798" y="-176.9" font-family="Arial" font-size="14.00" fill="#666666">[int]</text>
<polygon fill="none" stroke="#000000" points="375,-135.5 375,-165.5 623,-165.5 623,-135.5 375,-135.5"/>
<text text-anchor="start" x="382" y="-146.9" font-family="Arial" font-size="14.00" fill="#000000">name </text>
<text text-anchor="start" x="420.899" y="-146.9" font-family="Arial" font-size="14.00" fill="#666666">[varchar(255)]</text>
<polygon fill="none" stroke="#000000" points="375,-105.5 375,-135.5 623,-135.5 623,-105.5 375,-105.5"/>
<text text-anchor="start" x="382" y="-116.9" font-family="Arial" font-size="14.00" fill="#000000">uniqueName </text>
<text text-anchor="start" x="465.2426" y="-116.9" font-family="Arial" font-size="14.00" fill="#666666">[varchar(255)]</text>
<polygon fill="none" stroke="#000000" points="375,-75.5 375,-105.5 623,-105.5 623,-75.5 375,-75.5"/>
<text text-anchor="start" x="382" y="-86.9" font-family="Arial" font-size="14.00" fill="#000000">createdAt </text>
<text text-anchor="start" x="445.7994" y="-86.9" font-family="Arial" font-size="14.00" fill="#666666">[timestamp]</text>
<polygon fill="none" stroke="#000000" points="375,-45.5 375,-75.5 623,-75.5 623,-45.5 375,-45.5"/>
<text text-anchor="start" x="382" y="-56.9" font-family="Arial" font-size="14.00" fill="#000000">updatedAt </text>
<text text-anchor="start" x="449.704" y="-56.9" font-family="Arial" font-size="14.00" fill="#666666">[timestamp]</text>
<polygon fill="none" stroke="#000000" stroke-width="3" points="373.5,-44.5 373.5,-232.5 624.5,-232.5 624.5,-44.5 373.5,-44.5"/>
</g>
<!-- roles -->
<g id="node2" class="node">
<title>roles</title>
<polygon fill="#efefef" stroke="transparent" points="43,-535.5 43,-570.5 227,-570.5 227,-535.5 43,-535.5"/>
<polygon fill="none" stroke="#000000" points="43,-535.5 43,-570.5 227,-570.5 227,-535.5 43,-535.5"/>
<text text-anchor="start" x="51.7166" y="-548.3" font-family="Arial Bold" font-size="18.00" fill="#000000">roles</text>
<text text-anchor="start" x="90.7154" y="-548.3" font-family="Arial" font-size="14.00" fill="#000000">    </text>
<text text-anchor="start" x="124.9202" y="-548.3" font-family="Arial" font-size="14.00" fill="#666666">[BASE TABLE]</text>
<polygon fill="none" stroke="#000000" points="43,-505.5 43,-535.5 227,-535.5 227,-505.5 43,-505.5"/>
<text text-anchor="start" x="50" y="-516.9" font-family="Arial" font-size="14.00" fill="#000000">id    </text>
<text text-anchor="start" x="95.094" y="-516.9" font-family="Arial" font-size="14.00" fill="#666666">[int]</text>
<polygon fill="none" stroke="#000000" points="43,-475.5 43,-505.5 227,-505.5 227,-475.5 43,-475.5"/>
<text text-anchor="start" x="50" y="-486.9" font-family="Arial" font-size="14.00" fill="#000000">name    </text>
<text text-anchor="start" x="119.2132" y="-486.9" font-family="Arial" font-size="14.00" fill="#666666">[varchar(255)]</text>
<polygon fill="none" stroke="#000000" points="43,-445.5 43,-475.5 227,-475.5 227,-445.5 43,-445.5"/>
<text text-anchor="start" x="50" y="-456.9" font-family="Arial" font-size="14.00" fill="#000000">slug    </text>
<text text-anchor="start" x="109.8766" y="-456.9" font-family="Arial" font-size="14.00" fill="#666666">[varchar(255)]</text>
<polygon fill="none" stroke="#000000" points="43,-415.5 43,-445.5 227,-445.5 227,-415.5 43,-415.5"/>
<text text-anchor="start" x="50" y="-426.9" font-family="Arial" font-size="14.00" fill="#000000">createdAt    </text>
<text text-anchor="start" x="144.1136" y="-426.9" font-family="Arial" font-size="14.00" fill="#666666">[timestamp]</text>
<polygon fill="none" stroke="#000000" points="43,-385.5 43,-415.5 227,-415.5 227,-385.5 43,-385.5"/>
<text text-anchor="start" x="49.8219" y="-396.9" font-family="Arial" font-size="14.00" fill="#000000">updatedAt    </text>
<text text-anchor="start" x="147.8401" y="-396.9" font-family="Arial" font-size="14.00" fill="#666666">[timestamp]</text>
<polygon fill="none" stroke="#000000" points="43,-355.5 43,-385.5 227,-385.5 227,-355.5 43,-355.5"/>
<text text-anchor="start" x="50" y="-366.9" font-family="Arial" font-size="14.00" fill="#000000">organizationId    </text>
<text text-anchor="start" x="172.1206" y="-366.9" font-family="Arial" font-size="14.00" fill="#666666">[int]</text>
</g>
<!-- roles&#45;&gt;organizations -->
<g id="edge1" class="edge">
<title>roles:organizationId&#45;&gt;organizations:id</title>
<path fill="none" stroke="#000000" stroke-dasharray="5,2" d="M236.2002,-365.8033C270.8798,-336.5449 350.7487,-180.5 375,-180.5"/>
<polygon fill="#000000" stroke="#000000" points="235.9066,-365.9532 224.9539,-366.492 231.4533,-368.2266 227,-370.5 227,-370.5 227,-370.5 231.4533,-368.2266 229.0461,-374.508 235.9066,-365.9532 235.9066,-365.9532"/>
<text text-anchor="start" x="205.7765" y="-380.5" font-family="Arial" font-size="10.00" fill="#000000">1&#45;n</text>
</g>
<!-- user_organization_roles -->
<g id="node3" class="node">
<title>user_organization_roles</title>
<polygon fill="#efefef" stroke="transparent" points="332,-535.5 332,-570.5 665,-570.5 665,-535.5 332,-535.5"/>
<polygon fill="none" stroke="#000000" points="332,-535.5 332,-570.5 665,-570.5 665,-535.5 332,-535.5"/>
<text text-anchor="start" x="338.695" y="-548.3" font-family="Arial Bold" font-size="18.00" fill="#000000">user_organization_roles</text>
<text text-anchor="start" x="530.737" y="-548.3" font-family="Arial" font-size="14.00" fill="#000000">    </text>
<text text-anchor="start" x="564.9418" y="-548.3" font-family="Arial" font-size="14.00" fill="#666666">[BASE TABLE]</text>
<polygon fill="none" stroke="#000000" points="332,-505.5 332,-535.5 665,-535.5 665,-505.5 332,-505.5"/>
<text text-anchor="start" x="339" y="-516.9" font-family="Arial" font-size="14.00" fill="#000000">id    </text>
<text text-anchor="start" x="384.094" y="-516.9" font-family="Arial" font-size="14.00" fill="#666666">[int]</text>
<polygon fill="none" stroke="#000000" points="332,-475.5 332,-505.5 665,-505.5 665,-475.5 332,-475.5"/>
<text text-anchor="start" x="339" y="-486.9" font-family="Arial" font-size="14.00" fill="#000000">userId    </text>
<text text-anchor="start" x="412.1038" y="-486.9" font-family="Arial" font-size="14.00" fill="#666666">[int]</text>
<polygon fill="none" stroke="#000000" points="332,-445.5 332,-475.5 665,-475.5 665,-445.5 332,-445.5"/>
<text text-anchor="start" x="339" y="-456.9" font-family="Arial" font-size="14.00" fill="#000000">organizationId    </text>
<text text-anchor="start" x="461.1206" y="-456.9" font-family="Arial" font-size="14.00" fill="#666666">[int]</text>
<polygon fill="none" stroke="#000000" points="332,-415.5 332,-445.5 665,-445.5 665,-415.5 332,-415.5"/>
<text text-anchor="start" x="339" y="-426.9" font-family="Arial" font-size="14.00" fill="#000000">roleId    </text>
<text text-anchor="start" x="408.2104" y="-426.9" font-family="Arial" font-size="14.00" fill="#666666">[int]</text>
<polygon fill="none" stroke="#000000" points="332,-385.5 332,-415.5 665,-415.5 665,-385.5 332,-385.5"/>
<text text-anchor="start" x="339" y="-396.9" font-family="Arial" font-size="14.00" fill="#000000">createdAt    </text>
<text text-anchor="start" x="433.1136" y="-396.9" font-family="Arial" font-size="14.00" fill="#666666">[timestamp]</text>
<polygon fill="none" stroke="#000000" points="332,-355.5 332,-385.5 665,-385.5 665,-355.5 332,-355.5"/>
<text text-anchor="start" x="339" y="-366.9" font-family="Arial" font-size="14.00" fill="#000000">updatedAt    </text>
<text text-anchor="start" x="437.0182" y="-366.9" font-family="Arial" font-size="14.00" fill="#666666">[timestamp]</text>
</g>
<!-- user_organization_roles&#45;&gt;organizations -->
<g id="edge2" class="edge">
<title>user_organization_roles:organizationId&#45;&gt;organizations:id</title>
<path fill="none" stroke="#000000" stroke-dasharray="5,2" d="M674.9792,-459.6415C728.0693,-449.8877 706.0319,-359.4405 665,-313 579.005,-215.6696 460.995,-374.3304 375,-277 346.6024,-244.8592 332.1111,-180.5 375,-180.5"/>
<polygon fill="#000000" stroke="#000000" points="674.9632,-459.6428 664.6143,-456.0166 669.9816,-460.0714 665,-460.5 665,-460.5 665,-460.5 669.9816,-460.0714 665.3857,-464.9834 674.9632,-459.6428 674.9632,-459.6428"/>
<text text-anchor="start" x="643.7765" y="-470.5" font-family="Arial" font-size="10.00" fill="#000000">1&#45;n</text>
</g>
<!-- user_organizations -->
<g id="node4" class="node">
<title>user_organizations</title>
<polygon fill="#efefef" stroke="transparent" points="769,-520.5 769,-555.5 1062,-555.5 1062,-520.5 769,-520.5"/>
<polygon fill="none" stroke="#000000" points="769,-520.5 769,-555.5 1062,-555.5 1062,-520.5 769,-520.5"/>
<text text-anchor="start" x="775.6975" y="-533.3" font-family="Arial Bold" font-size="18.00" fill="#000000">user_organizations</text>
<text text-anchor="start" x="927.7345" y="-533.3" font-family="Arial" font-size="14.00" fill="#000000">    </text>
<text text-anchor="start" x="961.9393" y="-533.3" font-family="Arial" font-size="14.00" fill="#666666">[BASE TABLE]</text>
<polygon fill="none" stroke="#000000" points="769,-490.5 769,-520.5 1062,-520.5 1062,-490.5 769,-490.5"/>
<text text-anchor="start" x="776" y="-501.9" font-family="Arial" font-size="14.00" fill="#000000">id    </text>
<text text-anchor="start" x="821.094" y="-501.9" font-family="Arial" font-size="14.00" fill="#666666">[int]</text>
<polygon fill="none" stroke="#000000" points="769,-460.5 769,-490.5 1062,-490.5 1062,-460.5 769,-460.5"/>
<text text-anchor="start" x="776" y="-471.9" font-family="Arial" font-size="14.00" fill="#000000">userId    </text>
<text text-anchor="start" x="849.1038" y="-471.9" font-family="Arial" font-size="14.00" fill="#666666">[int]</text>
<polygon fill="none" stroke="#000000" points="769,-430.5 769,-460.5 1062,-460.5 1062,-430.5 769,-430.5"/>
<text text-anchor="start" x="776" y="-441.9" font-family="Arial" font-size="14.00" fill="#000000">organizationId    </text>
<text text-anchor="start" x="898.1206" y="-441.9" font-family="Arial" font-size="14.00" fill="#666666">[int]</text>
<polygon fill="none" stroke="#000000" points="769,-400.5 769,-430.5 1062,-430.5 1062,-400.5 769,-400.5"/>
<text text-anchor="start" x="776" y="-411.9" font-family="Arial" font-size="14.00" fill="#000000">createdAt    </text>
<text text-anchor="start" x="870.1136" y="-411.9" font-family="Arial" font-size="14.00" fill="#666666">[timestamp]</text>
<polygon fill="none" stroke="#000000" points="769,-370.5 769,-400.5 1062,-400.5 1062,-370.5 769,-370.5"/>
<text text-anchor="start" x="776" y="-381.9" font-family="Arial" font-size="14.00" fill="#000000">updatedAt    </text>
<text text-anchor="start" x="874.0182" y="-381.9" font-family="Arial" font-size="14.00" fill="#666666">[timestamp]</text>
</g>
<!-- user_organizations&#45;&gt;organizations -->
<g id="edge3" class="edge">
<title>user_organizations:organizationId&#45;&gt;organizations:id</title>
<path fill="none" stroke="#000000" stroke-dasharray="5,2" d="M758.9218,-444.7282C710.3379,-436.5673 745.317,-365.3921 717,-313 682.6691,-249.4809 695.2031,-180.5 623,-180.5"/>
<polygon fill="#000000" stroke="#000000" points="759.0292,-444.7364 768.6564,-449.9869 764.0146,-445.1182 769,-445.5 769,-445.5 769,-445.5 764.0146,-445.1182 769.3436,-441.0131 759.0292,-444.7364 759.0292,-444.7364"/>
<text text-anchor="start" x="747.7765" y="-455.5" font-family="Arial" font-size="10.00" fill="#000000">1&#45;n</text>
</g>
</g>
</svg>
