<?xml version="1.0" encoding="UTF-8" standalone="no"?>
<!DOCTYPE svg PUBLIC "-//W3C//DTD SVG 1.1//EN"
 "http://www.w3.org/Graphics/SVG/1.1/DTD/svg11.dtd">
<!-- Generated by graphviz version 2.40.1 (20161225.0304)
 -->
<!-- Title: organizations Pages: 1 -->
<svg width="2890pt" height="1102pt"
 viewBox="0.00 0.00 2889.50 1102.00" xmlns="http://www.w3.org/2000/svg" xmlns:xlink="http://www.w3.org/1999/xlink">
<g id="graph0" class="graph" transform="scale(1 1) rotate(0) translate(4 1098)">
<title>organizations</title>
<polygon fill="#ffffff" stroke="transparent" points="-4,4 -4,-1098 2885.5,-1098 2885.5,4 -4,4"/>
<!-- organizations -->
<g id="node1" class="node">
<title>organizations</title>
<polygon fill="#efefef" stroke="transparent" points="1365,-375.5 1365,-410.5 1613,-410.5 1613,-375.5 1365,-375.5"/>
<polygon fill="none" stroke="#000000" points="1365,-375.5 1365,-410.5 1613,-410.5 1613,-375.5 1365,-375.5"/>
<text text-anchor="start" x="1371.7029" y="-388.3" font-family="Arial Bold" font-size="18.00" fill="#000000">organizations</text>
<text text-anchor="start" x="1478.7291" y="-388.3" font-family="Arial" font-size="14.00" fill="#000000">    </text>
<text text-anchor="start" x="1512.9339" y="-388.3" font-family="Arial" font-size="14.00" fill="#666666">[BASE TABLE]</text>
<polygon fill="none" stroke="#000000" points="1365,-345.5 1365,-375.5 1613,-375.5 1613,-345.5 1365,-345.5"/>
<text text-anchor="start" x="1372" y="-356.9" font-family="Arial" font-size="14.00" fill="#000000">id </text>
<text text-anchor="start" x="1386.7798" y="-356.9" font-family="Arial" font-size="14.00" fill="#666666">[int]</text>
<polygon fill="none" stroke="#000000" points="1365,-315.5 1365,-345.5 1613,-345.5 1613,-315.5 1365,-315.5"/>
<text text-anchor="start" x="1372" y="-326.9" font-family="Arial" font-size="14.00" fill="#000000">name </text>
<text text-anchor="start" x="1410.899" y="-326.9" font-family="Arial" font-size="14.00" fill="#666666">[varchar(255)]</text>
<polygon fill="none" stroke="#000000" points="1365,-285.5 1365,-315.5 1613,-315.5 1613,-285.5 1365,-285.5"/>
<text text-anchor="start" x="1372" y="-296.9" font-family="Arial" font-size="14.00" fill="#000000">uniqueName </text>
<text text-anchor="start" x="1455.2426" y="-296.9" font-family="Arial" font-size="14.00" fill="#666666">[varchar(255)]</text>
<polygon fill="none" stroke="#000000" points="1365,-255.5 1365,-285.5 1613,-285.5 1613,-255.5 1365,-255.5"/>
<text text-anchor="start" x="1372" y="-266.9" font-family="Arial" font-size="14.00" fill="#000000">createdAt </text>
<text text-anchor="start" x="1435.7994" y="-266.9" font-family="Arial" font-size="14.00" fill="#666666">[timestamp]</text>
<polygon fill="none" stroke="#000000" points="1365,-225.5 1365,-255.5 1613,-255.5 1613,-225.5 1365,-225.5"/>
<text text-anchor="start" x="1372" y="-236.9" font-family="Arial" font-size="14.00" fill="#000000">updatedAt </text>
<text text-anchor="start" x="1439.704" y="-236.9" font-family="Arial" font-size="14.00" fill="#666666">[timestamp]</text>
<polygon fill="none" stroke="#000000" points="1365,-195.5 1365,-225.5 1613,-225.5 1613,-195.5 1365,-195.5"/>
<text text-anchor="start" x="1372" y="-206.9" font-family="Arial" font-size="14.00" fill="#000000">phone </text>
<text text-anchor="start" x="1414.8036" y="-206.9" font-family="Arial" font-size="14.00" fill="#666666">[varchar(255)]</text>
<polygon fill="none" stroke="#000000" points="1365,-165.5 1365,-195.5 1613,-195.5 1613,-165.5 1365,-165.5"/>
<text text-anchor="start" x="1372" y="-176.9" font-family="Arial" font-size="14.00" fill="#000000">address </text>
<text text-anchor="start" x="1425.6816" y="-176.9" font-family="Arial" font-size="14.00" fill="#666666">[varchar(255)]</text>
<polygon fill="none" stroke="#000000" points="1365,-135.5 1365,-165.5 1613,-165.5 1613,-135.5 1365,-135.5"/>
<text text-anchor="start" x="1372" y="-146.9" font-family="Arial" font-size="14.00" fill="#000000">dateFormat </text>
<text text-anchor="start" x="1447.4586" y="-146.9" font-family="Arial" font-size="14.00" fill="#666666">[varchar(255)]</text>
<polygon fill="none" stroke="#000000" points="1365,-105.5 1365,-135.5 1613,-135.5 1613,-105.5 1365,-105.5"/>
<text text-anchor="start" x="1372" y="-116.9" font-family="Arial" font-size="14.00" fill="#000000">currency </text>
<text text-anchor="start" x="1429.5596" y="-116.9" font-family="Arial" font-size="14.00" fill="#666666">[enum(&#39;vnd&#39;,&#39;usd&#39;)]</text>
<polygon fill="none" stroke="#000000" points="1365,-75.5 1365,-105.5 1613,-105.5 1613,-75.5 1365,-75.5"/>
<text text-anchor="start" x="1372" y="-86.9" font-family="Arial" font-size="14.00" fill="#000000">bank </text>
<text text-anchor="start" x="1406.2384" y="-86.9" font-family="Arial" font-size="14.00" fill="#666666">[enum(&#39;bidv&#39;,&#39;vcb&#39;)]</text>
<polygon fill="none" stroke="#000000" points="1365,-45.5 1365,-75.5 1613,-75.5 1613,-45.5 1365,-45.5"/>
<text text-anchor="start" x="1372" y="-56.9" font-family="Arial" font-size="14.00" fill="#000000">exchangeRate </text>
<text text-anchor="start" x="1466.1486" y="-56.9" font-family="Arial" font-size="14.00" fill="#666666">[int]</text>
<polygon fill="none" stroke="#000000" stroke-width="3" points="1363.5,-44.5 1363.5,-412.5 1614.5,-412.5 1614.5,-44.5 1363.5,-44.5"/>
</g>
<!-- roles -->
<g id="node2" class="node">
<title>roles</title>
<polygon fill="#efefef" stroke="transparent" points="43,-865.5 43,-900.5 227,-900.5 227,-865.5 43,-865.5"/>
<polygon fill="none" stroke="#000000" points="43,-865.5 43,-900.5 227,-900.5 227,-865.5 43,-865.5"/>
<text text-anchor="start" x="51.7166" y="-878.3" font-family="Arial Bold" font-size="18.00" fill="#000000">roles</text>
<text text-anchor="start" x="90.7154" y="-878.3" font-family="Arial" font-size="14.00" fill="#000000">    </text>
<text text-anchor="start" x="124.9202" y="-878.3" font-family="Arial" font-size="14.00" fill="#666666">[BASE TABLE]</text>
<polygon fill="none" stroke="#000000" points="43,-835.5 43,-865.5 227,-865.5 227,-835.5 43,-835.5"/>
<text text-anchor="start" x="50" y="-846.9" font-family="Arial" font-size="14.00" fill="#000000">id    </text>
<text text-anchor="start" x="95.094" y="-846.9" font-family="Arial" font-size="14.00" fill="#666666">[int]</text>
<polygon fill="none" stroke="#000000" points="43,-805.5 43,-835.5 227,-835.5 227,-805.5 43,-805.5"/>
<text text-anchor="start" x="50" y="-816.9" font-family="Arial" font-size="14.00" fill="#000000">name    </text>
<text text-anchor="start" x="119.2132" y="-816.9" font-family="Arial" font-size="14.00" fill="#666666">[varchar(255)]</text>
<polygon fill="none" stroke="#000000" points="43,-775.5 43,-805.5 227,-805.5 227,-775.5 43,-775.5"/>
<text text-anchor="start" x="50" y="-786.9" font-family="Arial" font-size="14.00" fill="#000000">slug    </text>
<text text-anchor="start" x="109.8766" y="-786.9" font-family="Arial" font-size="14.00" fill="#666666">[varchar(255)]</text>
<polygon fill="none" stroke="#000000" points="43,-745.5 43,-775.5 227,-775.5 227,-745.5 43,-745.5"/>
<text text-anchor="start" x="50" y="-756.9" font-family="Arial" font-size="14.00" fill="#000000">createdAt    </text>
<text text-anchor="start" x="144.1136" y="-756.9" font-family="Arial" font-size="14.00" fill="#666666">[timestamp]</text>
<polygon fill="none" stroke="#000000" points="43,-715.5 43,-745.5 227,-745.5 227,-715.5 43,-715.5"/>
<text text-anchor="start" x="49.8219" y="-726.9" font-family="Arial" font-size="14.00" fill="#000000">updatedAt    </text>
<text text-anchor="start" x="147.8401" y="-726.9" font-family="Arial" font-size="14.00" fill="#666666">[timestamp]</text>
<polygon fill="none" stroke="#000000" points="43,-685.5 43,-715.5 227,-715.5 227,-685.5 43,-685.5"/>
<text text-anchor="start" x="50" y="-696.9" font-family="Arial" font-size="14.00" fill="#000000">organizationId    </text>
<text text-anchor="start" x="172.1206" y="-696.9" font-family="Arial" font-size="14.00" fill="#666666">[int]</text>
</g>
<!-- roles&#45;&gt;organizations -->
<g id="edge1" class="edge">
<title>roles:organizationId&#45;&gt;organizations:id</title>
<path fill="none" stroke="#000000" stroke-dasharray="5,2" d="M237.2064,-699.8517C313.4242,-689.3299 210.5158,-553.4698 279,-493 370.1233,-412.5404 1243.4385,-360.5 1365,-360.5"/>
<polygon fill="#000000" stroke="#000000" points="236.9799,-699.866 226.7147,-696.0091 231.9899,-700.183 227,-700.5 227,-700.5 227,-700.5 231.9899,-700.183 227.2853,-704.9909 236.9799,-699.866 236.9799,-699.866"/>
<text text-anchor="start" x="205.7765" y="-710.5" font-family="Arial" font-size="10.00" fill="#000000">1&#45;n</text>
</g>
<!-- user_organization_roles -->
<g id="node3" class="node">
<title>user_organization_roles</title>
<polygon fill="#efefef" stroke="transparent" points="332,-865.5 332,-900.5 665,-900.5 665,-865.5 332,-865.5"/>
<polygon fill="none" stroke="#000000" points="332,-865.5 332,-900.5 665,-900.5 665,-865.5 332,-865.5"/>
<text text-anchor="start" x="338.695" y="-878.3" font-family="Arial Bold" font-size="18.00" fill="#000000">user_organization_roles</text>
<text text-anchor="start" x="530.737" y="-878.3" font-family="Arial" font-size="14.00" fill="#000000">    </text>
<text text-anchor="start" x="564.9418" y="-878.3" font-family="Arial" font-size="14.00" fill="#666666">[BASE TABLE]</text>
<polygon fill="none" stroke="#000000" points="332,-835.5 332,-865.5 665,-865.5 665,-835.5 332,-835.5"/>
<text text-anchor="start" x="339" y="-846.9" font-family="Arial" font-size="14.00" fill="#000000">id    </text>
<text text-anchor="start" x="384.094" y="-846.9" font-family="Arial" font-size="14.00" fill="#666666">[int]</text>
<polygon fill="none" stroke="#000000" points="332,-805.5 332,-835.5 665,-835.5 665,-805.5 332,-805.5"/>
<text text-anchor="start" x="339" y="-816.9" font-family="Arial" font-size="14.00" fill="#000000">userId    </text>
<text text-anchor="start" x="412.1038" y="-816.9" font-family="Arial" font-size="14.00" fill="#666666">[int]</text>
<polygon fill="none" stroke="#000000" points="332,-775.5 332,-805.5 665,-805.5 665,-775.5 332,-775.5"/>
<text text-anchor="start" x="339" y="-786.9" font-family="Arial" font-size="14.00" fill="#000000">organizationId    </text>
<text text-anchor="start" x="461.1206" y="-786.9" font-family="Arial" font-size="14.00" fill="#666666">[int]</text>
<polygon fill="none" stroke="#000000" points="332,-745.5 332,-775.5 665,-775.5 665,-745.5 332,-745.5"/>
<text text-anchor="start" x="339" y="-756.9" font-family="Arial" font-size="14.00" fill="#000000">roleId    </text>
<text text-anchor="start" x="408.2104" y="-756.9" font-family="Arial" font-size="14.00" fill="#666666">[int]</text>
<polygon fill="none" stroke="#000000" points="332,-715.5 332,-745.5 665,-745.5 665,-715.5 332,-715.5"/>
<text text-anchor="start" x="339" y="-726.9" font-family="Arial" font-size="14.00" fill="#000000">createdAt    </text>
<text text-anchor="start" x="433.1136" y="-726.9" font-family="Arial" font-size="14.00" fill="#666666">[timestamp]</text>
<polygon fill="none" stroke="#000000" points="332,-685.5 332,-715.5 665,-715.5 665,-685.5 332,-685.5"/>
<text text-anchor="start" x="339" y="-696.9" font-family="Arial" font-size="14.00" fill="#000000">updatedAt    </text>
<text text-anchor="start" x="437.0182" y="-696.9" font-family="Arial" font-size="14.00" fill="#666666">[timestamp]</text>
</g>
<!-- user_organization_roles&#45;&gt;organizations -->
<g id="edge2" class="edge">
<title>user_organization_roles:organizationId&#45;&gt;organizations:id</title>
<path fill="none" stroke="#000000" stroke-dasharray="5,2" d="M674.8789,-788.3367C725.5395,-763.8315 671.8786,-538.5388 716,-493 818.426,-387.2836 1217.8028,-360.5 1365,-360.5"/>
<polygon fill="#000000" stroke="#000000" points="674.7685,-788.3608 664.0373,-786.1042 669.8843,-789.4304 665,-790.5 665,-790.5 665,-790.5 669.8843,-789.4304 665.9627,-794.8958 674.7685,-788.3608 674.7685,-788.3608"/>
<text text-anchor="start" x="643.7765" y="-800.5" font-family="Arial" font-size="10.00" fill="#000000">1&#45;n</text>
</g>
<!-- user_organizations -->
<g id="node4" class="node">
<title>user_organizations</title>
<polygon fill="#efefef" stroke="transparent" points="769,-850.5 769,-885.5 1062,-885.5 1062,-850.5 769,-850.5"/>
<polygon fill="none" stroke="#000000" points="769,-850.5 769,-885.5 1062,-885.5 1062,-850.5 769,-850.5"/>
<text text-anchor="start" x="775.6975" y="-863.3" font-family="Arial Bold" font-size="18.00" fill="#000000">user_organizations</text>
<text text-anchor="start" x="927.7345" y="-863.3" font-family="Arial" font-size="14.00" fill="#000000">    </text>
<text text-anchor="start" x="961.9393" y="-863.3" font-family="Arial" font-size="14.00" fill="#666666">[BASE TABLE]</text>
<polygon fill="none" stroke="#000000" points="769,-820.5 769,-850.5 1062,-850.5 1062,-820.5 769,-820.5"/>
<text text-anchor="start" x="776" y="-831.9" font-family="Arial" font-size="14.00" fill="#000000">id    </text>
<text text-anchor="start" x="821.094" y="-831.9" font-family="Arial" font-size="14.00" fill="#666666">[int]</text>
<polygon fill="none" stroke="#000000" points="769,-790.5 769,-820.5 1062,-820.5 1062,-790.5 769,-790.5"/>
<text text-anchor="start" x="776" y="-801.9" font-family="Arial" font-size="14.00" fill="#000000">userId    </text>
<text text-anchor="start" x="849.1038" y="-801.9" font-family="Arial" font-size="14.00" fill="#666666">[int]</text>
<polygon fill="none" stroke="#000000" points="769,-760.5 769,-790.5 1062,-790.5 1062,-760.5 769,-760.5"/>
<text text-anchor="start" x="776" y="-771.9" font-family="Arial" font-size="14.00" fill="#000000">organizationId    </text>
<text text-anchor="start" x="898.1206" y="-771.9" font-family="Arial" font-size="14.00" fill="#666666">[int]</text>
<polygon fill="none" stroke="#000000" points="769,-730.5 769,-760.5 1062,-760.5 1062,-730.5 769,-730.5"/>
<text text-anchor="start" x="776" y="-741.9" font-family="Arial" font-size="14.00" fill="#000000">createdAt    </text>
<text text-anchor="start" x="870.1136" y="-741.9" font-family="Arial" font-size="14.00" fill="#666666">[timestamp]</text>
<polygon fill="none" stroke="#000000" points="769,-700.5 769,-730.5 1062,-730.5 1062,-700.5 769,-700.5"/>
<text text-anchor="start" x="776" y="-711.9" font-family="Arial" font-size="14.00" fill="#000000">updatedAt    </text>
<text text-anchor="start" x="874.0182" y="-711.9" font-family="Arial" font-size="14.00" fill="#666666">[timestamp]</text>
</g>
<!-- user_organizations&#45;&gt;organizations -->
<g id="edge3" class="edge">
<title>user_organizations:organizationId&#45;&gt;organizations:id</title>
<path fill="none" stroke="#000000" stroke-dasharray="5,2" d="M1071.7764,-773.3508C1120.3535,-749.9021 1077.4161,-541.5318 1113,-493 1187.8217,-390.9529 1238.4619,-360.5 1365,-360.5"/>
<polygon fill="#000000" stroke="#000000" points="1071.7668,-773.3529 1061.0338,-771.1049 1066.8834,-774.4264 1062,-775.5 1062,-775.5 1062,-775.5 1066.8834,-774.4264 1062.9662,-779.8951 1071.7668,-773.3529 1071.7668,-773.3529"/>
<text text-anchor="start" x="1040.7765" y="-785.5" font-family="Arial" font-size="10.00" fill="#000000">1&#45;n</text>
</g>
<!-- invoices -->
<g id="node5" class="node">
<title>invoices</title>
<polygon fill="#efefef" stroke="transparent" points="1166,-1015.5 1166,-1050.5 1407,-1050.5 1407,-1015.5 1166,-1015.5"/>
<polygon fill="none" stroke="#000000" points="1166,-1015.5 1166,-1050.5 1407,-1050.5 1407,-1015.5 1166,-1015.5"/>
<text text-anchor="start" x="1190.2125" y="-1028.3" font-family="Arial Bold" font-size="18.00" fill="#000000">invoices</text>
<text text-anchor="start" x="1255.2195" y="-1028.3" font-family="Arial" font-size="14.00" fill="#000000">    </text>
<text text-anchor="start" x="1289.4243" y="-1028.3" font-family="Arial" font-size="14.00" fill="#666666">[BASE TABLE]</text>
<polygon fill="none" stroke="#000000" points="1166,-985.5 1166,-1015.5 1407,-1015.5 1407,-985.5 1166,-985.5"/>
<text text-anchor="start" x="1173" y="-996.9" font-family="Arial" font-size="14.00" fill="#000000">id    </text>
<text text-anchor="start" x="1218.094" y="-996.9" font-family="Arial" font-size="14.00" fill="#666666">[int]</text>
<polygon fill="none" stroke="#000000" points="1166,-955.5 1166,-985.5 1407,-985.5 1407,-955.5 1166,-955.5"/>
<text text-anchor="start" x="1173" y="-966.9" font-family="Arial" font-size="14.00" fill="#000000">date    </text>
<text text-anchor="start" x="1234.4432" y="-966.9" font-family="Arial" font-size="14.00" fill="#666666">[timestamp]</text>
<polygon fill="none" stroke="#000000" points="1166,-925.5 1166,-955.5 1407,-955.5 1407,-925.5 1166,-925.5"/>
<text text-anchor="start" x="1173" y="-936.9" font-family="Arial" font-size="14.00" fill="#000000">createdAt    </text>
<text text-anchor="start" x="1267.1136" y="-936.9" font-family="Arial" font-size="14.00" fill="#666666">[timestamp]</text>
<polygon fill="none" stroke="#000000" points="1166,-895.5 1166,-925.5 1407,-925.5 1407,-895.5 1166,-895.5"/>
<text text-anchor="start" x="1173" y="-906.9" font-family="Arial" font-size="14.00" fill="#000000">updatedAt    </text>
<text text-anchor="start" x="1271.0182" y="-906.9" font-family="Arial" font-size="14.00" fill="#666666">[timestamp]</text>
<polygon fill="none" stroke="#000000" points="1166,-865.5 1166,-895.5 1407,-895.5 1407,-865.5 1166,-865.5"/>
<text text-anchor="start" x="1173" y="-876.9" font-family="Arial" font-size="14.00" fill="#000000">organizationId    </text>
<text text-anchor="start" x="1295.1206" y="-876.9" font-family="Arial" font-size="14.00" fill="#666666">[int]</text>
<polygon fill="none" stroke="#000000" points="1166,-835.5 1166,-865.5 1407,-865.5 1407,-835.5 1166,-835.5"/>
<text text-anchor="start" x="1173" y="-846.9" font-family="Arial" font-size="14.00" fill="#000000">total    </text>
<text text-anchor="start" x="1233.6578" y="-846.9" font-family="Arial" font-size="14.00" fill="#666666">[int]</text>
<polygon fill="none" stroke="#000000" points="1166,-805.5 1166,-835.5 1407,-835.5 1407,-805.5 1166,-805.5"/>
<text text-anchor="start" x="1173" y="-816.9" font-family="Arial" font-size="14.00" fill="#000000">currency    </text>
<text text-anchor="start" x="1260.8738" y="-816.9" font-family="Arial" font-size="14.00" fill="#666666">[enum(&#39;vnd&#39;,&#39;usd&#39;)]</text>
<polygon fill="none" stroke="#000000" points="1166,-775.5 1166,-805.5 1407,-805.5 1407,-775.5 1166,-775.5"/>
<text text-anchor="start" x="1172.9698" y="-786.9" font-family="Arial" font-size="14.00" fill="#000000">type    </text>
<text text-anchor="start" x="1233.6304" y="-786.9" font-family="Arial" font-size="14.00" fill="#666666">[enum(&#39;expense&#39;,&#39;income&#39;)]</text>
<polygon fill="none" stroke="#000000" points="1166,-745.5 1166,-775.5 1407,-775.5 1407,-745.5 1166,-745.5"/>
<text text-anchor="start" x="1173" y="-756.9" font-family="Arial" font-size="14.00" fill="#000000">projectId    </text>
<text text-anchor="start" x="1260.8836" y="-756.9" font-family="Arial" font-size="14.00" fill="#666666">[int]</text>
<polygon fill="none" stroke="#000000" points="1166,-715.5 1166,-745.5 1407,-745.5 1407,-715.5 1166,-715.5"/>
<text text-anchor="start" x="1173" y="-726.9" font-family="Arial" font-size="14.00" fill="#000000">categoryId    </text>
<text text-anchor="start" x="1272.5596" y="-726.9" font-family="Arial" font-size="14.00" fill="#666666">[int]</text>
<polygon fill="none" stroke="#000000" points="1166,-685.5 1166,-715.5 1407,-715.5 1407,-685.5 1166,-685.5"/>
<text text-anchor="start" x="1173" y="-696.9" font-family="Arial" font-size="14.00" fill="#000000">clientName    </text>
<text text-anchor="start" x="1277.2062" y="-696.9" font-family="Arial" font-size="14.00" fill="#666666">[varchar(255)]</text>
<polygon fill="none" stroke="#000000" points="1166,-655.5 1166,-685.5 1407,-685.5 1407,-655.5 1166,-655.5"/>
<text text-anchor="start" x="1173" y="-666.9" font-family="Arial" font-size="14.00" fill="#000000">tax    </text>
<text text-anchor="start" x="1225.878" y="-666.9" font-family="Arial" font-size="14.00" fill="#666666">[int]</text>
<polygon fill="none" stroke="#000000" points="1166,-625.5 1166,-655.5 1407,-655.5 1407,-625.5 1166,-625.5"/>
<text text-anchor="start" x="1173" y="-636.9" font-family="Arial" font-size="14.00" fill="#000000">uid    </text>
<text text-anchor="start" x="1225.8766" y="-636.9" font-family="Arial" font-size="14.00" fill="#666666">[varchar(255)]</text>
<polygon fill="none" stroke="#000000" points="1166,-595.5 1166,-625.5 1407,-625.5 1407,-595.5 1166,-595.5"/>
<text text-anchor="start" x="1173" y="-606.9" font-family="Arial" font-size="14.00" fill="#000000">exchangeRate    </text>
<text text-anchor="start" x="1297.4628" y="-606.9" font-family="Arial" font-size="14.00" fill="#666666">[decimal(10,0)]</text>
<polygon fill="none" stroke="#000000" points="1166,-565.5 1166,-595.5 1407,-595.5 1407,-565.5 1166,-565.5"/>
<text text-anchor="start" x="1173" y="-576.9" font-family="Arial" font-size="14.00" fill="#000000">note    </text>
<text text-anchor="start" x="1234.4432" y="-576.9" font-family="Arial" font-size="14.00" fill="#666666">[varchar(255)]</text>
<polygon fill="none" stroke="#000000" points="1166,-535.5 1166,-565.5 1407,-565.5 1407,-535.5 1166,-535.5"/>
<text text-anchor="start" x="1173" y="-546.9" font-family="Arial" font-size="14.00" fill="#000000">discount    </text>
<text text-anchor="start" x="1259.3324" y="-546.9" font-family="Arial" font-size="14.00" fill="#666666">[int]</text>
</g>
<!-- invoices&#45;&gt;organizations -->
<g id="edge4" class="edge">
<title>invoices:organizationId&#45;&gt;organizations:id</title>
<path fill="none" stroke="#000000" stroke-dasharray="5,2" d="M1416.9185,-878.9765C1489.0228,-855.5191 1441.5063,-568.0243 1407,-493 1396.7268,-470.6638 1375.2732,-479.3362 1365,-457 1347.0786,-418.0349 1322.1111,-360.5 1365,-360.5"/>
<polygon fill="#000000" stroke="#000000" points="1416.8841,-878.9817 1406.3167,-876.0522 1411.942,-879.7408 1407,-880.5 1407,-880.5 1407,-880.5 1411.942,-879.7408 1407.6833,-884.9478 1416.8841,-878.9817 1416.8841,-878.9817"/>
<text text-anchor="start" x="1385.7765" y="-890.5" font-family="Arial" font-size="10.00" fill="#000000">1&#45;n</text>
</g>
<!-- user_organization_invoices -->
<g id="node6" class="node">
<title>user_organization_invoices</title>
<polygon fill="#efefef" stroke="transparent" points="1511,-865.5 1511,-900.5 1870,-900.5 1870,-865.5 1511,-865.5"/>
<polygon fill="none" stroke="#000000" points="1511,-865.5 1511,-900.5 1870,-900.5 1870,-865.5 1511,-865.5"/>
<text text-anchor="start" x="1517.6909" y="-878.3" font-family="Arial Bold" font-size="18.00" fill="#000000">user_organization_invoices</text>
<text text-anchor="start" x="1735.7411" y="-878.3" font-family="Arial" font-size="14.00" fill="#000000">    </text>
<text text-anchor="start" x="1769.9459" y="-878.3" font-family="Arial" font-size="14.00" fill="#666666">[BASE TABLE]</text>
<polygon fill="none" stroke="#000000" points="1511,-835.5 1511,-865.5 1870,-865.5 1870,-835.5 1511,-835.5"/>
<text text-anchor="start" x="1518" y="-846.9" font-family="Arial" font-size="14.00" fill="#000000">id    </text>
<text text-anchor="start" x="1563.094" y="-846.9" font-family="Arial" font-size="14.00" fill="#666666">[int]</text>
<polygon fill="none" stroke="#000000" points="1511,-805.5 1511,-835.5 1870,-835.5 1870,-805.5 1511,-805.5"/>
<text text-anchor="start" x="1518" y="-816.9" font-family="Arial" font-size="14.00" fill="#000000">userId    </text>
<text text-anchor="start" x="1591.1038" y="-816.9" font-family="Arial" font-size="14.00" fill="#666666">[int]</text>
<polygon fill="none" stroke="#000000" points="1511,-775.5 1511,-805.5 1870,-805.5 1870,-775.5 1511,-775.5"/>
<text text-anchor="start" x="1518" y="-786.9" font-family="Arial" font-size="14.00" fill="#000000">organizationId    </text>
<text text-anchor="start" x="1640.1206" y="-786.9" font-family="Arial" font-size="14.00" fill="#666666">[int]</text>
<polygon fill="none" stroke="#000000" points="1511,-745.5 1511,-775.5 1870,-775.5 1870,-745.5 1511,-745.5"/>
<text text-anchor="start" x="1518" y="-756.9" font-family="Arial" font-size="14.00" fill="#000000">invoiceId    </text>
<text text-anchor="start" x="1607.439" y="-756.9" font-family="Arial" font-size="14.00" fill="#666666">[int]</text>
<polygon fill="none" stroke="#000000" points="1511,-715.5 1511,-745.5 1870,-745.5 1870,-715.5 1511,-715.5"/>
<text text-anchor="start" x="1518" y="-726.9" font-family="Arial" font-size="14.00" fill="#000000">createdAt    </text>
<text text-anchor="start" x="1612.1136" y="-726.9" font-family="Arial" font-size="14.00" fill="#666666">[timestamp]</text>
<polygon fill="none" stroke="#000000" points="1511,-685.5 1511,-715.5 1870,-715.5 1870,-685.5 1511,-685.5"/>
<text text-anchor="start" x="1518" y="-696.9" font-family="Arial" font-size="14.00" fill="#000000">updatedAt    </text>
<text text-anchor="start" x="1616.0182" y="-696.9" font-family="Arial" font-size="14.00" fill="#666666">[timestamp]</text>
</g>
<!-- user_organization_invoices&#45;&gt;organizations -->
<g id="edge5" class="edge">
<title>user_organization_invoices:organizationId&#45;&gt;organizations:id</title>
<path fill="none" stroke="#000000" stroke-dasharray="5,2" d="M1500.9391,-789.7106C1450.9217,-781.0506 1495.6519,-702.9076 1511,-643 1534.3987,-551.6688 1589.6013,-548.3312 1613,-457 1623.6442,-415.4529 1655.8889,-360.5 1613,-360.5"/>
<polygon fill="#000000" stroke="#000000" points="1501.0306,-789.7177 1510.6479,-794.9862 1506.0153,-790.1088 1511,-790.5 1511,-790.5 1511,-790.5 1506.0153,-790.1088 1511.3521,-786.0138 1501.0306,-789.7177 1501.0306,-789.7177"/>
<text text-anchor="start" x="1489.7765" y="-800.5" font-family="Arial" font-size="10.00" fill="#000000">1&#45;n</text>
</g>
<!-- projects -->
<g id="node7" class="node">
<title>projects</title>
<polygon fill="#efefef" stroke="transparent" points="1974,-925.5 1974,-960.5 2184,-960.5 2184,-925.5 1974,-925.5"/>
<polygon fill="none" stroke="#000000" points="1974,-925.5 1974,-960.5 2184,-960.5 2184,-925.5 1974,-925.5"/>
<text text-anchor="start" x="1983.7124" y="-938.3" font-family="Arial Bold" font-size="18.00" fill="#000000">projects</text>
<text text-anchor="start" x="2046.7196" y="-938.3" font-family="Arial" font-size="14.00" fill="#000000">    </text>
<text text-anchor="start" x="2080.9244" y="-938.3" font-family="Arial" font-size="14.00" fill="#666666">[BASE TABLE]</text>
<polygon fill="none" stroke="#000000" points="1974,-895.5 1974,-925.5 2184,-925.5 2184,-895.5 1974,-895.5"/>
<text text-anchor="start" x="1981" y="-906.9" font-family="Arial" font-size="14.00" fill="#000000">id    </text>
<text text-anchor="start" x="2026.094" y="-906.9" font-family="Arial" font-size="14.00" fill="#666666">[int]</text>
<polygon fill="none" stroke="#000000" points="1974,-865.5 1974,-895.5 2184,-895.5 2184,-865.5 1974,-865.5"/>
<text text-anchor="start" x="1981" y="-876.9" font-family="Arial" font-size="14.00" fill="#000000">name    </text>
<text text-anchor="start" x="2050.2132" y="-876.9" font-family="Arial" font-size="14.00" fill="#666666">[varchar(255)]</text>
<polygon fill="none" stroke="#000000" points="1974,-835.5 1974,-865.5 2184,-865.5 2184,-835.5 1974,-835.5"/>
<text text-anchor="start" x="1981" y="-846.9" font-family="Arial" font-size="14.00" fill="#000000">totalBudget    </text>
<text text-anchor="start" x="2086.0154" y="-846.9" font-family="Arial" font-size="14.00" fill="#666666">[int]</text>
<polygon fill="none" stroke="#000000" points="1974,-805.5 1974,-835.5 2184,-835.5 2184,-805.5 1974,-805.5"/>
<text text-anchor="start" x="1981" y="-816.9" font-family="Arial" font-size="14.00" fill="#000000">startDate    </text>
<text text-anchor="start" x="2071.9916" y="-816.9" font-family="Arial" font-size="14.00" fill="#666666">[timestamp]</text>
<polygon fill="none" stroke="#000000" points="1974,-775.5 1974,-805.5 2184,-805.5 2184,-775.5 1974,-775.5"/>
<text text-anchor="start" x="1981" y="-786.9" font-family="Arial" font-size="14.00" fill="#000000">endDate    </text>
<text text-anchor="start" x="2068.115" y="-786.9" font-family="Arial" font-size="14.00" fill="#666666">[timestamp]</text>
<polygon fill="none" stroke="#000000" points="1974,-745.5 1974,-775.5 2184,-775.5 2184,-745.5 1974,-745.5"/>
<text text-anchor="start" x="1981" y="-756.9" font-family="Arial" font-size="14.00" fill="#000000">createdAt    </text>
<text text-anchor="start" x="2075.1136" y="-756.9" font-family="Arial" font-size="14.00" fill="#666666">[timestamp]</text>
<polygon fill="none" stroke="#000000" points="1974,-715.5 1974,-745.5 2184,-745.5 2184,-715.5 1974,-715.5"/>
<text text-anchor="start" x="1981" y="-726.9" font-family="Arial" font-size="14.00" fill="#000000">updatedAt    </text>
<text text-anchor="start" x="2079.0182" y="-726.9" font-family="Arial" font-size="14.00" fill="#666666">[timestamp]</text>
<polygon fill="none" stroke="#000000" points="1974,-685.5 1974,-715.5 2184,-715.5 2184,-685.5 1974,-685.5"/>
<text text-anchor="start" x="1981" y="-696.9" font-family="Arial" font-size="14.00" fill="#000000">organizationId    </text>
<text text-anchor="start" x="2103.1206" y="-696.9" font-family="Arial" font-size="14.00" fill="#666666">[int]</text>
<polygon fill="none" stroke="#000000" points="1974,-655.5 1974,-685.5 2184,-685.5 2184,-655.5 1974,-655.5"/>
<text text-anchor="start" x="1981" y="-666.9" font-family="Arial" font-size="14.00" fill="#000000">creatorId    </text>
<text text-anchor="start" x="2070.4376" y="-666.9" font-family="Arial" font-size="14.00" fill="#666666">[int]</text>
<polygon fill="none" stroke="#000000" points="1974,-625.5 1974,-655.5 2184,-655.5 2184,-625.5 1974,-625.5"/>
<text text-anchor="start" x="1980.608" y="-636.9" font-family="Arial" font-size="14.00" fill="#000000">description    </text>
<text text-anchor="start" x="2082.4902" y="-636.9" font-family="Arial" font-size="14.00" fill="#666666">[varchar(2000)]</text>
</g>
<!-- projects&#45;&gt;organizations -->
<g id="edge6" class="edge">
<title>projects:organizationId&#45;&gt;organizations:id</title>
<path fill="none" stroke="#000000" stroke-dasharray="5,2" d="M1963.7513,-699.8932C1886.8542,-690.0388 1981.2481,-562.5438 1922,-493 1825.095,-379.2557 1762.4267,-360.5 1613,-360.5"/>
<polygon fill="#000000" stroke="#000000" points="1964.0175,-699.9089 1973.734,-704.9921 1969.0087,-700.2044 1974,-700.5 1974,-700.5 1974,-700.5 1969.0087,-700.2044 1974.266,-696.0079 1964.0175,-699.9089 1964.0175,-699.9089"/>
<text text-anchor="start" x="1952.7765" y="-710.5" font-family="Arial" font-size="10.00" fill="#000000">1&#45;n</text>
</g>
<!-- budgets -->
<g id="node8" class="node">
<title>budgets</title>
<polygon fill="#efefef" stroke="transparent" points="2289,-880.5 2289,-915.5 2494,-915.5 2494,-880.5 2289,-880.5"/>
<polygon fill="none" stroke="#000000" points="2289,-880.5 2289,-915.5 2494,-915.5 2494,-880.5 2289,-880.5"/>
<text text-anchor="start" x="2295.6994" y="-893.3" font-family="Arial Bold" font-size="18.00" fill="#000000">budgets</text>
<text text-anchor="start" x="2359.7326" y="-893.3" font-family="Arial" font-size="14.00" fill="#000000">    </text>
<text text-anchor="start" x="2393.9374" y="-893.3" font-family="Arial" font-size="14.00" fill="#666666">[BASE TABLE]</text>
<polygon fill="none" stroke="#000000" points="2289,-850.5 2289,-880.5 2494,-880.5 2494,-850.5 2289,-850.5"/>
<text text-anchor="start" x="2296" y="-861.9" font-family="Arial" font-size="14.00" fill="#000000">id    </text>
<text text-anchor="start" x="2341.094" y="-861.9" font-family="Arial" font-size="14.00" fill="#666666">[int]</text>
<polygon fill="none" stroke="#000000" points="2289,-820.5 2289,-850.5 2494,-850.5 2494,-820.5 2289,-820.5"/>
<text text-anchor="start" x="2296" y="-831.9" font-family="Arial" font-size="14.00" fill="#000000">projectId    </text>
<text text-anchor="start" x="2383.8836" y="-831.9" font-family="Arial" font-size="14.00" fill="#666666">[int]</text>
<polygon fill="none" stroke="#000000" points="2289,-790.5 2289,-820.5 2494,-820.5 2494,-790.5 2289,-790.5"/>
<text text-anchor="start" x="2296" y="-801.9" font-family="Arial" font-size="14.00" fill="#000000">categoryId    </text>
<text text-anchor="start" x="2395.5596" y="-801.9" font-family="Arial" font-size="14.00" fill="#666666">[int]</text>
<polygon fill="none" stroke="#000000" points="2289,-760.5 2289,-790.5 2494,-790.5 2494,-760.5 2289,-760.5"/>
<text text-anchor="start" x="2296" y="-771.9" font-family="Arial" font-size="14.00" fill="#000000">amount    </text>
<text text-anchor="start" x="2376.8864" y="-771.9" font-family="Arial" font-size="14.00" fill="#666666">[int]</text>
<polygon fill="none" stroke="#000000" points="2289,-730.5 2289,-760.5 2494,-760.5 2494,-730.5 2289,-730.5"/>
<text text-anchor="start" x="2296" y="-741.9" font-family="Arial" font-size="14.00" fill="#000000">createdAt    </text>
<text text-anchor="start" x="2390.1136" y="-741.9" font-family="Arial" font-size="14.00" fill="#666666">[timestamp]</text>
<polygon fill="none" stroke="#000000" points="2289,-700.5 2289,-730.5 2494,-730.5 2494,-700.5 2289,-700.5"/>
<text text-anchor="start" x="2296" y="-711.9" font-family="Arial" font-size="14.00" fill="#000000">updatedAt    </text>
<text text-anchor="start" x="2394.0182" y="-711.9" font-family="Arial" font-size="14.00" fill="#666666">[timestamp]</text>
<polygon fill="none" stroke="#000000" points="2289,-670.5 2289,-700.5 2494,-700.5 2494,-670.5 2289,-670.5"/>
<text text-anchor="start" x="2296" y="-681.9" font-family="Arial" font-size="14.00" fill="#000000">organizationId    </text>
<text text-anchor="start" x="2418.1206" y="-681.9" font-family="Arial" font-size="14.00" fill="#666666">[int]</text>
</g>
<!-- budgets&#45;&gt;organizations -->
<g id="edge7" class="edge">
<title>budgets:organizationId&#45;&gt;organizations:id</title>
<path fill="none" stroke="#000000" stroke-dasharray="5,2" d="M2279.0106,-684.8496C2208.2124,-674.821 2297.9262,-551.3699 2236,-493 2133.0016,-395.9167 1754.5409,-360.5 1613,-360.5"/>
<polygon fill="#000000" stroke="#000000" points="2279.0211,-684.8502 2288.7076,-689.9905 2284.0106,-685.1751 2289,-685.5 2289,-685.5 2289,-685.5 2284.0106,-685.1751 2289.2924,-681.0095 2279.0211,-684.8502 2279.0211,-684.8502"/>
<text text-anchor="start" x="2267.7765" y="-695.5" font-family="Arial" font-size="10.00" fill="#000000">1&#45;n</text>
</g>
<!-- categories -->
<g id="node9" class="node">
<title>categories</title>
<polygon fill="#efefef" stroke="transparent" points="2598,-910.5 2598,-945.5 2839,-945.5 2839,-910.5 2598,-910.5"/>
<polygon fill="none" stroke="#000000" points="2598,-910.5 2598,-945.5 2839,-945.5 2839,-910.5 2598,-910.5"/>
<text text-anchor="start" x="2613.2062" y="-923.3" font-family="Arial Bold" font-size="18.00" fill="#000000">categories</text>
<text text-anchor="start" x="2696.2258" y="-923.3" font-family="Arial" font-size="14.00" fill="#000000">    </text>
<text text-anchor="start" x="2730.4306" y="-923.3" font-family="Arial" font-size="14.00" fill="#666666">[BASE TABLE]</text>
<polygon fill="none" stroke="#000000" points="2598,-880.5 2598,-910.5 2839,-910.5 2839,-880.5 2598,-880.5"/>
<text text-anchor="start" x="2605" y="-891.9" font-family="Arial" font-size="14.00" fill="#000000">id    </text>
<text text-anchor="start" x="2650.094" y="-891.9" font-family="Arial" font-size="14.00" fill="#666666">[int]</text>
<polygon fill="none" stroke="#000000" points="2598,-850.5 2598,-880.5 2839,-880.5 2839,-850.5 2598,-850.5"/>
<text text-anchor="start" x="2605" y="-861.9" font-family="Arial" font-size="14.00" fill="#000000">name    </text>
<text text-anchor="start" x="2674.2132" y="-861.9" font-family="Arial" font-size="14.00" fill="#666666">[varchar(255)]</text>
<polygon fill="none" stroke="#000000" points="2598,-820.5 2598,-850.5 2839,-850.5 2839,-820.5 2598,-820.5"/>
<text text-anchor="start" x="2605" y="-831.9" font-family="Arial" font-size="14.00" fill="#000000">color    </text>
<text text-anchor="start" x="2669.5372" y="-831.9" font-family="Arial" font-size="14.00" fill="#666666">[varchar(255)]</text>
<polygon fill="none" stroke="#000000" points="2598,-790.5 2598,-820.5 2839,-820.5 2839,-790.5 2598,-790.5"/>
<text text-anchor="start" x="2605" y="-801.9" font-family="Arial" font-size="14.00" fill="#000000">icon    </text>
<text text-anchor="start" x="2664.8766" y="-801.9" font-family="Arial" font-size="14.00" fill="#666666">[varchar(255)]</text>
<polygon fill="none" stroke="#000000" points="2598,-760.5 2598,-790.5 2839,-790.5 2839,-760.5 2598,-760.5"/>
<text text-anchor="start" x="2604.9698" y="-771.9" font-family="Arial" font-size="14.00" fill="#000000">type    </text>
<text text-anchor="start" x="2665.6304" y="-771.9" font-family="Arial" font-size="14.00" fill="#666666">[enum(&#39;expense&#39;,&#39;income&#39;)]</text>
<polygon fill="none" stroke="#000000" points="2598,-730.5 2598,-760.5 2839,-760.5 2839,-730.5 2598,-730.5"/>
<text text-anchor="start" x="2605" y="-741.9" font-family="Arial" font-size="14.00" fill="#000000">createdAt    </text>
<text text-anchor="start" x="2699.1136" y="-741.9" font-family="Arial" font-size="14.00" fill="#666666">[timestamp]</text>
<polygon fill="none" stroke="#000000" points="2598,-700.5 2598,-730.5 2839,-730.5 2839,-700.5 2598,-700.5"/>
<text text-anchor="start" x="2605" y="-711.9" font-family="Arial" font-size="14.00" fill="#000000">updatedAt    </text>
<text text-anchor="start" x="2703.0182" y="-711.9" font-family="Arial" font-size="14.00" fill="#666666">[timestamp]</text>
<polygon fill="none" stroke="#000000" points="2598,-670.5 2598,-700.5 2839,-700.5 2839,-670.5 2598,-670.5"/>
<text text-anchor="start" x="2605" y="-681.9" font-family="Arial" font-size="14.00" fill="#000000">organizationId    </text>
<text text-anchor="start" x="2727.1206" y="-681.9" font-family="Arial" font-size="14.00" fill="#666666">[int]</text>
<polygon fill="none" stroke="#000000" points="2598,-640.5 2598,-670.5 2839,-670.5 2839,-640.5 2598,-640.5"/>
<text text-anchor="start" x="2605" y="-651.9" font-family="Arial" font-size="14.00" fill="#000000">projectId    </text>
<text text-anchor="start" x="2692.8836" y="-651.9" font-family="Arial" font-size="14.00" fill="#666666">[int]</text>
</g>
<!-- categories&#45;&gt;organizations -->
<g id="edge8" class="edge">
<title>categories:organizationId&#45;&gt;organizations:id</title>
<path fill="none" stroke="#000000" stroke-dasharray="5,2" d="M2587.6089,-684.7755C2517.9178,-674.1405 2609.5385,-549.1809 2546,-493 2467.5588,-423.6422 1717.7068,-360.5 1613,-360.5"/>
<polygon fill="#000000" stroke="#000000" points="2588.0242,-684.8044 2597.687,-689.9891 2593.0121,-685.1522 2598,-685.5 2598,-685.5 2598,-685.5 2593.0121,-685.1522 2598.313,-681.0109 2588.0242,-684.8044 2588.0242,-684.8044"/>
<text text-anchor="start" x="2576.7765" y="-695.5" font-family="Arial" font-size="10.00" fill="#000000">1&#45;n</text>
</g>
</g>
</svg>
