<?xml version="1.0" encoding="UTF-8" standalone="no"?>
<!DOCTYPE svg PUBLIC "-//W3C//DTD SVG 1.1//EN"
 "http://www.w3.org/Graphics/SVG/1.1/DTD/svg11.dtd">
<!-- Generated by graphviz version 2.40.1 (20161225.0304)
 -->
<!-- Title: organizations Pages: 1 -->
<svg width="1895pt" height="652pt"
 viewBox="0.00 0.00 1894.50 652.00" xmlns="http://www.w3.org/2000/svg" xmlns:xlink="http://www.w3.org/1999/xlink">
<g id="graph0" class="graph" transform="scale(1 1) rotate(0) translate(4 648)">
<title>organizations</title>
<polygon fill="#ffffff" stroke="transparent" points="-4,4 -4,-648 1890.5,-648 1890.5,4 -4,4"/>
<!-- organizations -->
<g id="node1" class="node">
<title>organizations</title>
<polygon fill="#efefef" stroke="transparent" points="792,-195.5 792,-230.5 1040,-230.5 1040,-195.5 792,-195.5"/>
<polygon fill="none" stroke="#000000" points="792,-195.5 792,-230.5 1040,-230.5 1040,-195.5 792,-195.5"/>
<text text-anchor="start" x="798.7029" y="-208.3" font-family="Arial Bold" font-size="18.00" fill="#000000">organizations</text>
<text text-anchor="start" x="905.7291" y="-208.3" font-family="Arial" font-size="14.00" fill="#000000">    </text>
<text text-anchor="start" x="939.9339" y="-208.3" font-family="Arial" font-size="14.00" fill="#666666">[BASE TABLE]</text>
<polygon fill="none" stroke="#000000" points="792,-165.5 792,-195.5 1040,-195.5 1040,-165.5 792,-165.5"/>
<text text-anchor="start" x="799" y="-176.9" font-family="Arial" font-size="14.00" fill="#000000">id </text>
<text text-anchor="start" x="813.7798" y="-176.9" font-family="Arial" font-size="14.00" fill="#666666">[int]</text>
<polygon fill="none" stroke="#000000" points="792,-135.5 792,-165.5 1040,-165.5 1040,-135.5 792,-135.5"/>
<text text-anchor="start" x="799" y="-146.9" font-family="Arial" font-size="14.00" fill="#000000">name </text>
<text text-anchor="start" x="837.899" y="-146.9" font-family="Arial" font-size="14.00" fill="#666666">[varchar(255)]</text>
<polygon fill="none" stroke="#000000" points="792,-105.5 792,-135.5 1040,-135.5 1040,-105.5 792,-105.5"/>
<text text-anchor="start" x="799" y="-116.9" font-family="Arial" font-size="14.00" fill="#000000">uniqueName </text>
<text text-anchor="start" x="882.2426" y="-116.9" font-family="Arial" font-size="14.00" fill="#666666">[varchar(255)]</text>
<polygon fill="none" stroke="#000000" points="792,-75.5 792,-105.5 1040,-105.5 1040,-75.5 792,-75.5"/>
<text text-anchor="start" x="799" y="-86.9" font-family="Arial" font-size="14.00" fill="#000000">createdAt </text>
<text text-anchor="start" x="862.7994" y="-86.9" font-family="Arial" font-size="14.00" fill="#666666">[timestamp]</text>
<polygon fill="none" stroke="#000000" points="792,-45.5 792,-75.5 1040,-75.5 1040,-45.5 792,-45.5"/>
<text text-anchor="start" x="799" y="-56.9" font-family="Arial" font-size="14.00" fill="#000000">updatedAt </text>
<text text-anchor="start" x="866.704" y="-56.9" font-family="Arial" font-size="14.00" fill="#666666">[timestamp]</text>
<polygon fill="none" stroke="#000000" stroke-width="3" points="790.5,-44.5 790.5,-232.5 1041.5,-232.5 1041.5,-44.5 790.5,-44.5"/>
</g>
<!-- roles -->
<g id="node2" class="node">
<title>roles</title>
<polygon fill="#efefef" stroke="transparent" points="43,-550.5 43,-585.5 227,-585.5 227,-550.5 43,-550.5"/>
<polygon fill="none" stroke="#000000" points="43,-550.5 43,-585.5 227,-585.5 227,-550.5 43,-550.5"/>
<text text-anchor="start" x="51.7166" y="-563.3" font-family="Arial Bold" font-size="18.00" fill="#000000">roles</text>
<text text-anchor="start" x="90.7154" y="-563.3" font-family="Arial" font-size="14.00" fill="#000000">    </text>
<text text-anchor="start" x="124.9202" y="-563.3" font-family="Arial" font-size="14.00" fill="#666666">[BASE TABLE]</text>
<polygon fill="none" stroke="#000000" points="43,-520.5 43,-550.5 227,-550.5 227,-520.5 43,-520.5"/>
<text text-anchor="start" x="50" y="-531.9" font-family="Arial" font-size="14.00" fill="#000000">id    </text>
<text text-anchor="start" x="95.094" y="-531.9" font-family="Arial" font-size="14.00" fill="#666666">[int]</text>
<polygon fill="none" stroke="#000000" points="43,-490.5 43,-520.5 227,-520.5 227,-490.5 43,-490.5"/>
<text text-anchor="start" x="50" y="-501.9" font-family="Arial" font-size="14.00" fill="#000000">name    </text>
<text text-anchor="start" x="119.2132" y="-501.9" font-family="Arial" font-size="14.00" fill="#666666">[varchar(255)]</text>
<polygon fill="none" stroke="#000000" points="43,-460.5 43,-490.5 227,-490.5 227,-460.5 43,-460.5"/>
<text text-anchor="start" x="50" y="-471.9" font-family="Arial" font-size="14.00" fill="#000000">slug    </text>
<text text-anchor="start" x="109.8766" y="-471.9" font-family="Arial" font-size="14.00" fill="#666666">[varchar(255)]</text>
<polygon fill="none" stroke="#000000" points="43,-430.5 43,-460.5 227,-460.5 227,-430.5 43,-430.5"/>
<text text-anchor="start" x="50" y="-441.9" font-family="Arial" font-size="14.00" fill="#000000">createdAt    </text>
<text text-anchor="start" x="144.1136" y="-441.9" font-family="Arial" font-size="14.00" fill="#666666">[timestamp]</text>
<polygon fill="none" stroke="#000000" points="43,-400.5 43,-430.5 227,-430.5 227,-400.5 43,-400.5"/>
<text text-anchor="start" x="49.8219" y="-411.9" font-family="Arial" font-size="14.00" fill="#000000">updatedAt    </text>
<text text-anchor="start" x="147.8401" y="-411.9" font-family="Arial" font-size="14.00" fill="#666666">[timestamp]</text>
<polygon fill="none" stroke="#000000" points="43,-370.5 43,-400.5 227,-400.5 227,-370.5 43,-370.5"/>
<text text-anchor="start" x="50" y="-381.9" font-family="Arial" font-size="14.00" fill="#000000">organizationId    </text>
<text text-anchor="start" x="172.1206" y="-381.9" font-family="Arial" font-size="14.00" fill="#666666">[int]</text>
</g>
<!-- roles&#45;&gt;organizations -->
<g id="edge1" class="edge">
<title>roles:organizationId&#45;&gt;organizations:id</title>
<path fill="none" stroke="#000000" stroke-dasharray="5,2" d="M237.0054,-384.1394C263.182,-375.9812 249.4823,-333.2235 279,-313 376.131,-246.4526 674.2589,-180.5 792,-180.5"/>
<polygon fill="#000000" stroke="#000000" points="236.9088,-384.1524 226.3936,-381.041 231.9544,-384.8262 227,-385.5 227,-385.5 227,-385.5 231.9544,-384.8262 227.6064,-389.959 236.9088,-384.1524 236.9088,-384.1524"/>
<text text-anchor="start" x="205.7765" y="-395.5" font-family="Arial" font-size="10.00" fill="#000000">1&#45;n</text>
</g>
<!-- user_organization_roles -->
<g id="node3" class="node">
<title>user_organization_roles</title>
<polygon fill="#efefef" stroke="transparent" points="332,-550.5 332,-585.5 665,-585.5 665,-550.5 332,-550.5"/>
<polygon fill="none" stroke="#000000" points="332,-550.5 332,-585.5 665,-585.5 665,-550.5 332,-550.5"/>
<text text-anchor="start" x="338.695" y="-563.3" font-family="Arial Bold" font-size="18.00" fill="#000000">user_organization_roles</text>
<text text-anchor="start" x="530.737" y="-563.3" font-family="Arial" font-size="14.00" fill="#000000">    </text>
<text text-anchor="start" x="564.9418" y="-563.3" font-family="Arial" font-size="14.00" fill="#666666">[BASE TABLE]</text>
<polygon fill="none" stroke="#000000" points="332,-520.5 332,-550.5 665,-550.5 665,-520.5 332,-520.5"/>
<text text-anchor="start" x="339" y="-531.9" font-family="Arial" font-size="14.00" fill="#000000">id    </text>
<text text-anchor="start" x="384.094" y="-531.9" font-family="Arial" font-size="14.00" fill="#666666">[int]</text>
<polygon fill="none" stroke="#000000" points="332,-490.5 332,-520.5 665,-520.5 665,-490.5 332,-490.5"/>
<text text-anchor="start" x="339" y="-501.9" font-family="Arial" font-size="14.00" fill="#000000">userId    </text>
<text text-anchor="start" x="412.1038" y="-501.9" font-family="Arial" font-size="14.00" fill="#666666">[int]</text>
<polygon fill="none" stroke="#000000" points="332,-460.5 332,-490.5 665,-490.5 665,-460.5 332,-460.5"/>
<text text-anchor="start" x="339" y="-471.9" font-family="Arial" font-size="14.00" fill="#000000">organizationId    </text>
<text text-anchor="start" x="461.1206" y="-471.9" font-family="Arial" font-size="14.00" fill="#666666">[int]</text>
<polygon fill="none" stroke="#000000" points="332,-430.5 332,-460.5 665,-460.5 665,-430.5 332,-430.5"/>
<text text-anchor="start" x="339" y="-441.9" font-family="Arial" font-size="14.00" fill="#000000">roleId    </text>
<text text-anchor="start" x="408.2104" y="-441.9" font-family="Arial" font-size="14.00" fill="#666666">[int]</text>
<polygon fill="none" stroke="#000000" points="332,-400.5 332,-430.5 665,-430.5 665,-400.5 332,-400.5"/>
<text text-anchor="start" x="339" y="-411.9" font-family="Arial" font-size="14.00" fill="#000000">createdAt    </text>
<text text-anchor="start" x="433.1136" y="-411.9" font-family="Arial" font-size="14.00" fill="#666666">[timestamp]</text>
<polygon fill="none" stroke="#000000" points="332,-370.5 332,-400.5 665,-400.5 665,-370.5 332,-370.5"/>
<text text-anchor="start" x="339" y="-381.9" font-family="Arial" font-size="14.00" fill="#000000">updatedAt    </text>
<text text-anchor="start" x="437.0182" y="-381.9" font-family="Arial" font-size="14.00" fill="#666666">[timestamp]</text>
</g>
<!-- user_organization_roles&#45;&gt;organizations -->
<g id="edge2" class="edge">
<title>user_organization_roles:organizationId&#45;&gt;organizations:id</title>
<path fill="none" stroke="#000000" stroke-dasharray="5,2" d="M675.1783,-474.8473C735.5244,-466.4599 687.1392,-378.962 716,-313 743.2128,-250.8043 724.1116,-180.5 792,-180.5"/>
<polygon fill="#000000" stroke="#000000" points="674.9795,-474.86 664.712,-471.0092 669.9898,-475.18 665,-475.5 665,-475.5 665,-475.5 669.9898,-475.18 665.288,-479.9908 674.9795,-474.86 674.9795,-474.86"/>
<text text-anchor="start" x="643.7765" y="-485.5" font-family="Arial" font-size="10.00" fill="#000000">1&#45;n</text>
</g>
<!-- user_organizations -->
<g id="node4" class="node">
<title>user_organizations</title>
<polygon fill="#efefef" stroke="transparent" points="769,-535.5 769,-570.5 1062,-570.5 1062,-535.5 769,-535.5"/>
<polygon fill="none" stroke="#000000" points="769,-535.5 769,-570.5 1062,-570.5 1062,-535.5 769,-535.5"/>
<text text-anchor="start" x="775.6975" y="-548.3" font-family="Arial Bold" font-size="18.00" fill="#000000">user_organizations</text>
<text text-anchor="start" x="927.7345" y="-548.3" font-family="Arial" font-size="14.00" fill="#000000">    </text>
<text text-anchor="start" x="961.9393" y="-548.3" font-family="Arial" font-size="14.00" fill="#666666">[BASE TABLE]</text>
<polygon fill="none" stroke="#000000" points="769,-505.5 769,-535.5 1062,-535.5 1062,-505.5 769,-505.5"/>
<text text-anchor="start" x="776" y="-516.9" font-family="Arial" font-size="14.00" fill="#000000">id    </text>
<text text-anchor="start" x="821.094" y="-516.9" font-family="Arial" font-size="14.00" fill="#666666">[int]</text>
<polygon fill="none" stroke="#000000" points="769,-475.5 769,-505.5 1062,-505.5 1062,-475.5 769,-475.5"/>
<text text-anchor="start" x="776" y="-486.9" font-family="Arial" font-size="14.00" fill="#000000">userId    </text>
<text text-anchor="start" x="849.1038" y="-486.9" font-family="Arial" font-size="14.00" fill="#666666">[int]</text>
<polygon fill="none" stroke="#000000" points="769,-445.5 769,-475.5 1062,-475.5 1062,-445.5 769,-445.5"/>
<text text-anchor="start" x="776" y="-456.9" font-family="Arial" font-size="14.00" fill="#000000">organizationId    </text>
<text text-anchor="start" x="898.1206" y="-456.9" font-family="Arial" font-size="14.00" fill="#666666">[int]</text>
<polygon fill="none" stroke="#000000" points="769,-415.5 769,-445.5 1062,-445.5 1062,-415.5 769,-415.5"/>
<text text-anchor="start" x="776" y="-426.9" font-family="Arial" font-size="14.00" fill="#000000">createdAt    </text>
<text text-anchor="start" x="870.1136" y="-426.9" font-family="Arial" font-size="14.00" fill="#666666">[timestamp]</text>
<polygon fill="none" stroke="#000000" points="769,-385.5 769,-415.5 1062,-415.5 1062,-385.5 769,-385.5"/>
<text text-anchor="start" x="776" y="-396.9" font-family="Arial" font-size="14.00" fill="#000000">updatedAt    </text>
<text text-anchor="start" x="874.0182" y="-396.9" font-family="Arial" font-size="14.00" fill="#666666">[timestamp]</text>
</g>
<!-- user_organizations&#45;&gt;organizations -->
<g id="edge3" class="edge">
<title>user_organizations:organizationId&#45;&gt;organizations:id</title>
<path fill="none" stroke="#000000" stroke-dasharray="5,2" d="M1071.9656,-459.4054C1111.3524,-449.9278 1091.9786,-381.1893 1062,-343 985.7215,-245.8298 868.2785,-374.1702 792,-277 765.5173,-243.264 749.1111,-180.5 792,-180.5"/>
<polygon fill="#000000" stroke="#000000" points="1071.9402,-459.4081 1061.5086,-456.0269 1066.9701,-459.954 1062,-460.5 1062,-460.5 1062,-460.5 1066.9701,-459.954 1062.4914,-464.9731 1071.9402,-459.4081 1071.9402,-459.4081"/>
<text text-anchor="start" x="1040.7765" y="-470.5" font-family="Arial" font-size="10.00" fill="#000000">1&#45;n</text>
</g>
<!-- invoices -->
<g id="node5" class="node">
<title>invoices</title>
<polygon fill="#efefef" stroke="transparent" points="1166,-565.5 1166,-600.5 1381,-600.5 1381,-565.5 1166,-565.5"/>
<polygon fill="none" stroke="#000000" points="1166,-565.5 1166,-600.5 1381,-600.5 1381,-565.5 1166,-565.5"/>
<text text-anchor="start" x="1177.2125" y="-578.3" font-family="Arial Bold" font-size="18.00" fill="#000000">invoices</text>
<text text-anchor="start" x="1242.2195" y="-578.3" font-family="Arial" font-size="14.00" fill="#000000">    </text>
<text text-anchor="start" x="1276.4243" y="-578.3" font-family="Arial" font-size="14.00" fill="#666666">[BASE TABLE]</text>
<polygon fill="none" stroke="#000000" points="1166,-535.5 1166,-565.5 1381,-565.5 1381,-535.5 1166,-535.5"/>
<text text-anchor="start" x="1173" y="-546.9" font-family="Arial" font-size="14.00" fill="#000000">id    </text>
<text text-anchor="start" x="1218.094" y="-546.9" font-family="Arial" font-size="14.00" fill="#666666">[int]</text>
<polygon fill="none" stroke="#000000" points="1166,-505.5 1166,-535.5 1381,-535.5 1381,-505.5 1166,-505.5"/>
<text text-anchor="start" x="1173" y="-516.9" font-family="Arial" font-size="14.00" fill="#000000">date    </text>
<text text-anchor="start" x="1234.4432" y="-516.9" font-family="Arial" font-size="14.00" fill="#666666">[timestamp]</text>
<polygon fill="none" stroke="#000000" points="1166,-475.5 1166,-505.5 1381,-505.5 1381,-475.5 1166,-475.5"/>
<text text-anchor="start" x="1173" y="-486.9" font-family="Arial" font-size="14.00" fill="#000000">createdAt    </text>
<text text-anchor="start" x="1267.1136" y="-486.9" font-family="Arial" font-size="14.00" fill="#666666">[timestamp]</text>
<polygon fill="none" stroke="#000000" points="1166,-445.5 1166,-475.5 1381,-475.5 1381,-445.5 1166,-445.5"/>
<text text-anchor="start" x="1173" y="-456.9" font-family="Arial" font-size="14.00" fill="#000000">updatedAt    </text>
<text text-anchor="start" x="1271.0182" y="-456.9" font-family="Arial" font-size="14.00" fill="#666666">[timestamp]</text>
<polygon fill="none" stroke="#000000" points="1166,-415.5 1166,-445.5 1381,-445.5 1381,-415.5 1166,-415.5"/>
<text text-anchor="start" x="1173" y="-426.9" font-family="Arial" font-size="14.00" fill="#000000">organizationId    </text>
<text text-anchor="start" x="1295.1206" y="-426.9" font-family="Arial" font-size="14.00" fill="#666666">[int]</text>
<polygon fill="none" stroke="#000000" points="1166,-385.5 1166,-415.5 1381,-415.5 1381,-385.5 1166,-385.5"/>
<text text-anchor="start" x="1173" y="-396.9" font-family="Arial" font-size="14.00" fill="#000000">total    </text>
<text text-anchor="start" x="1233.6578" y="-396.9" font-family="Arial" font-size="14.00" fill="#666666">[int]</text>
<polygon fill="none" stroke="#000000" points="1166,-355.5 1166,-385.5 1381,-385.5 1381,-355.5 1166,-355.5"/>
<text text-anchor="start" x="1172.812" y="-366.9" font-family="Arial" font-size="14.00" fill="#000000">currency    </text>
<text text-anchor="start" x="1260.6858" y="-366.9" font-family="Arial" font-size="14.00" fill="#666666">[enum(&#39;vnd&#39;,&#39;usd&#39;)]</text>
</g>
<!-- invoices&#45;&gt;organizations -->
<g id="edge4" class="edge">
<title>invoices:organizationId&#45;&gt;organizations:id</title>
<path fill="none" stroke="#000000" stroke-dasharray="5,2" d="M1156.0124,-429.6943C1112.6055,-422.0036 1137.8619,-360.8021 1114,-313 1083.8748,-252.6506 1107.4506,-180.5 1040,-180.5"/>
<polygon fill="#000000" stroke="#000000" points="1156.0324,-429.6958 1165.6381,-434.9854 1161.0162,-430.0979 1166,-430.5 1166,-430.5 1166,-430.5 1161.0162,-430.0979 1166.3619,-426.0146 1156.0324,-429.6958 1156.0324,-429.6958"/>
<text text-anchor="start" x="1144.7765" y="-440.5" font-family="Arial" font-size="10.00" fill="#000000">1&#45;n</text>
</g>
<!-- user_organization_invoices -->
<g id="node6" class="node">
<title>user_organization_invoices</title>
<polygon fill="#efefef" stroke="transparent" points="1485,-550.5 1485,-585.5 1844,-585.5 1844,-550.5 1485,-550.5"/>
<polygon fill="none" stroke="#000000" points="1485,-550.5 1485,-585.5 1844,-585.5 1844,-550.5 1485,-550.5"/>
<text text-anchor="start" x="1491.6909" y="-563.3" font-family="Arial Bold" font-size="18.00" fill="#000000">user_organization_invoices</text>
<text text-anchor="start" x="1709.7411" y="-563.3" font-family="Arial" font-size="14.00" fill="#000000">    </text>
<text text-anchor="start" x="1743.9459" y="-563.3" font-family="Arial" font-size="14.00" fill="#666666">[BASE TABLE]</text>
<polygon fill="none" stroke="#000000" points="1485,-520.5 1485,-550.5 1844,-550.5 1844,-520.5 1485,-520.5"/>
<text text-anchor="start" x="1492" y="-531.9" font-family="Arial" font-size="14.00" fill="#000000">id    </text>
<text text-anchor="start" x="1537.094" y="-531.9" font-family="Arial" font-size="14.00" fill="#666666">[int]</text>
<polygon fill="none" stroke="#000000" points="1485,-490.5 1485,-520.5 1844,-520.5 1844,-490.5 1485,-490.5"/>
<text text-anchor="start" x="1492" y="-501.9" font-family="Arial" font-size="14.00" fill="#000000">userId    </text>
<text text-anchor="start" x="1565.1038" y="-501.9" font-family="Arial" font-size="14.00" fill="#666666">[int]</text>
<polygon fill="none" stroke="#000000" points="1485,-460.5 1485,-490.5 1844,-490.5 1844,-460.5 1485,-460.5"/>
<text text-anchor="start" x="1492" y="-471.9" font-family="Arial" font-size="14.00" fill="#000000">organizationId    </text>
<text text-anchor="start" x="1614.1206" y="-471.9" font-family="Arial" font-size="14.00" fill="#666666">[int]</text>
<polygon fill="none" stroke="#000000" points="1485,-430.5 1485,-460.5 1844,-460.5 1844,-430.5 1485,-430.5"/>
<text text-anchor="start" x="1492" y="-441.9" font-family="Arial" font-size="14.00" fill="#000000">invoiceId    </text>
<text text-anchor="start" x="1581.439" y="-441.9" font-family="Arial" font-size="14.00" fill="#666666">[int]</text>
<polygon fill="none" stroke="#000000" points="1485,-400.5 1485,-430.5 1844,-430.5 1844,-400.5 1485,-400.5"/>
<text text-anchor="start" x="1492" y="-411.9" font-family="Arial" font-size="14.00" fill="#000000">createdAt    </text>
<text text-anchor="start" x="1586.1136" y="-411.9" font-family="Arial" font-size="14.00" fill="#666666">[timestamp]</text>
<polygon fill="none" stroke="#000000" points="1485,-370.5 1485,-400.5 1844,-400.5 1844,-370.5 1485,-370.5"/>
<text text-anchor="start" x="1492" y="-381.9" font-family="Arial" font-size="14.00" fill="#000000">updatedAt    </text>
<text text-anchor="start" x="1590.0182" y="-381.9" font-family="Arial" font-size="14.00" fill="#666666">[timestamp]</text>
</g>
<!-- user_organization_invoices&#45;&gt;organizations -->
<g id="edge5" class="edge">
<title>user_organization_invoices:organizationId&#45;&gt;organizations:id</title>
<path fill="none" stroke="#000000" stroke-dasharray="5,2" d="M1474.9525,-474.7431C1416.3824,-465.0373 1483.6054,-364.3949 1433,-313 1303.674,-181.6565 1224.3267,-180.5 1040,-180.5"/>
<polygon fill="#000000" stroke="#000000" points="1475.0283,-474.7488 1484.6619,-479.9873 1480.0141,-475.1244 1485,-475.5 1485,-475.5 1485,-475.5 1480.0141,-475.1244 1485.3381,-471.0127 1475.0283,-474.7488 1475.0283,-474.7488"/>
<text text-anchor="start" x="1463.7765" y="-485.5" font-family="Arial" font-size="10.00" fill="#000000">1&#45;n</text>
</g>
</g>
</svg>
