<?xml version="1.0" encoding="UTF-8" standalone="no"?>
<!DOCTYPE svg PUBLIC "-//W3C//DTD SVG 1.1//EN"
 "http://www.w3.org/Graphics/SVG/1.1/DTD/svg11.dtd">
<!-- Generated by graphviz version 2.40.1 (20161225.0304)
 -->
<!-- Title: organizations Pages: 1 -->
<svg width="2890pt" height="1012pt"
 viewBox="0.00 0.00 2889.50 1012.00" xmlns="http://www.w3.org/2000/svg" xmlns:xlink="http://www.w3.org/1999/xlink">
<g id="graph0" class="graph" transform="scale(1 1) rotate(0) translate(4 1008)">
<title>organizations</title>
<polygon fill="#ffffff" stroke="transparent" points="-4,4 -4,-1008 2885.5,-1008 2885.5,4 -4,4"/>
<!-- organizations -->
<g id="node1" class="node">
<title>organizations</title>
<polygon fill="#efefef" stroke="transparent" points="1365,-285.5 1365,-320.5 1613,-320.5 1613,-285.5 1365,-285.5"/>
<polygon fill="none" stroke="#000000" points="1365,-285.5 1365,-320.5 1613,-320.5 1613,-285.5 1365,-285.5"/>
<text text-anchor="start" x="1371.7029" y="-298.3" font-family="Arial Bold" font-size="18.00" fill="#000000">organizations</text>
<text text-anchor="start" x="1478.7291" y="-298.3" font-family="Arial" font-size="14.00" fill="#000000">    </text>
<text text-anchor="start" x="1512.9339" y="-298.3" font-family="Arial" font-size="14.00" fill="#666666">[BASE TABLE]</text>
<polygon fill="none" stroke="#000000" points="1365,-255.5 1365,-285.5 1613,-285.5 1613,-255.5 1365,-255.5"/>
<text text-anchor="start" x="1372" y="-266.9" font-family="Arial" font-size="14.00" fill="#000000">id </text>
<text text-anchor="start" x="1386.7798" y="-266.9" font-family="Arial" font-size="14.00" fill="#666666">[int]</text>
<polygon fill="none" stroke="#000000" points="1365,-225.5 1365,-255.5 1613,-255.5 1613,-225.5 1365,-225.5"/>
<text text-anchor="start" x="1372" y="-236.9" font-family="Arial" font-size="14.00" fill="#000000">name </text>
<text text-anchor="start" x="1410.899" y="-236.9" font-family="Arial" font-size="14.00" fill="#666666">[varchar(255)]</text>
<polygon fill="none" stroke="#000000" points="1365,-195.5 1365,-225.5 1613,-225.5 1613,-195.5 1365,-195.5"/>
<text text-anchor="start" x="1372" y="-206.9" font-family="Arial" font-size="14.00" fill="#000000">uniqueName </text>
<text text-anchor="start" x="1455.2426" y="-206.9" font-family="Arial" font-size="14.00" fill="#666666">[varchar(255)]</text>
<polygon fill="none" stroke="#000000" points="1365,-165.5 1365,-195.5 1613,-195.5 1613,-165.5 1365,-165.5"/>
<text text-anchor="start" x="1372" y="-176.9" font-family="Arial" font-size="14.00" fill="#000000">createdAt </text>
<text text-anchor="start" x="1435.7994" y="-176.9" font-family="Arial" font-size="14.00" fill="#666666">[timestamp]</text>
<polygon fill="none" stroke="#000000" points="1365,-135.5 1365,-165.5 1613,-165.5 1613,-135.5 1365,-135.5"/>
<text text-anchor="start" x="1372" y="-146.9" font-family="Arial" font-size="14.00" fill="#000000">updatedAt </text>
<text text-anchor="start" x="1439.704" y="-146.9" font-family="Arial" font-size="14.00" fill="#666666">[timestamp]</text>
<polygon fill="none" stroke="#000000" points="1365,-105.5 1365,-135.5 1613,-135.5 1613,-105.5 1365,-105.5"/>
<text text-anchor="start" x="1372" y="-116.9" font-family="Arial" font-size="14.00" fill="#000000">phone </text>
<text text-anchor="start" x="1414.8036" y="-116.9" font-family="Arial" font-size="14.00" fill="#666666">[varchar(255)]</text>
<polygon fill="none" stroke="#000000" points="1365,-75.5 1365,-105.5 1613,-105.5 1613,-75.5 1365,-75.5"/>
<text text-anchor="start" x="1372" y="-86.9" font-family="Arial" font-size="14.00" fill="#000000">address </text>
<text text-anchor="start" x="1425.6816" y="-86.9" font-family="Arial" font-size="14.00" fill="#666666">[varchar(255)]</text>
<polygon fill="none" stroke="#000000" points="1365,-45.5 1365,-75.5 1613,-75.5 1613,-45.5 1365,-45.5"/>
<text text-anchor="start" x="1372" y="-56.9" font-family="Arial" font-size="14.00" fill="#000000">dateFormat </text>
<text text-anchor="start" x="1447.4586" y="-56.9" font-family="Arial" font-size="14.00" fill="#666666">[varchar(255)]</text>
<polygon fill="none" stroke="#000000" stroke-width="3" points="1363.5,-44.5 1363.5,-322.5 1614.5,-322.5 1614.5,-44.5 1363.5,-44.5"/>
</g>
<!-- roles -->
<g id="node2" class="node">
<title>roles</title>
<polygon fill="#efefef" stroke="transparent" points="43,-775.5 43,-810.5 227,-810.5 227,-775.5 43,-775.5"/>
<polygon fill="none" stroke="#000000" points="43,-775.5 43,-810.5 227,-810.5 227,-775.5 43,-775.5"/>
<text text-anchor="start" x="51.7166" y="-788.3" font-family="Arial Bold" font-size="18.00" fill="#000000">roles</text>
<text text-anchor="start" x="90.7154" y="-788.3" font-family="Arial" font-size="14.00" fill="#000000">    </text>
<text text-anchor="start" x="124.9202" y="-788.3" font-family="Arial" font-size="14.00" fill="#666666">[BASE TABLE]</text>
<polygon fill="none" stroke="#000000" points="43,-745.5 43,-775.5 227,-775.5 227,-745.5 43,-745.5"/>
<text text-anchor="start" x="50" y="-756.9" font-family="Arial" font-size="14.00" fill="#000000">id    </text>
<text text-anchor="start" x="95.094" y="-756.9" font-family="Arial" font-size="14.00" fill="#666666">[int]</text>
<polygon fill="none" stroke="#000000" points="43,-715.5 43,-745.5 227,-745.5 227,-715.5 43,-715.5"/>
<text text-anchor="start" x="50" y="-726.9" font-family="Arial" font-size="14.00" fill="#000000">name    </text>
<text text-anchor="start" x="119.2132" y="-726.9" font-family="Arial" font-size="14.00" fill="#666666">[varchar(255)]</text>
<polygon fill="none" stroke="#000000" points="43,-685.5 43,-715.5 227,-715.5 227,-685.5 43,-685.5"/>
<text text-anchor="start" x="50" y="-696.9" font-family="Arial" font-size="14.00" fill="#000000">slug    </text>
<text text-anchor="start" x="109.8766" y="-696.9" font-family="Arial" font-size="14.00" fill="#666666">[varchar(255)]</text>
<polygon fill="none" stroke="#000000" points="43,-655.5 43,-685.5 227,-685.5 227,-655.5 43,-655.5"/>
<text text-anchor="start" x="50" y="-666.9" font-family="Arial" font-size="14.00" fill="#000000">createdAt    </text>
<text text-anchor="start" x="144.1136" y="-666.9" font-family="Arial" font-size="14.00" fill="#666666">[timestamp]</text>
<polygon fill="none" stroke="#000000" points="43,-625.5 43,-655.5 227,-655.5 227,-625.5 43,-625.5"/>
<text text-anchor="start" x="49.8219" y="-636.9" font-family="Arial" font-size="14.00" fill="#000000">updatedAt    </text>
<text text-anchor="start" x="147.8401" y="-636.9" font-family="Arial" font-size="14.00" fill="#666666">[timestamp]</text>
<polygon fill="none" stroke="#000000" points="43,-595.5 43,-625.5 227,-625.5 227,-595.5 43,-595.5"/>
<text text-anchor="start" x="50" y="-606.9" font-family="Arial" font-size="14.00" fill="#000000">organizationId    </text>
<text text-anchor="start" x="172.1206" y="-606.9" font-family="Arial" font-size="14.00" fill="#666666">[int]</text>
</g>
<!-- roles&#45;&gt;organizations -->
<g id="edge1" class="edge">
<title>roles:organizationId&#45;&gt;organizations:id</title>
<path fill="none" stroke="#000000" stroke-dasharray="5,2" d="M237.2064,-609.8517C313.4242,-599.3299 210.5158,-463.4698 279,-403 370.1233,-322.5404 1243.4385,-270.5 1365,-270.5"/>
<polygon fill="#000000" stroke="#000000" points="236.9799,-609.866 226.7147,-606.0091 231.9899,-610.183 227,-610.5 227,-610.5 227,-610.5 231.9899,-610.183 227.2853,-614.9909 236.9799,-609.866 236.9799,-609.866"/>
<text text-anchor="start" x="205.7765" y="-620.5" font-family="Arial" font-size="10.00" fill="#000000">1&#45;n</text>
</g>
<!-- user_organization_roles -->
<g id="node3" class="node">
<title>user_organization_roles</title>
<polygon fill="#efefef" stroke="transparent" points="332,-775.5 332,-810.5 665,-810.5 665,-775.5 332,-775.5"/>
<polygon fill="none" stroke="#000000" points="332,-775.5 332,-810.5 665,-810.5 665,-775.5 332,-775.5"/>
<text text-anchor="start" x="338.695" y="-788.3" font-family="Arial Bold" font-size="18.00" fill="#000000">user_organization_roles</text>
<text text-anchor="start" x="530.737" y="-788.3" font-family="Arial" font-size="14.00" fill="#000000">    </text>
<text text-anchor="start" x="564.9418" y="-788.3" font-family="Arial" font-size="14.00" fill="#666666">[BASE TABLE]</text>
<polygon fill="none" stroke="#000000" points="332,-745.5 332,-775.5 665,-775.5 665,-745.5 332,-745.5"/>
<text text-anchor="start" x="339" y="-756.9" font-family="Arial" font-size="14.00" fill="#000000">id    </text>
<text text-anchor="start" x="384.094" y="-756.9" font-family="Arial" font-size="14.00" fill="#666666">[int]</text>
<polygon fill="none" stroke="#000000" points="332,-715.5 332,-745.5 665,-745.5 665,-715.5 332,-715.5"/>
<text text-anchor="start" x="339" y="-726.9" font-family="Arial" font-size="14.00" fill="#000000">userId    </text>
<text text-anchor="start" x="412.1038" y="-726.9" font-family="Arial" font-size="14.00" fill="#666666">[int]</text>
<polygon fill="none" stroke="#000000" points="332,-685.5 332,-715.5 665,-715.5 665,-685.5 332,-685.5"/>
<text text-anchor="start" x="339" y="-696.9" font-family="Arial" font-size="14.00" fill="#000000">organizationId    </text>
<text text-anchor="start" x="461.1206" y="-696.9" font-family="Arial" font-size="14.00" fill="#666666">[int]</text>
<polygon fill="none" stroke="#000000" points="332,-655.5 332,-685.5 665,-685.5 665,-655.5 332,-655.5"/>
<text text-anchor="start" x="339" y="-666.9" font-family="Arial" font-size="14.00" fill="#000000">roleId    </text>
<text text-anchor="start" x="408.2104" y="-666.9" font-family="Arial" font-size="14.00" fill="#666666">[int]</text>
<polygon fill="none" stroke="#000000" points="332,-625.5 332,-655.5 665,-655.5 665,-625.5 332,-625.5"/>
<text text-anchor="start" x="339" y="-636.9" font-family="Arial" font-size="14.00" fill="#000000">createdAt    </text>
<text text-anchor="start" x="433.1136" y="-636.9" font-family="Arial" font-size="14.00" fill="#666666">[timestamp]</text>
<polygon fill="none" stroke="#000000" points="332,-595.5 332,-625.5 665,-625.5 665,-595.5 332,-595.5"/>
<text text-anchor="start" x="339" y="-606.9" font-family="Arial" font-size="14.00" fill="#000000">updatedAt    </text>
<text text-anchor="start" x="437.0182" y="-606.9" font-family="Arial" font-size="14.00" fill="#666666">[timestamp]</text>
</g>
<!-- user_organization_roles&#45;&gt;organizations -->
<g id="edge2" class="edge">
<title>user_organization_roles:organizationId&#45;&gt;organizations:id</title>
<path fill="none" stroke="#000000" stroke-dasharray="5,2" d="M674.8789,-698.3367C725.5395,-673.8315 671.8786,-448.5388 716,-403 818.426,-297.2836 1217.8028,-270.5 1365,-270.5"/>
<polygon fill="#000000" stroke="#000000" points="674.7685,-698.3608 664.0373,-696.1042 669.8843,-699.4304 665,-700.5 665,-700.5 665,-700.5 669.8843,-699.4304 665.9627,-704.8958 674.7685,-698.3608 674.7685,-698.3608"/>
<text text-anchor="start" x="643.7765" y="-710.5" font-family="Arial" font-size="10.00" fill="#000000">1&#45;n</text>
</g>
<!-- user_organizations -->
<g id="node4" class="node">
<title>user_organizations</title>
<polygon fill="#efefef" stroke="transparent" points="769,-760.5 769,-795.5 1062,-795.5 1062,-760.5 769,-760.5"/>
<polygon fill="none" stroke="#000000" points="769,-760.5 769,-795.5 1062,-795.5 1062,-760.5 769,-760.5"/>
<text text-anchor="start" x="775.6975" y="-773.3" font-family="Arial Bold" font-size="18.00" fill="#000000">user_organizations</text>
<text text-anchor="start" x="927.7345" y="-773.3" font-family="Arial" font-size="14.00" fill="#000000">    </text>
<text text-anchor="start" x="961.9393" y="-773.3" font-family="Arial" font-size="14.00" fill="#666666">[BASE TABLE]</text>
<polygon fill="none" stroke="#000000" points="769,-730.5 769,-760.5 1062,-760.5 1062,-730.5 769,-730.5"/>
<text text-anchor="start" x="776" y="-741.9" font-family="Arial" font-size="14.00" fill="#000000">id    </text>
<text text-anchor="start" x="821.094" y="-741.9" font-family="Arial" font-size="14.00" fill="#666666">[int]</text>
<polygon fill="none" stroke="#000000" points="769,-700.5 769,-730.5 1062,-730.5 1062,-700.5 769,-700.5"/>
<text text-anchor="start" x="776" y="-711.9" font-family="Arial" font-size="14.00" fill="#000000">userId    </text>
<text text-anchor="start" x="849.1038" y="-711.9" font-family="Arial" font-size="14.00" fill="#666666">[int]</text>
<polygon fill="none" stroke="#000000" points="769,-670.5 769,-700.5 1062,-700.5 1062,-670.5 769,-670.5"/>
<text text-anchor="start" x="776" y="-681.9" font-family="Arial" font-size="14.00" fill="#000000">organizationId    </text>
<text text-anchor="start" x="898.1206" y="-681.9" font-family="Arial" font-size="14.00" fill="#666666">[int]</text>
<polygon fill="none" stroke="#000000" points="769,-640.5 769,-670.5 1062,-670.5 1062,-640.5 769,-640.5"/>
<text text-anchor="start" x="776" y="-651.9" font-family="Arial" font-size="14.00" fill="#000000">createdAt    </text>
<text text-anchor="start" x="870.1136" y="-651.9" font-family="Arial" font-size="14.00" fill="#666666">[timestamp]</text>
<polygon fill="none" stroke="#000000" points="769,-610.5 769,-640.5 1062,-640.5 1062,-610.5 769,-610.5"/>
<text text-anchor="start" x="776" y="-621.9" font-family="Arial" font-size="14.00" fill="#000000">updatedAt    </text>
<text text-anchor="start" x="874.0182" y="-621.9" font-family="Arial" font-size="14.00" fill="#666666">[timestamp]</text>
</g>
<!-- user_organizations&#45;&gt;organizations -->
<g id="edge3" class="edge">
<title>user_organizations:organizationId&#45;&gt;organizations:id</title>
<path fill="none" stroke="#000000" stroke-dasharray="5,2" d="M1071.7764,-683.3508C1120.3535,-659.9021 1077.4161,-451.5318 1113,-403 1187.8217,-300.9529 1238.4619,-270.5 1365,-270.5"/>
<polygon fill="#000000" stroke="#000000" points="1071.7668,-683.3529 1061.0338,-681.1049 1066.8834,-684.4264 1062,-685.5 1062,-685.5 1062,-685.5 1066.8834,-684.4264 1062.9662,-689.8951 1071.7668,-683.3529 1071.7668,-683.3529"/>
<text text-anchor="start" x="1040.7765" y="-695.5" font-family="Arial" font-size="10.00" fill="#000000">1&#45;n</text>
</g>
<!-- invoices -->
<g id="node5" class="node">
<title>invoices</title>
<polygon fill="#efefef" stroke="transparent" points="1166,-925.5 1166,-960.5 1407,-960.5 1407,-925.5 1166,-925.5"/>
<polygon fill="none" stroke="#000000" points="1166,-925.5 1166,-960.5 1407,-960.5 1407,-925.5 1166,-925.5"/>
<text text-anchor="start" x="1190.2125" y="-938.3" font-family="Arial Bold" font-size="18.00" fill="#000000">invoices</text>
<text text-anchor="start" x="1255.2195" y="-938.3" font-family="Arial" font-size="14.00" fill="#000000">    </text>
<text text-anchor="start" x="1289.4243" y="-938.3" font-family="Arial" font-size="14.00" fill="#666666">[BASE TABLE]</text>
<polygon fill="none" stroke="#000000" points="1166,-895.5 1166,-925.5 1407,-925.5 1407,-895.5 1166,-895.5"/>
<text text-anchor="start" x="1173" y="-906.9" font-family="Arial" font-size="14.00" fill="#000000">id    </text>
<text text-anchor="start" x="1218.094" y="-906.9" font-family="Arial" font-size="14.00" fill="#666666">[int]</text>
<polygon fill="none" stroke="#000000" points="1166,-865.5 1166,-895.5 1407,-895.5 1407,-865.5 1166,-865.5"/>
<text text-anchor="start" x="1173" y="-876.9" font-family="Arial" font-size="14.00" fill="#000000">date    </text>
<text text-anchor="start" x="1234.4432" y="-876.9" font-family="Arial" font-size="14.00" fill="#666666">[timestamp]</text>
<polygon fill="none" stroke="#000000" points="1166,-835.5 1166,-865.5 1407,-865.5 1407,-835.5 1166,-835.5"/>
<text text-anchor="start" x="1173" y="-846.9" font-family="Arial" font-size="14.00" fill="#000000">createdAt    </text>
<text text-anchor="start" x="1267.1136" y="-846.9" font-family="Arial" font-size="14.00" fill="#666666">[timestamp]</text>
<polygon fill="none" stroke="#000000" points="1166,-805.5 1166,-835.5 1407,-835.5 1407,-805.5 1166,-805.5"/>
<text text-anchor="start" x="1173" y="-816.9" font-family="Arial" font-size="14.00" fill="#000000">updatedAt    </text>
<text text-anchor="start" x="1271.0182" y="-816.9" font-family="Arial" font-size="14.00" fill="#666666">[timestamp]</text>
<polygon fill="none" stroke="#000000" points="1166,-775.5 1166,-805.5 1407,-805.5 1407,-775.5 1166,-775.5"/>
<text text-anchor="start" x="1173" y="-786.9" font-family="Arial" font-size="14.00" fill="#000000">organizationId    </text>
<text text-anchor="start" x="1295.1206" y="-786.9" font-family="Arial" font-size="14.00" fill="#666666">[int]</text>
<polygon fill="none" stroke="#000000" points="1166,-745.5 1166,-775.5 1407,-775.5 1407,-745.5 1166,-745.5"/>
<text text-anchor="start" x="1173" y="-756.9" font-family="Arial" font-size="14.00" fill="#000000">total    </text>
<text text-anchor="start" x="1233.6578" y="-756.9" font-family="Arial" font-size="14.00" fill="#666666">[int]</text>
<polygon fill="none" stroke="#000000" points="1166,-715.5 1166,-745.5 1407,-745.5 1407,-715.5 1166,-715.5"/>
<text text-anchor="start" x="1173" y="-726.9" font-family="Arial" font-size="14.00" fill="#000000">currency    </text>
<text text-anchor="start" x="1260.8738" y="-726.9" font-family="Arial" font-size="14.00" fill="#666666">[enum(&#39;vnd&#39;,&#39;usd&#39;)]</text>
<polygon fill="none" stroke="#000000" points="1166,-685.5 1166,-715.5 1407,-715.5 1407,-685.5 1166,-685.5"/>
<text text-anchor="start" x="1172.9698" y="-696.9" font-family="Arial" font-size="14.00" fill="#000000">type    </text>
<text text-anchor="start" x="1233.6304" y="-696.9" font-family="Arial" font-size="14.00" fill="#666666">[enum(&#39;expense&#39;,&#39;income&#39;)]</text>
<polygon fill="none" stroke="#000000" points="1166,-655.5 1166,-685.5 1407,-685.5 1407,-655.5 1166,-655.5"/>
<text text-anchor="start" x="1173" y="-666.9" font-family="Arial" font-size="14.00" fill="#000000">projectId    </text>
<text text-anchor="start" x="1260.8836" y="-666.9" font-family="Arial" font-size="14.00" fill="#666666">[int]</text>
<polygon fill="none" stroke="#000000" points="1166,-625.5 1166,-655.5 1407,-655.5 1407,-625.5 1166,-625.5"/>
<text text-anchor="start" x="1173" y="-636.9" font-family="Arial" font-size="14.00" fill="#000000">categoryId    </text>
<text text-anchor="start" x="1272.5596" y="-636.9" font-family="Arial" font-size="14.00" fill="#666666">[int]</text>
<polygon fill="none" stroke="#000000" points="1166,-595.5 1166,-625.5 1407,-625.5 1407,-595.5 1166,-595.5"/>
<text text-anchor="start" x="1173" y="-606.9" font-family="Arial" font-size="14.00" fill="#000000">clientName    </text>
<text text-anchor="start" x="1277.2062" y="-606.9" font-family="Arial" font-size="14.00" fill="#666666">[varchar(255)]</text>
<polygon fill="none" stroke="#000000" points="1166,-565.5 1166,-595.5 1407,-595.5 1407,-565.5 1166,-565.5"/>
<text text-anchor="start" x="1173" y="-576.9" font-family="Arial" font-size="14.00" fill="#000000">tax    </text>
<text text-anchor="start" x="1225.878" y="-576.9" font-family="Arial" font-size="14.00" fill="#666666">[int]</text>
<polygon fill="none" stroke="#000000" points="1166,-535.5 1166,-565.5 1407,-565.5 1407,-535.5 1166,-535.5"/>
<text text-anchor="start" x="1173" y="-546.9" font-family="Arial" font-size="14.00" fill="#000000">uid    </text>
<text text-anchor="start" x="1225.8766" y="-546.9" font-family="Arial" font-size="14.00" fill="#666666">[varchar(255)]</text>
<polygon fill="none" stroke="#000000" points="1166,-505.5 1166,-535.5 1407,-535.5 1407,-505.5 1166,-505.5"/>
<text text-anchor="start" x="1173" y="-516.9" font-family="Arial" font-size="14.00" fill="#000000">exchangeRate    </text>
<text text-anchor="start" x="1297.4628" y="-516.9" font-family="Arial" font-size="14.00" fill="#666666">[decimal(10,0)]</text>
<polygon fill="none" stroke="#000000" points="1166,-475.5 1166,-505.5 1407,-505.5 1407,-475.5 1166,-475.5"/>
<text text-anchor="start" x="1173" y="-486.9" font-family="Arial" font-size="14.00" fill="#000000">note    </text>
<text text-anchor="start" x="1234.4432" y="-486.9" font-family="Arial" font-size="14.00" fill="#666666">[varchar(255)]</text>
<polygon fill="none" stroke="#000000" points="1166,-445.5 1166,-475.5 1407,-475.5 1407,-445.5 1166,-445.5"/>
<text text-anchor="start" x="1173" y="-456.9" font-family="Arial" font-size="14.00" fill="#000000">discount    </text>
<text text-anchor="start" x="1259.3324" y="-456.9" font-family="Arial" font-size="14.00" fill="#666666">[int]</text>
</g>
<!-- invoices&#45;&gt;organizations -->
<g id="edge4" class="edge">
<title>invoices:organizationId&#45;&gt;organizations:id</title>
<path fill="none" stroke="#000000" stroke-dasharray="5,2" d="M1416.9185,-788.9765C1489.0228,-765.5191 1441.5063,-478.0243 1407,-403 1396.7268,-380.6638 1375.2732,-389.3362 1365,-367 1347.0786,-328.0349 1322.1111,-270.5 1365,-270.5"/>
<polygon fill="#000000" stroke="#000000" points="1416.8841,-788.9817 1406.3167,-786.0522 1411.942,-789.7408 1407,-790.5 1407,-790.5 1407,-790.5 1411.942,-789.7408 1407.6833,-794.9478 1416.8841,-788.9817 1416.8841,-788.9817"/>
<text text-anchor="start" x="1385.7765" y="-800.5" font-family="Arial" font-size="10.00" fill="#000000">1&#45;n</text>
</g>
<!-- user_organization_invoices -->
<g id="node6" class="node">
<title>user_organization_invoices</title>
<polygon fill="#efefef" stroke="transparent" points="1511,-775.5 1511,-810.5 1870,-810.5 1870,-775.5 1511,-775.5"/>
<polygon fill="none" stroke="#000000" points="1511,-775.5 1511,-810.5 1870,-810.5 1870,-775.5 1511,-775.5"/>
<text text-anchor="start" x="1517.6909" y="-788.3" font-family="Arial Bold" font-size="18.00" fill="#000000">user_organization_invoices</text>
<text text-anchor="start" x="1735.7411" y="-788.3" font-family="Arial" font-size="14.00" fill="#000000">    </text>
<text text-anchor="start" x="1769.9459" y="-788.3" font-family="Arial" font-size="14.00" fill="#666666">[BASE TABLE]</text>
<polygon fill="none" stroke="#000000" points="1511,-745.5 1511,-775.5 1870,-775.5 1870,-745.5 1511,-745.5"/>
<text text-anchor="start" x="1518" y="-756.9" font-family="Arial" font-size="14.00" fill="#000000">id    </text>
<text text-anchor="start" x="1563.094" y="-756.9" font-family="Arial" font-size="14.00" fill="#666666">[int]</text>
<polygon fill="none" stroke="#000000" points="1511,-715.5 1511,-745.5 1870,-745.5 1870,-715.5 1511,-715.5"/>
<text text-anchor="start" x="1518" y="-726.9" font-family="Arial" font-size="14.00" fill="#000000">userId    </text>
<text text-anchor="start" x="1591.1038" y="-726.9" font-family="Arial" font-size="14.00" fill="#666666">[int]</text>
<polygon fill="none" stroke="#000000" points="1511,-685.5 1511,-715.5 1870,-715.5 1870,-685.5 1511,-685.5"/>
<text text-anchor="start" x="1518" y="-696.9" font-family="Arial" font-size="14.00" fill="#000000">organizationId    </text>
<text text-anchor="start" x="1640.1206" y="-696.9" font-family="Arial" font-size="14.00" fill="#666666">[int]</text>
<polygon fill="none" stroke="#000000" points="1511,-655.5 1511,-685.5 1870,-685.5 1870,-655.5 1511,-655.5"/>
<text text-anchor="start" x="1518" y="-666.9" font-family="Arial" font-size="14.00" fill="#000000">invoiceId    </text>
<text text-anchor="start" x="1607.439" y="-666.9" font-family="Arial" font-size="14.00" fill="#666666">[int]</text>
<polygon fill="none" stroke="#000000" points="1511,-625.5 1511,-655.5 1870,-655.5 1870,-625.5 1511,-625.5"/>
<text text-anchor="start" x="1518" y="-636.9" font-family="Arial" font-size="14.00" fill="#000000">createdAt    </text>
<text text-anchor="start" x="1612.1136" y="-636.9" font-family="Arial" font-size="14.00" fill="#666666">[timestamp]</text>
<polygon fill="none" stroke="#000000" points="1511,-595.5 1511,-625.5 1870,-625.5 1870,-595.5 1511,-595.5"/>
<text text-anchor="start" x="1518" y="-606.9" font-family="Arial" font-size="14.00" fill="#000000">updatedAt    </text>
<text text-anchor="start" x="1616.0182" y="-606.9" font-family="Arial" font-size="14.00" fill="#666666">[timestamp]</text>
</g>
<!-- user_organization_invoices&#45;&gt;organizations -->
<g id="edge5" class="edge">
<title>user_organization_invoices:organizationId&#45;&gt;organizations:id</title>
<path fill="none" stroke="#000000" stroke-dasharray="5,2" d="M1500.9391,-699.7106C1450.9217,-691.0506 1495.6519,-612.9076 1511,-553 1534.3987,-461.6688 1589.6013,-458.3312 1613,-367 1623.6442,-325.4529 1655.8889,-270.5 1613,-270.5"/>
<polygon fill="#000000" stroke="#000000" points="1501.0306,-699.7177 1510.6479,-704.9862 1506.0153,-700.1088 1511,-700.5 1511,-700.5 1511,-700.5 1506.0153,-700.1088 1511.3521,-696.0138 1501.0306,-699.7177 1501.0306,-699.7177"/>
<text text-anchor="start" x="1489.7765" y="-710.5" font-family="Arial" font-size="10.00" fill="#000000">1&#45;n</text>
</g>
<!-- projects -->
<g id="node7" class="node">
<title>projects</title>
<polygon fill="#efefef" stroke="transparent" points="1974,-835.5 1974,-870.5 2184,-870.5 2184,-835.5 1974,-835.5"/>
<polygon fill="none" stroke="#000000" points="1974,-835.5 1974,-870.5 2184,-870.5 2184,-835.5 1974,-835.5"/>
<text text-anchor="start" x="1983.7124" y="-848.3" font-family="Arial Bold" font-size="18.00" fill="#000000">projects</text>
<text text-anchor="start" x="2046.7196" y="-848.3" font-family="Arial" font-size="14.00" fill="#000000">    </text>
<text text-anchor="start" x="2080.9244" y="-848.3" font-family="Arial" font-size="14.00" fill="#666666">[BASE TABLE]</text>
<polygon fill="none" stroke="#000000" points="1974,-805.5 1974,-835.5 2184,-835.5 2184,-805.5 1974,-805.5"/>
<text text-anchor="start" x="1981" y="-816.9" font-family="Arial" font-size="14.00" fill="#000000">id    </text>
<text text-anchor="start" x="2026.094" y="-816.9" font-family="Arial" font-size="14.00" fill="#666666">[int]</text>
<polygon fill="none" stroke="#000000" points="1974,-775.5 1974,-805.5 2184,-805.5 2184,-775.5 1974,-775.5"/>
<text text-anchor="start" x="1981" y="-786.9" font-family="Arial" font-size="14.00" fill="#000000">name    </text>
<text text-anchor="start" x="2050.2132" y="-786.9" font-family="Arial" font-size="14.00" fill="#666666">[varchar(255)]</text>
<polygon fill="none" stroke="#000000" points="1974,-745.5 1974,-775.5 2184,-775.5 2184,-745.5 1974,-745.5"/>
<text text-anchor="start" x="1981" y="-756.9" font-family="Arial" font-size="14.00" fill="#000000">totalBudget    </text>
<text text-anchor="start" x="2086.0154" y="-756.9" font-family="Arial" font-size="14.00" fill="#666666">[int]</text>
<polygon fill="none" stroke="#000000" points="1974,-715.5 1974,-745.5 2184,-745.5 2184,-715.5 1974,-715.5"/>
<text text-anchor="start" x="1981" y="-726.9" font-family="Arial" font-size="14.00" fill="#000000">startDate    </text>
<text text-anchor="start" x="2071.9916" y="-726.9" font-family="Arial" font-size="14.00" fill="#666666">[timestamp]</text>
<polygon fill="none" stroke="#000000" points="1974,-685.5 1974,-715.5 2184,-715.5 2184,-685.5 1974,-685.5"/>
<text text-anchor="start" x="1981" y="-696.9" font-family="Arial" font-size="14.00" fill="#000000">endDate    </text>
<text text-anchor="start" x="2068.115" y="-696.9" font-family="Arial" font-size="14.00" fill="#666666">[timestamp]</text>
<polygon fill="none" stroke="#000000" points="1974,-655.5 1974,-685.5 2184,-685.5 2184,-655.5 1974,-655.5"/>
<text text-anchor="start" x="1981" y="-666.9" font-family="Arial" font-size="14.00" fill="#000000">createdAt    </text>
<text text-anchor="start" x="2075.1136" y="-666.9" font-family="Arial" font-size="14.00" fill="#666666">[timestamp]</text>
<polygon fill="none" stroke="#000000" points="1974,-625.5 1974,-655.5 2184,-655.5 2184,-625.5 1974,-625.5"/>
<text text-anchor="start" x="1981" y="-636.9" font-family="Arial" font-size="14.00" fill="#000000">updatedAt    </text>
<text text-anchor="start" x="2079.0182" y="-636.9" font-family="Arial" font-size="14.00" fill="#666666">[timestamp]</text>
<polygon fill="none" stroke="#000000" points="1974,-595.5 1974,-625.5 2184,-625.5 2184,-595.5 1974,-595.5"/>
<text text-anchor="start" x="1981" y="-606.9" font-family="Arial" font-size="14.00" fill="#000000">organizationId    </text>
<text text-anchor="start" x="2103.1206" y="-606.9" font-family="Arial" font-size="14.00" fill="#666666">[int]</text>
<polygon fill="none" stroke="#000000" points="1974,-565.5 1974,-595.5 2184,-595.5 2184,-565.5 1974,-565.5"/>
<text text-anchor="start" x="1981" y="-576.9" font-family="Arial" font-size="14.00" fill="#000000">creatorId    </text>
<text text-anchor="start" x="2070.4376" y="-576.9" font-family="Arial" font-size="14.00" fill="#666666">[int]</text>
<polygon fill="none" stroke="#000000" points="1974,-535.5 1974,-565.5 2184,-565.5 2184,-535.5 1974,-535.5"/>
<text text-anchor="start" x="1980.608" y="-546.9" font-family="Arial" font-size="14.00" fill="#000000">description    </text>
<text text-anchor="start" x="2082.4902" y="-546.9" font-family="Arial" font-size="14.00" fill="#666666">[varchar(2000)]</text>
</g>
<!-- projects&#45;&gt;organizations -->
<g id="edge6" class="edge">
<title>projects:organizationId&#45;&gt;organizations:id</title>
<path fill="none" stroke="#000000" stroke-dasharray="5,2" d="M1963.7513,-609.8932C1886.8542,-600.0388 1981.2481,-472.5438 1922,-403 1825.095,-289.2557 1762.4267,-270.5 1613,-270.5"/>
<polygon fill="#000000" stroke="#000000" points="1964.0175,-609.9089 1973.734,-614.9921 1969.0087,-610.2044 1974,-610.5 1974,-610.5 1974,-610.5 1969.0087,-610.2044 1974.266,-606.0079 1964.0175,-609.9089 1964.0175,-609.9089"/>
<text text-anchor="start" x="1952.7765" y="-620.5" font-family="Arial" font-size="10.00" fill="#000000">1&#45;n</text>
</g>
<!-- budgets -->
<g id="node8" class="node">
<title>budgets</title>
<polygon fill="#efefef" stroke="transparent" points="2289,-790.5 2289,-825.5 2494,-825.5 2494,-790.5 2289,-790.5"/>
<polygon fill="none" stroke="#000000" points="2289,-790.5 2289,-825.5 2494,-825.5 2494,-790.5 2289,-790.5"/>
<text text-anchor="start" x="2295.6994" y="-803.3" font-family="Arial Bold" font-size="18.00" fill="#000000">budgets</text>
<text text-anchor="start" x="2359.7326" y="-803.3" font-family="Arial" font-size="14.00" fill="#000000">    </text>
<text text-anchor="start" x="2393.9374" y="-803.3" font-family="Arial" font-size="14.00" fill="#666666">[BASE TABLE]</text>
<polygon fill="none" stroke="#000000" points="2289,-760.5 2289,-790.5 2494,-790.5 2494,-760.5 2289,-760.5"/>
<text text-anchor="start" x="2296" y="-771.9" font-family="Arial" font-size="14.00" fill="#000000">id    </text>
<text text-anchor="start" x="2341.094" y="-771.9" font-family="Arial" font-size="14.00" fill="#666666">[int]</text>
<polygon fill="none" stroke="#000000" points="2289,-730.5 2289,-760.5 2494,-760.5 2494,-730.5 2289,-730.5"/>
<text text-anchor="start" x="2296" y="-741.9" font-family="Arial" font-size="14.00" fill="#000000">projectId    </text>
<text text-anchor="start" x="2383.8836" y="-741.9" font-family="Arial" font-size="14.00" fill="#666666">[int]</text>
<polygon fill="none" stroke="#000000" points="2289,-700.5 2289,-730.5 2494,-730.5 2494,-700.5 2289,-700.5"/>
<text text-anchor="start" x="2296" y="-711.9" font-family="Arial" font-size="14.00" fill="#000000">categoryId    </text>
<text text-anchor="start" x="2395.5596" y="-711.9" font-family="Arial" font-size="14.00" fill="#666666">[int]</text>
<polygon fill="none" stroke="#000000" points="2289,-670.5 2289,-700.5 2494,-700.5 2494,-670.5 2289,-670.5"/>
<text text-anchor="start" x="2296" y="-681.9" font-family="Arial" font-size="14.00" fill="#000000">amount    </text>
<text text-anchor="start" x="2376.8864" y="-681.9" font-family="Arial" font-size="14.00" fill="#666666">[int]</text>
<polygon fill="none" stroke="#000000" points="2289,-640.5 2289,-670.5 2494,-670.5 2494,-640.5 2289,-640.5"/>
<text text-anchor="start" x="2296" y="-651.9" font-family="Arial" font-size="14.00" fill="#000000">createdAt    </text>
<text text-anchor="start" x="2390.1136" y="-651.9" font-family="Arial" font-size="14.00" fill="#666666">[timestamp]</text>
<polygon fill="none" stroke="#000000" points="2289,-610.5 2289,-640.5 2494,-640.5 2494,-610.5 2289,-610.5"/>
<text text-anchor="start" x="2296" y="-621.9" font-family="Arial" font-size="14.00" fill="#000000">updatedAt    </text>
<text text-anchor="start" x="2394.0182" y="-621.9" font-family="Arial" font-size="14.00" fill="#666666">[timestamp]</text>
<polygon fill="none" stroke="#000000" points="2289,-580.5 2289,-610.5 2494,-610.5 2494,-580.5 2289,-580.5"/>
<text text-anchor="start" x="2296" y="-591.9" font-family="Arial" font-size="14.00" fill="#000000">organizationId    </text>
<text text-anchor="start" x="2418.1206" y="-591.9" font-family="Arial" font-size="14.00" fill="#666666">[int]</text>
</g>
<!-- budgets&#45;&gt;organizations -->
<g id="edge7" class="edge">
<title>budgets:organizationId&#45;&gt;organizations:id</title>
<path fill="none" stroke="#000000" stroke-dasharray="5,2" d="M2279.0106,-594.8496C2208.2124,-584.821 2297.9262,-461.3699 2236,-403 2133.0016,-305.9167 1754.5409,-270.5 1613,-270.5"/>
<polygon fill="#000000" stroke="#000000" points="2279.0211,-594.8502 2288.7076,-599.9905 2284.0106,-595.1751 2289,-595.5 2289,-595.5 2289,-595.5 2284.0106,-595.1751 2289.2924,-591.0095 2279.0211,-594.8502 2279.0211,-594.8502"/>
<text text-anchor="start" x="2267.7765" y="-605.5" font-family="Arial" font-size="10.00" fill="#000000">1&#45;n</text>
</g>
<!-- categories -->
<g id="node9" class="node">
<title>categories</title>
<polygon fill="#efefef" stroke="transparent" points="2598,-820.5 2598,-855.5 2839,-855.5 2839,-820.5 2598,-820.5"/>
<polygon fill="none" stroke="#000000" points="2598,-820.5 2598,-855.5 2839,-855.5 2839,-820.5 2598,-820.5"/>
<text text-anchor="start" x="2613.2062" y="-833.3" font-family="Arial Bold" font-size="18.00" fill="#000000">categories</text>
<text text-anchor="start" x="2696.2258" y="-833.3" font-family="Arial" font-size="14.00" fill="#000000">    </text>
<text text-anchor="start" x="2730.4306" y="-833.3" font-family="Arial" font-size="14.00" fill="#666666">[BASE TABLE]</text>
<polygon fill="none" stroke="#000000" points="2598,-790.5 2598,-820.5 2839,-820.5 2839,-790.5 2598,-790.5"/>
<text text-anchor="start" x="2605" y="-801.9" font-family="Arial" font-size="14.00" fill="#000000">id    </text>
<text text-anchor="start" x="2650.094" y="-801.9" font-family="Arial" font-size="14.00" fill="#666666">[int]</text>
<polygon fill="none" stroke="#000000" points="2598,-760.5 2598,-790.5 2839,-790.5 2839,-760.5 2598,-760.5"/>
<text text-anchor="start" x="2605" y="-771.9" font-family="Arial" font-size="14.00" fill="#000000">name    </text>
<text text-anchor="start" x="2674.2132" y="-771.9" font-family="Arial" font-size="14.00" fill="#666666">[varchar(255)]</text>
<polygon fill="none" stroke="#000000" points="2598,-730.5 2598,-760.5 2839,-760.5 2839,-730.5 2598,-730.5"/>
<text text-anchor="start" x="2605" y="-741.9" font-family="Arial" font-size="14.00" fill="#000000">color    </text>
<text text-anchor="start" x="2669.5372" y="-741.9" font-family="Arial" font-size="14.00" fill="#666666">[varchar(255)]</text>
<polygon fill="none" stroke="#000000" points="2598,-700.5 2598,-730.5 2839,-730.5 2839,-700.5 2598,-700.5"/>
<text text-anchor="start" x="2605" y="-711.9" font-family="Arial" font-size="14.00" fill="#000000">icon    </text>
<text text-anchor="start" x="2664.8766" y="-711.9" font-family="Arial" font-size="14.00" fill="#666666">[varchar(255)]</text>
<polygon fill="none" stroke="#000000" points="2598,-670.5 2598,-700.5 2839,-700.5 2839,-670.5 2598,-670.5"/>
<text text-anchor="start" x="2604.9698" y="-681.9" font-family="Arial" font-size="14.00" fill="#000000">type    </text>
<text text-anchor="start" x="2665.6304" y="-681.9" font-family="Arial" font-size="14.00" fill="#666666">[enum(&#39;expense&#39;,&#39;income&#39;)]</text>
<polygon fill="none" stroke="#000000" points="2598,-640.5 2598,-670.5 2839,-670.5 2839,-640.5 2598,-640.5"/>
<text text-anchor="start" x="2605" y="-651.9" font-family="Arial" font-size="14.00" fill="#000000">createdAt    </text>
<text text-anchor="start" x="2699.1136" y="-651.9" font-family="Arial" font-size="14.00" fill="#666666">[timestamp]</text>
<polygon fill="none" stroke="#000000" points="2598,-610.5 2598,-640.5 2839,-640.5 2839,-610.5 2598,-610.5"/>
<text text-anchor="start" x="2605" y="-621.9" font-family="Arial" font-size="14.00" fill="#000000">updatedAt    </text>
<text text-anchor="start" x="2703.0182" y="-621.9" font-family="Arial" font-size="14.00" fill="#666666">[timestamp]</text>
<polygon fill="none" stroke="#000000" points="2598,-580.5 2598,-610.5 2839,-610.5 2839,-580.5 2598,-580.5"/>
<text text-anchor="start" x="2605" y="-591.9" font-family="Arial" font-size="14.00" fill="#000000">organizationId    </text>
<text text-anchor="start" x="2727.1206" y="-591.9" font-family="Arial" font-size="14.00" fill="#666666">[int]</text>
<polygon fill="none" stroke="#000000" points="2598,-550.5 2598,-580.5 2839,-580.5 2839,-550.5 2598,-550.5"/>
<text text-anchor="start" x="2605" y="-561.9" font-family="Arial" font-size="14.00" fill="#000000">projectId    </text>
<text text-anchor="start" x="2692.8836" y="-561.9" font-family="Arial" font-size="14.00" fill="#666666">[int]</text>
</g>
<!-- categories&#45;&gt;organizations -->
<g id="edge8" class="edge">
<title>categories:organizationId&#45;&gt;organizations:id</title>
<path fill="none" stroke="#000000" stroke-dasharray="5,2" d="M2587.6089,-594.7755C2517.9178,-584.1405 2609.5385,-459.1809 2546,-403 2467.5588,-333.6422 1717.7068,-270.5 1613,-270.5"/>
<polygon fill="#000000" stroke="#000000" points="2588.0242,-594.8044 2597.687,-599.9891 2593.0121,-595.1522 2598,-595.5 2598,-595.5 2598,-595.5 2593.0121,-595.1522 2598.313,-591.0109 2588.0242,-594.8044 2588.0242,-594.8044"/>
<text text-anchor="start" x="2576.7765" y="-605.5" font-family="Arial" font-size="10.00" fill="#000000">1&#45;n</text>
</g>
</g>
</svg>
