<?xml version="1.0" encoding="UTF-8" standalone="no"?>
<!DOCTYPE svg PUBLIC "-//W3C//DTD SVG 1.1//EN"
 "http://www.w3.org/Graphics/SVG/1.1/DTD/svg11.dtd">
<!-- Generated by graphviz version 2.40.1 (20161225.0304)
 -->
<!-- Title: organizations Pages: 1 -->
<svg width="2884pt" height="982pt"
 viewBox="0.00 0.00 2883.50 982.00" xmlns="http://www.w3.org/2000/svg" xmlns:xlink="http://www.w3.org/1999/xlink">
<g id="graph0" class="graph" transform="scale(1 1) rotate(0) translate(4 978)">
<title>organizations</title>
<polygon fill="#ffffff" stroke="transparent" points="-4,4 -4,-978 2879.5,-978 2879.5,4 -4,4"/>
<!-- organizations -->
<g id="node1" class="node">
<title>organizations</title>
<polygon fill="#efefef" stroke="transparent" points="1365,-255.5 1365,-290.5 1613,-290.5 1613,-255.5 1365,-255.5"/>
<polygon fill="none" stroke="#000000" points="1365,-255.5 1365,-290.5 1613,-290.5 1613,-255.5 1365,-255.5"/>
<text text-anchor="start" x="1371.7029" y="-268.3" font-family="Arial Bold" font-size="18.00" fill="#000000">organizations</text>
<text text-anchor="start" x="1478.7291" y="-268.3" font-family="Arial" font-size="14.00" fill="#000000">    </text>
<text text-anchor="start" x="1512.9339" y="-268.3" font-family="Arial" font-size="14.00" fill="#666666">[BASE TABLE]</text>
<polygon fill="none" stroke="#000000" points="1365,-225.5 1365,-255.5 1613,-255.5 1613,-225.5 1365,-225.5"/>
<text text-anchor="start" x="1372" y="-236.9" font-family="Arial" font-size="14.00" fill="#000000">id </text>
<text text-anchor="start" x="1386.7798" y="-236.9" font-family="Arial" font-size="14.00" fill="#666666">[int]</text>
<polygon fill="none" stroke="#000000" points="1365,-195.5 1365,-225.5 1613,-225.5 1613,-195.5 1365,-195.5"/>
<text text-anchor="start" x="1372" y="-206.9" font-family="Arial" font-size="14.00" fill="#000000">name </text>
<text text-anchor="start" x="1410.899" y="-206.9" font-family="Arial" font-size="14.00" fill="#666666">[varchar(255)]</text>
<polygon fill="none" stroke="#000000" points="1365,-165.5 1365,-195.5 1613,-195.5 1613,-165.5 1365,-165.5"/>
<text text-anchor="start" x="1372" y="-176.9" font-family="Arial" font-size="14.00" fill="#000000">uniqueName </text>
<text text-anchor="start" x="1455.2426" y="-176.9" font-family="Arial" font-size="14.00" fill="#666666">[varchar(255)]</text>
<polygon fill="none" stroke="#000000" points="1365,-135.5 1365,-165.5 1613,-165.5 1613,-135.5 1365,-135.5"/>
<text text-anchor="start" x="1372" y="-146.9" font-family="Arial" font-size="14.00" fill="#000000">createdAt </text>
<text text-anchor="start" x="1435.7994" y="-146.9" font-family="Arial" font-size="14.00" fill="#666666">[timestamp]</text>
<polygon fill="none" stroke="#000000" points="1365,-105.5 1365,-135.5 1613,-135.5 1613,-105.5 1365,-105.5"/>
<text text-anchor="start" x="1372" y="-116.9" font-family="Arial" font-size="14.00" fill="#000000">updatedAt </text>
<text text-anchor="start" x="1439.704" y="-116.9" font-family="Arial" font-size="14.00" fill="#666666">[timestamp]</text>
<polygon fill="none" stroke="#000000" points="1365,-75.5 1365,-105.5 1613,-105.5 1613,-75.5 1365,-75.5"/>
<text text-anchor="start" x="1372" y="-86.9" font-family="Arial" font-size="14.00" fill="#000000">phone </text>
<text text-anchor="start" x="1414.8036" y="-86.9" font-family="Arial" font-size="14.00" fill="#666666">[varchar(255)]</text>
<polygon fill="none" stroke="#000000" points="1365,-45.5 1365,-75.5 1613,-75.5 1613,-45.5 1365,-45.5"/>
<text text-anchor="start" x="1372" y="-56.9" font-family="Arial" font-size="14.00" fill="#000000">address </text>
<text text-anchor="start" x="1425.6816" y="-56.9" font-family="Arial" font-size="14.00" fill="#666666">[varchar(255)]</text>
<polygon fill="none" stroke="#000000" stroke-width="3" points="1363.5,-44.5 1363.5,-292.5 1614.5,-292.5 1614.5,-44.5 1363.5,-44.5"/>
</g>
<!-- roles -->
<g id="node2" class="node">
<title>roles</title>
<polygon fill="#efefef" stroke="transparent" points="43,-745.5 43,-780.5 227,-780.5 227,-745.5 43,-745.5"/>
<polygon fill="none" stroke="#000000" points="43,-745.5 43,-780.5 227,-780.5 227,-745.5 43,-745.5"/>
<text text-anchor="start" x="51.7166" y="-758.3" font-family="Arial Bold" font-size="18.00" fill="#000000">roles</text>
<text text-anchor="start" x="90.7154" y="-758.3" font-family="Arial" font-size="14.00" fill="#000000">    </text>
<text text-anchor="start" x="124.9202" y="-758.3" font-family="Arial" font-size="14.00" fill="#666666">[BASE TABLE]</text>
<polygon fill="none" stroke="#000000" points="43,-715.5 43,-745.5 227,-745.5 227,-715.5 43,-715.5"/>
<text text-anchor="start" x="50" y="-726.9" font-family="Arial" font-size="14.00" fill="#000000">id    </text>
<text text-anchor="start" x="95.094" y="-726.9" font-family="Arial" font-size="14.00" fill="#666666">[int]</text>
<polygon fill="none" stroke="#000000" points="43,-685.5 43,-715.5 227,-715.5 227,-685.5 43,-685.5"/>
<text text-anchor="start" x="50" y="-696.9" font-family="Arial" font-size="14.00" fill="#000000">name    </text>
<text text-anchor="start" x="119.2132" y="-696.9" font-family="Arial" font-size="14.00" fill="#666666">[varchar(255)]</text>
<polygon fill="none" stroke="#000000" points="43,-655.5 43,-685.5 227,-685.5 227,-655.5 43,-655.5"/>
<text text-anchor="start" x="50" y="-666.9" font-family="Arial" font-size="14.00" fill="#000000">slug    </text>
<text text-anchor="start" x="109.8766" y="-666.9" font-family="Arial" font-size="14.00" fill="#666666">[varchar(255)]</text>
<polygon fill="none" stroke="#000000" points="43,-625.5 43,-655.5 227,-655.5 227,-625.5 43,-625.5"/>
<text text-anchor="start" x="50" y="-636.9" font-family="Arial" font-size="14.00" fill="#000000">createdAt    </text>
<text text-anchor="start" x="144.1136" y="-636.9" font-family="Arial" font-size="14.00" fill="#666666">[timestamp]</text>
<polygon fill="none" stroke="#000000" points="43,-595.5 43,-625.5 227,-625.5 227,-595.5 43,-595.5"/>
<text text-anchor="start" x="49.8219" y="-606.9" font-family="Arial" font-size="14.00" fill="#000000">updatedAt    </text>
<text text-anchor="start" x="147.8401" y="-606.9" font-family="Arial" font-size="14.00" fill="#666666">[timestamp]</text>
<polygon fill="none" stroke="#000000" points="43,-565.5 43,-595.5 227,-595.5 227,-565.5 43,-565.5"/>
<text text-anchor="start" x="50" y="-576.9" font-family="Arial" font-size="14.00" fill="#000000">organizationId    </text>
<text text-anchor="start" x="172.1206" y="-576.9" font-family="Arial" font-size="14.00" fill="#666666">[int]</text>
</g>
<!-- roles&#45;&gt;organizations -->
<g id="edge1" class="edge">
<title>roles:organizationId&#45;&gt;organizations:id</title>
<path fill="none" stroke="#000000" stroke-dasharray="5,2" d="M237.2064,-579.8517C313.4242,-569.3299 210.5158,-433.4698 279,-373 370.1233,-292.5404 1243.4385,-240.5 1365,-240.5"/>
<polygon fill="#000000" stroke="#000000" points="236.9799,-579.866 226.7147,-576.0091 231.9899,-580.183 227,-580.5 227,-580.5 227,-580.5 231.9899,-580.183 227.2853,-584.9909 236.9799,-579.866 236.9799,-579.866"/>
<text text-anchor="start" x="205.7765" y="-590.5" font-family="Arial" font-size="10.00" fill="#000000">1&#45;n</text>
</g>
<!-- user_organization_roles -->
<g id="node3" class="node">
<title>user_organization_roles</title>
<polygon fill="#efefef" stroke="transparent" points="332,-745.5 332,-780.5 665,-780.5 665,-745.5 332,-745.5"/>
<polygon fill="none" stroke="#000000" points="332,-745.5 332,-780.5 665,-780.5 665,-745.5 332,-745.5"/>
<text text-anchor="start" x="338.695" y="-758.3" font-family="Arial Bold" font-size="18.00" fill="#000000">user_organization_roles</text>
<text text-anchor="start" x="530.737" y="-758.3" font-family="Arial" font-size="14.00" fill="#000000">    </text>
<text text-anchor="start" x="564.9418" y="-758.3" font-family="Arial" font-size="14.00" fill="#666666">[BASE TABLE]</text>
<polygon fill="none" stroke="#000000" points="332,-715.5 332,-745.5 665,-745.5 665,-715.5 332,-715.5"/>
<text text-anchor="start" x="339" y="-726.9" font-family="Arial" font-size="14.00" fill="#000000">id    </text>
<text text-anchor="start" x="384.094" y="-726.9" font-family="Arial" font-size="14.00" fill="#666666">[int]</text>
<polygon fill="none" stroke="#000000" points="332,-685.5 332,-715.5 665,-715.5 665,-685.5 332,-685.5"/>
<text text-anchor="start" x="339" y="-696.9" font-family="Arial" font-size="14.00" fill="#000000">userId    </text>
<text text-anchor="start" x="412.1038" y="-696.9" font-family="Arial" font-size="14.00" fill="#666666">[int]</text>
<polygon fill="none" stroke="#000000" points="332,-655.5 332,-685.5 665,-685.5 665,-655.5 332,-655.5"/>
<text text-anchor="start" x="339" y="-666.9" font-family="Arial" font-size="14.00" fill="#000000">organizationId    </text>
<text text-anchor="start" x="461.1206" y="-666.9" font-family="Arial" font-size="14.00" fill="#666666">[int]</text>
<polygon fill="none" stroke="#000000" points="332,-625.5 332,-655.5 665,-655.5 665,-625.5 332,-625.5"/>
<text text-anchor="start" x="339" y="-636.9" font-family="Arial" font-size="14.00" fill="#000000">roleId    </text>
<text text-anchor="start" x="408.2104" y="-636.9" font-family="Arial" font-size="14.00" fill="#666666">[int]</text>
<polygon fill="none" stroke="#000000" points="332,-595.5 332,-625.5 665,-625.5 665,-595.5 332,-595.5"/>
<text text-anchor="start" x="339" y="-606.9" font-family="Arial" font-size="14.00" fill="#000000">createdAt    </text>
<text text-anchor="start" x="433.1136" y="-606.9" font-family="Arial" font-size="14.00" fill="#666666">[timestamp]</text>
<polygon fill="none" stroke="#000000" points="332,-565.5 332,-595.5 665,-595.5 665,-565.5 332,-565.5"/>
<text text-anchor="start" x="339" y="-576.9" font-family="Arial" font-size="14.00" fill="#000000">updatedAt    </text>
<text text-anchor="start" x="437.0182" y="-576.9" font-family="Arial" font-size="14.00" fill="#666666">[timestamp]</text>
</g>
<!-- user_organization_roles&#45;&gt;organizations -->
<g id="edge2" class="edge">
<title>user_organization_roles:organizationId&#45;&gt;organizations:id</title>
<path fill="none" stroke="#000000" stroke-dasharray="5,2" d="M674.8789,-668.3367C725.5395,-643.8315 671.8786,-418.5388 716,-373 818.426,-267.2836 1217.8028,-240.5 1365,-240.5"/>
<polygon fill="#000000" stroke="#000000" points="674.7685,-668.3608 664.0373,-666.1042 669.8843,-669.4304 665,-670.5 665,-670.5 665,-670.5 669.8843,-669.4304 665.9627,-674.8958 674.7685,-668.3608 674.7685,-668.3608"/>
<text text-anchor="start" x="643.7765" y="-680.5" font-family="Arial" font-size="10.00" fill="#000000">1&#45;n</text>
</g>
<!-- user_organizations -->
<g id="node4" class="node">
<title>user_organizations</title>
<polygon fill="#efefef" stroke="transparent" points="769,-730.5 769,-765.5 1062,-765.5 1062,-730.5 769,-730.5"/>
<polygon fill="none" stroke="#000000" points="769,-730.5 769,-765.5 1062,-765.5 1062,-730.5 769,-730.5"/>
<text text-anchor="start" x="775.6975" y="-743.3" font-family="Arial Bold" font-size="18.00" fill="#000000">user_organizations</text>
<text text-anchor="start" x="927.7345" y="-743.3" font-family="Arial" font-size="14.00" fill="#000000">    </text>
<text text-anchor="start" x="961.9393" y="-743.3" font-family="Arial" font-size="14.00" fill="#666666">[BASE TABLE]</text>
<polygon fill="none" stroke="#000000" points="769,-700.5 769,-730.5 1062,-730.5 1062,-700.5 769,-700.5"/>
<text text-anchor="start" x="776" y="-711.9" font-family="Arial" font-size="14.00" fill="#000000">id    </text>
<text text-anchor="start" x="821.094" y="-711.9" font-family="Arial" font-size="14.00" fill="#666666">[int]</text>
<polygon fill="none" stroke="#000000" points="769,-670.5 769,-700.5 1062,-700.5 1062,-670.5 769,-670.5"/>
<text text-anchor="start" x="776" y="-681.9" font-family="Arial" font-size="14.00" fill="#000000">userId    </text>
<text text-anchor="start" x="849.1038" y="-681.9" font-family="Arial" font-size="14.00" fill="#666666">[int]</text>
<polygon fill="none" stroke="#000000" points="769,-640.5 769,-670.5 1062,-670.5 1062,-640.5 769,-640.5"/>
<text text-anchor="start" x="776" y="-651.9" font-family="Arial" font-size="14.00" fill="#000000">organizationId    </text>
<text text-anchor="start" x="898.1206" y="-651.9" font-family="Arial" font-size="14.00" fill="#666666">[int]</text>
<polygon fill="none" stroke="#000000" points="769,-610.5 769,-640.5 1062,-640.5 1062,-610.5 769,-610.5"/>
<text text-anchor="start" x="776" y="-621.9" font-family="Arial" font-size="14.00" fill="#000000">createdAt    </text>
<text text-anchor="start" x="870.1136" y="-621.9" font-family="Arial" font-size="14.00" fill="#666666">[timestamp]</text>
<polygon fill="none" stroke="#000000" points="769,-580.5 769,-610.5 1062,-610.5 1062,-580.5 769,-580.5"/>
<text text-anchor="start" x="776" y="-591.9" font-family="Arial" font-size="14.00" fill="#000000">updatedAt    </text>
<text text-anchor="start" x="874.0182" y="-591.9" font-family="Arial" font-size="14.00" fill="#666666">[timestamp]</text>
</g>
<!-- user_organizations&#45;&gt;organizations -->
<g id="edge3" class="edge">
<title>user_organizations:organizationId&#45;&gt;organizations:id</title>
<path fill="none" stroke="#000000" stroke-dasharray="5,2" d="M1071.7764,-653.3508C1120.3535,-629.9021 1077.4161,-421.5318 1113,-373 1187.8217,-270.9529 1238.4619,-240.5 1365,-240.5"/>
<polygon fill="#000000" stroke="#000000" points="1071.7668,-653.3529 1061.0338,-651.1049 1066.8834,-654.4264 1062,-655.5 1062,-655.5 1062,-655.5 1066.8834,-654.4264 1062.9662,-659.8951 1071.7668,-653.3529 1071.7668,-653.3529"/>
<text text-anchor="start" x="1040.7765" y="-665.5" font-family="Arial" font-size="10.00" fill="#000000">1&#45;n</text>
</g>
<!-- invoices -->
<g id="node5" class="node">
<title>invoices</title>
<polygon fill="#efefef" stroke="transparent" points="1166,-895.5 1166,-930.5 1407,-930.5 1407,-895.5 1166,-895.5"/>
<polygon fill="none" stroke="#000000" points="1166,-895.5 1166,-930.5 1407,-930.5 1407,-895.5 1166,-895.5"/>
<text text-anchor="start" x="1190.2125" y="-908.3" font-family="Arial Bold" font-size="18.00" fill="#000000">invoices</text>
<text text-anchor="start" x="1255.2195" y="-908.3" font-family="Arial" font-size="14.00" fill="#000000">    </text>
<text text-anchor="start" x="1289.4243" y="-908.3" font-family="Arial" font-size="14.00" fill="#666666">[BASE TABLE]</text>
<polygon fill="none" stroke="#000000" points="1166,-865.5 1166,-895.5 1407,-895.5 1407,-865.5 1166,-865.5"/>
<text text-anchor="start" x="1173" y="-876.9" font-family="Arial" font-size="14.00" fill="#000000">id    </text>
<text text-anchor="start" x="1218.094" y="-876.9" font-family="Arial" font-size="14.00" fill="#666666">[int]</text>
<polygon fill="none" stroke="#000000" points="1166,-835.5 1166,-865.5 1407,-865.5 1407,-835.5 1166,-835.5"/>
<text text-anchor="start" x="1173" y="-846.9" font-family="Arial" font-size="14.00" fill="#000000">date    </text>
<text text-anchor="start" x="1234.4432" y="-846.9" font-family="Arial" font-size="14.00" fill="#666666">[timestamp]</text>
<polygon fill="none" stroke="#000000" points="1166,-805.5 1166,-835.5 1407,-835.5 1407,-805.5 1166,-805.5"/>
<text text-anchor="start" x="1173" y="-816.9" font-family="Arial" font-size="14.00" fill="#000000">createdAt    </text>
<text text-anchor="start" x="1267.1136" y="-816.9" font-family="Arial" font-size="14.00" fill="#666666">[timestamp]</text>
<polygon fill="none" stroke="#000000" points="1166,-775.5 1166,-805.5 1407,-805.5 1407,-775.5 1166,-775.5"/>
<text text-anchor="start" x="1173" y="-786.9" font-family="Arial" font-size="14.00" fill="#000000">updatedAt    </text>
<text text-anchor="start" x="1271.0182" y="-786.9" font-family="Arial" font-size="14.00" fill="#666666">[timestamp]</text>
<polygon fill="none" stroke="#000000" points="1166,-745.5 1166,-775.5 1407,-775.5 1407,-745.5 1166,-745.5"/>
<text text-anchor="start" x="1173" y="-756.9" font-family="Arial" font-size="14.00" fill="#000000">organizationId    </text>
<text text-anchor="start" x="1295.1206" y="-756.9" font-family="Arial" font-size="14.00" fill="#666666">[int]</text>
<polygon fill="none" stroke="#000000" points="1166,-715.5 1166,-745.5 1407,-745.5 1407,-715.5 1166,-715.5"/>
<text text-anchor="start" x="1173" y="-726.9" font-family="Arial" font-size="14.00" fill="#000000">total    </text>
<text text-anchor="start" x="1233.6578" y="-726.9" font-family="Arial" font-size="14.00" fill="#666666">[int]</text>
<polygon fill="none" stroke="#000000" points="1166,-685.5 1166,-715.5 1407,-715.5 1407,-685.5 1166,-685.5"/>
<text text-anchor="start" x="1173" y="-696.9" font-family="Arial" font-size="14.00" fill="#000000">currency    </text>
<text text-anchor="start" x="1260.8738" y="-696.9" font-family="Arial" font-size="14.00" fill="#666666">[enum(&#39;vnd&#39;,&#39;usd&#39;)]</text>
<polygon fill="none" stroke="#000000" points="1166,-655.5 1166,-685.5 1407,-685.5 1407,-655.5 1166,-655.5"/>
<text text-anchor="start" x="1172.9698" y="-666.9" font-family="Arial" font-size="14.00" fill="#000000">type    </text>
<text text-anchor="start" x="1233.6304" y="-666.9" font-family="Arial" font-size="14.00" fill="#666666">[enum(&#39;expense&#39;,&#39;income&#39;)]</text>
<polygon fill="none" stroke="#000000" points="1166,-625.5 1166,-655.5 1407,-655.5 1407,-625.5 1166,-625.5"/>
<text text-anchor="start" x="1173" y="-636.9" font-family="Arial" font-size="14.00" fill="#000000">projectId    </text>
<text text-anchor="start" x="1260.8836" y="-636.9" font-family="Arial" font-size="14.00" fill="#666666">[int]</text>
<polygon fill="none" stroke="#000000" points="1166,-595.5 1166,-625.5 1407,-625.5 1407,-595.5 1166,-595.5"/>
<text text-anchor="start" x="1173" y="-606.9" font-family="Arial" font-size="14.00" fill="#000000">categoryId    </text>
<text text-anchor="start" x="1272.5596" y="-606.9" font-family="Arial" font-size="14.00" fill="#666666">[int]</text>
<polygon fill="none" stroke="#000000" points="1166,-565.5 1166,-595.5 1407,-595.5 1407,-565.5 1166,-565.5"/>
<text text-anchor="start" x="1173" y="-576.9" font-family="Arial" font-size="14.00" fill="#000000">clientName    </text>
<text text-anchor="start" x="1277.2062" y="-576.9" font-family="Arial" font-size="14.00" fill="#666666">[varchar(255)]</text>
<polygon fill="none" stroke="#000000" points="1166,-535.5 1166,-565.5 1407,-565.5 1407,-535.5 1166,-535.5"/>
<text text-anchor="start" x="1173" y="-546.9" font-family="Arial" font-size="14.00" fill="#000000">tax    </text>
<text text-anchor="start" x="1225.878" y="-546.9" font-family="Arial" font-size="14.00" fill="#666666">[int]</text>
<polygon fill="none" stroke="#000000" points="1166,-505.5 1166,-535.5 1407,-535.5 1407,-505.5 1166,-505.5"/>
<text text-anchor="start" x="1173" y="-516.9" font-family="Arial" font-size="14.00" fill="#000000">uid    </text>
<text text-anchor="start" x="1225.8766" y="-516.9" font-family="Arial" font-size="14.00" fill="#666666">[varchar(255)]</text>
<polygon fill="none" stroke="#000000" points="1166,-475.5 1166,-505.5 1407,-505.5 1407,-475.5 1166,-475.5"/>
<text text-anchor="start" x="1173" y="-486.9" font-family="Arial" font-size="14.00" fill="#000000">exchangeRate    </text>
<text text-anchor="start" x="1297.4628" y="-486.9" font-family="Arial" font-size="14.00" fill="#666666">[decimal(10,0)]</text>
<polygon fill="none" stroke="#000000" points="1166,-445.5 1166,-475.5 1407,-475.5 1407,-445.5 1166,-445.5"/>
<text text-anchor="start" x="1173" y="-456.9" font-family="Arial" font-size="14.00" fill="#000000">note    </text>
<text text-anchor="start" x="1234.4432" y="-456.9" font-family="Arial" font-size="14.00" fill="#666666">[varchar(255)]</text>
<polygon fill="none" stroke="#000000" points="1166,-415.5 1166,-445.5 1407,-445.5 1407,-415.5 1166,-415.5"/>
<text text-anchor="start" x="1173" y="-426.9" font-family="Arial" font-size="14.00" fill="#000000">discount    </text>
<text text-anchor="start" x="1259.3324" y="-426.9" font-family="Arial" font-size="14.00" fill="#666666">[int]</text>
</g>
<!-- invoices&#45;&gt;organizations -->
<g id="edge4" class="edge">
<title>invoices:organizationId&#45;&gt;organizations:id</title>
<path fill="none" stroke="#000000" stroke-dasharray="5,2" d="M1416.9185,-758.9765C1489.0228,-735.5191 1441.5063,-448.0243 1407,-373 1396.7268,-350.6638 1375.2732,-359.3362 1365,-337 1347.0786,-298.0349 1322.1111,-240.5 1365,-240.5"/>
<polygon fill="#000000" stroke="#000000" points="1416.8841,-758.9817 1406.3167,-756.0522 1411.942,-759.7408 1407,-760.5 1407,-760.5 1407,-760.5 1411.942,-759.7408 1407.6833,-764.9478 1416.8841,-758.9817 1416.8841,-758.9817"/>
<text text-anchor="start" x="1385.7765" y="-770.5" font-family="Arial" font-size="10.00" fill="#000000">1&#45;n</text>
</g>
<!-- user_organization_invoices -->
<g id="node6" class="node">
<title>user_organization_invoices</title>
<polygon fill="#efefef" stroke="transparent" points="1511,-745.5 1511,-780.5 1870,-780.5 1870,-745.5 1511,-745.5"/>
<polygon fill="none" stroke="#000000" points="1511,-745.5 1511,-780.5 1870,-780.5 1870,-745.5 1511,-745.5"/>
<text text-anchor="start" x="1517.6909" y="-758.3" font-family="Arial Bold" font-size="18.00" fill="#000000">user_organization_invoices</text>
<text text-anchor="start" x="1735.7411" y="-758.3" font-family="Arial" font-size="14.00" fill="#000000">    </text>
<text text-anchor="start" x="1769.9459" y="-758.3" font-family="Arial" font-size="14.00" fill="#666666">[BASE TABLE]</text>
<polygon fill="none" stroke="#000000" points="1511,-715.5 1511,-745.5 1870,-745.5 1870,-715.5 1511,-715.5"/>
<text text-anchor="start" x="1518" y="-726.9" font-family="Arial" font-size="14.00" fill="#000000">id    </text>
<text text-anchor="start" x="1563.094" y="-726.9" font-family="Arial" font-size="14.00" fill="#666666">[int]</text>
<polygon fill="none" stroke="#000000" points="1511,-685.5 1511,-715.5 1870,-715.5 1870,-685.5 1511,-685.5"/>
<text text-anchor="start" x="1518" y="-696.9" font-family="Arial" font-size="14.00" fill="#000000">userId    </text>
<text text-anchor="start" x="1591.1038" y="-696.9" font-family="Arial" font-size="14.00" fill="#666666">[int]</text>
<polygon fill="none" stroke="#000000" points="1511,-655.5 1511,-685.5 1870,-685.5 1870,-655.5 1511,-655.5"/>
<text text-anchor="start" x="1518" y="-666.9" font-family="Arial" font-size="14.00" fill="#000000">organizationId    </text>
<text text-anchor="start" x="1640.1206" y="-666.9" font-family="Arial" font-size="14.00" fill="#666666">[int]</text>
<polygon fill="none" stroke="#000000" points="1511,-625.5 1511,-655.5 1870,-655.5 1870,-625.5 1511,-625.5"/>
<text text-anchor="start" x="1518" y="-636.9" font-family="Arial" font-size="14.00" fill="#000000">invoiceId    </text>
<text text-anchor="start" x="1607.439" y="-636.9" font-family="Arial" font-size="14.00" fill="#666666">[int]</text>
<polygon fill="none" stroke="#000000" points="1511,-595.5 1511,-625.5 1870,-625.5 1870,-595.5 1511,-595.5"/>
<text text-anchor="start" x="1518" y="-606.9" font-family="Arial" font-size="14.00" fill="#000000">createdAt    </text>
<text text-anchor="start" x="1612.1136" y="-606.9" font-family="Arial" font-size="14.00" fill="#666666">[timestamp]</text>
<polygon fill="none" stroke="#000000" points="1511,-565.5 1511,-595.5 1870,-595.5 1870,-565.5 1511,-565.5"/>
<text text-anchor="start" x="1518" y="-576.9" font-family="Arial" font-size="14.00" fill="#000000">updatedAt    </text>
<text text-anchor="start" x="1616.0182" y="-576.9" font-family="Arial" font-size="14.00" fill="#666666">[timestamp]</text>
</g>
<!-- user_organization_invoices&#45;&gt;organizations -->
<g id="edge5" class="edge">
<title>user_organization_invoices:organizationId&#45;&gt;organizations:id</title>
<path fill="none" stroke="#000000" stroke-dasharray="5,2" d="M1500.9391,-669.7106C1450.9217,-661.0506 1495.6519,-582.9076 1511,-523 1534.3987,-431.6688 1589.6013,-428.3312 1613,-337 1623.6442,-295.4529 1655.8889,-240.5 1613,-240.5"/>
<polygon fill="#000000" stroke="#000000" points="1501.0306,-669.7177 1510.6479,-674.9862 1506.0153,-670.1088 1511,-670.5 1511,-670.5 1511,-670.5 1506.0153,-670.1088 1511.3521,-666.0138 1501.0306,-669.7177 1501.0306,-669.7177"/>
<text text-anchor="start" x="1489.7765" y="-680.5" font-family="Arial" font-size="10.00" fill="#000000">1&#45;n</text>
</g>
<!-- projects -->
<g id="node7" class="node">
<title>projects</title>
<polygon fill="#efefef" stroke="transparent" points="1974,-805.5 1974,-840.5 2178,-840.5 2178,-805.5 1974,-805.5"/>
<polygon fill="none" stroke="#000000" points="1974,-805.5 1974,-840.5 2178,-840.5 2178,-805.5 1974,-805.5"/>
<text text-anchor="start" x="1980.7124" y="-818.3" font-family="Arial Bold" font-size="18.00" fill="#000000">projects</text>
<text text-anchor="start" x="2043.7196" y="-818.3" font-family="Arial" font-size="14.00" fill="#000000">    </text>
<text text-anchor="start" x="2077.9244" y="-818.3" font-family="Arial" font-size="14.00" fill="#666666">[BASE TABLE]</text>
<polygon fill="none" stroke="#000000" points="1974,-775.5 1974,-805.5 2178,-805.5 2178,-775.5 1974,-775.5"/>
<text text-anchor="start" x="1981" y="-786.9" font-family="Arial" font-size="14.00" fill="#000000">id    </text>
<text text-anchor="start" x="2026.094" y="-786.9" font-family="Arial" font-size="14.00" fill="#666666">[int]</text>
<polygon fill="none" stroke="#000000" points="1974,-745.5 1974,-775.5 2178,-775.5 2178,-745.5 1974,-745.5"/>
<text text-anchor="start" x="1981" y="-756.9" font-family="Arial" font-size="14.00" fill="#000000">name    </text>
<text text-anchor="start" x="2050.2132" y="-756.9" font-family="Arial" font-size="14.00" fill="#666666">[varchar(255)]</text>
<polygon fill="none" stroke="#000000" points="1974,-715.5 1974,-745.5 2178,-745.5 2178,-715.5 1974,-715.5"/>
<text text-anchor="start" x="1981" y="-726.9" font-family="Arial" font-size="14.00" fill="#000000">description    </text>
<text text-anchor="start" x="2082.8822" y="-726.9" font-family="Arial" font-size="14.00" fill="#666666">[varchar(255)]</text>
<polygon fill="none" stroke="#000000" points="1974,-685.5 1974,-715.5 2178,-715.5 2178,-685.5 1974,-685.5"/>
<text text-anchor="start" x="1981" y="-696.9" font-family="Arial" font-size="14.00" fill="#000000">totalBudget    </text>
<text text-anchor="start" x="2086.0154" y="-696.9" font-family="Arial" font-size="14.00" fill="#666666">[int]</text>
<polygon fill="none" stroke="#000000" points="1974,-655.5 1974,-685.5 2178,-685.5 2178,-655.5 1974,-655.5"/>
<text text-anchor="start" x="1981" y="-666.9" font-family="Arial" font-size="14.00" fill="#000000">startDate    </text>
<text text-anchor="start" x="2071.9916" y="-666.9" font-family="Arial" font-size="14.00" fill="#666666">[timestamp]</text>
<polygon fill="none" stroke="#000000" points="1974,-625.5 1974,-655.5 2178,-655.5 2178,-625.5 1974,-625.5"/>
<text text-anchor="start" x="1981" y="-636.9" font-family="Arial" font-size="14.00" fill="#000000">endDate    </text>
<text text-anchor="start" x="2068.115" y="-636.9" font-family="Arial" font-size="14.00" fill="#666666">[timestamp]</text>
<polygon fill="none" stroke="#000000" points="1974,-595.5 1974,-625.5 2178,-625.5 2178,-595.5 1974,-595.5"/>
<text text-anchor="start" x="1981" y="-606.9" font-family="Arial" font-size="14.00" fill="#000000">createdAt    </text>
<text text-anchor="start" x="2075.1136" y="-606.9" font-family="Arial" font-size="14.00" fill="#666666">[timestamp]</text>
<polygon fill="none" stroke="#000000" points="1974,-565.5 1974,-595.5 2178,-595.5 2178,-565.5 1974,-565.5"/>
<text text-anchor="start" x="1981" y="-576.9" font-family="Arial" font-size="14.00" fill="#000000">updatedAt    </text>
<text text-anchor="start" x="2079.0182" y="-576.9" font-family="Arial" font-size="14.00" fill="#666666">[timestamp]</text>
<polygon fill="none" stroke="#000000" points="1974,-535.5 1974,-565.5 2178,-565.5 2178,-535.5 1974,-535.5"/>
<text text-anchor="start" x="1981" y="-546.9" font-family="Arial" font-size="14.00" fill="#000000">organizationId    </text>
<text text-anchor="start" x="2103.1206" y="-546.9" font-family="Arial" font-size="14.00" fill="#666666">[int]</text>
<polygon fill="none" stroke="#000000" points="1974,-505.5 1974,-535.5 2178,-535.5 2178,-505.5 1974,-505.5"/>
<text text-anchor="start" x="1981" y="-516.9" font-family="Arial" font-size="14.00" fill="#000000">creatorId    </text>
<text text-anchor="start" x="2070.4376" y="-516.9" font-family="Arial" font-size="14.00" fill="#666666">[int]</text>
</g>
<!-- projects&#45;&gt;organizations -->
<g id="edge6" class="edge">
<title>projects:organizationId&#45;&gt;organizations:id</title>
<path fill="none" stroke="#000000" stroke-dasharray="5,2" d="M1963.9046,-549.8133C1899.1277,-540.1891 1974.0843,-431.7479 1922,-373 1822.8711,-261.1885 1762.4267,-240.5 1613,-240.5"/>
<polygon fill="#000000" stroke="#000000" points="1964.0231,-549.8212 1973.6946,-554.9896 1969.0115,-550.1606 1974,-550.5 1974,-550.5 1974,-550.5 1969.0115,-550.1606 1974.3054,-546.0104 1964.0231,-549.8212 1964.0231,-549.8212"/>
<text text-anchor="start" x="1952.7765" y="-560.5" font-family="Arial" font-size="10.00" fill="#000000">1&#45;n</text>
</g>
<!-- budgets -->
<g id="node8" class="node">
<title>budgets</title>
<polygon fill="#efefef" stroke="transparent" points="2283,-760.5 2283,-795.5 2488,-795.5 2488,-760.5 2283,-760.5"/>
<polygon fill="none" stroke="#000000" points="2283,-760.5 2283,-795.5 2488,-795.5 2488,-760.5 2283,-760.5"/>
<text text-anchor="start" x="2289.6994" y="-773.3" font-family="Arial Bold" font-size="18.00" fill="#000000">budgets</text>
<text text-anchor="start" x="2353.7326" y="-773.3" font-family="Arial" font-size="14.00" fill="#000000">    </text>
<text text-anchor="start" x="2387.9374" y="-773.3" font-family="Arial" font-size="14.00" fill="#666666">[BASE TABLE]</text>
<polygon fill="none" stroke="#000000" points="2283,-730.5 2283,-760.5 2488,-760.5 2488,-730.5 2283,-730.5"/>
<text text-anchor="start" x="2290" y="-741.9" font-family="Arial" font-size="14.00" fill="#000000">id    </text>
<text text-anchor="start" x="2335.094" y="-741.9" font-family="Arial" font-size="14.00" fill="#666666">[int]</text>
<polygon fill="none" stroke="#000000" points="2283,-700.5 2283,-730.5 2488,-730.5 2488,-700.5 2283,-700.5"/>
<text text-anchor="start" x="2290" y="-711.9" font-family="Arial" font-size="14.00" fill="#000000">projectId    </text>
<text text-anchor="start" x="2377.8836" y="-711.9" font-family="Arial" font-size="14.00" fill="#666666">[int]</text>
<polygon fill="none" stroke="#000000" points="2283,-670.5 2283,-700.5 2488,-700.5 2488,-670.5 2283,-670.5"/>
<text text-anchor="start" x="2290" y="-681.9" font-family="Arial" font-size="14.00" fill="#000000">categoryId    </text>
<text text-anchor="start" x="2389.5596" y="-681.9" font-family="Arial" font-size="14.00" fill="#666666">[int]</text>
<polygon fill="none" stroke="#000000" points="2283,-640.5 2283,-670.5 2488,-670.5 2488,-640.5 2283,-640.5"/>
<text text-anchor="start" x="2290" y="-651.9" font-family="Arial" font-size="14.00" fill="#000000">amount    </text>
<text text-anchor="start" x="2370.8864" y="-651.9" font-family="Arial" font-size="14.00" fill="#666666">[int]</text>
<polygon fill="none" stroke="#000000" points="2283,-610.5 2283,-640.5 2488,-640.5 2488,-610.5 2283,-610.5"/>
<text text-anchor="start" x="2290" y="-621.9" font-family="Arial" font-size="14.00" fill="#000000">createdAt    </text>
<text text-anchor="start" x="2384.1136" y="-621.9" font-family="Arial" font-size="14.00" fill="#666666">[timestamp]</text>
<polygon fill="none" stroke="#000000" points="2283,-580.5 2283,-610.5 2488,-610.5 2488,-580.5 2283,-580.5"/>
<text text-anchor="start" x="2290" y="-591.9" font-family="Arial" font-size="14.00" fill="#000000">updatedAt    </text>
<text text-anchor="start" x="2388.0182" y="-591.9" font-family="Arial" font-size="14.00" fill="#666666">[timestamp]</text>
<polygon fill="none" stroke="#000000" points="2283,-550.5 2283,-580.5 2488,-580.5 2488,-550.5 2283,-550.5"/>
<text text-anchor="start" x="2290" y="-561.9" font-family="Arial" font-size="14.00" fill="#000000">organizationId    </text>
<text text-anchor="start" x="2412.1206" y="-561.9" font-family="Arial" font-size="14.00" fill="#666666">[int]</text>
</g>
<!-- budgets&#45;&gt;organizations -->
<g id="edge7" class="edge">
<title>budgets:organizationId&#45;&gt;organizations:id</title>
<path fill="none" stroke="#000000" stroke-dasharray="5,2" d="M2273.0103,-564.8499C2202.2077,-554.826 2291.8685,-431.4311 2230,-373 2128.0456,-276.7102 1753.2371,-240.5 1613,-240.5"/>
<polygon fill="#000000" stroke="#000000" points="2273.0211,-564.8505 2282.7077,-569.9905 2278.0106,-565.1753 2283,-565.5 2283,-565.5 2283,-565.5 2278.0106,-565.1753 2283.2923,-561.0095 2273.0211,-564.8505 2273.0211,-564.8505"/>
<text text-anchor="start" x="2261.7765" y="-575.5" font-family="Arial" font-size="10.00" fill="#000000">1&#45;n</text>
</g>
<!-- categories -->
<g id="node9" class="node">
<title>categories</title>
<polygon fill="#efefef" stroke="transparent" points="2592,-790.5 2592,-825.5 2833,-825.5 2833,-790.5 2592,-790.5"/>
<polygon fill="none" stroke="#000000" points="2592,-790.5 2592,-825.5 2833,-825.5 2833,-790.5 2592,-790.5"/>
<text text-anchor="start" x="2607.2062" y="-803.3" font-family="Arial Bold" font-size="18.00" fill="#000000">categories</text>
<text text-anchor="start" x="2690.2258" y="-803.3" font-family="Arial" font-size="14.00" fill="#000000">    </text>
<text text-anchor="start" x="2724.4306" y="-803.3" font-family="Arial" font-size="14.00" fill="#666666">[BASE TABLE]</text>
<polygon fill="none" stroke="#000000" points="2592,-760.5 2592,-790.5 2833,-790.5 2833,-760.5 2592,-760.5"/>
<text text-anchor="start" x="2599" y="-771.9" font-family="Arial" font-size="14.00" fill="#000000">id    </text>
<text text-anchor="start" x="2644.094" y="-771.9" font-family="Arial" font-size="14.00" fill="#666666">[int]</text>
<polygon fill="none" stroke="#000000" points="2592,-730.5 2592,-760.5 2833,-760.5 2833,-730.5 2592,-730.5"/>
<text text-anchor="start" x="2599" y="-741.9" font-family="Arial" font-size="14.00" fill="#000000">name    </text>
<text text-anchor="start" x="2668.2132" y="-741.9" font-family="Arial" font-size="14.00" fill="#666666">[varchar(255)]</text>
<polygon fill="none" stroke="#000000" points="2592,-700.5 2592,-730.5 2833,-730.5 2833,-700.5 2592,-700.5"/>
<text text-anchor="start" x="2599" y="-711.9" font-family="Arial" font-size="14.00" fill="#000000">color    </text>
<text text-anchor="start" x="2663.5372" y="-711.9" font-family="Arial" font-size="14.00" fill="#666666">[varchar(255)]</text>
<polygon fill="none" stroke="#000000" points="2592,-670.5 2592,-700.5 2833,-700.5 2833,-670.5 2592,-670.5"/>
<text text-anchor="start" x="2599" y="-681.9" font-family="Arial" font-size="14.00" fill="#000000">icon    </text>
<text text-anchor="start" x="2658.8766" y="-681.9" font-family="Arial" font-size="14.00" fill="#666666">[varchar(255)]</text>
<polygon fill="none" stroke="#000000" points="2592,-640.5 2592,-670.5 2833,-670.5 2833,-640.5 2592,-640.5"/>
<text text-anchor="start" x="2598.9698" y="-651.9" font-family="Arial" font-size="14.00" fill="#000000">type    </text>
<text text-anchor="start" x="2659.6304" y="-651.9" font-family="Arial" font-size="14.00" fill="#666666">[enum(&#39;expense&#39;,&#39;income&#39;)]</text>
<polygon fill="none" stroke="#000000" points="2592,-610.5 2592,-640.5 2833,-640.5 2833,-610.5 2592,-610.5"/>
<text text-anchor="start" x="2599" y="-621.9" font-family="Arial" font-size="14.00" fill="#000000">createdAt    </text>
<text text-anchor="start" x="2693.1136" y="-621.9" font-family="Arial" font-size="14.00" fill="#666666">[timestamp]</text>
<polygon fill="none" stroke="#000000" points="2592,-580.5 2592,-610.5 2833,-610.5 2833,-580.5 2592,-580.5"/>
<text text-anchor="start" x="2599" y="-591.9" font-family="Arial" font-size="14.00" fill="#000000">updatedAt    </text>
<text text-anchor="start" x="2697.0182" y="-591.9" font-family="Arial" font-size="14.00" fill="#666666">[timestamp]</text>
<polygon fill="none" stroke="#000000" points="2592,-550.5 2592,-580.5 2833,-580.5 2833,-550.5 2592,-550.5"/>
<text text-anchor="start" x="2599" y="-561.9" font-family="Arial" font-size="14.00" fill="#000000">organizationId    </text>
<text text-anchor="start" x="2721.1206" y="-561.9" font-family="Arial" font-size="14.00" fill="#666666">[int]</text>
<polygon fill="none" stroke="#000000" points="2592,-520.5 2592,-550.5 2833,-550.5 2833,-520.5 2592,-520.5"/>
<text text-anchor="start" x="2599" y="-531.9" font-family="Arial" font-size="14.00" fill="#000000">projectId    </text>
<text text-anchor="start" x="2686.8836" y="-531.9" font-family="Arial" font-size="14.00" fill="#666666">[int]</text>
</g>
<!-- categories&#45;&gt;organizations -->
<g id="edge8" class="edge">
<title>categories:organizationId&#45;&gt;organizations:id</title>
<path fill="none" stroke="#000000" stroke-dasharray="5,2" d="M2581.6087,-564.7756C2511.9157,-554.1429 2603.5132,-429.2095 2540,-373 2462.0843,-304.0443 1717.0468,-240.5 1613,-240.5"/>
<polygon fill="#000000" stroke="#000000" points="2582.0242,-564.8045 2591.687,-569.9891 2587.0121,-565.1523 2592,-565.5 2592,-565.5 2592,-565.5 2587.0121,-565.1523 2592.313,-561.0109 2582.0242,-564.8045 2582.0242,-564.8045"/>
<text text-anchor="start" x="2570.7765" y="-575.5" font-family="Arial" font-size="10.00" fill="#000000">1&#45;n</text>
</g>
</g>
</svg>
