<?xml version="1.0" encoding="UTF-8" standalone="no"?>
<!DOCTYPE svg PUBLIC "-//W3C//DTD SVG 1.1//EN"
 "http://www.w3.org/Graphics/SVG/1.1/DTD/svg11.dtd">
<!-- Generated by graphviz version 2.40.1 (20161225.0304)
 -->
<!-- Title: organizations Pages: 1 -->
<svg width="2884pt" height="892pt"
 viewBox="0.00 0.00 2883.50 892.00" xmlns="http://www.w3.org/2000/svg" xmlns:xlink="http://www.w3.org/1999/xlink">
<g id="graph0" class="graph" transform="scale(1 1) rotate(0) translate(4 888)">
<title>organizations</title>
<polygon fill="#ffffff" stroke="transparent" points="-4,4 -4,-888 2879.5,-888 2879.5,4 -4,4"/>
<!-- organizations -->
<g id="node1" class="node">
<title>organizations</title>
<polygon fill="#efefef" stroke="transparent" points="1365,-255.5 1365,-290.5 1613,-290.5 1613,-255.5 1365,-255.5"/>
<polygon fill="none" stroke="#000000" points="1365,-255.5 1365,-290.5 1613,-290.5 1613,-255.5 1365,-255.5"/>
<text text-anchor="start" x="1371.7029" y="-268.3" font-family="Arial Bold" font-size="18.00" fill="#000000">organizations</text>
<text text-anchor="start" x="1478.7291" y="-268.3" font-family="Arial" font-size="14.00" fill="#000000">    </text>
<text text-anchor="start" x="1512.9339" y="-268.3" font-family="Arial" font-size="14.00" fill="#666666">[BASE TABLE]</text>
<polygon fill="none" stroke="#000000" points="1365,-225.5 1365,-255.5 1613,-255.5 1613,-225.5 1365,-225.5"/>
<text text-anchor="start" x="1372" y="-236.9" font-family="Arial" font-size="14.00" fill="#000000">id </text>
<text text-anchor="start" x="1386.7798" y="-236.9" font-family="Arial" font-size="14.00" fill="#666666">[int]</text>
<polygon fill="none" stroke="#000000" points="1365,-195.5 1365,-225.5 1613,-225.5 1613,-195.5 1365,-195.5"/>
<text text-anchor="start" x="1372" y="-206.9" font-family="Arial" font-size="14.00" fill="#000000">name </text>
<text text-anchor="start" x="1410.899" y="-206.9" font-family="Arial" font-size="14.00" fill="#666666">[varchar(255)]</text>
<polygon fill="none" stroke="#000000" points="1365,-165.5 1365,-195.5 1613,-195.5 1613,-165.5 1365,-165.5"/>
<text text-anchor="start" x="1372" y="-176.9" font-family="Arial" font-size="14.00" fill="#000000">uniqueName </text>
<text text-anchor="start" x="1455.2426" y="-176.9" font-family="Arial" font-size="14.00" fill="#666666">[varchar(255)]</text>
<polygon fill="none" stroke="#000000" points="1365,-135.5 1365,-165.5 1613,-165.5 1613,-135.5 1365,-135.5"/>
<text text-anchor="start" x="1372" y="-146.9" font-family="Arial" font-size="14.00" fill="#000000">createdAt </text>
<text text-anchor="start" x="1435.7994" y="-146.9" font-family="Arial" font-size="14.00" fill="#666666">[timestamp]</text>
<polygon fill="none" stroke="#000000" points="1365,-105.5 1365,-135.5 1613,-135.5 1613,-105.5 1365,-105.5"/>
<text text-anchor="start" x="1372" y="-116.9" font-family="Arial" font-size="14.00" fill="#000000">updatedAt </text>
<text text-anchor="start" x="1439.704" y="-116.9" font-family="Arial" font-size="14.00" fill="#666666">[timestamp]</text>
<polygon fill="none" stroke="#000000" points="1365,-75.5 1365,-105.5 1613,-105.5 1613,-75.5 1365,-75.5"/>
<text text-anchor="start" x="1372" y="-86.9" font-family="Arial" font-size="14.00" fill="#000000">phone </text>
<text text-anchor="start" x="1414.8036" y="-86.9" font-family="Arial" font-size="14.00" fill="#666666">[varchar(255)]</text>
<polygon fill="none" stroke="#000000" points="1365,-45.5 1365,-75.5 1613,-75.5 1613,-45.5 1365,-45.5"/>
<text text-anchor="start" x="1372" y="-56.9" font-family="Arial" font-size="14.00" fill="#000000">address </text>
<text text-anchor="start" x="1425.6816" y="-56.9" font-family="Arial" font-size="14.00" fill="#666666">[varchar(255)]</text>
<polygon fill="none" stroke="#000000" stroke-width="3" points="1363.5,-44.5 1363.5,-292.5 1614.5,-292.5 1614.5,-44.5 1363.5,-44.5"/>
</g>
<!-- roles -->
<g id="node2" class="node">
<title>roles</title>
<polygon fill="#efefef" stroke="transparent" points="43,-700.5 43,-735.5 227,-735.5 227,-700.5 43,-700.5"/>
<polygon fill="none" stroke="#000000" points="43,-700.5 43,-735.5 227,-735.5 227,-700.5 43,-700.5"/>
<text text-anchor="start" x="51.7166" y="-713.3" font-family="Arial Bold" font-size="18.00" fill="#000000">roles</text>
<text text-anchor="start" x="90.7154" y="-713.3" font-family="Arial" font-size="14.00" fill="#000000">    </text>
<text text-anchor="start" x="124.9202" y="-713.3" font-family="Arial" font-size="14.00" fill="#666666">[BASE TABLE]</text>
<polygon fill="none" stroke="#000000" points="43,-670.5 43,-700.5 227,-700.5 227,-670.5 43,-670.5"/>
<text text-anchor="start" x="50" y="-681.9" font-family="Arial" font-size="14.00" fill="#000000">id    </text>
<text text-anchor="start" x="95.094" y="-681.9" font-family="Arial" font-size="14.00" fill="#666666">[int]</text>
<polygon fill="none" stroke="#000000" points="43,-640.5 43,-670.5 227,-670.5 227,-640.5 43,-640.5"/>
<text text-anchor="start" x="50" y="-651.9" font-family="Arial" font-size="14.00" fill="#000000">name    </text>
<text text-anchor="start" x="119.2132" y="-651.9" font-family="Arial" font-size="14.00" fill="#666666">[varchar(255)]</text>
<polygon fill="none" stroke="#000000" points="43,-610.5 43,-640.5 227,-640.5 227,-610.5 43,-610.5"/>
<text text-anchor="start" x="50" y="-621.9" font-family="Arial" font-size="14.00" fill="#000000">slug    </text>
<text text-anchor="start" x="109.8766" y="-621.9" font-family="Arial" font-size="14.00" fill="#666666">[varchar(255)]</text>
<polygon fill="none" stroke="#000000" points="43,-580.5 43,-610.5 227,-610.5 227,-580.5 43,-580.5"/>
<text text-anchor="start" x="50" y="-591.9" font-family="Arial" font-size="14.00" fill="#000000">createdAt    </text>
<text text-anchor="start" x="144.1136" y="-591.9" font-family="Arial" font-size="14.00" fill="#666666">[timestamp]</text>
<polygon fill="none" stroke="#000000" points="43,-550.5 43,-580.5 227,-580.5 227,-550.5 43,-550.5"/>
<text text-anchor="start" x="49.8219" y="-561.9" font-family="Arial" font-size="14.00" fill="#000000">updatedAt    </text>
<text text-anchor="start" x="147.8401" y="-561.9" font-family="Arial" font-size="14.00" fill="#666666">[timestamp]</text>
<polygon fill="none" stroke="#000000" points="43,-520.5 43,-550.5 227,-550.5 227,-520.5 43,-520.5"/>
<text text-anchor="start" x="50" y="-531.9" font-family="Arial" font-size="14.00" fill="#000000">organizationId    </text>
<text text-anchor="start" x="172.1206" y="-531.9" font-family="Arial" font-size="14.00" fill="#666666">[int]</text>
</g>
<!-- roles&#45;&gt;organizations -->
<g id="edge1" class="edge">
<title>roles:organizationId&#45;&gt;organizations:id</title>
<path fill="none" stroke="#000000" stroke-dasharray="5,2" d="M237.012,-534.7044C295.1328,-524.5086 223.4296,-418.9812 279,-373 372.657,-295.5044 1243.4385,-240.5 1365,-240.5"/>
<polygon fill="#000000" stroke="#000000" points="236.9686,-534.7078 226.6435,-531.0141 231.9843,-535.1039 227,-535.5 227,-535.5 227,-535.5 231.9843,-535.1039 227.3565,-539.9859 236.9686,-534.7078 236.9686,-534.7078"/>
<text text-anchor="start" x="205.7765" y="-545.5" font-family="Arial" font-size="10.00" fill="#000000">1&#45;n</text>
</g>
<!-- user_organization_roles -->
<g id="node3" class="node">
<title>user_organization_roles</title>
<polygon fill="#efefef" stroke="transparent" points="332,-700.5 332,-735.5 665,-735.5 665,-700.5 332,-700.5"/>
<polygon fill="none" stroke="#000000" points="332,-700.5 332,-735.5 665,-735.5 665,-700.5 332,-700.5"/>
<text text-anchor="start" x="338.695" y="-713.3" font-family="Arial Bold" font-size="18.00" fill="#000000">user_organization_roles</text>
<text text-anchor="start" x="530.737" y="-713.3" font-family="Arial" font-size="14.00" fill="#000000">    </text>
<text text-anchor="start" x="564.9418" y="-713.3" font-family="Arial" font-size="14.00" fill="#666666">[BASE TABLE]</text>
<polygon fill="none" stroke="#000000" points="332,-670.5 332,-700.5 665,-700.5 665,-670.5 332,-670.5"/>
<text text-anchor="start" x="339" y="-681.9" font-family="Arial" font-size="14.00" fill="#000000">id    </text>
<text text-anchor="start" x="384.094" y="-681.9" font-family="Arial" font-size="14.00" fill="#666666">[int]</text>
<polygon fill="none" stroke="#000000" points="332,-640.5 332,-670.5 665,-670.5 665,-640.5 332,-640.5"/>
<text text-anchor="start" x="339" y="-651.9" font-family="Arial" font-size="14.00" fill="#000000">userId    </text>
<text text-anchor="start" x="412.1038" y="-651.9" font-family="Arial" font-size="14.00" fill="#666666">[int]</text>
<polygon fill="none" stroke="#000000" points="332,-610.5 332,-640.5 665,-640.5 665,-610.5 332,-610.5"/>
<text text-anchor="start" x="339" y="-621.9" font-family="Arial" font-size="14.00" fill="#000000">organizationId    </text>
<text text-anchor="start" x="461.1206" y="-621.9" font-family="Arial" font-size="14.00" fill="#666666">[int]</text>
<polygon fill="none" stroke="#000000" points="332,-580.5 332,-610.5 665,-610.5 665,-580.5 332,-580.5"/>
<text text-anchor="start" x="339" y="-591.9" font-family="Arial" font-size="14.00" fill="#000000">roleId    </text>
<text text-anchor="start" x="408.2104" y="-591.9" font-family="Arial" font-size="14.00" fill="#666666">[int]</text>
<polygon fill="none" stroke="#000000" points="332,-550.5 332,-580.5 665,-580.5 665,-550.5 332,-550.5"/>
<text text-anchor="start" x="339" y="-561.9" font-family="Arial" font-size="14.00" fill="#000000">createdAt    </text>
<text text-anchor="start" x="433.1136" y="-561.9" font-family="Arial" font-size="14.00" fill="#666666">[timestamp]</text>
<polygon fill="none" stroke="#000000" points="332,-520.5 332,-550.5 665,-550.5 665,-520.5 332,-520.5"/>
<text text-anchor="start" x="339" y="-531.9" font-family="Arial" font-size="14.00" fill="#000000">updatedAt    </text>
<text text-anchor="start" x="437.0182" y="-531.9" font-family="Arial" font-size="14.00" fill="#666666">[timestamp]</text>
</g>
<!-- user_organization_roles&#45;&gt;organizations -->
<g id="edge2" class="edge">
<title>user_organization_roles:organizationId&#45;&gt;organizations:id</title>
<path fill="none" stroke="#000000" stroke-dasharray="5,2" d="M674.9897,-625.0057C770.6859,-614.8721 637.6564,-451.5078 716,-373 819.9751,-268.8069 1217.8028,-240.5 1365,-240.5"/>
<polygon fill="#000000" stroke="#000000" points="674.9878,-625.0057 664.7776,-621.0055 669.9939,-625.2528 665,-625.5 665,-625.5 665,-625.5 669.9939,-625.2528 665.2224,-629.9945 674.9878,-625.0057 674.9878,-625.0057"/>
<text text-anchor="start" x="643.7765" y="-635.5" font-family="Arial" font-size="10.00" fill="#000000">1&#45;n</text>
</g>
<!-- user_organizations -->
<g id="node4" class="node">
<title>user_organizations</title>
<polygon fill="#efefef" stroke="transparent" points="769,-685.5 769,-720.5 1062,-720.5 1062,-685.5 769,-685.5"/>
<polygon fill="none" stroke="#000000" points="769,-685.5 769,-720.5 1062,-720.5 1062,-685.5 769,-685.5"/>
<text text-anchor="start" x="775.6975" y="-698.3" font-family="Arial Bold" font-size="18.00" fill="#000000">user_organizations</text>
<text text-anchor="start" x="927.7345" y="-698.3" font-family="Arial" font-size="14.00" fill="#000000">    </text>
<text text-anchor="start" x="961.9393" y="-698.3" font-family="Arial" font-size="14.00" fill="#666666">[BASE TABLE]</text>
<polygon fill="none" stroke="#000000" points="769,-655.5 769,-685.5 1062,-685.5 1062,-655.5 769,-655.5"/>
<text text-anchor="start" x="776" y="-666.9" font-family="Arial" font-size="14.00" fill="#000000">id    </text>
<text text-anchor="start" x="821.094" y="-666.9" font-family="Arial" font-size="14.00" fill="#666666">[int]</text>
<polygon fill="none" stroke="#000000" points="769,-625.5 769,-655.5 1062,-655.5 1062,-625.5 769,-625.5"/>
<text text-anchor="start" x="776" y="-636.9" font-family="Arial" font-size="14.00" fill="#000000">userId    </text>
<text text-anchor="start" x="849.1038" y="-636.9" font-family="Arial" font-size="14.00" fill="#666666">[int]</text>
<polygon fill="none" stroke="#000000" points="769,-595.5 769,-625.5 1062,-625.5 1062,-595.5 769,-595.5"/>
<text text-anchor="start" x="776" y="-606.9" font-family="Arial" font-size="14.00" fill="#000000">organizationId    </text>
<text text-anchor="start" x="898.1206" y="-606.9" font-family="Arial" font-size="14.00" fill="#666666">[int]</text>
<polygon fill="none" stroke="#000000" points="769,-565.5 769,-595.5 1062,-595.5 1062,-565.5 769,-565.5"/>
<text text-anchor="start" x="776" y="-576.9" font-family="Arial" font-size="14.00" fill="#000000">createdAt    </text>
<text text-anchor="start" x="870.1136" y="-576.9" font-family="Arial" font-size="14.00" fill="#666666">[timestamp]</text>
<polygon fill="none" stroke="#000000" points="769,-535.5 769,-565.5 1062,-565.5 1062,-535.5 769,-535.5"/>
<text text-anchor="start" x="776" y="-546.9" font-family="Arial" font-size="14.00" fill="#000000">updatedAt    </text>
<text text-anchor="start" x="874.0182" y="-546.9" font-family="Arial" font-size="14.00" fill="#666666">[timestamp]</text>
</g>
<!-- user_organizations&#45;&gt;organizations -->
<g id="edge3" class="edge">
<title>user_organizations:organizationId&#45;&gt;organizations:id</title>
<path fill="none" stroke="#000000" stroke-dasharray="5,2" d="M1072.008,-610.0069C1162.0521,-600.5119 1049.905,-456.1481 1113,-373 1189.4911,-272.1981 1238.4619,-240.5 1365,-240.5"/>
<polygon fill="#000000" stroke="#000000" points="1071.9879,-610.0078 1061.7785,-606.0055 1066.9939,-610.2539 1062,-610.5 1062,-610.5 1062,-610.5 1066.9939,-610.2539 1062.2215,-614.9945 1071.9879,-610.0078 1071.9879,-610.0078"/>
<text text-anchor="start" x="1040.7765" y="-620.5" font-family="Arial" font-size="10.00" fill="#000000">1&#45;n</text>
</g>
<!-- invoices -->
<g id="node5" class="node">
<title>invoices</title>
<polygon fill="#efefef" stroke="transparent" points="1166,-805.5 1166,-840.5 1407,-840.5 1407,-805.5 1166,-805.5"/>
<polygon fill="none" stroke="#000000" points="1166,-805.5 1166,-840.5 1407,-840.5 1407,-805.5 1166,-805.5"/>
<text text-anchor="start" x="1190.2125" y="-818.3" font-family="Arial Bold" font-size="18.00" fill="#000000">invoices</text>
<text text-anchor="start" x="1255.2195" y="-818.3" font-family="Arial" font-size="14.00" fill="#000000">    </text>
<text text-anchor="start" x="1289.4243" y="-818.3" font-family="Arial" font-size="14.00" fill="#666666">[BASE TABLE]</text>
<polygon fill="none" stroke="#000000" points="1166,-775.5 1166,-805.5 1407,-805.5 1407,-775.5 1166,-775.5"/>
<text text-anchor="start" x="1173" y="-786.9" font-family="Arial" font-size="14.00" fill="#000000">id    </text>
<text text-anchor="start" x="1218.094" y="-786.9" font-family="Arial" font-size="14.00" fill="#666666">[int]</text>
<polygon fill="none" stroke="#000000" points="1166,-745.5 1166,-775.5 1407,-775.5 1407,-745.5 1166,-745.5"/>
<text text-anchor="start" x="1173" y="-756.9" font-family="Arial" font-size="14.00" fill="#000000">date    </text>
<text text-anchor="start" x="1234.4432" y="-756.9" font-family="Arial" font-size="14.00" fill="#666666">[timestamp]</text>
<polygon fill="none" stroke="#000000" points="1166,-715.5 1166,-745.5 1407,-745.5 1407,-715.5 1166,-715.5"/>
<text text-anchor="start" x="1173" y="-726.9" font-family="Arial" font-size="14.00" fill="#000000">createdAt    </text>
<text text-anchor="start" x="1267.1136" y="-726.9" font-family="Arial" font-size="14.00" fill="#666666">[timestamp]</text>
<polygon fill="none" stroke="#000000" points="1166,-685.5 1166,-715.5 1407,-715.5 1407,-685.5 1166,-685.5"/>
<text text-anchor="start" x="1173" y="-696.9" font-family="Arial" font-size="14.00" fill="#000000">updatedAt    </text>
<text text-anchor="start" x="1271.0182" y="-696.9" font-family="Arial" font-size="14.00" fill="#666666">[timestamp]</text>
<polygon fill="none" stroke="#000000" points="1166,-655.5 1166,-685.5 1407,-685.5 1407,-655.5 1166,-655.5"/>
<text text-anchor="start" x="1173" y="-666.9" font-family="Arial" font-size="14.00" fill="#000000">organizationId    </text>
<text text-anchor="start" x="1295.1206" y="-666.9" font-family="Arial" font-size="14.00" fill="#666666">[int]</text>
<polygon fill="none" stroke="#000000" points="1166,-625.5 1166,-655.5 1407,-655.5 1407,-625.5 1166,-625.5"/>
<text text-anchor="start" x="1173" y="-636.9" font-family="Arial" font-size="14.00" fill="#000000">total    </text>
<text text-anchor="start" x="1233.6578" y="-636.9" font-family="Arial" font-size="14.00" fill="#666666">[int]</text>
<polygon fill="none" stroke="#000000" points="1166,-595.5 1166,-625.5 1407,-625.5 1407,-595.5 1166,-595.5"/>
<text text-anchor="start" x="1173" y="-606.9" font-family="Arial" font-size="14.00" fill="#000000">currency    </text>
<text text-anchor="start" x="1260.8738" y="-606.9" font-family="Arial" font-size="14.00" fill="#666666">[enum(&#39;vnd&#39;,&#39;usd&#39;)]</text>
<polygon fill="none" stroke="#000000" points="1166,-565.5 1166,-595.5 1407,-595.5 1407,-565.5 1166,-565.5"/>
<text text-anchor="start" x="1172.9698" y="-576.9" font-family="Arial" font-size="14.00" fill="#000000">type    </text>
<text text-anchor="start" x="1233.6304" y="-576.9" font-family="Arial" font-size="14.00" fill="#666666">[enum(&#39;expense&#39;,&#39;income&#39;)]</text>
<polygon fill="none" stroke="#000000" points="1166,-535.5 1166,-565.5 1407,-565.5 1407,-535.5 1166,-535.5"/>
<text text-anchor="start" x="1173" y="-546.9" font-family="Arial" font-size="14.00" fill="#000000">projectId    </text>
<text text-anchor="start" x="1260.8836" y="-546.9" font-family="Arial" font-size="14.00" fill="#666666">[int]</text>
<polygon fill="none" stroke="#000000" points="1166,-505.5 1166,-535.5 1407,-535.5 1407,-505.5 1166,-505.5"/>
<text text-anchor="start" x="1173" y="-516.9" font-family="Arial" font-size="14.00" fill="#000000">categoryId    </text>
<text text-anchor="start" x="1272.5596" y="-516.9" font-family="Arial" font-size="14.00" fill="#666666">[int]</text>
<polygon fill="none" stroke="#000000" points="1166,-475.5 1166,-505.5 1407,-505.5 1407,-475.5 1166,-475.5"/>
<text text-anchor="start" x="1173" y="-486.9" font-family="Arial" font-size="14.00" fill="#000000">clientName    </text>
<text text-anchor="start" x="1277.2062" y="-486.9" font-family="Arial" font-size="14.00" fill="#666666">[varchar(255)]</text>
<polygon fill="none" stroke="#000000" points="1166,-445.5 1166,-475.5 1407,-475.5 1407,-445.5 1166,-445.5"/>
<text text-anchor="start" x="1173" y="-456.9" font-family="Arial" font-size="14.00" fill="#000000">tax    </text>
<text text-anchor="start" x="1225.878" y="-456.9" font-family="Arial" font-size="14.00" fill="#666666">[int]</text>
<polygon fill="none" stroke="#000000" points="1166,-415.5 1166,-445.5 1407,-445.5 1407,-415.5 1166,-415.5"/>
<text text-anchor="start" x="1173" y="-426.9" font-family="Arial" font-size="14.00" fill="#000000">uid    </text>
<text text-anchor="start" x="1225.8766" y="-426.9" font-family="Arial" font-size="14.00" fill="#666666">[varchar(255)]</text>
</g>
<!-- invoices&#45;&gt;organizations -->
<g id="edge4" class="edge">
<title>invoices:organizationId&#45;&gt;organizations:id</title>
<path fill="none" stroke="#000000" stroke-dasharray="5,2" d="M1416.9268,-668.4375C1468.9342,-645.0608 1433.1142,-429.7781 1407,-373 1396.7268,-350.6638 1375.2732,-359.3362 1365,-337 1347.0786,-298.0349 1322.1111,-240.5 1365,-240.5"/>
<polygon fill="#000000" stroke="#000000" points="1416.7909,-668.4657 1406.0846,-666.0941 1411.8955,-669.4828 1407,-670.5 1407,-670.5 1407,-670.5 1411.8955,-669.4828 1407.9154,-674.9059 1416.7909,-668.4657 1416.7909,-668.4657"/>
<text text-anchor="start" x="1385.7765" y="-680.5" font-family="Arial" font-size="10.00" fill="#000000">1&#45;n</text>
</g>
<!-- user_organization_invoices -->
<g id="node6" class="node">
<title>user_organization_invoices</title>
<polygon fill="#efefef" stroke="transparent" points="1511,-700.5 1511,-735.5 1870,-735.5 1870,-700.5 1511,-700.5"/>
<polygon fill="none" stroke="#000000" points="1511,-700.5 1511,-735.5 1870,-735.5 1870,-700.5 1511,-700.5"/>
<text text-anchor="start" x="1517.6909" y="-713.3" font-family="Arial Bold" font-size="18.00" fill="#000000">user_organization_invoices</text>
<text text-anchor="start" x="1735.7411" y="-713.3" font-family="Arial" font-size="14.00" fill="#000000">    </text>
<text text-anchor="start" x="1769.9459" y="-713.3" font-family="Arial" font-size="14.00" fill="#666666">[BASE TABLE]</text>
<polygon fill="none" stroke="#000000" points="1511,-670.5 1511,-700.5 1870,-700.5 1870,-670.5 1511,-670.5"/>
<text text-anchor="start" x="1518" y="-681.9" font-family="Arial" font-size="14.00" fill="#000000">id    </text>
<text text-anchor="start" x="1563.094" y="-681.9" font-family="Arial" font-size="14.00" fill="#666666">[int]</text>
<polygon fill="none" stroke="#000000" points="1511,-640.5 1511,-670.5 1870,-670.5 1870,-640.5 1511,-640.5"/>
<text text-anchor="start" x="1518" y="-651.9" font-family="Arial" font-size="14.00" fill="#000000">userId    </text>
<text text-anchor="start" x="1591.1038" y="-651.9" font-family="Arial" font-size="14.00" fill="#666666">[int]</text>
<polygon fill="none" stroke="#000000" points="1511,-610.5 1511,-640.5 1870,-640.5 1870,-610.5 1511,-610.5"/>
<text text-anchor="start" x="1518" y="-621.9" font-family="Arial" font-size="14.00" fill="#000000">organizationId    </text>
<text text-anchor="start" x="1640.1206" y="-621.9" font-family="Arial" font-size="14.00" fill="#666666">[int]</text>
<polygon fill="none" stroke="#000000" points="1511,-580.5 1511,-610.5 1870,-610.5 1870,-580.5 1511,-580.5"/>
<text text-anchor="start" x="1518" y="-591.9" font-family="Arial" font-size="14.00" fill="#000000">invoiceId    </text>
<text text-anchor="start" x="1607.439" y="-591.9" font-family="Arial" font-size="14.00" fill="#666666">[int]</text>
<polygon fill="none" stroke="#000000" points="1511,-550.5 1511,-580.5 1870,-580.5 1870,-550.5 1511,-550.5"/>
<text text-anchor="start" x="1518" y="-561.9" font-family="Arial" font-size="14.00" fill="#000000">createdAt    </text>
<text text-anchor="start" x="1612.1136" y="-561.9" font-family="Arial" font-size="14.00" fill="#666666">[timestamp]</text>
<polygon fill="none" stroke="#000000" points="1511,-520.5 1511,-550.5 1870,-550.5 1870,-520.5 1511,-520.5"/>
<text text-anchor="start" x="1518" y="-531.9" font-family="Arial" font-size="14.00" fill="#000000">updatedAt    </text>
<text text-anchor="start" x="1616.0182" y="-531.9" font-family="Arial" font-size="14.00" fill="#666666">[timestamp]</text>
</g>
<!-- user_organization_invoices&#45;&gt;organizations -->
<g id="edge5" class="edge">
<title>user_organization_invoices:organizationId&#45;&gt;organizations:id</title>
<path fill="none" stroke="#000000" stroke-dasharray="5,2" d="M1500.9035,-624.7003C1450.5024,-615.9292 1491.9501,-536.8353 1511,-478 1534.8252,-404.4162 1589.1748,-410.5838 1613,-337 1626.2114,-296.1966 1655.8889,-240.5 1613,-240.5"/>
<polygon fill="#000000" stroke="#000000" points="1501.0312,-624.7103 1510.6446,-629.9859 1506.0156,-625.1051 1511,-625.5 1511,-625.5 1511,-625.5 1506.0156,-625.1051 1511.3554,-621.0141 1501.0312,-624.7103 1501.0312,-624.7103"/>
<text text-anchor="start" x="1489.7765" y="-635.5" font-family="Arial" font-size="10.00" fill="#000000">1&#45;n</text>
</g>
<!-- projects -->
<g id="node7" class="node">
<title>projects</title>
<polygon fill="#efefef" stroke="transparent" points="1974,-760.5 1974,-795.5 2178,-795.5 2178,-760.5 1974,-760.5"/>
<polygon fill="none" stroke="#000000" points="1974,-760.5 1974,-795.5 2178,-795.5 2178,-760.5 1974,-760.5"/>
<text text-anchor="start" x="1980.7124" y="-773.3" font-family="Arial Bold" font-size="18.00" fill="#000000">projects</text>
<text text-anchor="start" x="2043.7196" y="-773.3" font-family="Arial" font-size="14.00" fill="#000000">    </text>
<text text-anchor="start" x="2077.9244" y="-773.3" font-family="Arial" font-size="14.00" fill="#666666">[BASE TABLE]</text>
<polygon fill="none" stroke="#000000" points="1974,-730.5 1974,-760.5 2178,-760.5 2178,-730.5 1974,-730.5"/>
<text text-anchor="start" x="1981" y="-741.9" font-family="Arial" font-size="14.00" fill="#000000">id    </text>
<text text-anchor="start" x="2026.094" y="-741.9" font-family="Arial" font-size="14.00" fill="#666666">[int]</text>
<polygon fill="none" stroke="#000000" points="1974,-700.5 1974,-730.5 2178,-730.5 2178,-700.5 1974,-700.5"/>
<text text-anchor="start" x="1981" y="-711.9" font-family="Arial" font-size="14.00" fill="#000000">name    </text>
<text text-anchor="start" x="2050.2132" y="-711.9" font-family="Arial" font-size="14.00" fill="#666666">[varchar(255)]</text>
<polygon fill="none" stroke="#000000" points="1974,-670.5 1974,-700.5 2178,-700.5 2178,-670.5 1974,-670.5"/>
<text text-anchor="start" x="1981" y="-681.9" font-family="Arial" font-size="14.00" fill="#000000">description    </text>
<text text-anchor="start" x="2082.8822" y="-681.9" font-family="Arial" font-size="14.00" fill="#666666">[varchar(255)]</text>
<polygon fill="none" stroke="#000000" points="1974,-640.5 1974,-670.5 2178,-670.5 2178,-640.5 1974,-640.5"/>
<text text-anchor="start" x="1981" y="-651.9" font-family="Arial" font-size="14.00" fill="#000000">totalBudget    </text>
<text text-anchor="start" x="2086.0154" y="-651.9" font-family="Arial" font-size="14.00" fill="#666666">[int]</text>
<polygon fill="none" stroke="#000000" points="1974,-610.5 1974,-640.5 2178,-640.5 2178,-610.5 1974,-610.5"/>
<text text-anchor="start" x="1981" y="-621.9" font-family="Arial" font-size="14.00" fill="#000000">startDate    </text>
<text text-anchor="start" x="2071.9916" y="-621.9" font-family="Arial" font-size="14.00" fill="#666666">[timestamp]</text>
<polygon fill="none" stroke="#000000" points="1974,-580.5 1974,-610.5 2178,-610.5 2178,-580.5 1974,-580.5"/>
<text text-anchor="start" x="1981" y="-591.9" font-family="Arial" font-size="14.00" fill="#000000">endDate    </text>
<text text-anchor="start" x="2068.115" y="-591.9" font-family="Arial" font-size="14.00" fill="#666666">[timestamp]</text>
<polygon fill="none" stroke="#000000" points="1974,-550.5 1974,-580.5 2178,-580.5 2178,-550.5 1974,-550.5"/>
<text text-anchor="start" x="1981" y="-561.9" font-family="Arial" font-size="14.00" fill="#000000">createdAt    </text>
<text text-anchor="start" x="2075.1136" y="-561.9" font-family="Arial" font-size="14.00" fill="#666666">[timestamp]</text>
<polygon fill="none" stroke="#000000" points="1974,-520.5 1974,-550.5 2178,-550.5 2178,-520.5 1974,-520.5"/>
<text text-anchor="start" x="1981" y="-531.9" font-family="Arial" font-size="14.00" fill="#000000">updatedAt    </text>
<text text-anchor="start" x="2079.0182" y="-531.9" font-family="Arial" font-size="14.00" fill="#666666">[timestamp]</text>
<polygon fill="none" stroke="#000000" points="1974,-490.5 1974,-520.5 2178,-520.5 2178,-490.5 1974,-490.5"/>
<text text-anchor="start" x="1981" y="-501.9" font-family="Arial" font-size="14.00" fill="#000000">organizationId    </text>
<text text-anchor="start" x="2103.1206" y="-501.9" font-family="Arial" font-size="14.00" fill="#666666">[int]</text>
<polygon fill="none" stroke="#000000" points="1974,-460.5 1974,-490.5 2178,-490.5 2178,-460.5 1974,-460.5"/>
<text text-anchor="start" x="1981" y="-471.9" font-family="Arial" font-size="14.00" fill="#000000">creatorId    </text>
<text text-anchor="start" x="2070.4376" y="-471.9" font-family="Arial" font-size="14.00" fill="#666666">[int]</text>
</g>
<!-- projects&#45;&gt;organizations -->
<g id="edge6" class="edge">
<title>projects:organizationId&#45;&gt;organizations:id</title>
<path fill="none" stroke="#000000" stroke-dasharray="5,2" d="M1963.7646,-504.5709C1917.07,-495.1082 1963.3656,-415.6727 1922,-373 1817.9953,-265.709 1762.4267,-240.5 1613,-240.5"/>
<polygon fill="#000000" stroke="#000000" points="1964.0409,-504.5959 1973.5932,-509.9816 1969.0205,-505.048 1974,-505.5 1974,-505.5 1974,-505.5 1969.0205,-505.048 1974.4068,-501.0184 1964.0409,-504.5959 1964.0409,-504.5959"/>
<text text-anchor="start" x="1952.7765" y="-515.5" font-family="Arial" font-size="10.00" fill="#000000">1&#45;n</text>
</g>
<!-- budgets -->
<g id="node8" class="node">
<title>budgets</title>
<polygon fill="#efefef" stroke="transparent" points="2283,-715.5 2283,-750.5 2488,-750.5 2488,-715.5 2283,-715.5"/>
<polygon fill="none" stroke="#000000" points="2283,-715.5 2283,-750.5 2488,-750.5 2488,-715.5 2283,-715.5"/>
<text text-anchor="start" x="2289.6994" y="-728.3" font-family="Arial Bold" font-size="18.00" fill="#000000">budgets</text>
<text text-anchor="start" x="2353.7326" y="-728.3" font-family="Arial" font-size="14.00" fill="#000000">    </text>
<text text-anchor="start" x="2387.9374" y="-728.3" font-family="Arial" font-size="14.00" fill="#666666">[BASE TABLE]</text>
<polygon fill="none" stroke="#000000" points="2283,-685.5 2283,-715.5 2488,-715.5 2488,-685.5 2283,-685.5"/>
<text text-anchor="start" x="2290" y="-696.9" font-family="Arial" font-size="14.00" fill="#000000">id    </text>
<text text-anchor="start" x="2335.094" y="-696.9" font-family="Arial" font-size="14.00" fill="#666666">[int]</text>
<polygon fill="none" stroke="#000000" points="2283,-655.5 2283,-685.5 2488,-685.5 2488,-655.5 2283,-655.5"/>
<text text-anchor="start" x="2290" y="-666.9" font-family="Arial" font-size="14.00" fill="#000000">projectId    </text>
<text text-anchor="start" x="2377.8836" y="-666.9" font-family="Arial" font-size="14.00" fill="#666666">[int]</text>
<polygon fill="none" stroke="#000000" points="2283,-625.5 2283,-655.5 2488,-655.5 2488,-625.5 2283,-625.5"/>
<text text-anchor="start" x="2290" y="-636.9" font-family="Arial" font-size="14.00" fill="#000000">categoryId    </text>
<text text-anchor="start" x="2389.5596" y="-636.9" font-family="Arial" font-size="14.00" fill="#666666">[int]</text>
<polygon fill="none" stroke="#000000" points="2283,-595.5 2283,-625.5 2488,-625.5 2488,-595.5 2283,-595.5"/>
<text text-anchor="start" x="2290" y="-606.9" font-family="Arial" font-size="14.00" fill="#000000">amount    </text>
<text text-anchor="start" x="2370.8864" y="-606.9" font-family="Arial" font-size="14.00" fill="#666666">[int]</text>
<polygon fill="none" stroke="#000000" points="2283,-565.5 2283,-595.5 2488,-595.5 2488,-565.5 2283,-565.5"/>
<text text-anchor="start" x="2290" y="-576.9" font-family="Arial" font-size="14.00" fill="#000000">createdAt    </text>
<text text-anchor="start" x="2384.1136" y="-576.9" font-family="Arial" font-size="14.00" fill="#666666">[timestamp]</text>
<polygon fill="none" stroke="#000000" points="2283,-535.5 2283,-565.5 2488,-565.5 2488,-535.5 2283,-535.5"/>
<text text-anchor="start" x="2290" y="-546.9" font-family="Arial" font-size="14.00" fill="#000000">updatedAt    </text>
<text text-anchor="start" x="2388.0182" y="-546.9" font-family="Arial" font-size="14.00" fill="#666666">[timestamp]</text>
<polygon fill="none" stroke="#000000" points="2283,-505.5 2283,-535.5 2488,-535.5 2488,-505.5 2283,-505.5"/>
<text text-anchor="start" x="2290" y="-516.9" font-family="Arial" font-size="14.00" fill="#000000">organizationId    </text>
<text text-anchor="start" x="2412.1206" y="-516.9" font-family="Arial" font-size="14.00" fill="#666666">[int]</text>
</g>
<!-- budgets&#45;&gt;organizations -->
<g id="edge7" class="edge">
<title>budgets:organizationId&#45;&gt;organizations:id</title>
<path fill="none" stroke="#000000" stroke-dasharray="5,2" d="M2272.7739,-519.6138C2220.5341,-509.5503 2279.563,-416.3553 2230,-373 2124.4478,-280.6682 1753.2371,-240.5 1613,-240.5"/>
<polygon fill="#000000" stroke="#000000" points="2273.0373,-519.6366 2282.6115,-524.9832 2278.0187,-520.0683 2283,-520.5 2283,-520.5 2283,-520.5 2278.0187,-520.0683 2283.3885,-516.0168 2273.0373,-519.6366 2273.0373,-519.6366"/>
<text text-anchor="start" x="2261.7765" y="-530.5" font-family="Arial" font-size="10.00" fill="#000000">1&#45;n</text>
</g>
<!-- categories -->
<g id="node9" class="node">
<title>categories</title>
<polygon fill="#efefef" stroke="transparent" points="2592,-745.5 2592,-780.5 2833,-780.5 2833,-745.5 2592,-745.5"/>
<polygon fill="none" stroke="#000000" points="2592,-745.5 2592,-780.5 2833,-780.5 2833,-745.5 2592,-745.5"/>
<text text-anchor="start" x="2607.2062" y="-758.3" font-family="Arial Bold" font-size="18.00" fill="#000000">categories</text>
<text text-anchor="start" x="2690.2258" y="-758.3" font-family="Arial" font-size="14.00" fill="#000000">    </text>
<text text-anchor="start" x="2724.4306" y="-758.3" font-family="Arial" font-size="14.00" fill="#666666">[BASE TABLE]</text>
<polygon fill="none" stroke="#000000" points="2592,-715.5 2592,-745.5 2833,-745.5 2833,-715.5 2592,-715.5"/>
<text text-anchor="start" x="2599" y="-726.9" font-family="Arial" font-size="14.00" fill="#000000">id    </text>
<text text-anchor="start" x="2644.094" y="-726.9" font-family="Arial" font-size="14.00" fill="#666666">[int]</text>
<polygon fill="none" stroke="#000000" points="2592,-685.5 2592,-715.5 2833,-715.5 2833,-685.5 2592,-685.5"/>
<text text-anchor="start" x="2599" y="-696.9" font-family="Arial" font-size="14.00" fill="#000000">name    </text>
<text text-anchor="start" x="2668.2132" y="-696.9" font-family="Arial" font-size="14.00" fill="#666666">[varchar(255)]</text>
<polygon fill="none" stroke="#000000" points="2592,-655.5 2592,-685.5 2833,-685.5 2833,-655.5 2592,-655.5"/>
<text text-anchor="start" x="2599" y="-666.9" font-family="Arial" font-size="14.00" fill="#000000">color    </text>
<text text-anchor="start" x="2663.5372" y="-666.9" font-family="Arial" font-size="14.00" fill="#666666">[varchar(255)]</text>
<polygon fill="none" stroke="#000000" points="2592,-625.5 2592,-655.5 2833,-655.5 2833,-625.5 2592,-625.5"/>
<text text-anchor="start" x="2599" y="-636.9" font-family="Arial" font-size="14.00" fill="#000000">icon    </text>
<text text-anchor="start" x="2658.8766" y="-636.9" font-family="Arial" font-size="14.00" fill="#666666">[varchar(255)]</text>
<polygon fill="none" stroke="#000000" points="2592,-595.5 2592,-625.5 2833,-625.5 2833,-595.5 2592,-595.5"/>
<text text-anchor="start" x="2598.9698" y="-606.9" font-family="Arial" font-size="14.00" fill="#000000">type    </text>
<text text-anchor="start" x="2659.6304" y="-606.9" font-family="Arial" font-size="14.00" fill="#666666">[enum(&#39;expense&#39;,&#39;income&#39;)]</text>
<polygon fill="none" stroke="#000000" points="2592,-565.5 2592,-595.5 2833,-595.5 2833,-565.5 2592,-565.5"/>
<text text-anchor="start" x="2599" y="-576.9" font-family="Arial" font-size="14.00" fill="#000000">createdAt    </text>
<text text-anchor="start" x="2693.1136" y="-576.9" font-family="Arial" font-size="14.00" fill="#666666">[timestamp]</text>
<polygon fill="none" stroke="#000000" points="2592,-535.5 2592,-565.5 2833,-565.5 2833,-535.5 2592,-535.5"/>
<text text-anchor="start" x="2599" y="-546.9" font-family="Arial" font-size="14.00" fill="#000000">updatedAt    </text>
<text text-anchor="start" x="2697.0182" y="-546.9" font-family="Arial" font-size="14.00" fill="#666666">[timestamp]</text>
<polygon fill="none" stroke="#000000" points="2592,-505.5 2592,-535.5 2833,-535.5 2833,-505.5 2592,-505.5"/>
<text text-anchor="start" x="2599" y="-516.9" font-family="Arial" font-size="14.00" fill="#000000">organizationId    </text>
<text text-anchor="start" x="2721.1206" y="-516.9" font-family="Arial" font-size="14.00" fill="#666666">[int]</text>
<polygon fill="none" stroke="#000000" points="2592,-475.5 2592,-505.5 2833,-505.5 2833,-475.5 2592,-475.5"/>
<text text-anchor="start" x="2599" y="-486.9" font-family="Arial" font-size="14.00" fill="#000000">projectId    </text>
<text text-anchor="start" x="2686.8836" y="-486.9" font-family="Arial" font-size="14.00" fill="#666666">[int]</text>
</g>
<!-- categories&#45;&gt;organizations -->
<g id="edge8" class="edge">
<title>categories:organizationId&#45;&gt;organizations:id</title>
<path fill="none" stroke="#000000" stroke-dasharray="5,2" d="M2581.8155,-519.5987C2529.9096,-509.3659 2590.8064,-414.6696 2540,-373 2379.1008,-241.0363 1821.0937,-240.5 1613,-240.5"/>
<polygon fill="#000000" stroke="#000000" points="2582.0389,-519.6184 2591.6033,-524.9825 2587.0195,-520.0592 2592,-520.5 2592,-520.5 2592,-520.5 2587.0195,-520.0592 2592.3967,-516.0175 2582.0389,-519.6184 2582.0389,-519.6184"/>
<text text-anchor="start" x="2570.7765" y="-530.5" font-family="Arial" font-size="10.00" fill="#000000">1&#45;n</text>
</g>
</g>
</svg>
