<?xml version="1.0" encoding="UTF-8" standalone="no"?>
<!DOCTYPE svg PUBLIC "-//W3C//DTD SVG 1.1//EN"
 "http://www.w3.org/Graphics/SVG/1.1/DTD/svg11.dtd">
<!-- Generated by graphviz version 2.40.1 (20161225.0304)
 -->
<!-- Title: permissions Pages: 1 -->
<svg width="452pt" height="592pt"
 viewBox="0.00 0.00 452.00 592.00" xmlns="http://www.w3.org/2000/svg" xmlns:xlink="http://www.w3.org/1999/xlink">
<g id="graph0" class="graph" transform="scale(1 1) rotate(0) translate(4 588)">
<title>permissions</title>
<polygon fill="#ffffff" stroke="transparent" points="-4,4 -4,-588 448,-588 448,4 -4,4"/>
<!-- permissions -->
<g id="node1" class="node">
<title>permissions</title>
<polygon fill="#efefef" stroke="transparent" points="46,-195.5 46,-230.5 398,-230.5 398,-195.5 46,-195.5"/>
<polygon fill="none" stroke="#000000" points="46,-195.5 46,-230.5 398,-230.5 398,-195.5 46,-195.5"/>
<text text-anchor="start" x="110.2172" y="-208.3" font-family="Arial Bold" font-size="18.00" fill="#000000">permissions</text>
<text text-anchor="start" x="206.2148" y="-208.3" font-family="Arial" font-size="14.00" fill="#000000">    </text>
<text text-anchor="start" x="240.4196" y="-208.3" font-family="Arial" font-size="14.00" fill="#666666">[BASE TABLE]</text>
<polygon fill="none" stroke="#000000" points="46,-165.5 46,-195.5 398,-195.5 398,-165.5 46,-165.5"/>
<text text-anchor="start" x="53" y="-176.9" font-family="Arial" font-size="14.00" fill="#000000">id </text>
<text text-anchor="start" x="67.7798" y="-176.9" font-family="Arial" font-size="14.00" fill="#666666">[int]</text>
<polygon fill="none" stroke="#000000" points="46,-135.5 46,-165.5 398,-165.5 398,-135.5 46,-135.5"/>
<text text-anchor="start" x="52.8765" y="-146.9" font-family="Arial" font-size="14.00" fill="#000000">action </text>
<text text-anchor="start" x="94.1121" y="-146.9" font-family="Arial" font-size="14.00" fill="#666666">[enum(&#39;create&#39;,&#39;read&#39;,&#39;update&#39;,&#39;delete&#39;,&#39;manage&#39;)]</text>
<polygon fill="none" stroke="#000000" points="46,-105.5 46,-135.5 398,-135.5 398,-105.5 46,-105.5"/>
<text text-anchor="start" x="53" y="-116.9" font-family="Arial" font-size="14.00" fill="#000000">subject </text>
<text text-anchor="start" x="101.2356" y="-116.9" font-family="Arial" font-size="14.00" fill="#666666">[varchar(255)]</text>
<polygon fill="none" stroke="#000000" points="46,-75.5 46,-105.5 398,-105.5 398,-75.5 46,-75.5"/>
<text text-anchor="start" x="53" y="-86.9" font-family="Arial" font-size="14.00" fill="#000000">createdAt </text>
<text text-anchor="start" x="116.7994" y="-86.9" font-family="Arial" font-size="14.00" fill="#666666">[timestamp]</text>
<polygon fill="none" stroke="#000000" points="46,-45.5 46,-75.5 398,-75.5 398,-45.5 46,-45.5"/>
<text text-anchor="start" x="53" y="-56.9" font-family="Arial" font-size="14.00" fill="#000000">updatedAt </text>
<text text-anchor="start" x="120.704" y="-56.9" font-family="Arial" font-size="14.00" fill="#666666">[timestamp]</text>
<polygon fill="none" stroke="#000000" stroke-width="3" points="44.5,-44.5 44.5,-232.5 399.5,-232.5 399.5,-44.5 44.5,-44.5"/>
</g>
<!-- role_permissions -->
<g id="node2" class="node">
<title>role_permissions</title>
<polygon fill="#efefef" stroke="transparent" points="83,-505.5 83,-540.5 360,-540.5 360,-505.5 83,-505.5"/>
<polygon fill="none" stroke="#000000" points="83,-505.5 83,-540.5 360,-540.5 360,-505.5 83,-505.5"/>
<text text-anchor="start" x="89.7147" y="-518.3" font-family="Arial Bold" font-size="18.00" fill="#000000">role_permissions</text>
<text text-anchor="start" x="225.7173" y="-518.3" font-family="Arial" font-size="14.00" fill="#000000">    </text>
<text text-anchor="start" x="259.9221" y="-518.3" font-family="Arial" font-size="14.00" fill="#666666">[BASE TABLE]</text>
<polygon fill="none" stroke="#000000" points="83,-475.5 83,-505.5 360,-505.5 360,-475.5 83,-475.5"/>
<text text-anchor="start" x="90" y="-486.9" font-family="Arial" font-size="14.00" fill="#000000">id    </text>
<text text-anchor="start" x="135.094" y="-486.9" font-family="Arial" font-size="14.00" fill="#666666">[int]</text>
<polygon fill="none" stroke="#000000" points="83,-445.5 83,-475.5 360,-475.5 360,-445.5 83,-445.5"/>
<text text-anchor="start" x="90" y="-456.9" font-family="Arial" font-size="14.00" fill="#000000">roleId    </text>
<text text-anchor="start" x="159.2104" y="-456.9" font-family="Arial" font-size="14.00" fill="#666666">[int]</text>
<polygon fill="none" stroke="#000000" points="83,-415.5 83,-445.5 360,-445.5 360,-415.5 83,-415.5"/>
<text text-anchor="start" x="90" y="-426.9" font-family="Arial" font-size="14.00" fill="#000000">permissionId    </text>
<text text-anchor="start" x="203.5428" y="-426.9" font-family="Arial" font-size="14.00" fill="#666666">[int]</text>
<polygon fill="none" stroke="#000000" points="83,-385.5 83,-415.5 360,-415.5 360,-385.5 83,-385.5"/>
<text text-anchor="start" x="90" y="-396.9" font-family="Arial" font-size="14.00" fill="#000000">createdAt    </text>
<text text-anchor="start" x="184.1136" y="-396.9" font-family="Arial" font-size="14.00" fill="#666666">[timestamp]</text>
<polygon fill="none" stroke="#000000" points="83,-355.5 83,-385.5 360,-385.5 360,-355.5 83,-355.5"/>
<text text-anchor="start" x="90" y="-366.9" font-family="Arial" font-size="14.00" fill="#000000">updatedAt    </text>
<text text-anchor="start" x="188.0182" y="-366.9" font-family="Arial" font-size="14.00" fill="#666666">[timestamp]</text>
</g>
<!-- role_permissions&#45;&gt;permissions -->
<g id="edge1" class="edge">
<title>role_permissions:permissionId&#45;&gt;permissions:id</title>
<path fill="none" stroke="#000000" stroke-dasharray="5,2" d="M370.0003,-429.3764C409.6811,-419.6527 392.316,-349.2327 360,-313 266.5007,-208.1685 139.4993,-381.8315 46,-277 17.4524,-244.9924 3.1111,-180.5 46,-180.5"/>
<polygon fill="#000000" stroke="#000000" points="369.9375,-429.3833 359.4975,-426.0281 364.9687,-429.9417 360,-430.5 360,-430.5 360,-430.5 364.9687,-429.9417 360.5025,-434.9719 369.9375,-429.3833 369.9375,-429.3833"/>
<text text-anchor="start" x="338.7765" y="-440.5" font-family="Arial" font-size="10.00" fill="#000000">1&#45;n</text>
</g>
</g>
</svg>
