<?xml version="1.0" encoding="UTF-8" standalone="no"?>
<!DOCTYPE svg PUBLIC "-//W3C//DTD SVG 1.1//EN"
 "http://www.w3.org/Graphics/SVG/1.1/DTD/svg11.dtd">
<!-- Generated by graphviz version 2.40.1 (20161225.0304)
 -->
<!-- Title: projects Pages: 1 -->
<svg width="803pt" height="1409pt"
 viewBox="0.00 0.00 803.00 1409.00" xmlns="http://www.w3.org/2000/svg" xmlns:xlink="http://www.w3.org/1999/xlink">
<g id="graph0" class="graph" transform="scale(1 1) rotate(0) translate(4 1405)">
<title>projects</title>
<polygon fill="#ffffff" stroke="transparent" points="-4,4 -4,-1405 799,-1405 799,4 -4,4"/>
<!-- projects -->
<g id="node1" class="node">
<title>projects</title>
<polygon fill="#efefef" stroke="transparent" points="389.5,-772.5 389.5,-807.5 593.5,-807.5 593.5,-772.5 389.5,-772.5"/>
<polygon fill="none" stroke="#000000" points="389.5,-772.5 389.5,-807.5 593.5,-807.5 593.5,-772.5 389.5,-772.5"/>
<text text-anchor="start" x="396.2124" y="-785.3" font-family="Arial Bold" font-size="18.00" fill="#000000">projects</text>
<text text-anchor="start" x="459.2196" y="-785.3" font-family="Arial" font-size="14.00" fill="#000000">    </text>
<text text-anchor="start" x="493.4244" y="-785.3" font-family="Arial" font-size="14.00" fill="#666666">[BASE TABLE]</text>
<polygon fill="none" stroke="#000000" points="389.5,-742.5 389.5,-772.5 593.5,-772.5 593.5,-742.5 389.5,-742.5"/>
<text text-anchor="start" x="396.5" y="-753.9" font-family="Arial" font-size="14.00" fill="#000000">id </text>
<text text-anchor="start" x="411.2798" y="-753.9" font-family="Arial" font-size="14.00" fill="#666666">[int]</text>
<polygon fill="none" stroke="#000000" points="389.5,-712.5 389.5,-742.5 593.5,-742.5 593.5,-712.5 389.5,-712.5"/>
<text text-anchor="start" x="396.5" y="-723.9" font-family="Arial" font-size="14.00" fill="#000000">name </text>
<text text-anchor="start" x="435.399" y="-723.9" font-family="Arial" font-size="14.00" fill="#666666">[varchar(255)]</text>
<polygon fill="none" stroke="#000000" points="389.5,-682.5 389.5,-712.5 593.5,-712.5 593.5,-682.5 389.5,-682.5"/>
<text text-anchor="start" x="396.5" y="-693.9" font-family="Arial" font-size="14.00" fill="#000000">description </text>
<text text-anchor="start" x="468.068" y="-693.9" font-family="Arial" font-size="14.00" fill="#666666">[varchar(255)]</text>
<polygon fill="none" stroke="#000000" points="389.5,-652.5 389.5,-682.5 593.5,-682.5 593.5,-652.5 389.5,-652.5"/>
<text text-anchor="start" x="396.5" y="-663.9" font-family="Arial" font-size="14.00" fill="#000000">totalBudget </text>
<text text-anchor="start" x="471.2012" y="-663.9" font-family="Arial" font-size="14.00" fill="#666666">[int]</text>
<polygon fill="none" stroke="#000000" points="389.5,-622.5 389.5,-652.5 593.5,-652.5 593.5,-622.5 389.5,-622.5"/>
<text text-anchor="start" x="396.5" y="-633.9" font-family="Arial" font-size="14.00" fill="#000000">startDate </text>
<text text-anchor="start" x="457.1774" y="-633.9" font-family="Arial" font-size="14.00" fill="#666666">[timestamp]</text>
<polygon fill="none" stroke="#000000" points="389.5,-592.5 389.5,-622.5 593.5,-622.5 593.5,-592.5 389.5,-592.5"/>
<text text-anchor="start" x="396.5" y="-603.9" font-family="Arial" font-size="14.00" fill="#000000">endDate </text>
<text text-anchor="start" x="453.3008" y="-603.9" font-family="Arial" font-size="14.00" fill="#666666">[timestamp]</text>
<polygon fill="none" stroke="#000000" points="389.5,-562.5 389.5,-592.5 593.5,-592.5 593.5,-562.5 389.5,-562.5"/>
<text text-anchor="start" x="396.5" y="-573.9" font-family="Arial" font-size="14.00" fill="#000000">createdAt </text>
<text text-anchor="start" x="460.2994" y="-573.9" font-family="Arial" font-size="14.00" fill="#666666">[timestamp]</text>
<polygon fill="none" stroke="#000000" points="389.5,-532.5 389.5,-562.5 593.5,-562.5 593.5,-532.5 389.5,-532.5"/>
<text text-anchor="start" x="396.5" y="-543.9" font-family="Arial" font-size="14.00" fill="#000000">updatedAt </text>
<text text-anchor="start" x="464.204" y="-543.9" font-family="Arial" font-size="14.00" fill="#666666">[timestamp]</text>
<polygon fill="none" stroke="#000000" points="389.5,-502.5 389.5,-532.5 593.5,-532.5 593.5,-502.5 389.5,-502.5"/>
<text text-anchor="start" x="396.5" y="-513.9" font-family="Arial" font-size="14.00" fill="#000000">organizationId </text>
<text text-anchor="start" x="488.3064" y="-513.9" font-family="Arial" font-size="14.00" fill="#666666">[int]</text>
<polygon fill="none" stroke="#000000" points="389.5,-472.5 389.5,-502.5 593.5,-502.5 593.5,-472.5 389.5,-472.5"/>
<text text-anchor="start" x="396.5" y="-483.9" font-family="Arial" font-size="14.00" fill="#000000">creatorId </text>
<text text-anchor="start" x="455.6234" y="-483.9" font-family="Arial" font-size="14.00" fill="#666666">[int]</text>
<polygon fill="none" stroke="#000000" stroke-width="3" points="388,-471.5 388,-809.5 595,-809.5 595,-471.5 388,-471.5"/>
</g>
<!-- organizations -->
<g id="node4" class="node">
<title>organizations</title>
<polygon fill="#efefef" stroke="transparent" points="204.5,-282.5 204.5,-317.5 452.5,-317.5 452.5,-282.5 204.5,-282.5"/>
<polygon fill="none" stroke="#000000" points="204.5,-282.5 204.5,-317.5 452.5,-317.5 452.5,-282.5 204.5,-282.5"/>
<text text-anchor="start" x="211.2029" y="-295.3" font-family="Arial Bold" font-size="18.00" fill="#000000">organizations</text>
<text text-anchor="start" x="318.2291" y="-295.3" font-family="Arial" font-size="14.00" fill="#000000">    </text>
<text text-anchor="start" x="352.4339" y="-295.3" font-family="Arial" font-size="14.00" fill="#666666">[BASE TABLE]</text>
<polygon fill="none" stroke="#000000" points="204.5,-252.5 204.5,-282.5 452.5,-282.5 452.5,-252.5 204.5,-252.5"/>
<text text-anchor="start" x="211.5" y="-263.9" font-family="Arial" font-size="14.00" fill="#000000">id    </text>
<text text-anchor="start" x="256.594" y="-263.9" font-family="Arial" font-size="14.00" fill="#666666">[int]</text>
<polygon fill="none" stroke="#000000" points="204.5,-222.5 204.5,-252.5 452.5,-252.5 452.5,-222.5 204.5,-222.5"/>
<text text-anchor="start" x="211.5" y="-233.9" font-family="Arial" font-size="14.00" fill="#000000">name    </text>
<text text-anchor="start" x="280.7132" y="-233.9" font-family="Arial" font-size="14.00" fill="#666666">[varchar(255)]</text>
<polygon fill="none" stroke="#000000" points="204.5,-192.5 204.5,-222.5 452.5,-222.5 452.5,-192.5 204.5,-192.5"/>
<text text-anchor="start" x="211.5" y="-203.9" font-family="Arial" font-size="14.00" fill="#000000">uniqueName    </text>
<text text-anchor="start" x="325.0568" y="-203.9" font-family="Arial" font-size="14.00" fill="#666666">[varchar(255)]</text>
<polygon fill="none" stroke="#000000" points="204.5,-162.5 204.5,-192.5 452.5,-192.5 452.5,-162.5 204.5,-162.5"/>
<text text-anchor="start" x="211.5" y="-173.9" font-family="Arial" font-size="14.00" fill="#000000">createdAt    </text>
<text text-anchor="start" x="305.6136" y="-173.9" font-family="Arial" font-size="14.00" fill="#666666">[timestamp]</text>
<polygon fill="none" stroke="#000000" points="204.5,-132.5 204.5,-162.5 452.5,-162.5 452.5,-132.5 204.5,-132.5"/>
<text text-anchor="start" x="211.5" y="-143.9" font-family="Arial" font-size="14.00" fill="#000000">updatedAt    </text>
<text text-anchor="start" x="309.5182" y="-143.9" font-family="Arial" font-size="14.00" fill="#666666">[timestamp]</text>
<polygon fill="none" stroke="#000000" points="204.5,-102.5 204.5,-132.5 452.5,-132.5 452.5,-102.5 204.5,-102.5"/>
<text text-anchor="start" x="211.5" y="-113.9" font-family="Arial" font-size="14.00" fill="#000000">phone    </text>
<text text-anchor="start" x="284.6178" y="-113.9" font-family="Arial" font-size="14.00" fill="#666666">[varchar(255)]</text>
<polygon fill="none" stroke="#000000" points="204.5,-72.5 204.5,-102.5 452.5,-102.5 452.5,-72.5 204.5,-72.5"/>
<text text-anchor="start" x="211.5" y="-83.9" font-family="Arial" font-size="14.00" fill="#000000">address    </text>
<text text-anchor="start" x="295.4958" y="-83.9" font-family="Arial" font-size="14.00" fill="#666666">[varchar(255)]</text>
</g>
<!-- projects&#45;&gt;organizations -->
<g id="edge4" class="edge">
<title>projects:organizationId&#45;&gt;organizations:id</title>
<path fill="none" stroke="#000000" stroke-dasharray="5,2" d="M379.5191,-516.0432C354.1137,-507.2675 376.0015,-460.6907 389.5,-427 404.5819,-389.3572 437.4181,-398.6428 452.5,-361 467.9552,-322.4254 494.0556,-267.5 452.5,-267.5"/>
<polygon fill="#000000" stroke="#000000" points="379.6048,-516.0557 388.8501,-521.9528 384.5524,-516.7778 389.5,-517.5 389.5,-517.5 389.5,-517.5 384.5524,-516.7778 390.1499,-513.0472 379.6048,-516.0557 379.6048,-516.0557"/>
<text text-anchor="start" x="368.2765" y="-527.5" font-family="Arial" font-size="10.00" fill="#000000">1&#45;n</text>
</g>
<!-- users -->
<g id="node5" class="node">
<title>users</title>
<polygon fill="#efefef" stroke="transparent" points="557.5,-312.5 557.5,-347.5 752.5,-347.5 752.5,-312.5 557.5,-312.5"/>
<polygon fill="none" stroke="#000000" points="557.5,-312.5 557.5,-347.5 752.5,-347.5 752.5,-312.5 557.5,-312.5"/>
<text text-anchor="start" x="569.2137" y="-325.3" font-family="Arial Bold" font-size="18.00" fill="#000000">users</text>
<text text-anchor="start" x="613.2183" y="-325.3" font-family="Arial" font-size="14.00" fill="#000000">    </text>
<text text-anchor="start" x="647.4231" y="-325.3" font-family="Arial" font-size="14.00" fill="#666666">[BASE TABLE]</text>
<polygon fill="none" stroke="#000000" points="557.5,-282.5 557.5,-312.5 752.5,-312.5 752.5,-282.5 557.5,-282.5"/>
<text text-anchor="start" x="564.5" y="-293.9" font-family="Arial" font-size="14.00" fill="#000000">id    </text>
<text text-anchor="start" x="609.594" y="-293.9" font-family="Arial" font-size="14.00" fill="#666666">[int]</text>
<polygon fill="none" stroke="#000000" points="557.5,-252.5 557.5,-282.5 752.5,-282.5 752.5,-252.5 557.5,-252.5"/>
<text text-anchor="start" x="564.5" y="-263.9" font-family="Arial" font-size="14.00" fill="#000000">name    </text>
<text text-anchor="start" x="633.7132" y="-263.9" font-family="Arial" font-size="14.00" fill="#666666">[varchar(255)]</text>
<polygon fill="none" stroke="#000000" points="557.5,-222.5 557.5,-252.5 752.5,-252.5 752.5,-222.5 557.5,-222.5"/>
<text text-anchor="start" x="564.5" y="-233.9" font-family="Arial" font-size="14.00" fill="#000000">email    </text>
<text text-anchor="start" x="632.1438" y="-233.9" font-family="Arial" font-size="14.00" fill="#666666">[varchar(255)]</text>
<polygon fill="none" stroke="#000000" points="557.5,-192.5 557.5,-222.5 752.5,-222.5 752.5,-192.5 557.5,-192.5"/>
<text text-anchor="start" x="564.3892" y="-203.9" font-family="Arial" font-size="14.00" fill="#000000">password    </text>
<text text-anchor="start" x="658.4916" y="-203.9" font-family="Arial" font-size="14.00" fill="#666666">[varchar(255)]</text>
<polygon fill="none" stroke="#000000" points="557.5,-162.5 557.5,-192.5 752.5,-192.5 752.5,-162.5 557.5,-162.5"/>
<text text-anchor="start" x="564.5" y="-173.9" font-family="Arial" font-size="14.00" fill="#000000">createdAt    </text>
<text text-anchor="start" x="658.6136" y="-173.9" font-family="Arial" font-size="14.00" fill="#666666">[timestamp]</text>
<polygon fill="none" stroke="#000000" points="557.5,-132.5 557.5,-162.5 752.5,-162.5 752.5,-132.5 557.5,-132.5"/>
<text text-anchor="start" x="564.5" y="-143.9" font-family="Arial" font-size="14.00" fill="#000000">updatedAt    </text>
<text text-anchor="start" x="662.5182" y="-143.9" font-family="Arial" font-size="14.00" fill="#666666">[timestamp]</text>
<polygon fill="none" stroke="#000000" points="557.5,-102.5 557.5,-132.5 752.5,-132.5 752.5,-102.5 557.5,-102.5"/>
<text text-anchor="start" x="564.5" y="-113.9" font-family="Arial" font-size="14.00" fill="#000000">phone    </text>
<text text-anchor="start" x="637.6178" y="-113.9" font-family="Arial" font-size="14.00" fill="#666666">[varchar(255)]</text>
<polygon fill="none" stroke="#000000" points="557.5,-72.5 557.5,-102.5 752.5,-102.5 752.5,-72.5 557.5,-72.5"/>
<text text-anchor="start" x="564.5" y="-83.9" font-family="Arial" font-size="14.00" fill="#000000">address    </text>
<text text-anchor="start" x="648.4958" y="-83.9" font-family="Arial" font-size="14.00" fill="#666666">[varchar(255)]</text>
<polygon fill="none" stroke="#000000" points="557.5,-42.5 557.5,-72.5 752.5,-72.5 752.5,-42.5 557.5,-42.5"/>
<text text-anchor="start" x="564.5" y="-53.9" font-family="Arial" font-size="14.00" fill="#000000">avatar    </text>
<text text-anchor="start" x="637.6038" y="-53.9" font-family="Arial" font-size="14.00" fill="#666666">[varchar(255)]</text>
</g>
<!-- projects&#45;&gt;users -->
<g id="edge5" class="edge">
<title>projects:creatorId&#45;&gt;users:id</title>
<path fill="none" stroke="#000000" stroke-dasharray="5,2" d="M603.4427,-484.8259C615.1122,-476.0909 602.1017,-447.7664 593.5,-427 584.8409,-406.095 566.1591,-411.905 557.5,-391 541.5974,-352.6077 515.9444,-297.5 557.5,-297.5"/>
<polygon fill="#000000" stroke="#000000" points="603.1568,-484.9027 592.3312,-483.1544 598.3284,-486.2013 593.5,-487.5 593.5,-487.5 593.5,-487.5 598.3284,-486.2013 594.6688,-491.8456 603.1568,-484.9027 603.1568,-484.9027"/>
<text text-anchor="start" x="572.2765" y="-497.5" font-family="Arial" font-size="10.00" fill="#000000">1&#45;n</text>
</g>
<!-- invoices -->
<g id="node2" class="node">
<title>invoices</title>
<polygon fill="#efefef" stroke="transparent" points="43.5,-1322.5 43.5,-1357.5 284.5,-1357.5 284.5,-1322.5 43.5,-1322.5"/>
<polygon fill="none" stroke="#000000" points="43.5,-1322.5 43.5,-1357.5 284.5,-1357.5 284.5,-1322.5 43.5,-1322.5"/>
<text text-anchor="start" x="67.7125" y="-1335.3" font-family="Arial Bold" font-size="18.00" fill="#000000">invoices</text>
<text text-anchor="start" x="132.7195" y="-1335.3" font-family="Arial" font-size="14.00" fill="#000000">    </text>
<text text-anchor="start" x="166.9243" y="-1335.3" font-family="Arial" font-size="14.00" fill="#666666">[BASE TABLE]</text>
<polygon fill="none" stroke="#000000" points="43.5,-1292.5 43.5,-1322.5 284.5,-1322.5 284.5,-1292.5 43.5,-1292.5"/>
<text text-anchor="start" x="50.5" y="-1303.9" font-family="Arial" font-size="14.00" fill="#000000">id    </text>
<text text-anchor="start" x="95.594" y="-1303.9" font-family="Arial" font-size="14.00" fill="#666666">[int]</text>
<polygon fill="none" stroke="#000000" points="43.5,-1262.5 43.5,-1292.5 284.5,-1292.5 284.5,-1262.5 43.5,-1262.5"/>
<text text-anchor="start" x="50.5" y="-1273.9" font-family="Arial" font-size="14.00" fill="#000000">date    </text>
<text text-anchor="start" x="111.9432" y="-1273.9" font-family="Arial" font-size="14.00" fill="#666666">[timestamp]</text>
<polygon fill="none" stroke="#000000" points="43.5,-1232.5 43.5,-1262.5 284.5,-1262.5 284.5,-1232.5 43.5,-1232.5"/>
<text text-anchor="start" x="50.5" y="-1243.9" font-family="Arial" font-size="14.00" fill="#000000">createdAt    </text>
<text text-anchor="start" x="144.6136" y="-1243.9" font-family="Arial" font-size="14.00" fill="#666666">[timestamp]</text>
<polygon fill="none" stroke="#000000" points="43.5,-1202.5 43.5,-1232.5 284.5,-1232.5 284.5,-1202.5 43.5,-1202.5"/>
<text text-anchor="start" x="50.5" y="-1213.9" font-family="Arial" font-size="14.00" fill="#000000">updatedAt    </text>
<text text-anchor="start" x="148.5182" y="-1213.9" font-family="Arial" font-size="14.00" fill="#666666">[timestamp]</text>
<polygon fill="none" stroke="#000000" points="43.5,-1172.5 43.5,-1202.5 284.5,-1202.5 284.5,-1172.5 43.5,-1172.5"/>
<text text-anchor="start" x="50.5" y="-1183.9" font-family="Arial" font-size="14.00" fill="#000000">organizationId    </text>
<text text-anchor="start" x="172.6206" y="-1183.9" font-family="Arial" font-size="14.00" fill="#666666">[int]</text>
<polygon fill="none" stroke="#000000" points="43.5,-1142.5 43.5,-1172.5 284.5,-1172.5 284.5,-1142.5 43.5,-1142.5"/>
<text text-anchor="start" x="50.5" y="-1153.9" font-family="Arial" font-size="14.00" fill="#000000">total    </text>
<text text-anchor="start" x="111.1578" y="-1153.9" font-family="Arial" font-size="14.00" fill="#666666">[int]</text>
<polygon fill="none" stroke="#000000" points="43.5,-1112.5 43.5,-1142.5 284.5,-1142.5 284.5,-1112.5 43.5,-1112.5"/>
<text text-anchor="start" x="50.5" y="-1123.9" font-family="Arial" font-size="14.00" fill="#000000">currency    </text>
<text text-anchor="start" x="138.3738" y="-1123.9" font-family="Arial" font-size="14.00" fill="#666666">[enum(&#39;vnd&#39;,&#39;usd&#39;)]</text>
<polygon fill="none" stroke="#000000" points="43.5,-1082.5 43.5,-1112.5 284.5,-1112.5 284.5,-1082.5 43.5,-1082.5"/>
<text text-anchor="start" x="50.4698" y="-1093.9" font-family="Arial" font-size="14.00" fill="#000000">type    </text>
<text text-anchor="start" x="111.1304" y="-1093.9" font-family="Arial" font-size="14.00" fill="#666666">[enum(&#39;expense&#39;,&#39;income&#39;)]</text>
<polygon fill="none" stroke="#000000" points="43.5,-1052.5 43.5,-1082.5 284.5,-1082.5 284.5,-1052.5 43.5,-1052.5"/>
<text text-anchor="start" x="50.5" y="-1063.9" font-family="Arial" font-size="14.00" fill="#000000">projectId    </text>
<text text-anchor="start" x="138.3836" y="-1063.9" font-family="Arial" font-size="14.00" fill="#666666">[int]</text>
<polygon fill="none" stroke="#000000" points="43.5,-1022.5 43.5,-1052.5 284.5,-1052.5 284.5,-1022.5 43.5,-1022.5"/>
<text text-anchor="start" x="50.5" y="-1033.9" font-family="Arial" font-size="14.00" fill="#000000">categoryId    </text>
<text text-anchor="start" x="150.0596" y="-1033.9" font-family="Arial" font-size="14.00" fill="#666666">[int]</text>
<polygon fill="none" stroke="#000000" points="43.5,-992.5 43.5,-1022.5 284.5,-1022.5 284.5,-992.5 43.5,-992.5"/>
<text text-anchor="start" x="50.5" y="-1003.9" font-family="Arial" font-size="14.00" fill="#000000">clientName    </text>
<text text-anchor="start" x="154.7062" y="-1003.9" font-family="Arial" font-size="14.00" fill="#666666">[varchar(255)]</text>
<polygon fill="none" stroke="#000000" points="43.5,-962.5 43.5,-992.5 284.5,-992.5 284.5,-962.5 43.5,-962.5"/>
<text text-anchor="start" x="50.5" y="-973.9" font-family="Arial" font-size="14.00" fill="#000000">tax    </text>
<text text-anchor="start" x="103.378" y="-973.9" font-family="Arial" font-size="14.00" fill="#666666">[int]</text>
<polygon fill="none" stroke="#000000" points="43.5,-932.5 43.5,-962.5 284.5,-962.5 284.5,-932.5 43.5,-932.5"/>
<text text-anchor="start" x="50.5" y="-943.9" font-family="Arial" font-size="14.00" fill="#000000">uid    </text>
<text text-anchor="start" x="103.3766" y="-943.9" font-family="Arial" font-size="14.00" fill="#666666">[varchar(255)]</text>
</g>
<!-- invoices&#45;&gt;projects -->
<g id="edge1" class="edge">
<title>invoices:projectId&#45;&gt;projects:id</title>
<path fill="none" stroke="#000000" stroke-dasharray="5,2" d="M294.7343,-1066.9061C361.5461,-1058.5663 309.8458,-964.0769 335.5,-890 356.3103,-829.9098 325.9083,-757.5 389.5,-757.5"/>
<polygon fill="#000000" stroke="#000000" points="294.4832,-1066.9205 284.2392,-1063.0076 289.4916,-1067.2103 284.5,-1067.5 284.5,-1067.5 284.5,-1067.5 289.4916,-1067.2103 284.7608,-1071.9924 294.4832,-1066.9205 294.4832,-1066.9205"/>
<text text-anchor="start" x="263.2765" y="-1077.5" font-family="Arial" font-size="10.00" fill="#000000">1&#45;n</text>
</g>
<!-- budgets -->
<g id="node3" class="node">
<title>budgets</title>
<polygon fill="#efefef" stroke="transparent" points="388.5,-1232.5 388.5,-1267.5 593.5,-1267.5 593.5,-1232.5 388.5,-1232.5"/>
<polygon fill="none" stroke="#000000" points="388.5,-1232.5 388.5,-1267.5 593.5,-1267.5 593.5,-1232.5 388.5,-1232.5"/>
<text text-anchor="start" x="395.1994" y="-1245.3" font-family="Arial Bold" font-size="18.00" fill="#000000">budgets</text>
<text text-anchor="start" x="459.2326" y="-1245.3" font-family="Arial" font-size="14.00" fill="#000000">    </text>
<text text-anchor="start" x="493.4374" y="-1245.3" font-family="Arial" font-size="14.00" fill="#666666">[BASE TABLE]</text>
<polygon fill="none" stroke="#000000" points="388.5,-1202.5 388.5,-1232.5 593.5,-1232.5 593.5,-1202.5 388.5,-1202.5"/>
<text text-anchor="start" x="395.5" y="-1213.9" font-family="Arial" font-size="14.00" fill="#000000">id    </text>
<text text-anchor="start" x="440.594" y="-1213.9" font-family="Arial" font-size="14.00" fill="#666666">[int]</text>
<polygon fill="none" stroke="#000000" points="388.5,-1172.5 388.5,-1202.5 593.5,-1202.5 593.5,-1172.5 388.5,-1172.5"/>
<text text-anchor="start" x="395.5" y="-1183.9" font-family="Arial" font-size="14.00" fill="#000000">projectId    </text>
<text text-anchor="start" x="483.3836" y="-1183.9" font-family="Arial" font-size="14.00" fill="#666666">[int]</text>
<polygon fill="none" stroke="#000000" points="388.5,-1142.5 388.5,-1172.5 593.5,-1172.5 593.5,-1142.5 388.5,-1142.5"/>
<text text-anchor="start" x="395.5" y="-1153.9" font-family="Arial" font-size="14.00" fill="#000000">categoryId    </text>
<text text-anchor="start" x="495.0596" y="-1153.9" font-family="Arial" font-size="14.00" fill="#666666">[int]</text>
<polygon fill="none" stroke="#000000" points="388.5,-1112.5 388.5,-1142.5 593.5,-1142.5 593.5,-1112.5 388.5,-1112.5"/>
<text text-anchor="start" x="395.5" y="-1123.9" font-family="Arial" font-size="14.00" fill="#000000">amount    </text>
<text text-anchor="start" x="476.3864" y="-1123.9" font-family="Arial" font-size="14.00" fill="#666666">[int]</text>
<polygon fill="none" stroke="#000000" points="388.5,-1082.5 388.5,-1112.5 593.5,-1112.5 593.5,-1082.5 388.5,-1082.5"/>
<text text-anchor="start" x="395.5" y="-1093.9" font-family="Arial" font-size="14.00" fill="#000000">createdAt    </text>
<text text-anchor="start" x="489.6136" y="-1093.9" font-family="Arial" font-size="14.00" fill="#666666">[timestamp]</text>
<polygon fill="none" stroke="#000000" points="388.5,-1052.5 388.5,-1082.5 593.5,-1082.5 593.5,-1052.5 388.5,-1052.5"/>
<text text-anchor="start" x="395.5" y="-1063.9" font-family="Arial" font-size="14.00" fill="#000000">updatedAt    </text>
<text text-anchor="start" x="493.5182" y="-1063.9" font-family="Arial" font-size="14.00" fill="#666666">[timestamp]</text>
<polygon fill="none" stroke="#000000" points="388.5,-1022.5 388.5,-1052.5 593.5,-1052.5 593.5,-1022.5 388.5,-1022.5"/>
<text text-anchor="start" x="395.5" y="-1033.9" font-family="Arial" font-size="14.00" fill="#000000">organizationId    </text>
<text text-anchor="start" x="517.6206" y="-1033.9" font-family="Arial" font-size="14.00" fill="#666666">[int]</text>
</g>
<!-- budgets&#45;&gt;projects -->
<g id="edge2" class="edge">
<title>budgets:projectId&#45;&gt;projects:id</title>
<path fill="none" stroke="#000000" stroke-dasharray="5,2" d="M603.5154,-1186.8105C672.6616,-1176.6753 627.4901,-1057.0818 584.5,-980 532.5928,-886.9297 432.4072,-947.0703 380.5,-854 359.6094,-816.5428 337.6111,-757.5 389.5,-757.5"/>
<polygon fill="#000000" stroke="#000000" points="603.4764,-1186.8131 593.1909,-1183.0106 598.4882,-1187.1566 593.5,-1187.5 593.5,-1187.5 593.5,-1187.5 598.4882,-1187.1566 593.8091,-1191.9894 603.4764,-1186.8131 603.4764,-1186.8131"/>
<text text-anchor="start" x="572.2765" y="-1197.5" font-family="Arial" font-size="10.00" fill="#000000">1&#45;n</text>
</g>
<!-- budgets&#45;&gt;projects -->
<g id="edge3" class="edge">
<title>budgets:projectId&#45;&gt;projects:id</title>
<path fill="none" stroke="#000000" stroke-dasharray="5,2" d="M603.8884,-1187.0118C691.3103,-1178.3945 645.7987,-1057.6351 602.5,-980 550.5928,-886.9297 450.4072,-947.0703 398.5,-854 377.691,-816.6892 355.783,-757.9609 389.1054,-757.5027"/>
<polygon fill="#000000" stroke="#000000" points="603.7845,-1187.0168 593.5788,-1183.0049 598.7903,-1187.2582 593.7961,-1187.4996 593.7961,-1187.4996 593.7961,-1187.4996 598.7903,-1187.2582 594.0134,-1191.9944 603.7845,-1187.0168 603.7845,-1187.0168"/>
<text text-anchor="start" x="572.5726" y="-1171.4996" font-family="Arial" font-size="10.00" fill="#000000">1&#45;n</text>
</g>
</g>
</svg>
