<?xml version="1.0" encoding="UTF-8" standalone="no"?>
<!DOCTYPE svg PUBLIC "-//W3C//DTD SVG 1.1//EN"
 "http://www.w3.org/Graphics/SVG/1.1/DTD/svg11.dtd">
<!-- Generated by graphviz version 2.40.1 (20161225.0304)
 -->
<!-- Title: projects Pages: 1 -->
<svg width="803pt" height="1559pt"
 viewBox="0.00 0.00 803.00 1559.00" xmlns="http://www.w3.org/2000/svg" xmlns:xlink="http://www.w3.org/1999/xlink">
<g id="graph0" class="graph" transform="scale(1 1) rotate(0) translate(4 1555)">
<title>projects</title>
<polygon fill="#ffffff" stroke="transparent" points="-4,4 -4,-1555 799,-1555 799,4 -4,4"/>
<!-- projects -->
<g id="node1" class="node">
<title>projects</title>
<polygon fill="#efefef" stroke="transparent" points="389.5,-832.5 389.5,-867.5 593.5,-867.5 593.5,-832.5 389.5,-832.5"/>
<polygon fill="none" stroke="#000000" points="389.5,-832.5 389.5,-867.5 593.5,-867.5 593.5,-832.5 389.5,-832.5"/>
<text text-anchor="start" x="396.2124" y="-845.3" font-family="Arial Bold" font-size="18.00" fill="#000000">projects</text>
<text text-anchor="start" x="459.2196" y="-845.3" font-family="Arial" font-size="14.00" fill="#000000">    </text>
<text text-anchor="start" x="493.4244" y="-845.3" font-family="Arial" font-size="14.00" fill="#666666">[BASE TABLE]</text>
<polygon fill="none" stroke="#000000" points="389.5,-802.5 389.5,-832.5 593.5,-832.5 593.5,-802.5 389.5,-802.5"/>
<text text-anchor="start" x="396.5" y="-813.9" font-family="Arial" font-size="14.00" fill="#000000">id </text>
<text text-anchor="start" x="411.2798" y="-813.9" font-family="Arial" font-size="14.00" fill="#666666">[int]</text>
<polygon fill="none" stroke="#000000" points="389.5,-772.5 389.5,-802.5 593.5,-802.5 593.5,-772.5 389.5,-772.5"/>
<text text-anchor="start" x="396.5" y="-783.9" font-family="Arial" font-size="14.00" fill="#000000">name </text>
<text text-anchor="start" x="435.399" y="-783.9" font-family="Arial" font-size="14.00" fill="#666666">[varchar(255)]</text>
<polygon fill="none" stroke="#000000" points="389.5,-742.5 389.5,-772.5 593.5,-772.5 593.5,-742.5 389.5,-742.5"/>
<text text-anchor="start" x="396.5" y="-753.9" font-family="Arial" font-size="14.00" fill="#000000">totalBudget </text>
<text text-anchor="start" x="471.2012" y="-753.9" font-family="Arial" font-size="14.00" fill="#666666">[int]</text>
<polygon fill="none" stroke="#000000" points="389.5,-712.5 389.5,-742.5 593.5,-742.5 593.5,-712.5 389.5,-712.5"/>
<text text-anchor="start" x="396.5" y="-723.9" font-family="Arial" font-size="14.00" fill="#000000">startDate </text>
<text text-anchor="start" x="457.1774" y="-723.9" font-family="Arial" font-size="14.00" fill="#666666">[timestamp]</text>
<polygon fill="none" stroke="#000000" points="389.5,-682.5 389.5,-712.5 593.5,-712.5 593.5,-682.5 389.5,-682.5"/>
<text text-anchor="start" x="396.5" y="-693.9" font-family="Arial" font-size="14.00" fill="#000000">endDate </text>
<text text-anchor="start" x="453.3008" y="-693.9" font-family="Arial" font-size="14.00" fill="#666666">[timestamp]</text>
<polygon fill="none" stroke="#000000" points="389.5,-652.5 389.5,-682.5 593.5,-682.5 593.5,-652.5 389.5,-652.5"/>
<text text-anchor="start" x="396.5" y="-663.9" font-family="Arial" font-size="14.00" fill="#000000">createdAt </text>
<text text-anchor="start" x="460.2994" y="-663.9" font-family="Arial" font-size="14.00" fill="#666666">[timestamp]</text>
<polygon fill="none" stroke="#000000" points="389.5,-622.5 389.5,-652.5 593.5,-652.5 593.5,-622.5 389.5,-622.5"/>
<text text-anchor="start" x="396.5" y="-633.9" font-family="Arial" font-size="14.00" fill="#000000">updatedAt </text>
<text text-anchor="start" x="464.204" y="-633.9" font-family="Arial" font-size="14.00" fill="#666666">[timestamp]</text>
<polygon fill="none" stroke="#000000" points="389.5,-592.5 389.5,-622.5 593.5,-622.5 593.5,-592.5 389.5,-592.5"/>
<text text-anchor="start" x="396.5" y="-603.9" font-family="Arial" font-size="14.00" fill="#000000">organizationId </text>
<text text-anchor="start" x="488.3064" y="-603.9" font-family="Arial" font-size="14.00" fill="#666666">[int]</text>
<polygon fill="none" stroke="#000000" points="389.5,-562.5 389.5,-592.5 593.5,-592.5 593.5,-562.5 389.5,-562.5"/>
<text text-anchor="start" x="396.5" y="-573.9" font-family="Arial" font-size="14.00" fill="#000000">creatorId </text>
<text text-anchor="start" x="455.6234" y="-573.9" font-family="Arial" font-size="14.00" fill="#666666">[int]</text>
<polygon fill="none" stroke="#000000" points="389.5,-532.5 389.5,-562.5 593.5,-562.5 593.5,-532.5 389.5,-532.5"/>
<text text-anchor="start" x="396.5" y="-543.9" font-family="Arial" font-size="14.00" fill="#000000">description </text>
<text text-anchor="start" x="468.068" y="-543.9" font-family="Arial" font-size="14.00" fill="#666666">[varchar(2000)]</text>
<polygon fill="none" stroke="#000000" stroke-width="3" points="388,-531.5 388,-869.5 595,-869.5 595,-531.5 388,-531.5"/>
</g>
<!-- organizations -->
<g id="node4" class="node">
<title>organizations</title>
<polygon fill="#efefef" stroke="transparent" points="204.5,-372.5 204.5,-407.5 452.5,-407.5 452.5,-372.5 204.5,-372.5"/>
<polygon fill="none" stroke="#000000" points="204.5,-372.5 204.5,-407.5 452.5,-407.5 452.5,-372.5 204.5,-372.5"/>
<text text-anchor="start" x="211.2029" y="-385.3" font-family="Arial Bold" font-size="18.00" fill="#000000">organizations</text>
<text text-anchor="start" x="318.2291" y="-385.3" font-family="Arial" font-size="14.00" fill="#000000">    </text>
<text text-anchor="start" x="352.4339" y="-385.3" font-family="Arial" font-size="14.00" fill="#666666">[BASE TABLE]</text>
<polygon fill="none" stroke="#000000" points="204.5,-342.5 204.5,-372.5 452.5,-372.5 452.5,-342.5 204.5,-342.5"/>
<text text-anchor="start" x="211.5" y="-353.9" font-family="Arial" font-size="14.00" fill="#000000">id    </text>
<text text-anchor="start" x="256.594" y="-353.9" font-family="Arial" font-size="14.00" fill="#666666">[int]</text>
<polygon fill="none" stroke="#000000" points="204.5,-312.5 204.5,-342.5 452.5,-342.5 452.5,-312.5 204.5,-312.5"/>
<text text-anchor="start" x="211.5" y="-323.9" font-family="Arial" font-size="14.00" fill="#000000">name    </text>
<text text-anchor="start" x="280.7132" y="-323.9" font-family="Arial" font-size="14.00" fill="#666666">[varchar(255)]</text>
<polygon fill="none" stroke="#000000" points="204.5,-282.5 204.5,-312.5 452.5,-312.5 452.5,-282.5 204.5,-282.5"/>
<text text-anchor="start" x="211.5" y="-293.9" font-family="Arial" font-size="14.00" fill="#000000">uniqueName    </text>
<text text-anchor="start" x="325.0568" y="-293.9" font-family="Arial" font-size="14.00" fill="#666666">[varchar(255)]</text>
<polygon fill="none" stroke="#000000" points="204.5,-252.5 204.5,-282.5 452.5,-282.5 452.5,-252.5 204.5,-252.5"/>
<text text-anchor="start" x="211.5" y="-263.9" font-family="Arial" font-size="14.00" fill="#000000">createdAt    </text>
<text text-anchor="start" x="305.6136" y="-263.9" font-family="Arial" font-size="14.00" fill="#666666">[timestamp]</text>
<polygon fill="none" stroke="#000000" points="204.5,-222.5 204.5,-252.5 452.5,-252.5 452.5,-222.5 204.5,-222.5"/>
<text text-anchor="start" x="211.5" y="-233.9" font-family="Arial" font-size="14.00" fill="#000000">updatedAt    </text>
<text text-anchor="start" x="309.5182" y="-233.9" font-family="Arial" font-size="14.00" fill="#666666">[timestamp]</text>
<polygon fill="none" stroke="#000000" points="204.5,-192.5 204.5,-222.5 452.5,-222.5 452.5,-192.5 204.5,-192.5"/>
<text text-anchor="start" x="211.5" y="-203.9" font-family="Arial" font-size="14.00" fill="#000000">phone    </text>
<text text-anchor="start" x="284.6178" y="-203.9" font-family="Arial" font-size="14.00" fill="#666666">[varchar(255)]</text>
<polygon fill="none" stroke="#000000" points="204.5,-162.5 204.5,-192.5 452.5,-192.5 452.5,-162.5 204.5,-162.5"/>
<text text-anchor="start" x="211.5" y="-173.9" font-family="Arial" font-size="14.00" fill="#000000">address    </text>
<text text-anchor="start" x="295.4958" y="-173.9" font-family="Arial" font-size="14.00" fill="#666666">[varchar(255)]</text>
<polygon fill="none" stroke="#000000" points="204.5,-132.5 204.5,-162.5 452.5,-162.5 452.5,-132.5 204.5,-132.5"/>
<text text-anchor="start" x="211.5" y="-143.9" font-family="Arial" font-size="14.00" fill="#000000">dateFormat    </text>
<text text-anchor="start" x="317.2728" y="-143.9" font-family="Arial" font-size="14.00" fill="#666666">[varchar(255)]</text>
<polygon fill="none" stroke="#000000" points="204.5,-102.5 204.5,-132.5 452.5,-132.5 452.5,-102.5 204.5,-102.5"/>
<text text-anchor="start" x="211.5" y="-113.9" font-family="Arial" font-size="14.00" fill="#000000">currency    </text>
<text text-anchor="start" x="299.3738" y="-113.9" font-family="Arial" font-size="14.00" fill="#666666">[enum(&#39;vnd&#39;,&#39;usd&#39;)]</text>
<polygon fill="none" stroke="#000000" points="204.5,-72.5 204.5,-102.5 452.5,-102.5 452.5,-72.5 204.5,-72.5"/>
<text text-anchor="start" x="211.5" y="-83.9" font-family="Arial" font-size="14.00" fill="#000000">bank    </text>
<text text-anchor="start" x="276.0526" y="-83.9" font-family="Arial" font-size="14.00" fill="#666666">[enum(&#39;bidv&#39;,&#39;vcb&#39;)]</text>
<polygon fill="none" stroke="#000000" points="204.5,-42.5 204.5,-72.5 452.5,-72.5 452.5,-42.5 204.5,-42.5"/>
<text text-anchor="start" x="211.5" y="-53.9" font-family="Arial" font-size="14.00" fill="#000000">exchangeRate    </text>
<text text-anchor="start" x="335.9628" y="-53.9" font-family="Arial" font-size="14.00" fill="#666666">[int]</text>
</g>
<!-- projects&#45;&gt;organizations -->
<g id="edge4" class="edge">
<title>projects:organizationId&#45;&gt;organizations:id</title>
<path fill="none" stroke="#000000" stroke-dasharray="5,2" d="M379.3652,-606.4353C339.6966,-597.2063 364.5091,-530.0638 389.5,-487 405.6867,-459.1075 436.3133,-478.8925 452.5,-451 473.3578,-415.0582 494.0556,-357.5 452.5,-357.5"/>
<polygon fill="#000000" stroke="#000000" points="379.5547,-606.4551 389.0298,-611.9754 384.5274,-606.9775 389.5,-607.5 389.5,-607.5 389.5,-607.5 384.5274,-606.9775 389.9702,-603.0246 379.5547,-606.4551 379.5547,-606.4551"/>
<text text-anchor="start" x="368.2765" y="-617.5" font-family="Arial" font-size="10.00" fill="#000000">1&#45;n</text>
</g>
<!-- users -->
<g id="node5" class="node">
<title>users</title>
<polygon fill="#efefef" stroke="transparent" points="557.5,-342.5 557.5,-377.5 752.5,-377.5 752.5,-342.5 557.5,-342.5"/>
<polygon fill="none" stroke="#000000" points="557.5,-342.5 557.5,-377.5 752.5,-377.5 752.5,-342.5 557.5,-342.5"/>
<text text-anchor="start" x="569.2137" y="-355.3" font-family="Arial Bold" font-size="18.00" fill="#000000">users</text>
<text text-anchor="start" x="613.2183" y="-355.3" font-family="Arial" font-size="14.00" fill="#000000">    </text>
<text text-anchor="start" x="647.4231" y="-355.3" font-family="Arial" font-size="14.00" fill="#666666">[BASE TABLE]</text>
<polygon fill="none" stroke="#000000" points="557.5,-312.5 557.5,-342.5 752.5,-342.5 752.5,-312.5 557.5,-312.5"/>
<text text-anchor="start" x="564.5" y="-323.9" font-family="Arial" font-size="14.00" fill="#000000">id    </text>
<text text-anchor="start" x="609.594" y="-323.9" font-family="Arial" font-size="14.00" fill="#666666">[int]</text>
<polygon fill="none" stroke="#000000" points="557.5,-282.5 557.5,-312.5 752.5,-312.5 752.5,-282.5 557.5,-282.5"/>
<text text-anchor="start" x="564.5" y="-293.9" font-family="Arial" font-size="14.00" fill="#000000">name    </text>
<text text-anchor="start" x="633.7132" y="-293.9" font-family="Arial" font-size="14.00" fill="#666666">[varchar(255)]</text>
<polygon fill="none" stroke="#000000" points="557.5,-252.5 557.5,-282.5 752.5,-282.5 752.5,-252.5 557.5,-252.5"/>
<text text-anchor="start" x="564.5" y="-263.9" font-family="Arial" font-size="14.00" fill="#000000">email    </text>
<text text-anchor="start" x="632.1438" y="-263.9" font-family="Arial" font-size="14.00" fill="#666666">[varchar(255)]</text>
<polygon fill="none" stroke="#000000" points="557.5,-222.5 557.5,-252.5 752.5,-252.5 752.5,-222.5 557.5,-222.5"/>
<text text-anchor="start" x="564.3892" y="-233.9" font-family="Arial" font-size="14.00" fill="#000000">password    </text>
<text text-anchor="start" x="658.4916" y="-233.9" font-family="Arial" font-size="14.00" fill="#666666">[varchar(255)]</text>
<polygon fill="none" stroke="#000000" points="557.5,-192.5 557.5,-222.5 752.5,-222.5 752.5,-192.5 557.5,-192.5"/>
<text text-anchor="start" x="564.5" y="-203.9" font-family="Arial" font-size="14.00" fill="#000000">createdAt    </text>
<text text-anchor="start" x="658.6136" y="-203.9" font-family="Arial" font-size="14.00" fill="#666666">[timestamp]</text>
<polygon fill="none" stroke="#000000" points="557.5,-162.5 557.5,-192.5 752.5,-192.5 752.5,-162.5 557.5,-162.5"/>
<text text-anchor="start" x="564.5" y="-173.9" font-family="Arial" font-size="14.00" fill="#000000">updatedAt    </text>
<text text-anchor="start" x="662.5182" y="-173.9" font-family="Arial" font-size="14.00" fill="#666666">[timestamp]</text>
<polygon fill="none" stroke="#000000" points="557.5,-132.5 557.5,-162.5 752.5,-162.5 752.5,-132.5 557.5,-132.5"/>
<text text-anchor="start" x="564.5" y="-143.9" font-family="Arial" font-size="14.00" fill="#000000">phone    </text>
<text text-anchor="start" x="637.6178" y="-143.9" font-family="Arial" font-size="14.00" fill="#666666">[varchar(255)]</text>
<polygon fill="none" stroke="#000000" points="557.5,-102.5 557.5,-132.5 752.5,-132.5 752.5,-102.5 557.5,-102.5"/>
<text text-anchor="start" x="564.5" y="-113.9" font-family="Arial" font-size="14.00" fill="#000000">address    </text>
<text text-anchor="start" x="648.4958" y="-113.9" font-family="Arial" font-size="14.00" fill="#666666">[varchar(255)]</text>
<polygon fill="none" stroke="#000000" points="557.5,-72.5 557.5,-102.5 752.5,-102.5 752.5,-72.5 557.5,-72.5"/>
<text text-anchor="start" x="564.5" y="-83.9" font-family="Arial" font-size="14.00" fill="#000000">avatar    </text>
<text text-anchor="start" x="637.6038" y="-83.9" font-family="Arial" font-size="14.00" fill="#666666">[varchar(255)]</text>
</g>
<!-- projects&#45;&gt;users -->
<g id="edge5" class="edge">
<title>projects:creatorId&#45;&gt;users:id</title>
<path fill="none" stroke="#000000" stroke-dasharray="5,2" d="M603.4763,-576.6915C688.8684,-561.174 448.9701,-327.5 557.5,-327.5"/>
<polygon fill="#000000" stroke="#000000" points="603.4673,-576.6921 593.1364,-573.0147 598.4837,-577.0961 593.5,-577.5 593.5,-577.5 593.5,-577.5 598.4837,-577.0961 593.8636,-581.9853 603.4673,-576.6921 603.4673,-576.6921"/>
<text text-anchor="start" x="572.2765" y="-587.5" font-family="Arial" font-size="10.00" fill="#000000">1&#45;n</text>
</g>
<!-- invoices -->
<g id="node2" class="node">
<title>invoices</title>
<polygon fill="#efefef" stroke="transparent" points="43.5,-1472.5 43.5,-1507.5 284.5,-1507.5 284.5,-1472.5 43.5,-1472.5"/>
<polygon fill="none" stroke="#000000" points="43.5,-1472.5 43.5,-1507.5 284.5,-1507.5 284.5,-1472.5 43.5,-1472.5"/>
<text text-anchor="start" x="67.7125" y="-1485.3" font-family="Arial Bold" font-size="18.00" fill="#000000">invoices</text>
<text text-anchor="start" x="132.7195" y="-1485.3" font-family="Arial" font-size="14.00" fill="#000000">    </text>
<text text-anchor="start" x="166.9243" y="-1485.3" font-family="Arial" font-size="14.00" fill="#666666">[BASE TABLE]</text>
<polygon fill="none" stroke="#000000" points="43.5,-1442.5 43.5,-1472.5 284.5,-1472.5 284.5,-1442.5 43.5,-1442.5"/>
<text text-anchor="start" x="50.5" y="-1453.9" font-family="Arial" font-size="14.00" fill="#000000">id    </text>
<text text-anchor="start" x="95.594" y="-1453.9" font-family="Arial" font-size="14.00" fill="#666666">[int]</text>
<polygon fill="none" stroke="#000000" points="43.5,-1412.5 43.5,-1442.5 284.5,-1442.5 284.5,-1412.5 43.5,-1412.5"/>
<text text-anchor="start" x="50.5" y="-1423.9" font-family="Arial" font-size="14.00" fill="#000000">date    </text>
<text text-anchor="start" x="111.9432" y="-1423.9" font-family="Arial" font-size="14.00" fill="#666666">[timestamp]</text>
<polygon fill="none" stroke="#000000" points="43.5,-1382.5 43.5,-1412.5 284.5,-1412.5 284.5,-1382.5 43.5,-1382.5"/>
<text text-anchor="start" x="50.5" y="-1393.9" font-family="Arial" font-size="14.00" fill="#000000">createdAt    </text>
<text text-anchor="start" x="144.6136" y="-1393.9" font-family="Arial" font-size="14.00" fill="#666666">[timestamp]</text>
<polygon fill="none" stroke="#000000" points="43.5,-1352.5 43.5,-1382.5 284.5,-1382.5 284.5,-1352.5 43.5,-1352.5"/>
<text text-anchor="start" x="50.5" y="-1363.9" font-family="Arial" font-size="14.00" fill="#000000">updatedAt    </text>
<text text-anchor="start" x="148.5182" y="-1363.9" font-family="Arial" font-size="14.00" fill="#666666">[timestamp]</text>
<polygon fill="none" stroke="#000000" points="43.5,-1322.5 43.5,-1352.5 284.5,-1352.5 284.5,-1322.5 43.5,-1322.5"/>
<text text-anchor="start" x="50.5" y="-1333.9" font-family="Arial" font-size="14.00" fill="#000000">organizationId    </text>
<text text-anchor="start" x="172.6206" y="-1333.9" font-family="Arial" font-size="14.00" fill="#666666">[int]</text>
<polygon fill="none" stroke="#000000" points="43.5,-1292.5 43.5,-1322.5 284.5,-1322.5 284.5,-1292.5 43.5,-1292.5"/>
<text text-anchor="start" x="50.5" y="-1303.9" font-family="Arial" font-size="14.00" fill="#000000">total    </text>
<text text-anchor="start" x="111.1578" y="-1303.9" font-family="Arial" font-size="14.00" fill="#666666">[int]</text>
<polygon fill="none" stroke="#000000" points="43.5,-1262.5 43.5,-1292.5 284.5,-1292.5 284.5,-1262.5 43.5,-1262.5"/>
<text text-anchor="start" x="50.5" y="-1273.9" font-family="Arial" font-size="14.00" fill="#000000">currency    </text>
<text text-anchor="start" x="138.3738" y="-1273.9" font-family="Arial" font-size="14.00" fill="#666666">[enum(&#39;vnd&#39;,&#39;usd&#39;)]</text>
<polygon fill="none" stroke="#000000" points="43.5,-1232.5 43.5,-1262.5 284.5,-1262.5 284.5,-1232.5 43.5,-1232.5"/>
<text text-anchor="start" x="50.4698" y="-1243.9" font-family="Arial" font-size="14.00" fill="#000000">type    </text>
<text text-anchor="start" x="111.1304" y="-1243.9" font-family="Arial" font-size="14.00" fill="#666666">[enum(&#39;expense&#39;,&#39;income&#39;)]</text>
<polygon fill="none" stroke="#000000" points="43.5,-1202.5 43.5,-1232.5 284.5,-1232.5 284.5,-1202.5 43.5,-1202.5"/>
<text text-anchor="start" x="50.5" y="-1213.9" font-family="Arial" font-size="14.00" fill="#000000">projectId    </text>
<text text-anchor="start" x="138.3836" y="-1213.9" font-family="Arial" font-size="14.00" fill="#666666">[int]</text>
<polygon fill="none" stroke="#000000" points="43.5,-1172.5 43.5,-1202.5 284.5,-1202.5 284.5,-1172.5 43.5,-1172.5"/>
<text text-anchor="start" x="50.5" y="-1183.9" font-family="Arial" font-size="14.00" fill="#000000">categoryId    </text>
<text text-anchor="start" x="150.0596" y="-1183.9" font-family="Arial" font-size="14.00" fill="#666666">[int]</text>
<polygon fill="none" stroke="#000000" points="43.5,-1142.5 43.5,-1172.5 284.5,-1172.5 284.5,-1142.5 43.5,-1142.5"/>
<text text-anchor="start" x="50.5" y="-1153.9" font-family="Arial" font-size="14.00" fill="#000000">clientName    </text>
<text text-anchor="start" x="154.7062" y="-1153.9" font-family="Arial" font-size="14.00" fill="#666666">[varchar(255)]</text>
<polygon fill="none" stroke="#000000" points="43.5,-1112.5 43.5,-1142.5 284.5,-1142.5 284.5,-1112.5 43.5,-1112.5"/>
<text text-anchor="start" x="50.5" y="-1123.9" font-family="Arial" font-size="14.00" fill="#000000">tax    </text>
<text text-anchor="start" x="103.378" y="-1123.9" font-family="Arial" font-size="14.00" fill="#666666">[int]</text>
<polygon fill="none" stroke="#000000" points="43.5,-1082.5 43.5,-1112.5 284.5,-1112.5 284.5,-1082.5 43.5,-1082.5"/>
<text text-anchor="start" x="50.5" y="-1093.9" font-family="Arial" font-size="14.00" fill="#000000">uid    </text>
<text text-anchor="start" x="103.3766" y="-1093.9" font-family="Arial" font-size="14.00" fill="#666666">[varchar(255)]</text>
<polygon fill="none" stroke="#000000" points="43.5,-1052.5 43.5,-1082.5 284.5,-1082.5 284.5,-1052.5 43.5,-1052.5"/>
<text text-anchor="start" x="50.5" y="-1063.9" font-family="Arial" font-size="14.00" fill="#000000">exchangeRate    </text>
<text text-anchor="start" x="174.9628" y="-1063.9" font-family="Arial" font-size="14.00" fill="#666666">[decimal(10,0)]</text>
<polygon fill="none" stroke="#000000" points="43.5,-1022.5 43.5,-1052.5 284.5,-1052.5 284.5,-1022.5 43.5,-1022.5"/>
<text text-anchor="start" x="50.5" y="-1033.9" font-family="Arial" font-size="14.00" fill="#000000">note    </text>
<text text-anchor="start" x="111.9432" y="-1033.9" font-family="Arial" font-size="14.00" fill="#666666">[varchar(255)]</text>
<polygon fill="none" stroke="#000000" points="43.5,-992.5 43.5,-1022.5 284.5,-1022.5 284.5,-992.5 43.5,-992.5"/>
<text text-anchor="start" x="50.5" y="-1003.9" font-family="Arial" font-size="14.00" fill="#000000">discount    </text>
<text text-anchor="start" x="136.8324" y="-1003.9" font-family="Arial" font-size="14.00" fill="#666666">[int]</text>
</g>
<!-- invoices&#45;&gt;projects -->
<g id="edge1" class="edge">
<title>invoices:projectId&#45;&gt;projects:id</title>
<path fill="none" stroke="#000000" stroke-dasharray="5,2" d="M294.5621,-1215.2764C341.9445,-1192.6894 319.3689,-1004.5146 335.5,-950 353.5436,-889.0219 325.9083,-817.5 389.5,-817.5"/>
<polygon fill="#000000" stroke="#000000" points="294.2644,-1215.3421 283.5289,-1213.106 289.3822,-1216.421 284.5,-1217.5 284.5,-1217.5 284.5,-1217.5 289.3822,-1216.421 285.4711,-1221.894 294.2644,-1215.3421 294.2644,-1215.3421"/>
<text text-anchor="start" x="263.2765" y="-1227.5" font-family="Arial" font-size="10.00" fill="#000000">1&#45;n</text>
</g>
<!-- budgets -->
<g id="node3" class="node">
<title>budgets</title>
<polygon fill="#efefef" stroke="transparent" points="388.5,-1337.5 388.5,-1372.5 593.5,-1372.5 593.5,-1337.5 388.5,-1337.5"/>
<polygon fill="none" stroke="#000000" points="388.5,-1337.5 388.5,-1372.5 593.5,-1372.5 593.5,-1337.5 388.5,-1337.5"/>
<text text-anchor="start" x="395.1994" y="-1350.3" font-family="Arial Bold" font-size="18.00" fill="#000000">budgets</text>
<text text-anchor="start" x="459.2326" y="-1350.3" font-family="Arial" font-size="14.00" fill="#000000">    </text>
<text text-anchor="start" x="493.4374" y="-1350.3" font-family="Arial" font-size="14.00" fill="#666666">[BASE TABLE]</text>
<polygon fill="none" stroke="#000000" points="388.5,-1307.5 388.5,-1337.5 593.5,-1337.5 593.5,-1307.5 388.5,-1307.5"/>
<text text-anchor="start" x="395.5" y="-1318.9" font-family="Arial" font-size="14.00" fill="#000000">id    </text>
<text text-anchor="start" x="440.594" y="-1318.9" font-family="Arial" font-size="14.00" fill="#666666">[int]</text>
<polygon fill="none" stroke="#000000" points="388.5,-1277.5 388.5,-1307.5 593.5,-1307.5 593.5,-1277.5 388.5,-1277.5"/>
<text text-anchor="start" x="395.5" y="-1288.9" font-family="Arial" font-size="14.00" fill="#000000">projectId    </text>
<text text-anchor="start" x="483.3836" y="-1288.9" font-family="Arial" font-size="14.00" fill="#666666">[int]</text>
<polygon fill="none" stroke="#000000" points="388.5,-1247.5 388.5,-1277.5 593.5,-1277.5 593.5,-1247.5 388.5,-1247.5"/>
<text text-anchor="start" x="395.5" y="-1258.9" font-family="Arial" font-size="14.00" fill="#000000">categoryId    </text>
<text text-anchor="start" x="495.0596" y="-1258.9" font-family="Arial" font-size="14.00" fill="#666666">[int]</text>
<polygon fill="none" stroke="#000000" points="388.5,-1217.5 388.5,-1247.5 593.5,-1247.5 593.5,-1217.5 388.5,-1217.5"/>
<text text-anchor="start" x="395.5" y="-1228.9" font-family="Arial" font-size="14.00" fill="#000000">amount    </text>
<text text-anchor="start" x="476.3864" y="-1228.9" font-family="Arial" font-size="14.00" fill="#666666">[int]</text>
<polygon fill="none" stroke="#000000" points="388.5,-1187.5 388.5,-1217.5 593.5,-1217.5 593.5,-1187.5 388.5,-1187.5"/>
<text text-anchor="start" x="395.5" y="-1198.9" font-family="Arial" font-size="14.00" fill="#000000">createdAt    </text>
<text text-anchor="start" x="489.6136" y="-1198.9" font-family="Arial" font-size="14.00" fill="#666666">[timestamp]</text>
<polygon fill="none" stroke="#000000" points="388.5,-1157.5 388.5,-1187.5 593.5,-1187.5 593.5,-1157.5 388.5,-1157.5"/>
<text text-anchor="start" x="395.5" y="-1168.9" font-family="Arial" font-size="14.00" fill="#000000">updatedAt    </text>
<text text-anchor="start" x="493.5182" y="-1168.9" font-family="Arial" font-size="14.00" fill="#666666">[timestamp]</text>
<polygon fill="none" stroke="#000000" points="388.5,-1127.5 388.5,-1157.5 593.5,-1157.5 593.5,-1127.5 388.5,-1127.5"/>
<text text-anchor="start" x="395.5" y="-1138.9" font-family="Arial" font-size="14.00" fill="#000000">organizationId    </text>
<text text-anchor="start" x="517.6206" y="-1138.9" font-family="Arial" font-size="14.00" fill="#666666">[int]</text>
</g>
<!-- budgets&#45;&gt;projects -->
<g id="edge2" class="edge">
<title>budgets:projectId&#45;&gt;projects:id</title>
<path fill="none" stroke="#000000" stroke-dasharray="5,2" d="M603.484,-1291.8266C672.1744,-1281.9244 621.8204,-1164.9809 584.5,-1085 534.4743,-977.7905 430.5257,-1021.2095 380.5,-914 362.3645,-875.1341 337.6111,-817.5 389.5,-817.5"/>
<polygon fill="#000000" stroke="#000000" points="603.4773,-1291.827 593.1971,-1288.0102 598.4887,-1292.1635 593.5,-1292.5 593.5,-1292.5 593.5,-1292.5 598.4887,-1292.1635 593.8029,-1296.9898 603.4773,-1291.827 603.4773,-1291.827"/>
<text text-anchor="start" x="572.2765" y="-1302.5" font-family="Arial" font-size="10.00" fill="#000000">1&#45;n</text>
</g>
<!-- budgets&#45;&gt;projects -->
<g id="edge3" class="edge">
<title>budgets:projectId&#45;&gt;projects:id</title>
<path fill="none" stroke="#000000" stroke-dasharray="5,2" d="M603.8661,-1292.0233C690.898,-1283.6054 640.0883,-1165.555 602.5,-1085 552.4743,-977.7905 448.5257,-1021.2095 398.5,-914 380.4354,-875.2859 355.8044,-817.95 389.1055,-817.5026"/>
<polygon fill="#000000" stroke="#000000" points="603.7849,-1292.027 593.5834,-1288.0047 598.7905,-1292.2633 593.7961,-1292.4996 593.7961,-1292.4996 593.7961,-1292.4996 598.7905,-1292.2633 594.0088,-1296.9946 603.7849,-1292.027 603.7849,-1292.027"/>
<text text-anchor="start" x="572.5726" y="-1276.4996" font-family="Arial" font-size="10.00" fill="#000000">1&#45;n</text>
</g>
</g>
</svg>
