<?xml version="1.0" encoding="UTF-8" standalone="no"?>
<!DOCTYPE svg PUBLIC "-//W3C//DTD SVG 1.1//EN"
 "http://www.w3.org/Graphics/SVG/1.1/DTD/svg11.dtd">
<!-- Generated by graphviz version 2.40.1 (20161225.0304)
 -->
<!-- Title: roles Pages: 1 -->
<svg width="808pt" height="1049pt"
 viewBox="0.00 0.00 808.00 1049.00" xmlns="http://www.w3.org/2000/svg" xmlns:xlink="http://www.w3.org/1999/xlink">
<g id="graph0" class="graph" transform="scale(1 1) rotate(0) translate(4 1045)">
<title>roles</title>
<polygon fill="#ffffff" stroke="transparent" points="-4,4 -4,-1045 804,-1045 804,4 -4,4"/>
<!-- roles -->
<g id="node1" class="node">
<title>roles</title>
<polygon fill="#efefef" stroke="transparent" points="296.5,-622.5 296.5,-657.5 476.5,-657.5 476.5,-622.5 296.5,-622.5"/>
<polygon fill="none" stroke="#000000" points="296.5,-622.5 296.5,-657.5 476.5,-657.5 476.5,-622.5 296.5,-622.5"/>
<text text-anchor="start" x="303.2166" y="-635.3" font-family="Arial Bold" font-size="18.00" fill="#000000">roles</text>
<text text-anchor="start" x="342.2154" y="-635.3" font-family="Arial" font-size="14.00" fill="#000000">    </text>
<text text-anchor="start" x="376.4202" y="-635.3" font-family="Arial" font-size="14.00" fill="#666666">[BASE TABLE]</text>
<polygon fill="none" stroke="#000000" points="296.5,-592.5 296.5,-622.5 476.5,-622.5 476.5,-592.5 296.5,-592.5"/>
<text text-anchor="start" x="303.5" y="-603.9" font-family="Arial" font-size="14.00" fill="#000000">id </text>
<text text-anchor="start" x="318.2798" y="-603.9" font-family="Arial" font-size="14.00" fill="#666666">[int]</text>
<polygon fill="none" stroke="#000000" points="296.5,-562.5 296.5,-592.5 476.5,-592.5 476.5,-562.5 296.5,-562.5"/>
<text text-anchor="start" x="303.5" y="-573.9" font-family="Arial" font-size="14.00" fill="#000000">name </text>
<text text-anchor="start" x="342.399" y="-573.9" font-family="Arial" font-size="14.00" fill="#666666">[varchar(255)]</text>
<polygon fill="none" stroke="#000000" points="296.5,-532.5 296.5,-562.5 476.5,-562.5 476.5,-532.5 296.5,-532.5"/>
<text text-anchor="start" x="303.5" y="-543.9" font-family="Arial" font-size="14.00" fill="#000000">slug </text>
<text text-anchor="start" x="333.0624" y="-543.9" font-family="Arial" font-size="14.00" fill="#666666">[varchar(255)]</text>
<polygon fill="none" stroke="#000000" points="296.5,-502.5 296.5,-532.5 476.5,-532.5 476.5,-502.5 296.5,-502.5"/>
<text text-anchor="start" x="303.5" y="-513.9" font-family="Arial" font-size="14.00" fill="#000000">createdAt </text>
<text text-anchor="start" x="367.2994" y="-513.9" font-family="Arial" font-size="14.00" fill="#666666">[timestamp]</text>
<polygon fill="none" stroke="#000000" points="296.5,-472.5 296.5,-502.5 476.5,-502.5 476.5,-472.5 296.5,-472.5"/>
<text text-anchor="start" x="303.5" y="-483.9" font-family="Arial" font-size="14.00" fill="#000000">updatedAt </text>
<text text-anchor="start" x="371.204" y="-483.9" font-family="Arial" font-size="14.00" fill="#666666">[timestamp]</text>
<polygon fill="none" stroke="#000000" points="296.5,-442.5 296.5,-472.5 476.5,-472.5 476.5,-442.5 296.5,-442.5"/>
<text text-anchor="start" x="303.5" y="-453.9" font-family="Arial" font-size="14.00" fill="#000000">organizationId </text>
<text text-anchor="start" x="395.3064" y="-453.9" font-family="Arial" font-size="14.00" fill="#666666">[int]</text>
<polygon fill="none" stroke="#000000" stroke-width="3" points="295,-441.5 295,-659.5 478,-659.5 478,-441.5 295,-441.5"/>
</g>
<!-- organizations -->
<g id="node4" class="node">
<title>organizations</title>
<polygon fill="#efefef" stroke="transparent" points="262.5,-282.5 262.5,-317.5 510.5,-317.5 510.5,-282.5 262.5,-282.5"/>
<polygon fill="none" stroke="#000000" points="262.5,-282.5 262.5,-317.5 510.5,-317.5 510.5,-282.5 262.5,-282.5"/>
<text text-anchor="start" x="269.2029" y="-295.3" font-family="Arial Bold" font-size="18.00" fill="#000000">organizations</text>
<text text-anchor="start" x="376.2291" y="-295.3" font-family="Arial" font-size="14.00" fill="#000000">    </text>
<text text-anchor="start" x="410.4339" y="-295.3" font-family="Arial" font-size="14.00" fill="#666666">[BASE TABLE]</text>
<polygon fill="none" stroke="#000000" points="262.5,-252.5 262.5,-282.5 510.5,-282.5 510.5,-252.5 262.5,-252.5"/>
<text text-anchor="start" x="269.5" y="-263.9" font-family="Arial" font-size="14.00" fill="#000000">id    </text>
<text text-anchor="start" x="314.594" y="-263.9" font-family="Arial" font-size="14.00" fill="#666666">[int]</text>
<polygon fill="none" stroke="#000000" points="262.5,-222.5 262.5,-252.5 510.5,-252.5 510.5,-222.5 262.5,-222.5"/>
<text text-anchor="start" x="269.5" y="-233.9" font-family="Arial" font-size="14.00" fill="#000000">name    </text>
<text text-anchor="start" x="338.7132" y="-233.9" font-family="Arial" font-size="14.00" fill="#666666">[varchar(255)]</text>
<polygon fill="none" stroke="#000000" points="262.5,-192.5 262.5,-222.5 510.5,-222.5 510.5,-192.5 262.5,-192.5"/>
<text text-anchor="start" x="269.5" y="-203.9" font-family="Arial" font-size="14.00" fill="#000000">uniqueName    </text>
<text text-anchor="start" x="383.0568" y="-203.9" font-family="Arial" font-size="14.00" fill="#666666">[varchar(255)]</text>
<polygon fill="none" stroke="#000000" points="262.5,-162.5 262.5,-192.5 510.5,-192.5 510.5,-162.5 262.5,-162.5"/>
<text text-anchor="start" x="269.5" y="-173.9" font-family="Arial" font-size="14.00" fill="#000000">createdAt    </text>
<text text-anchor="start" x="363.6136" y="-173.9" font-family="Arial" font-size="14.00" fill="#666666">[timestamp]</text>
<polygon fill="none" stroke="#000000" points="262.5,-132.5 262.5,-162.5 510.5,-162.5 510.5,-132.5 262.5,-132.5"/>
<text text-anchor="start" x="269.5" y="-143.9" font-family="Arial" font-size="14.00" fill="#000000">updatedAt    </text>
<text text-anchor="start" x="367.5182" y="-143.9" font-family="Arial" font-size="14.00" fill="#666666">[timestamp]</text>
<polygon fill="none" stroke="#000000" points="262.5,-102.5 262.5,-132.5 510.5,-132.5 510.5,-102.5 262.5,-102.5"/>
<text text-anchor="start" x="269.5" y="-113.9" font-family="Arial" font-size="14.00" fill="#000000">phone    </text>
<text text-anchor="start" x="342.6178" y="-113.9" font-family="Arial" font-size="14.00" fill="#666666">[varchar(255)]</text>
<polygon fill="none" stroke="#000000" points="262.5,-72.5 262.5,-102.5 510.5,-102.5 510.5,-72.5 262.5,-72.5"/>
<text text-anchor="start" x="269.5" y="-83.9" font-family="Arial" font-size="14.00" fill="#000000">address    </text>
<text text-anchor="start" x="353.4958" y="-83.9" font-family="Arial" font-size="14.00" fill="#666666">[varchar(255)]</text>
<polygon fill="none" stroke="#000000" points="262.5,-42.5 262.5,-72.5 510.5,-72.5 510.5,-42.5 262.5,-42.5"/>
<text text-anchor="start" x="269.5" y="-53.9" font-family="Arial" font-size="14.00" fill="#000000">dateFormat    </text>
<text text-anchor="start" x="375.2728" y="-53.9" font-family="Arial" font-size="14.00" fill="#666666">[varchar(255)]</text>
</g>
<!-- roles&#45;&gt;organizations -->
<g id="edge3" class="edge">
<title>roles:organizationId&#45;&gt;organizations:id</title>
<path fill="none" stroke="#000000" stroke-dasharray="5,2" d="M387.3641,-432.2995C396.8033,-381.042 480.9647,-415.7559 510.5,-361 530.2281,-324.4259 552.0556,-267.5 510.5,-267.5"/>
<polygon fill="#000000" stroke="#000000" points="387.3442,-432.5357 382.0161,-442.1201 386.9221,-437.5178 386.5,-442.5 386.5,-442.5 386.5,-442.5 386.9221,-437.5178 390.9839,-442.8799 387.3442,-432.5357 387.3442,-432.5357"/>
<text text-anchor="start" x="365.2765" y="-452.5" font-family="Arial" font-size="10.00" fill="#000000">1&#45;n</text>
</g>
<!-- role_permissions -->
<g id="node2" class="node">
<title>role_permissions</title>
<polygon fill="#efefef" stroke="transparent" points="43.5,-947.5 43.5,-982.5 320.5,-982.5 320.5,-947.5 43.5,-947.5"/>
<polygon fill="none" stroke="#000000" points="43.5,-947.5 43.5,-982.5 320.5,-982.5 320.5,-947.5 43.5,-947.5"/>
<text text-anchor="start" x="50.2147" y="-960.3" font-family="Arial Bold" font-size="18.00" fill="#000000">role_permissions</text>
<text text-anchor="start" x="186.2173" y="-960.3" font-family="Arial" font-size="14.00" fill="#000000">    </text>
<text text-anchor="start" x="220.4221" y="-960.3" font-family="Arial" font-size="14.00" fill="#666666">[BASE TABLE]</text>
<polygon fill="none" stroke="#000000" points="43.5,-917.5 43.5,-947.5 320.5,-947.5 320.5,-917.5 43.5,-917.5"/>
<text text-anchor="start" x="50.5" y="-928.9" font-family="Arial" font-size="14.00" fill="#000000">id    </text>
<text text-anchor="start" x="95.594" y="-928.9" font-family="Arial" font-size="14.00" fill="#666666">[int]</text>
<polygon fill="none" stroke="#000000" points="43.5,-887.5 43.5,-917.5 320.5,-917.5 320.5,-887.5 43.5,-887.5"/>
<text text-anchor="start" x="50.5" y="-898.9" font-family="Arial" font-size="14.00" fill="#000000">roleId    </text>
<text text-anchor="start" x="119.7104" y="-898.9" font-family="Arial" font-size="14.00" fill="#666666">[int]</text>
<polygon fill="none" stroke="#000000" points="43.5,-857.5 43.5,-887.5 320.5,-887.5 320.5,-857.5 43.5,-857.5"/>
<text text-anchor="start" x="50.5" y="-868.9" font-family="Arial" font-size="14.00" fill="#000000">permissionId    </text>
<text text-anchor="start" x="164.0428" y="-868.9" font-family="Arial" font-size="14.00" fill="#666666">[int]</text>
<polygon fill="none" stroke="#000000" points="43.5,-827.5 43.5,-857.5 320.5,-857.5 320.5,-827.5 43.5,-827.5"/>
<text text-anchor="start" x="50.5" y="-838.9" font-family="Arial" font-size="14.00" fill="#000000">createdAt    </text>
<text text-anchor="start" x="144.6136" y="-838.9" font-family="Arial" font-size="14.00" fill="#666666">[timestamp]</text>
<polygon fill="none" stroke="#000000" points="43.5,-797.5 43.5,-827.5 320.5,-827.5 320.5,-797.5 43.5,-797.5"/>
<text text-anchor="start" x="50.5" y="-808.9" font-family="Arial" font-size="14.00" fill="#000000">updatedAt    </text>
<text text-anchor="start" x="148.5182" y="-808.9" font-family="Arial" font-size="14.00" fill="#666666">[timestamp]</text>
</g>
<!-- role_permissions&#45;&gt;roles -->
<g id="edge1" class="edge">
<title>role_permissions:roleId&#45;&gt;roles:id</title>
<path fill="none" stroke="#000000" stroke-dasharray="5,2" d="M330.543,-901.7149C380.3679,-893.1011 333.9911,-815.3529 320.5,-755 315.035,-730.5523 301.965,-728.4477 296.5,-704 287.1437,-662.1441 253.6111,-607.5 296.5,-607.5"/>
<polygon fill="#000000" stroke="#000000" points="330.4696,-901.7205 320.1492,-898.0137 325.4848,-902.1103 320.5,-902.5 320.5,-902.5 320.5,-902.5 325.4848,-902.1103 320.8508,-906.9863 330.4696,-901.7205 330.4696,-901.7205"/>
<text text-anchor="start" x="299.2765" y="-912.5" font-family="Arial" font-size="10.00" fill="#000000">1&#45;n</text>
</g>
<!-- user_organization_roles -->
<g id="node3" class="node">
<title>user_organization_roles</title>
<polygon fill="#efefef" stroke="transparent" points="424.5,-962.5 424.5,-997.5 757.5,-997.5 757.5,-962.5 424.5,-962.5"/>
<polygon fill="none" stroke="#000000" points="424.5,-962.5 424.5,-997.5 757.5,-997.5 757.5,-962.5 424.5,-962.5"/>
<text text-anchor="start" x="431.195" y="-975.3" font-family="Arial Bold" font-size="18.00" fill="#000000">user_organization_roles</text>
<text text-anchor="start" x="623.237" y="-975.3" font-family="Arial" font-size="14.00" fill="#000000">    </text>
<text text-anchor="start" x="657.4418" y="-975.3" font-family="Arial" font-size="14.00" fill="#666666">[BASE TABLE]</text>
<polygon fill="none" stroke="#000000" points="424.5,-932.5 424.5,-962.5 757.5,-962.5 757.5,-932.5 424.5,-932.5"/>
<text text-anchor="start" x="431.5" y="-943.9" font-family="Arial" font-size="14.00" fill="#000000">id    </text>
<text text-anchor="start" x="476.594" y="-943.9" font-family="Arial" font-size="14.00" fill="#666666">[int]</text>
<polygon fill="none" stroke="#000000" points="424.5,-902.5 424.5,-932.5 757.5,-932.5 757.5,-902.5 424.5,-902.5"/>
<text text-anchor="start" x="431.5" y="-913.9" font-family="Arial" font-size="14.00" fill="#000000">userId    </text>
<text text-anchor="start" x="504.6038" y="-913.9" font-family="Arial" font-size="14.00" fill="#666666">[int]</text>
<polygon fill="none" stroke="#000000" points="424.5,-872.5 424.5,-902.5 757.5,-902.5 757.5,-872.5 424.5,-872.5"/>
<text text-anchor="start" x="431.5" y="-883.9" font-family="Arial" font-size="14.00" fill="#000000">organizationId    </text>
<text text-anchor="start" x="553.6206" y="-883.9" font-family="Arial" font-size="14.00" fill="#666666">[int]</text>
<polygon fill="none" stroke="#000000" points="424.5,-842.5 424.5,-872.5 757.5,-872.5 757.5,-842.5 424.5,-842.5"/>
<text text-anchor="start" x="431.5" y="-853.9" font-family="Arial" font-size="14.00" fill="#000000">roleId    </text>
<text text-anchor="start" x="500.7104" y="-853.9" font-family="Arial" font-size="14.00" fill="#666666">[int]</text>
<polygon fill="none" stroke="#000000" points="424.5,-812.5 424.5,-842.5 757.5,-842.5 757.5,-812.5 424.5,-812.5"/>
<text text-anchor="start" x="431.5" y="-823.9" font-family="Arial" font-size="14.00" fill="#000000">createdAt    </text>
<text text-anchor="start" x="525.6136" y="-823.9" font-family="Arial" font-size="14.00" fill="#666666">[timestamp]</text>
<polygon fill="none" stroke="#000000" points="424.5,-782.5 424.5,-812.5 757.5,-812.5 757.5,-782.5 424.5,-782.5"/>
<text text-anchor="start" x="431.5" y="-793.9" font-family="Arial" font-size="14.00" fill="#000000">updatedAt    </text>
<text text-anchor="start" x="529.5182" y="-793.9" font-family="Arial" font-size="14.00" fill="#666666">[timestamp]</text>
</g>
<!-- user_organization_roles&#45;&gt;roles -->
<g id="edge2" class="edge">
<title>user_organization_roles:roleId&#45;&gt;roles:id</title>
<path fill="none" stroke="#000000" stroke-dasharray="5,2" d="M414.1635,-856.362C376.4112,-847.0626 402.0621,-782.8242 424.5,-740 437.5456,-715.1015 463.4544,-728.8985 476.5,-704 496.405,-666.0099 519.3889,-607.5 476.5,-607.5"/>
<polygon fill="#000000" stroke="#000000" points="414.5601,-856.4056 424.0075,-861.973 419.53,-856.9528 424.5,-857.5 424.5,-857.5 424.5,-857.5 419.53,-856.9528 424.9925,-853.027 414.5601,-856.4056 414.5601,-856.4056"/>
<text text-anchor="start" x="403.2765" y="-867.5" font-family="Arial" font-size="10.00" fill="#000000">n&#45;n</text>
</g>
</g>
</svg>
