<?xml version="1.0" encoding="UTF-8" standalone="no"?>
<!DOCTYPE svg PUBLIC "-//W3C//DTD SVG 1.1//EN"
 "http://www.w3.org/Graphics/SVG/1.1/DTD/svg11.dtd">
<!-- Generated by graphviz version 2.40.1 (20161225.0304)
 -->
<!-- Title: role_permissions Pages: 1 -->
<svg width="764pt" height="622pt"
 viewBox="0.00 0.00 764.00 622.00" xmlns="http://www.w3.org/2000/svg" xmlns:xlink="http://www.w3.org/1999/xlink">
<g id="graph0" class="graph" transform="scale(1 1) rotate(0) translate(4 618)">
<title>role_permissions</title>
<polygon fill="#ffffff" stroke="transparent" points="-4,4 -4,-618 760,-618 760,4 -4,4"/>
<!-- role_permissions -->
<g id="node1" class="node">
<title>role_permissions</title>
<polygon fill="#efefef" stroke="transparent" points="189,-532.5 189,-567.5 466,-567.5 466,-532.5 189,-532.5"/>
<polygon fill="none" stroke="#000000" points="189,-532.5 189,-567.5 466,-567.5 466,-532.5 189,-532.5"/>
<text text-anchor="start" x="195.7147" y="-545.3" font-family="Arial Bold" font-size="18.00" fill="#000000">role_permissions</text>
<text text-anchor="start" x="331.7173" y="-545.3" font-family="Arial" font-size="14.00" fill="#000000">    </text>
<text text-anchor="start" x="365.9221" y="-545.3" font-family="Arial" font-size="14.00" fill="#666666">[BASE TABLE]</text>
<polygon fill="none" stroke="#000000" points="189,-502.5 189,-532.5 466,-532.5 466,-502.5 189,-502.5"/>
<text text-anchor="start" x="196" y="-513.9" font-family="Arial" font-size="14.00" fill="#000000">id </text>
<text text-anchor="start" x="210.7798" y="-513.9" font-family="Arial" font-size="14.00" fill="#666666">[int]</text>
<polygon fill="none" stroke="#000000" points="189,-472.5 189,-502.5 466,-502.5 466,-472.5 189,-472.5"/>
<text text-anchor="start" x="196" y="-483.9" font-family="Arial" font-size="14.00" fill="#000000">roleId </text>
<text text-anchor="start" x="234.8962" y="-483.9" font-family="Arial" font-size="14.00" fill="#666666">[int]</text>
<polygon fill="none" stroke="#000000" points="189,-442.5 189,-472.5 466,-472.5 466,-442.5 189,-442.5"/>
<text text-anchor="start" x="196" y="-453.9" font-family="Arial" font-size="14.00" fill="#000000">permissionId </text>
<text text-anchor="start" x="279.2286" y="-453.9" font-family="Arial" font-size="14.00" fill="#666666">[int]</text>
<polygon fill="none" stroke="#000000" points="189,-412.5 189,-442.5 466,-442.5 466,-412.5 189,-412.5"/>
<text text-anchor="start" x="196" y="-423.9" font-family="Arial" font-size="14.00" fill="#000000">createdAt </text>
<text text-anchor="start" x="259.7994" y="-423.9" font-family="Arial" font-size="14.00" fill="#666666">[timestamp]</text>
<polygon fill="none" stroke="#000000" points="189,-382.5 189,-412.5 466,-412.5 466,-382.5 189,-382.5"/>
<text text-anchor="start" x="196" y="-393.9" font-family="Arial" font-size="14.00" fill="#000000">updatedAt </text>
<text text-anchor="start" x="263.704" y="-393.9" font-family="Arial" font-size="14.00" fill="#666666">[timestamp]</text>
<polygon fill="none" stroke="#000000" stroke-width="3" points="187,-381.5 187,-569.5 467,-569.5 467,-381.5 187,-381.5"/>
</g>
<!-- roles -->
<g id="node2" class="node">
<title>roles</title>
<polygon fill="#efefef" stroke="transparent" points="43,-222.5 43,-257.5 227,-257.5 227,-222.5 43,-222.5"/>
<polygon fill="none" stroke="#000000" points="43,-222.5 43,-257.5 227,-257.5 227,-222.5 43,-222.5"/>
<text text-anchor="start" x="51.7166" y="-235.3" font-family="Arial Bold" font-size="18.00" fill="#000000">roles</text>
<text text-anchor="start" x="90.7154" y="-235.3" font-family="Arial" font-size="14.00" fill="#000000">    </text>
<text text-anchor="start" x="124.9202" y="-235.3" font-family="Arial" font-size="14.00" fill="#666666">[BASE TABLE]</text>
<polygon fill="none" stroke="#000000" points="43,-192.5 43,-222.5 227,-222.5 227,-192.5 43,-192.5"/>
<text text-anchor="start" x="50" y="-203.9" font-family="Arial" font-size="14.00" fill="#000000">id    </text>
<text text-anchor="start" x="95.094" y="-203.9" font-family="Arial" font-size="14.00" fill="#666666">[int]</text>
<polygon fill="none" stroke="#000000" points="43,-162.5 43,-192.5 227,-192.5 227,-162.5 43,-162.5"/>
<text text-anchor="start" x="50" y="-173.9" font-family="Arial" font-size="14.00" fill="#000000">name    </text>
<text text-anchor="start" x="119.2132" y="-173.9" font-family="Arial" font-size="14.00" fill="#666666">[varchar(255)]</text>
<polygon fill="none" stroke="#000000" points="43,-132.5 43,-162.5 227,-162.5 227,-132.5 43,-132.5"/>
<text text-anchor="start" x="50" y="-143.9" font-family="Arial" font-size="14.00" fill="#000000">slug    </text>
<text text-anchor="start" x="109.8766" y="-143.9" font-family="Arial" font-size="14.00" fill="#666666">[varchar(255)]</text>
<polygon fill="none" stroke="#000000" points="43,-102.5 43,-132.5 227,-132.5 227,-102.5 43,-102.5"/>
<text text-anchor="start" x="50" y="-113.9" font-family="Arial" font-size="14.00" fill="#000000">createdAt    </text>
<text text-anchor="start" x="144.1136" y="-113.9" font-family="Arial" font-size="14.00" fill="#666666">[timestamp]</text>
<polygon fill="none" stroke="#000000" points="43,-72.5 43,-102.5 227,-102.5 227,-72.5 43,-72.5"/>
<text text-anchor="start" x="49.8219" y="-83.9" font-family="Arial" font-size="14.00" fill="#000000">updatedAt    </text>
<text text-anchor="start" x="147.8401" y="-83.9" font-family="Arial" font-size="14.00" fill="#666666">[timestamp]</text>
<polygon fill="none" stroke="#000000" points="43,-42.5 43,-72.5 227,-72.5 227,-42.5 43,-42.5"/>
<text text-anchor="start" x="50" y="-53.9" font-family="Arial" font-size="14.00" fill="#000000">organizationId    </text>
<text text-anchor="start" x="172.1206" y="-53.9" font-family="Arial" font-size="14.00" fill="#666666">[int]</text>
</g>
<!-- role_permissions&#45;&gt;roles -->
<g id="edge1" class="edge">
<title>role_permissions:roleId&#45;&gt;roles:id</title>
<path fill="none" stroke="#000000" stroke-dasharray="5,2" d="M178.9693,-486.7201C126.4944,-477.8423 164.0156,-395.0855 189,-337 198.1925,-315.6287 217.8075,-322.3713 227,-301 243.4198,-262.826 268.5556,-207.5 227,-207.5"/>
<polygon fill="#000000" stroke="#000000" points="179.0301,-486.7247 188.6511,-491.9865 184.015,-487.1124 189,-487.5 189,-487.5 189,-487.5 184.015,-487.1124 189.3489,-483.0135 179.0301,-486.7247 179.0301,-486.7247"/>
<text text-anchor="start" x="167.7765" y="-497.5" font-family="Arial" font-size="10.00" fill="#000000">1&#45;n</text>
</g>
<!-- permissions -->
<g id="node3" class="node">
<title>permissions</title>
<polygon fill="#efefef" stroke="transparent" points="331,-207.5 331,-242.5 713,-242.5 713,-207.5 331,-207.5"/>
<polygon fill="none" stroke="#000000" points="331,-207.5 331,-242.5 713,-242.5 713,-207.5 331,-207.5"/>
<text text-anchor="start" x="410.2172" y="-220.3" font-family="Arial Bold" font-size="18.00" fill="#000000">permissions</text>
<text text-anchor="start" x="506.2148" y="-220.3" font-family="Arial" font-size="14.00" fill="#000000">    </text>
<text text-anchor="start" x="540.4196" y="-220.3" font-family="Arial" font-size="14.00" fill="#666666">[BASE TABLE]</text>
<polygon fill="none" stroke="#000000" points="331,-177.5 331,-207.5 713,-207.5 713,-177.5 331,-177.5"/>
<text text-anchor="start" x="338" y="-188.9" font-family="Arial" font-size="14.00" fill="#000000">id    </text>
<text text-anchor="start" x="383.094" y="-188.9" font-family="Arial" font-size="14.00" fill="#666666">[int]</text>
<polygon fill="none" stroke="#000000" points="331,-147.5 331,-177.5 713,-177.5 713,-147.5 331,-147.5"/>
<text text-anchor="start" x="337.7194" y="-158.9" font-family="Arial" font-size="14.00" fill="#000000">action    </text>
<text text-anchor="start" x="409.2692" y="-158.9" font-family="Arial" font-size="14.00" fill="#666666">[enum(&#39;create&#39;,&#39;read&#39;,&#39;update&#39;,&#39;delete&#39;,&#39;manage&#39;)]</text>
<polygon fill="none" stroke="#000000" points="331,-117.5 331,-147.5 713,-147.5 713,-117.5 331,-117.5"/>
<text text-anchor="start" x="338" y="-128.9" font-family="Arial" font-size="14.00" fill="#000000">subject    </text>
<text text-anchor="start" x="416.5498" y="-128.9" font-family="Arial" font-size="14.00" fill="#666666">[varchar(255)]</text>
<polygon fill="none" stroke="#000000" points="331,-87.5 331,-117.5 713,-117.5 713,-87.5 331,-87.5"/>
<text text-anchor="start" x="338" y="-98.9" font-family="Arial" font-size="14.00" fill="#000000">createdAt    </text>
<text text-anchor="start" x="432.1136" y="-98.9" font-family="Arial" font-size="14.00" fill="#666666">[timestamp]</text>
<polygon fill="none" stroke="#000000" points="331,-57.5 331,-87.5 713,-87.5 713,-57.5 331,-57.5"/>
<text text-anchor="start" x="338" y="-68.9" font-family="Arial" font-size="14.00" fill="#000000">updatedAt    </text>
<text text-anchor="start" x="436.0182" y="-68.9" font-family="Arial" font-size="14.00" fill="#666666">[timestamp]</text>
</g>
<!-- role_permissions&#45;&gt;permissions -->
<g id="edge2" class="edge">
<title>role_permissions:permissionId&#45;&gt;permissions:id</title>
<path fill="none" stroke="#000000" stroke-dasharray="5,2" d="M476.184,-456.404C516.2702,-446.9102 494.3103,-377.9581 466,-337 429.5311,-284.2383 367.4689,-338.7617 331,-286 307.3717,-251.8157 289.4444,-192.5 331,-192.5"/>
<polygon fill="#000000" stroke="#000000" points="475.9426,-456.4299 465.5185,-453.0258 470.9713,-456.965 466,-457.5 466,-457.5 466,-457.5 470.9713,-456.965 466.4815,-461.9742 475.9426,-456.4299 475.9426,-456.4299"/>
<text text-anchor="start" x="444.7765" y="-467.5" font-family="Arial" font-size="10.00" fill="#000000">1&#45;n</text>
</g>
</g>
</svg>
