<?xml version="1.0" encoding="UTF-8" standalone="no"?>
<!DOCTYPE svg PUBLIC "-//W3C//DTD SVG 1.1//EN"
 "http://www.w3.org/Graphics/SVG/1.1/DTD/svg11.dtd">
<!-- Generated by graphviz version 2.40.1 (20161225.0304)
 -->
<!-- Title: roles Pages: 1 -->
<svg width="808pt" height="1139pt"
 viewBox="0.00 0.00 808.00 1139.00" xmlns="http://www.w3.org/2000/svg" xmlns:xlink="http://www.w3.org/1999/xlink">
<g id="graph0" class="graph" transform="scale(1 1) rotate(0) translate(4 1135)">
<title>roles</title>
<polygon fill="#ffffff" stroke="transparent" points="-4,4 -4,-1135 804,-1135 804,4 -4,4"/>
<!-- roles -->
<g id="node1" class="node">
<title>roles</title>
<polygon fill="#efefef" stroke="transparent" points="296.5,-712.5 296.5,-747.5 476.5,-747.5 476.5,-712.5 296.5,-712.5"/>
<polygon fill="none" stroke="#000000" points="296.5,-712.5 296.5,-747.5 476.5,-747.5 476.5,-712.5 296.5,-712.5"/>
<text text-anchor="start" x="303.2166" y="-725.3" font-family="Arial Bold" font-size="18.00" fill="#000000">roles</text>
<text text-anchor="start" x="342.2154" y="-725.3" font-family="Arial" font-size="14.00" fill="#000000">    </text>
<text text-anchor="start" x="376.4202" y="-725.3" font-family="Arial" font-size="14.00" fill="#666666">[BASE TABLE]</text>
<polygon fill="none" stroke="#000000" points="296.5,-682.5 296.5,-712.5 476.5,-712.5 476.5,-682.5 296.5,-682.5"/>
<text text-anchor="start" x="303.5" y="-693.9" font-family="Arial" font-size="14.00" fill="#000000">id </text>
<text text-anchor="start" x="318.2798" y="-693.9" font-family="Arial" font-size="14.00" fill="#666666">[int]</text>
<polygon fill="none" stroke="#000000" points="296.5,-652.5 296.5,-682.5 476.5,-682.5 476.5,-652.5 296.5,-652.5"/>
<text text-anchor="start" x="303.5" y="-663.9" font-family="Arial" font-size="14.00" fill="#000000">name </text>
<text text-anchor="start" x="342.399" y="-663.9" font-family="Arial" font-size="14.00" fill="#666666">[varchar(255)]</text>
<polygon fill="none" stroke="#000000" points="296.5,-622.5 296.5,-652.5 476.5,-652.5 476.5,-622.5 296.5,-622.5"/>
<text text-anchor="start" x="303.5" y="-633.9" font-family="Arial" font-size="14.00" fill="#000000">slug </text>
<text text-anchor="start" x="333.0624" y="-633.9" font-family="Arial" font-size="14.00" fill="#666666">[varchar(255)]</text>
<polygon fill="none" stroke="#000000" points="296.5,-592.5 296.5,-622.5 476.5,-622.5 476.5,-592.5 296.5,-592.5"/>
<text text-anchor="start" x="303.5" y="-603.9" font-family="Arial" font-size="14.00" fill="#000000">createdAt </text>
<text text-anchor="start" x="367.2994" y="-603.9" font-family="Arial" font-size="14.00" fill="#666666">[timestamp]</text>
<polygon fill="none" stroke="#000000" points="296.5,-562.5 296.5,-592.5 476.5,-592.5 476.5,-562.5 296.5,-562.5"/>
<text text-anchor="start" x="303.5" y="-573.9" font-family="Arial" font-size="14.00" fill="#000000">updatedAt </text>
<text text-anchor="start" x="371.204" y="-573.9" font-family="Arial" font-size="14.00" fill="#666666">[timestamp]</text>
<polygon fill="none" stroke="#000000" points="296.5,-532.5 296.5,-562.5 476.5,-562.5 476.5,-532.5 296.5,-532.5"/>
<text text-anchor="start" x="303.5" y="-543.9" font-family="Arial" font-size="14.00" fill="#000000">organizationId </text>
<text text-anchor="start" x="395.3064" y="-543.9" font-family="Arial" font-size="14.00" fill="#666666">[int]</text>
<polygon fill="none" stroke="#000000" stroke-width="3" points="295,-531.5 295,-749.5 478,-749.5 478,-531.5 295,-531.5"/>
</g>
<!-- organizations -->
<g id="node4" class="node">
<title>organizations</title>
<polygon fill="#efefef" stroke="transparent" points="262.5,-372.5 262.5,-407.5 510.5,-407.5 510.5,-372.5 262.5,-372.5"/>
<polygon fill="none" stroke="#000000" points="262.5,-372.5 262.5,-407.5 510.5,-407.5 510.5,-372.5 262.5,-372.5"/>
<text text-anchor="start" x="269.2029" y="-385.3" font-family="Arial Bold" font-size="18.00" fill="#000000">organizations</text>
<text text-anchor="start" x="376.2291" y="-385.3" font-family="Arial" font-size="14.00" fill="#000000">    </text>
<text text-anchor="start" x="410.4339" y="-385.3" font-family="Arial" font-size="14.00" fill="#666666">[BASE TABLE]</text>
<polygon fill="none" stroke="#000000" points="262.5,-342.5 262.5,-372.5 510.5,-372.5 510.5,-342.5 262.5,-342.5"/>
<text text-anchor="start" x="269.5" y="-353.9" font-family="Arial" font-size="14.00" fill="#000000">id    </text>
<text text-anchor="start" x="314.594" y="-353.9" font-family="Arial" font-size="14.00" fill="#666666">[int]</text>
<polygon fill="none" stroke="#000000" points="262.5,-312.5 262.5,-342.5 510.5,-342.5 510.5,-312.5 262.5,-312.5"/>
<text text-anchor="start" x="269.5" y="-323.9" font-family="Arial" font-size="14.00" fill="#000000">name    </text>
<text text-anchor="start" x="338.7132" y="-323.9" font-family="Arial" font-size="14.00" fill="#666666">[varchar(255)]</text>
<polygon fill="none" stroke="#000000" points="262.5,-282.5 262.5,-312.5 510.5,-312.5 510.5,-282.5 262.5,-282.5"/>
<text text-anchor="start" x="269.5" y="-293.9" font-family="Arial" font-size="14.00" fill="#000000">uniqueName    </text>
<text text-anchor="start" x="383.0568" y="-293.9" font-family="Arial" font-size="14.00" fill="#666666">[varchar(255)]</text>
<polygon fill="none" stroke="#000000" points="262.5,-252.5 262.5,-282.5 510.5,-282.5 510.5,-252.5 262.5,-252.5"/>
<text text-anchor="start" x="269.5" y="-263.9" font-family="Arial" font-size="14.00" fill="#000000">createdAt    </text>
<text text-anchor="start" x="363.6136" y="-263.9" font-family="Arial" font-size="14.00" fill="#666666">[timestamp]</text>
<polygon fill="none" stroke="#000000" points="262.5,-222.5 262.5,-252.5 510.5,-252.5 510.5,-222.5 262.5,-222.5"/>
<text text-anchor="start" x="269.5" y="-233.9" font-family="Arial" font-size="14.00" fill="#000000">updatedAt    </text>
<text text-anchor="start" x="367.5182" y="-233.9" font-family="Arial" font-size="14.00" fill="#666666">[timestamp]</text>
<polygon fill="none" stroke="#000000" points="262.5,-192.5 262.5,-222.5 510.5,-222.5 510.5,-192.5 262.5,-192.5"/>
<text text-anchor="start" x="269.5" y="-203.9" font-family="Arial" font-size="14.00" fill="#000000">phone    </text>
<text text-anchor="start" x="342.6178" y="-203.9" font-family="Arial" font-size="14.00" fill="#666666">[varchar(255)]</text>
<polygon fill="none" stroke="#000000" points="262.5,-162.5 262.5,-192.5 510.5,-192.5 510.5,-162.5 262.5,-162.5"/>
<text text-anchor="start" x="269.5" y="-173.9" font-family="Arial" font-size="14.00" fill="#000000">address    </text>
<text text-anchor="start" x="353.4958" y="-173.9" font-family="Arial" font-size="14.00" fill="#666666">[varchar(255)]</text>
<polygon fill="none" stroke="#000000" points="262.5,-132.5 262.5,-162.5 510.5,-162.5 510.5,-132.5 262.5,-132.5"/>
<text text-anchor="start" x="269.5" y="-143.9" font-family="Arial" font-size="14.00" fill="#000000">dateFormat    </text>
<text text-anchor="start" x="375.2728" y="-143.9" font-family="Arial" font-size="14.00" fill="#666666">[varchar(255)]</text>
<polygon fill="none" stroke="#000000" points="262.5,-102.5 262.5,-132.5 510.5,-132.5 510.5,-102.5 262.5,-102.5"/>
<text text-anchor="start" x="269.5" y="-113.9" font-family="Arial" font-size="14.00" fill="#000000">currency    </text>
<text text-anchor="start" x="357.3738" y="-113.9" font-family="Arial" font-size="14.00" fill="#666666">[enum(&#39;vnd&#39;,&#39;usd&#39;)]</text>
<polygon fill="none" stroke="#000000" points="262.5,-72.5 262.5,-102.5 510.5,-102.5 510.5,-72.5 262.5,-72.5"/>
<text text-anchor="start" x="269.5" y="-83.9" font-family="Arial" font-size="14.00" fill="#000000">bank    </text>
<text text-anchor="start" x="334.0526" y="-83.9" font-family="Arial" font-size="14.00" fill="#666666">[enum(&#39;bidv&#39;,&#39;vcb&#39;)]</text>
<polygon fill="none" stroke="#000000" points="262.5,-42.5 262.5,-72.5 510.5,-72.5 510.5,-42.5 262.5,-42.5"/>
<text text-anchor="start" x="269.5" y="-53.9" font-family="Arial" font-size="14.00" fill="#000000">exchangeRate    </text>
<text text-anchor="start" x="393.9628" y="-53.9" font-family="Arial" font-size="14.00" fill="#666666">[int]</text>
</g>
<!-- roles&#45;&gt;organizations -->
<g id="edge3" class="edge">
<title>roles:organizationId&#45;&gt;organizations:id</title>
<path fill="none" stroke="#000000" stroke-dasharray="5,2" d="M387.3641,-522.2995C396.8033,-471.042 480.9647,-505.7559 510.5,-451 530.2281,-414.4259 552.0556,-357.5 510.5,-357.5"/>
<polygon fill="#000000" stroke="#000000" points="387.3442,-522.5357 382.0161,-532.1201 386.9221,-527.5178 386.5,-532.5 386.5,-532.5 386.5,-532.5 386.9221,-527.5178 390.9839,-532.8799 387.3442,-522.5357 387.3442,-522.5357"/>
<text text-anchor="start" x="365.2765" y="-542.5" font-family="Arial" font-size="10.00" fill="#000000">1&#45;n</text>
</g>
<!-- role_permissions -->
<g id="node2" class="node">
<title>role_permissions</title>
<polygon fill="#efefef" stroke="transparent" points="43.5,-1037.5 43.5,-1072.5 320.5,-1072.5 320.5,-1037.5 43.5,-1037.5"/>
<polygon fill="none" stroke="#000000" points="43.5,-1037.5 43.5,-1072.5 320.5,-1072.5 320.5,-1037.5 43.5,-1037.5"/>
<text text-anchor="start" x="50.2147" y="-1050.3" font-family="Arial Bold" font-size="18.00" fill="#000000">role_permissions</text>
<text text-anchor="start" x="186.2173" y="-1050.3" font-family="Arial" font-size="14.00" fill="#000000">    </text>
<text text-anchor="start" x="220.4221" y="-1050.3" font-family="Arial" font-size="14.00" fill="#666666">[BASE TABLE]</text>
<polygon fill="none" stroke="#000000" points="43.5,-1007.5 43.5,-1037.5 320.5,-1037.5 320.5,-1007.5 43.5,-1007.5"/>
<text text-anchor="start" x="50.5" y="-1018.9" font-family="Arial" font-size="14.00" fill="#000000">id    </text>
<text text-anchor="start" x="95.594" y="-1018.9" font-family="Arial" font-size="14.00" fill="#666666">[int]</text>
<polygon fill="none" stroke="#000000" points="43.5,-977.5 43.5,-1007.5 320.5,-1007.5 320.5,-977.5 43.5,-977.5"/>
<text text-anchor="start" x="50.5" y="-988.9" font-family="Arial" font-size="14.00" fill="#000000">roleId    </text>
<text text-anchor="start" x="119.7104" y="-988.9" font-family="Arial" font-size="14.00" fill="#666666">[int]</text>
<polygon fill="none" stroke="#000000" points="43.5,-947.5 43.5,-977.5 320.5,-977.5 320.5,-947.5 43.5,-947.5"/>
<text text-anchor="start" x="50.5" y="-958.9" font-family="Arial" font-size="14.00" fill="#000000">permissionId    </text>
<text text-anchor="start" x="164.0428" y="-958.9" font-family="Arial" font-size="14.00" fill="#666666">[int]</text>
<polygon fill="none" stroke="#000000" points="43.5,-917.5 43.5,-947.5 320.5,-947.5 320.5,-917.5 43.5,-917.5"/>
<text text-anchor="start" x="50.5" y="-928.9" font-family="Arial" font-size="14.00" fill="#000000">createdAt    </text>
<text text-anchor="start" x="144.6136" y="-928.9" font-family="Arial" font-size="14.00" fill="#666666">[timestamp]</text>
<polygon fill="none" stroke="#000000" points="43.5,-887.5 43.5,-917.5 320.5,-917.5 320.5,-887.5 43.5,-887.5"/>
<text text-anchor="start" x="50.5" y="-898.9" font-family="Arial" font-size="14.00" fill="#000000">updatedAt    </text>
<text text-anchor="start" x="148.5182" y="-898.9" font-family="Arial" font-size="14.00" fill="#666666">[timestamp]</text>
</g>
<!-- role_permissions&#45;&gt;roles -->
<g id="edge1" class="edge">
<title>role_permissions:roleId&#45;&gt;roles:id</title>
<path fill="none" stroke="#000000" stroke-dasharray="5,2" d="M330.543,-991.7149C380.3679,-983.1011 333.9911,-905.3529 320.5,-845 315.035,-820.5523 301.965,-818.4477 296.5,-794 287.1437,-752.1441 253.6111,-697.5 296.5,-697.5"/>
<polygon fill="#000000" stroke="#000000" points="330.4696,-991.7205 320.1492,-988.0137 325.4848,-992.1103 320.5,-992.5 320.5,-992.5 320.5,-992.5 325.4848,-992.1103 320.8508,-996.9863 330.4696,-991.7205 330.4696,-991.7205"/>
<text text-anchor="start" x="299.2765" y="-1002.5" font-family="Arial" font-size="10.00" fill="#000000">1&#45;n</text>
</g>
<!-- user_organization_roles -->
<g id="node3" class="node">
<title>user_organization_roles</title>
<polygon fill="#efefef" stroke="transparent" points="424.5,-1052.5 424.5,-1087.5 757.5,-1087.5 757.5,-1052.5 424.5,-1052.5"/>
<polygon fill="none" stroke="#000000" points="424.5,-1052.5 424.5,-1087.5 757.5,-1087.5 757.5,-1052.5 424.5,-1052.5"/>
<text text-anchor="start" x="431.195" y="-1065.3" font-family="Arial Bold" font-size="18.00" fill="#000000">user_organization_roles</text>
<text text-anchor="start" x="623.237" y="-1065.3" font-family="Arial" font-size="14.00" fill="#000000">    </text>
<text text-anchor="start" x="657.4418" y="-1065.3" font-family="Arial" font-size="14.00" fill="#666666">[BASE TABLE]</text>
<polygon fill="none" stroke="#000000" points="424.5,-1022.5 424.5,-1052.5 757.5,-1052.5 757.5,-1022.5 424.5,-1022.5"/>
<text text-anchor="start" x="431.5" y="-1033.9" font-family="Arial" font-size="14.00" fill="#000000">id    </text>
<text text-anchor="start" x="476.594" y="-1033.9" font-family="Arial" font-size="14.00" fill="#666666">[int]</text>
<polygon fill="none" stroke="#000000" points="424.5,-992.5 424.5,-1022.5 757.5,-1022.5 757.5,-992.5 424.5,-992.5"/>
<text text-anchor="start" x="431.5" y="-1003.9" font-family="Arial" font-size="14.00" fill="#000000">userId    </text>
<text text-anchor="start" x="504.6038" y="-1003.9" font-family="Arial" font-size="14.00" fill="#666666">[int]</text>
<polygon fill="none" stroke="#000000" points="424.5,-962.5 424.5,-992.5 757.5,-992.5 757.5,-962.5 424.5,-962.5"/>
<text text-anchor="start" x="431.5" y="-973.9" font-family="Arial" font-size="14.00" fill="#000000">organizationId    </text>
<text text-anchor="start" x="553.6206" y="-973.9" font-family="Arial" font-size="14.00" fill="#666666">[int]</text>
<polygon fill="none" stroke="#000000" points="424.5,-932.5 424.5,-962.5 757.5,-962.5 757.5,-932.5 424.5,-932.5"/>
<text text-anchor="start" x="431.5" y="-943.9" font-family="Arial" font-size="14.00" fill="#000000">roleId    </text>
<text text-anchor="start" x="500.7104" y="-943.9" font-family="Arial" font-size="14.00" fill="#666666">[int]</text>
<polygon fill="none" stroke="#000000" points="424.5,-902.5 424.5,-932.5 757.5,-932.5 757.5,-902.5 424.5,-902.5"/>
<text text-anchor="start" x="431.5" y="-913.9" font-family="Arial" font-size="14.00" fill="#000000">createdAt    </text>
<text text-anchor="start" x="525.6136" y="-913.9" font-family="Arial" font-size="14.00" fill="#666666">[timestamp]</text>
<polygon fill="none" stroke="#000000" points="424.5,-872.5 424.5,-902.5 757.5,-902.5 757.5,-872.5 424.5,-872.5"/>
<text text-anchor="start" x="431.5" y="-883.9" font-family="Arial" font-size="14.00" fill="#000000">updatedAt    </text>
<text text-anchor="start" x="529.5182" y="-883.9" font-family="Arial" font-size="14.00" fill="#666666">[timestamp]</text>
</g>
<!-- user_organization_roles&#45;&gt;roles -->
<g id="edge2" class="edge">
<title>user_organization_roles:roleId&#45;&gt;roles:id</title>
<path fill="none" stroke="#000000" stroke-dasharray="5,2" d="M414.1635,-946.362C376.4112,-937.0626 402.0621,-872.8242 424.5,-830 437.5456,-805.1015 463.4544,-818.8985 476.5,-794 496.405,-756.0099 519.3889,-697.5 476.5,-697.5"/>
<polygon fill="#000000" stroke="#000000" points="414.5601,-946.4056 424.0075,-951.973 419.53,-946.9528 424.5,-947.5 424.5,-947.5 424.5,-947.5 419.53,-946.9528 424.9925,-943.027 414.5601,-946.4056 414.5601,-946.4056"/>
<text text-anchor="start" x="403.2765" y="-957.5" font-family="Arial" font-size="10.00" fill="#000000">n&#45;n</text>
</g>
</g>
</svg>
