<?xml version="1.0" encoding="UTF-8" standalone="no"?>
<!DOCTYPE svg PUBLIC "-//W3C//DTD SVG 1.1//EN"
 "http://www.w3.org/Graphics/SVG/1.1/DTD/svg11.dtd">
<!-- Generated by graphviz version 2.40.1 (20161225.0304)
 -->
<!-- Title: roles Pages: 1 -->
<svg width="808pt" height="1019pt"
 viewBox="0.00 0.00 808.00 1019.00" xmlns="http://www.w3.org/2000/svg" xmlns:xlink="http://www.w3.org/1999/xlink">
<g id="graph0" class="graph" transform="scale(1 1) rotate(0) translate(4 1015)">
<title>roles</title>
<polygon fill="#ffffff" stroke="transparent" points="-4,4 -4,-1015 804,-1015 804,4 -4,4"/>
<!-- roles -->
<g id="node1" class="node">
<title>roles</title>
<polygon fill="#efefef" stroke="transparent" points="296.5,-592.5 296.5,-627.5 476.5,-627.5 476.5,-592.5 296.5,-592.5"/>
<polygon fill="none" stroke="#000000" points="296.5,-592.5 296.5,-627.5 476.5,-627.5 476.5,-592.5 296.5,-592.5"/>
<text text-anchor="start" x="303.2166" y="-605.3" font-family="Arial Bold" font-size="18.00" fill="#000000">roles</text>
<text text-anchor="start" x="342.2154" y="-605.3" font-family="Arial" font-size="14.00" fill="#000000">    </text>
<text text-anchor="start" x="376.4202" y="-605.3" font-family="Arial" font-size="14.00" fill="#666666">[BASE TABLE]</text>
<polygon fill="none" stroke="#000000" points="296.5,-562.5 296.5,-592.5 476.5,-592.5 476.5,-562.5 296.5,-562.5"/>
<text text-anchor="start" x="303.5" y="-573.9" font-family="Arial" font-size="14.00" fill="#000000">id </text>
<text text-anchor="start" x="318.2798" y="-573.9" font-family="Arial" font-size="14.00" fill="#666666">[int]</text>
<polygon fill="none" stroke="#000000" points="296.5,-532.5 296.5,-562.5 476.5,-562.5 476.5,-532.5 296.5,-532.5"/>
<text text-anchor="start" x="303.5" y="-543.9" font-family="Arial" font-size="14.00" fill="#000000">name </text>
<text text-anchor="start" x="342.399" y="-543.9" font-family="Arial" font-size="14.00" fill="#666666">[varchar(255)]</text>
<polygon fill="none" stroke="#000000" points="296.5,-502.5 296.5,-532.5 476.5,-532.5 476.5,-502.5 296.5,-502.5"/>
<text text-anchor="start" x="303.5" y="-513.9" font-family="Arial" font-size="14.00" fill="#000000">slug </text>
<text text-anchor="start" x="333.0624" y="-513.9" font-family="Arial" font-size="14.00" fill="#666666">[varchar(255)]</text>
<polygon fill="none" stroke="#000000" points="296.5,-472.5 296.5,-502.5 476.5,-502.5 476.5,-472.5 296.5,-472.5"/>
<text text-anchor="start" x="303.5" y="-483.9" font-family="Arial" font-size="14.00" fill="#000000">createdAt </text>
<text text-anchor="start" x="367.2994" y="-483.9" font-family="Arial" font-size="14.00" fill="#666666">[timestamp]</text>
<polygon fill="none" stroke="#000000" points="296.5,-442.5 296.5,-472.5 476.5,-472.5 476.5,-442.5 296.5,-442.5"/>
<text text-anchor="start" x="303.5" y="-453.9" font-family="Arial" font-size="14.00" fill="#000000">updatedAt </text>
<text text-anchor="start" x="371.204" y="-453.9" font-family="Arial" font-size="14.00" fill="#666666">[timestamp]</text>
<polygon fill="none" stroke="#000000" points="296.5,-412.5 296.5,-442.5 476.5,-442.5 476.5,-412.5 296.5,-412.5"/>
<text text-anchor="start" x="303.5" y="-423.9" font-family="Arial" font-size="14.00" fill="#000000">organizationId </text>
<text text-anchor="start" x="395.3064" y="-423.9" font-family="Arial" font-size="14.00" fill="#666666">[int]</text>
<polygon fill="none" stroke="#000000" stroke-width="3" points="295,-411.5 295,-629.5 478,-629.5 478,-411.5 295,-411.5"/>
</g>
<!-- organizations -->
<g id="node4" class="node">
<title>organizations</title>
<polygon fill="#efefef" stroke="transparent" points="262.5,-252.5 262.5,-287.5 510.5,-287.5 510.5,-252.5 262.5,-252.5"/>
<polygon fill="none" stroke="#000000" points="262.5,-252.5 262.5,-287.5 510.5,-287.5 510.5,-252.5 262.5,-252.5"/>
<text text-anchor="start" x="269.2029" y="-265.3" font-family="Arial Bold" font-size="18.00" fill="#000000">organizations</text>
<text text-anchor="start" x="376.2291" y="-265.3" font-family="Arial" font-size="14.00" fill="#000000">    </text>
<text text-anchor="start" x="410.4339" y="-265.3" font-family="Arial" font-size="14.00" fill="#666666">[BASE TABLE]</text>
<polygon fill="none" stroke="#000000" points="262.5,-222.5 262.5,-252.5 510.5,-252.5 510.5,-222.5 262.5,-222.5"/>
<text text-anchor="start" x="269.5" y="-233.9" font-family="Arial" font-size="14.00" fill="#000000">id    </text>
<text text-anchor="start" x="314.594" y="-233.9" font-family="Arial" font-size="14.00" fill="#666666">[int]</text>
<polygon fill="none" stroke="#000000" points="262.5,-192.5 262.5,-222.5 510.5,-222.5 510.5,-192.5 262.5,-192.5"/>
<text text-anchor="start" x="269.5" y="-203.9" font-family="Arial" font-size="14.00" fill="#000000">name    </text>
<text text-anchor="start" x="338.7132" y="-203.9" font-family="Arial" font-size="14.00" fill="#666666">[varchar(255)]</text>
<polygon fill="none" stroke="#000000" points="262.5,-162.5 262.5,-192.5 510.5,-192.5 510.5,-162.5 262.5,-162.5"/>
<text text-anchor="start" x="269.5" y="-173.9" font-family="Arial" font-size="14.00" fill="#000000">uniqueName    </text>
<text text-anchor="start" x="383.0568" y="-173.9" font-family="Arial" font-size="14.00" fill="#666666">[varchar(255)]</text>
<polygon fill="none" stroke="#000000" points="262.5,-132.5 262.5,-162.5 510.5,-162.5 510.5,-132.5 262.5,-132.5"/>
<text text-anchor="start" x="269.5" y="-143.9" font-family="Arial" font-size="14.00" fill="#000000">createdAt    </text>
<text text-anchor="start" x="363.6136" y="-143.9" font-family="Arial" font-size="14.00" fill="#666666">[timestamp]</text>
<polygon fill="none" stroke="#000000" points="262.5,-102.5 262.5,-132.5 510.5,-132.5 510.5,-102.5 262.5,-102.5"/>
<text text-anchor="start" x="269.5" y="-113.9" font-family="Arial" font-size="14.00" fill="#000000">updatedAt    </text>
<text text-anchor="start" x="367.5182" y="-113.9" font-family="Arial" font-size="14.00" fill="#666666">[timestamp]</text>
<polygon fill="none" stroke="#000000" points="262.5,-72.5 262.5,-102.5 510.5,-102.5 510.5,-72.5 262.5,-72.5"/>
<text text-anchor="start" x="269.5" y="-83.9" font-family="Arial" font-size="14.00" fill="#000000">phone    </text>
<text text-anchor="start" x="342.6178" y="-83.9" font-family="Arial" font-size="14.00" fill="#666666">[varchar(255)]</text>
<polygon fill="none" stroke="#000000" points="262.5,-42.5 262.5,-72.5 510.5,-72.5 510.5,-42.5 262.5,-42.5"/>
<text text-anchor="start" x="269.5" y="-53.9" font-family="Arial" font-size="14.00" fill="#000000">address    </text>
<text text-anchor="start" x="353.4958" y="-53.9" font-family="Arial" font-size="14.00" fill="#666666">[varchar(255)]</text>
</g>
<!-- roles&#45;&gt;organizations -->
<g id="edge3" class="edge">
<title>roles:organizationId&#45;&gt;organizations:id</title>
<path fill="none" stroke="#000000" stroke-dasharray="5,2" d="M387.3641,-402.2995C396.8033,-351.042 480.9647,-385.7559 510.5,-331 530.2281,-294.4259 552.0556,-237.5 510.5,-237.5"/>
<polygon fill="#000000" stroke="#000000" points="387.3442,-402.5357 382.0161,-412.1201 386.9221,-407.5178 386.5,-412.5 386.5,-412.5 386.5,-412.5 386.9221,-407.5178 390.9839,-412.8799 387.3442,-402.5357 387.3442,-402.5357"/>
<text text-anchor="start" x="365.2765" y="-422.5" font-family="Arial" font-size="10.00" fill="#000000">1&#45;n</text>
</g>
<!-- role_permissions -->
<g id="node2" class="node">
<title>role_permissions</title>
<polygon fill="#efefef" stroke="transparent" points="43.5,-917.5 43.5,-952.5 320.5,-952.5 320.5,-917.5 43.5,-917.5"/>
<polygon fill="none" stroke="#000000" points="43.5,-917.5 43.5,-952.5 320.5,-952.5 320.5,-917.5 43.5,-917.5"/>
<text text-anchor="start" x="50.2147" y="-930.3" font-family="Arial Bold" font-size="18.00" fill="#000000">role_permissions</text>
<text text-anchor="start" x="186.2173" y="-930.3" font-family="Arial" font-size="14.00" fill="#000000">    </text>
<text text-anchor="start" x="220.4221" y="-930.3" font-family="Arial" font-size="14.00" fill="#666666">[BASE TABLE]</text>
<polygon fill="none" stroke="#000000" points="43.5,-887.5 43.5,-917.5 320.5,-917.5 320.5,-887.5 43.5,-887.5"/>
<text text-anchor="start" x="50.5" y="-898.9" font-family="Arial" font-size="14.00" fill="#000000">id    </text>
<text text-anchor="start" x="95.594" y="-898.9" font-family="Arial" font-size="14.00" fill="#666666">[int]</text>
<polygon fill="none" stroke="#000000" points="43.5,-857.5 43.5,-887.5 320.5,-887.5 320.5,-857.5 43.5,-857.5"/>
<text text-anchor="start" x="50.5" y="-868.9" font-family="Arial" font-size="14.00" fill="#000000">roleId    </text>
<text text-anchor="start" x="119.7104" y="-868.9" font-family="Arial" font-size="14.00" fill="#666666">[int]</text>
<polygon fill="none" stroke="#000000" points="43.5,-827.5 43.5,-857.5 320.5,-857.5 320.5,-827.5 43.5,-827.5"/>
<text text-anchor="start" x="50.5" y="-838.9" font-family="Arial" font-size="14.00" fill="#000000">permissionId    </text>
<text text-anchor="start" x="164.0428" y="-838.9" font-family="Arial" font-size="14.00" fill="#666666">[int]</text>
<polygon fill="none" stroke="#000000" points="43.5,-797.5 43.5,-827.5 320.5,-827.5 320.5,-797.5 43.5,-797.5"/>
<text text-anchor="start" x="50.5" y="-808.9" font-family="Arial" font-size="14.00" fill="#000000">createdAt    </text>
<text text-anchor="start" x="144.6136" y="-808.9" font-family="Arial" font-size="14.00" fill="#666666">[timestamp]</text>
<polygon fill="none" stroke="#000000" points="43.5,-767.5 43.5,-797.5 320.5,-797.5 320.5,-767.5 43.5,-767.5"/>
<text text-anchor="start" x="50.5" y="-778.9" font-family="Arial" font-size="14.00" fill="#000000">updatedAt    </text>
<text text-anchor="start" x="148.5182" y="-778.9" font-family="Arial" font-size="14.00" fill="#666666">[timestamp]</text>
</g>
<!-- role_permissions&#45;&gt;roles -->
<g id="edge1" class="edge">
<title>role_permissions:roleId&#45;&gt;roles:id</title>
<path fill="none" stroke="#000000" stroke-dasharray="5,2" d="M330.543,-871.7149C380.3679,-863.1011 333.9911,-785.3529 320.5,-725 315.035,-700.5523 301.965,-698.4477 296.5,-674 287.1437,-632.1441 253.6111,-577.5 296.5,-577.5"/>
<polygon fill="#000000" stroke="#000000" points="330.4696,-871.7205 320.1492,-868.0137 325.4848,-872.1103 320.5,-872.5 320.5,-872.5 320.5,-872.5 325.4848,-872.1103 320.8508,-876.9863 330.4696,-871.7205 330.4696,-871.7205"/>
<text text-anchor="start" x="299.2765" y="-882.5" font-family="Arial" font-size="10.00" fill="#000000">1&#45;n</text>
</g>
<!-- user_organization_roles -->
<g id="node3" class="node">
<title>user_organization_roles</title>
<polygon fill="#efefef" stroke="transparent" points="424.5,-932.5 424.5,-967.5 757.5,-967.5 757.5,-932.5 424.5,-932.5"/>
<polygon fill="none" stroke="#000000" points="424.5,-932.5 424.5,-967.5 757.5,-967.5 757.5,-932.5 424.5,-932.5"/>
<text text-anchor="start" x="431.195" y="-945.3" font-family="Arial Bold" font-size="18.00" fill="#000000">user_organization_roles</text>
<text text-anchor="start" x="623.237" y="-945.3" font-family="Arial" font-size="14.00" fill="#000000">    </text>
<text text-anchor="start" x="657.4418" y="-945.3" font-family="Arial" font-size="14.00" fill="#666666">[BASE TABLE]</text>
<polygon fill="none" stroke="#000000" points="424.5,-902.5 424.5,-932.5 757.5,-932.5 757.5,-902.5 424.5,-902.5"/>
<text text-anchor="start" x="431.5" y="-913.9" font-family="Arial" font-size="14.00" fill="#000000">id    </text>
<text text-anchor="start" x="476.594" y="-913.9" font-family="Arial" font-size="14.00" fill="#666666">[int]</text>
<polygon fill="none" stroke="#000000" points="424.5,-872.5 424.5,-902.5 757.5,-902.5 757.5,-872.5 424.5,-872.5"/>
<text text-anchor="start" x="431.5" y="-883.9" font-family="Arial" font-size="14.00" fill="#000000">userId    </text>
<text text-anchor="start" x="504.6038" y="-883.9" font-family="Arial" font-size="14.00" fill="#666666">[int]</text>
<polygon fill="none" stroke="#000000" points="424.5,-842.5 424.5,-872.5 757.5,-872.5 757.5,-842.5 424.5,-842.5"/>
<text text-anchor="start" x="431.5" y="-853.9" font-family="Arial" font-size="14.00" fill="#000000">organizationId    </text>
<text text-anchor="start" x="553.6206" y="-853.9" font-family="Arial" font-size="14.00" fill="#666666">[int]</text>
<polygon fill="none" stroke="#000000" points="424.5,-812.5 424.5,-842.5 757.5,-842.5 757.5,-812.5 424.5,-812.5"/>
<text text-anchor="start" x="431.5" y="-823.9" font-family="Arial" font-size="14.00" fill="#000000">roleId    </text>
<text text-anchor="start" x="500.7104" y="-823.9" font-family="Arial" font-size="14.00" fill="#666666">[int]</text>
<polygon fill="none" stroke="#000000" points="424.5,-782.5 424.5,-812.5 757.5,-812.5 757.5,-782.5 424.5,-782.5"/>
<text text-anchor="start" x="431.5" y="-793.9" font-family="Arial" font-size="14.00" fill="#000000">createdAt    </text>
<text text-anchor="start" x="525.6136" y="-793.9" font-family="Arial" font-size="14.00" fill="#666666">[timestamp]</text>
<polygon fill="none" stroke="#000000" points="424.5,-752.5 424.5,-782.5 757.5,-782.5 757.5,-752.5 424.5,-752.5"/>
<text text-anchor="start" x="431.5" y="-763.9" font-family="Arial" font-size="14.00" fill="#000000">updatedAt    </text>
<text text-anchor="start" x="529.5182" y="-763.9" font-family="Arial" font-size="14.00" fill="#666666">[timestamp]</text>
</g>
<!-- user_organization_roles&#45;&gt;roles -->
<g id="edge2" class="edge">
<title>user_organization_roles:roleId&#45;&gt;roles:id</title>
<path fill="none" stroke="#000000" stroke-dasharray="5,2" d="M414.1635,-826.362C376.4112,-817.0626 402.0621,-752.8242 424.5,-710 437.5456,-685.1015 463.4544,-698.8985 476.5,-674 496.405,-636.0099 519.3889,-577.5 476.5,-577.5"/>
<polygon fill="#000000" stroke="#000000" points="414.5601,-826.4056 424.0075,-831.973 419.53,-826.9528 424.5,-827.5 424.5,-827.5 424.5,-827.5 419.53,-826.9528 424.9925,-823.027 414.5601,-826.4056 414.5601,-826.4056"/>
<text text-anchor="start" x="403.2765" y="-837.5" font-family="Arial" font-size="10.00" fill="#000000">n&#45;n</text>
</g>
</g>
</svg>
