<?xml version="1.0" encoding="UTF-8" standalone="no"?>
<!DOCTYPE svg PUBLIC "-//W3C//DTD SVG 1.1//EN"
 "http://www.w3.org/Graphics/SVG/1.1/DTD/svg11.dtd">
<!-- Generated by graphviz version 2.40.1 (20161225.0304)
 -->
<!-- Title: roles Pages: 1 -->
<svg width="808pt" height="652pt"
 viewBox="0.00 0.00 808.00 652.00" xmlns="http://www.w3.org/2000/svg" xmlns:xlink="http://www.w3.org/1999/xlink">
<g id="graph0" class="graph" transform="scale(1 1) rotate(0) translate(4 648)">
<title>roles</title>
<polygon fill="#ffffff" stroke="transparent" points="-4,4 -4,-648 804,-648 804,4 -4,4"/>
<!-- roles -->
<g id="node1" class="node">
<title>roles</title>
<polygon fill="#efefef" stroke="transparent" points="296.5,-225.5 296.5,-260.5 476.5,-260.5 476.5,-225.5 296.5,-225.5"/>
<polygon fill="none" stroke="#000000" points="296.5,-225.5 296.5,-260.5 476.5,-260.5 476.5,-225.5 296.5,-225.5"/>
<text text-anchor="start" x="303.2166" y="-238.3" font-family="Arial Bold" font-size="18.00" fill="#000000">roles</text>
<text text-anchor="start" x="342.2154" y="-238.3" font-family="Arial" font-size="14.00" fill="#000000">    </text>
<text text-anchor="start" x="376.4202" y="-238.3" font-family="Arial" font-size="14.00" fill="#666666">[BASE TABLE]</text>
<polygon fill="none" stroke="#000000" points="296.5,-195.5 296.5,-225.5 476.5,-225.5 476.5,-195.5 296.5,-195.5"/>
<text text-anchor="start" x="303.5" y="-206.9" font-family="Arial" font-size="14.00" fill="#000000">id </text>
<text text-anchor="start" x="318.2798" y="-206.9" font-family="Arial" font-size="14.00" fill="#666666">[int]</text>
<polygon fill="none" stroke="#000000" points="296.5,-165.5 296.5,-195.5 476.5,-195.5 476.5,-165.5 296.5,-165.5"/>
<text text-anchor="start" x="303.5" y="-176.9" font-family="Arial" font-size="14.00" fill="#000000">name </text>
<text text-anchor="start" x="342.399" y="-176.9" font-family="Arial" font-size="14.00" fill="#666666">[varchar(255)]</text>
<polygon fill="none" stroke="#000000" points="296.5,-135.5 296.5,-165.5 476.5,-165.5 476.5,-135.5 296.5,-135.5"/>
<text text-anchor="start" x="303.5" y="-146.9" font-family="Arial" font-size="14.00" fill="#000000">slug </text>
<text text-anchor="start" x="333.0624" y="-146.9" font-family="Arial" font-size="14.00" fill="#666666">[varchar(255)]</text>
<polygon fill="none" stroke="#000000" points="296.5,-105.5 296.5,-135.5 476.5,-135.5 476.5,-105.5 296.5,-105.5"/>
<text text-anchor="start" x="303.5" y="-116.9" font-family="Arial" font-size="14.00" fill="#000000">createdAt </text>
<text text-anchor="start" x="367.2994" y="-116.9" font-family="Arial" font-size="14.00" fill="#666666">[timestamp]</text>
<polygon fill="none" stroke="#000000" points="296.5,-75.5 296.5,-105.5 476.5,-105.5 476.5,-75.5 296.5,-75.5"/>
<text text-anchor="start" x="303.5" y="-86.9" font-family="Arial" font-size="14.00" fill="#000000">updatedAt </text>
<text text-anchor="start" x="371.204" y="-86.9" font-family="Arial" font-size="14.00" fill="#666666">[timestamp]</text>
<polygon fill="none" stroke="#000000" points="296.5,-45.5 296.5,-75.5 476.5,-75.5 476.5,-45.5 296.5,-45.5"/>
<text text-anchor="start" x="303.5" y="-56.9" font-family="Arial" font-size="14.00" fill="#000000">organizationId </text>
<text text-anchor="start" x="395.3064" y="-56.9" font-family="Arial" font-size="14.00" fill="#666666">[int]</text>
<polygon fill="none" stroke="#000000" stroke-width="3" points="295,-44.5 295,-262.5 478,-262.5 478,-44.5 295,-44.5"/>
</g>
<!-- role_permissions -->
<g id="node2" class="node">
<title>role_permissions</title>
<polygon fill="#efefef" stroke="transparent" points="43.5,-550.5 43.5,-585.5 320.5,-585.5 320.5,-550.5 43.5,-550.5"/>
<polygon fill="none" stroke="#000000" points="43.5,-550.5 43.5,-585.5 320.5,-585.5 320.5,-550.5 43.5,-550.5"/>
<text text-anchor="start" x="50.2147" y="-563.3" font-family="Arial Bold" font-size="18.00" fill="#000000">role_permissions</text>
<text text-anchor="start" x="186.2173" y="-563.3" font-family="Arial" font-size="14.00" fill="#000000">    </text>
<text text-anchor="start" x="220.4221" y="-563.3" font-family="Arial" font-size="14.00" fill="#666666">[BASE TABLE]</text>
<polygon fill="none" stroke="#000000" points="43.5,-520.5 43.5,-550.5 320.5,-550.5 320.5,-520.5 43.5,-520.5"/>
<text text-anchor="start" x="50.5" y="-531.9" font-family="Arial" font-size="14.00" fill="#000000">id    </text>
<text text-anchor="start" x="95.594" y="-531.9" font-family="Arial" font-size="14.00" fill="#666666">[int]</text>
<polygon fill="none" stroke="#000000" points="43.5,-490.5 43.5,-520.5 320.5,-520.5 320.5,-490.5 43.5,-490.5"/>
<text text-anchor="start" x="50.5" y="-501.9" font-family="Arial" font-size="14.00" fill="#000000">roleId    </text>
<text text-anchor="start" x="119.7104" y="-501.9" font-family="Arial" font-size="14.00" fill="#666666">[int]</text>
<polygon fill="none" stroke="#000000" points="43.5,-460.5 43.5,-490.5 320.5,-490.5 320.5,-460.5 43.5,-460.5"/>
<text text-anchor="start" x="50.5" y="-471.9" font-family="Arial" font-size="14.00" fill="#000000">permissionId    </text>
<text text-anchor="start" x="164.0428" y="-471.9" font-family="Arial" font-size="14.00" fill="#666666">[int]</text>
<polygon fill="none" stroke="#000000" points="43.5,-430.5 43.5,-460.5 320.5,-460.5 320.5,-430.5 43.5,-430.5"/>
<text text-anchor="start" x="50.5" y="-441.9" font-family="Arial" font-size="14.00" fill="#000000">createdAt    </text>
<text text-anchor="start" x="144.6136" y="-441.9" font-family="Arial" font-size="14.00" fill="#666666">[timestamp]</text>
<polygon fill="none" stroke="#000000" points="43.5,-400.5 43.5,-430.5 320.5,-430.5 320.5,-400.5 43.5,-400.5"/>
<text text-anchor="start" x="50.5" y="-411.9" font-family="Arial" font-size="14.00" fill="#000000">updatedAt    </text>
<text text-anchor="start" x="148.5182" y="-411.9" font-family="Arial" font-size="14.00" fill="#666666">[timestamp]</text>
</g>
<!-- role_permissions&#45;&gt;roles -->
<g id="edge1" class="edge">
<title>role_permissions:roleId&#45;&gt;roles:id</title>
<path fill="none" stroke="#000000" stroke-dasharray="5,2" d="M330.543,-504.7149C380.3679,-496.1011 333.9911,-418.3529 320.5,-358 315.035,-333.5523 301.965,-331.4477 296.5,-307 287.1437,-265.1441 253.6111,-210.5 296.5,-210.5"/>
<polygon fill="#000000" stroke="#000000" points="330.4696,-504.7205 320.1492,-501.0137 325.4848,-505.1103 320.5,-505.5 320.5,-505.5 320.5,-505.5 325.4848,-505.1103 320.8508,-509.9863 330.4696,-504.7205 330.4696,-504.7205"/>
<text text-anchor="start" x="299.2765" y="-515.5" font-family="Arial" font-size="10.00" fill="#000000">1&#45;n</text>
</g>
<!-- user_organization_roles -->
<g id="node3" class="node">
<title>user_organization_roles</title>
<polygon fill="#efefef" stroke="transparent" points="424.5,-565.5 424.5,-600.5 757.5,-600.5 757.5,-565.5 424.5,-565.5"/>
<polygon fill="none" stroke="#000000" points="424.5,-565.5 424.5,-600.5 757.5,-600.5 757.5,-565.5 424.5,-565.5"/>
<text text-anchor="start" x="431.195" y="-578.3" font-family="Arial Bold" font-size="18.00" fill="#000000">user_organization_roles</text>
<text text-anchor="start" x="623.237" y="-578.3" font-family="Arial" font-size="14.00" fill="#000000">    </text>
<text text-anchor="start" x="657.4418" y="-578.3" font-family="Arial" font-size="14.00" fill="#666666">[BASE TABLE]</text>
<polygon fill="none" stroke="#000000" points="424.5,-535.5 424.5,-565.5 757.5,-565.5 757.5,-535.5 424.5,-535.5"/>
<text text-anchor="start" x="431.5" y="-546.9" font-family="Arial" font-size="14.00" fill="#000000">id    </text>
<text text-anchor="start" x="476.594" y="-546.9" font-family="Arial" font-size="14.00" fill="#666666">[int]</text>
<polygon fill="none" stroke="#000000" points="424.5,-505.5 424.5,-535.5 757.5,-535.5 757.5,-505.5 424.5,-505.5"/>
<text text-anchor="start" x="431.5" y="-516.9" font-family="Arial" font-size="14.00" fill="#000000">userId    </text>
<text text-anchor="start" x="504.6038" y="-516.9" font-family="Arial" font-size="14.00" fill="#666666">[int]</text>
<polygon fill="none" stroke="#000000" points="424.5,-475.5 424.5,-505.5 757.5,-505.5 757.5,-475.5 424.5,-475.5"/>
<text text-anchor="start" x="431.5" y="-486.9" font-family="Arial" font-size="14.00" fill="#000000">organizationId    </text>
<text text-anchor="start" x="553.6206" y="-486.9" font-family="Arial" font-size="14.00" fill="#666666">[int]</text>
<polygon fill="none" stroke="#000000" points="424.5,-445.5 424.5,-475.5 757.5,-475.5 757.5,-445.5 424.5,-445.5"/>
<text text-anchor="start" x="431.5" y="-456.9" font-family="Arial" font-size="14.00" fill="#000000">roleId    </text>
<text text-anchor="start" x="500.7104" y="-456.9" font-family="Arial" font-size="14.00" fill="#666666">[int]</text>
<polygon fill="none" stroke="#000000" points="424.5,-415.5 424.5,-445.5 757.5,-445.5 757.5,-415.5 424.5,-415.5"/>
<text text-anchor="start" x="431.5" y="-426.9" font-family="Arial" font-size="14.00" fill="#000000">createdAt    </text>
<text text-anchor="start" x="525.6136" y="-426.9" font-family="Arial" font-size="14.00" fill="#666666">[timestamp]</text>
<polygon fill="none" stroke="#000000" points="424.5,-385.5 424.5,-415.5 757.5,-415.5 757.5,-385.5 424.5,-385.5"/>
<text text-anchor="start" x="431.5" y="-396.9" font-family="Arial" font-size="14.00" fill="#000000">updatedAt    </text>
<text text-anchor="start" x="529.5182" y="-396.9" font-family="Arial" font-size="14.00" fill="#666666">[timestamp]</text>
</g>
<!-- user_organization_roles&#45;&gt;roles -->
<g id="edge2" class="edge">
<title>user_organization_roles:roleId&#45;&gt;roles:id</title>
<path fill="none" stroke="#000000" stroke-dasharray="5,2" d="M414.1635,-459.362C376.4112,-450.0626 402.0621,-385.8242 424.5,-343 437.5456,-318.1015 463.4544,-331.8985 476.5,-307 496.405,-269.0099 519.3889,-210.5 476.5,-210.5"/>
<polygon fill="#000000" stroke="#000000" points="414.5601,-459.4056 424.0075,-464.973 419.53,-459.9528 424.5,-460.5 424.5,-460.5 424.5,-460.5 419.53,-459.9528 424.9925,-456.027 414.5601,-459.4056 414.5601,-459.4056"/>
<text text-anchor="start" x="403.2765" y="-470.5" font-family="Arial" font-size="10.00" fill="#000000">n&#45;n</text>
</g>
</g>
</svg>
