<?xml version="1.0" encoding="UTF-8" standalone="no"?>
<!DOCTYPE svg PUBLIC "-//W3C//DTD SVG 1.1//EN"
 "http://www.w3.org/Graphics/SVG/1.1/DTD/svg11.dtd">
<!-- Generated by graphviz version 2.40.1 (20161225.0304)
 -->
<!-- Title: ramen_db Pages: 1 -->
<svg width="1440pt" height="646pt"
 viewBox="0.00 0.00 1439.50 646.00" xmlns="http://www.w3.org/2000/svg" xmlns:xlink="http://www.w3.org/1999/xlink">
<g id="graph0" class="graph" transform="scale(1 1) rotate(0) translate(4 642)">
<title>ramen_db</title>
<polygon fill="#ffffff" stroke="transparent" points="-4,4 -4,-642 1435.5,-642 1435.5,4 -4,4"/>
<!-- organizations -->
<g id="node1" class="node">
<title>organizations</title>
<polygon fill="#efefef" stroke="transparent" points="66.5,-207.5 66.5,-242.5 314.5,-242.5 314.5,-207.5 66.5,-207.5"/>
<polygon fill="none" stroke="#000000" points="66.5,-207.5 66.5,-242.5 314.5,-242.5 314.5,-207.5 66.5,-207.5"/>
<text text-anchor="start" x="73.2029" y="-220.3" font-family="Arial Bold" font-size="18.00" fill="#000000">organizations</text>
<text text-anchor="start" x="180.2291" y="-220.3" font-family="Arial" font-size="14.00" fill="#000000">    </text>
<text text-anchor="start" x="214.4339" y="-220.3" font-family="Arial" font-size="14.00" fill="#666666">[BASE TABLE]</text>
<polygon fill="none" stroke="#000000" points="66.5,-177.5 66.5,-207.5 314.5,-207.5 314.5,-177.5 66.5,-177.5"/>
<text text-anchor="start" x="73.5" y="-188.9" font-family="Arial" font-size="14.00" fill="#000000">id    </text>
<text text-anchor="start" x="118.594" y="-188.9" font-family="Arial" font-size="14.00" fill="#666666">[int]</text>
<polygon fill="none" stroke="#000000" points="66.5,-147.5 66.5,-177.5 314.5,-177.5 314.5,-147.5 66.5,-147.5"/>
<text text-anchor="start" x="73.5" y="-158.9" font-family="Arial" font-size="14.00" fill="#000000">name    </text>
<text text-anchor="start" x="142.7132" y="-158.9" font-family="Arial" font-size="14.00" fill="#666666">[varchar(255)]</text>
<polygon fill="none" stroke="#000000" points="66.5,-117.5 66.5,-147.5 314.5,-147.5 314.5,-117.5 66.5,-117.5"/>
<text text-anchor="start" x="73.5" y="-128.9" font-family="Arial" font-size="14.00" fill="#000000">uniqueName    </text>
<text text-anchor="start" x="187.0568" y="-128.9" font-family="Arial" font-size="14.00" fill="#666666">[varchar(255)]</text>
<polygon fill="none" stroke="#000000" points="66.5,-87.5 66.5,-117.5 314.5,-117.5 314.5,-87.5 66.5,-87.5"/>
<text text-anchor="start" x="73.5" y="-98.9" font-family="Arial" font-size="14.00" fill="#000000">createdAt    </text>
<text text-anchor="start" x="167.6136" y="-98.9" font-family="Arial" font-size="14.00" fill="#666666">[timestamp]</text>
<polygon fill="none" stroke="#000000" points="66.5,-57.5 66.5,-87.5 314.5,-87.5 314.5,-57.5 66.5,-57.5"/>
<text text-anchor="start" x="73.5" y="-68.9" font-family="Arial" font-size="14.00" fill="#000000">updatedAt    </text>
<text text-anchor="start" x="171.5182" y="-68.9" font-family="Arial" font-size="14.00" fill="#666666">[timestamp]</text>
</g>
<!-- permissions -->
<g id="node2" class="node">
<title>permissions</title>
<polygon fill="#efefef" stroke="transparent" points="1006.5,-207.5 1006.5,-242.5 1388.5,-242.5 1388.5,-207.5 1006.5,-207.5"/>
<polygon fill="none" stroke="#000000" points="1006.5,-207.5 1006.5,-242.5 1388.5,-242.5 1388.5,-207.5 1006.5,-207.5"/>
<text text-anchor="start" x="1085.7172" y="-220.3" font-family="Arial Bold" font-size="18.00" fill="#000000">permissions</text>
<text text-anchor="start" x="1181.7148" y="-220.3" font-family="Arial" font-size="14.00" fill="#000000">    </text>
<text text-anchor="start" x="1215.9196" y="-220.3" font-family="Arial" font-size="14.00" fill="#666666">[BASE TABLE]</text>
<polygon fill="none" stroke="#000000" points="1006.5,-177.5 1006.5,-207.5 1388.5,-207.5 1388.5,-177.5 1006.5,-177.5"/>
<text text-anchor="start" x="1013.5" y="-188.9" font-family="Arial" font-size="14.00" fill="#000000">id    </text>
<text text-anchor="start" x="1058.594" y="-188.9" font-family="Arial" font-size="14.00" fill="#666666">[int]</text>
<polygon fill="none" stroke="#000000" points="1006.5,-147.5 1006.5,-177.5 1388.5,-177.5 1388.5,-147.5 1006.5,-147.5"/>
<text text-anchor="start" x="1013.2194" y="-158.9" font-family="Arial" font-size="14.00" fill="#000000">action    </text>
<text text-anchor="start" x="1084.7692" y="-158.9" font-family="Arial" font-size="14.00" fill="#666666">[enum(&#39;create&#39;,&#39;read&#39;,&#39;update&#39;,&#39;delete&#39;,&#39;manage&#39;)]</text>
<polygon fill="none" stroke="#000000" points="1006.5,-117.5 1006.5,-147.5 1388.5,-147.5 1388.5,-117.5 1006.5,-117.5"/>
<text text-anchor="start" x="1013.5" y="-128.9" font-family="Arial" font-size="14.00" fill="#000000">subject    </text>
<text text-anchor="start" x="1092.0498" y="-128.9" font-family="Arial" font-size="14.00" fill="#666666">[varchar(255)]</text>
<polygon fill="none" stroke="#000000" points="1006.5,-87.5 1006.5,-117.5 1388.5,-117.5 1388.5,-87.5 1006.5,-87.5"/>
<text text-anchor="start" x="1013.5" y="-98.9" font-family="Arial" font-size="14.00" fill="#000000">createdAt    </text>
<text text-anchor="start" x="1107.6136" y="-98.9" font-family="Arial" font-size="14.00" fill="#666666">[timestamp]</text>
<polygon fill="none" stroke="#000000" points="1006.5,-57.5 1006.5,-87.5 1388.5,-87.5 1388.5,-57.5 1006.5,-57.5"/>
<text text-anchor="start" x="1013.5" y="-68.9" font-family="Arial" font-size="14.00" fill="#000000">updatedAt    </text>
<text text-anchor="start" x="1111.5182" y="-68.9" font-family="Arial" font-size="14.00" fill="#666666">[timestamp]</text>
</g>
<!-- role_permissions -->
<g id="node3" class="node">
<title>role_permissions</title>
<polygon fill="#efefef" stroke="transparent" points="967.5,-544.5 967.5,-579.5 1244.5,-579.5 1244.5,-544.5 967.5,-544.5"/>
<polygon fill="none" stroke="#000000" points="967.5,-544.5 967.5,-579.5 1244.5,-579.5 1244.5,-544.5 967.5,-544.5"/>
<text text-anchor="start" x="974.2147" y="-557.3" font-family="Arial Bold" font-size="18.00" fill="#000000">role_permissions</text>
<text text-anchor="start" x="1110.2173" y="-557.3" font-family="Arial" font-size="14.00" fill="#000000">    </text>
<text text-anchor="start" x="1144.4221" y="-557.3" font-family="Arial" font-size="14.00" fill="#666666">[BASE TABLE]</text>
<polygon fill="none" stroke="#000000" points="967.5,-514.5 967.5,-544.5 1244.5,-544.5 1244.5,-514.5 967.5,-514.5"/>
<text text-anchor="start" x="974.5" y="-525.9" font-family="Arial" font-size="14.00" fill="#000000">id    </text>
<text text-anchor="start" x="1019.594" y="-525.9" font-family="Arial" font-size="14.00" fill="#666666">[int]</text>
<polygon fill="none" stroke="#000000" points="967.5,-484.5 967.5,-514.5 1244.5,-514.5 1244.5,-484.5 967.5,-484.5"/>
<text text-anchor="start" x="974.5" y="-495.9" font-family="Arial" font-size="14.00" fill="#000000">roleId    </text>
<text text-anchor="start" x="1043.7104" y="-495.9" font-family="Arial" font-size="14.00" fill="#666666">[int]</text>
<polygon fill="none" stroke="#000000" points="967.5,-454.5 967.5,-484.5 1244.5,-484.5 1244.5,-454.5 967.5,-454.5"/>
<text text-anchor="start" x="974.5" y="-465.9" font-family="Arial" font-size="14.00" fill="#000000">permissionId    </text>
<text text-anchor="start" x="1088.0428" y="-465.9" font-family="Arial" font-size="14.00" fill="#666666">[int]</text>
<polygon fill="none" stroke="#000000" points="967.5,-424.5 967.5,-454.5 1244.5,-454.5 1244.5,-424.5 967.5,-424.5"/>
<text text-anchor="start" x="974.5" y="-435.9" font-family="Arial" font-size="14.00" fill="#000000">createdAt    </text>
<text text-anchor="start" x="1068.6136" y="-435.9" font-family="Arial" font-size="14.00" fill="#666666">[timestamp]</text>
<polygon fill="none" stroke="#000000" points="967.5,-394.5 967.5,-424.5 1244.5,-424.5 1244.5,-394.5 967.5,-394.5"/>
<text text-anchor="start" x="974.5" y="-405.9" font-family="Arial" font-size="14.00" fill="#000000">updatedAt    </text>
<text text-anchor="start" x="1072.5182" y="-405.9" font-family="Arial" font-size="14.00" fill="#666666">[timestamp]</text>
</g>
<!-- role_permissions&#45;&gt;permissions -->
<g id="edge2" class="edge">
<title>role_permissions:permissionId&#45;&gt;permissions:id</title>
<path fill="none" stroke="#000000" stroke-dasharray="5,2" d="M1254.4569,-468.4122C1293.7693,-458.9921 1273.8875,-390.646 1244.5,-352 1178.0565,-264.6235 1072.9435,-373.3765 1006.5,-286 981.3465,-252.9219 964.9444,-192.5 1006.5,-192.5"/>
<polygon fill="#000000" stroke="#000000" points="1254.4408,-468.4138 1244.0112,-465.0266 1249.4704,-468.9569 1244.5,-469.5 1244.5,-469.5 1244.5,-469.5 1249.4704,-468.9569 1244.9888,-473.9734 1254.4408,-468.4138 1254.4408,-468.4138"/>
<text text-anchor="start" x="1223.2765" y="-479.5" font-family="Arial" font-size="10.00" fill="#000000">1&#45;n</text>
</g>
<!-- roles -->
<g id="node4" class="node">
<title>roles</title>
<polygon fill="#efefef" stroke="transparent" points="718.5,-222.5 718.5,-257.5 902.5,-257.5 902.5,-222.5 718.5,-222.5"/>
<polygon fill="none" stroke="#000000" points="718.5,-222.5 718.5,-257.5 902.5,-257.5 902.5,-222.5 718.5,-222.5"/>
<text text-anchor="start" x="727.2166" y="-235.3" font-family="Arial Bold" font-size="18.00" fill="#000000">roles</text>
<text text-anchor="start" x="766.2154" y="-235.3" font-family="Arial" font-size="14.00" fill="#000000">    </text>
<text text-anchor="start" x="800.4202" y="-235.3" font-family="Arial" font-size="14.00" fill="#666666">[BASE TABLE]</text>
<polygon fill="none" stroke="#000000" points="718.5,-192.5 718.5,-222.5 902.5,-222.5 902.5,-192.5 718.5,-192.5"/>
<text text-anchor="start" x="725.5" y="-203.9" font-family="Arial" font-size="14.00" fill="#000000">id    </text>
<text text-anchor="start" x="770.594" y="-203.9" font-family="Arial" font-size="14.00" fill="#666666">[int]</text>
<polygon fill="none" stroke="#000000" points="718.5,-162.5 718.5,-192.5 902.5,-192.5 902.5,-162.5 718.5,-162.5"/>
<text text-anchor="start" x="725.5" y="-173.9" font-family="Arial" font-size="14.00" fill="#000000">name    </text>
<text text-anchor="start" x="794.7132" y="-173.9" font-family="Arial" font-size="14.00" fill="#666666">[varchar(255)]</text>
<polygon fill="none" stroke="#000000" points="718.5,-132.5 718.5,-162.5 902.5,-162.5 902.5,-132.5 718.5,-132.5"/>
<text text-anchor="start" x="725.5" y="-143.9" font-family="Arial" font-size="14.00" fill="#000000">slug    </text>
<text text-anchor="start" x="785.3766" y="-143.9" font-family="Arial" font-size="14.00" fill="#666666">[varchar(255)]</text>
<polygon fill="none" stroke="#000000" points="718.5,-102.5 718.5,-132.5 902.5,-132.5 902.5,-102.5 718.5,-102.5"/>
<text text-anchor="start" x="725.5" y="-113.9" font-family="Arial" font-size="14.00" fill="#000000">createdAt    </text>
<text text-anchor="start" x="819.6136" y="-113.9" font-family="Arial" font-size="14.00" fill="#666666">[timestamp]</text>
<polygon fill="none" stroke="#000000" points="718.5,-72.5 718.5,-102.5 902.5,-102.5 902.5,-72.5 718.5,-72.5"/>
<text text-anchor="start" x="725.3219" y="-83.9" font-family="Arial" font-size="14.00" fill="#000000">updatedAt    </text>
<text text-anchor="start" x="823.3401" y="-83.9" font-family="Arial" font-size="14.00" fill="#666666">[timestamp]</text>
<polygon fill="none" stroke="#000000" points="718.5,-42.5 718.5,-72.5 902.5,-72.5 902.5,-42.5 718.5,-42.5"/>
<text text-anchor="start" x="725.5" y="-53.9" font-family="Arial" font-size="14.00" fill="#000000">organizationId    </text>
<text text-anchor="start" x="847.6206" y="-53.9" font-family="Arial" font-size="14.00" fill="#666666">[int]</text>
</g>
<!-- role_permissions&#45;&gt;roles -->
<g id="edge1" class="edge">
<title>role_permissions:roleId&#45;&gt;roles:id</title>
<path fill="none" stroke="#000000" stroke-dasharray="5,2" d="M957.3288,-498.857C845.2833,-483.7496 1031.8188,-207.5 902.5,-207.5"/>
<polygon fill="#000000" stroke="#000000" points="957.5199,-498.869 967.216,-503.991 962.51,-499.1845 967.5,-499.5 967.5,-499.5 967.5,-499.5 962.51,-499.1845 967.784,-495.009 957.5199,-498.869 957.5199,-498.869"/>
<text text-anchor="start" x="946.2765" y="-509.5" font-family="Arial" font-size="10.00" fill="#000000">1&#45;n</text>
</g>
<!-- user_organization_roles -->
<g id="node5" class="node">
<title>user_organization_roles</title>
<polygon fill="#efefef" stroke="transparent" points="440.5,-559.5 440.5,-594.5 773.5,-594.5 773.5,-559.5 440.5,-559.5"/>
<polygon fill="none" stroke="#000000" points="440.5,-559.5 440.5,-594.5 773.5,-594.5 773.5,-559.5 440.5,-559.5"/>
<text text-anchor="start" x="447.195" y="-572.3" font-family="Arial Bold" font-size="18.00" fill="#000000">user_organization_roles</text>
<text text-anchor="start" x="639.237" y="-572.3" font-family="Arial" font-size="14.00" fill="#000000">    </text>
<text text-anchor="start" x="673.4418" y="-572.3" font-family="Arial" font-size="14.00" fill="#666666">[BASE TABLE]</text>
<polygon fill="none" stroke="#000000" points="440.5,-529.5 440.5,-559.5 773.5,-559.5 773.5,-529.5 440.5,-529.5"/>
<text text-anchor="start" x="447.5" y="-540.9" font-family="Arial" font-size="14.00" fill="#000000">id    </text>
<text text-anchor="start" x="492.594" y="-540.9" font-family="Arial" font-size="14.00" fill="#666666">[int]</text>
<polygon fill="none" stroke="#000000" points="440.5,-499.5 440.5,-529.5 773.5,-529.5 773.5,-499.5 440.5,-499.5"/>
<text text-anchor="start" x="447.5" y="-510.9" font-family="Arial" font-size="14.00" fill="#000000">userId    </text>
<text text-anchor="start" x="520.6038" y="-510.9" font-family="Arial" font-size="14.00" fill="#666666">[int]</text>
<polygon fill="none" stroke="#000000" points="440.5,-469.5 440.5,-499.5 773.5,-499.5 773.5,-469.5 440.5,-469.5"/>
<text text-anchor="start" x="447.5" y="-480.9" font-family="Arial" font-size="14.00" fill="#000000">organizationId    </text>
<text text-anchor="start" x="569.6206" y="-480.9" font-family="Arial" font-size="14.00" fill="#666666">[int]</text>
<polygon fill="none" stroke="#000000" points="440.5,-439.5 440.5,-469.5 773.5,-469.5 773.5,-439.5 440.5,-439.5"/>
<text text-anchor="start" x="447.5" y="-450.9" font-family="Arial" font-size="14.00" fill="#000000">roleId    </text>
<text text-anchor="start" x="516.7104" y="-450.9" font-family="Arial" font-size="14.00" fill="#666666">[int]</text>
<polygon fill="none" stroke="#000000" points="440.5,-409.5 440.5,-439.5 773.5,-439.5 773.5,-409.5 440.5,-409.5"/>
<text text-anchor="start" x="447.5" y="-420.9" font-family="Arial" font-size="14.00" fill="#000000">createdAt    </text>
<text text-anchor="start" x="541.6136" y="-420.9" font-family="Arial" font-size="14.00" fill="#666666">[timestamp]</text>
<polygon fill="none" stroke="#000000" points="440.5,-379.5 440.5,-409.5 773.5,-409.5 773.5,-379.5 440.5,-379.5"/>
<text text-anchor="start" x="447.5" y="-390.9" font-family="Arial" font-size="14.00" fill="#000000">updatedAt    </text>
<text text-anchor="start" x="545.5182" y="-390.9" font-family="Arial" font-size="14.00" fill="#666666">[timestamp]</text>
</g>
<!-- user_organization_roles&#45;&gt;organizations -->
<g id="edge3" class="edge">
<title>user_organization_roles:organizationId&#45;&gt;organizations:id</title>
<path fill="none" stroke="#000000" stroke-dasharray="5,2" d="M430.4175,-483.8116C375.4939,-475.6604 415.3977,-396.7983 387.5,-337 379.6687,-320.2137 375.1766,-317.3654 366.5,-301 341.4517,-253.755 367.9744,-192.5 314.5,-192.5"/>
<polygon fill="#000000" stroke="#000000" points="430.5232,-483.8187 440.1934,-488.9895 435.5116,-484.1594 440.5,-484.5 440.5,-484.5 440.5,-484.5 435.5116,-484.1594 440.8066,-480.0105 430.5232,-483.8187 430.5232,-483.8187"/>
<text text-anchor="start" x="419.2765" y="-494.5" font-family="Arial" font-size="10.00" fill="#000000">1&#45;n</text>
</g>
<!-- user_organization_roles&#45;&gt;roles -->
<g id="edge5" class="edge">
<title>user_organization_roles:roleId&#45;&gt;roles:id</title>
<path fill="none" stroke="#000000" stroke-dasharray="5,2" d="M783.8456,-453.3572C821.6711,-444.0187 796.4923,-379.5291 773.5,-337 759.606,-311.3 732.394,-326.7 718.5,-301 698.7373,-264.4446 676.9444,-207.5 718.5,-207.5"/>
<polygon fill="#000000" stroke="#000000" points="783.4395,-453.4019 773.0059,-450.0272 778.4698,-453.951 773.5,-454.5 773.5,-454.5 773.5,-454.5 778.4698,-453.951 773.9941,-458.9728 783.4395,-453.4019 783.4395,-453.4019"/>
<text text-anchor="start" x="752.2765" y="-464.5" font-family="Arial" font-size="10.00" fill="#000000">n&#45;n</text>
</g>
<!-- users -->
<g id="node7" class="node">
<title>users</title>
<polygon fill="#efefef" stroke="transparent" points="419.5,-222.5 419.5,-257.5 614.5,-257.5 614.5,-222.5 419.5,-222.5"/>
<polygon fill="none" stroke="#000000" points="419.5,-222.5 419.5,-257.5 614.5,-257.5 614.5,-222.5 419.5,-222.5"/>
<text text-anchor="start" x="431.2137" y="-235.3" font-family="Arial Bold" font-size="18.00" fill="#000000">users</text>
<text text-anchor="start" x="475.2183" y="-235.3" font-family="Arial" font-size="14.00" fill="#000000">    </text>
<text text-anchor="start" x="509.4231" y="-235.3" font-family="Arial" font-size="14.00" fill="#666666">[BASE TABLE]</text>
<polygon fill="none" stroke="#000000" points="419.5,-192.5 419.5,-222.5 614.5,-222.5 614.5,-192.5 419.5,-192.5"/>
<text text-anchor="start" x="426.5" y="-203.9" font-family="Arial" font-size="14.00" fill="#000000">id    </text>
<text text-anchor="start" x="471.594" y="-203.9" font-family="Arial" font-size="14.00" fill="#666666">[int]</text>
<polygon fill="none" stroke="#000000" points="419.5,-162.5 419.5,-192.5 614.5,-192.5 614.5,-162.5 419.5,-162.5"/>
<text text-anchor="start" x="426.5" y="-173.9" font-family="Arial" font-size="14.00" fill="#000000">name    </text>
<text text-anchor="start" x="495.7132" y="-173.9" font-family="Arial" font-size="14.00" fill="#666666">[varchar(255)]</text>
<polygon fill="none" stroke="#000000" points="419.5,-132.5 419.5,-162.5 614.5,-162.5 614.5,-132.5 419.5,-132.5"/>
<text text-anchor="start" x="426.5" y="-143.9" font-family="Arial" font-size="14.00" fill="#000000">email    </text>
<text text-anchor="start" x="494.1438" y="-143.9" font-family="Arial" font-size="14.00" fill="#666666">[varchar(255)]</text>
<polygon fill="none" stroke="#000000" points="419.5,-102.5 419.5,-132.5 614.5,-132.5 614.5,-102.5 419.5,-102.5"/>
<text text-anchor="start" x="426.3892" y="-113.9" font-family="Arial" font-size="14.00" fill="#000000">password    </text>
<text text-anchor="start" x="520.4916" y="-113.9" font-family="Arial" font-size="14.00" fill="#666666">[varchar(255)]</text>
<polygon fill="none" stroke="#000000" points="419.5,-72.5 419.5,-102.5 614.5,-102.5 614.5,-72.5 419.5,-72.5"/>
<text text-anchor="start" x="426.5" y="-83.9" font-family="Arial" font-size="14.00" fill="#000000">createdAt    </text>
<text text-anchor="start" x="520.6136" y="-83.9" font-family="Arial" font-size="14.00" fill="#666666">[timestamp]</text>
<polygon fill="none" stroke="#000000" points="419.5,-42.5 419.5,-72.5 614.5,-72.5 614.5,-42.5 419.5,-42.5"/>
<text text-anchor="start" x="426.5" y="-53.9" font-family="Arial" font-size="14.00" fill="#000000">updatedAt    </text>
<text text-anchor="start" x="524.5182" y="-53.9" font-family="Arial" font-size="14.00" fill="#666666">[timestamp]</text>
</g>
<!-- user_organization_roles&#45;&gt;users -->
<g id="edge4" class="edge">
<title>user_organization_roles:userId&#45;&gt;users:id</title>
<path fill="none" stroke="#000000" stroke-dasharray="5,2" d="M430.5142,-513.8113C364.2653,-504.1601 392.9253,-395.4254 440.5,-337 490.3643,-275.7628 564.6357,-362.2372 614.5,-301 640.7392,-268.7763 656.0556,-207.5 614.5,-207.5"/>
<polygon fill="#000000" stroke="#000000" points="430.5237,-513.8119 440.1903,-518.9893 435.5118,-514.1559 440.5,-514.5 440.5,-514.5 440.5,-514.5 435.5118,-514.1559 440.8097,-510.0107 430.5237,-513.8119 430.5237,-513.8119"/>
<text text-anchor="start" x="419.2765" y="-524.5" font-family="Arial" font-size="10.00" fill="#000000">1&#45;n</text>
</g>
<!-- user_organizations -->
<g id="node6" class="node">
<title>user_organizations</title>
<polygon fill="#efefef" stroke="transparent" points="43.5,-544.5 43.5,-579.5 336.5,-579.5 336.5,-544.5 43.5,-544.5"/>
<polygon fill="none" stroke="#000000" points="43.5,-544.5 43.5,-579.5 336.5,-579.5 336.5,-544.5 43.5,-544.5"/>
<text text-anchor="start" x="50.1975" y="-557.3" font-family="Arial Bold" font-size="18.00" fill="#000000">user_organizations</text>
<text text-anchor="start" x="202.2345" y="-557.3" font-family="Arial" font-size="14.00" fill="#000000">    </text>
<text text-anchor="start" x="236.4393" y="-557.3" font-family="Arial" font-size="14.00" fill="#666666">[BASE TABLE]</text>
<polygon fill="none" stroke="#000000" points="43.5,-514.5 43.5,-544.5 336.5,-544.5 336.5,-514.5 43.5,-514.5"/>
<text text-anchor="start" x="50.5" y="-525.9" font-family="Arial" font-size="14.00" fill="#000000">id    </text>
<text text-anchor="start" x="95.594" y="-525.9" font-family="Arial" font-size="14.00" fill="#666666">[int]</text>
<polygon fill="none" stroke="#000000" points="43.5,-484.5 43.5,-514.5 336.5,-514.5 336.5,-484.5 43.5,-484.5"/>
<text text-anchor="start" x="50.5" y="-495.9" font-family="Arial" font-size="14.00" fill="#000000">userId    </text>
<text text-anchor="start" x="123.6038" y="-495.9" font-family="Arial" font-size="14.00" fill="#666666">[int]</text>
<polygon fill="none" stroke="#000000" points="43.5,-454.5 43.5,-484.5 336.5,-484.5 336.5,-454.5 43.5,-454.5"/>
<text text-anchor="start" x="50.5" y="-465.9" font-family="Arial" font-size="14.00" fill="#000000">organizationId    </text>
<text text-anchor="start" x="172.6206" y="-465.9" font-family="Arial" font-size="14.00" fill="#666666">[int]</text>
<polygon fill="none" stroke="#000000" points="43.5,-424.5 43.5,-454.5 336.5,-454.5 336.5,-424.5 43.5,-424.5"/>
<text text-anchor="start" x="50.5" y="-435.9" font-family="Arial" font-size="14.00" fill="#000000">createdAt    </text>
<text text-anchor="start" x="144.6136" y="-435.9" font-family="Arial" font-size="14.00" fill="#666666">[timestamp]</text>
<polygon fill="none" stroke="#000000" points="43.5,-394.5 43.5,-424.5 336.5,-424.5 336.5,-394.5 43.5,-394.5"/>
<text text-anchor="start" x="50.5" y="-405.9" font-family="Arial" font-size="14.00" fill="#000000">updatedAt    </text>
<text text-anchor="start" x="148.5182" y="-405.9" font-family="Arial" font-size="14.00" fill="#666666">[timestamp]</text>
</g>
<!-- user_organizations&#45;&gt;organizations -->
<g id="edge6" class="edge">
<title>user_organizations:organizationId&#45;&gt;organizations:id</title>
<path fill="none" stroke="#000000" stroke-dasharray="5,2" d="M346.4656,-468.4054C385.8524,-458.9278 366.4786,-390.1893 336.5,-352 260.2215,-254.8298 142.7785,-383.1702 66.5,-286 40.8405,-253.3127 24.9444,-192.5 66.5,-192.5"/>
<polygon fill="#000000" stroke="#000000" points="346.4402,-468.4081 336.0086,-465.0269 341.4701,-468.954 336.5,-469.5 336.5,-469.5 336.5,-469.5 341.4701,-468.954 336.9914,-473.9731 346.4402,-468.4081 346.4402,-468.4081"/>
<text text-anchor="start" x="315.2765" y="-479.5" font-family="Arial" font-size="10.00" fill="#000000">1&#45;n</text>
</g>
<!-- user_organizations&#45;&gt;users -->
<g id="edge7" class="edge">
<title>user_organizations:userId&#45;&gt;users:id</title>
<path fill="none" stroke="#000000" stroke-dasharray="5,2" d="M346.5355,-496.9756C398.6378,-468.4358 355.7298,-207.5 419.5,-207.5"/>
<polygon fill="#000000" stroke="#000000" points="346.1979,-497.0605 335.4022,-495.1359 341.3489,-498.2802 336.5,-499.5 336.5,-499.5 336.5,-499.5 341.3489,-498.2802 337.5978,-503.8641 346.1979,-497.0605 346.1979,-497.0605"/>
<text text-anchor="start" x="315.2765" y="-509.5" font-family="Arial" font-size="10.00" fill="#000000">1&#45;n</text>
</g>
</g>
</svg>
