<?xml version="1.0" encoding="UTF-8" standalone="no"?>
<!DOCTYPE svg PUBLIC "-//W3C//DTD SVG 1.1//EN"
 "http://www.w3.org/Graphics/SVG/1.1/DTD/svg11.dtd">
<!-- Generated by graphviz version 2.40.1 (20161225.0304)
 -->
<!-- Title: ramen_db Pages: 1 -->
<svg width="1319pt" height="953pt"
 viewBox="0.00 0.00 1318.50 953.00" xmlns="http://www.w3.org/2000/svg" xmlns:xlink="http://www.w3.org/1999/xlink">
<g id="graph0" class="graph" transform="scale(1 1) rotate(0) translate(4 949)">
<title>ramen_db</title>
<polygon fill="#ffffff" stroke="transparent" points="-4,4 -4,-949 1314.5,-949 1314.5,4 -4,4"/>
<!-- organizations -->
<g id="node1" class="node">
<title>organizations</title>
<polygon fill="#efefef" stroke="transparent" points="660,-192.5 660,-227.5 908,-227.5 908,-192.5 660,-192.5"/>
<polygon fill="none" stroke="#000000" points="660,-192.5 660,-227.5 908,-227.5 908,-192.5 660,-192.5"/>
<text text-anchor="start" x="666.7029" y="-205.3" font-family="Arial Bold" font-size="18.00" fill="#000000">organizations</text>
<text text-anchor="start" x="773.7291" y="-205.3" font-family="Arial" font-size="14.00" fill="#000000">    </text>
<text text-anchor="start" x="807.9339" y="-205.3" font-family="Arial" font-size="14.00" fill="#666666">[BASE TABLE]</text>
<polygon fill="none" stroke="#000000" points="660,-162.5 660,-192.5 908,-192.5 908,-162.5 660,-162.5"/>
<text text-anchor="start" x="667" y="-173.9" font-family="Arial" font-size="14.00" fill="#000000">id    </text>
<text text-anchor="start" x="712.094" y="-173.9" font-family="Arial" font-size="14.00" fill="#666666">[int]</text>
<polygon fill="none" stroke="#000000" points="660,-132.5 660,-162.5 908,-162.5 908,-132.5 660,-132.5"/>
<text text-anchor="start" x="667" y="-143.9" font-family="Arial" font-size="14.00" fill="#000000">name    </text>
<text text-anchor="start" x="736.2132" y="-143.9" font-family="Arial" font-size="14.00" fill="#666666">[varchar(255)]</text>
<polygon fill="none" stroke="#000000" points="660,-102.5 660,-132.5 908,-132.5 908,-102.5 660,-102.5"/>
<text text-anchor="start" x="667" y="-113.9" font-family="Arial" font-size="14.00" fill="#000000">uniqueName    </text>
<text text-anchor="start" x="780.5568" y="-113.9" font-family="Arial" font-size="14.00" fill="#666666">[varchar(255)]</text>
<polygon fill="none" stroke="#000000" points="660,-72.5 660,-102.5 908,-102.5 908,-72.5 660,-72.5"/>
<text text-anchor="start" x="667" y="-83.9" font-family="Arial" font-size="14.00" fill="#000000">createdAt    </text>
<text text-anchor="start" x="761.1136" y="-83.9" font-family="Arial" font-size="14.00" fill="#666666">[timestamp]</text>
<polygon fill="none" stroke="#000000" points="660,-42.5 660,-72.5 908,-72.5 908,-42.5 660,-42.5"/>
<text text-anchor="start" x="667" y="-53.9" font-family="Arial" font-size="14.00" fill="#000000">updatedAt    </text>
<text text-anchor="start" x="765.0182" y="-53.9" font-family="Arial" font-size="14.00" fill="#666666">[timestamp]</text>
</g>
<!-- permissions -->
<g id="node2" class="node">
<title>permissions</title>
<polygon fill="#efefef" stroke="transparent" points="43,-514.5 43,-549.5 425,-549.5 425,-514.5 43,-514.5"/>
<polygon fill="none" stroke="#000000" points="43,-514.5 43,-549.5 425,-549.5 425,-514.5 43,-514.5"/>
<text text-anchor="start" x="122.2172" y="-527.3" font-family="Arial Bold" font-size="18.00" fill="#000000">permissions</text>
<text text-anchor="start" x="218.2148" y="-527.3" font-family="Arial" font-size="14.00" fill="#000000">    </text>
<text text-anchor="start" x="252.4196" y="-527.3" font-family="Arial" font-size="14.00" fill="#666666">[BASE TABLE]</text>
<polygon fill="none" stroke="#000000" points="43,-484.5 43,-514.5 425,-514.5 425,-484.5 43,-484.5"/>
<text text-anchor="start" x="50" y="-495.9" font-family="Arial" font-size="14.00" fill="#000000">id    </text>
<text text-anchor="start" x="95.094" y="-495.9" font-family="Arial" font-size="14.00" fill="#666666">[int]</text>
<polygon fill="none" stroke="#000000" points="43,-454.5 43,-484.5 425,-484.5 425,-454.5 43,-454.5"/>
<text text-anchor="start" x="49.7194" y="-465.9" font-family="Arial" font-size="14.00" fill="#000000">action    </text>
<text text-anchor="start" x="121.2692" y="-465.9" font-family="Arial" font-size="14.00" fill="#666666">[enum(&#39;create&#39;,&#39;read&#39;,&#39;update&#39;,&#39;delete&#39;,&#39;manage&#39;)]</text>
<polygon fill="none" stroke="#000000" points="43,-424.5 43,-454.5 425,-454.5 425,-424.5 43,-424.5"/>
<text text-anchor="start" x="50" y="-435.9" font-family="Arial" font-size="14.00" fill="#000000">subject    </text>
<text text-anchor="start" x="128.5498" y="-435.9" font-family="Arial" font-size="14.00" fill="#666666">[varchar(255)]</text>
<polygon fill="none" stroke="#000000" points="43,-394.5 43,-424.5 425,-424.5 425,-394.5 43,-394.5"/>
<text text-anchor="start" x="50" y="-405.9" font-family="Arial" font-size="14.00" fill="#000000">createdAt    </text>
<text text-anchor="start" x="144.1136" y="-405.9" font-family="Arial" font-size="14.00" fill="#666666">[timestamp]</text>
<polygon fill="none" stroke="#000000" points="43,-364.5 43,-394.5 425,-394.5 425,-364.5 43,-364.5"/>
<text text-anchor="start" x="50" y="-375.9" font-family="Arial" font-size="14.00" fill="#000000">updatedAt    </text>
<text text-anchor="start" x="148.0182" y="-375.9" font-family="Arial" font-size="14.00" fill="#666666">[timestamp]</text>
</g>
<!-- role_permissions -->
<g id="node3" class="node">
<title>role_permissions</title>
<polygon fill="#efefef" stroke="transparent" points="126,-851.5 126,-886.5 403,-886.5 403,-851.5 126,-851.5"/>
<polygon fill="none" stroke="#000000" points="126,-851.5 126,-886.5 403,-886.5 403,-851.5 126,-851.5"/>
<text text-anchor="start" x="132.7147" y="-864.3" font-family="Arial Bold" font-size="18.00" fill="#000000">role_permissions</text>
<text text-anchor="start" x="268.7173" y="-864.3" font-family="Arial" font-size="14.00" fill="#000000">    </text>
<text text-anchor="start" x="302.9221" y="-864.3" font-family="Arial" font-size="14.00" fill="#666666">[BASE TABLE]</text>
<polygon fill="none" stroke="#000000" points="126,-821.5 126,-851.5 403,-851.5 403,-821.5 126,-821.5"/>
<text text-anchor="start" x="133" y="-832.9" font-family="Arial" font-size="14.00" fill="#000000">id    </text>
<text text-anchor="start" x="178.094" y="-832.9" font-family="Arial" font-size="14.00" fill="#666666">[int]</text>
<polygon fill="none" stroke="#000000" points="126,-791.5 126,-821.5 403,-821.5 403,-791.5 126,-791.5"/>
<text text-anchor="start" x="133" y="-802.9" font-family="Arial" font-size="14.00" fill="#000000">roleId    </text>
<text text-anchor="start" x="202.2104" y="-802.9" font-family="Arial" font-size="14.00" fill="#666666">[int]</text>
<polygon fill="none" stroke="#000000" points="126,-761.5 126,-791.5 403,-791.5 403,-761.5 126,-761.5"/>
<text text-anchor="start" x="133" y="-772.9" font-family="Arial" font-size="14.00" fill="#000000">permissionId    </text>
<text text-anchor="start" x="246.5428" y="-772.9" font-family="Arial" font-size="14.00" fill="#666666">[int]</text>
<polygon fill="none" stroke="#000000" points="126,-731.5 126,-761.5 403,-761.5 403,-731.5 126,-731.5"/>
<text text-anchor="start" x="133" y="-742.9" font-family="Arial" font-size="14.00" fill="#000000">createdAt    </text>
<text text-anchor="start" x="227.1136" y="-742.9" font-family="Arial" font-size="14.00" fill="#666666">[timestamp]</text>
<polygon fill="none" stroke="#000000" points="126,-701.5 126,-731.5 403,-731.5 403,-701.5 126,-701.5"/>
<text text-anchor="start" x="133" y="-712.9" font-family="Arial" font-size="14.00" fill="#000000">updatedAt    </text>
<text text-anchor="start" x="231.0182" y="-712.9" font-family="Arial" font-size="14.00" fill="#666666">[timestamp]</text>
</g>
<!-- role_permissions&#45;&gt;permissions -->
<g id="edge2" class="edge">
<title>role_permissions:permissionId&#45;&gt;permissions:id</title>
<path fill="none" stroke="#000000" stroke-dasharray="5,2" d="M116.028,-775.4004C76.5875,-765.8801 95.5939,-696.8498 126,-659 211.2291,-552.9061 339.7709,-699.0939 425,-593 451.0254,-560.6034 466.5556,-499.5 425,-499.5"/>
<polygon fill="#000000" stroke="#000000" points="116.0603,-775.4038 125.5067,-780.9729 121.0301,-775.9519 126,-776.5 126,-776.5 126,-776.5 121.0301,-775.9519 126.4933,-772.0271 116.0603,-775.4038 116.0603,-775.4038"/>
<text text-anchor="start" x="104.7765" y="-786.5" font-family="Arial" font-size="10.00" fill="#000000">1&#45;n</text>
</g>
<!-- roles -->
<g id="node4" class="node">
<title>roles</title>
<polygon fill="#efefef" stroke="transparent" points="529,-529.5 529,-564.5 713,-564.5 713,-529.5 529,-529.5"/>
<polygon fill="none" stroke="#000000" points="529,-529.5 529,-564.5 713,-564.5 713,-529.5 529,-529.5"/>
<text text-anchor="start" x="537.7166" y="-542.3" font-family="Arial Bold" font-size="18.00" fill="#000000">roles</text>
<text text-anchor="start" x="576.7154" y="-542.3" font-family="Arial" font-size="14.00" fill="#000000">    </text>
<text text-anchor="start" x="610.9202" y="-542.3" font-family="Arial" font-size="14.00" fill="#666666">[BASE TABLE]</text>
<polygon fill="none" stroke="#000000" points="529,-499.5 529,-529.5 713,-529.5 713,-499.5 529,-499.5"/>
<text text-anchor="start" x="536" y="-510.9" font-family="Arial" font-size="14.00" fill="#000000">id    </text>
<text text-anchor="start" x="581.094" y="-510.9" font-family="Arial" font-size="14.00" fill="#666666">[int]</text>
<polygon fill="none" stroke="#000000" points="529,-469.5 529,-499.5 713,-499.5 713,-469.5 529,-469.5"/>
<text text-anchor="start" x="536" y="-480.9" font-family="Arial" font-size="14.00" fill="#000000">name    </text>
<text text-anchor="start" x="605.2132" y="-480.9" font-family="Arial" font-size="14.00" fill="#666666">[varchar(255)]</text>
<polygon fill="none" stroke="#000000" points="529,-439.5 529,-469.5 713,-469.5 713,-439.5 529,-439.5"/>
<text text-anchor="start" x="536" y="-450.9" font-family="Arial" font-size="14.00" fill="#000000">slug    </text>
<text text-anchor="start" x="595.8766" y="-450.9" font-family="Arial" font-size="14.00" fill="#666666">[varchar(255)]</text>
<polygon fill="none" stroke="#000000" points="529,-409.5 529,-439.5 713,-439.5 713,-409.5 529,-409.5"/>
<text text-anchor="start" x="536" y="-420.9" font-family="Arial" font-size="14.00" fill="#000000">createdAt    </text>
<text text-anchor="start" x="630.1136" y="-420.9" font-family="Arial" font-size="14.00" fill="#666666">[timestamp]</text>
<polygon fill="none" stroke="#000000" points="529,-379.5 529,-409.5 713,-409.5 713,-379.5 529,-379.5"/>
<text text-anchor="start" x="535.8219" y="-390.9" font-family="Arial" font-size="14.00" fill="#000000">updatedAt    </text>
<text text-anchor="start" x="633.8401" y="-390.9" font-family="Arial" font-size="14.00" fill="#666666">[timestamp]</text>
<polygon fill="none" stroke="#000000" points="529,-349.5 529,-379.5 713,-379.5 713,-349.5 529,-349.5"/>
<text text-anchor="start" x="536" y="-360.9" font-family="Arial" font-size="14.00" fill="#000000">organizationId    </text>
<text text-anchor="start" x="658.1206" y="-360.9" font-family="Arial" font-size="14.00" fill="#666666">[int]</text>
</g>
<!-- role_permissions&#45;&gt;roles -->
<g id="edge1" class="edge">
<title>role_permissions:roleId&#45;&gt;roles:id</title>
<path fill="none" stroke="#000000" stroke-dasharray="5,2" d="M411.6289,-801.4318C446.8591,-762.6572 496.4245,-514.5 529,-514.5"/>
<polygon fill="#000000" stroke="#000000" points="411.6227,-801.4354 400.7209,-802.6198 407.3113,-803.9677 403,-806.5 403,-806.5 403,-806.5 407.3113,-803.9677 405.2791,-810.3802 411.6227,-801.4354 411.6227,-801.4354"/>
<text text-anchor="start" x="381.7765" y="-816.5" font-family="Arial" font-size="10.00" fill="#000000">1&#45;n</text>
</g>
<!-- roles&#45;&gt;organizations -->
<g id="edge3" class="edge">
<title>roles:organizationId&#45;&gt;organizations:id</title>
<path fill="none" stroke="#000000" stroke-dasharray="5,2" d="M722.9146,-361.6455C733.9307,-352.8618 722.9052,-325.7021 713,-307 699.6723,-281.8358 673.3277,-296.1642 660,-271 640.5505,-234.277 618.4444,-177.5 660,-177.5"/>
<polygon fill="#000000" stroke="#000000" points="722.6097,-361.7332 711.755,-360.1757 717.8048,-363.1166 713,-364.5 713,-364.5 713,-364.5 717.8048,-363.1166 714.245,-368.8243 722.6097,-361.7332 722.6097,-361.7332"/>
<text text-anchor="start" x="691.7765" y="-374.5" font-family="Arial" font-size="10.00" fill="#000000">1&#45;n</text>
</g>
<!-- user_organization_roles -->
<g id="node5" class="node">
<title>user_organization_roles</title>
<polygon fill="#efefef" stroke="transparent" points="538,-866.5 538,-901.5 871,-901.5 871,-866.5 538,-866.5"/>
<polygon fill="none" stroke="#000000" points="538,-866.5 538,-901.5 871,-901.5 871,-866.5 538,-866.5"/>
<text text-anchor="start" x="544.695" y="-879.3" font-family="Arial Bold" font-size="18.00" fill="#000000">user_organization_roles</text>
<text text-anchor="start" x="736.737" y="-879.3" font-family="Arial" font-size="14.00" fill="#000000">    </text>
<text text-anchor="start" x="770.9418" y="-879.3" font-family="Arial" font-size="14.00" fill="#666666">[BASE TABLE]</text>
<polygon fill="none" stroke="#000000" points="538,-836.5 538,-866.5 871,-866.5 871,-836.5 538,-836.5"/>
<text text-anchor="start" x="545" y="-847.9" font-family="Arial" font-size="14.00" fill="#000000">id    </text>
<text text-anchor="start" x="590.094" y="-847.9" font-family="Arial" font-size="14.00" fill="#666666">[int]</text>
<polygon fill="none" stroke="#000000" points="538,-806.5 538,-836.5 871,-836.5 871,-806.5 538,-806.5"/>
<text text-anchor="start" x="545" y="-817.9" font-family="Arial" font-size="14.00" fill="#000000">userId    </text>
<text text-anchor="start" x="618.1038" y="-817.9" font-family="Arial" font-size="14.00" fill="#666666">[int]</text>
<polygon fill="none" stroke="#000000" points="538,-776.5 538,-806.5 871,-806.5 871,-776.5 538,-776.5"/>
<text text-anchor="start" x="545" y="-787.9" font-family="Arial" font-size="14.00" fill="#000000">organizationId    </text>
<text text-anchor="start" x="667.1206" y="-787.9" font-family="Arial" font-size="14.00" fill="#666666">[int]</text>
<polygon fill="none" stroke="#000000" points="538,-746.5 538,-776.5 871,-776.5 871,-746.5 538,-746.5"/>
<text text-anchor="start" x="545" y="-757.9" font-family="Arial" font-size="14.00" fill="#000000">roleId    </text>
<text text-anchor="start" x="614.2104" y="-757.9" font-family="Arial" font-size="14.00" fill="#666666">[int]</text>
<polygon fill="none" stroke="#000000" points="538,-716.5 538,-746.5 871,-746.5 871,-716.5 538,-716.5"/>
<text text-anchor="start" x="545" y="-727.9" font-family="Arial" font-size="14.00" fill="#000000">createdAt    </text>
<text text-anchor="start" x="639.1136" y="-727.9" font-family="Arial" font-size="14.00" fill="#666666">[timestamp]</text>
<polygon fill="none" stroke="#000000" points="538,-686.5 538,-716.5 871,-716.5 871,-686.5 538,-686.5"/>
<text text-anchor="start" x="545" y="-697.9" font-family="Arial" font-size="14.00" fill="#000000">updatedAt    </text>
<text text-anchor="start" x="643.0182" y="-697.9" font-family="Arial" font-size="14.00" fill="#666666">[timestamp]</text>
</g>
<!-- user_organization_roles&#45;&gt;organizations -->
<g id="edge4" class="edge">
<title>user_organization_roles:organizationId&#45;&gt;organizations:id</title>
<path fill="none" stroke="#000000" stroke-dasharray="5,2" d="M881.2202,-790.6439C932.9532,-781.2659 902.8987,-696.9807 871,-644 853.3614,-614.7039 820.6386,-637.2961 803,-608 768.4983,-550.6959 764.1216,-361.4297 803,-307 831.6744,-266.8558 879.3256,-311.1442 908,-271 932.1537,-237.1849 949.5556,-177.5 908,-177.5"/>
<polygon fill="#000000" stroke="#000000" points="880.9651,-790.6652 870.6243,-787.0157 875.9826,-791.0826 871,-791.5 871,-791.5 871,-791.5 875.9826,-791.0826 871.3757,-795.9843 880.9651,-790.6652 880.9651,-790.6652"/>
<text text-anchor="start" x="849.7765" y="-801.5" font-family="Arial" font-size="10.00" fill="#000000">1&#45;n</text>
</g>
<!-- user_organization_roles&#45;&gt;roles -->
<g id="edge6" class="edge">
<title>user_organization_roles:roleId&#45;&gt;roles:id</title>
<path fill="none" stroke="#000000" stroke-dasharray="5,2" d="M528.024,-760.3971C488.5494,-750.8492 507.3228,-681.6304 538,-644 588.1741,-582.4537 662.8259,-669.5463 713,-608 739.2575,-575.7912 754.5556,-514.5 713,-514.5"/>
<polygon fill="#000000" stroke="#000000" points="528.0606,-760.4011 537.5055,-765.9727 533.0303,-760.9505 538,-761.5 538,-761.5 538,-761.5 533.0303,-760.9505 538.4945,-757.0273 528.0606,-760.4011 528.0606,-760.4011"/>
<text text-anchor="start" x="516.7765" y="-771.5" font-family="Arial" font-size="10.00" fill="#000000">n&#45;n</text>
</g>
<!-- users -->
<g id="node7" class="node">
<title>users</title>
<polygon fill="#efefef" stroke="transparent" points="856,-529.5 856,-564.5 1051,-564.5 1051,-529.5 856,-529.5"/>
<polygon fill="none" stroke="#000000" points="856,-529.5 856,-564.5 1051,-564.5 1051,-529.5 856,-529.5"/>
<text text-anchor="start" x="867.7137" y="-542.3" font-family="Arial Bold" font-size="18.00" fill="#000000">users</text>
<text text-anchor="start" x="911.7183" y="-542.3" font-family="Arial" font-size="14.00" fill="#000000">    </text>
<text text-anchor="start" x="945.9231" y="-542.3" font-family="Arial" font-size="14.00" fill="#666666">[BASE TABLE]</text>
<polygon fill="none" stroke="#000000" points="856,-499.5 856,-529.5 1051,-529.5 1051,-499.5 856,-499.5"/>
<text text-anchor="start" x="863" y="-510.9" font-family="Arial" font-size="14.00" fill="#000000">id    </text>
<text text-anchor="start" x="908.094" y="-510.9" font-family="Arial" font-size="14.00" fill="#666666">[int]</text>
<polygon fill="none" stroke="#000000" points="856,-469.5 856,-499.5 1051,-499.5 1051,-469.5 856,-469.5"/>
<text text-anchor="start" x="863" y="-480.9" font-family="Arial" font-size="14.00" fill="#000000">name    </text>
<text text-anchor="start" x="932.2132" y="-480.9" font-family="Arial" font-size="14.00" fill="#666666">[varchar(255)]</text>
<polygon fill="none" stroke="#000000" points="856,-439.5 856,-469.5 1051,-469.5 1051,-439.5 856,-439.5"/>
<text text-anchor="start" x="863" y="-450.9" font-family="Arial" font-size="14.00" fill="#000000">email    </text>
<text text-anchor="start" x="930.6438" y="-450.9" font-family="Arial" font-size="14.00" fill="#666666">[varchar(255)]</text>
<polygon fill="none" stroke="#000000" points="856,-409.5 856,-439.5 1051,-439.5 1051,-409.5 856,-409.5"/>
<text text-anchor="start" x="862.8892" y="-420.9" font-family="Arial" font-size="14.00" fill="#000000">password    </text>
<text text-anchor="start" x="956.9916" y="-420.9" font-family="Arial" font-size="14.00" fill="#666666">[varchar(255)]</text>
<polygon fill="none" stroke="#000000" points="856,-379.5 856,-409.5 1051,-409.5 1051,-379.5 856,-379.5"/>
<text text-anchor="start" x="863" y="-390.9" font-family="Arial" font-size="14.00" fill="#000000">createdAt    </text>
<text text-anchor="start" x="957.1136" y="-390.9" font-family="Arial" font-size="14.00" fill="#666666">[timestamp]</text>
<polygon fill="none" stroke="#000000" points="856,-349.5 856,-379.5 1051,-379.5 1051,-349.5 856,-349.5"/>
<text text-anchor="start" x="863" y="-360.9" font-family="Arial" font-size="14.00" fill="#000000">updatedAt    </text>
<text text-anchor="start" x="961.0182" y="-360.9" font-family="Arial" font-size="14.00" fill="#666666">[timestamp]</text>
</g>
<!-- user_organization_roles&#45;&gt;users -->
<g id="edge5" class="edge">
<title>user_organization_roles:userId&#45;&gt;users:id</title>
<path fill="none" stroke="#000000" stroke-dasharray="5,2" d="M881.1753,-820.8525C944.0488,-812.1617 885.7462,-717.7308 871,-644 867.6007,-627.0033 859.3993,-624.9967 856,-608 847.8503,-567.2514 814.4444,-514.5 856,-514.5"/>
<polygon fill="#000000" stroke="#000000" points="880.9798,-820.8649 870.7142,-817.0091 875.9899,-821.1824 871,-821.5 871,-821.5 871,-821.5 875.9899,-821.1824 871.2858,-825.9909 880.9798,-820.8649 880.9798,-820.8649"/>
<text text-anchor="start" x="849.7765" y="-831.5" font-family="Arial" font-size="10.00" fill="#000000">1&#45;n</text>
</g>
<!-- user_organizations -->
<g id="node6" class="node">
<title>user_organizations</title>
<polygon fill="#efefef" stroke="transparent" points="975,-851.5 975,-886.5 1268,-886.5 1268,-851.5 975,-851.5"/>
<polygon fill="none" stroke="#000000" points="975,-851.5 975,-886.5 1268,-886.5 1268,-851.5 975,-851.5"/>
<text text-anchor="start" x="981.6975" y="-864.3" font-family="Arial Bold" font-size="18.00" fill="#000000">user_organizations</text>
<text text-anchor="start" x="1133.7345" y="-864.3" font-family="Arial" font-size="14.00" fill="#000000">    </text>
<text text-anchor="start" x="1167.9393" y="-864.3" font-family="Arial" font-size="14.00" fill="#666666">[BASE TABLE]</text>
<polygon fill="none" stroke="#000000" points="975,-821.5 975,-851.5 1268,-851.5 1268,-821.5 975,-821.5"/>
<text text-anchor="start" x="982" y="-832.9" font-family="Arial" font-size="14.00" fill="#000000">id    </text>
<text text-anchor="start" x="1027.094" y="-832.9" font-family="Arial" font-size="14.00" fill="#666666">[int]</text>
<polygon fill="none" stroke="#000000" points="975,-791.5 975,-821.5 1268,-821.5 1268,-791.5 975,-791.5"/>
<text text-anchor="start" x="982" y="-802.9" font-family="Arial" font-size="14.00" fill="#000000">userId    </text>
<text text-anchor="start" x="1055.1038" y="-802.9" font-family="Arial" font-size="14.00" fill="#666666">[int]</text>
<polygon fill="none" stroke="#000000" points="975,-761.5 975,-791.5 1268,-791.5 1268,-761.5 975,-761.5"/>
<text text-anchor="start" x="982" y="-772.9" font-family="Arial" font-size="14.00" fill="#000000">organizationId    </text>
<text text-anchor="start" x="1104.1206" y="-772.9" font-family="Arial" font-size="14.00" fill="#666666">[int]</text>
<polygon fill="none" stroke="#000000" points="975,-731.5 975,-761.5 1268,-761.5 1268,-731.5 975,-731.5"/>
<text text-anchor="start" x="982" y="-742.9" font-family="Arial" font-size="14.00" fill="#000000">createdAt    </text>
<text text-anchor="start" x="1076.1136" y="-742.9" font-family="Arial" font-size="14.00" fill="#666666">[timestamp]</text>
<polygon fill="none" stroke="#000000" points="975,-701.5 975,-731.5 1268,-731.5 1268,-701.5 975,-701.5"/>
<text text-anchor="start" x="982" y="-712.9" font-family="Arial" font-size="14.00" fill="#000000">updatedAt    </text>
<text text-anchor="start" x="1080.0182" y="-712.9" font-family="Arial" font-size="14.00" fill="#666666">[timestamp]</text>
</g>
<!-- user_organizations&#45;&gt;organizations -->
<g id="edge7" class="edge">
<title>user_organizations:organizationId&#45;&gt;organizations:id</title>
<path fill="none" stroke="#000000" stroke-dasharray="5,2" d="M1278.1403,-775.434C1314.3266,-766.7088 1278.5663,-706.1776 1268,-659 1209.6025,-398.2593 1175.2003,-177.5 908,-177.5"/>
<polygon fill="#000000" stroke="#000000" points="1277.9452,-775.4544 1267.5295,-772.0247 1272.9726,-775.9772 1268,-776.5 1268,-776.5 1268,-776.5 1272.9726,-775.9772 1268.4705,-780.9753 1277.9452,-775.4544 1277.9452,-775.4544"/>
<text text-anchor="start" x="1246.7765" y="-786.5" font-family="Arial" font-size="10.00" fill="#000000">1&#45;n</text>
</g>
<!-- user_organizations&#45;&gt;users -->
<g id="edge8" class="edge">
<title>user_organizations:userId&#45;&gt;users:id</title>
<path fill="none" stroke="#000000" stroke-dasharray="5,2" d="M964.8068,-805.6592C913.3641,-796.4459 945.9018,-713.5691 975,-659 994.14,-623.106 1031.86,-643.894 1051,-608 1070.5528,-571.3319 1092.5556,-514.5 1051,-514.5"/>
<polygon fill="#000000" stroke="#000000" points="965.0338,-805.6778 974.63,-810.9848 970.0169,-806.0889 975,-806.5 975,-806.5 975,-806.5 970.0169,-806.0889 975.37,-802.0152 965.0338,-805.6778 965.0338,-805.6778"/>
<text text-anchor="start" x="953.7765" y="-816.5" font-family="Arial" font-size="10.00" fill="#000000">1&#45;n</text>
</g>
</g>
</svg>
