<?xml version="1.0" encoding="UTF-8" standalone="no"?>
<!DOCTYPE svg PUBLIC "-//W3C//DTD SVG 1.1//EN"
 "http://www.w3.org/Graphics/SVG/1.1/DTD/svg11.dtd">
<!-- Generated by graphviz version 2.40.1 (20161225.0304)
 -->
<!-- Title: ramen_db Pages: 1 -->
<svg width="2443pt" height="1133pt"
 viewBox="0.00 0.00 2443.00 1133.00" xmlns="http://www.w3.org/2000/svg" xmlns:xlink="http://www.w3.org/1999/xlink">
<g id="graph0" class="graph" transform="scale(1 1) rotate(0) translate(4 1129)">
<title>ramen_db</title>
<polygon fill="#ffffff" stroke="transparent" points="-4,4 -4,-1129 2439,-1129 2439,4 -4,4"/>
<!-- invoice_items -->
<g id="node1" class="node">
<title>invoice_items</title>
<polygon fill="#efefef" stroke="transparent" points="2142,-1046.5 2142,-1081.5 2392,-1081.5 2392,-1046.5 2142,-1046.5"/>
<polygon fill="none" stroke="#000000" points="2142,-1046.5 2142,-1081.5 2392,-1081.5 2392,-1046.5 2142,-1046.5"/>
<text text-anchor="start" x="2148.712" y="-1059.3" font-family="Arial Bold" font-size="18.00" fill="#000000">invoice_items</text>
<text text-anchor="start" x="2257.72" y="-1059.3" font-family="Arial" font-size="14.00" fill="#000000">    </text>
<text text-anchor="start" x="2291.9248" y="-1059.3" font-family="Arial" font-size="14.00" fill="#666666">[BASE TABLE]</text>
<polygon fill="none" stroke="#000000" points="2142,-1016.5 2142,-1046.5 2392,-1046.5 2392,-1016.5 2142,-1016.5"/>
<text text-anchor="start" x="2149" y="-1027.9" font-family="Arial" font-size="14.00" fill="#000000">id    </text>
<text text-anchor="start" x="2194.094" y="-1027.9" font-family="Arial" font-size="14.00" fill="#666666">[int]</text>
<polygon fill="none" stroke="#000000" points="2142,-986.5 2142,-1016.5 2392,-1016.5 2392,-986.5 2142,-986.5"/>
<text text-anchor="start" x="2149" y="-997.9" font-family="Arial" font-size="14.00" fill="#000000">invoiceId    </text>
<text text-anchor="start" x="2238.439" y="-997.9" font-family="Arial" font-size="14.00" fill="#666666">[int]</text>
<polygon fill="none" stroke="#000000" points="2142,-956.5 2142,-986.5 2392,-986.5 2392,-956.5 2142,-956.5"/>
<text text-anchor="start" x="2149" y="-967.9" font-family="Arial" font-size="14.00" fill="#000000">name    </text>
<text text-anchor="start" x="2218.2132" y="-967.9" font-family="Arial" font-size="14.00" fill="#666666">[varchar(255)]</text>
<polygon fill="none" stroke="#000000" points="2142,-926.5 2142,-956.5 2392,-956.5 2392,-926.5 2142,-926.5"/>
<text text-anchor="start" x="2149" y="-937.9" font-family="Arial" font-size="14.00" fill="#000000">note    </text>
<text text-anchor="start" x="2210.4432" y="-937.9" font-family="Arial" font-size="14.00" fill="#666666">[varchar(255)]</text>
<polygon fill="none" stroke="#000000" points="2142,-896.5 2142,-926.5 2392,-926.5 2392,-896.5 2142,-896.5"/>
<text text-anchor="start" x="2149" y="-907.9" font-family="Arial" font-size="14.00" fill="#000000">price    </text>
<text text-anchor="start" x="2213.5372" y="-907.9" font-family="Arial" font-size="14.00" fill="#666666">[int]</text>
<polygon fill="none" stroke="#000000" points="2142,-866.5 2142,-896.5 2392,-896.5 2392,-866.5 2142,-866.5"/>
<text text-anchor="start" x="2149" y="-877.9" font-family="Arial" font-size="14.00" fill="#000000">type    </text>
<text text-anchor="start" x="2209.6606" y="-877.9" font-family="Arial" font-size="14.00" fill="#666666">[enum(&#39;expense&#39;,&#39;income&#39;)]</text>
<polygon fill="none" stroke="#000000" points="2142,-836.5 2142,-866.5 2392,-866.5 2392,-836.5 2142,-836.5"/>
<text text-anchor="start" x="2149" y="-847.9" font-family="Arial" font-size="14.00" fill="#000000">createdAt    </text>
<text text-anchor="start" x="2243.1136" y="-847.9" font-family="Arial" font-size="14.00" fill="#666666">[timestamp]</text>
<polygon fill="none" stroke="#000000" points="2142,-806.5 2142,-836.5 2392,-836.5 2392,-806.5 2142,-806.5"/>
<text text-anchor="start" x="2149" y="-817.9" font-family="Arial" font-size="14.00" fill="#000000">updatedAt    </text>
<text text-anchor="start" x="2247.0182" y="-817.9" font-family="Arial" font-size="14.00" fill="#666666">[timestamp]</text>
<polygon fill="none" stroke="#000000" points="2142,-776.5 2142,-806.5 2392,-806.5 2392,-776.5 2142,-776.5"/>
<text text-anchor="start" x="2149" y="-787.9" font-family="Arial" font-size="14.00" fill="#000000">quantity    </text>
<text text-anchor="start" x="2232.223" y="-787.9" font-family="Arial" font-size="14.00" fill="#666666">[int]</text>
</g>
<!-- invoices -->
<g id="node3" class="node">
<title>invoices</title>
<polygon fill="#efefef" stroke="transparent" points="1707,-589.5 1707,-624.5 1922,-624.5 1922,-589.5 1707,-589.5"/>
<polygon fill="none" stroke="#000000" points="1707,-589.5 1707,-624.5 1922,-624.5 1922,-589.5 1707,-589.5"/>
<text text-anchor="start" x="1718.2125" y="-602.3" font-family="Arial Bold" font-size="18.00" fill="#000000">invoices</text>
<text text-anchor="start" x="1783.2195" y="-602.3" font-family="Arial" font-size="14.00" fill="#000000">    </text>
<text text-anchor="start" x="1817.4243" y="-602.3" font-family="Arial" font-size="14.00" fill="#666666">[BASE TABLE]</text>
<polygon fill="none" stroke="#000000" points="1707,-559.5 1707,-589.5 1922,-589.5 1922,-559.5 1707,-559.5"/>
<text text-anchor="start" x="1714" y="-570.9" font-family="Arial" font-size="14.00" fill="#000000">id    </text>
<text text-anchor="start" x="1759.094" y="-570.9" font-family="Arial" font-size="14.00" fill="#666666">[int]</text>
<polygon fill="none" stroke="#000000" points="1707,-529.5 1707,-559.5 1922,-559.5 1922,-529.5 1707,-529.5"/>
<text text-anchor="start" x="1714" y="-540.9" font-family="Arial" font-size="14.00" fill="#000000">date    </text>
<text text-anchor="start" x="1775.4432" y="-540.9" font-family="Arial" font-size="14.00" fill="#666666">[timestamp]</text>
<polygon fill="none" stroke="#000000" points="1707,-499.5 1707,-529.5 1922,-529.5 1922,-499.5 1707,-499.5"/>
<text text-anchor="start" x="1714" y="-510.9" font-family="Arial" font-size="14.00" fill="#000000">createdAt    </text>
<text text-anchor="start" x="1808.1136" y="-510.9" font-family="Arial" font-size="14.00" fill="#666666">[timestamp]</text>
<polygon fill="none" stroke="#000000" points="1707,-469.5 1707,-499.5 1922,-499.5 1922,-469.5 1707,-469.5"/>
<text text-anchor="start" x="1714" y="-480.9" font-family="Arial" font-size="14.00" fill="#000000">updatedAt    </text>
<text text-anchor="start" x="1812.0182" y="-480.9" font-family="Arial" font-size="14.00" fill="#666666">[timestamp]</text>
<polygon fill="none" stroke="#000000" points="1707,-439.5 1707,-469.5 1922,-469.5 1922,-439.5 1707,-439.5"/>
<text text-anchor="start" x="1714" y="-450.9" font-family="Arial" font-size="14.00" fill="#000000">organizationId    </text>
<text text-anchor="start" x="1836.1206" y="-450.9" font-family="Arial" font-size="14.00" fill="#666666">[int]</text>
<polygon fill="none" stroke="#000000" points="1707,-409.5 1707,-439.5 1922,-439.5 1922,-409.5 1707,-409.5"/>
<text text-anchor="start" x="1714" y="-420.9" font-family="Arial" font-size="14.00" fill="#000000">total    </text>
<text text-anchor="start" x="1774.6578" y="-420.9" font-family="Arial" font-size="14.00" fill="#666666">[int]</text>
<polygon fill="none" stroke="#000000" points="1707,-379.5 1707,-409.5 1922,-409.5 1922,-379.5 1707,-379.5"/>
<text text-anchor="start" x="1713.812" y="-390.9" font-family="Arial" font-size="14.00" fill="#000000">currency    </text>
<text text-anchor="start" x="1801.6858" y="-390.9" font-family="Arial" font-size="14.00" fill="#666666">[enum(&#39;vnd&#39;,&#39;usd&#39;)]</text>
</g>
<!-- invoice_items&#45;&gt;invoices -->
<g id="edge10" class="edge">
<title>invoice_items:invoiceId&#45;&gt;invoices:id</title>
<path fill="none" stroke="#000000" stroke-dasharray="5,2" d="M2132.0441,-999.2254C2085.7606,-976.1283 2117.3583,-783.8806 2090,-734 2040.4883,-643.7285 2024.958,-574.5 1922,-574.5"/>
<polygon fill="#000000" stroke="#000000" points="2132.2512,-999.2727 2140.9977,-1005.887 2137.1256,-1000.3863 2142,-1001.5 2142,-1001.5 2142,-1001.5 2137.1256,-1000.3863 2143.0023,-997.113 2132.2512,-999.2727 2132.2512,-999.2727"/>
<text text-anchor="start" x="2120.7765" y="-1011.5" font-family="Arial" font-size="10.00" fill="#000000">1&#45;n</text>
</g>
<!-- invoice_owners -->
<g id="node2" class="node">
<title>invoice_owners</title>
<polygon fill="#efefef" stroke="transparent" points="1310,-986.5 1310,-1021.5 1575,-1021.5 1575,-986.5 1310,-986.5"/>
<polygon fill="none" stroke="#000000" points="1310,-986.5 1310,-1021.5 1575,-1021.5 1575,-986.5 1310,-986.5"/>
<text text-anchor="start" x="1316.7069" y="-999.3" font-family="Arial Bold" font-size="18.00" fill="#000000">invoice_owners</text>
<text text-anchor="start" x="1440.7251" y="-999.3" font-family="Arial" font-size="14.00" fill="#000000">    </text>
<text text-anchor="start" x="1474.9299" y="-999.3" font-family="Arial" font-size="14.00" fill="#666666">[BASE TABLE]</text>
<polygon fill="none" stroke="#000000" points="1310,-956.5 1310,-986.5 1575,-986.5 1575,-956.5 1310,-956.5"/>
<text text-anchor="start" x="1317" y="-967.9" font-family="Arial" font-size="14.00" fill="#000000">id    </text>
<text text-anchor="start" x="1362.094" y="-967.9" font-family="Arial" font-size="14.00" fill="#666666">[int]</text>
<polygon fill="none" stroke="#000000" points="1310,-926.5 1310,-956.5 1575,-956.5 1575,-926.5 1310,-926.5"/>
<text text-anchor="start" x="1317" y="-937.9" font-family="Arial" font-size="14.00" fill="#000000">invoiceId    </text>
<text text-anchor="start" x="1406.439" y="-937.9" font-family="Arial" font-size="14.00" fill="#666666">[int]</text>
<polygon fill="none" stroke="#000000" points="1310,-896.5 1310,-926.5 1575,-926.5 1575,-896.5 1310,-896.5"/>
<text text-anchor="start" x="1317" y="-907.9" font-family="Arial" font-size="14.00" fill="#000000">userId    </text>
<text text-anchor="start" x="1390.1038" y="-907.9" font-family="Arial" font-size="14.00" fill="#666666">[int]</text>
<polygon fill="none" stroke="#000000" points="1310,-866.5 1310,-896.5 1575,-896.5 1575,-866.5 1310,-866.5"/>
<text text-anchor="start" x="1317" y="-877.9" font-family="Arial" font-size="14.00" fill="#000000">createdAt    </text>
<text text-anchor="start" x="1411.1136" y="-877.9" font-family="Arial" font-size="14.00" fill="#666666">[timestamp]</text>
<polygon fill="none" stroke="#000000" points="1310,-836.5 1310,-866.5 1575,-866.5 1575,-836.5 1310,-836.5"/>
<text text-anchor="start" x="1317" y="-847.9" font-family="Arial" font-size="14.00" fill="#000000">updatedAt    </text>
<text text-anchor="start" x="1415.0182" y="-847.9" font-family="Arial" font-size="14.00" fill="#666666">[timestamp]</text>
</g>
<!-- invoice_owners&#45;&gt;invoices -->
<g id="edge11" class="edge">
<title>invoice_owners:invoiceId&#45;&gt;invoices:id</title>
<path fill="none" stroke="#000000" stroke-dasharray="5,2" d="M1585.3744,-940.967C1664.2921,-932.2976 1595.225,-819.6564 1627,-734 1654.5826,-659.6452 1627.6941,-574.5 1707,-574.5"/>
<polygon fill="#000000" stroke="#000000" points="1584.9868,-940.9868 1574.7691,-937.0059 1579.9934,-941.2434 1575,-941.5 1575,-941.5 1575,-941.5 1579.9934,-941.2434 1575.2309,-945.9941 1584.9868,-940.9868 1584.9868,-940.9868"/>
<text text-anchor="start" x="1553.7765" y="-951.5" font-family="Arial" font-size="10.00" fill="#000000">n&#45;1</text>
</g>
<!-- users -->
<g id="node11" class="node">
<title>users</title>
<polygon fill="#efefef" stroke="transparent" points="1238,-619.5 1238,-654.5 1433,-654.5 1433,-619.5 1238,-619.5"/>
<polygon fill="none" stroke="#000000" points="1238,-619.5 1238,-654.5 1433,-654.5 1433,-619.5 1238,-619.5"/>
<text text-anchor="start" x="1249.7137" y="-632.3" font-family="Arial Bold" font-size="18.00" fill="#000000">users</text>
<text text-anchor="start" x="1293.7183" y="-632.3" font-family="Arial" font-size="14.00" fill="#000000">    </text>
<text text-anchor="start" x="1327.9231" y="-632.3" font-family="Arial" font-size="14.00" fill="#666666">[BASE TABLE]</text>
<polygon fill="none" stroke="#000000" points="1238,-589.5 1238,-619.5 1433,-619.5 1433,-589.5 1238,-589.5"/>
<text text-anchor="start" x="1245" y="-600.9" font-family="Arial" font-size="14.00" fill="#000000">id    </text>
<text text-anchor="start" x="1290.094" y="-600.9" font-family="Arial" font-size="14.00" fill="#666666">[int]</text>
<polygon fill="none" stroke="#000000" points="1238,-559.5 1238,-589.5 1433,-589.5 1433,-559.5 1238,-559.5"/>
<text text-anchor="start" x="1245" y="-570.9" font-family="Arial" font-size="14.00" fill="#000000">name    </text>
<text text-anchor="start" x="1314.2132" y="-570.9" font-family="Arial" font-size="14.00" fill="#666666">[varchar(255)]</text>
<polygon fill="none" stroke="#000000" points="1238,-529.5 1238,-559.5 1433,-559.5 1433,-529.5 1238,-529.5"/>
<text text-anchor="start" x="1245" y="-540.9" font-family="Arial" font-size="14.00" fill="#000000">email    </text>
<text text-anchor="start" x="1312.6438" y="-540.9" font-family="Arial" font-size="14.00" fill="#666666">[varchar(255)]</text>
<polygon fill="none" stroke="#000000" points="1238,-499.5 1238,-529.5 1433,-529.5 1433,-499.5 1238,-499.5"/>
<text text-anchor="start" x="1244.8892" y="-510.9" font-family="Arial" font-size="14.00" fill="#000000">password    </text>
<text text-anchor="start" x="1338.9916" y="-510.9" font-family="Arial" font-size="14.00" fill="#666666">[varchar(255)]</text>
<polygon fill="none" stroke="#000000" points="1238,-469.5 1238,-499.5 1433,-499.5 1433,-469.5 1238,-469.5"/>
<text text-anchor="start" x="1245" y="-480.9" font-family="Arial" font-size="14.00" fill="#000000">createdAt    </text>
<text text-anchor="start" x="1339.1136" y="-480.9" font-family="Arial" font-size="14.00" fill="#666666">[timestamp]</text>
<polygon fill="none" stroke="#000000" points="1238,-439.5 1238,-469.5 1433,-469.5 1433,-439.5 1238,-439.5"/>
<text text-anchor="start" x="1245" y="-450.9" font-family="Arial" font-size="14.00" fill="#000000">updatedAt    </text>
<text text-anchor="start" x="1343.0182" y="-450.9" font-family="Arial" font-size="14.00" fill="#666666">[timestamp]</text>
<polygon fill="none" stroke="#000000" points="1238,-409.5 1238,-439.5 1433,-439.5 1433,-409.5 1238,-409.5"/>
<text text-anchor="start" x="1245" y="-420.9" font-family="Arial" font-size="14.00" fill="#000000">phone    </text>
<text text-anchor="start" x="1318.1178" y="-420.9" font-family="Arial" font-size="14.00" fill="#666666">[varchar(255)]</text>
<polygon fill="none" stroke="#000000" points="1238,-379.5 1238,-409.5 1433,-409.5 1433,-379.5 1238,-379.5"/>
<text text-anchor="start" x="1245" y="-390.9" font-family="Arial" font-size="14.00" fill="#000000">address    </text>
<text text-anchor="start" x="1328.9958" y="-390.9" font-family="Arial" font-size="14.00" fill="#666666">[varchar(255)]</text>
<polygon fill="none" stroke="#000000" points="1238,-349.5 1238,-379.5 1433,-379.5 1433,-349.5 1238,-349.5"/>
<text text-anchor="start" x="1245" y="-360.9" font-family="Arial" font-size="14.00" fill="#000000">avatar    </text>
<text text-anchor="start" x="1318.1038" y="-360.9" font-family="Arial" font-size="14.00" fill="#666666">[varchar(255)]</text>
</g>
<!-- invoice_owners&#45;&gt;users -->
<g id="edge12" class="edge">
<title>invoice_owners:userId&#45;&gt;users:id</title>
<path fill="none" stroke="#000000" stroke-dasharray="5,2" d="M1299.6839,-910.3723C1262.0943,-901.1552 1288.7956,-837.4482 1310,-794 1340.4148,-731.6796 1402.5852,-760.3204 1433,-698 1451.226,-660.6546 1474.5556,-604.5 1433,-604.5"/>
<polygon fill="#000000" stroke="#000000" points="1300.0592,-910.4133 1309.511,-915.9734 1305.0296,-910.9566 1310,-911.5 1310,-911.5 1310,-911.5 1305.0296,-910.9566 1310.489,-907.0266 1300.0592,-910.4133 1300.0592,-910.4133"/>
<text text-anchor="start" x="1288.7765" y="-921.5" font-family="Arial" font-size="10.00" fill="#000000">n&#45;1</text>
</g>
<!-- organizations -->
<g id="node4" class="node">
<title>organizations</title>
<polygon fill="#efefef" stroke="transparent" points="936,-192.5 936,-227.5 1184,-227.5 1184,-192.5 936,-192.5"/>
<polygon fill="none" stroke="#000000" points="936,-192.5 936,-227.5 1184,-227.5 1184,-192.5 936,-192.5"/>
<text text-anchor="start" x="942.7029" y="-205.3" font-family="Arial Bold" font-size="18.00" fill="#000000">organizations</text>
<text text-anchor="start" x="1049.7291" y="-205.3" font-family="Arial" font-size="14.00" fill="#000000">    </text>
<text text-anchor="start" x="1083.9339" y="-205.3" font-family="Arial" font-size="14.00" fill="#666666">[BASE TABLE]</text>
<polygon fill="none" stroke="#000000" points="936,-162.5 936,-192.5 1184,-192.5 1184,-162.5 936,-162.5"/>
<text text-anchor="start" x="943" y="-173.9" font-family="Arial" font-size="14.00" fill="#000000">id    </text>
<text text-anchor="start" x="988.094" y="-173.9" font-family="Arial" font-size="14.00" fill="#666666">[int]</text>
<polygon fill="none" stroke="#000000" points="936,-132.5 936,-162.5 1184,-162.5 1184,-132.5 936,-132.5"/>
<text text-anchor="start" x="943" y="-143.9" font-family="Arial" font-size="14.00" fill="#000000">name    </text>
<text text-anchor="start" x="1012.2132" y="-143.9" font-family="Arial" font-size="14.00" fill="#666666">[varchar(255)]</text>
<polygon fill="none" stroke="#000000" points="936,-102.5 936,-132.5 1184,-132.5 1184,-102.5 936,-102.5"/>
<text text-anchor="start" x="943" y="-113.9" font-family="Arial" font-size="14.00" fill="#000000">uniqueName    </text>
<text text-anchor="start" x="1056.5568" y="-113.9" font-family="Arial" font-size="14.00" fill="#666666">[varchar(255)]</text>
<polygon fill="none" stroke="#000000" points="936,-72.5 936,-102.5 1184,-102.5 1184,-72.5 936,-72.5"/>
<text text-anchor="start" x="943" y="-83.9" font-family="Arial" font-size="14.00" fill="#000000">createdAt    </text>
<text text-anchor="start" x="1037.1136" y="-83.9" font-family="Arial" font-size="14.00" fill="#666666">[timestamp]</text>
<polygon fill="none" stroke="#000000" points="936,-42.5 936,-72.5 1184,-72.5 1184,-42.5 936,-42.5"/>
<text text-anchor="start" x="943" y="-53.9" font-family="Arial" font-size="14.00" fill="#000000">updatedAt    </text>
<text text-anchor="start" x="1041.0182" y="-53.9" font-family="Arial" font-size="14.00" fill="#666666">[timestamp]</text>
</g>
<!-- invoices&#45;&gt;organizations -->
<g id="edge9" class="edge">
<title>invoices:organizationId&#45;&gt;organizations:id</title>
<path fill="none" stroke="#000000" stroke-dasharray="5,2" d="M1696.7482,-454.0579C1616.8472,-446.8792 1636.7493,-354.0728 1562,-307 1411.7289,-212.3678 1361.5856,-177.5 1184,-177.5"/>
<polygon fill="#000000" stroke="#000000" points="1697.0093,-454.069 1706.8061,-458.9958 1702.0046,-454.2845 1707,-454.5 1707,-454.5 1707,-454.5 1702.0046,-454.2845 1707.1939,-450.0042 1697.0093,-454.069 1697.0093,-454.069"/>
<text text-anchor="start" x="1685.7765" y="-464.5" font-family="Arial" font-size="10.00" fill="#000000">1&#45;n</text>
</g>
<!-- permissions -->
<g id="node5" class="node">
<title>permissions</title>
<polygon fill="#efefef" stroke="transparent" points="43,-559.5 43,-594.5 425,-594.5 425,-559.5 43,-559.5"/>
<polygon fill="none" stroke="#000000" points="43,-559.5 43,-594.5 425,-594.5 425,-559.5 43,-559.5"/>
<text text-anchor="start" x="122.2172" y="-572.3" font-family="Arial Bold" font-size="18.00" fill="#000000">permissions</text>
<text text-anchor="start" x="218.2148" y="-572.3" font-family="Arial" font-size="14.00" fill="#000000">    </text>
<text text-anchor="start" x="252.4196" y="-572.3" font-family="Arial" font-size="14.00" fill="#666666">[BASE TABLE]</text>
<polygon fill="none" stroke="#000000" points="43,-529.5 43,-559.5 425,-559.5 425,-529.5 43,-529.5"/>
<text text-anchor="start" x="50" y="-540.9" font-family="Arial" font-size="14.00" fill="#000000">id    </text>
<text text-anchor="start" x="95.094" y="-540.9" font-family="Arial" font-size="14.00" fill="#666666">[int]</text>
<polygon fill="none" stroke="#000000" points="43,-499.5 43,-529.5 425,-529.5 425,-499.5 43,-499.5"/>
<text text-anchor="start" x="49.7194" y="-510.9" font-family="Arial" font-size="14.00" fill="#000000">action    </text>
<text text-anchor="start" x="121.2692" y="-510.9" font-family="Arial" font-size="14.00" fill="#666666">[enum(&#39;create&#39;,&#39;read&#39;,&#39;update&#39;,&#39;delete&#39;,&#39;manage&#39;)]</text>
<polygon fill="none" stroke="#000000" points="43,-469.5 43,-499.5 425,-499.5 425,-469.5 43,-469.5"/>
<text text-anchor="start" x="50" y="-480.9" font-family="Arial" font-size="14.00" fill="#000000">subject    </text>
<text text-anchor="start" x="128.5498" y="-480.9" font-family="Arial" font-size="14.00" fill="#666666">[varchar(255)]</text>
<polygon fill="none" stroke="#000000" points="43,-439.5 43,-469.5 425,-469.5 425,-439.5 43,-439.5"/>
<text text-anchor="start" x="50" y="-450.9" font-family="Arial" font-size="14.00" fill="#000000">createdAt    </text>
<text text-anchor="start" x="144.1136" y="-450.9" font-family="Arial" font-size="14.00" fill="#666666">[timestamp]</text>
<polygon fill="none" stroke="#000000" points="43,-409.5 43,-439.5 425,-439.5 425,-409.5 43,-409.5"/>
<text text-anchor="start" x="50" y="-420.9" font-family="Arial" font-size="14.00" fill="#000000">updatedAt    </text>
<text text-anchor="start" x="148.0182" y="-420.9" font-family="Arial" font-size="14.00" fill="#666666">[timestamp]</text>
</g>
<!-- role_permissions -->
<g id="node6" class="node">
<title>role_permissions</title>
<polygon fill="#efefef" stroke="transparent" points="95,-986.5 95,-1021.5 372,-1021.5 372,-986.5 95,-986.5"/>
<polygon fill="none" stroke="#000000" points="95,-986.5 95,-1021.5 372,-1021.5 372,-986.5 95,-986.5"/>
<text text-anchor="start" x="101.7147" y="-999.3" font-family="Arial Bold" font-size="18.00" fill="#000000">role_permissions</text>
<text text-anchor="start" x="237.7173" y="-999.3" font-family="Arial" font-size="14.00" fill="#000000">    </text>
<text text-anchor="start" x="271.9221" y="-999.3" font-family="Arial" font-size="14.00" fill="#666666">[BASE TABLE]</text>
<polygon fill="none" stroke="#000000" points="95,-956.5 95,-986.5 372,-986.5 372,-956.5 95,-956.5"/>
<text text-anchor="start" x="102" y="-967.9" font-family="Arial" font-size="14.00" fill="#000000">id    </text>
<text text-anchor="start" x="147.094" y="-967.9" font-family="Arial" font-size="14.00" fill="#666666">[int]</text>
<polygon fill="none" stroke="#000000" points="95,-926.5 95,-956.5 372,-956.5 372,-926.5 95,-926.5"/>
<text text-anchor="start" x="102" y="-937.9" font-family="Arial" font-size="14.00" fill="#000000">roleId    </text>
<text text-anchor="start" x="171.2104" y="-937.9" font-family="Arial" font-size="14.00" fill="#666666">[int]</text>
<polygon fill="none" stroke="#000000" points="95,-896.5 95,-926.5 372,-926.5 372,-896.5 95,-896.5"/>
<text text-anchor="start" x="102" y="-907.9" font-family="Arial" font-size="14.00" fill="#000000">permissionId    </text>
<text text-anchor="start" x="215.5428" y="-907.9" font-family="Arial" font-size="14.00" fill="#666666">[int]</text>
<polygon fill="none" stroke="#000000" points="95,-866.5 95,-896.5 372,-896.5 372,-866.5 95,-866.5"/>
<text text-anchor="start" x="102" y="-877.9" font-family="Arial" font-size="14.00" fill="#000000">createdAt    </text>
<text text-anchor="start" x="196.1136" y="-877.9" font-family="Arial" font-size="14.00" fill="#666666">[timestamp]</text>
<polygon fill="none" stroke="#000000" points="95,-836.5 95,-866.5 372,-866.5 372,-836.5 95,-836.5"/>
<text text-anchor="start" x="102" y="-847.9" font-family="Arial" font-size="14.00" fill="#000000">updatedAt    </text>
<text text-anchor="start" x="200.0182" y="-847.9" font-family="Arial" font-size="14.00" fill="#666666">[timestamp]</text>
</g>
<!-- role_permissions&#45;&gt;permissions -->
<g id="edge2" class="edge">
<title>role_permissions:permissionId&#45;&gt;permissions:id</title>
<path fill="none" stroke="#000000" stroke-dasharray="5,2" d="M382.3928,-910.3295C420.5945,-900.7707 397.8452,-834.8583 372,-794 285.4898,-657.2373 129.5102,-774.7627 43,-638 20.7851,-602.8808 1.4444,-544.5 43,-544.5"/>
<polygon fill="#000000" stroke="#000000" points="381.9372,-910.3808 371.4963,-907.0283 376.9686,-910.9404 372,-911.5 372,-911.5 372,-911.5 376.9686,-910.9404 372.5037,-915.9717 381.9372,-910.3808 381.9372,-910.3808"/>
<text text-anchor="start" x="350.7765" y="-921.5" font-family="Arial" font-size="10.00" fill="#000000">1&#45;n</text>
</g>
<!-- roles -->
<g id="node7" class="node">
<title>roles</title>
<polygon fill="#efefef" stroke="transparent" points="551,-574.5 551,-609.5 735,-609.5 735,-574.5 551,-574.5"/>
<polygon fill="none" stroke="#000000" points="551,-574.5 551,-609.5 735,-609.5 735,-574.5 551,-574.5"/>
<text text-anchor="start" x="559.7166" y="-587.3" font-family="Arial Bold" font-size="18.00" fill="#000000">roles</text>
<text text-anchor="start" x="598.7154" y="-587.3" font-family="Arial" font-size="14.00" fill="#000000">    </text>
<text text-anchor="start" x="632.9202" y="-587.3" font-family="Arial" font-size="14.00" fill="#666666">[BASE TABLE]</text>
<polygon fill="none" stroke="#000000" points="551,-544.5 551,-574.5 735,-574.5 735,-544.5 551,-544.5"/>
<text text-anchor="start" x="558" y="-555.9" font-family="Arial" font-size="14.00" fill="#000000">id    </text>
<text text-anchor="start" x="603.094" y="-555.9" font-family="Arial" font-size="14.00" fill="#666666">[int]</text>
<polygon fill="none" stroke="#000000" points="551,-514.5 551,-544.5 735,-544.5 735,-514.5 551,-514.5"/>
<text text-anchor="start" x="558" y="-525.9" font-family="Arial" font-size="14.00" fill="#000000">name    </text>
<text text-anchor="start" x="627.2132" y="-525.9" font-family="Arial" font-size="14.00" fill="#666666">[varchar(255)]</text>
<polygon fill="none" stroke="#000000" points="551,-484.5 551,-514.5 735,-514.5 735,-484.5 551,-484.5"/>
<text text-anchor="start" x="558" y="-495.9" font-family="Arial" font-size="14.00" fill="#000000">slug    </text>
<text text-anchor="start" x="617.8766" y="-495.9" font-family="Arial" font-size="14.00" fill="#666666">[varchar(255)]</text>
<polygon fill="none" stroke="#000000" points="551,-454.5 551,-484.5 735,-484.5 735,-454.5 551,-454.5"/>
<text text-anchor="start" x="558" y="-465.9" font-family="Arial" font-size="14.00" fill="#000000">createdAt    </text>
<text text-anchor="start" x="652.1136" y="-465.9" font-family="Arial" font-size="14.00" fill="#666666">[timestamp]</text>
<polygon fill="none" stroke="#000000" points="551,-424.5 551,-454.5 735,-454.5 735,-424.5 551,-424.5"/>
<text text-anchor="start" x="557.8219" y="-435.9" font-family="Arial" font-size="14.00" fill="#000000">updatedAt    </text>
<text text-anchor="start" x="655.8401" y="-435.9" font-family="Arial" font-size="14.00" fill="#666666">[timestamp]</text>
<polygon fill="none" stroke="#000000" points="551,-394.5 551,-424.5 735,-424.5 735,-394.5 551,-394.5"/>
<text text-anchor="start" x="558" y="-405.9" font-family="Arial" font-size="14.00" fill="#000000">organizationId    </text>
<text text-anchor="start" x="680.1206" y="-405.9" font-family="Arial" font-size="14.00" fill="#666666">[int]</text>
</g>
<!-- role_permissions&#45;&gt;roles -->
<g id="edge1" class="edge">
<title>role_permissions:roleId&#45;&gt;roles:id</title>
<path fill="none" stroke="#000000" stroke-dasharray="5,2" d="M382.2639,-940.9168C459.5038,-931.4416 370.5797,-808.6994 423,-734 439.5689,-710.3892 457.6199,-719.3638 477,-698 523.8914,-646.309 481.2091,-559.5 551,-559.5"/>
<polygon fill="#000000" stroke="#000000" points="381.9839,-940.9326 371.7447,-937.0072 376.9919,-941.2163 372,-941.5 372,-941.5 372,-941.5 376.9919,-941.2163 372.2553,-945.9928 381.9839,-940.9326 381.9839,-940.9326"/>
<text text-anchor="start" x="350.7765" y="-951.5" font-family="Arial" font-size="10.00" fill="#000000">1&#45;n</text>
</g>
<!-- roles&#45;&gt;organizations -->
<g id="edge3" class="edge">
<title>roles:organizationId&#45;&gt;organizations:id</title>
<path fill="none" stroke="#000000" stroke-dasharray="5,2" d="M744.9959,-409.0589C867.9125,-397.8683 803.0369,-177.5 936,-177.5"/>
<polygon fill="#000000" stroke="#000000" points="744.9903,-409.059 734.8016,-405.0044 739.9951,-409.2795 735,-409.5 735,-409.5 735,-409.5 739.9951,-409.2795 735.1984,-413.9956 744.9903,-409.059 744.9903,-409.059"/>
<text text-anchor="start" x="713.7765" y="-419.5" font-family="Arial" font-size="10.00" fill="#000000">1&#45;n</text>
</g>
<!-- user_organization_invoices -->
<g id="node8" class="node">
<title>user_organization_invoices</title>
<polygon fill="#efefef" stroke="transparent" points="1679,-1001.5 1679,-1036.5 2038,-1036.5 2038,-1001.5 1679,-1001.5"/>
<polygon fill="none" stroke="#000000" points="1679,-1001.5 1679,-1036.5 2038,-1036.5 2038,-1001.5 1679,-1001.5"/>
<text text-anchor="start" x="1685.6909" y="-1014.3" font-family="Arial Bold" font-size="18.00" fill="#000000">user_organization_invoices</text>
<text text-anchor="start" x="1903.7411" y="-1014.3" font-family="Arial" font-size="14.00" fill="#000000">    </text>
<text text-anchor="start" x="1937.9459" y="-1014.3" font-family="Arial" font-size="14.00" fill="#666666">[BASE TABLE]</text>
<polygon fill="none" stroke="#000000" points="1679,-971.5 1679,-1001.5 2038,-1001.5 2038,-971.5 1679,-971.5"/>
<text text-anchor="start" x="1686" y="-982.9" font-family="Arial" font-size="14.00" fill="#000000">id    </text>
<text text-anchor="start" x="1731.094" y="-982.9" font-family="Arial" font-size="14.00" fill="#666666">[int]</text>
<polygon fill="none" stroke="#000000" points="1679,-941.5 1679,-971.5 2038,-971.5 2038,-941.5 1679,-941.5"/>
<text text-anchor="start" x="1686" y="-952.9" font-family="Arial" font-size="14.00" fill="#000000">userId    </text>
<text text-anchor="start" x="1759.1038" y="-952.9" font-family="Arial" font-size="14.00" fill="#666666">[int]</text>
<polygon fill="none" stroke="#000000" points="1679,-911.5 1679,-941.5 2038,-941.5 2038,-911.5 1679,-911.5"/>
<text text-anchor="start" x="1686" y="-922.9" font-family="Arial" font-size="14.00" fill="#000000">organizationId    </text>
<text text-anchor="start" x="1808.1206" y="-922.9" font-family="Arial" font-size="14.00" fill="#666666">[int]</text>
<polygon fill="none" stroke="#000000" points="1679,-881.5 1679,-911.5 2038,-911.5 2038,-881.5 1679,-881.5"/>
<text text-anchor="start" x="1686" y="-892.9" font-family="Arial" font-size="14.00" fill="#000000">invoiceId    </text>
<text text-anchor="start" x="1775.439" y="-892.9" font-family="Arial" font-size="14.00" fill="#666666">[int]</text>
<polygon fill="none" stroke="#000000" points="1679,-851.5 1679,-881.5 2038,-881.5 2038,-851.5 1679,-851.5"/>
<text text-anchor="start" x="1686" y="-862.9" font-family="Arial" font-size="14.00" fill="#000000">createdAt    </text>
<text text-anchor="start" x="1780.1136" y="-862.9" font-family="Arial" font-size="14.00" fill="#666666">[timestamp]</text>
<polygon fill="none" stroke="#000000" points="1679,-821.5 1679,-851.5 2038,-851.5 2038,-821.5 1679,-821.5"/>
<text text-anchor="start" x="1686" y="-832.9" font-family="Arial" font-size="14.00" fill="#000000">updatedAt    </text>
<text text-anchor="start" x="1784.0182" y="-832.9" font-family="Arial" font-size="14.00" fill="#666666">[timestamp]</text>
</g>
<!-- user_organization_invoices&#45;&gt;invoices -->
<g id="edge15" class="edge">
<title>user_organization_invoices:invoiceId&#45;&gt;invoices:id</title>
<path fill="none" stroke="#000000" stroke-dasharray="5,2" d="M1668.6024,-895.3265C1630.3623,-885.7432 1652.8638,-819.6727 1679,-779 1743.1881,-679.1118 1857.8119,-767.8882 1922,-668 1944.4651,-633.0403 1963.5556,-574.5 1922,-574.5"/>
<polygon fill="#000000" stroke="#000000" points="1669.0631,-895.3784 1678.4953,-900.9716 1674.0315,-895.9392 1679,-896.5 1679,-896.5 1679,-896.5 1674.0315,-895.9392 1679.5047,-892.0284 1669.0631,-895.3784 1669.0631,-895.3784"/>
<text text-anchor="start" x="1657.7765" y="-906.5" font-family="Arial" font-size="10.00" fill="#000000">n&#45;n</text>
</g>
<!-- user_organization_invoices&#45;&gt;organizations -->
<g id="edge13" class="edge">
<title>user_organization_invoices:organizationId&#45;&gt;organizations:id</title>
<path fill="none" stroke="#000000" stroke-dasharray="5,2" d="M1668.8399,-925.9658C1595.3303,-917.7084 1651.5009,-815.3789 1627,-734 1569.343,-542.4947 1620.2646,-454.3164 1485,-307 1386.503,-199.7271 1329.6336,-177.5 1184,-177.5"/>
<polygon fill="#000000" stroke="#000000" points="1669.0138,-925.9748 1678.7637,-930.9938 1674.0069,-926.2374 1679,-926.5 1679,-926.5 1679,-926.5 1674.0069,-926.2374 1679.2363,-922.0062 1669.0138,-925.9748 1669.0138,-925.9748"/>
<text text-anchor="start" x="1657.7765" y="-936.5" font-family="Arial" font-size="10.00" fill="#000000">1&#45;n</text>
</g>
<!-- user_organization_invoices&#45;&gt;users -->
<g id="edge14" class="edge">
<title>user_organization_invoices:userId&#45;&gt;users:id</title>
<path fill="none" stroke="#000000" stroke-dasharray="5,2" d="M1668.8256,-955.9389C1585.6031,-946.0502 1691.2134,-807.878 1627,-734 1597.9241,-700.548 1571.5969,-721.4717 1534,-698 1482.1109,-665.6056 1494.1709,-604.5 1433,-604.5"/>
<polygon fill="#000000" stroke="#000000" points="1669.0152,-955.9492 1678.7522,-960.9932 1674.0076,-956.2246 1679,-956.5 1679,-956.5 1679,-956.5 1674.0076,-956.2246 1679.2478,-952.0068 1669.0152,-955.9492 1669.0152,-955.9492"/>
<text text-anchor="start" x="1657.7765" y="-966.5" font-family="Arial" font-size="10.00" fill="#000000">1&#45;n</text>
</g>
<!-- user_organization_roles -->
<g id="node9" class="node">
<title>user_organization_roles</title>
<polygon fill="#efefef" stroke="transparent" points="476,-1001.5 476,-1036.5 809,-1036.5 809,-1001.5 476,-1001.5"/>
<polygon fill="none" stroke="#000000" points="476,-1001.5 476,-1036.5 809,-1036.5 809,-1001.5 476,-1001.5"/>
<text text-anchor="start" x="482.695" y="-1014.3" font-family="Arial Bold" font-size="18.00" fill="#000000">user_organization_roles</text>
<text text-anchor="start" x="674.737" y="-1014.3" font-family="Arial" font-size="14.00" fill="#000000">    </text>
<text text-anchor="start" x="708.9418" y="-1014.3" font-family="Arial" font-size="14.00" fill="#666666">[BASE TABLE]</text>
<polygon fill="none" stroke="#000000" points="476,-971.5 476,-1001.5 809,-1001.5 809,-971.5 476,-971.5"/>
<text text-anchor="start" x="483" y="-982.9" font-family="Arial" font-size="14.00" fill="#000000">id    </text>
<text text-anchor="start" x="528.094" y="-982.9" font-family="Arial" font-size="14.00" fill="#666666">[int]</text>
<polygon fill="none" stroke="#000000" points="476,-941.5 476,-971.5 809,-971.5 809,-941.5 476,-941.5"/>
<text text-anchor="start" x="483" y="-952.9" font-family="Arial" font-size="14.00" fill="#000000">userId    </text>
<text text-anchor="start" x="556.1038" y="-952.9" font-family="Arial" font-size="14.00" fill="#666666">[int]</text>
<polygon fill="none" stroke="#000000" points="476,-911.5 476,-941.5 809,-941.5 809,-911.5 476,-911.5"/>
<text text-anchor="start" x="483" y="-922.9" font-family="Arial" font-size="14.00" fill="#000000">organizationId    </text>
<text text-anchor="start" x="605.1206" y="-922.9" font-family="Arial" font-size="14.00" fill="#666666">[int]</text>
<polygon fill="none" stroke="#000000" points="476,-881.5 476,-911.5 809,-911.5 809,-881.5 476,-881.5"/>
<text text-anchor="start" x="483" y="-892.9" font-family="Arial" font-size="14.00" fill="#000000">roleId    </text>
<text text-anchor="start" x="552.2104" y="-892.9" font-family="Arial" font-size="14.00" fill="#666666">[int]</text>
<polygon fill="none" stroke="#000000" points="476,-851.5 476,-881.5 809,-881.5 809,-851.5 476,-851.5"/>
<text text-anchor="start" x="483" y="-862.9" font-family="Arial" font-size="14.00" fill="#000000">createdAt    </text>
<text text-anchor="start" x="577.1136" y="-862.9" font-family="Arial" font-size="14.00" fill="#666666">[timestamp]</text>
<polygon fill="none" stroke="#000000" points="476,-821.5 476,-851.5 809,-851.5 809,-821.5 476,-821.5"/>
<text text-anchor="start" x="483" y="-832.9" font-family="Arial" font-size="14.00" fill="#000000">updatedAt    </text>
<text text-anchor="start" x="581.0182" y="-832.9" font-family="Arial" font-size="14.00" fill="#666666">[timestamp]</text>
</g>
<!-- user_organization_roles&#45;&gt;organizations -->
<g id="edge4" class="edge">
<title>user_organization_roles:organizationId&#45;&gt;organizations:id</title>
<path fill="none" stroke="#000000" stroke-dasharray="5,2" d="M816.4227,-919.0869C856.1947,-841.298 896.2679,-177.5 936,-177.5"/>
<polygon fill="#000000" stroke="#000000" points="816.0756,-919.4335 805.8201,-923.316 812.5378,-922.9667 809,-926.5 809,-926.5 809,-926.5 812.5378,-922.9667 812.1799,-929.684 816.0756,-919.4335 816.0756,-919.4335"/>
<text text-anchor="start" x="787.7765" y="-936.5" font-family="Arial" font-size="10.00" fill="#000000">1&#45;n</text>
</g>
<!-- user_organization_roles&#45;&gt;roles -->
<g id="edge6" class="edge">
<title>user_organization_roles:roleId&#45;&gt;roles:id</title>
<path fill="none" stroke="#000000" stroke-dasharray="5,2" d="M819.3889,-895.332C857.5595,-885.7928 834.6091,-820.0066 809,-779 741.4047,-670.7627 618.5953,-761.2373 551,-653 528.988,-617.7532 509.4444,-559.5 551,-559.5"/>
<polygon fill="#000000" stroke="#000000" points="818.9374,-895.3827 808.4972,-892.0282 813.9687,-895.9413 809,-896.5 809,-896.5 809,-896.5 813.9687,-895.9413 809.5028,-900.9718 818.9374,-895.3827 818.9374,-895.3827"/>
<text text-anchor="start" x="787.7765" y="-906.5" font-family="Arial" font-size="10.00" fill="#000000">n&#45;n</text>
</g>
<!-- user_organization_roles&#45;&gt;users -->
<g id="edge5" class="edge">
<title>user_organization_roles:userId&#45;&gt;users:id</title>
<path fill="none" stroke="#000000" stroke-dasharray="5,2" d="M819.1557,-955.9342C902.1447,-945.963 794.568,-806.671 860,-734 889.7067,-701.0068 1193.6036,-604.5 1238,-604.5"/>
<polygon fill="#000000" stroke="#000000" points="818.9845,-955.9436 808.7496,-952.007 813.9923,-956.2218 809,-956.5 809,-956.5 809,-956.5 813.9923,-956.2218 809.2504,-960.993 818.9845,-955.9436 818.9845,-955.9436"/>
<text text-anchor="start" x="787.7765" y="-966.5" font-family="Arial" font-size="10.00" fill="#000000">1&#45;n</text>
</g>
<!-- user_organizations -->
<g id="node10" class="node">
<title>user_organizations</title>
<polygon fill="#efefef" stroke="transparent" points="913,-986.5 913,-1021.5 1206,-1021.5 1206,-986.5 913,-986.5"/>
<polygon fill="none" stroke="#000000" points="913,-986.5 913,-1021.5 1206,-1021.5 1206,-986.5 913,-986.5"/>
<text text-anchor="start" x="919.6975" y="-999.3" font-family="Arial Bold" font-size="18.00" fill="#000000">user_organizations</text>
<text text-anchor="start" x="1071.7345" y="-999.3" font-family="Arial" font-size="14.00" fill="#000000">    </text>
<text text-anchor="start" x="1105.9393" y="-999.3" font-family="Arial" font-size="14.00" fill="#666666">[BASE TABLE]</text>
<polygon fill="none" stroke="#000000" points="913,-956.5 913,-986.5 1206,-986.5 1206,-956.5 913,-956.5"/>
<text text-anchor="start" x="920" y="-967.9" font-family="Arial" font-size="14.00" fill="#000000">id    </text>
<text text-anchor="start" x="965.094" y="-967.9" font-family="Arial" font-size="14.00" fill="#666666">[int]</text>
<polygon fill="none" stroke="#000000" points="913,-926.5 913,-956.5 1206,-956.5 1206,-926.5 913,-926.5"/>
<text text-anchor="start" x="920" y="-937.9" font-family="Arial" font-size="14.00" fill="#000000">userId    </text>
<text text-anchor="start" x="993.1038" y="-937.9" font-family="Arial" font-size="14.00" fill="#666666">[int]</text>
<polygon fill="none" stroke="#000000" points="913,-896.5 913,-926.5 1206,-926.5 1206,-896.5 913,-896.5"/>
<text text-anchor="start" x="920" y="-907.9" font-family="Arial" font-size="14.00" fill="#000000">organizationId    </text>
<text text-anchor="start" x="1042.1206" y="-907.9" font-family="Arial" font-size="14.00" fill="#666666">[int]</text>
<polygon fill="none" stroke="#000000" points="913,-866.5 913,-896.5 1206,-896.5 1206,-866.5 913,-866.5"/>
<text text-anchor="start" x="920" y="-877.9" font-family="Arial" font-size="14.00" fill="#000000">createdAt    </text>
<text text-anchor="start" x="1014.1136" y="-877.9" font-family="Arial" font-size="14.00" fill="#666666">[timestamp]</text>
<polygon fill="none" stroke="#000000" points="913,-836.5 913,-866.5 1206,-866.5 1206,-836.5 913,-836.5"/>
<text text-anchor="start" x="920" y="-847.9" font-family="Arial" font-size="14.00" fill="#000000">updatedAt    </text>
<text text-anchor="start" x="1018.0182" y="-847.9" font-family="Arial" font-size="14.00" fill="#666666">[timestamp]</text>
</g>
<!-- user_organizations&#45;&gt;organizations -->
<g id="edge7" class="edge">
<title>user_organizations:organizationId&#45;&gt;organizations:id</title>
<path fill="none" stroke="#000000" stroke-dasharray="5,2" d="M1216.2694,-910.9651C1293.2108,-902.2619 1194.9342,-789.0822 1185,-698 1184.902,-697.1017 1184.9036,-177.5 1184,-177.5"/>
<polygon fill="#000000" stroke="#000000" points="1215.9865,-910.9797 1205.7659,-907.0061 1210.9932,-911.2399 1206,-911.5 1206,-911.5 1206,-911.5 1210.9932,-911.2399 1206.2341,-915.9939 1215.9865,-910.9797 1215.9865,-910.9797"/>
<text text-anchor="start" x="1184.7765" y="-921.5" font-family="Arial" font-size="10.00" fill="#000000">1&#45;n</text>
</g>
<!-- user_organizations&#45;&gt;users -->
<g id="edge8" class="edge">
<title>user_organizations:userId&#45;&gt;users:id</title>
<path fill="none" stroke="#000000" stroke-dasharray="5,2" d="M1216.2817,-940.9072C1343.5714,-925.2458 1091.2216,-604.5 1238,-604.5"/>
<polygon fill="#000000" stroke="#000000" points="1215.9834,-940.9243 1205.7409,-937.0075 1210.9917,-941.2122 1206,-941.5 1206,-941.5 1206,-941.5 1210.9917,-941.2122 1206.2591,-945.9925 1215.9834,-940.9243 1215.9834,-940.9243"/>
<text text-anchor="start" x="1184.7765" y="-951.5" font-family="Arial" font-size="10.00" fill="#000000">1&#45;n</text>
</g>
</g>
</svg>
