<?xml version="1.0" encoding="UTF-8" standalone="no"?>
<!DOCTYPE svg PUBLIC "-//W3C//DTD SVG 1.1//EN"
 "http://www.w3.org/Graphics/SVG/1.1/DTD/svg11.dtd">
<!-- Generated by graphviz version 2.40.1 (20161225.0304)
 -->
<!-- Title: user_organization_roles Pages: 1 -->
<svg width="930pt" height="802pt"
 viewBox="0.00 0.00 929.50 802.00" xmlns="http://www.w3.org/2000/svg" xmlns:xlink="http://www.w3.org/1999/xlink">
<g id="graph0" class="graph" transform="scale(1 1) rotate(0) translate(4 798)">
<title>user_organization_roles</title>
<polygon fill="#ffffff" stroke="transparent" points="-4,4 -4,-798 925.5,-798 925.5,4 -4,4"/>
<!-- user_organization_roles -->
<g id="node1" class="node">
<title>user_organization_roles</title>
<polygon fill="#efefef" stroke="transparent" points="299.5,-712.5 299.5,-747.5 632.5,-747.5 632.5,-712.5 299.5,-712.5"/>
<polygon fill="none" stroke="#000000" points="299.5,-712.5 299.5,-747.5 632.5,-747.5 632.5,-712.5 299.5,-712.5"/>
<text text-anchor="start" x="306.195" y="-725.3" font-family="Arial Bold" font-size="18.00" fill="#000000">user_organization_roles</text>
<text text-anchor="start" x="498.237" y="-725.3" font-family="Arial" font-size="14.00" fill="#000000">    </text>
<text text-anchor="start" x="532.4418" y="-725.3" font-family="Arial" font-size="14.00" fill="#666666">[BASE TABLE]</text>
<polygon fill="none" stroke="#000000" points="299.5,-682.5 299.5,-712.5 632.5,-712.5 632.5,-682.5 299.5,-682.5"/>
<text text-anchor="start" x="306.5" y="-693.9" font-family="Arial" font-size="14.00" fill="#000000">id </text>
<text text-anchor="start" x="321.2798" y="-693.9" font-family="Arial" font-size="14.00" fill="#666666">[int]</text>
<polygon fill="none" stroke="#000000" points="299.5,-652.5 299.5,-682.5 632.5,-682.5 632.5,-652.5 299.5,-652.5"/>
<text text-anchor="start" x="306.5" y="-663.9" font-family="Arial" font-size="14.00" fill="#000000">userId </text>
<text text-anchor="start" x="349.2896" y="-663.9" font-family="Arial" font-size="14.00" fill="#666666">[int]</text>
<polygon fill="none" stroke="#000000" points="299.5,-622.5 299.5,-652.5 632.5,-652.5 632.5,-622.5 299.5,-622.5"/>
<text text-anchor="start" x="306.5" y="-633.9" font-family="Arial" font-size="14.00" fill="#000000">organizationId </text>
<text text-anchor="start" x="398.3064" y="-633.9" font-family="Arial" font-size="14.00" fill="#666666">[int]</text>
<polygon fill="none" stroke="#000000" points="299.5,-592.5 299.5,-622.5 632.5,-622.5 632.5,-592.5 299.5,-592.5"/>
<text text-anchor="start" x="306.5" y="-603.9" font-family="Arial" font-size="14.00" fill="#000000">roleId </text>
<text text-anchor="start" x="345.3962" y="-603.9" font-family="Arial" font-size="14.00" fill="#666666">[int]</text>
<polygon fill="none" stroke="#000000" points="299.5,-562.5 299.5,-592.5 632.5,-592.5 632.5,-562.5 299.5,-562.5"/>
<text text-anchor="start" x="306.5" y="-573.9" font-family="Arial" font-size="14.00" fill="#000000">createdAt </text>
<text text-anchor="start" x="370.2994" y="-573.9" font-family="Arial" font-size="14.00" fill="#666666">[timestamp]</text>
<polygon fill="none" stroke="#000000" points="299.5,-532.5 299.5,-562.5 632.5,-562.5 632.5,-532.5 299.5,-532.5"/>
<text text-anchor="start" x="306.5" y="-543.9" font-family="Arial" font-size="14.00" fill="#000000">updatedAt </text>
<text text-anchor="start" x="374.204" y="-543.9" font-family="Arial" font-size="14.00" fill="#666666">[timestamp]</text>
<polygon fill="none" stroke="#000000" stroke-width="3" points="297.5,-531.5 297.5,-749.5 633.5,-749.5 633.5,-531.5 297.5,-531.5"/>
</g>
<!-- users -->
<g id="node2" class="node">
<title>users</title>
<polygon fill="#efefef" stroke="transparent" points="43.5,-342.5 43.5,-377.5 238.5,-377.5 238.5,-342.5 43.5,-342.5"/>
<polygon fill="none" stroke="#000000" points="43.5,-342.5 43.5,-377.5 238.5,-377.5 238.5,-342.5 43.5,-342.5"/>
<text text-anchor="start" x="55.2137" y="-355.3" font-family="Arial Bold" font-size="18.00" fill="#000000">users</text>
<text text-anchor="start" x="99.2183" y="-355.3" font-family="Arial" font-size="14.00" fill="#000000">    </text>
<text text-anchor="start" x="133.4231" y="-355.3" font-family="Arial" font-size="14.00" fill="#666666">[BASE TABLE]</text>
<polygon fill="none" stroke="#000000" points="43.5,-312.5 43.5,-342.5 238.5,-342.5 238.5,-312.5 43.5,-312.5"/>
<text text-anchor="start" x="50.5" y="-323.9" font-family="Arial" font-size="14.00" fill="#000000">id    </text>
<text text-anchor="start" x="95.594" y="-323.9" font-family="Arial" font-size="14.00" fill="#666666">[int]</text>
<polygon fill="none" stroke="#000000" points="43.5,-282.5 43.5,-312.5 238.5,-312.5 238.5,-282.5 43.5,-282.5"/>
<text text-anchor="start" x="50.5" y="-293.9" font-family="Arial" font-size="14.00" fill="#000000">name    </text>
<text text-anchor="start" x="119.7132" y="-293.9" font-family="Arial" font-size="14.00" fill="#666666">[varchar(255)]</text>
<polygon fill="none" stroke="#000000" points="43.5,-252.5 43.5,-282.5 238.5,-282.5 238.5,-252.5 43.5,-252.5"/>
<text text-anchor="start" x="50.5" y="-263.9" font-family="Arial" font-size="14.00" fill="#000000">email    </text>
<text text-anchor="start" x="118.1438" y="-263.9" font-family="Arial" font-size="14.00" fill="#666666">[varchar(255)]</text>
<polygon fill="none" stroke="#000000" points="43.5,-222.5 43.5,-252.5 238.5,-252.5 238.5,-222.5 43.5,-222.5"/>
<text text-anchor="start" x="50.3892" y="-233.9" font-family="Arial" font-size="14.00" fill="#000000">password    </text>
<text text-anchor="start" x="144.4916" y="-233.9" font-family="Arial" font-size="14.00" fill="#666666">[varchar(255)]</text>
<polygon fill="none" stroke="#000000" points="43.5,-192.5 43.5,-222.5 238.5,-222.5 238.5,-192.5 43.5,-192.5"/>
<text text-anchor="start" x="50.5" y="-203.9" font-family="Arial" font-size="14.00" fill="#000000">createdAt    </text>
<text text-anchor="start" x="144.6136" y="-203.9" font-family="Arial" font-size="14.00" fill="#666666">[timestamp]</text>
<polygon fill="none" stroke="#000000" points="43.5,-162.5 43.5,-192.5 238.5,-192.5 238.5,-162.5 43.5,-162.5"/>
<text text-anchor="start" x="50.5" y="-173.9" font-family="Arial" font-size="14.00" fill="#000000">updatedAt    </text>
<text text-anchor="start" x="148.5182" y="-173.9" font-family="Arial" font-size="14.00" fill="#666666">[timestamp]</text>
<polygon fill="none" stroke="#000000" points="43.5,-132.5 43.5,-162.5 238.5,-162.5 238.5,-132.5 43.5,-132.5"/>
<text text-anchor="start" x="50.5" y="-143.9" font-family="Arial" font-size="14.00" fill="#000000">phone    </text>
<text text-anchor="start" x="123.6178" y="-143.9" font-family="Arial" font-size="14.00" fill="#666666">[varchar(255)]</text>
<polygon fill="none" stroke="#000000" points="43.5,-102.5 43.5,-132.5 238.5,-132.5 238.5,-102.5 43.5,-102.5"/>
<text text-anchor="start" x="50.5" y="-113.9" font-family="Arial" font-size="14.00" fill="#000000">address    </text>
<text text-anchor="start" x="134.4958" y="-113.9" font-family="Arial" font-size="14.00" fill="#666666">[varchar(255)]</text>
<polygon fill="none" stroke="#000000" points="43.5,-72.5 43.5,-102.5 238.5,-102.5 238.5,-72.5 43.5,-72.5"/>
<text text-anchor="start" x="50.5" y="-83.9" font-family="Arial" font-size="14.00" fill="#000000">avatar    </text>
<text text-anchor="start" x="123.6038" y="-83.9" font-family="Arial" font-size="14.00" fill="#666666">[varchar(255)]</text>
</g>
<!-- user_organization_roles&#45;&gt;users -->
<g id="edge1" class="edge">
<title>user_organization_roles:userId&#45;&gt;users:id</title>
<path fill="none" stroke="#000000" stroke-dasharray="5,2" d="M289.427,-665.1473C231.37,-635.1075 311.5138,-327.5 238.5,-327.5"/>
<polygon fill="#000000" stroke="#000000" points="289.7621,-665.2255 298.4765,-671.8821 294.631,-666.3627 299.5,-667.5 299.5,-667.5 299.5,-667.5 294.631,-666.3627 300.5235,-663.1179 289.7621,-665.2255 289.7621,-665.2255"/>
<text text-anchor="start" x="278.2765" y="-677.5" font-family="Arial" font-size="10.00" fill="#000000">1&#45;n</text>
</g>
<!-- organizations -->
<g id="node3" class="node">
<title>organizations</title>
<polygon fill="#efefef" stroke="transparent" points="342.5,-372.5 342.5,-407.5 590.5,-407.5 590.5,-372.5 342.5,-372.5"/>
<polygon fill="none" stroke="#000000" points="342.5,-372.5 342.5,-407.5 590.5,-407.5 590.5,-372.5 342.5,-372.5"/>
<text text-anchor="start" x="349.2029" y="-385.3" font-family="Arial Bold" font-size="18.00" fill="#000000">organizations</text>
<text text-anchor="start" x="456.2291" y="-385.3" font-family="Arial" font-size="14.00" fill="#000000">    </text>
<text text-anchor="start" x="490.4339" y="-385.3" font-family="Arial" font-size="14.00" fill="#666666">[BASE TABLE]</text>
<polygon fill="none" stroke="#000000" points="342.5,-342.5 342.5,-372.5 590.5,-372.5 590.5,-342.5 342.5,-342.5"/>
<text text-anchor="start" x="349.5" y="-353.9" font-family="Arial" font-size="14.00" fill="#000000">id    </text>
<text text-anchor="start" x="394.594" y="-353.9" font-family="Arial" font-size="14.00" fill="#666666">[int]</text>
<polygon fill="none" stroke="#000000" points="342.5,-312.5 342.5,-342.5 590.5,-342.5 590.5,-312.5 342.5,-312.5"/>
<text text-anchor="start" x="349.5" y="-323.9" font-family="Arial" font-size="14.00" fill="#000000">name    </text>
<text text-anchor="start" x="418.7132" y="-323.9" font-family="Arial" font-size="14.00" fill="#666666">[varchar(255)]</text>
<polygon fill="none" stroke="#000000" points="342.5,-282.5 342.5,-312.5 590.5,-312.5 590.5,-282.5 342.5,-282.5"/>
<text text-anchor="start" x="349.5" y="-293.9" font-family="Arial" font-size="14.00" fill="#000000">uniqueName    </text>
<text text-anchor="start" x="463.0568" y="-293.9" font-family="Arial" font-size="14.00" fill="#666666">[varchar(255)]</text>
<polygon fill="none" stroke="#000000" points="342.5,-252.5 342.5,-282.5 590.5,-282.5 590.5,-252.5 342.5,-252.5"/>
<text text-anchor="start" x="349.5" y="-263.9" font-family="Arial" font-size="14.00" fill="#000000">createdAt    </text>
<text text-anchor="start" x="443.6136" y="-263.9" font-family="Arial" font-size="14.00" fill="#666666">[timestamp]</text>
<polygon fill="none" stroke="#000000" points="342.5,-222.5 342.5,-252.5 590.5,-252.5 590.5,-222.5 342.5,-222.5"/>
<text text-anchor="start" x="349.5" y="-233.9" font-family="Arial" font-size="14.00" fill="#000000">updatedAt    </text>
<text text-anchor="start" x="447.5182" y="-233.9" font-family="Arial" font-size="14.00" fill="#666666">[timestamp]</text>
<polygon fill="none" stroke="#000000" points="342.5,-192.5 342.5,-222.5 590.5,-222.5 590.5,-192.5 342.5,-192.5"/>
<text text-anchor="start" x="349.5" y="-203.9" font-family="Arial" font-size="14.00" fill="#000000">phone    </text>
<text text-anchor="start" x="422.6178" y="-203.9" font-family="Arial" font-size="14.00" fill="#666666">[varchar(255)]</text>
<polygon fill="none" stroke="#000000" points="342.5,-162.5 342.5,-192.5 590.5,-192.5 590.5,-162.5 342.5,-162.5"/>
<text text-anchor="start" x="349.5" y="-173.9" font-family="Arial" font-size="14.00" fill="#000000">address    </text>
<text text-anchor="start" x="433.4958" y="-173.9" font-family="Arial" font-size="14.00" fill="#666666">[varchar(255)]</text>
<polygon fill="none" stroke="#000000" points="342.5,-132.5 342.5,-162.5 590.5,-162.5 590.5,-132.5 342.5,-132.5"/>
<text text-anchor="start" x="349.5" y="-143.9" font-family="Arial" font-size="14.00" fill="#000000">dateFormat    </text>
<text text-anchor="start" x="455.2728" y="-143.9" font-family="Arial" font-size="14.00" fill="#666666">[varchar(255)]</text>
<polygon fill="none" stroke="#000000" points="342.5,-102.5 342.5,-132.5 590.5,-132.5 590.5,-102.5 342.5,-102.5"/>
<text text-anchor="start" x="349.5" y="-113.9" font-family="Arial" font-size="14.00" fill="#000000">currency    </text>
<text text-anchor="start" x="437.3738" y="-113.9" font-family="Arial" font-size="14.00" fill="#666666">[enum(&#39;vnd&#39;,&#39;usd&#39;)]</text>
<polygon fill="none" stroke="#000000" points="342.5,-72.5 342.5,-102.5 590.5,-102.5 590.5,-72.5 342.5,-72.5"/>
<text text-anchor="start" x="349.5" y="-83.9" font-family="Arial" font-size="14.00" fill="#000000">bank    </text>
<text text-anchor="start" x="414.0526" y="-83.9" font-family="Arial" font-size="14.00" fill="#666666">[enum(&#39;bidv&#39;,&#39;vcb&#39;)]</text>
<polygon fill="none" stroke="#000000" points="342.5,-42.5 342.5,-72.5 590.5,-72.5 590.5,-42.5 342.5,-42.5"/>
<text text-anchor="start" x="349.5" y="-53.9" font-family="Arial" font-size="14.00" fill="#000000">exchangeRate    </text>
<text text-anchor="start" x="473.9628" y="-53.9" font-family="Arial" font-size="14.00" fill="#666666">[int]</text>
</g>
<!-- user_organization_roles&#45;&gt;organizations -->
<g id="edge2" class="edge">
<title>user_organization_roles:organizationId&#45;&gt;organizations:id</title>
<path fill="none" stroke="#000000" stroke-dasharray="5,2" d="M642.6821,-636.6241C696.8521,-626.6719 674.3665,-534.3851 632.5,-487 546.505,-389.6696 428.495,-548.3304 342.5,-451 314.9852,-419.8584 300.9444,-357.5 342.5,-357.5"/>
<polygon fill="#000000" stroke="#000000" points="642.4632,-636.6428 632.1143,-633.0166 637.4816,-637.0714 632.5,-637.5 632.5,-637.5 632.5,-637.5 637.4816,-637.0714 632.8857,-641.9834 642.4632,-636.6428 642.4632,-636.6428"/>
<text text-anchor="start" x="611.2765" y="-647.5" font-family="Arial" font-size="10.00" fill="#000000">1&#45;n</text>
</g>
<!-- roles -->
<g id="node4" class="node">
<title>roles</title>
<polygon fill="#efefef" stroke="transparent" points="694.5,-297.5 694.5,-332.5 878.5,-332.5 878.5,-297.5 694.5,-297.5"/>
<polygon fill="none" stroke="#000000" points="694.5,-297.5 694.5,-332.5 878.5,-332.5 878.5,-297.5 694.5,-297.5"/>
<text text-anchor="start" x="703.2166" y="-310.3" font-family="Arial Bold" font-size="18.00" fill="#000000">roles</text>
<text text-anchor="start" x="742.2154" y="-310.3" font-family="Arial" font-size="14.00" fill="#000000">    </text>
<text text-anchor="start" x="776.4202" y="-310.3" font-family="Arial" font-size="14.00" fill="#666666">[BASE TABLE]</text>
<polygon fill="none" stroke="#000000" points="694.5,-267.5 694.5,-297.5 878.5,-297.5 878.5,-267.5 694.5,-267.5"/>
<text text-anchor="start" x="701.5" y="-278.9" font-family="Arial" font-size="14.00" fill="#000000">id    </text>
<text text-anchor="start" x="746.594" y="-278.9" font-family="Arial" font-size="14.00" fill="#666666">[int]</text>
<polygon fill="none" stroke="#000000" points="694.5,-237.5 694.5,-267.5 878.5,-267.5 878.5,-237.5 694.5,-237.5"/>
<text text-anchor="start" x="701.5" y="-248.9" font-family="Arial" font-size="14.00" fill="#000000">name    </text>
<text text-anchor="start" x="770.7132" y="-248.9" font-family="Arial" font-size="14.00" fill="#666666">[varchar(255)]</text>
<polygon fill="none" stroke="#000000" points="694.5,-207.5 694.5,-237.5 878.5,-237.5 878.5,-207.5 694.5,-207.5"/>
<text text-anchor="start" x="701.5" y="-218.9" font-family="Arial" font-size="14.00" fill="#000000">slug    </text>
<text text-anchor="start" x="761.3766" y="-218.9" font-family="Arial" font-size="14.00" fill="#666666">[varchar(255)]</text>
<polygon fill="none" stroke="#000000" points="694.5,-177.5 694.5,-207.5 878.5,-207.5 878.5,-177.5 694.5,-177.5"/>
<text text-anchor="start" x="701.5" y="-188.9" font-family="Arial" font-size="14.00" fill="#000000">createdAt    </text>
<text text-anchor="start" x="795.6136" y="-188.9" font-family="Arial" font-size="14.00" fill="#666666">[timestamp]</text>
<polygon fill="none" stroke="#000000" points="694.5,-147.5 694.5,-177.5 878.5,-177.5 878.5,-147.5 694.5,-147.5"/>
<text text-anchor="start" x="701.3219" y="-158.9" font-family="Arial" font-size="14.00" fill="#000000">updatedAt    </text>
<text text-anchor="start" x="799.3401" y="-158.9" font-family="Arial" font-size="14.00" fill="#666666">[timestamp]</text>
<polygon fill="none" stroke="#000000" points="694.5,-117.5 694.5,-147.5 878.5,-147.5 878.5,-117.5 694.5,-117.5"/>
<text text-anchor="start" x="701.5" y="-128.9" font-family="Arial" font-size="14.00" fill="#000000">organizationId    </text>
<text text-anchor="start" x="823.6206" y="-128.9" font-family="Arial" font-size="14.00" fill="#666666">[int]</text>
</g>
<!-- user_organization_roles&#45;&gt;roles -->
<g id="edge3" class="edge">
<title>user_organization_roles:roleId&#45;&gt;roles:id</title>
<path fill="none" stroke="#000000" stroke-dasharray="5,2" d="M642.6033,-606.9283C768.4424,-591.8246 551.0407,-282.5 694.5,-282.5"/>
<polygon fill="#000000" stroke="#000000" points="642.484,-606.935 632.2457,-603.0072 637.492,-607.2175 632.5,-607.5 632.5,-607.5 632.5,-607.5 637.492,-607.2175 632.7543,-611.9928 642.484,-606.935 642.484,-606.935"/>
<text text-anchor="start" x="611.2765" y="-617.5" font-family="Arial" font-size="10.00" fill="#000000">n&#45;n</text>
</g>
</g>
</svg>
