<?xml version="1.0" encoding="UTF-8" standalone="no"?>
<!DOCTYPE svg PUBLIC "-//W3C//DTD SVG 1.1//EN"
 "http://www.w3.org/Graphics/SVG/1.1/DTD/svg11.dtd">
<!-- Generated by graphviz version 2.40.1 (20161225.0304)
 -->
<!-- Title: user_organization_invoices Pages: 1 -->
<svg width="987pt" height="862pt"
 viewBox="0.00 0.00 987.00 862.00" xmlns="http://www.w3.org/2000/svg" xmlns:xlink="http://www.w3.org/1999/xlink">
<g id="graph0" class="graph" transform="scale(1 1) rotate(0) translate(4 858)">
<title>user_organization_invoices</title>
<polygon fill="#ffffff" stroke="transparent" points="-4,4 -4,-858 983,-858 983,4 -4,4"/>
<!-- user_organization_invoices -->
<g id="node1" class="node">
<title>user_organization_invoices</title>
<polygon fill="#efefef" stroke="transparent" points="286.5,-772.5 286.5,-807.5 645.5,-807.5 645.5,-772.5 286.5,-772.5"/>
<polygon fill="none" stroke="#000000" points="286.5,-772.5 286.5,-807.5 645.5,-807.5 645.5,-772.5 286.5,-772.5"/>
<text text-anchor="start" x="293.1909" y="-785.3" font-family="Arial Bold" font-size="18.00" fill="#000000">user_organization_invoices</text>
<text text-anchor="start" x="511.2411" y="-785.3" font-family="Arial" font-size="14.00" fill="#000000">    </text>
<text text-anchor="start" x="545.4459" y="-785.3" font-family="Arial" font-size="14.00" fill="#666666">[BASE TABLE]</text>
<polygon fill="none" stroke="#000000" points="286.5,-742.5 286.5,-772.5 645.5,-772.5 645.5,-742.5 286.5,-742.5"/>
<text text-anchor="start" x="293.5" y="-753.9" font-family="Arial" font-size="14.00" fill="#000000">id </text>
<text text-anchor="start" x="308.2798" y="-753.9" font-family="Arial" font-size="14.00" fill="#666666">[int]</text>
<polygon fill="none" stroke="#000000" points="286.5,-712.5 286.5,-742.5 645.5,-742.5 645.5,-712.5 286.5,-712.5"/>
<text text-anchor="start" x="293.5" y="-723.9" font-family="Arial" font-size="14.00" fill="#000000">userId </text>
<text text-anchor="start" x="336.2896" y="-723.9" font-family="Arial" font-size="14.00" fill="#666666">[int]</text>
<polygon fill="none" stroke="#000000" points="286.5,-682.5 286.5,-712.5 645.5,-712.5 645.5,-682.5 286.5,-682.5"/>
<text text-anchor="start" x="293.5" y="-693.9" font-family="Arial" font-size="14.00" fill="#000000">organizationId </text>
<text text-anchor="start" x="385.3064" y="-693.9" font-family="Arial" font-size="14.00" fill="#666666">[int]</text>
<polygon fill="none" stroke="#000000" points="286.5,-652.5 286.5,-682.5 645.5,-682.5 645.5,-652.5 286.5,-652.5"/>
<text text-anchor="start" x="293.5" y="-663.9" font-family="Arial" font-size="14.00" fill="#000000">invoiceId </text>
<text text-anchor="start" x="352.6248" y="-663.9" font-family="Arial" font-size="14.00" fill="#666666">[int]</text>
<polygon fill="none" stroke="#000000" points="286.5,-622.5 286.5,-652.5 645.5,-652.5 645.5,-622.5 286.5,-622.5"/>
<text text-anchor="start" x="293.5" y="-633.9" font-family="Arial" font-size="14.00" fill="#000000">createdAt </text>
<text text-anchor="start" x="357.2994" y="-633.9" font-family="Arial" font-size="14.00" fill="#666666">[timestamp]</text>
<polygon fill="none" stroke="#000000" points="286.5,-592.5 286.5,-622.5 645.5,-622.5 645.5,-592.5 286.5,-592.5"/>
<text text-anchor="start" x="293.5" y="-603.9" font-family="Arial" font-size="14.00" fill="#000000">updatedAt </text>
<text text-anchor="start" x="361.204" y="-603.9" font-family="Arial" font-size="14.00" fill="#666666">[timestamp]</text>
<polygon fill="none" stroke="#000000" stroke-width="3" points="284.5,-591.5 284.5,-809.5 646.5,-809.5 646.5,-591.5 284.5,-591.5"/>
</g>
<!-- users -->
<g id="node2" class="node">
<title>users</title>
<polygon fill="#efefef" stroke="transparent" points="43.5,-372.5 43.5,-407.5 238.5,-407.5 238.5,-372.5 43.5,-372.5"/>
<polygon fill="none" stroke="#000000" points="43.5,-372.5 43.5,-407.5 238.5,-407.5 238.5,-372.5 43.5,-372.5"/>
<text text-anchor="start" x="55.2137" y="-385.3" font-family="Arial Bold" font-size="18.00" fill="#000000">users</text>
<text text-anchor="start" x="99.2183" y="-385.3" font-family="Arial" font-size="14.00" fill="#000000">    </text>
<text text-anchor="start" x="133.4231" y="-385.3" font-family="Arial" font-size="14.00" fill="#666666">[BASE TABLE]</text>
<polygon fill="none" stroke="#000000" points="43.5,-342.5 43.5,-372.5 238.5,-372.5 238.5,-342.5 43.5,-342.5"/>
<text text-anchor="start" x="50.5" y="-353.9" font-family="Arial" font-size="14.00" fill="#000000">id    </text>
<text text-anchor="start" x="95.594" y="-353.9" font-family="Arial" font-size="14.00" fill="#666666">[int]</text>
<polygon fill="none" stroke="#000000" points="43.5,-312.5 43.5,-342.5 238.5,-342.5 238.5,-312.5 43.5,-312.5"/>
<text text-anchor="start" x="50.5" y="-323.9" font-family="Arial" font-size="14.00" fill="#000000">name    </text>
<text text-anchor="start" x="119.7132" y="-323.9" font-family="Arial" font-size="14.00" fill="#666666">[varchar(255)]</text>
<polygon fill="none" stroke="#000000" points="43.5,-282.5 43.5,-312.5 238.5,-312.5 238.5,-282.5 43.5,-282.5"/>
<text text-anchor="start" x="50.5" y="-293.9" font-family="Arial" font-size="14.00" fill="#000000">email    </text>
<text text-anchor="start" x="118.1438" y="-293.9" font-family="Arial" font-size="14.00" fill="#666666">[varchar(255)]</text>
<polygon fill="none" stroke="#000000" points="43.5,-252.5 43.5,-282.5 238.5,-282.5 238.5,-252.5 43.5,-252.5"/>
<text text-anchor="start" x="50.3892" y="-263.9" font-family="Arial" font-size="14.00" fill="#000000">password    </text>
<text text-anchor="start" x="144.4916" y="-263.9" font-family="Arial" font-size="14.00" fill="#666666">[varchar(255)]</text>
<polygon fill="none" stroke="#000000" points="43.5,-222.5 43.5,-252.5 238.5,-252.5 238.5,-222.5 43.5,-222.5"/>
<text text-anchor="start" x="50.5" y="-233.9" font-family="Arial" font-size="14.00" fill="#000000">createdAt    </text>
<text text-anchor="start" x="144.6136" y="-233.9" font-family="Arial" font-size="14.00" fill="#666666">[timestamp]</text>
<polygon fill="none" stroke="#000000" points="43.5,-192.5 43.5,-222.5 238.5,-222.5 238.5,-192.5 43.5,-192.5"/>
<text text-anchor="start" x="50.5" y="-203.9" font-family="Arial" font-size="14.00" fill="#000000">updatedAt    </text>
<text text-anchor="start" x="148.5182" y="-203.9" font-family="Arial" font-size="14.00" fill="#666666">[timestamp]</text>
<polygon fill="none" stroke="#000000" points="43.5,-162.5 43.5,-192.5 238.5,-192.5 238.5,-162.5 43.5,-162.5"/>
<text text-anchor="start" x="50.5" y="-173.9" font-family="Arial" font-size="14.00" fill="#000000">phone    </text>
<text text-anchor="start" x="123.6178" y="-173.9" font-family="Arial" font-size="14.00" fill="#666666">[varchar(255)]</text>
<polygon fill="none" stroke="#000000" points="43.5,-132.5 43.5,-162.5 238.5,-162.5 238.5,-132.5 43.5,-132.5"/>
<text text-anchor="start" x="50.5" y="-143.9" font-family="Arial" font-size="14.00" fill="#000000">address    </text>
<text text-anchor="start" x="134.4958" y="-143.9" font-family="Arial" font-size="14.00" fill="#666666">[varchar(255)]</text>
<polygon fill="none" stroke="#000000" points="43.5,-102.5 43.5,-132.5 238.5,-132.5 238.5,-102.5 43.5,-102.5"/>
<text text-anchor="start" x="50.5" y="-113.9" font-family="Arial" font-size="14.00" fill="#000000">avatar    </text>
<text text-anchor="start" x="123.6038" y="-113.9" font-family="Arial" font-size="14.00" fill="#666666">[varchar(255)]</text>
</g>
<!-- user_organization_invoices&#45;&gt;users -->
<g id="edge1" class="edge">
<title>user_organization_invoices:userId&#45;&gt;users:id</title>
<path fill="none" stroke="#000000" stroke-dasharray="5,2" d="M276.5052,-725.3271C213.7693,-695.0045 317.6867,-357.5 238.5,-357.5"/>
<polygon fill="#000000" stroke="#000000" points="276.7283,-725.3755 285.544,-731.8973 281.6141,-726.4378 286.5,-727.5 286.5,-727.5 286.5,-727.5 281.6141,-726.4378 287.456,-723.1027 276.7283,-725.3755 276.7283,-725.3755"/>
<text text-anchor="start" x="265.2765" y="-737.5" font-family="Arial" font-size="10.00" fill="#000000">1&#45;n</text>
</g>
<!-- organizations -->
<g id="node3" class="node">
<title>organizations</title>
<polygon fill="#efefef" stroke="transparent" points="342.5,-342.5 342.5,-377.5 590.5,-377.5 590.5,-342.5 342.5,-342.5"/>
<polygon fill="none" stroke="#000000" points="342.5,-342.5 342.5,-377.5 590.5,-377.5 590.5,-342.5 342.5,-342.5"/>
<text text-anchor="start" x="349.2029" y="-355.3" font-family="Arial Bold" font-size="18.00" fill="#000000">organizations</text>
<text text-anchor="start" x="456.2291" y="-355.3" font-family="Arial" font-size="14.00" fill="#000000">    </text>
<text text-anchor="start" x="490.4339" y="-355.3" font-family="Arial" font-size="14.00" fill="#666666">[BASE TABLE]</text>
<polygon fill="none" stroke="#000000" points="342.5,-312.5 342.5,-342.5 590.5,-342.5 590.5,-312.5 342.5,-312.5"/>
<text text-anchor="start" x="349.5" y="-323.9" font-family="Arial" font-size="14.00" fill="#000000">id    </text>
<text text-anchor="start" x="394.594" y="-323.9" font-family="Arial" font-size="14.00" fill="#666666">[int]</text>
<polygon fill="none" stroke="#000000" points="342.5,-282.5 342.5,-312.5 590.5,-312.5 590.5,-282.5 342.5,-282.5"/>
<text text-anchor="start" x="349.5" y="-293.9" font-family="Arial" font-size="14.00" fill="#000000">name    </text>
<text text-anchor="start" x="418.7132" y="-293.9" font-family="Arial" font-size="14.00" fill="#666666">[varchar(255)]</text>
<polygon fill="none" stroke="#000000" points="342.5,-252.5 342.5,-282.5 590.5,-282.5 590.5,-252.5 342.5,-252.5"/>
<text text-anchor="start" x="349.5" y="-263.9" font-family="Arial" font-size="14.00" fill="#000000">uniqueName    </text>
<text text-anchor="start" x="463.0568" y="-263.9" font-family="Arial" font-size="14.00" fill="#666666">[varchar(255)]</text>
<polygon fill="none" stroke="#000000" points="342.5,-222.5 342.5,-252.5 590.5,-252.5 590.5,-222.5 342.5,-222.5"/>
<text text-anchor="start" x="349.5" y="-233.9" font-family="Arial" font-size="14.00" fill="#000000">createdAt    </text>
<text text-anchor="start" x="443.6136" y="-233.9" font-family="Arial" font-size="14.00" fill="#666666">[timestamp]</text>
<polygon fill="none" stroke="#000000" points="342.5,-192.5 342.5,-222.5 590.5,-222.5 590.5,-192.5 342.5,-192.5"/>
<text text-anchor="start" x="349.5" y="-203.9" font-family="Arial" font-size="14.00" fill="#000000">updatedAt    </text>
<text text-anchor="start" x="447.5182" y="-203.9" font-family="Arial" font-size="14.00" fill="#666666">[timestamp]</text>
<polygon fill="none" stroke="#000000" points="342.5,-162.5 342.5,-192.5 590.5,-192.5 590.5,-162.5 342.5,-162.5"/>
<text text-anchor="start" x="349.5" y="-173.9" font-family="Arial" font-size="14.00" fill="#000000">phone    </text>
<text text-anchor="start" x="422.6178" y="-173.9" font-family="Arial" font-size="14.00" fill="#666666">[varchar(255)]</text>
<polygon fill="none" stroke="#000000" points="342.5,-132.5 342.5,-162.5 590.5,-162.5 590.5,-132.5 342.5,-132.5"/>
<text text-anchor="start" x="349.5" y="-143.9" font-family="Arial" font-size="14.00" fill="#000000">address    </text>
<text text-anchor="start" x="433.4958" y="-143.9" font-family="Arial" font-size="14.00" fill="#666666">[varchar(255)]</text>
</g>
<!-- user_organization_invoices&#45;&gt;organizations -->
<g id="edge2" class="edge">
<title>user_organization_invoices:organizationId&#45;&gt;organizations:id</title>
<path fill="none" stroke="#000000" stroke-dasharray="5,2" d="M655.6214,-696.6708C709.1112,-687.2422 680.5927,-599.599 645.5,-547 564.5564,-425.6771 423.4436,-542.3229 342.5,-421 319.437,-386.4318 300.9444,-327.5 342.5,-327.5"/>
<polygon fill="#000000" stroke="#000000" points="655.4666,-696.6834 645.1325,-693.015 650.4833,-697.0917 645.5,-697.5 645.5,-697.5 645.5,-697.5 650.4833,-697.0917 645.8675,-701.985 655.4666,-696.6834 655.4666,-696.6834"/>
<text text-anchor="start" x="624.2765" y="-707.5" font-family="Arial" font-size="10.00" fill="#000000">1&#45;n</text>
</g>
<!-- invoices -->
<g id="node4" class="node">
<title>invoices</title>
<polygon fill="#efefef" stroke="transparent" points="695.5,-432.5 695.5,-467.5 936.5,-467.5 936.5,-432.5 695.5,-432.5"/>
<polygon fill="none" stroke="#000000" points="695.5,-432.5 695.5,-467.5 936.5,-467.5 936.5,-432.5 695.5,-432.5"/>
<text text-anchor="start" x="719.7125" y="-445.3" font-family="Arial Bold" font-size="18.00" fill="#000000">invoices</text>
<text text-anchor="start" x="784.7195" y="-445.3" font-family="Arial" font-size="14.00" fill="#000000">    </text>
<text text-anchor="start" x="818.9243" y="-445.3" font-family="Arial" font-size="14.00" fill="#666666">[BASE TABLE]</text>
<polygon fill="none" stroke="#000000" points="695.5,-402.5 695.5,-432.5 936.5,-432.5 936.5,-402.5 695.5,-402.5"/>
<text text-anchor="start" x="702.5" y="-413.9" font-family="Arial" font-size="14.00" fill="#000000">id    </text>
<text text-anchor="start" x="747.594" y="-413.9" font-family="Arial" font-size="14.00" fill="#666666">[int]</text>
<polygon fill="none" stroke="#000000" points="695.5,-372.5 695.5,-402.5 936.5,-402.5 936.5,-372.5 695.5,-372.5"/>
<text text-anchor="start" x="702.5" y="-383.9" font-family="Arial" font-size="14.00" fill="#000000">date    </text>
<text text-anchor="start" x="763.9432" y="-383.9" font-family="Arial" font-size="14.00" fill="#666666">[timestamp]</text>
<polygon fill="none" stroke="#000000" points="695.5,-342.5 695.5,-372.5 936.5,-372.5 936.5,-342.5 695.5,-342.5"/>
<text text-anchor="start" x="702.5" y="-353.9" font-family="Arial" font-size="14.00" fill="#000000">createdAt    </text>
<text text-anchor="start" x="796.6136" y="-353.9" font-family="Arial" font-size="14.00" fill="#666666">[timestamp]</text>
<polygon fill="none" stroke="#000000" points="695.5,-312.5 695.5,-342.5 936.5,-342.5 936.5,-312.5 695.5,-312.5"/>
<text text-anchor="start" x="702.5" y="-323.9" font-family="Arial" font-size="14.00" fill="#000000">updatedAt    </text>
<text text-anchor="start" x="800.5182" y="-323.9" font-family="Arial" font-size="14.00" fill="#666666">[timestamp]</text>
<polygon fill="none" stroke="#000000" points="695.5,-282.5 695.5,-312.5 936.5,-312.5 936.5,-282.5 695.5,-282.5"/>
<text text-anchor="start" x="702.5" y="-293.9" font-family="Arial" font-size="14.00" fill="#000000">organizationId    </text>
<text text-anchor="start" x="824.6206" y="-293.9" font-family="Arial" font-size="14.00" fill="#666666">[int]</text>
<polygon fill="none" stroke="#000000" points="695.5,-252.5 695.5,-282.5 936.5,-282.5 936.5,-252.5 695.5,-252.5"/>
<text text-anchor="start" x="702.5" y="-263.9" font-family="Arial" font-size="14.00" fill="#000000">total    </text>
<text text-anchor="start" x="763.1578" y="-263.9" font-family="Arial" font-size="14.00" fill="#666666">[int]</text>
<polygon fill="none" stroke="#000000" points="695.5,-222.5 695.5,-252.5 936.5,-252.5 936.5,-222.5 695.5,-222.5"/>
<text text-anchor="start" x="702.5" y="-233.9" font-family="Arial" font-size="14.00" fill="#000000">currency    </text>
<text text-anchor="start" x="790.3738" y="-233.9" font-family="Arial" font-size="14.00" fill="#666666">[enum(&#39;vnd&#39;,&#39;usd&#39;)]</text>
<polygon fill="none" stroke="#000000" points="695.5,-192.5 695.5,-222.5 936.5,-222.5 936.5,-192.5 695.5,-192.5"/>
<text text-anchor="start" x="702.4698" y="-203.9" font-family="Arial" font-size="14.00" fill="#000000">type    </text>
<text text-anchor="start" x="763.1304" y="-203.9" font-family="Arial" font-size="14.00" fill="#666666">[enum(&#39;expense&#39;,&#39;income&#39;)]</text>
<polygon fill="none" stroke="#000000" points="695.5,-162.5 695.5,-192.5 936.5,-192.5 936.5,-162.5 695.5,-162.5"/>
<text text-anchor="start" x="702.5" y="-173.9" font-family="Arial" font-size="14.00" fill="#000000">projectId    </text>
<text text-anchor="start" x="790.3836" y="-173.9" font-family="Arial" font-size="14.00" fill="#666666">[int]</text>
<polygon fill="none" stroke="#000000" points="695.5,-132.5 695.5,-162.5 936.5,-162.5 936.5,-132.5 695.5,-132.5"/>
<text text-anchor="start" x="702.5" y="-143.9" font-family="Arial" font-size="14.00" fill="#000000">categoryId    </text>
<text text-anchor="start" x="802.0596" y="-143.9" font-family="Arial" font-size="14.00" fill="#666666">[int]</text>
<polygon fill="none" stroke="#000000" points="695.5,-102.5 695.5,-132.5 936.5,-132.5 936.5,-102.5 695.5,-102.5"/>
<text text-anchor="start" x="702.5" y="-113.9" font-family="Arial" font-size="14.00" fill="#000000">clientName    </text>
<text text-anchor="start" x="806.7062" y="-113.9" font-family="Arial" font-size="14.00" fill="#666666">[varchar(255)]</text>
<polygon fill="none" stroke="#000000" points="695.5,-72.5 695.5,-102.5 936.5,-102.5 936.5,-72.5 695.5,-72.5"/>
<text text-anchor="start" x="702.5" y="-83.9" font-family="Arial" font-size="14.00" fill="#000000">tax    </text>
<text text-anchor="start" x="755.378" y="-83.9" font-family="Arial" font-size="14.00" fill="#666666">[int]</text>
<polygon fill="none" stroke="#000000" points="695.5,-42.5 695.5,-72.5 936.5,-72.5 936.5,-42.5 695.5,-42.5"/>
<text text-anchor="start" x="702.5" y="-53.9" font-family="Arial" font-size="14.00" fill="#000000">uid    </text>
<text text-anchor="start" x="755.3766" y="-53.9" font-family="Arial" font-size="14.00" fill="#666666">[varchar(255)]</text>
</g>
<!-- user_organization_invoices&#45;&gt;invoices -->
<g id="edge3" class="edge">
<title>user_organization_invoices:invoiceId&#45;&gt;invoices:id</title>
<path fill="none" stroke="#000000" stroke-dasharray="5,2" d="M655.571,-666.7378C747.7287,-651.6464 585.8401,-417.5 695.5,-417.5"/>
<polygon fill="#000000" stroke="#000000" points="655.4715,-666.7453 645.1604,-663.0128 650.4857,-667.1226 645.5,-667.5 645.5,-667.5 645.5,-667.5 650.4857,-667.1226 645.8396,-671.9872 655.4715,-666.7453 655.4715,-666.7453"/>
<text text-anchor="start" x="624.2765" y="-677.5" font-family="Arial" font-size="10.00" fill="#000000">n&#45;n</text>
</g>
</g>
</svg>
