<?xml version="1.0" encoding="UTF-8" standalone="no"?>
<!DOCTYPE svg PUBLIC "-//W3C//DTD SVG 1.1//EN"
 "http://www.w3.org/Graphics/SVG/1.1/DTD/svg11.dtd">
<!-- Generated by graphviz version 2.40.1 (20161225.0304)
 -->
<!-- Title: user_organization_invoices Pages: 1 -->
<svg width="987pt" height="892pt"
 viewBox="0.00 0.00 987.00 892.00" xmlns="http://www.w3.org/2000/svg" xmlns:xlink="http://www.w3.org/1999/xlink">
<g id="graph0" class="graph" transform="scale(1 1) rotate(0) translate(4 888)">
<title>user_organization_invoices</title>
<polygon fill="#ffffff" stroke="transparent" points="-4,4 -4,-888 983,-888 983,4 -4,4"/>
<!-- user_organization_invoices -->
<g id="node1" class="node">
<title>user_organization_invoices</title>
<polygon fill="#efefef" stroke="transparent" points="286.5,-802.5 286.5,-837.5 645.5,-837.5 645.5,-802.5 286.5,-802.5"/>
<polygon fill="none" stroke="#000000" points="286.5,-802.5 286.5,-837.5 645.5,-837.5 645.5,-802.5 286.5,-802.5"/>
<text text-anchor="start" x="293.1909" y="-815.3" font-family="Arial Bold" font-size="18.00" fill="#000000">user_organization_invoices</text>
<text text-anchor="start" x="511.2411" y="-815.3" font-family="Arial" font-size="14.00" fill="#000000">    </text>
<text text-anchor="start" x="545.4459" y="-815.3" font-family="Arial" font-size="14.00" fill="#666666">[BASE TABLE]</text>
<polygon fill="none" stroke="#000000" points="286.5,-772.5 286.5,-802.5 645.5,-802.5 645.5,-772.5 286.5,-772.5"/>
<text text-anchor="start" x="293.5" y="-783.9" font-family="Arial" font-size="14.00" fill="#000000">id </text>
<text text-anchor="start" x="308.2798" y="-783.9" font-family="Arial" font-size="14.00" fill="#666666">[int]</text>
<polygon fill="none" stroke="#000000" points="286.5,-742.5 286.5,-772.5 645.5,-772.5 645.5,-742.5 286.5,-742.5"/>
<text text-anchor="start" x="293.5" y="-753.9" font-family="Arial" font-size="14.00" fill="#000000">userId </text>
<text text-anchor="start" x="336.2896" y="-753.9" font-family="Arial" font-size="14.00" fill="#666666">[int]</text>
<polygon fill="none" stroke="#000000" points="286.5,-712.5 286.5,-742.5 645.5,-742.5 645.5,-712.5 286.5,-712.5"/>
<text text-anchor="start" x="293.5" y="-723.9" font-family="Arial" font-size="14.00" fill="#000000">organizationId </text>
<text text-anchor="start" x="385.3064" y="-723.9" font-family="Arial" font-size="14.00" fill="#666666">[int]</text>
<polygon fill="none" stroke="#000000" points="286.5,-682.5 286.5,-712.5 645.5,-712.5 645.5,-682.5 286.5,-682.5"/>
<text text-anchor="start" x="293.5" y="-693.9" font-family="Arial" font-size="14.00" fill="#000000">invoiceId </text>
<text text-anchor="start" x="352.6248" y="-693.9" font-family="Arial" font-size="14.00" fill="#666666">[int]</text>
<polygon fill="none" stroke="#000000" points="286.5,-652.5 286.5,-682.5 645.5,-682.5 645.5,-652.5 286.5,-652.5"/>
<text text-anchor="start" x="293.5" y="-663.9" font-family="Arial" font-size="14.00" fill="#000000">createdAt </text>
<text text-anchor="start" x="357.2994" y="-663.9" font-family="Arial" font-size="14.00" fill="#666666">[timestamp]</text>
<polygon fill="none" stroke="#000000" points="286.5,-622.5 286.5,-652.5 645.5,-652.5 645.5,-622.5 286.5,-622.5"/>
<text text-anchor="start" x="293.5" y="-633.9" font-family="Arial" font-size="14.00" fill="#000000">updatedAt </text>
<text text-anchor="start" x="361.204" y="-633.9" font-family="Arial" font-size="14.00" fill="#666666">[timestamp]</text>
<polygon fill="none" stroke="#000000" stroke-width="3" points="284.5,-621.5 284.5,-839.5 646.5,-839.5 646.5,-621.5 284.5,-621.5"/>
</g>
<!-- users -->
<g id="node2" class="node">
<title>users</title>
<polygon fill="#efefef" stroke="transparent" points="43.5,-387.5 43.5,-422.5 238.5,-422.5 238.5,-387.5 43.5,-387.5"/>
<polygon fill="none" stroke="#000000" points="43.5,-387.5 43.5,-422.5 238.5,-422.5 238.5,-387.5 43.5,-387.5"/>
<text text-anchor="start" x="55.2137" y="-400.3" font-family="Arial Bold" font-size="18.00" fill="#000000">users</text>
<text text-anchor="start" x="99.2183" y="-400.3" font-family="Arial" font-size="14.00" fill="#000000">    </text>
<text text-anchor="start" x="133.4231" y="-400.3" font-family="Arial" font-size="14.00" fill="#666666">[BASE TABLE]</text>
<polygon fill="none" stroke="#000000" points="43.5,-357.5 43.5,-387.5 238.5,-387.5 238.5,-357.5 43.5,-357.5"/>
<text text-anchor="start" x="50.5" y="-368.9" font-family="Arial" font-size="14.00" fill="#000000">id    </text>
<text text-anchor="start" x="95.594" y="-368.9" font-family="Arial" font-size="14.00" fill="#666666">[int]</text>
<polygon fill="none" stroke="#000000" points="43.5,-327.5 43.5,-357.5 238.5,-357.5 238.5,-327.5 43.5,-327.5"/>
<text text-anchor="start" x="50.5" y="-338.9" font-family="Arial" font-size="14.00" fill="#000000">name    </text>
<text text-anchor="start" x="119.7132" y="-338.9" font-family="Arial" font-size="14.00" fill="#666666">[varchar(255)]</text>
<polygon fill="none" stroke="#000000" points="43.5,-297.5 43.5,-327.5 238.5,-327.5 238.5,-297.5 43.5,-297.5"/>
<text text-anchor="start" x="50.5" y="-308.9" font-family="Arial" font-size="14.00" fill="#000000">email    </text>
<text text-anchor="start" x="118.1438" y="-308.9" font-family="Arial" font-size="14.00" fill="#666666">[varchar(255)]</text>
<polygon fill="none" stroke="#000000" points="43.5,-267.5 43.5,-297.5 238.5,-297.5 238.5,-267.5 43.5,-267.5"/>
<text text-anchor="start" x="50.3892" y="-278.9" font-family="Arial" font-size="14.00" fill="#000000">password    </text>
<text text-anchor="start" x="144.4916" y="-278.9" font-family="Arial" font-size="14.00" fill="#666666">[varchar(255)]</text>
<polygon fill="none" stroke="#000000" points="43.5,-237.5 43.5,-267.5 238.5,-267.5 238.5,-237.5 43.5,-237.5"/>
<text text-anchor="start" x="50.5" y="-248.9" font-family="Arial" font-size="14.00" fill="#000000">createdAt    </text>
<text text-anchor="start" x="144.6136" y="-248.9" font-family="Arial" font-size="14.00" fill="#666666">[timestamp]</text>
<polygon fill="none" stroke="#000000" points="43.5,-207.5 43.5,-237.5 238.5,-237.5 238.5,-207.5 43.5,-207.5"/>
<text text-anchor="start" x="50.5" y="-218.9" font-family="Arial" font-size="14.00" fill="#000000">updatedAt    </text>
<text text-anchor="start" x="148.5182" y="-218.9" font-family="Arial" font-size="14.00" fill="#666666">[timestamp]</text>
<polygon fill="none" stroke="#000000" points="43.5,-177.5 43.5,-207.5 238.5,-207.5 238.5,-177.5 43.5,-177.5"/>
<text text-anchor="start" x="50.5" y="-188.9" font-family="Arial" font-size="14.00" fill="#000000">phone    </text>
<text text-anchor="start" x="123.6178" y="-188.9" font-family="Arial" font-size="14.00" fill="#666666">[varchar(255)]</text>
<polygon fill="none" stroke="#000000" points="43.5,-147.5 43.5,-177.5 238.5,-177.5 238.5,-147.5 43.5,-147.5"/>
<text text-anchor="start" x="50.5" y="-158.9" font-family="Arial" font-size="14.00" fill="#000000">address    </text>
<text text-anchor="start" x="134.4958" y="-158.9" font-family="Arial" font-size="14.00" fill="#666666">[varchar(255)]</text>
<polygon fill="none" stroke="#000000" points="43.5,-117.5 43.5,-147.5 238.5,-147.5 238.5,-117.5 43.5,-117.5"/>
<text text-anchor="start" x="50.5" y="-128.9" font-family="Arial" font-size="14.00" fill="#000000">avatar    </text>
<text text-anchor="start" x="123.6038" y="-128.9" font-family="Arial" font-size="14.00" fill="#666666">[varchar(255)]</text>
</g>
<!-- user_organization_invoices&#45;&gt;users -->
<g id="edge1" class="edge">
<title>user_organization_invoices:userId&#45;&gt;users:id</title>
<path fill="none" stroke="#000000" stroke-dasharray="5,2" d="M276.5193,-755.4286C210.5868,-725.1249 321.0133,-372.5 238.5,-372.5"/>
<polygon fill="#000000" stroke="#000000" points="276.7086,-755.4678 285.5855,-761.9061 281.6043,-756.4839 286.5,-757.5 286.5,-757.5 286.5,-757.5 281.6043,-756.4839 287.4145,-753.0939 276.7086,-755.4678 276.7086,-755.4678"/>
<text text-anchor="start" x="265.2765" y="-767.5" font-family="Arial" font-size="10.00" fill="#000000">1&#45;n</text>
</g>
<!-- organizations -->
<g id="node3" class="node">
<title>organizations</title>
<polygon fill="#efefef" stroke="transparent" points="342.5,-357.5 342.5,-392.5 590.5,-392.5 590.5,-357.5 342.5,-357.5"/>
<polygon fill="none" stroke="#000000" points="342.5,-357.5 342.5,-392.5 590.5,-392.5 590.5,-357.5 342.5,-357.5"/>
<text text-anchor="start" x="349.2029" y="-370.3" font-family="Arial Bold" font-size="18.00" fill="#000000">organizations</text>
<text text-anchor="start" x="456.2291" y="-370.3" font-family="Arial" font-size="14.00" fill="#000000">    </text>
<text text-anchor="start" x="490.4339" y="-370.3" font-family="Arial" font-size="14.00" fill="#666666">[BASE TABLE]</text>
<polygon fill="none" stroke="#000000" points="342.5,-327.5 342.5,-357.5 590.5,-357.5 590.5,-327.5 342.5,-327.5"/>
<text text-anchor="start" x="349.5" y="-338.9" font-family="Arial" font-size="14.00" fill="#000000">id    </text>
<text text-anchor="start" x="394.594" y="-338.9" font-family="Arial" font-size="14.00" fill="#666666">[int]</text>
<polygon fill="none" stroke="#000000" points="342.5,-297.5 342.5,-327.5 590.5,-327.5 590.5,-297.5 342.5,-297.5"/>
<text text-anchor="start" x="349.5" y="-308.9" font-family="Arial" font-size="14.00" fill="#000000">name    </text>
<text text-anchor="start" x="418.7132" y="-308.9" font-family="Arial" font-size="14.00" fill="#666666">[varchar(255)]</text>
<polygon fill="none" stroke="#000000" points="342.5,-267.5 342.5,-297.5 590.5,-297.5 590.5,-267.5 342.5,-267.5"/>
<text text-anchor="start" x="349.5" y="-278.9" font-family="Arial" font-size="14.00" fill="#000000">uniqueName    </text>
<text text-anchor="start" x="463.0568" y="-278.9" font-family="Arial" font-size="14.00" fill="#666666">[varchar(255)]</text>
<polygon fill="none" stroke="#000000" points="342.5,-237.5 342.5,-267.5 590.5,-267.5 590.5,-237.5 342.5,-237.5"/>
<text text-anchor="start" x="349.5" y="-248.9" font-family="Arial" font-size="14.00" fill="#000000">createdAt    </text>
<text text-anchor="start" x="443.6136" y="-248.9" font-family="Arial" font-size="14.00" fill="#666666">[timestamp]</text>
<polygon fill="none" stroke="#000000" points="342.5,-207.5 342.5,-237.5 590.5,-237.5 590.5,-207.5 342.5,-207.5"/>
<text text-anchor="start" x="349.5" y="-218.9" font-family="Arial" font-size="14.00" fill="#000000">updatedAt    </text>
<text text-anchor="start" x="447.5182" y="-218.9" font-family="Arial" font-size="14.00" fill="#666666">[timestamp]</text>
<polygon fill="none" stroke="#000000" points="342.5,-177.5 342.5,-207.5 590.5,-207.5 590.5,-177.5 342.5,-177.5"/>
<text text-anchor="start" x="349.5" y="-188.9" font-family="Arial" font-size="14.00" fill="#000000">phone    </text>
<text text-anchor="start" x="422.6178" y="-188.9" font-family="Arial" font-size="14.00" fill="#666666">[varchar(255)]</text>
<polygon fill="none" stroke="#000000" points="342.5,-147.5 342.5,-177.5 590.5,-177.5 590.5,-147.5 342.5,-147.5"/>
<text text-anchor="start" x="349.5" y="-158.9" font-family="Arial" font-size="14.00" fill="#000000">address    </text>
<text text-anchor="start" x="433.4958" y="-158.9" font-family="Arial" font-size="14.00" fill="#666666">[varchar(255)]</text>
</g>
<!-- user_organization_invoices&#45;&gt;organizations -->
<g id="edge2" class="edge">
<title>user_organization_invoices:organizationId&#45;&gt;organizations:id</title>
<path fill="none" stroke="#000000" stroke-dasharray="5,2" d="M655.6115,-726.6773C708.9912,-717.3205 679.495,-630.315 645.5,-577 565.6435,-451.7596 422.3565,-561.2404 342.5,-436 320.1584,-400.9612 300.9444,-342.5 342.5,-342.5"/>
<polygon fill="#000000" stroke="#000000" points="655.4671,-726.6889 645.135,-723.0148 650.4835,-727.0945 645.5,-727.5 645.5,-727.5 645.5,-727.5 650.4835,-727.0945 645.865,-731.9852 655.4671,-726.6889 655.4671,-726.6889"/>
<text text-anchor="start" x="624.2765" y="-737.5" font-family="Arial" font-size="10.00" fill="#000000">1&#45;n</text>
</g>
<!-- invoices -->
<g id="node4" class="node">
<title>invoices</title>
<polygon fill="#efefef" stroke="transparent" points="695.5,-462.5 695.5,-497.5 936.5,-497.5 936.5,-462.5 695.5,-462.5"/>
<polygon fill="none" stroke="#000000" points="695.5,-462.5 695.5,-497.5 936.5,-497.5 936.5,-462.5 695.5,-462.5"/>
<text text-anchor="start" x="719.7125" y="-475.3" font-family="Arial Bold" font-size="18.00" fill="#000000">invoices</text>
<text text-anchor="start" x="784.7195" y="-475.3" font-family="Arial" font-size="14.00" fill="#000000">    </text>
<text text-anchor="start" x="818.9243" y="-475.3" font-family="Arial" font-size="14.00" fill="#666666">[BASE TABLE]</text>
<polygon fill="none" stroke="#000000" points="695.5,-432.5 695.5,-462.5 936.5,-462.5 936.5,-432.5 695.5,-432.5"/>
<text text-anchor="start" x="702.5" y="-443.9" font-family="Arial" font-size="14.00" fill="#000000">id    </text>
<text text-anchor="start" x="747.594" y="-443.9" font-family="Arial" font-size="14.00" fill="#666666">[int]</text>
<polygon fill="none" stroke="#000000" points="695.5,-402.5 695.5,-432.5 936.5,-432.5 936.5,-402.5 695.5,-402.5"/>
<text text-anchor="start" x="702.5" y="-413.9" font-family="Arial" font-size="14.00" fill="#000000">date    </text>
<text text-anchor="start" x="763.9432" y="-413.9" font-family="Arial" font-size="14.00" fill="#666666">[timestamp]</text>
<polygon fill="none" stroke="#000000" points="695.5,-372.5 695.5,-402.5 936.5,-402.5 936.5,-372.5 695.5,-372.5"/>
<text text-anchor="start" x="702.5" y="-383.9" font-family="Arial" font-size="14.00" fill="#000000">createdAt    </text>
<text text-anchor="start" x="796.6136" y="-383.9" font-family="Arial" font-size="14.00" fill="#666666">[timestamp]</text>
<polygon fill="none" stroke="#000000" points="695.5,-342.5 695.5,-372.5 936.5,-372.5 936.5,-342.5 695.5,-342.5"/>
<text text-anchor="start" x="702.5" y="-353.9" font-family="Arial" font-size="14.00" fill="#000000">updatedAt    </text>
<text text-anchor="start" x="800.5182" y="-353.9" font-family="Arial" font-size="14.00" fill="#666666">[timestamp]</text>
<polygon fill="none" stroke="#000000" points="695.5,-312.5 695.5,-342.5 936.5,-342.5 936.5,-312.5 695.5,-312.5"/>
<text text-anchor="start" x="702.5" y="-323.9" font-family="Arial" font-size="14.00" fill="#000000">organizationId    </text>
<text text-anchor="start" x="824.6206" y="-323.9" font-family="Arial" font-size="14.00" fill="#666666">[int]</text>
<polygon fill="none" stroke="#000000" points="695.5,-282.5 695.5,-312.5 936.5,-312.5 936.5,-282.5 695.5,-282.5"/>
<text text-anchor="start" x="702.5" y="-293.9" font-family="Arial" font-size="14.00" fill="#000000">total    </text>
<text text-anchor="start" x="763.1578" y="-293.9" font-family="Arial" font-size="14.00" fill="#666666">[int]</text>
<polygon fill="none" stroke="#000000" points="695.5,-252.5 695.5,-282.5 936.5,-282.5 936.5,-252.5 695.5,-252.5"/>
<text text-anchor="start" x="702.5" y="-263.9" font-family="Arial" font-size="14.00" fill="#000000">currency    </text>
<text text-anchor="start" x="790.3738" y="-263.9" font-family="Arial" font-size="14.00" fill="#666666">[enum(&#39;vnd&#39;,&#39;usd&#39;)]</text>
<polygon fill="none" stroke="#000000" points="695.5,-222.5 695.5,-252.5 936.5,-252.5 936.5,-222.5 695.5,-222.5"/>
<text text-anchor="start" x="702.4698" y="-233.9" font-family="Arial" font-size="14.00" fill="#000000">type    </text>
<text text-anchor="start" x="763.1304" y="-233.9" font-family="Arial" font-size="14.00" fill="#666666">[enum(&#39;expense&#39;,&#39;income&#39;)]</text>
<polygon fill="none" stroke="#000000" points="695.5,-192.5 695.5,-222.5 936.5,-222.5 936.5,-192.5 695.5,-192.5"/>
<text text-anchor="start" x="702.5" y="-203.9" font-family="Arial" font-size="14.00" fill="#000000">projectId    </text>
<text text-anchor="start" x="790.3836" y="-203.9" font-family="Arial" font-size="14.00" fill="#666666">[int]</text>
<polygon fill="none" stroke="#000000" points="695.5,-162.5 695.5,-192.5 936.5,-192.5 936.5,-162.5 695.5,-162.5"/>
<text text-anchor="start" x="702.5" y="-173.9" font-family="Arial" font-size="14.00" fill="#000000">categoryId    </text>
<text text-anchor="start" x="802.0596" y="-173.9" font-family="Arial" font-size="14.00" fill="#666666">[int]</text>
<polygon fill="none" stroke="#000000" points="695.5,-132.5 695.5,-162.5 936.5,-162.5 936.5,-132.5 695.5,-132.5"/>
<text text-anchor="start" x="702.5" y="-143.9" font-family="Arial" font-size="14.00" fill="#000000">clientName    </text>
<text text-anchor="start" x="806.7062" y="-143.9" font-family="Arial" font-size="14.00" fill="#666666">[varchar(255)]</text>
<polygon fill="none" stroke="#000000" points="695.5,-102.5 695.5,-132.5 936.5,-132.5 936.5,-102.5 695.5,-102.5"/>
<text text-anchor="start" x="702.5" y="-113.9" font-family="Arial" font-size="14.00" fill="#000000">tax    </text>
<text text-anchor="start" x="755.378" y="-113.9" font-family="Arial" font-size="14.00" fill="#666666">[int]</text>
<polygon fill="none" stroke="#000000" points="695.5,-72.5 695.5,-102.5 936.5,-102.5 936.5,-72.5 695.5,-72.5"/>
<text text-anchor="start" x="702.5" y="-83.9" font-family="Arial" font-size="14.00" fill="#000000">uid    </text>
<text text-anchor="start" x="755.3766" y="-83.9" font-family="Arial" font-size="14.00" fill="#666666">[varchar(255)]</text>
<polygon fill="none" stroke="#000000" points="695.5,-42.5 695.5,-72.5 936.5,-72.5 936.5,-42.5 695.5,-42.5"/>
<text text-anchor="start" x="702.5" y="-53.9" font-family="Arial" font-size="14.00" fill="#000000">exchangeRate    </text>
<text text-anchor="start" x="826.9628" y="-53.9" font-family="Arial" font-size="14.00" fill="#666666">[decimal(10,0)]</text>
</g>
<!-- user_organization_invoices&#45;&gt;invoices -->
<g id="edge3" class="edge">
<title>user_organization_invoices:invoiceId&#45;&gt;invoices:id</title>
<path fill="none" stroke="#000000" stroke-dasharray="5,2" d="M655.571,-696.7378C747.7287,-681.6464 585.8401,-447.5 695.5,-447.5"/>
<polygon fill="#000000" stroke="#000000" points="655.4715,-696.7453 645.1604,-693.0128 650.4857,-697.1226 645.5,-697.5 645.5,-697.5 645.5,-697.5 650.4857,-697.1226 645.8396,-701.9872 655.4715,-696.7453 655.4715,-696.7453"/>
<text text-anchor="start" x="624.2765" y="-707.5" font-family="Arial" font-size="10.00" fill="#000000">n&#45;n</text>
</g>
</g>
</svg>
