<?xml version="1.0" encoding="UTF-8" standalone="no"?>
<!DOCTYPE svg PUBLIC "-//W3C//DTD SVG 1.1//EN"
 "http://www.w3.org/Graphics/SVG/1.1/DTD/svg11.dtd">
<!-- Generated by graphviz version 2.40.1 (20161225.0304)
 -->
<!-- Title: user_organization_invoices Pages: 1 -->
<svg width="961pt" height="742pt"
 viewBox="0.00 0.00 961.00 742.00" xmlns="http://www.w3.org/2000/svg" xmlns:xlink="http://www.w3.org/1999/xlink">
<g id="graph0" class="graph" transform="scale(1 1) rotate(0) translate(4 738)">
<title>user_organization_invoices</title>
<polygon fill="#ffffff" stroke="transparent" points="-4,4 -4,-738 957,-738 957,4 -4,4"/>
<!-- user_organization_invoices -->
<g id="node1" class="node">
<title>user_organization_invoices</title>
<polygon fill="#efefef" stroke="transparent" points="286.5,-652.5 286.5,-687.5 645.5,-687.5 645.5,-652.5 286.5,-652.5"/>
<polygon fill="none" stroke="#000000" points="286.5,-652.5 286.5,-687.5 645.5,-687.5 645.5,-652.5 286.5,-652.5"/>
<text text-anchor="start" x="293.1909" y="-665.3" font-family="Arial Bold" font-size="18.00" fill="#000000">user_organization_invoices</text>
<text text-anchor="start" x="511.2411" y="-665.3" font-family="Arial" font-size="14.00" fill="#000000">    </text>
<text text-anchor="start" x="545.4459" y="-665.3" font-family="Arial" font-size="14.00" fill="#666666">[BASE TABLE]</text>
<polygon fill="none" stroke="#000000" points="286.5,-622.5 286.5,-652.5 645.5,-652.5 645.5,-622.5 286.5,-622.5"/>
<text text-anchor="start" x="293.5" y="-633.9" font-family="Arial" font-size="14.00" fill="#000000">id </text>
<text text-anchor="start" x="308.2798" y="-633.9" font-family="Arial" font-size="14.00" fill="#666666">[int]</text>
<polygon fill="none" stroke="#000000" points="286.5,-592.5 286.5,-622.5 645.5,-622.5 645.5,-592.5 286.5,-592.5"/>
<text text-anchor="start" x="293.5" y="-603.9" font-family="Arial" font-size="14.00" fill="#000000">userId </text>
<text text-anchor="start" x="336.2896" y="-603.9" font-family="Arial" font-size="14.00" fill="#666666">[int]</text>
<polygon fill="none" stroke="#000000" points="286.5,-562.5 286.5,-592.5 645.5,-592.5 645.5,-562.5 286.5,-562.5"/>
<text text-anchor="start" x="293.5" y="-573.9" font-family="Arial" font-size="14.00" fill="#000000">organizationId </text>
<text text-anchor="start" x="385.3064" y="-573.9" font-family="Arial" font-size="14.00" fill="#666666">[int]</text>
<polygon fill="none" stroke="#000000" points="286.5,-532.5 286.5,-562.5 645.5,-562.5 645.5,-532.5 286.5,-532.5"/>
<text text-anchor="start" x="293.5" y="-543.9" font-family="Arial" font-size="14.00" fill="#000000">invoiceId </text>
<text text-anchor="start" x="352.6248" y="-543.9" font-family="Arial" font-size="14.00" fill="#666666">[int]</text>
<polygon fill="none" stroke="#000000" points="286.5,-502.5 286.5,-532.5 645.5,-532.5 645.5,-502.5 286.5,-502.5"/>
<text text-anchor="start" x="293.5" y="-513.9" font-family="Arial" font-size="14.00" fill="#000000">createdAt </text>
<text text-anchor="start" x="357.2994" y="-513.9" font-family="Arial" font-size="14.00" fill="#666666">[timestamp]</text>
<polygon fill="none" stroke="#000000" points="286.5,-472.5 286.5,-502.5 645.5,-502.5 645.5,-472.5 286.5,-472.5"/>
<text text-anchor="start" x="293.5" y="-483.9" font-family="Arial" font-size="14.00" fill="#000000">updatedAt </text>
<text text-anchor="start" x="361.204" y="-483.9" font-family="Arial" font-size="14.00" fill="#666666">[timestamp]</text>
<polygon fill="none" stroke="#000000" stroke-width="3" points="284.5,-471.5 284.5,-689.5 646.5,-689.5 646.5,-471.5 284.5,-471.5"/>
</g>
<!-- users -->
<g id="node2" class="node">
<title>users</title>
<polygon fill="#efefef" stroke="transparent" points="43.5,-312.5 43.5,-347.5 238.5,-347.5 238.5,-312.5 43.5,-312.5"/>
<polygon fill="none" stroke="#000000" points="43.5,-312.5 43.5,-347.5 238.5,-347.5 238.5,-312.5 43.5,-312.5"/>
<text text-anchor="start" x="55.2137" y="-325.3" font-family="Arial Bold" font-size="18.00" fill="#000000">users</text>
<text text-anchor="start" x="99.2183" y="-325.3" font-family="Arial" font-size="14.00" fill="#000000">    </text>
<text text-anchor="start" x="133.4231" y="-325.3" font-family="Arial" font-size="14.00" fill="#666666">[BASE TABLE]</text>
<polygon fill="none" stroke="#000000" points="43.5,-282.5 43.5,-312.5 238.5,-312.5 238.5,-282.5 43.5,-282.5"/>
<text text-anchor="start" x="50.5" y="-293.9" font-family="Arial" font-size="14.00" fill="#000000">id    </text>
<text text-anchor="start" x="95.594" y="-293.9" font-family="Arial" font-size="14.00" fill="#666666">[int]</text>
<polygon fill="none" stroke="#000000" points="43.5,-252.5 43.5,-282.5 238.5,-282.5 238.5,-252.5 43.5,-252.5"/>
<text text-anchor="start" x="50.5" y="-263.9" font-family="Arial" font-size="14.00" fill="#000000">name    </text>
<text text-anchor="start" x="119.7132" y="-263.9" font-family="Arial" font-size="14.00" fill="#666666">[varchar(255)]</text>
<polygon fill="none" stroke="#000000" points="43.5,-222.5 43.5,-252.5 238.5,-252.5 238.5,-222.5 43.5,-222.5"/>
<text text-anchor="start" x="50.5" y="-233.9" font-family="Arial" font-size="14.00" fill="#000000">email    </text>
<text text-anchor="start" x="118.1438" y="-233.9" font-family="Arial" font-size="14.00" fill="#666666">[varchar(255)]</text>
<polygon fill="none" stroke="#000000" points="43.5,-192.5 43.5,-222.5 238.5,-222.5 238.5,-192.5 43.5,-192.5"/>
<text text-anchor="start" x="50.3892" y="-203.9" font-family="Arial" font-size="14.00" fill="#000000">password    </text>
<text text-anchor="start" x="144.4916" y="-203.9" font-family="Arial" font-size="14.00" fill="#666666">[varchar(255)]</text>
<polygon fill="none" stroke="#000000" points="43.5,-162.5 43.5,-192.5 238.5,-192.5 238.5,-162.5 43.5,-162.5"/>
<text text-anchor="start" x="50.5" y="-173.9" font-family="Arial" font-size="14.00" fill="#000000">createdAt    </text>
<text text-anchor="start" x="144.6136" y="-173.9" font-family="Arial" font-size="14.00" fill="#666666">[timestamp]</text>
<polygon fill="none" stroke="#000000" points="43.5,-132.5 43.5,-162.5 238.5,-162.5 238.5,-132.5 43.5,-132.5"/>
<text text-anchor="start" x="50.5" y="-143.9" font-family="Arial" font-size="14.00" fill="#000000">updatedAt    </text>
<text text-anchor="start" x="148.5182" y="-143.9" font-family="Arial" font-size="14.00" fill="#666666">[timestamp]</text>
<polygon fill="none" stroke="#000000" points="43.5,-102.5 43.5,-132.5 238.5,-132.5 238.5,-102.5 43.5,-102.5"/>
<text text-anchor="start" x="50.5" y="-113.9" font-family="Arial" font-size="14.00" fill="#000000">phone    </text>
<text text-anchor="start" x="123.6178" y="-113.9" font-family="Arial" font-size="14.00" fill="#666666">[varchar(255)]</text>
<polygon fill="none" stroke="#000000" points="43.5,-72.5 43.5,-102.5 238.5,-102.5 238.5,-72.5 43.5,-72.5"/>
<text text-anchor="start" x="50.5" y="-83.9" font-family="Arial" font-size="14.00" fill="#000000">address    </text>
<text text-anchor="start" x="134.4958" y="-83.9" font-family="Arial" font-size="14.00" fill="#666666">[varchar(255)]</text>
<polygon fill="none" stroke="#000000" points="43.5,-42.5 43.5,-72.5 238.5,-72.5 238.5,-42.5 43.5,-42.5"/>
<text text-anchor="start" x="50.5" y="-53.9" font-family="Arial" font-size="14.00" fill="#000000">avatar    </text>
<text text-anchor="start" x="123.6038" y="-53.9" font-family="Arial" font-size="14.00" fill="#666666">[varchar(255)]</text>
</g>
<!-- user_organization_invoices&#45;&gt;users -->
<g id="edge1" class="edge">
<title>user_organization_invoices:userId&#45;&gt;users:id</title>
<path fill="none" stroke="#000000" stroke-dasharray="5,2" d="M276.2304,-606.8648C158.9961,-591.3679 374.2435,-297.5 238.5,-297.5"/>
<polygon fill="#000000" stroke="#000000" points="276.5191,-606.8826 286.2222,-611.9914 281.5095,-607.1913 286.5,-607.5 286.5,-607.5 286.5,-607.5 281.5095,-607.1913 286.7778,-603.0086 276.5191,-606.8826 276.5191,-606.8826"/>
<text text-anchor="start" x="265.2765" y="-617.5" font-family="Arial" font-size="10.00" fill="#000000">1&#45;n</text>
</g>
<!-- organizations -->
<g id="node3" class="node">
<title>organizations</title>
<polygon fill="#efefef" stroke="transparent" points="342.5,-252.5 342.5,-287.5 590.5,-287.5 590.5,-252.5 342.5,-252.5"/>
<polygon fill="none" stroke="#000000" points="342.5,-252.5 342.5,-287.5 590.5,-287.5 590.5,-252.5 342.5,-252.5"/>
<text text-anchor="start" x="349.2029" y="-265.3" font-family="Arial Bold" font-size="18.00" fill="#000000">organizations</text>
<text text-anchor="start" x="456.2291" y="-265.3" font-family="Arial" font-size="14.00" fill="#000000">    </text>
<text text-anchor="start" x="490.4339" y="-265.3" font-family="Arial" font-size="14.00" fill="#666666">[BASE TABLE]</text>
<polygon fill="none" stroke="#000000" points="342.5,-222.5 342.5,-252.5 590.5,-252.5 590.5,-222.5 342.5,-222.5"/>
<text text-anchor="start" x="349.5" y="-233.9" font-family="Arial" font-size="14.00" fill="#000000">id    </text>
<text text-anchor="start" x="394.594" y="-233.9" font-family="Arial" font-size="14.00" fill="#666666">[int]</text>
<polygon fill="none" stroke="#000000" points="342.5,-192.5 342.5,-222.5 590.5,-222.5 590.5,-192.5 342.5,-192.5"/>
<text text-anchor="start" x="349.5" y="-203.9" font-family="Arial" font-size="14.00" fill="#000000">name    </text>
<text text-anchor="start" x="418.7132" y="-203.9" font-family="Arial" font-size="14.00" fill="#666666">[varchar(255)]</text>
<polygon fill="none" stroke="#000000" points="342.5,-162.5 342.5,-192.5 590.5,-192.5 590.5,-162.5 342.5,-162.5"/>
<text text-anchor="start" x="349.5" y="-173.9" font-family="Arial" font-size="14.00" fill="#000000">uniqueName    </text>
<text text-anchor="start" x="463.0568" y="-173.9" font-family="Arial" font-size="14.00" fill="#666666">[varchar(255)]</text>
<polygon fill="none" stroke="#000000" points="342.5,-132.5 342.5,-162.5 590.5,-162.5 590.5,-132.5 342.5,-132.5"/>
<text text-anchor="start" x="349.5" y="-143.9" font-family="Arial" font-size="14.00" fill="#000000">createdAt    </text>
<text text-anchor="start" x="443.6136" y="-143.9" font-family="Arial" font-size="14.00" fill="#666666">[timestamp]</text>
<polygon fill="none" stroke="#000000" points="342.5,-102.5 342.5,-132.5 590.5,-132.5 590.5,-102.5 342.5,-102.5"/>
<text text-anchor="start" x="349.5" y="-113.9" font-family="Arial" font-size="14.00" fill="#000000">updatedAt    </text>
<text text-anchor="start" x="447.5182" y="-113.9" font-family="Arial" font-size="14.00" fill="#666666">[timestamp]</text>
</g>
<!-- user_organization_invoices&#45;&gt;organizations -->
<g id="edge2" class="edge">
<title>user_organization_invoices:organizationId&#45;&gt;organizations:id</title>
<path fill="none" stroke="#000000" stroke-dasharray="5,2" d="M655.6416,-576.6567C709.3585,-567.0693 682.8535,-478.0183 645.5,-427 562.0486,-313.0201 425.9514,-444.9799 342.5,-331 317.9512,-297.4706 300.9444,-237.5 342.5,-237.5"/>
<polygon fill="#000000" stroke="#000000" points="655.4656,-576.6712 645.127,-573.0155 650.4828,-577.0856 645.5,-577.5 645.5,-577.5 645.5,-577.5 650.4828,-577.0856 645.873,-581.9845 655.4656,-576.6712 655.4656,-576.6712"/>
<text text-anchor="start" x="624.2765" y="-587.5" font-family="Arial" font-size="10.00" fill="#000000">1&#45;n</text>
</g>
<!-- invoices -->
<g id="node4" class="node">
<title>invoices</title>
<polygon fill="#efefef" stroke="transparent" points="695.5,-282.5 695.5,-317.5 910.5,-317.5 910.5,-282.5 695.5,-282.5"/>
<polygon fill="none" stroke="#000000" points="695.5,-282.5 695.5,-317.5 910.5,-317.5 910.5,-282.5 695.5,-282.5"/>
<text text-anchor="start" x="706.7125" y="-295.3" font-family="Arial Bold" font-size="18.00" fill="#000000">invoices</text>
<text text-anchor="start" x="771.7195" y="-295.3" font-family="Arial" font-size="14.00" fill="#000000">    </text>
<text text-anchor="start" x="805.9243" y="-295.3" font-family="Arial" font-size="14.00" fill="#666666">[BASE TABLE]</text>
<polygon fill="none" stroke="#000000" points="695.5,-252.5 695.5,-282.5 910.5,-282.5 910.5,-252.5 695.5,-252.5"/>
<text text-anchor="start" x="702.5" y="-263.9" font-family="Arial" font-size="14.00" fill="#000000">id    </text>
<text text-anchor="start" x="747.594" y="-263.9" font-family="Arial" font-size="14.00" fill="#666666">[int]</text>
<polygon fill="none" stroke="#000000" points="695.5,-222.5 695.5,-252.5 910.5,-252.5 910.5,-222.5 695.5,-222.5"/>
<text text-anchor="start" x="702.5" y="-233.9" font-family="Arial" font-size="14.00" fill="#000000">date    </text>
<text text-anchor="start" x="763.9432" y="-233.9" font-family="Arial" font-size="14.00" fill="#666666">[timestamp]</text>
<polygon fill="none" stroke="#000000" points="695.5,-192.5 695.5,-222.5 910.5,-222.5 910.5,-192.5 695.5,-192.5"/>
<text text-anchor="start" x="702.5" y="-203.9" font-family="Arial" font-size="14.00" fill="#000000">createdAt    </text>
<text text-anchor="start" x="796.6136" y="-203.9" font-family="Arial" font-size="14.00" fill="#666666">[timestamp]</text>
<polygon fill="none" stroke="#000000" points="695.5,-162.5 695.5,-192.5 910.5,-192.5 910.5,-162.5 695.5,-162.5"/>
<text text-anchor="start" x="702.5" y="-173.9" font-family="Arial" font-size="14.00" fill="#000000">updatedAt    </text>
<text text-anchor="start" x="800.5182" y="-173.9" font-family="Arial" font-size="14.00" fill="#666666">[timestamp]</text>
<polygon fill="none" stroke="#000000" points="695.5,-132.5 695.5,-162.5 910.5,-162.5 910.5,-132.5 695.5,-132.5"/>
<text text-anchor="start" x="702.5" y="-143.9" font-family="Arial" font-size="14.00" fill="#000000">organizationId    </text>
<text text-anchor="start" x="824.6206" y="-143.9" font-family="Arial" font-size="14.00" fill="#666666">[int]</text>
<polygon fill="none" stroke="#000000" points="695.5,-102.5 695.5,-132.5 910.5,-132.5 910.5,-102.5 695.5,-102.5"/>
<text text-anchor="start" x="702.5" y="-113.9" font-family="Arial" font-size="14.00" fill="#000000">total    </text>
<text text-anchor="start" x="763.1578" y="-113.9" font-family="Arial" font-size="14.00" fill="#666666">[int]</text>
<polygon fill="none" stroke="#000000" points="695.5,-72.5 695.5,-102.5 910.5,-102.5 910.5,-72.5 695.5,-72.5"/>
<text text-anchor="start" x="702.312" y="-83.9" font-family="Arial" font-size="14.00" fill="#000000">currency    </text>
<text text-anchor="start" x="790.1858" y="-83.9" font-family="Arial" font-size="14.00" fill="#666666">[enum(&#39;vnd&#39;,&#39;usd&#39;)]</text>
</g>
<!-- user_organization_invoices&#45;&gt;invoices -->
<g id="edge3" class="edge">
<title>user_organization_invoices:invoiceId&#45;&gt;invoices:id</title>
<path fill="none" stroke="#000000" stroke-dasharray="5,2" d="M655.7793,-546.7931C760.3113,-531.3341 572.7905,-267.5 695.5,-267.5"/>
<polygon fill="#000000" stroke="#000000" points="655.4764,-546.8138 645.1912,-543.0106 650.4882,-547.1569 645.5,-547.5 645.5,-547.5 645.5,-547.5 650.4882,-547.1569 645.8088,-551.9894 655.4764,-546.8138 655.4764,-546.8138"/>
<text text-anchor="start" x="624.2765" y="-557.5" font-family="Arial" font-size="10.00" fill="#000000">n&#45;n</text>
</g>
</g>
</svg>
