<?xml version="1.0" encoding="UTF-8" standalone="no"?>
<!DOCTYPE svg PUBLIC "-//W3C//DTD SVG 1.1//EN"
 "http://www.w3.org/Graphics/SVG/1.1/DTD/svg11.dtd">
<!-- Generated by graphviz version 2.40.1 (20161225.0304)
 -->
<!-- Title: users Pages: 1 -->
<svg width="1656pt" height="742pt"
 viewBox="0.00 0.00 1656.00 742.00" xmlns="http://www.w3.org/2000/svg" xmlns:xlink="http://www.w3.org/1999/xlink">
<g id="graph0" class="graph" transform="scale(1 1) rotate(0) translate(4 738)">
<title>users</title>
<polygon fill="#ffffff" stroke="transparent" points="-4,4 -4,-738 1652,-738 1652,4 -4,4"/>
<!-- users -->
<g id="node1" class="node">
<title>users</title>
<polygon fill="#efefef" stroke="transparent" points="725.5,-315.5 725.5,-350.5 910.5,-350.5 910.5,-315.5 725.5,-315.5"/>
<polygon fill="none" stroke="#000000" points="725.5,-315.5 725.5,-350.5 910.5,-350.5 910.5,-315.5 725.5,-315.5"/>
<text text-anchor="start" x="732.2137" y="-328.3" font-family="Arial Bold" font-size="18.00" fill="#000000">users</text>
<text text-anchor="start" x="776.2183" y="-328.3" font-family="Arial" font-size="14.00" fill="#000000">    </text>
<text text-anchor="start" x="810.4231" y="-328.3" font-family="Arial" font-size="14.00" fill="#666666">[BASE TABLE]</text>
<polygon fill="none" stroke="#000000" points="725.5,-285.5 725.5,-315.5 910.5,-315.5 910.5,-285.5 725.5,-285.5"/>
<text text-anchor="start" x="732.5" y="-296.9" font-family="Arial" font-size="14.00" fill="#000000">id </text>
<text text-anchor="start" x="747.2798" y="-296.9" font-family="Arial" font-size="14.00" fill="#666666">[int]</text>
<polygon fill="none" stroke="#000000" points="725.5,-255.5 725.5,-285.5 910.5,-285.5 910.5,-255.5 725.5,-255.5"/>
<text text-anchor="start" x="732.5" y="-266.9" font-family="Arial" font-size="14.00" fill="#000000">name </text>
<text text-anchor="start" x="771.399" y="-266.9" font-family="Arial" font-size="14.00" fill="#666666">[varchar(255)]</text>
<polygon fill="none" stroke="#000000" points="725.5,-225.5 725.5,-255.5 910.5,-255.5 910.5,-225.5 725.5,-225.5"/>
<text text-anchor="start" x="732.5" y="-236.9" font-family="Arial" font-size="14.00" fill="#000000">email </text>
<text text-anchor="start" x="769.8296" y="-236.9" font-family="Arial" font-size="14.00" fill="#666666">[varchar(255)]</text>
<polygon fill="none" stroke="#000000" points="725.5,-195.5 725.5,-225.5 910.5,-225.5 910.5,-195.5 725.5,-195.5"/>
<text text-anchor="start" x="732.5" y="-206.9" font-family="Arial" font-size="14.00" fill="#000000">password </text>
<text text-anchor="start" x="796.2882" y="-206.9" font-family="Arial" font-size="14.00" fill="#666666">[varchar(255)]</text>
<polygon fill="none" stroke="#000000" points="725.5,-165.5 725.5,-195.5 910.5,-195.5 910.5,-165.5 725.5,-165.5"/>
<text text-anchor="start" x="732.5" y="-176.9" font-family="Arial" font-size="14.00" fill="#000000">createdAt </text>
<text text-anchor="start" x="796.2994" y="-176.9" font-family="Arial" font-size="14.00" fill="#666666">[timestamp]</text>
<polygon fill="none" stroke="#000000" points="725.5,-135.5 725.5,-165.5 910.5,-165.5 910.5,-135.5 725.5,-135.5"/>
<text text-anchor="start" x="732.5" y="-146.9" font-family="Arial" font-size="14.00" fill="#000000">updatedAt </text>
<text text-anchor="start" x="800.204" y="-146.9" font-family="Arial" font-size="14.00" fill="#666666">[timestamp]</text>
<polygon fill="none" stroke="#000000" points="725.5,-105.5 725.5,-135.5 910.5,-135.5 910.5,-105.5 725.5,-105.5"/>
<text text-anchor="start" x="732.5" y="-116.9" font-family="Arial" font-size="14.00" fill="#000000">phone </text>
<text text-anchor="start" x="775.3036" y="-116.9" font-family="Arial" font-size="14.00" fill="#666666">[varchar(255)]</text>
<polygon fill="none" stroke="#000000" points="725.5,-75.5 725.5,-105.5 910.5,-105.5 910.5,-75.5 725.5,-75.5"/>
<text text-anchor="start" x="732.5" y="-86.9" font-family="Arial" font-size="14.00" fill="#000000">address </text>
<text text-anchor="start" x="786.1816" y="-86.9" font-family="Arial" font-size="14.00" fill="#666666">[varchar(255)]</text>
<polygon fill="none" stroke="#000000" points="725.5,-45.5 725.5,-75.5 910.5,-75.5 910.5,-45.5 725.5,-45.5"/>
<text text-anchor="start" x="732.5" y="-56.9" font-family="Arial" font-size="14.00" fill="#000000">avatar </text>
<text text-anchor="start" x="775.2896" y="-56.9" font-family="Arial" font-size="14.00" fill="#666666">[varchar(255)]</text>
<polygon fill="none" stroke="#000000" stroke-width="3" points="723.5,-44.5 723.5,-352.5 911.5,-352.5 911.5,-44.5 723.5,-44.5"/>
</g>
<!-- user_organization_roles -->
<g id="node2" class="node">
<title>user_organization_roles</title>
<polygon fill="#efefef" stroke="transparent" points="43.5,-655.5 43.5,-690.5 376.5,-690.5 376.5,-655.5 43.5,-655.5"/>
<polygon fill="none" stroke="#000000" points="43.5,-655.5 43.5,-690.5 376.5,-690.5 376.5,-655.5 43.5,-655.5"/>
<text text-anchor="start" x="50.195" y="-668.3" font-family="Arial Bold" font-size="18.00" fill="#000000">user_organization_roles</text>
<text text-anchor="start" x="242.237" y="-668.3" font-family="Arial" font-size="14.00" fill="#000000">    </text>
<text text-anchor="start" x="276.4418" y="-668.3" font-family="Arial" font-size="14.00" fill="#666666">[BASE TABLE]</text>
<polygon fill="none" stroke="#000000" points="43.5,-625.5 43.5,-655.5 376.5,-655.5 376.5,-625.5 43.5,-625.5"/>
<text text-anchor="start" x="50.5" y="-636.9" font-family="Arial" font-size="14.00" fill="#000000">id    </text>
<text text-anchor="start" x="95.594" y="-636.9" font-family="Arial" font-size="14.00" fill="#666666">[int]</text>
<polygon fill="none" stroke="#000000" points="43.5,-595.5 43.5,-625.5 376.5,-625.5 376.5,-595.5 43.5,-595.5"/>
<text text-anchor="start" x="50.5" y="-606.9" font-family="Arial" font-size="14.00" fill="#000000">userId    </text>
<text text-anchor="start" x="123.6038" y="-606.9" font-family="Arial" font-size="14.00" fill="#666666">[int]</text>
<polygon fill="none" stroke="#000000" points="43.5,-565.5 43.5,-595.5 376.5,-595.5 376.5,-565.5 43.5,-565.5"/>
<text text-anchor="start" x="50.5" y="-576.9" font-family="Arial" font-size="14.00" fill="#000000">organizationId    </text>
<text text-anchor="start" x="172.6206" y="-576.9" font-family="Arial" font-size="14.00" fill="#666666">[int]</text>
<polygon fill="none" stroke="#000000" points="43.5,-535.5 43.5,-565.5 376.5,-565.5 376.5,-535.5 43.5,-535.5"/>
<text text-anchor="start" x="50.5" y="-546.9" font-family="Arial" font-size="14.00" fill="#000000">roleId    </text>
<text text-anchor="start" x="119.7104" y="-546.9" font-family="Arial" font-size="14.00" fill="#666666">[int]</text>
<polygon fill="none" stroke="#000000" points="43.5,-505.5 43.5,-535.5 376.5,-535.5 376.5,-505.5 43.5,-505.5"/>
<text text-anchor="start" x="50.5" y="-516.9" font-family="Arial" font-size="14.00" fill="#000000">createdAt    </text>
<text text-anchor="start" x="144.6136" y="-516.9" font-family="Arial" font-size="14.00" fill="#666666">[timestamp]</text>
<polygon fill="none" stroke="#000000" points="43.5,-475.5 43.5,-505.5 376.5,-505.5 376.5,-475.5 43.5,-475.5"/>
<text text-anchor="start" x="50.5" y="-486.9" font-family="Arial" font-size="14.00" fill="#000000">updatedAt    </text>
<text text-anchor="start" x="148.5182" y="-486.9" font-family="Arial" font-size="14.00" fill="#666666">[timestamp]</text>
</g>
<!-- user_organization_roles&#45;&gt;users -->
<g id="edge1" class="edge">
<title>user_organization_roles:userId&#45;&gt;users:id</title>
<path fill="none" stroke="#000000" stroke-dasharray="5,2" d="M386.5781,-609.8156C451.2275,-600.2241 376.0387,-492.1377 427.5,-433 522.6499,-323.6568 580.5537,-300.5 725.5,-300.5"/>
<polygon fill="#000000" stroke="#000000" points="386.477,-609.8224 376.1951,-606.0103 381.4885,-610.1612 376.5,-610.5 376.5,-610.5 376.5,-610.5 381.4885,-610.1612 376.8049,-614.9897 386.477,-609.8224 386.477,-609.8224"/>
<text text-anchor="start" x="355.2765" y="-620.5" font-family="Arial" font-size="10.00" fill="#000000">1&#45;n</text>
</g>
<!-- user_organizations -->
<g id="node3" class="node">
<title>user_organizations</title>
<polygon fill="#efefef" stroke="transparent" points="480.5,-640.5 480.5,-675.5 773.5,-675.5 773.5,-640.5 480.5,-640.5"/>
<polygon fill="none" stroke="#000000" points="480.5,-640.5 480.5,-675.5 773.5,-675.5 773.5,-640.5 480.5,-640.5"/>
<text text-anchor="start" x="487.1975" y="-653.3" font-family="Arial Bold" font-size="18.00" fill="#000000">user_organizations</text>
<text text-anchor="start" x="639.2345" y="-653.3" font-family="Arial" font-size="14.00" fill="#000000">    </text>
<text text-anchor="start" x="673.4393" y="-653.3" font-family="Arial" font-size="14.00" fill="#666666">[BASE TABLE]</text>
<polygon fill="none" stroke="#000000" points="480.5,-610.5 480.5,-640.5 773.5,-640.5 773.5,-610.5 480.5,-610.5"/>
<text text-anchor="start" x="487.5" y="-621.9" font-family="Arial" font-size="14.00" fill="#000000">id    </text>
<text text-anchor="start" x="532.594" y="-621.9" font-family="Arial" font-size="14.00" fill="#666666">[int]</text>
<polygon fill="none" stroke="#000000" points="480.5,-580.5 480.5,-610.5 773.5,-610.5 773.5,-580.5 480.5,-580.5"/>
<text text-anchor="start" x="487.5" y="-591.9" font-family="Arial" font-size="14.00" fill="#000000">userId    </text>
<text text-anchor="start" x="560.6038" y="-591.9" font-family="Arial" font-size="14.00" fill="#666666">[int]</text>
<polygon fill="none" stroke="#000000" points="480.5,-550.5 480.5,-580.5 773.5,-580.5 773.5,-550.5 480.5,-550.5"/>
<text text-anchor="start" x="487.5" y="-561.9" font-family="Arial" font-size="14.00" fill="#000000">organizationId    </text>
<text text-anchor="start" x="609.6206" y="-561.9" font-family="Arial" font-size="14.00" fill="#666666">[int]</text>
<polygon fill="none" stroke="#000000" points="480.5,-520.5 480.5,-550.5 773.5,-550.5 773.5,-520.5 480.5,-520.5"/>
<text text-anchor="start" x="487.5" y="-531.9" font-family="Arial" font-size="14.00" fill="#000000">createdAt    </text>
<text text-anchor="start" x="581.6136" y="-531.9" font-family="Arial" font-size="14.00" fill="#666666">[timestamp]</text>
<polygon fill="none" stroke="#000000" points="480.5,-490.5 480.5,-520.5 773.5,-520.5 773.5,-490.5 480.5,-490.5"/>
<text text-anchor="start" x="487.5" y="-501.9" font-family="Arial" font-size="14.00" fill="#000000">updatedAt    </text>
<text text-anchor="start" x="585.5182" y="-501.9" font-family="Arial" font-size="14.00" fill="#666666">[timestamp]</text>
</g>
<!-- user_organizations&#45;&gt;users -->
<g id="edge2" class="edge">
<title>user_organizations:userId&#45;&gt;users:id</title>
<path fill="none" stroke="#000000" stroke-dasharray="5,2" d="M783.6326,-594.6873C834.4222,-585.7764 796.298,-505.4869 773.5,-448 762.0252,-419.0653 736.9748,-425.9347 725.5,-397 709.6892,-357.1318 682.6111,-300.5 725.5,-300.5"/>
<polygon fill="#000000" stroke="#000000" points="783.468,-594.7004 773.1402,-591.0144 778.484,-595.1002 773.5,-595.5 773.5,-595.5 773.5,-595.5 778.484,-595.1002 773.8598,-599.9856 783.468,-594.7004 783.468,-594.7004"/>
<text text-anchor="start" x="752.2765" y="-605.5" font-family="Arial" font-size="10.00" fill="#000000">1&#45;n</text>
</g>
<!-- invoice_owners -->
<g id="node4" class="node">
<title>invoice_owners</title>
<polygon fill="#efefef" stroke="transparent" points="877.5,-640.5 877.5,-675.5 1142.5,-675.5 1142.5,-640.5 877.5,-640.5"/>
<polygon fill="none" stroke="#000000" points="877.5,-640.5 877.5,-675.5 1142.5,-675.5 1142.5,-640.5 877.5,-640.5"/>
<text text-anchor="start" x="884.2069" y="-653.3" font-family="Arial Bold" font-size="18.00" fill="#000000">invoice_owners</text>
<text text-anchor="start" x="1008.2251" y="-653.3" font-family="Arial" font-size="14.00" fill="#000000">    </text>
<text text-anchor="start" x="1042.4299" y="-653.3" font-family="Arial" font-size="14.00" fill="#666666">[BASE TABLE]</text>
<polygon fill="none" stroke="#000000" points="877.5,-610.5 877.5,-640.5 1142.5,-640.5 1142.5,-610.5 877.5,-610.5"/>
<text text-anchor="start" x="884.5" y="-621.9" font-family="Arial" font-size="14.00" fill="#000000">id    </text>
<text text-anchor="start" x="929.594" y="-621.9" font-family="Arial" font-size="14.00" fill="#666666">[int]</text>
<polygon fill="none" stroke="#000000" points="877.5,-580.5 877.5,-610.5 1142.5,-610.5 1142.5,-580.5 877.5,-580.5"/>
<text text-anchor="start" x="884.5" y="-591.9" font-family="Arial" font-size="14.00" fill="#000000">invoiceId    </text>
<text text-anchor="start" x="973.939" y="-591.9" font-family="Arial" font-size="14.00" fill="#666666">[int]</text>
<polygon fill="none" stroke="#000000" points="877.5,-550.5 877.5,-580.5 1142.5,-580.5 1142.5,-550.5 877.5,-550.5"/>
<text text-anchor="start" x="884.5" y="-561.9" font-family="Arial" font-size="14.00" fill="#000000">userId    </text>
<text text-anchor="start" x="957.6038" y="-561.9" font-family="Arial" font-size="14.00" fill="#666666">[int]</text>
<polygon fill="none" stroke="#000000" points="877.5,-520.5 877.5,-550.5 1142.5,-550.5 1142.5,-520.5 877.5,-520.5"/>
<text text-anchor="start" x="884.5" y="-531.9" font-family="Arial" font-size="14.00" fill="#000000">createdAt    </text>
<text text-anchor="start" x="978.6136" y="-531.9" font-family="Arial" font-size="14.00" fill="#666666">[timestamp]</text>
<polygon fill="none" stroke="#000000" points="877.5,-490.5 877.5,-520.5 1142.5,-520.5 1142.5,-490.5 877.5,-490.5"/>
<text text-anchor="start" x="884.5" y="-501.9" font-family="Arial" font-size="14.00" fill="#000000">updatedAt    </text>
<text text-anchor="start" x="982.5182" y="-501.9" font-family="Arial" font-size="14.00" fill="#666666">[timestamp]</text>
</g>
<!-- invoice_owners&#45;&gt;users -->
<g id="edge3" class="edge">
<title>invoice_owners:userId&#45;&gt;users:id</title>
<path fill="none" stroke="#000000" stroke-dasharray="5,2" d="M867.308,-564.4206C830.7093,-555.5884 863.8072,-494.3668 877.5,-448 885.1464,-422.1075 902.8536,-422.8925 910.5,-397 922.6471,-355.8672 953.3889,-300.5 910.5,-300.5"/>
<polygon fill="#000000" stroke="#000000" points="867.5556,-564.4467 877.026,-569.975 872.5278,-564.9734 877.5,-565.5 877.5,-565.5 877.5,-565.5 872.5278,-564.9734 877.974,-561.025 867.5556,-564.4467 867.5556,-564.4467"/>
<text text-anchor="start" x="856.2765" y="-575.5" font-family="Arial" font-size="10.00" fill="#000000">n&#45;1</text>
</g>
<!-- user_organization_invoices -->
<g id="node5" class="node">
<title>user_organization_invoices</title>
<polygon fill="#efefef" stroke="transparent" points="1246.5,-655.5 1246.5,-690.5 1605.5,-690.5 1605.5,-655.5 1246.5,-655.5"/>
<polygon fill="none" stroke="#000000" points="1246.5,-655.5 1246.5,-690.5 1605.5,-690.5 1605.5,-655.5 1246.5,-655.5"/>
<text text-anchor="start" x="1253.1909" y="-668.3" font-family="Arial Bold" font-size="18.00" fill="#000000">user_organization_invoices</text>
<text text-anchor="start" x="1471.2411" y="-668.3" font-family="Arial" font-size="14.00" fill="#000000">    </text>
<text text-anchor="start" x="1505.4459" y="-668.3" font-family="Arial" font-size="14.00" fill="#666666">[BASE TABLE]</text>
<polygon fill="none" stroke="#000000" points="1246.5,-625.5 1246.5,-655.5 1605.5,-655.5 1605.5,-625.5 1246.5,-625.5"/>
<text text-anchor="start" x="1253.5" y="-636.9" font-family="Arial" font-size="14.00" fill="#000000">id    </text>
<text text-anchor="start" x="1298.594" y="-636.9" font-family="Arial" font-size="14.00" fill="#666666">[int]</text>
<polygon fill="none" stroke="#000000" points="1246.5,-595.5 1246.5,-625.5 1605.5,-625.5 1605.5,-595.5 1246.5,-595.5"/>
<text text-anchor="start" x="1253.5" y="-606.9" font-family="Arial" font-size="14.00" fill="#000000">userId    </text>
<text text-anchor="start" x="1326.6038" y="-606.9" font-family="Arial" font-size="14.00" fill="#666666">[int]</text>
<polygon fill="none" stroke="#000000" points="1246.5,-565.5 1246.5,-595.5 1605.5,-595.5 1605.5,-565.5 1246.5,-565.5"/>
<text text-anchor="start" x="1253.5" y="-576.9" font-family="Arial" font-size="14.00" fill="#000000">organizationId    </text>
<text text-anchor="start" x="1375.6206" y="-576.9" font-family="Arial" font-size="14.00" fill="#666666">[int]</text>
<polygon fill="none" stroke="#000000" points="1246.5,-535.5 1246.5,-565.5 1605.5,-565.5 1605.5,-535.5 1246.5,-535.5"/>
<text text-anchor="start" x="1253.5" y="-546.9" font-family="Arial" font-size="14.00" fill="#000000">invoiceId    </text>
<text text-anchor="start" x="1342.939" y="-546.9" font-family="Arial" font-size="14.00" fill="#666666">[int]</text>
<polygon fill="none" stroke="#000000" points="1246.5,-505.5 1246.5,-535.5 1605.5,-535.5 1605.5,-505.5 1246.5,-505.5"/>
<text text-anchor="start" x="1253.5" y="-516.9" font-family="Arial" font-size="14.00" fill="#000000">createdAt    </text>
<text text-anchor="start" x="1347.6136" y="-516.9" font-family="Arial" font-size="14.00" fill="#666666">[timestamp]</text>
<polygon fill="none" stroke="#000000" points="1246.5,-475.5 1246.5,-505.5 1605.5,-505.5 1605.5,-475.5 1246.5,-475.5"/>
<text text-anchor="start" x="1253.5" y="-486.9" font-family="Arial" font-size="14.00" fill="#000000">updatedAt    </text>
<text text-anchor="start" x="1351.5182" y="-486.9" font-family="Arial" font-size="14.00" fill="#666666">[timestamp]</text>
</g>
<!-- user_organization_invoices&#45;&gt;users -->
<g id="edge4" class="edge">
<title>user_organization_invoices:userId&#45;&gt;users:id</title>
<path fill="none" stroke="#000000" stroke-dasharray="5,2" d="M1236.3989,-609.8182C1171.5441,-600.262 1245.6542,-492.5595 1194.5,-433 1103.7498,-327.3385 1049.7837,-300.5 910.5,-300.5"/>
<polygon fill="#000000" stroke="#000000" points="1236.5227,-609.8264 1246.1969,-614.9898 1241.5114,-610.1632 1246.5,-610.5 1246.5,-610.5 1246.5,-610.5 1241.5114,-610.1632 1246.8031,-606.0102 1236.5227,-609.8264 1236.5227,-609.8264"/>
<text text-anchor="start" x="1225.2765" y="-620.5" font-family="Arial" font-size="10.00" fill="#000000">1&#45;n</text>
</g>
</g>
</svg>
