<?xml version="1.0" encoding="UTF-8" standalone="no"?>
<!DOCTYPE svg PUBLIC "-//W3C//DTD SVG 1.1//EN"
 "http://www.w3.org/Graphics/SVG/1.1/DTD/svg11.dtd">
<!-- Generated by graphviz version 2.40.1 (20161225.0304)
 -->
<!-- Title: user_organizations Pages: 1 -->
<svg width="642pt" height="622pt"
 viewBox="0.00 0.00 641.50 622.00" xmlns="http://www.w3.org/2000/svg" xmlns:xlink="http://www.w3.org/1999/xlink">
<g id="graph0" class="graph" transform="scale(1 1) rotate(0) translate(4 618)">
<title>user_organizations</title>
<polygon fill="#ffffff" stroke="transparent" points="-4,4 -4,-618 637.5,-618 637.5,4 -4,4"/>
<!-- user_organizations -->
<g id="node1" class="node">
<title>user_organizations</title>
<polygon fill="#efefef" stroke="transparent" points="156.5,-532.5 156.5,-567.5 449.5,-567.5 449.5,-532.5 156.5,-532.5"/>
<polygon fill="none" stroke="#000000" points="156.5,-532.5 156.5,-567.5 449.5,-567.5 449.5,-532.5 156.5,-532.5"/>
<text text-anchor="start" x="163.1975" y="-545.3" font-family="Arial Bold" font-size="18.00" fill="#000000">user_organizations</text>
<text text-anchor="start" x="315.2345" y="-545.3" font-family="Arial" font-size="14.00" fill="#000000">    </text>
<text text-anchor="start" x="349.4393" y="-545.3" font-family="Arial" font-size="14.00" fill="#666666">[BASE TABLE]</text>
<polygon fill="none" stroke="#000000" points="156.5,-502.5 156.5,-532.5 449.5,-532.5 449.5,-502.5 156.5,-502.5"/>
<text text-anchor="start" x="163.5" y="-513.9" font-family="Arial" font-size="14.00" fill="#000000">id </text>
<text text-anchor="start" x="178.2798" y="-513.9" font-family="Arial" font-size="14.00" fill="#666666">[int]</text>
<polygon fill="none" stroke="#000000" points="156.5,-472.5 156.5,-502.5 449.5,-502.5 449.5,-472.5 156.5,-472.5"/>
<text text-anchor="start" x="163.5" y="-483.9" font-family="Arial" font-size="14.00" fill="#000000">userId </text>
<text text-anchor="start" x="206.2896" y="-483.9" font-family="Arial" font-size="14.00" fill="#666666">[int]</text>
<polygon fill="none" stroke="#000000" points="156.5,-442.5 156.5,-472.5 449.5,-472.5 449.5,-442.5 156.5,-442.5"/>
<text text-anchor="start" x="163.5" y="-453.9" font-family="Arial" font-size="14.00" fill="#000000">organizationId </text>
<text text-anchor="start" x="255.3064" y="-453.9" font-family="Arial" font-size="14.00" fill="#666666">[int]</text>
<polygon fill="none" stroke="#000000" points="156.5,-412.5 156.5,-442.5 449.5,-442.5 449.5,-412.5 156.5,-412.5"/>
<text text-anchor="start" x="163.5" y="-423.9" font-family="Arial" font-size="14.00" fill="#000000">createdAt </text>
<text text-anchor="start" x="227.2994" y="-423.9" font-family="Arial" font-size="14.00" fill="#666666">[timestamp]</text>
<polygon fill="none" stroke="#000000" points="156.5,-382.5 156.5,-412.5 449.5,-412.5 449.5,-382.5 156.5,-382.5"/>
<text text-anchor="start" x="163.5" y="-393.9" font-family="Arial" font-size="14.00" fill="#000000">updatedAt </text>
<text text-anchor="start" x="231.204" y="-393.9" font-family="Arial" font-size="14.00" fill="#666666">[timestamp]</text>
<polygon fill="none" stroke="#000000" stroke-width="3" points="154.5,-381.5 154.5,-569.5 450.5,-569.5 450.5,-381.5 154.5,-381.5"/>
</g>
<!-- users -->
<g id="node2" class="node">
<title>users</title>
<polygon fill="#efefef" stroke="transparent" points="43.5,-222.5 43.5,-257.5 238.5,-257.5 238.5,-222.5 43.5,-222.5"/>
<polygon fill="none" stroke="#000000" points="43.5,-222.5 43.5,-257.5 238.5,-257.5 238.5,-222.5 43.5,-222.5"/>
<text text-anchor="start" x="55.2137" y="-235.3" font-family="Arial Bold" font-size="18.00" fill="#000000">users</text>
<text text-anchor="start" x="99.2183" y="-235.3" font-family="Arial" font-size="14.00" fill="#000000">    </text>
<text text-anchor="start" x="133.4231" y="-235.3" font-family="Arial" font-size="14.00" fill="#666666">[BASE TABLE]</text>
<polygon fill="none" stroke="#000000" points="43.5,-192.5 43.5,-222.5 238.5,-222.5 238.5,-192.5 43.5,-192.5"/>
<text text-anchor="start" x="50.5" y="-203.9" font-family="Arial" font-size="14.00" fill="#000000">id    </text>
<text text-anchor="start" x="95.594" y="-203.9" font-family="Arial" font-size="14.00" fill="#666666">[int]</text>
<polygon fill="none" stroke="#000000" points="43.5,-162.5 43.5,-192.5 238.5,-192.5 238.5,-162.5 43.5,-162.5"/>
<text text-anchor="start" x="50.5" y="-173.9" font-family="Arial" font-size="14.00" fill="#000000">name    </text>
<text text-anchor="start" x="119.7132" y="-173.9" font-family="Arial" font-size="14.00" fill="#666666">[varchar(255)]</text>
<polygon fill="none" stroke="#000000" points="43.5,-132.5 43.5,-162.5 238.5,-162.5 238.5,-132.5 43.5,-132.5"/>
<text text-anchor="start" x="50.5" y="-143.9" font-family="Arial" font-size="14.00" fill="#000000">email    </text>
<text text-anchor="start" x="118.1438" y="-143.9" font-family="Arial" font-size="14.00" fill="#666666">[varchar(255)]</text>
<polygon fill="none" stroke="#000000" points="43.5,-102.5 43.5,-132.5 238.5,-132.5 238.5,-102.5 43.5,-102.5"/>
<text text-anchor="start" x="50.3892" y="-113.9" font-family="Arial" font-size="14.00" fill="#000000">password    </text>
<text text-anchor="start" x="144.4916" y="-113.9" font-family="Arial" font-size="14.00" fill="#666666">[varchar(255)]</text>
<polygon fill="none" stroke="#000000" points="43.5,-72.5 43.5,-102.5 238.5,-102.5 238.5,-72.5 43.5,-72.5"/>
<text text-anchor="start" x="50.5" y="-83.9" font-family="Arial" font-size="14.00" fill="#000000">createdAt    </text>
<text text-anchor="start" x="144.6136" y="-83.9" font-family="Arial" font-size="14.00" fill="#666666">[timestamp]</text>
<polygon fill="none" stroke="#000000" points="43.5,-42.5 43.5,-72.5 238.5,-72.5 238.5,-42.5 43.5,-42.5"/>
<text text-anchor="start" x="50.5" y="-53.9" font-family="Arial" font-size="14.00" fill="#000000">updatedAt    </text>
<text text-anchor="start" x="148.5182" y="-53.9" font-family="Arial" font-size="14.00" fill="#666666">[timestamp]</text>
</g>
<!-- user_organizations&#45;&gt;users -->
<g id="edge1" class="edge">
<title>user_organizations:userId&#45;&gt;users:id</title>
<path fill="none" stroke="#000000" stroke-dasharray="5,2" d="M146.3833,-486.6739C92.9453,-477.2795 121.9245,-389.9404 156.5,-337 178.2643,-303.6756 216.7357,-334.3244 238.5,-301 261.2231,-266.2074 280.0556,-207.5 238.5,-207.5"/>
<polygon fill="#000000" stroke="#000000" points="146.5332,-486.6861 156.1337,-491.9851 151.5166,-487.093 156.5,-487.5 156.5,-487.5 156.5,-487.5 151.5166,-487.093 156.8663,-483.0149 146.5332,-486.6861 146.5332,-486.6861"/>
<text text-anchor="start" x="135.2765" y="-497.5" font-family="Arial" font-size="10.00" fill="#000000">1&#45;n</text>
</g>
<!-- organizations -->
<g id="node3" class="node">
<title>organizations</title>
<polygon fill="#efefef" stroke="transparent" points="342.5,-207.5 342.5,-242.5 590.5,-242.5 590.5,-207.5 342.5,-207.5"/>
<polygon fill="none" stroke="#000000" points="342.5,-207.5 342.5,-242.5 590.5,-242.5 590.5,-207.5 342.5,-207.5"/>
<text text-anchor="start" x="349.2029" y="-220.3" font-family="Arial Bold" font-size="18.00" fill="#000000">organizations</text>
<text text-anchor="start" x="456.2291" y="-220.3" font-family="Arial" font-size="14.00" fill="#000000">    </text>
<text text-anchor="start" x="490.4339" y="-220.3" font-family="Arial" font-size="14.00" fill="#666666">[BASE TABLE]</text>
<polygon fill="none" stroke="#000000" points="342.5,-177.5 342.5,-207.5 590.5,-207.5 590.5,-177.5 342.5,-177.5"/>
<text text-anchor="start" x="349.5" y="-188.9" font-family="Arial" font-size="14.00" fill="#000000">id    </text>
<text text-anchor="start" x="394.594" y="-188.9" font-family="Arial" font-size="14.00" fill="#666666">[int]</text>
<polygon fill="none" stroke="#000000" points="342.5,-147.5 342.5,-177.5 590.5,-177.5 590.5,-147.5 342.5,-147.5"/>
<text text-anchor="start" x="349.5" y="-158.9" font-family="Arial" font-size="14.00" fill="#000000">name    </text>
<text text-anchor="start" x="418.7132" y="-158.9" font-family="Arial" font-size="14.00" fill="#666666">[varchar(255)]</text>
<polygon fill="none" stroke="#000000" points="342.5,-117.5 342.5,-147.5 590.5,-147.5 590.5,-117.5 342.5,-117.5"/>
<text text-anchor="start" x="349.5" y="-128.9" font-family="Arial" font-size="14.00" fill="#000000">uniqueName    </text>
<text text-anchor="start" x="463.0568" y="-128.9" font-family="Arial" font-size="14.00" fill="#666666">[varchar(255)]</text>
<polygon fill="none" stroke="#000000" points="342.5,-87.5 342.5,-117.5 590.5,-117.5 590.5,-87.5 342.5,-87.5"/>
<text text-anchor="start" x="349.5" y="-98.9" font-family="Arial" font-size="14.00" fill="#000000">createdAt    </text>
<text text-anchor="start" x="443.6136" y="-98.9" font-family="Arial" font-size="14.00" fill="#666666">[timestamp]</text>
<polygon fill="none" stroke="#000000" points="342.5,-57.5 342.5,-87.5 590.5,-87.5 590.5,-57.5 342.5,-57.5"/>
<text text-anchor="start" x="349.5" y="-68.9" font-family="Arial" font-size="14.00" fill="#000000">updatedAt    </text>
<text text-anchor="start" x="447.5182" y="-68.9" font-family="Arial" font-size="14.00" fill="#666666">[timestamp]</text>
</g>
<!-- user_organizations&#45;&gt;organizations -->
<g id="edge2" class="edge">
<title>user_organizations:organizationId&#45;&gt;organizations:id</title>
<path fill="none" stroke="#000000" stroke-dasharray="5,2" d="M459.6582,-456.4211C499.5261,-447.0714 476.0745,-379.105 449.5,-337 421.3824,-292.4499 370.6176,-330.5501 342.5,-286 320.3205,-250.8584 300.9444,-192.5 342.5,-192.5"/>
<polygon fill="#000000" stroke="#000000" points="459.4441,-456.4437 449.0247,-453.0252 454.472,-456.9719 449.5,-457.5 449.5,-457.5 449.5,-457.5 454.472,-456.9719 449.9753,-461.9748 459.4441,-456.4437 459.4441,-456.4437"/>
<text text-anchor="start" x="428.2765" y="-467.5" font-family="Arial" font-size="10.00" fill="#000000">1&#45;n</text>
</g>
</g>
</svg>
