<?xml version="1.0" encoding="UTF-8" standalone="no"?>
<!DOCTYPE svg PUBLIC "-//W3C//DTD SVG 1.1//EN"
 "http://www.w3.org/Graphics/SVG/1.1/DTD/svg11.dtd">
<!-- Generated by graphviz version 2.40.1 (20161225.0304)
 -->
<!-- Title: user_organization_roles Pages: 1 -->
<svg width="930pt" height="742pt"
 viewBox="0.00 0.00 929.50 742.00" xmlns="http://www.w3.org/2000/svg" xmlns:xlink="http://www.w3.org/1999/xlink">
<g id="graph0" class="graph" transform="scale(1 1) rotate(0) translate(4 738)">
<title>user_organization_roles</title>
<polygon fill="#ffffff" stroke="transparent" points="-4,4 -4,-738 925.5,-738 925.5,4 -4,4"/>
<!-- user_organization_roles -->
<g id="node1" class="node">
<title>user_organization_roles</title>
<polygon fill="#efefef" stroke="transparent" points="299.5,-652.5 299.5,-687.5 632.5,-687.5 632.5,-652.5 299.5,-652.5"/>
<polygon fill="none" stroke="#000000" points="299.5,-652.5 299.5,-687.5 632.5,-687.5 632.5,-652.5 299.5,-652.5"/>
<text text-anchor="start" x="306.195" y="-665.3" font-family="Arial Bold" font-size="18.00" fill="#000000">user_organization_roles</text>
<text text-anchor="start" x="498.237" y="-665.3" font-family="Arial" font-size="14.00" fill="#000000">    </text>
<text text-anchor="start" x="532.4418" y="-665.3" font-family="Arial" font-size="14.00" fill="#666666">[BASE TABLE]</text>
<polygon fill="none" stroke="#000000" points="299.5,-622.5 299.5,-652.5 632.5,-652.5 632.5,-622.5 299.5,-622.5"/>
<text text-anchor="start" x="306.5" y="-633.9" font-family="Arial" font-size="14.00" fill="#000000">id </text>
<text text-anchor="start" x="321.2798" y="-633.9" font-family="Arial" font-size="14.00" fill="#666666">[int]</text>
<polygon fill="none" stroke="#000000" points="299.5,-592.5 299.5,-622.5 632.5,-622.5 632.5,-592.5 299.5,-592.5"/>
<text text-anchor="start" x="306.5" y="-603.9" font-family="Arial" font-size="14.00" fill="#000000">userId </text>
<text text-anchor="start" x="349.2896" y="-603.9" font-family="Arial" font-size="14.00" fill="#666666">[int]</text>
<polygon fill="none" stroke="#000000" points="299.5,-562.5 299.5,-592.5 632.5,-592.5 632.5,-562.5 299.5,-562.5"/>
<text text-anchor="start" x="306.5" y="-573.9" font-family="Arial" font-size="14.00" fill="#000000">organizationId </text>
<text text-anchor="start" x="398.3064" y="-573.9" font-family="Arial" font-size="14.00" fill="#666666">[int]</text>
<polygon fill="none" stroke="#000000" points="299.5,-532.5 299.5,-562.5 632.5,-562.5 632.5,-532.5 299.5,-532.5"/>
<text text-anchor="start" x="306.5" y="-543.9" font-family="Arial" font-size="14.00" fill="#000000">roleId </text>
<text text-anchor="start" x="345.3962" y="-543.9" font-family="Arial" font-size="14.00" fill="#666666">[int]</text>
<polygon fill="none" stroke="#000000" points="299.5,-502.5 299.5,-532.5 632.5,-532.5 632.5,-502.5 299.5,-502.5"/>
<text text-anchor="start" x="306.5" y="-513.9" font-family="Arial" font-size="14.00" fill="#000000">createdAt </text>
<text text-anchor="start" x="370.2994" y="-513.9" font-family="Arial" font-size="14.00" fill="#666666">[timestamp]</text>
<polygon fill="none" stroke="#000000" points="299.5,-472.5 299.5,-502.5 632.5,-502.5 632.5,-472.5 299.5,-472.5"/>
<text text-anchor="start" x="306.5" y="-483.9" font-family="Arial" font-size="14.00" fill="#000000">updatedAt </text>
<text text-anchor="start" x="374.204" y="-483.9" font-family="Arial" font-size="14.00" fill="#666666">[timestamp]</text>
<polygon fill="none" stroke="#000000" stroke-width="3" points="297.5,-471.5 297.5,-689.5 633.5,-689.5 633.5,-471.5 297.5,-471.5"/>
</g>
<!-- users -->
<g id="node2" class="node">
<title>users</title>
<polygon fill="#efefef" stroke="transparent" points="43.5,-312.5 43.5,-347.5 238.5,-347.5 238.5,-312.5 43.5,-312.5"/>
<polygon fill="none" stroke="#000000" points="43.5,-312.5 43.5,-347.5 238.5,-347.5 238.5,-312.5 43.5,-312.5"/>
<text text-anchor="start" x="55.2137" y="-325.3" font-family="Arial Bold" font-size="18.00" fill="#000000">users</text>
<text text-anchor="start" x="99.2183" y="-325.3" font-family="Arial" font-size="14.00" fill="#000000">    </text>
<text text-anchor="start" x="133.4231" y="-325.3" font-family="Arial" font-size="14.00" fill="#666666">[BASE TABLE]</text>
<polygon fill="none" stroke="#000000" points="43.5,-282.5 43.5,-312.5 238.5,-312.5 238.5,-282.5 43.5,-282.5"/>
<text text-anchor="start" x="50.5" y="-293.9" font-family="Arial" font-size="14.00" fill="#000000">id    </text>
<text text-anchor="start" x="95.594" y="-293.9" font-family="Arial" font-size="14.00" fill="#666666">[int]</text>
<polygon fill="none" stroke="#000000" points="43.5,-252.5 43.5,-282.5 238.5,-282.5 238.5,-252.5 43.5,-252.5"/>
<text text-anchor="start" x="50.5" y="-263.9" font-family="Arial" font-size="14.00" fill="#000000">name    </text>
<text text-anchor="start" x="119.7132" y="-263.9" font-family="Arial" font-size="14.00" fill="#666666">[varchar(255)]</text>
<polygon fill="none" stroke="#000000" points="43.5,-222.5 43.5,-252.5 238.5,-252.5 238.5,-222.5 43.5,-222.5"/>
<text text-anchor="start" x="50.5" y="-233.9" font-family="Arial" font-size="14.00" fill="#000000">email    </text>
<text text-anchor="start" x="118.1438" y="-233.9" font-family="Arial" font-size="14.00" fill="#666666">[varchar(255)]</text>
<polygon fill="none" stroke="#000000" points="43.5,-192.5 43.5,-222.5 238.5,-222.5 238.5,-192.5 43.5,-192.5"/>
<text text-anchor="start" x="50.3892" y="-203.9" font-family="Arial" font-size="14.00" fill="#000000">password    </text>
<text text-anchor="start" x="144.4916" y="-203.9" font-family="Arial" font-size="14.00" fill="#666666">[varchar(255)]</text>
<polygon fill="none" stroke="#000000" points="43.5,-162.5 43.5,-192.5 238.5,-192.5 238.5,-162.5 43.5,-162.5"/>
<text text-anchor="start" x="50.5" y="-173.9" font-family="Arial" font-size="14.00" fill="#000000">createdAt    </text>
<text text-anchor="start" x="144.6136" y="-173.9" font-family="Arial" font-size="14.00" fill="#666666">[timestamp]</text>
<polygon fill="none" stroke="#000000" points="43.5,-132.5 43.5,-162.5 238.5,-162.5 238.5,-132.5 43.5,-132.5"/>
<text text-anchor="start" x="50.5" y="-143.9" font-family="Arial" font-size="14.00" fill="#000000">updatedAt    </text>
<text text-anchor="start" x="148.5182" y="-143.9" font-family="Arial" font-size="14.00" fill="#666666">[timestamp]</text>
<polygon fill="none" stroke="#000000" points="43.5,-102.5 43.5,-132.5 238.5,-132.5 238.5,-102.5 43.5,-102.5"/>
<text text-anchor="start" x="50.5" y="-113.9" font-family="Arial" font-size="14.00" fill="#000000">phone    </text>
<text text-anchor="start" x="123.6178" y="-113.9" font-family="Arial" font-size="14.00" fill="#666666">[varchar(255)]</text>
<polygon fill="none" stroke="#000000" points="43.5,-72.5 43.5,-102.5 238.5,-102.5 238.5,-72.5 43.5,-72.5"/>
<text text-anchor="start" x="50.5" y="-83.9" font-family="Arial" font-size="14.00" fill="#000000">address    </text>
<text text-anchor="start" x="134.4958" y="-83.9" font-family="Arial" font-size="14.00" fill="#666666">[varchar(255)]</text>
<polygon fill="none" stroke="#000000" points="43.5,-42.5 43.5,-72.5 238.5,-72.5 238.5,-42.5 43.5,-42.5"/>
<text text-anchor="start" x="50.5" y="-53.9" font-family="Arial" font-size="14.00" fill="#000000">avatar    </text>
<text text-anchor="start" x="123.6038" y="-53.9" font-family="Arial" font-size="14.00" fill="#666666">[varchar(255)]</text>
</g>
<!-- user_organization_roles&#45;&gt;users -->
<g id="edge1" class="edge">
<title>user_organization_roles:userId&#45;&gt;users:id</title>
<path fill="none" stroke="#000000" stroke-dasharray="5,2" d="M289.4889,-606.9106C170.0117,-591.9577 375.3545,-297.5 238.5,-297.5"/>
<polygon fill="#000000" stroke="#000000" points="289.5173,-606.9122 299.2355,-611.9922 294.5086,-607.2061 299.5,-607.5 299.5,-607.5 299.5,-607.5 294.5086,-607.2061 299.7645,-603.0078 289.5173,-606.9122 289.5173,-606.9122"/>
<text text-anchor="start" x="278.2765" y="-617.5" font-family="Arial" font-size="10.00" fill="#000000">1&#45;n</text>
</g>
<!-- organizations -->
<g id="node3" class="node">
<title>organizations</title>
<polygon fill="#efefef" stroke="transparent" points="342.5,-282.5 342.5,-317.5 590.5,-317.5 590.5,-282.5 342.5,-282.5"/>
<polygon fill="none" stroke="#000000" points="342.5,-282.5 342.5,-317.5 590.5,-317.5 590.5,-282.5 342.5,-282.5"/>
<text text-anchor="start" x="349.2029" y="-295.3" font-family="Arial Bold" font-size="18.00" fill="#000000">organizations</text>
<text text-anchor="start" x="456.2291" y="-295.3" font-family="Arial" font-size="14.00" fill="#000000">    </text>
<text text-anchor="start" x="490.4339" y="-295.3" font-family="Arial" font-size="14.00" fill="#666666">[BASE TABLE]</text>
<polygon fill="none" stroke="#000000" points="342.5,-252.5 342.5,-282.5 590.5,-282.5 590.5,-252.5 342.5,-252.5"/>
<text text-anchor="start" x="349.5" y="-263.9" font-family="Arial" font-size="14.00" fill="#000000">id    </text>
<text text-anchor="start" x="394.594" y="-263.9" font-family="Arial" font-size="14.00" fill="#666666">[int]</text>
<polygon fill="none" stroke="#000000" points="342.5,-222.5 342.5,-252.5 590.5,-252.5 590.5,-222.5 342.5,-222.5"/>
<text text-anchor="start" x="349.5" y="-233.9" font-family="Arial" font-size="14.00" fill="#000000">name    </text>
<text text-anchor="start" x="418.7132" y="-233.9" font-family="Arial" font-size="14.00" fill="#666666">[varchar(255)]</text>
<polygon fill="none" stroke="#000000" points="342.5,-192.5 342.5,-222.5 590.5,-222.5 590.5,-192.5 342.5,-192.5"/>
<text text-anchor="start" x="349.5" y="-203.9" font-family="Arial" font-size="14.00" fill="#000000">uniqueName    </text>
<text text-anchor="start" x="463.0568" y="-203.9" font-family="Arial" font-size="14.00" fill="#666666">[varchar(255)]</text>
<polygon fill="none" stroke="#000000" points="342.5,-162.5 342.5,-192.5 590.5,-192.5 590.5,-162.5 342.5,-162.5"/>
<text text-anchor="start" x="349.5" y="-173.9" font-family="Arial" font-size="14.00" fill="#000000">createdAt    </text>
<text text-anchor="start" x="443.6136" y="-173.9" font-family="Arial" font-size="14.00" fill="#666666">[timestamp]</text>
<polygon fill="none" stroke="#000000" points="342.5,-132.5 342.5,-162.5 590.5,-162.5 590.5,-132.5 342.5,-132.5"/>
<text text-anchor="start" x="349.5" y="-143.9" font-family="Arial" font-size="14.00" fill="#000000">updatedAt    </text>
<text text-anchor="start" x="447.5182" y="-143.9" font-family="Arial" font-size="14.00" fill="#666666">[timestamp]</text>
<polygon fill="none" stroke="#000000" points="342.5,-102.5 342.5,-132.5 590.5,-132.5 590.5,-102.5 342.5,-102.5"/>
<text text-anchor="start" x="349.5" y="-113.9" font-family="Arial" font-size="14.00" fill="#000000">phone    </text>
<text text-anchor="start" x="422.6178" y="-113.9" font-family="Arial" font-size="14.00" fill="#666666">[varchar(255)]</text>
<polygon fill="none" stroke="#000000" points="342.5,-72.5 342.5,-102.5 590.5,-102.5 590.5,-72.5 342.5,-72.5"/>
<text text-anchor="start" x="349.5" y="-83.9" font-family="Arial" font-size="14.00" fill="#000000">address    </text>
<text text-anchor="start" x="433.4958" y="-83.9" font-family="Arial" font-size="14.00" fill="#666666">[varchar(255)]</text>
</g>
<!-- user_organization_roles&#45;&gt;organizations -->
<g id="edge2" class="edge">
<title>user_organization_roles:organizationId&#45;&gt;organizations:id</title>
<path fill="none" stroke="#000000" stroke-dasharray="5,2" d="M642.6604,-576.6424C696.5866,-566.8949 671.9393,-476.4236 632.5,-427 550.0519,-323.6796 424.9481,-464.3204 342.5,-361 316.5804,-328.5187 300.9444,-267.5 342.5,-267.5"/>
<polygon fill="#000000" stroke="#000000" points="642.4646,-576.6588 632.1215,-573.0159 637.4823,-577.0794 632.5,-577.5 632.5,-577.5 632.5,-577.5 637.4823,-577.0794 632.8785,-581.9841 642.4646,-576.6588 642.4646,-576.6588"/>
<text text-anchor="start" x="611.2765" y="-587.5" font-family="Arial" font-size="10.00" fill="#000000">1&#45;n</text>
</g>
<!-- roles -->
<g id="node4" class="node">
<title>roles</title>
<polygon fill="#efefef" stroke="transparent" points="694.5,-267.5 694.5,-302.5 878.5,-302.5 878.5,-267.5 694.5,-267.5"/>
<polygon fill="none" stroke="#000000" points="694.5,-267.5 694.5,-302.5 878.5,-302.5 878.5,-267.5 694.5,-267.5"/>
<text text-anchor="start" x="703.2166" y="-280.3" font-family="Arial Bold" font-size="18.00" fill="#000000">roles</text>
<text text-anchor="start" x="742.2154" y="-280.3" font-family="Arial" font-size="14.00" fill="#000000">    </text>
<text text-anchor="start" x="776.4202" y="-280.3" font-family="Arial" font-size="14.00" fill="#666666">[BASE TABLE]</text>
<polygon fill="none" stroke="#000000" points="694.5,-237.5 694.5,-267.5 878.5,-267.5 878.5,-237.5 694.5,-237.5"/>
<text text-anchor="start" x="701.5" y="-248.9" font-family="Arial" font-size="14.00" fill="#000000">id    </text>
<text text-anchor="start" x="746.594" y="-248.9" font-family="Arial" font-size="14.00" fill="#666666">[int]</text>
<polygon fill="none" stroke="#000000" points="694.5,-207.5 694.5,-237.5 878.5,-237.5 878.5,-207.5 694.5,-207.5"/>
<text text-anchor="start" x="701.5" y="-218.9" font-family="Arial" font-size="14.00" fill="#000000">name    </text>
<text text-anchor="start" x="770.7132" y="-218.9" font-family="Arial" font-size="14.00" fill="#666666">[varchar(255)]</text>
<polygon fill="none" stroke="#000000" points="694.5,-177.5 694.5,-207.5 878.5,-207.5 878.5,-177.5 694.5,-177.5"/>
<text text-anchor="start" x="701.5" y="-188.9" font-family="Arial" font-size="14.00" fill="#000000">slug    </text>
<text text-anchor="start" x="761.3766" y="-188.9" font-family="Arial" font-size="14.00" fill="#666666">[varchar(255)]</text>
<polygon fill="none" stroke="#000000" points="694.5,-147.5 694.5,-177.5 878.5,-177.5 878.5,-147.5 694.5,-147.5"/>
<text text-anchor="start" x="701.5" y="-158.9" font-family="Arial" font-size="14.00" fill="#000000">createdAt    </text>
<text text-anchor="start" x="795.6136" y="-158.9" font-family="Arial" font-size="14.00" fill="#666666">[timestamp]</text>
<polygon fill="none" stroke="#000000" points="694.5,-117.5 694.5,-147.5 878.5,-147.5 878.5,-117.5 694.5,-117.5"/>
<text text-anchor="start" x="701.3219" y="-128.9" font-family="Arial" font-size="14.00" fill="#000000">updatedAt    </text>
<text text-anchor="start" x="799.3401" y="-128.9" font-family="Arial" font-size="14.00" fill="#666666">[timestamp]</text>
<polygon fill="none" stroke="#000000" points="694.5,-87.5 694.5,-117.5 878.5,-117.5 878.5,-87.5 694.5,-87.5"/>
<text text-anchor="start" x="701.5" y="-98.9" font-family="Arial" font-size="14.00" fill="#000000">organizationId    </text>
<text text-anchor="start" x="823.6206" y="-98.9" font-family="Arial" font-size="14.00" fill="#666666">[int]</text>
</g>
<!-- user_organization_roles&#45;&gt;roles -->
<g id="edge3" class="edge">
<title>user_organization_roles:roleId&#45;&gt;roles:id</title>
<path fill="none" stroke="#000000" stroke-dasharray="5,2" d="M642.7416,-546.8504C755.4667,-531.5878 564.1879,-252.5 694.5,-252.5"/>
<polygon fill="#000000" stroke="#000000" points="642.4799,-546.8669 632.2151,-543.009 637.49,-547.1834 632.5,-547.5 632.5,-547.5 632.5,-547.5 637.49,-547.1834 632.7849,-551.991 642.4799,-546.8669 642.4799,-546.8669"/>
<text text-anchor="start" x="611.2765" y="-557.5" font-family="Arial" font-size="10.00" fill="#000000">n&#45;n</text>
</g>
</g>
</svg>
