<?xml version="1.0" encoding="UTF-8" standalone="no"?>
<!DOCTYPE svg PUBLIC "-//W3C//DTD SVG 1.1//EN"
 "http://www.w3.org/Graphics/SVG/1.1/DTD/svg11.dtd">
<!-- Generated by graphviz version 2.40.1 (20161225.0304)
 -->
<!-- Title: user_organization_roles Pages: 1 -->
<svg width="930pt" height="652pt"
 viewBox="0.00 0.00 929.50 652.00" xmlns="http://www.w3.org/2000/svg" xmlns:xlink="http://www.w3.org/1999/xlink">
<g id="graph0" class="graph" transform="scale(1 1) rotate(0) translate(4 648)">
<title>user_organization_roles</title>
<polygon fill="#ffffff" stroke="transparent" points="-4,4 -4,-648 925.5,-648 925.5,4 -4,4"/>
<!-- user_organization_roles -->
<g id="node1" class="node">
<title>user_organization_roles</title>
<polygon fill="#efefef" stroke="transparent" points="299.5,-562.5 299.5,-597.5 632.5,-597.5 632.5,-562.5 299.5,-562.5"/>
<polygon fill="none" stroke="#000000" points="299.5,-562.5 299.5,-597.5 632.5,-597.5 632.5,-562.5 299.5,-562.5"/>
<text text-anchor="start" x="306.195" y="-575.3" font-family="Arial Bold" font-size="18.00" fill="#000000">user_organization_roles</text>
<text text-anchor="start" x="498.237" y="-575.3" font-family="Arial" font-size="14.00" fill="#000000">    </text>
<text text-anchor="start" x="532.4418" y="-575.3" font-family="Arial" font-size="14.00" fill="#666666">[BASE TABLE]</text>
<polygon fill="none" stroke="#000000" points="299.5,-532.5 299.5,-562.5 632.5,-562.5 632.5,-532.5 299.5,-532.5"/>
<text text-anchor="start" x="306.5" y="-543.9" font-family="Arial" font-size="14.00" fill="#000000">id </text>
<text text-anchor="start" x="321.2798" y="-543.9" font-family="Arial" font-size="14.00" fill="#666666">[int]</text>
<polygon fill="none" stroke="#000000" points="299.5,-502.5 299.5,-532.5 632.5,-532.5 632.5,-502.5 299.5,-502.5"/>
<text text-anchor="start" x="306.5" y="-513.9" font-family="Arial" font-size="14.00" fill="#000000">userId </text>
<text text-anchor="start" x="349.2896" y="-513.9" font-family="Arial" font-size="14.00" fill="#666666">[int]</text>
<polygon fill="none" stroke="#000000" points="299.5,-472.5 299.5,-502.5 632.5,-502.5 632.5,-472.5 299.5,-472.5"/>
<text text-anchor="start" x="306.5" y="-483.9" font-family="Arial" font-size="14.00" fill="#000000">organizationId </text>
<text text-anchor="start" x="398.3064" y="-483.9" font-family="Arial" font-size="14.00" fill="#666666">[int]</text>
<polygon fill="none" stroke="#000000" points="299.5,-442.5 299.5,-472.5 632.5,-472.5 632.5,-442.5 299.5,-442.5"/>
<text text-anchor="start" x="306.5" y="-453.9" font-family="Arial" font-size="14.00" fill="#000000">roleId </text>
<text text-anchor="start" x="345.3962" y="-453.9" font-family="Arial" font-size="14.00" fill="#666666">[int]</text>
<polygon fill="none" stroke="#000000" points="299.5,-412.5 299.5,-442.5 632.5,-442.5 632.5,-412.5 299.5,-412.5"/>
<text text-anchor="start" x="306.5" y="-423.9" font-family="Arial" font-size="14.00" fill="#000000">createdAt </text>
<text text-anchor="start" x="370.2994" y="-423.9" font-family="Arial" font-size="14.00" fill="#666666">[timestamp]</text>
<polygon fill="none" stroke="#000000" points="299.5,-382.5 299.5,-412.5 632.5,-412.5 632.5,-382.5 299.5,-382.5"/>
<text text-anchor="start" x="306.5" y="-393.9" font-family="Arial" font-size="14.00" fill="#000000">updatedAt </text>
<text text-anchor="start" x="374.204" y="-393.9" font-family="Arial" font-size="14.00" fill="#666666">[timestamp]</text>
<polygon fill="none" stroke="#000000" stroke-width="3" points="297.5,-381.5 297.5,-599.5 633.5,-599.5 633.5,-381.5 297.5,-381.5"/>
</g>
<!-- users -->
<g id="node2" class="node">
<title>users</title>
<polygon fill="#efefef" stroke="transparent" points="43.5,-222.5 43.5,-257.5 238.5,-257.5 238.5,-222.5 43.5,-222.5"/>
<polygon fill="none" stroke="#000000" points="43.5,-222.5 43.5,-257.5 238.5,-257.5 238.5,-222.5 43.5,-222.5"/>
<text text-anchor="start" x="55.2137" y="-235.3" font-family="Arial Bold" font-size="18.00" fill="#000000">users</text>
<text text-anchor="start" x="99.2183" y="-235.3" font-family="Arial" font-size="14.00" fill="#000000">    </text>
<text text-anchor="start" x="133.4231" y="-235.3" font-family="Arial" font-size="14.00" fill="#666666">[BASE TABLE]</text>
<polygon fill="none" stroke="#000000" points="43.5,-192.5 43.5,-222.5 238.5,-222.5 238.5,-192.5 43.5,-192.5"/>
<text text-anchor="start" x="50.5" y="-203.9" font-family="Arial" font-size="14.00" fill="#000000">id    </text>
<text text-anchor="start" x="95.594" y="-203.9" font-family="Arial" font-size="14.00" fill="#666666">[int]</text>
<polygon fill="none" stroke="#000000" points="43.5,-162.5 43.5,-192.5 238.5,-192.5 238.5,-162.5 43.5,-162.5"/>
<text text-anchor="start" x="50.5" y="-173.9" font-family="Arial" font-size="14.00" fill="#000000">name    </text>
<text text-anchor="start" x="119.7132" y="-173.9" font-family="Arial" font-size="14.00" fill="#666666">[varchar(255)]</text>
<polygon fill="none" stroke="#000000" points="43.5,-132.5 43.5,-162.5 238.5,-162.5 238.5,-132.5 43.5,-132.5"/>
<text text-anchor="start" x="50.5" y="-143.9" font-family="Arial" font-size="14.00" fill="#000000">email    </text>
<text text-anchor="start" x="118.1438" y="-143.9" font-family="Arial" font-size="14.00" fill="#666666">[varchar(255)]</text>
<polygon fill="none" stroke="#000000" points="43.5,-102.5 43.5,-132.5 238.5,-132.5 238.5,-102.5 43.5,-102.5"/>
<text text-anchor="start" x="50.3892" y="-113.9" font-family="Arial" font-size="14.00" fill="#000000">password    </text>
<text text-anchor="start" x="144.4916" y="-113.9" font-family="Arial" font-size="14.00" fill="#666666">[varchar(255)]</text>
<polygon fill="none" stroke="#000000" points="43.5,-72.5 43.5,-102.5 238.5,-102.5 238.5,-72.5 43.5,-72.5"/>
<text text-anchor="start" x="50.5" y="-83.9" font-family="Arial" font-size="14.00" fill="#000000">createdAt    </text>
<text text-anchor="start" x="144.6136" y="-83.9" font-family="Arial" font-size="14.00" fill="#666666">[timestamp]</text>
<polygon fill="none" stroke="#000000" points="43.5,-42.5 43.5,-72.5 238.5,-72.5 238.5,-42.5 43.5,-42.5"/>
<text text-anchor="start" x="50.5" y="-53.9" font-family="Arial" font-size="14.00" fill="#000000">updatedAt    </text>
<text text-anchor="start" x="148.5182" y="-53.9" font-family="Arial" font-size="14.00" fill="#666666">[timestamp]</text>
</g>
<!-- user_organization_roles&#45;&gt;users -->
<g id="edge1" class="edge">
<title>user_organization_roles:userId&#45;&gt;users:id</title>
<path fill="none" stroke="#000000" stroke-dasharray="5,2" d="M289.4889,-516.9106C170.0117,-501.9577 375.3545,-207.5 238.5,-207.5"/>
<polygon fill="#000000" stroke="#000000" points="289.5173,-516.9122 299.2355,-521.9922 294.5086,-517.2061 299.5,-517.5 299.5,-517.5 299.5,-517.5 294.5086,-517.2061 299.7645,-513.0078 289.5173,-516.9122 289.5173,-516.9122"/>
<text text-anchor="start" x="278.2765" y="-527.5" font-family="Arial" font-size="10.00" fill="#000000">1&#45;n</text>
</g>
<!-- organizations -->
<g id="node3" class="node">
<title>organizations</title>
<polygon fill="#efefef" stroke="transparent" points="342.5,-207.5 342.5,-242.5 590.5,-242.5 590.5,-207.5 342.5,-207.5"/>
<polygon fill="none" stroke="#000000" points="342.5,-207.5 342.5,-242.5 590.5,-242.5 590.5,-207.5 342.5,-207.5"/>
<text text-anchor="start" x="349.2029" y="-220.3" font-family="Arial Bold" font-size="18.00" fill="#000000">organizations</text>
<text text-anchor="start" x="456.2291" y="-220.3" font-family="Arial" font-size="14.00" fill="#000000">    </text>
<text text-anchor="start" x="490.4339" y="-220.3" font-family="Arial" font-size="14.00" fill="#666666">[BASE TABLE]</text>
<polygon fill="none" stroke="#000000" points="342.5,-177.5 342.5,-207.5 590.5,-207.5 590.5,-177.5 342.5,-177.5"/>
<text text-anchor="start" x="349.5" y="-188.9" font-family="Arial" font-size="14.00" fill="#000000">id    </text>
<text text-anchor="start" x="394.594" y="-188.9" font-family="Arial" font-size="14.00" fill="#666666">[int]</text>
<polygon fill="none" stroke="#000000" points="342.5,-147.5 342.5,-177.5 590.5,-177.5 590.5,-147.5 342.5,-147.5"/>
<text text-anchor="start" x="349.5" y="-158.9" font-family="Arial" font-size="14.00" fill="#000000">name    </text>
<text text-anchor="start" x="418.7132" y="-158.9" font-family="Arial" font-size="14.00" fill="#666666">[varchar(255)]</text>
<polygon fill="none" stroke="#000000" points="342.5,-117.5 342.5,-147.5 590.5,-147.5 590.5,-117.5 342.5,-117.5"/>
<text text-anchor="start" x="349.5" y="-128.9" font-family="Arial" font-size="14.00" fill="#000000">uniqueName    </text>
<text text-anchor="start" x="463.0568" y="-128.9" font-family="Arial" font-size="14.00" fill="#666666">[varchar(255)]</text>
<polygon fill="none" stroke="#000000" points="342.5,-87.5 342.5,-117.5 590.5,-117.5 590.5,-87.5 342.5,-87.5"/>
<text text-anchor="start" x="349.5" y="-98.9" font-family="Arial" font-size="14.00" fill="#000000">createdAt    </text>
<text text-anchor="start" x="443.6136" y="-98.9" font-family="Arial" font-size="14.00" fill="#666666">[timestamp]</text>
<polygon fill="none" stroke="#000000" points="342.5,-57.5 342.5,-87.5 590.5,-87.5 590.5,-57.5 342.5,-57.5"/>
<text text-anchor="start" x="349.5" y="-68.9" font-family="Arial" font-size="14.00" fill="#000000">updatedAt    </text>
<text text-anchor="start" x="447.5182" y="-68.9" font-family="Arial" font-size="14.00" fill="#666666">[timestamp]</text>
</g>
<!-- user_organization_roles&#45;&gt;organizations -->
<g id="edge2" class="edge">
<title>user_organization_roles:organizationId&#45;&gt;organizations:id</title>
<path fill="none" stroke="#000000" stroke-dasharray="5,2" d="M642.6713,-486.6334C696.7196,-476.786 673.155,-385.4285 632.5,-337 548.3578,-236.7692 426.6422,-386.2308 342.5,-286 315.7814,-254.1726 300.9444,-192.5 342.5,-192.5"/>
<polygon fill="#000000" stroke="#000000" points="642.4639,-486.651 632.118,-483.0162 637.482,-487.0755 632.5,-487.5 632.5,-487.5 632.5,-487.5 637.482,-487.0755 632.882,-491.9838 642.4639,-486.651 642.4639,-486.651"/>
<text text-anchor="start" x="611.2765" y="-497.5" font-family="Arial" font-size="10.00" fill="#000000">1&#45;n</text>
</g>
<!-- roles -->
<g id="node4" class="node">
<title>roles</title>
<polygon fill="#efefef" stroke="transparent" points="694.5,-222.5 694.5,-257.5 878.5,-257.5 878.5,-222.5 694.5,-222.5"/>
<polygon fill="none" stroke="#000000" points="694.5,-222.5 694.5,-257.5 878.5,-257.5 878.5,-222.5 694.5,-222.5"/>
<text text-anchor="start" x="703.2166" y="-235.3" font-family="Arial Bold" font-size="18.00" fill="#000000">roles</text>
<text text-anchor="start" x="742.2154" y="-235.3" font-family="Arial" font-size="14.00" fill="#000000">    </text>
<text text-anchor="start" x="776.4202" y="-235.3" font-family="Arial" font-size="14.00" fill="#666666">[BASE TABLE]</text>
<polygon fill="none" stroke="#000000" points="694.5,-192.5 694.5,-222.5 878.5,-222.5 878.5,-192.5 694.5,-192.5"/>
<text text-anchor="start" x="701.5" y="-203.9" font-family="Arial" font-size="14.00" fill="#000000">id    </text>
<text text-anchor="start" x="746.594" y="-203.9" font-family="Arial" font-size="14.00" fill="#666666">[int]</text>
<polygon fill="none" stroke="#000000" points="694.5,-162.5 694.5,-192.5 878.5,-192.5 878.5,-162.5 694.5,-162.5"/>
<text text-anchor="start" x="701.5" y="-173.9" font-family="Arial" font-size="14.00" fill="#000000">name    </text>
<text text-anchor="start" x="770.7132" y="-173.9" font-family="Arial" font-size="14.00" fill="#666666">[varchar(255)]</text>
<polygon fill="none" stroke="#000000" points="694.5,-132.5 694.5,-162.5 878.5,-162.5 878.5,-132.5 694.5,-132.5"/>
<text text-anchor="start" x="701.5" y="-143.9" font-family="Arial" font-size="14.00" fill="#000000">slug    </text>
<text text-anchor="start" x="761.3766" y="-143.9" font-family="Arial" font-size="14.00" fill="#666666">[varchar(255)]</text>
<polygon fill="none" stroke="#000000" points="694.5,-102.5 694.5,-132.5 878.5,-132.5 878.5,-102.5 694.5,-102.5"/>
<text text-anchor="start" x="701.5" y="-113.9" font-family="Arial" font-size="14.00" fill="#000000">createdAt    </text>
<text text-anchor="start" x="795.6136" y="-113.9" font-family="Arial" font-size="14.00" fill="#666666">[timestamp]</text>
<polygon fill="none" stroke="#000000" points="694.5,-72.5 694.5,-102.5 878.5,-102.5 878.5,-72.5 694.5,-72.5"/>
<text text-anchor="start" x="701.3219" y="-83.9" font-family="Arial" font-size="14.00" fill="#000000">updatedAt    </text>
<text text-anchor="start" x="799.3401" y="-83.9" font-family="Arial" font-size="14.00" fill="#666666">[timestamp]</text>
<polygon fill="none" stroke="#000000" points="694.5,-42.5 694.5,-72.5 878.5,-72.5 878.5,-42.5 694.5,-42.5"/>
<text text-anchor="start" x="701.5" y="-53.9" font-family="Arial" font-size="14.00" fill="#000000">organizationId    </text>
<text text-anchor="start" x="823.6206" y="-53.9" font-family="Arial" font-size="14.00" fill="#666666">[int]</text>
</g>
<!-- user_organization_roles&#45;&gt;roles -->
<g id="edge3" class="edge">
<title>user_organization_roles:roleId&#45;&gt;roles:id</title>
<path fill="none" stroke="#000000" stroke-dasharray="5,2" d="M642.7096,-456.7378C736.5086,-441.6464 583.7122,-207.5 694.5,-207.5"/>
<polygon fill="#000000" stroke="#000000" points="642.4723,-456.7554 632.165,-453.0125 637.4861,-457.1277 632.5,-457.5 632.5,-457.5 632.5,-457.5 637.4861,-457.1277 632.835,-461.9875 642.4723,-456.7554 642.4723,-456.7554"/>
<text text-anchor="start" x="611.2765" y="-467.5" font-family="Arial" font-size="10.00" fill="#000000">n&#45;n</text>
</g>
</g>
</svg>
