<?xml version="1.0" encoding="UTF-8" standalone="no"?>
<!DOCTYPE svg PUBLIC "-//W3C//DTD SVG 1.1//EN"
 "http://www.w3.org/Graphics/SVG/1.1/DTD/svg11.dtd">
<!-- Generated by graphviz version 2.40.1 (20161225.0304)
 -->
<!-- Title: user_organizations Pages: 1 -->
<svg width="642pt" height="712pt"
 viewBox="0.00 0.00 641.50 712.00" xmlns="http://www.w3.org/2000/svg" xmlns:xlink="http://www.w3.org/1999/xlink">
<g id="graph0" class="graph" transform="scale(1 1) rotate(0) translate(4 708)">
<title>user_organizations</title>
<polygon fill="#ffffff" stroke="transparent" points="-4,4 -4,-708 637.5,-708 637.5,4 -4,4"/>
<!-- user_organizations -->
<g id="node1" class="node">
<title>user_organizations</title>
<polygon fill="#efefef" stroke="transparent" points="156.5,-622.5 156.5,-657.5 449.5,-657.5 449.5,-622.5 156.5,-622.5"/>
<polygon fill="none" stroke="#000000" points="156.5,-622.5 156.5,-657.5 449.5,-657.5 449.5,-622.5 156.5,-622.5"/>
<text text-anchor="start" x="163.1975" y="-635.3" font-family="Arial Bold" font-size="18.00" fill="#000000">user_organizations</text>
<text text-anchor="start" x="315.2345" y="-635.3" font-family="Arial" font-size="14.00" fill="#000000">    </text>
<text text-anchor="start" x="349.4393" y="-635.3" font-family="Arial" font-size="14.00" fill="#666666">[BASE TABLE]</text>
<polygon fill="none" stroke="#000000" points="156.5,-592.5 156.5,-622.5 449.5,-622.5 449.5,-592.5 156.5,-592.5"/>
<text text-anchor="start" x="163.5" y="-603.9" font-family="Arial" font-size="14.00" fill="#000000">id </text>
<text text-anchor="start" x="178.2798" y="-603.9" font-family="Arial" font-size="14.00" fill="#666666">[int]</text>
<polygon fill="none" stroke="#000000" points="156.5,-562.5 156.5,-592.5 449.5,-592.5 449.5,-562.5 156.5,-562.5"/>
<text text-anchor="start" x="163.5" y="-573.9" font-family="Arial" font-size="14.00" fill="#000000">userId </text>
<text text-anchor="start" x="206.2896" y="-573.9" font-family="Arial" font-size="14.00" fill="#666666">[int]</text>
<polygon fill="none" stroke="#000000" points="156.5,-532.5 156.5,-562.5 449.5,-562.5 449.5,-532.5 156.5,-532.5"/>
<text text-anchor="start" x="163.5" y="-543.9" font-family="Arial" font-size="14.00" fill="#000000">organizationId </text>
<text text-anchor="start" x="255.3064" y="-543.9" font-family="Arial" font-size="14.00" fill="#666666">[int]</text>
<polygon fill="none" stroke="#000000" points="156.5,-502.5 156.5,-532.5 449.5,-532.5 449.5,-502.5 156.5,-502.5"/>
<text text-anchor="start" x="163.5" y="-513.9" font-family="Arial" font-size="14.00" fill="#000000">createdAt </text>
<text text-anchor="start" x="227.2994" y="-513.9" font-family="Arial" font-size="14.00" fill="#666666">[timestamp]</text>
<polygon fill="none" stroke="#000000" points="156.5,-472.5 156.5,-502.5 449.5,-502.5 449.5,-472.5 156.5,-472.5"/>
<text text-anchor="start" x="163.5" y="-483.9" font-family="Arial" font-size="14.00" fill="#000000">updatedAt </text>
<text text-anchor="start" x="231.204" y="-483.9" font-family="Arial" font-size="14.00" fill="#666666">[timestamp]</text>
<polygon fill="none" stroke="#000000" stroke-width="3" points="154.5,-471.5 154.5,-659.5 450.5,-659.5 450.5,-471.5 154.5,-471.5"/>
</g>
<!-- users -->
<g id="node2" class="node">
<title>users</title>
<polygon fill="#efefef" stroke="transparent" points="43.5,-312.5 43.5,-347.5 238.5,-347.5 238.5,-312.5 43.5,-312.5"/>
<polygon fill="none" stroke="#000000" points="43.5,-312.5 43.5,-347.5 238.5,-347.5 238.5,-312.5 43.5,-312.5"/>
<text text-anchor="start" x="55.2137" y="-325.3" font-family="Arial Bold" font-size="18.00" fill="#000000">users</text>
<text text-anchor="start" x="99.2183" y="-325.3" font-family="Arial" font-size="14.00" fill="#000000">    </text>
<text text-anchor="start" x="133.4231" y="-325.3" font-family="Arial" font-size="14.00" fill="#666666">[BASE TABLE]</text>
<polygon fill="none" stroke="#000000" points="43.5,-282.5 43.5,-312.5 238.5,-312.5 238.5,-282.5 43.5,-282.5"/>
<text text-anchor="start" x="50.5" y="-293.9" font-family="Arial" font-size="14.00" fill="#000000">id    </text>
<text text-anchor="start" x="95.594" y="-293.9" font-family="Arial" font-size="14.00" fill="#666666">[int]</text>
<polygon fill="none" stroke="#000000" points="43.5,-252.5 43.5,-282.5 238.5,-282.5 238.5,-252.5 43.5,-252.5"/>
<text text-anchor="start" x="50.5" y="-263.9" font-family="Arial" font-size="14.00" fill="#000000">name    </text>
<text text-anchor="start" x="119.7132" y="-263.9" font-family="Arial" font-size="14.00" fill="#666666">[varchar(255)]</text>
<polygon fill="none" stroke="#000000" points="43.5,-222.5 43.5,-252.5 238.5,-252.5 238.5,-222.5 43.5,-222.5"/>
<text text-anchor="start" x="50.5" y="-233.9" font-family="Arial" font-size="14.00" fill="#000000">email    </text>
<text text-anchor="start" x="118.1438" y="-233.9" font-family="Arial" font-size="14.00" fill="#666666">[varchar(255)]</text>
<polygon fill="none" stroke="#000000" points="43.5,-192.5 43.5,-222.5 238.5,-222.5 238.5,-192.5 43.5,-192.5"/>
<text text-anchor="start" x="50.3892" y="-203.9" font-family="Arial" font-size="14.00" fill="#000000">password    </text>
<text text-anchor="start" x="144.4916" y="-203.9" font-family="Arial" font-size="14.00" fill="#666666">[varchar(255)]</text>
<polygon fill="none" stroke="#000000" points="43.5,-162.5 43.5,-192.5 238.5,-192.5 238.5,-162.5 43.5,-162.5"/>
<text text-anchor="start" x="50.5" y="-173.9" font-family="Arial" font-size="14.00" fill="#000000">createdAt    </text>
<text text-anchor="start" x="144.6136" y="-173.9" font-family="Arial" font-size="14.00" fill="#666666">[timestamp]</text>
<polygon fill="none" stroke="#000000" points="43.5,-132.5 43.5,-162.5 238.5,-162.5 238.5,-132.5 43.5,-132.5"/>
<text text-anchor="start" x="50.5" y="-143.9" font-family="Arial" font-size="14.00" fill="#000000">updatedAt    </text>
<text text-anchor="start" x="148.5182" y="-143.9" font-family="Arial" font-size="14.00" fill="#666666">[timestamp]</text>
<polygon fill="none" stroke="#000000" points="43.5,-102.5 43.5,-132.5 238.5,-132.5 238.5,-102.5 43.5,-102.5"/>
<text text-anchor="start" x="50.5" y="-113.9" font-family="Arial" font-size="14.00" fill="#000000">phone    </text>
<text text-anchor="start" x="123.6178" y="-113.9" font-family="Arial" font-size="14.00" fill="#666666">[varchar(255)]</text>
<polygon fill="none" stroke="#000000" points="43.5,-72.5 43.5,-102.5 238.5,-102.5 238.5,-72.5 43.5,-72.5"/>
<text text-anchor="start" x="50.5" y="-83.9" font-family="Arial" font-size="14.00" fill="#000000">address    </text>
<text text-anchor="start" x="134.4958" y="-83.9" font-family="Arial" font-size="14.00" fill="#666666">[varchar(255)]</text>
<polygon fill="none" stroke="#000000" points="43.5,-42.5 43.5,-72.5 238.5,-72.5 238.5,-42.5 43.5,-42.5"/>
<text text-anchor="start" x="50.5" y="-53.9" font-family="Arial" font-size="14.00" fill="#000000">avatar    </text>
<text text-anchor="start" x="123.6038" y="-53.9" font-family="Arial" font-size="14.00" fill="#666666">[varchar(255)]</text>
</g>
<!-- user_organizations&#45;&gt;users -->
<g id="edge1" class="edge">
<title>user_organizations:userId&#45;&gt;users:id</title>
<path fill="none" stroke="#000000" stroke-dasharray="5,2" d="M146.3833,-576.6739C92.9453,-567.2795 121.9245,-479.9404 156.5,-427 178.2643,-393.6756 216.7357,-424.3244 238.5,-391 261.2231,-356.2074 280.0556,-297.5 238.5,-297.5"/>
<polygon fill="#000000" stroke="#000000" points="146.5332,-576.6861 156.1337,-581.9851 151.5166,-577.093 156.5,-577.5 156.5,-577.5 156.5,-577.5 151.5166,-577.093 156.8663,-573.0149 146.5332,-576.6861 146.5332,-576.6861"/>
<text text-anchor="start" x="135.2765" y="-587.5" font-family="Arial" font-size="10.00" fill="#000000">1&#45;n</text>
</g>
<!-- organizations -->
<g id="node3" class="node">
<title>organizations</title>
<polygon fill="#efefef" stroke="transparent" points="342.5,-297.5 342.5,-332.5 590.5,-332.5 590.5,-297.5 342.5,-297.5"/>
<polygon fill="none" stroke="#000000" points="342.5,-297.5 342.5,-332.5 590.5,-332.5 590.5,-297.5 342.5,-297.5"/>
<text text-anchor="start" x="349.2029" y="-310.3" font-family="Arial Bold" font-size="18.00" fill="#000000">organizations</text>
<text text-anchor="start" x="456.2291" y="-310.3" font-family="Arial" font-size="14.00" fill="#000000">    </text>
<text text-anchor="start" x="490.4339" y="-310.3" font-family="Arial" font-size="14.00" fill="#666666">[BASE TABLE]</text>
<polygon fill="none" stroke="#000000" points="342.5,-267.5 342.5,-297.5 590.5,-297.5 590.5,-267.5 342.5,-267.5"/>
<text text-anchor="start" x="349.5" y="-278.9" font-family="Arial" font-size="14.00" fill="#000000">id    </text>
<text text-anchor="start" x="394.594" y="-278.9" font-family="Arial" font-size="14.00" fill="#666666">[int]</text>
<polygon fill="none" stroke="#000000" points="342.5,-237.5 342.5,-267.5 590.5,-267.5 590.5,-237.5 342.5,-237.5"/>
<text text-anchor="start" x="349.5" y="-248.9" font-family="Arial" font-size="14.00" fill="#000000">name    </text>
<text text-anchor="start" x="418.7132" y="-248.9" font-family="Arial" font-size="14.00" fill="#666666">[varchar(255)]</text>
<polygon fill="none" stroke="#000000" points="342.5,-207.5 342.5,-237.5 590.5,-237.5 590.5,-207.5 342.5,-207.5"/>
<text text-anchor="start" x="349.5" y="-218.9" font-family="Arial" font-size="14.00" fill="#000000">uniqueName    </text>
<text text-anchor="start" x="463.0568" y="-218.9" font-family="Arial" font-size="14.00" fill="#666666">[varchar(255)]</text>
<polygon fill="none" stroke="#000000" points="342.5,-177.5 342.5,-207.5 590.5,-207.5 590.5,-177.5 342.5,-177.5"/>
<text text-anchor="start" x="349.5" y="-188.9" font-family="Arial" font-size="14.00" fill="#000000">createdAt    </text>
<text text-anchor="start" x="443.6136" y="-188.9" font-family="Arial" font-size="14.00" fill="#666666">[timestamp]</text>
<polygon fill="none" stroke="#000000" points="342.5,-147.5 342.5,-177.5 590.5,-177.5 590.5,-147.5 342.5,-147.5"/>
<text text-anchor="start" x="349.5" y="-158.9" font-family="Arial" font-size="14.00" fill="#000000">updatedAt    </text>
<text text-anchor="start" x="447.5182" y="-158.9" font-family="Arial" font-size="14.00" fill="#666666">[timestamp]</text>
<polygon fill="none" stroke="#000000" points="342.5,-117.5 342.5,-147.5 590.5,-147.5 590.5,-117.5 342.5,-117.5"/>
<text text-anchor="start" x="349.5" y="-128.9" font-family="Arial" font-size="14.00" fill="#000000">phone    </text>
<text text-anchor="start" x="422.6178" y="-128.9" font-family="Arial" font-size="14.00" fill="#666666">[varchar(255)]</text>
<polygon fill="none" stroke="#000000" points="342.5,-87.5 342.5,-117.5 590.5,-117.5 590.5,-87.5 342.5,-87.5"/>
<text text-anchor="start" x="349.5" y="-98.9" font-family="Arial" font-size="14.00" fill="#000000">address    </text>
<text text-anchor="start" x="433.4958" y="-98.9" font-family="Arial" font-size="14.00" fill="#666666">[varchar(255)]</text>
<polygon fill="none" stroke="#000000" points="342.5,-57.5 342.5,-87.5 590.5,-87.5 590.5,-57.5 342.5,-57.5"/>
<text text-anchor="start" x="349.5" y="-68.9" font-family="Arial" font-size="14.00" fill="#000000">dateFormat    </text>
<text text-anchor="start" x="455.2728" y="-68.9" font-family="Arial" font-size="14.00" fill="#666666">[varchar(255)]</text>
</g>
<!-- user_organizations&#45;&gt;organizations -->
<g id="edge2" class="edge">
<title>user_organizations:organizationId&#45;&gt;organizations:id</title>
<path fill="none" stroke="#000000" stroke-dasharray="5,2" d="M459.6582,-546.4211C499.5261,-537.0714 476.0745,-469.105 449.5,-427 421.3824,-382.4499 370.6176,-420.5501 342.5,-376 320.3205,-340.8584 300.9444,-282.5 342.5,-282.5"/>
<polygon fill="#000000" stroke="#000000" points="459.4441,-546.4437 449.0247,-543.0252 454.472,-546.9719 449.5,-547.5 449.5,-547.5 449.5,-547.5 454.472,-546.9719 449.9753,-551.9748 459.4441,-546.4437 459.4441,-546.4437"/>
<text text-anchor="start" x="428.2765" y="-557.5" font-family="Arial" font-size="10.00" fill="#000000">1&#45;n</text>
</g>
</g>
</svg>
