<?xml version="1.0" encoding="UTF-8" standalone="no"?>
<!DOCTYPE svg PUBLIC "-//W3C//DTD SVG 1.1//EN"
 "http://www.w3.org/Graphics/SVG/1.1/DTD/svg11.dtd">
<!-- Generated by graphviz version 2.40.1 (20161225.0304)
 -->
<!-- Title: users Pages: 1 -->
<svg width="1602pt" height="862pt"
 viewBox="0.00 0.00 1601.50 862.00" xmlns="http://www.w3.org/2000/svg" xmlns:xlink="http://www.w3.org/1999/xlink">
<g id="graph0" class="graph" transform="scale(1 1) rotate(0) translate(4 858)">
<title>users</title>
<polygon fill="#ffffff" stroke="transparent" points="-4,4 -4,-858 1597.5,-858 1597.5,4 -4,4"/>
<!-- users -->
<g id="node1" class="node">
<title>users</title>
<polygon fill="#efefef" stroke="transparent" points="749.5,-315.5 749.5,-350.5 934.5,-350.5 934.5,-315.5 749.5,-315.5"/>
<polygon fill="none" stroke="#000000" points="749.5,-315.5 749.5,-350.5 934.5,-350.5 934.5,-315.5 749.5,-315.5"/>
<text text-anchor="start" x="756.2137" y="-328.3" font-family="Arial Bold" font-size="18.00" fill="#000000">users</text>
<text text-anchor="start" x="800.2183" y="-328.3" font-family="Arial" font-size="14.00" fill="#000000">    </text>
<text text-anchor="start" x="834.4231" y="-328.3" font-family="Arial" font-size="14.00" fill="#666666">[BASE TABLE]</text>
<polygon fill="none" stroke="#000000" points="749.5,-285.5 749.5,-315.5 934.5,-315.5 934.5,-285.5 749.5,-285.5"/>
<text text-anchor="start" x="756.5" y="-296.9" font-family="Arial" font-size="14.00" fill="#000000">id </text>
<text text-anchor="start" x="771.2798" y="-296.9" font-family="Arial" font-size="14.00" fill="#666666">[int]</text>
<polygon fill="none" stroke="#000000" points="749.5,-255.5 749.5,-285.5 934.5,-285.5 934.5,-255.5 749.5,-255.5"/>
<text text-anchor="start" x="756.5" y="-266.9" font-family="Arial" font-size="14.00" fill="#000000">name </text>
<text text-anchor="start" x="795.399" y="-266.9" font-family="Arial" font-size="14.00" fill="#666666">[varchar(255)]</text>
<polygon fill="none" stroke="#000000" points="749.5,-225.5 749.5,-255.5 934.5,-255.5 934.5,-225.5 749.5,-225.5"/>
<text text-anchor="start" x="756.5" y="-236.9" font-family="Arial" font-size="14.00" fill="#000000">email </text>
<text text-anchor="start" x="793.8296" y="-236.9" font-family="Arial" font-size="14.00" fill="#666666">[varchar(255)]</text>
<polygon fill="none" stroke="#000000" points="749.5,-195.5 749.5,-225.5 934.5,-225.5 934.5,-195.5 749.5,-195.5"/>
<text text-anchor="start" x="756.5" y="-206.9" font-family="Arial" font-size="14.00" fill="#000000">password </text>
<text text-anchor="start" x="820.2882" y="-206.9" font-family="Arial" font-size="14.00" fill="#666666">[varchar(255)]</text>
<polygon fill="none" stroke="#000000" points="749.5,-165.5 749.5,-195.5 934.5,-195.5 934.5,-165.5 749.5,-165.5"/>
<text text-anchor="start" x="756.5" y="-176.9" font-family="Arial" font-size="14.00" fill="#000000">createdAt </text>
<text text-anchor="start" x="820.2994" y="-176.9" font-family="Arial" font-size="14.00" fill="#666666">[timestamp]</text>
<polygon fill="none" stroke="#000000" points="749.5,-135.5 749.5,-165.5 934.5,-165.5 934.5,-135.5 749.5,-135.5"/>
<text text-anchor="start" x="756.5" y="-146.9" font-family="Arial" font-size="14.00" fill="#000000">updatedAt </text>
<text text-anchor="start" x="824.204" y="-146.9" font-family="Arial" font-size="14.00" fill="#666666">[timestamp]</text>
<polygon fill="none" stroke="#000000" points="749.5,-105.5 749.5,-135.5 934.5,-135.5 934.5,-105.5 749.5,-105.5"/>
<text text-anchor="start" x="756.5" y="-116.9" font-family="Arial" font-size="14.00" fill="#000000">phone </text>
<text text-anchor="start" x="799.3036" y="-116.9" font-family="Arial" font-size="14.00" fill="#666666">[varchar(255)]</text>
<polygon fill="none" stroke="#000000" points="749.5,-75.5 749.5,-105.5 934.5,-105.5 934.5,-75.5 749.5,-75.5"/>
<text text-anchor="start" x="756.5" y="-86.9" font-family="Arial" font-size="14.00" fill="#000000">address </text>
<text text-anchor="start" x="810.1816" y="-86.9" font-family="Arial" font-size="14.00" fill="#666666">[varchar(255)]</text>
<polygon fill="none" stroke="#000000" points="749.5,-45.5 749.5,-75.5 934.5,-75.5 934.5,-45.5 749.5,-45.5"/>
<text text-anchor="start" x="756.5" y="-56.9" font-family="Arial" font-size="14.00" fill="#000000">avatar </text>
<text text-anchor="start" x="799.2896" y="-56.9" font-family="Arial" font-size="14.00" fill="#666666">[varchar(255)]</text>
<polygon fill="none" stroke="#000000" stroke-width="3" points="747.5,-44.5 747.5,-352.5 935.5,-352.5 935.5,-44.5 747.5,-44.5"/>
</g>
<!-- user_organization_roles -->
<g id="node2" class="node">
<title>user_organization_roles</title>
<polygon fill="#efefef" stroke="transparent" points="43.5,-715.5 43.5,-750.5 376.5,-750.5 376.5,-715.5 43.5,-715.5"/>
<polygon fill="none" stroke="#000000" points="43.5,-715.5 43.5,-750.5 376.5,-750.5 376.5,-715.5 43.5,-715.5"/>
<text text-anchor="start" x="50.195" y="-728.3" font-family="Arial Bold" font-size="18.00" fill="#000000">user_organization_roles</text>
<text text-anchor="start" x="242.237" y="-728.3" font-family="Arial" font-size="14.00" fill="#000000">    </text>
<text text-anchor="start" x="276.4418" y="-728.3" font-family="Arial" font-size="14.00" fill="#666666">[BASE TABLE]</text>
<polygon fill="none" stroke="#000000" points="43.5,-685.5 43.5,-715.5 376.5,-715.5 376.5,-685.5 43.5,-685.5"/>
<text text-anchor="start" x="50.5" y="-696.9" font-family="Arial" font-size="14.00" fill="#000000">id    </text>
<text text-anchor="start" x="95.594" y="-696.9" font-family="Arial" font-size="14.00" fill="#666666">[int]</text>
<polygon fill="none" stroke="#000000" points="43.5,-655.5 43.5,-685.5 376.5,-685.5 376.5,-655.5 43.5,-655.5"/>
<text text-anchor="start" x="50.5" y="-666.9" font-family="Arial" font-size="14.00" fill="#000000">userId    </text>
<text text-anchor="start" x="123.6038" y="-666.9" font-family="Arial" font-size="14.00" fill="#666666">[int]</text>
<polygon fill="none" stroke="#000000" points="43.5,-625.5 43.5,-655.5 376.5,-655.5 376.5,-625.5 43.5,-625.5"/>
<text text-anchor="start" x="50.5" y="-636.9" font-family="Arial" font-size="14.00" fill="#000000">organizationId    </text>
<text text-anchor="start" x="172.6206" y="-636.9" font-family="Arial" font-size="14.00" fill="#666666">[int]</text>
<polygon fill="none" stroke="#000000" points="43.5,-595.5 43.5,-625.5 376.5,-625.5 376.5,-595.5 43.5,-595.5"/>
<text text-anchor="start" x="50.5" y="-606.9" font-family="Arial" font-size="14.00" fill="#000000">roleId    </text>
<text text-anchor="start" x="119.7104" y="-606.9" font-family="Arial" font-size="14.00" fill="#666666">[int]</text>
<polygon fill="none" stroke="#000000" points="43.5,-565.5 43.5,-595.5 376.5,-595.5 376.5,-565.5 43.5,-565.5"/>
<text text-anchor="start" x="50.5" y="-576.9" font-family="Arial" font-size="14.00" fill="#000000">createdAt    </text>
<text text-anchor="start" x="144.6136" y="-576.9" font-family="Arial" font-size="14.00" fill="#666666">[timestamp]</text>
<polygon fill="none" stroke="#000000" points="43.5,-535.5 43.5,-565.5 376.5,-565.5 376.5,-535.5 43.5,-535.5"/>
<text text-anchor="start" x="50.5" y="-546.9" font-family="Arial" font-size="14.00" fill="#000000">updatedAt    </text>
<text text-anchor="start" x="148.5182" y="-546.9" font-family="Arial" font-size="14.00" fill="#666666">[timestamp]</text>
</g>
<!-- user_organization_roles&#45;&gt;users -->
<g id="edge1" class="edge">
<title>user_organization_roles:userId&#45;&gt;users:id</title>
<path fill="none" stroke="#000000" stroke-dasharray="5,2" d="M386.4953,-669.9968C476.2981,-660.3096 360.5803,-513.1021 427.5,-433 526.7177,-314.2375 594.7464,-300.5 749.5,-300.5"/>
<polygon fill="#000000" stroke="#000000" points="386.4874,-669.9971 376.2737,-666.0057 381.4937,-670.2486 376.5,-670.5 376.5,-670.5 376.5,-670.5 381.4937,-670.2486 376.7263,-674.9943 386.4874,-669.9971 386.4874,-669.9971"/>
<text text-anchor="start" x="355.2765" y="-680.5" font-family="Arial" font-size="10.00" fill="#000000">1&#45;n</text>
</g>
<!-- user_organizations -->
<g id="node3" class="node">
<title>user_organizations</title>
<polygon fill="#efefef" stroke="transparent" points="480.5,-700.5 480.5,-735.5 773.5,-735.5 773.5,-700.5 480.5,-700.5"/>
<polygon fill="none" stroke="#000000" points="480.5,-700.5 480.5,-735.5 773.5,-735.5 773.5,-700.5 480.5,-700.5"/>
<text text-anchor="start" x="487.1975" y="-713.3" font-family="Arial Bold" font-size="18.00" fill="#000000">user_organizations</text>
<text text-anchor="start" x="639.2345" y="-713.3" font-family="Arial" font-size="14.00" fill="#000000">    </text>
<text text-anchor="start" x="673.4393" y="-713.3" font-family="Arial" font-size="14.00" fill="#666666">[BASE TABLE]</text>
<polygon fill="none" stroke="#000000" points="480.5,-670.5 480.5,-700.5 773.5,-700.5 773.5,-670.5 480.5,-670.5"/>
<text text-anchor="start" x="487.5" y="-681.9" font-family="Arial" font-size="14.00" fill="#000000">id    </text>
<text text-anchor="start" x="532.594" y="-681.9" font-family="Arial" font-size="14.00" fill="#666666">[int]</text>
<polygon fill="none" stroke="#000000" points="480.5,-640.5 480.5,-670.5 773.5,-670.5 773.5,-640.5 480.5,-640.5"/>
<text text-anchor="start" x="487.5" y="-651.9" font-family="Arial" font-size="14.00" fill="#000000">userId    </text>
<text text-anchor="start" x="560.6038" y="-651.9" font-family="Arial" font-size="14.00" fill="#666666">[int]</text>
<polygon fill="none" stroke="#000000" points="480.5,-610.5 480.5,-640.5 773.5,-640.5 773.5,-610.5 480.5,-610.5"/>
<text text-anchor="start" x="487.5" y="-621.9" font-family="Arial" font-size="14.00" fill="#000000">organizationId    </text>
<text text-anchor="start" x="609.6206" y="-621.9" font-family="Arial" font-size="14.00" fill="#666666">[int]</text>
<polygon fill="none" stroke="#000000" points="480.5,-580.5 480.5,-610.5 773.5,-610.5 773.5,-580.5 480.5,-580.5"/>
<text text-anchor="start" x="487.5" y="-591.9" font-family="Arial" font-size="14.00" fill="#000000">createdAt    </text>
<text text-anchor="start" x="581.6136" y="-591.9" font-family="Arial" font-size="14.00" fill="#666666">[timestamp]</text>
<polygon fill="none" stroke="#000000" points="480.5,-550.5 480.5,-580.5 773.5,-580.5 773.5,-550.5 480.5,-550.5"/>
<text text-anchor="start" x="487.5" y="-561.9" font-family="Arial" font-size="14.00" fill="#000000">updatedAt    </text>
<text text-anchor="start" x="585.5182" y="-561.9" font-family="Arial" font-size="14.00" fill="#666666">[timestamp]</text>
</g>
<!-- user_organizations&#45;&gt;users -->
<g id="edge2" class="edge">
<title>user_organizations:userId&#45;&gt;users:id</title>
<path fill="none" stroke="#000000" stroke-dasharray="5,2" d="M783.8105,-654.9241C915.9613,-639.0544 595.0684,-300.5 749.5,-300.5"/>
<polygon fill="#000000" stroke="#000000" points="783.4844,-654.9422 773.249,-651.007 778.4922,-655.2211 773.5,-655.5 773.5,-655.5 773.5,-655.5 778.4922,-655.2211 773.751,-659.993 783.4844,-654.9422 783.4844,-654.9422"/>
<text text-anchor="start" x="752.2765" y="-665.5" font-family="Arial" font-size="10.00" fill="#000000">1&#45;n</text>
</g>
<!-- user_organization_invoices -->
<g id="node4" class="node">
<title>user_organization_invoices</title>
<polygon fill="#efefef" stroke="transparent" points="877.5,-715.5 877.5,-750.5 1236.5,-750.5 1236.5,-715.5 877.5,-715.5"/>
<polygon fill="none" stroke="#000000" points="877.5,-715.5 877.5,-750.5 1236.5,-750.5 1236.5,-715.5 877.5,-715.5"/>
<text text-anchor="start" x="884.1909" y="-728.3" font-family="Arial Bold" font-size="18.00" fill="#000000">user_organization_invoices</text>
<text text-anchor="start" x="1102.2411" y="-728.3" font-family="Arial" font-size="14.00" fill="#000000">    </text>
<text text-anchor="start" x="1136.4459" y="-728.3" font-family="Arial" font-size="14.00" fill="#666666">[BASE TABLE]</text>
<polygon fill="none" stroke="#000000" points="877.5,-685.5 877.5,-715.5 1236.5,-715.5 1236.5,-685.5 877.5,-685.5"/>
<text text-anchor="start" x="884.5" y="-696.9" font-family="Arial" font-size="14.00" fill="#000000">id    </text>
<text text-anchor="start" x="929.594" y="-696.9" font-family="Arial" font-size="14.00" fill="#666666">[int]</text>
<polygon fill="none" stroke="#000000" points="877.5,-655.5 877.5,-685.5 1236.5,-685.5 1236.5,-655.5 877.5,-655.5"/>
<text text-anchor="start" x="884.5" y="-666.9" font-family="Arial" font-size="14.00" fill="#000000">userId    </text>
<text text-anchor="start" x="957.6038" y="-666.9" font-family="Arial" font-size="14.00" fill="#666666">[int]</text>
<polygon fill="none" stroke="#000000" points="877.5,-625.5 877.5,-655.5 1236.5,-655.5 1236.5,-625.5 877.5,-625.5"/>
<text text-anchor="start" x="884.5" y="-636.9" font-family="Arial" font-size="14.00" fill="#000000">organizationId    </text>
<text text-anchor="start" x="1006.6206" y="-636.9" font-family="Arial" font-size="14.00" fill="#666666">[int]</text>
<polygon fill="none" stroke="#000000" points="877.5,-595.5 877.5,-625.5 1236.5,-625.5 1236.5,-595.5 877.5,-595.5"/>
<text text-anchor="start" x="884.5" y="-606.9" font-family="Arial" font-size="14.00" fill="#000000">invoiceId    </text>
<text text-anchor="start" x="973.939" y="-606.9" font-family="Arial" font-size="14.00" fill="#666666">[int]</text>
<polygon fill="none" stroke="#000000" points="877.5,-565.5 877.5,-595.5 1236.5,-595.5 1236.5,-565.5 877.5,-565.5"/>
<text text-anchor="start" x="884.5" y="-576.9" font-family="Arial" font-size="14.00" fill="#000000">createdAt    </text>
<text text-anchor="start" x="978.6136" y="-576.9" font-family="Arial" font-size="14.00" fill="#666666">[timestamp]</text>
<polygon fill="none" stroke="#000000" points="877.5,-535.5 877.5,-565.5 1236.5,-565.5 1236.5,-535.5 877.5,-535.5"/>
<text text-anchor="start" x="884.5" y="-546.9" font-family="Arial" font-size="14.00" fill="#000000">updatedAt    </text>
<text text-anchor="start" x="982.5182" y="-546.9" font-family="Arial" font-size="14.00" fill="#666666">[timestamp]</text>
</g>
<!-- user_organization_invoices&#45;&gt;users -->
<g id="edge3" class="edge">
<title>user_organization_invoices:userId&#45;&gt;users:id</title>
<path fill="none" stroke="#000000" stroke-dasharray="5,2" d="M867.2907,-669.8445C803.9676,-661.0471 857.596,-565.5087 877.5,-493 890.6352,-445.1493 921.3648,-444.8507 934.5,-397 945.8532,-355.6411 977.3889,-300.5 934.5,-300.5"/>
<polygon fill="#000000" stroke="#000000" points="867.5205,-669.8591 877.2116,-674.9908 872.5103,-670.1796 877.5,-670.5 877.5,-670.5 877.5,-670.5 872.5103,-670.1796 877.7884,-666.0092 867.5205,-669.8591 867.5205,-669.8591"/>
<text text-anchor="start" x="856.2765" y="-680.5" font-family="Arial" font-size="10.00" fill="#000000">1&#45;n</text>
</g>
<!-- projects -->
<g id="node5" class="node">
<title>projects</title>
<polygon fill="#efefef" stroke="transparent" points="1340.5,-775.5 1340.5,-810.5 1550.5,-810.5 1550.5,-775.5 1340.5,-775.5"/>
<polygon fill="none" stroke="#000000" points="1340.5,-775.5 1340.5,-810.5 1550.5,-810.5 1550.5,-775.5 1340.5,-775.5"/>
<text text-anchor="start" x="1350.2124" y="-788.3" font-family="Arial Bold" font-size="18.00" fill="#000000">projects</text>
<text text-anchor="start" x="1413.2196" y="-788.3" font-family="Arial" font-size="14.00" fill="#000000">    </text>
<text text-anchor="start" x="1447.4244" y="-788.3" font-family="Arial" font-size="14.00" fill="#666666">[BASE TABLE]</text>
<polygon fill="none" stroke="#000000" points="1340.5,-745.5 1340.5,-775.5 1550.5,-775.5 1550.5,-745.5 1340.5,-745.5"/>
<text text-anchor="start" x="1347.5" y="-756.9" font-family="Arial" font-size="14.00" fill="#000000">id    </text>
<text text-anchor="start" x="1392.594" y="-756.9" font-family="Arial" font-size="14.00" fill="#666666">[int]</text>
<polygon fill="none" stroke="#000000" points="1340.5,-715.5 1340.5,-745.5 1550.5,-745.5 1550.5,-715.5 1340.5,-715.5"/>
<text text-anchor="start" x="1347.5" y="-726.9" font-family="Arial" font-size="14.00" fill="#000000">name    </text>
<text text-anchor="start" x="1416.7132" y="-726.9" font-family="Arial" font-size="14.00" fill="#666666">[varchar(255)]</text>
<polygon fill="none" stroke="#000000" points="1340.5,-685.5 1340.5,-715.5 1550.5,-715.5 1550.5,-685.5 1340.5,-685.5"/>
<text text-anchor="start" x="1347.5" y="-696.9" font-family="Arial" font-size="14.00" fill="#000000">totalBudget    </text>
<text text-anchor="start" x="1452.5154" y="-696.9" font-family="Arial" font-size="14.00" fill="#666666">[int]</text>
<polygon fill="none" stroke="#000000" points="1340.5,-655.5 1340.5,-685.5 1550.5,-685.5 1550.5,-655.5 1340.5,-655.5"/>
<text text-anchor="start" x="1347.5" y="-666.9" font-family="Arial" font-size="14.00" fill="#000000">startDate    </text>
<text text-anchor="start" x="1438.4916" y="-666.9" font-family="Arial" font-size="14.00" fill="#666666">[timestamp]</text>
<polygon fill="none" stroke="#000000" points="1340.5,-625.5 1340.5,-655.5 1550.5,-655.5 1550.5,-625.5 1340.5,-625.5"/>
<text text-anchor="start" x="1347.5" y="-636.9" font-family="Arial" font-size="14.00" fill="#000000">endDate    </text>
<text text-anchor="start" x="1434.615" y="-636.9" font-family="Arial" font-size="14.00" fill="#666666">[timestamp]</text>
<polygon fill="none" stroke="#000000" points="1340.5,-595.5 1340.5,-625.5 1550.5,-625.5 1550.5,-595.5 1340.5,-595.5"/>
<text text-anchor="start" x="1347.5" y="-606.9" font-family="Arial" font-size="14.00" fill="#000000">createdAt    </text>
<text text-anchor="start" x="1441.6136" y="-606.9" font-family="Arial" font-size="14.00" fill="#666666">[timestamp]</text>
<polygon fill="none" stroke="#000000" points="1340.5,-565.5 1340.5,-595.5 1550.5,-595.5 1550.5,-565.5 1340.5,-565.5"/>
<text text-anchor="start" x="1347.5" y="-576.9" font-family="Arial" font-size="14.00" fill="#000000">updatedAt    </text>
<text text-anchor="start" x="1445.5182" y="-576.9" font-family="Arial" font-size="14.00" fill="#666666">[timestamp]</text>
<polygon fill="none" stroke="#000000" points="1340.5,-535.5 1340.5,-565.5 1550.5,-565.5 1550.5,-535.5 1340.5,-535.5"/>
<text text-anchor="start" x="1347.5" y="-546.9" font-family="Arial" font-size="14.00" fill="#000000">organizationId    </text>
<text text-anchor="start" x="1469.6206" y="-546.9" font-family="Arial" font-size="14.00" fill="#666666">[int]</text>
<polygon fill="none" stroke="#000000" points="1340.5,-505.5 1340.5,-535.5 1550.5,-535.5 1550.5,-505.5 1340.5,-505.5"/>
<text text-anchor="start" x="1347.5" y="-516.9" font-family="Arial" font-size="14.00" fill="#000000">creatorId    </text>
<text text-anchor="start" x="1436.9376" y="-516.9" font-family="Arial" font-size="14.00" fill="#666666">[int]</text>
<polygon fill="none" stroke="#000000" points="1340.5,-475.5 1340.5,-505.5 1550.5,-505.5 1550.5,-475.5 1340.5,-475.5"/>
<text text-anchor="start" x="1347.108" y="-486.9" font-family="Arial" font-size="14.00" fill="#000000">description    </text>
<text text-anchor="start" x="1448.9902" y="-486.9" font-family="Arial" font-size="14.00" fill="#666666">[varchar(2000)]</text>
</g>
<!-- projects&#45;&gt;users -->
<g id="edge4" class="edge">
<title>projects:creatorId&#45;&gt;users:id</title>
<path fill="none" stroke="#000000" stroke-dasharray="5,2" d="M1330.3723,-519.2601C1299.6022,-510.6659 1320.2229,-459.5236 1288.5,-433 1159.6198,-325.243 1102.4931,-300.5 934.5,-300.5"/>
<polygon fill="#000000" stroke="#000000" points="1330.5741,-519.2847 1339.9531,-524.9667 1335.5371,-519.8924 1340.5,-520.5 1340.5,-520.5 1340.5,-520.5 1335.5371,-519.8924 1341.0469,-516.0333 1330.5741,-519.2847 1330.5741,-519.2847"/>
<text text-anchor="start" x="1319.2765" y="-530.5" font-family="Arial" font-size="10.00" fill="#000000">1&#45;n</text>
</g>
</g>
</svg>
