<?xml version="1.0" encoding="UTF-8" standalone="no"?>
<!DOCTYPE svg PUBLIC "-//W3C//DTD SVG 1.1//EN"
 "http://www.w3.org/Graphics/SVG/1.1/DTD/svg11.dtd">
<!-- Generated by graphviz version 2.40.1 (20161225.0304)
 -->
<!-- Title: user_organizations Pages: 1 -->
<svg width="642pt" height="772pt"
 viewBox="0.00 0.00 641.50 772.00" xmlns="http://www.w3.org/2000/svg" xmlns:xlink="http://www.w3.org/1999/xlink">
<g id="graph0" class="graph" transform="scale(1 1) rotate(0) translate(4 768)">
<title>user_organizations</title>
<polygon fill="#ffffff" stroke="transparent" points="-4,4 -4,-768 637.5,-768 637.5,4 -4,4"/>
<!-- user_organizations -->
<g id="node1" class="node">
<title>user_organizations</title>
<polygon fill="#efefef" stroke="transparent" points="156.5,-682.5 156.5,-717.5 449.5,-717.5 449.5,-682.5 156.5,-682.5"/>
<polygon fill="none" stroke="#000000" points="156.5,-682.5 156.5,-717.5 449.5,-717.5 449.5,-682.5 156.5,-682.5"/>
<text text-anchor="start" x="163.1975" y="-695.3" font-family="Arial Bold" font-size="18.00" fill="#000000">user_organizations</text>
<text text-anchor="start" x="315.2345" y="-695.3" font-family="Arial" font-size="14.00" fill="#000000">    </text>
<text text-anchor="start" x="349.4393" y="-695.3" font-family="Arial" font-size="14.00" fill="#666666">[BASE TABLE]</text>
<polygon fill="none" stroke="#000000" points="156.5,-652.5 156.5,-682.5 449.5,-682.5 449.5,-652.5 156.5,-652.5"/>
<text text-anchor="start" x="163.5" y="-663.9" font-family="Arial" font-size="14.00" fill="#000000">id </text>
<text text-anchor="start" x="178.2798" y="-663.9" font-family="Arial" font-size="14.00" fill="#666666">[int]</text>
<polygon fill="none" stroke="#000000" points="156.5,-622.5 156.5,-652.5 449.5,-652.5 449.5,-622.5 156.5,-622.5"/>
<text text-anchor="start" x="163.5" y="-633.9" font-family="Arial" font-size="14.00" fill="#000000">userId </text>
<text text-anchor="start" x="206.2896" y="-633.9" font-family="Arial" font-size="14.00" fill="#666666">[int]</text>
<polygon fill="none" stroke="#000000" points="156.5,-592.5 156.5,-622.5 449.5,-622.5 449.5,-592.5 156.5,-592.5"/>
<text text-anchor="start" x="163.5" y="-603.9" font-family="Arial" font-size="14.00" fill="#000000">organizationId </text>
<text text-anchor="start" x="255.3064" y="-603.9" font-family="Arial" font-size="14.00" fill="#666666">[int]</text>
<polygon fill="none" stroke="#000000" points="156.5,-562.5 156.5,-592.5 449.5,-592.5 449.5,-562.5 156.5,-562.5"/>
<text text-anchor="start" x="163.5" y="-573.9" font-family="Arial" font-size="14.00" fill="#000000">createdAt </text>
<text text-anchor="start" x="227.2994" y="-573.9" font-family="Arial" font-size="14.00" fill="#666666">[timestamp]</text>
<polygon fill="none" stroke="#000000" points="156.5,-532.5 156.5,-562.5 449.5,-562.5 449.5,-532.5 156.5,-532.5"/>
<text text-anchor="start" x="163.5" y="-543.9" font-family="Arial" font-size="14.00" fill="#000000">updatedAt </text>
<text text-anchor="start" x="231.204" y="-543.9" font-family="Arial" font-size="14.00" fill="#666666">[timestamp]</text>
<polygon fill="none" stroke="#000000" stroke-width="3" points="154.5,-531.5 154.5,-719.5 450.5,-719.5 450.5,-531.5 154.5,-531.5"/>
</g>
<!-- users -->
<g id="node2" class="node">
<title>users</title>
<polygon fill="#efefef" stroke="transparent" points="43.5,-342.5 43.5,-377.5 238.5,-377.5 238.5,-342.5 43.5,-342.5"/>
<polygon fill="none" stroke="#000000" points="43.5,-342.5 43.5,-377.5 238.5,-377.5 238.5,-342.5 43.5,-342.5"/>
<text text-anchor="start" x="55.2137" y="-355.3" font-family="Arial Bold" font-size="18.00" fill="#000000">users</text>
<text text-anchor="start" x="99.2183" y="-355.3" font-family="Arial" font-size="14.00" fill="#000000">    </text>
<text text-anchor="start" x="133.4231" y="-355.3" font-family="Arial" font-size="14.00" fill="#666666">[BASE TABLE]</text>
<polygon fill="none" stroke="#000000" points="43.5,-312.5 43.5,-342.5 238.5,-342.5 238.5,-312.5 43.5,-312.5"/>
<text text-anchor="start" x="50.5" y="-323.9" font-family="Arial" font-size="14.00" fill="#000000">id    </text>
<text text-anchor="start" x="95.594" y="-323.9" font-family="Arial" font-size="14.00" fill="#666666">[int]</text>
<polygon fill="none" stroke="#000000" points="43.5,-282.5 43.5,-312.5 238.5,-312.5 238.5,-282.5 43.5,-282.5"/>
<text text-anchor="start" x="50.5" y="-293.9" font-family="Arial" font-size="14.00" fill="#000000">name    </text>
<text text-anchor="start" x="119.7132" y="-293.9" font-family="Arial" font-size="14.00" fill="#666666">[varchar(255)]</text>
<polygon fill="none" stroke="#000000" points="43.5,-252.5 43.5,-282.5 238.5,-282.5 238.5,-252.5 43.5,-252.5"/>
<text text-anchor="start" x="50.5" y="-263.9" font-family="Arial" font-size="14.00" fill="#000000">email    </text>
<text text-anchor="start" x="118.1438" y="-263.9" font-family="Arial" font-size="14.00" fill="#666666">[varchar(255)]</text>
<polygon fill="none" stroke="#000000" points="43.5,-222.5 43.5,-252.5 238.5,-252.5 238.5,-222.5 43.5,-222.5"/>
<text text-anchor="start" x="50.3892" y="-233.9" font-family="Arial" font-size="14.00" fill="#000000">password    </text>
<text text-anchor="start" x="144.4916" y="-233.9" font-family="Arial" font-size="14.00" fill="#666666">[varchar(255)]</text>
<polygon fill="none" stroke="#000000" points="43.5,-192.5 43.5,-222.5 238.5,-222.5 238.5,-192.5 43.5,-192.5"/>
<text text-anchor="start" x="50.5" y="-203.9" font-family="Arial" font-size="14.00" fill="#000000">createdAt    </text>
<text text-anchor="start" x="144.6136" y="-203.9" font-family="Arial" font-size="14.00" fill="#666666">[timestamp]</text>
<polygon fill="none" stroke="#000000" points="43.5,-162.5 43.5,-192.5 238.5,-192.5 238.5,-162.5 43.5,-162.5"/>
<text text-anchor="start" x="50.5" y="-173.9" font-family="Arial" font-size="14.00" fill="#000000">updatedAt    </text>
<text text-anchor="start" x="148.5182" y="-173.9" font-family="Arial" font-size="14.00" fill="#666666">[timestamp]</text>
<polygon fill="none" stroke="#000000" points="43.5,-132.5 43.5,-162.5 238.5,-162.5 238.5,-132.5 43.5,-132.5"/>
<text text-anchor="start" x="50.5" y="-143.9" font-family="Arial" font-size="14.00" fill="#000000">phone    </text>
<text text-anchor="start" x="123.6178" y="-143.9" font-family="Arial" font-size="14.00" fill="#666666">[varchar(255)]</text>
<polygon fill="none" stroke="#000000" points="43.5,-102.5 43.5,-132.5 238.5,-132.5 238.5,-102.5 43.5,-102.5"/>
<text text-anchor="start" x="50.5" y="-113.9" font-family="Arial" font-size="14.00" fill="#000000">address    </text>
<text text-anchor="start" x="134.4958" y="-113.9" font-family="Arial" font-size="14.00" fill="#666666">[varchar(255)]</text>
<polygon fill="none" stroke="#000000" points="43.5,-72.5 43.5,-102.5 238.5,-102.5 238.5,-72.5 43.5,-72.5"/>
<text text-anchor="start" x="50.5" y="-83.9" font-family="Arial" font-size="14.00" fill="#000000">avatar    </text>
<text text-anchor="start" x="123.6038" y="-83.9" font-family="Arial" font-size="14.00" fill="#666666">[varchar(255)]</text>
</g>
<!-- user_organizations&#45;&gt;users -->
<g id="edge1" class="edge">
<title>user_organizations:userId&#45;&gt;users:id</title>
<path fill="none" stroke="#000000" stroke-dasharray="5,2" d="M146.4485,-636.7106C93.7404,-627.7269 129.1937,-544.0308 156.5,-487 176.7033,-444.8044 218.2967,-463.1956 238.5,-421 256.4458,-383.5192 280.0556,-327.5 238.5,-327.5"/>
<polygon fill="#000000" stroke="#000000" points="146.5307,-636.717 156.1476,-641.9862 151.5153,-637.1085 156.5,-637.5 156.5,-637.5 156.5,-637.5 151.5153,-637.1085 156.8524,-633.0138 146.5307,-636.717 146.5307,-636.717"/>
<text text-anchor="start" x="135.2765" y="-647.5" font-family="Arial" font-size="10.00" fill="#000000">1&#45;n</text>
</g>
<!-- organizations -->
<g id="node3" class="node">
<title>organizations</title>
<polygon fill="#efefef" stroke="transparent" points="342.5,-372.5 342.5,-407.5 590.5,-407.5 590.5,-372.5 342.5,-372.5"/>
<polygon fill="none" stroke="#000000" points="342.5,-372.5 342.5,-407.5 590.5,-407.5 590.5,-372.5 342.5,-372.5"/>
<text text-anchor="start" x="349.2029" y="-385.3" font-family="Arial Bold" font-size="18.00" fill="#000000">organizations</text>
<text text-anchor="start" x="456.2291" y="-385.3" font-family="Arial" font-size="14.00" fill="#000000">    </text>
<text text-anchor="start" x="490.4339" y="-385.3" font-family="Arial" font-size="14.00" fill="#666666">[BASE TABLE]</text>
<polygon fill="none" stroke="#000000" points="342.5,-342.5 342.5,-372.5 590.5,-372.5 590.5,-342.5 342.5,-342.5"/>
<text text-anchor="start" x="349.5" y="-353.9" font-family="Arial" font-size="14.00" fill="#000000">id    </text>
<text text-anchor="start" x="394.594" y="-353.9" font-family="Arial" font-size="14.00" fill="#666666">[int]</text>
<polygon fill="none" stroke="#000000" points="342.5,-312.5 342.5,-342.5 590.5,-342.5 590.5,-312.5 342.5,-312.5"/>
<text text-anchor="start" x="349.5" y="-323.9" font-family="Arial" font-size="14.00" fill="#000000">name    </text>
<text text-anchor="start" x="418.7132" y="-323.9" font-family="Arial" font-size="14.00" fill="#666666">[varchar(255)]</text>
<polygon fill="none" stroke="#000000" points="342.5,-282.5 342.5,-312.5 590.5,-312.5 590.5,-282.5 342.5,-282.5"/>
<text text-anchor="start" x="349.5" y="-293.9" font-family="Arial" font-size="14.00" fill="#000000">uniqueName    </text>
<text text-anchor="start" x="463.0568" y="-293.9" font-family="Arial" font-size="14.00" fill="#666666">[varchar(255)]</text>
<polygon fill="none" stroke="#000000" points="342.5,-252.5 342.5,-282.5 590.5,-282.5 590.5,-252.5 342.5,-252.5"/>
<text text-anchor="start" x="349.5" y="-263.9" font-family="Arial" font-size="14.00" fill="#000000">createdAt    </text>
<text text-anchor="start" x="443.6136" y="-263.9" font-family="Arial" font-size="14.00" fill="#666666">[timestamp]</text>
<polygon fill="none" stroke="#000000" points="342.5,-222.5 342.5,-252.5 590.5,-252.5 590.5,-222.5 342.5,-222.5"/>
<text text-anchor="start" x="349.5" y="-233.9" font-family="Arial" font-size="14.00" fill="#000000">updatedAt    </text>
<text text-anchor="start" x="447.5182" y="-233.9" font-family="Arial" font-size="14.00" fill="#666666">[timestamp]</text>
<polygon fill="none" stroke="#000000" points="342.5,-192.5 342.5,-222.5 590.5,-222.5 590.5,-192.5 342.5,-192.5"/>
<text text-anchor="start" x="349.5" y="-203.9" font-family="Arial" font-size="14.00" fill="#000000">phone    </text>
<text text-anchor="start" x="422.6178" y="-203.9" font-family="Arial" font-size="14.00" fill="#666666">[varchar(255)]</text>
<polygon fill="none" stroke="#000000" points="342.5,-162.5 342.5,-192.5 590.5,-192.5 590.5,-162.5 342.5,-162.5"/>
<text text-anchor="start" x="349.5" y="-173.9" font-family="Arial" font-size="14.00" fill="#000000">address    </text>
<text text-anchor="start" x="433.4958" y="-173.9" font-family="Arial" font-size="14.00" fill="#666666">[varchar(255)]</text>
<polygon fill="none" stroke="#000000" points="342.5,-132.5 342.5,-162.5 590.5,-162.5 590.5,-132.5 342.5,-132.5"/>
<text text-anchor="start" x="349.5" y="-143.9" font-family="Arial" font-size="14.00" fill="#000000">dateFormat    </text>
<text text-anchor="start" x="455.2728" y="-143.9" font-family="Arial" font-size="14.00" fill="#666666">[varchar(255)]</text>
<polygon fill="none" stroke="#000000" points="342.5,-102.5 342.5,-132.5 590.5,-132.5 590.5,-102.5 342.5,-102.5"/>
<text text-anchor="start" x="349.5" y="-113.9" font-family="Arial" font-size="14.00" fill="#000000">currency    </text>
<text text-anchor="start" x="437.3738" y="-113.9" font-family="Arial" font-size="14.00" fill="#666666">[enum(&#39;vnd&#39;,&#39;usd&#39;)]</text>
<polygon fill="none" stroke="#000000" points="342.5,-72.5 342.5,-102.5 590.5,-102.5 590.5,-72.5 342.5,-72.5"/>
<text text-anchor="start" x="349.5" y="-83.9" font-family="Arial" font-size="14.00" fill="#000000">bank    </text>
<text text-anchor="start" x="414.0526" y="-83.9" font-family="Arial" font-size="14.00" fill="#666666">[enum(&#39;bidv&#39;,&#39;vcb&#39;)]</text>
<polygon fill="none" stroke="#000000" points="342.5,-42.5 342.5,-72.5 590.5,-72.5 590.5,-42.5 342.5,-42.5"/>
<text text-anchor="start" x="349.5" y="-53.9" font-family="Arial" font-size="14.00" fill="#000000">exchangeRate    </text>
<text text-anchor="start" x="473.9628" y="-53.9" font-family="Arial" font-size="14.00" fill="#666666">[int]</text>
</g>
<!-- user_organizations&#45;&gt;organizations -->
<g id="edge2" class="edge">
<title>user_organizations:organizationId&#45;&gt;organizations:id</title>
<path fill="none" stroke="#000000" stroke-dasharray="5,2" d="M459.695,-606.3962C499.8751,-596.8362 478.5561,-527.4324 449.5,-487 420.2192,-446.2549 371.7808,-491.7451 342.5,-451 318.2493,-417.2544 300.9444,-357.5 342.5,-357.5"/>
<polygon fill="#000000" stroke="#000000" points="459.4419,-606.4236 449.0156,-603.0261 454.471,-606.9618 449.5,-607.5 449.5,-607.5 449.5,-607.5 454.471,-606.9618 449.9844,-611.9739 459.4419,-606.4236 459.4419,-606.4236"/>
<text text-anchor="start" x="428.2765" y="-617.5" font-family="Arial" font-size="10.00" fill="#000000">1&#45;n</text>
</g>
</g>
</svg>
