<?xml version="1.0" encoding="UTF-8" standalone="no"?>
<!DOCTYPE svg PUBLIC "-//W3C//DTD SVG 1.1//EN"
 "http://www.w3.org/Graphics/SVG/1.1/DTD/svg11.dtd">
<!-- Generated by graphviz version 2.40.1 (20161225.0304)
 -->
<!-- Title: user_organization_invoices Pages: 1 -->
<svg width="987pt" height="952pt"
 viewBox="0.00 0.00 987.00 952.00" xmlns="http://www.w3.org/2000/svg" xmlns:xlink="http://www.w3.org/1999/xlink">
<g id="graph0" class="graph" transform="scale(1 1) rotate(0) translate(4 948)">
<title>user_organization_invoices</title>
<polygon fill="#ffffff" stroke="transparent" points="-4,4 -4,-948 983,-948 983,4 -4,4"/>
<!-- user_organization_invoices -->
<g id="node1" class="node">
<title>user_organization_invoices</title>
<polygon fill="#efefef" stroke="transparent" points="286.5,-862.5 286.5,-897.5 645.5,-897.5 645.5,-862.5 286.5,-862.5"/>
<polygon fill="none" stroke="#000000" points="286.5,-862.5 286.5,-897.5 645.5,-897.5 645.5,-862.5 286.5,-862.5"/>
<text text-anchor="start" x="293.1909" y="-875.3" font-family="Arial Bold" font-size="18.00" fill="#000000">user_organization_invoices</text>
<text text-anchor="start" x="511.2411" y="-875.3" font-family="Arial" font-size="14.00" fill="#000000">    </text>
<text text-anchor="start" x="545.4459" y="-875.3" font-family="Arial" font-size="14.00" fill="#666666">[BASE TABLE]</text>
<polygon fill="none" stroke="#000000" points="286.5,-832.5 286.5,-862.5 645.5,-862.5 645.5,-832.5 286.5,-832.5"/>
<text text-anchor="start" x="293.5" y="-843.9" font-family="Arial" font-size="14.00" fill="#000000">id </text>
<text text-anchor="start" x="308.2798" y="-843.9" font-family="Arial" font-size="14.00" fill="#666666">[int]</text>
<polygon fill="none" stroke="#000000" points="286.5,-802.5 286.5,-832.5 645.5,-832.5 645.5,-802.5 286.5,-802.5"/>
<text text-anchor="start" x="293.5" y="-813.9" font-family="Arial" font-size="14.00" fill="#000000">userId </text>
<text text-anchor="start" x="336.2896" y="-813.9" font-family="Arial" font-size="14.00" fill="#666666">[int]</text>
<polygon fill="none" stroke="#000000" points="286.5,-772.5 286.5,-802.5 645.5,-802.5 645.5,-772.5 286.5,-772.5"/>
<text text-anchor="start" x="293.5" y="-783.9" font-family="Arial" font-size="14.00" fill="#000000">organizationId </text>
<text text-anchor="start" x="385.3064" y="-783.9" font-family="Arial" font-size="14.00" fill="#666666">[int]</text>
<polygon fill="none" stroke="#000000" points="286.5,-742.5 286.5,-772.5 645.5,-772.5 645.5,-742.5 286.5,-742.5"/>
<text text-anchor="start" x="293.5" y="-753.9" font-family="Arial" font-size="14.00" fill="#000000">invoiceId </text>
<text text-anchor="start" x="352.6248" y="-753.9" font-family="Arial" font-size="14.00" fill="#666666">[int]</text>
<polygon fill="none" stroke="#000000" points="286.5,-712.5 286.5,-742.5 645.5,-742.5 645.5,-712.5 286.5,-712.5"/>
<text text-anchor="start" x="293.5" y="-723.9" font-family="Arial" font-size="14.00" fill="#000000">createdAt </text>
<text text-anchor="start" x="357.2994" y="-723.9" font-family="Arial" font-size="14.00" fill="#666666">[timestamp]</text>
<polygon fill="none" stroke="#000000" points="286.5,-682.5 286.5,-712.5 645.5,-712.5 645.5,-682.5 286.5,-682.5"/>
<text text-anchor="start" x="293.5" y="-693.9" font-family="Arial" font-size="14.00" fill="#000000">updatedAt </text>
<text text-anchor="start" x="361.204" y="-693.9" font-family="Arial" font-size="14.00" fill="#666666">[timestamp]</text>
<polygon fill="none" stroke="#000000" stroke-width="3" points="284.5,-681.5 284.5,-899.5 646.5,-899.5 646.5,-681.5 284.5,-681.5"/>
</g>
<!-- users -->
<g id="node2" class="node">
<title>users</title>
<polygon fill="#efefef" stroke="transparent" points="43.5,-417.5 43.5,-452.5 238.5,-452.5 238.5,-417.5 43.5,-417.5"/>
<polygon fill="none" stroke="#000000" points="43.5,-417.5 43.5,-452.5 238.5,-452.5 238.5,-417.5 43.5,-417.5"/>
<text text-anchor="start" x="55.2137" y="-430.3" font-family="Arial Bold" font-size="18.00" fill="#000000">users</text>
<text text-anchor="start" x="99.2183" y="-430.3" font-family="Arial" font-size="14.00" fill="#000000">    </text>
<text text-anchor="start" x="133.4231" y="-430.3" font-family="Arial" font-size="14.00" fill="#666666">[BASE TABLE]</text>
<polygon fill="none" stroke="#000000" points="43.5,-387.5 43.5,-417.5 238.5,-417.5 238.5,-387.5 43.5,-387.5"/>
<text text-anchor="start" x="50.5" y="-398.9" font-family="Arial" font-size="14.00" fill="#000000">id    </text>
<text text-anchor="start" x="95.594" y="-398.9" font-family="Arial" font-size="14.00" fill="#666666">[int]</text>
<polygon fill="none" stroke="#000000" points="43.5,-357.5 43.5,-387.5 238.5,-387.5 238.5,-357.5 43.5,-357.5"/>
<text text-anchor="start" x="50.5" y="-368.9" font-family="Arial" font-size="14.00" fill="#000000">name    </text>
<text text-anchor="start" x="119.7132" y="-368.9" font-family="Arial" font-size="14.00" fill="#666666">[varchar(255)]</text>
<polygon fill="none" stroke="#000000" points="43.5,-327.5 43.5,-357.5 238.5,-357.5 238.5,-327.5 43.5,-327.5"/>
<text text-anchor="start" x="50.5" y="-338.9" font-family="Arial" font-size="14.00" fill="#000000">email    </text>
<text text-anchor="start" x="118.1438" y="-338.9" font-family="Arial" font-size="14.00" fill="#666666">[varchar(255)]</text>
<polygon fill="none" stroke="#000000" points="43.5,-297.5 43.5,-327.5 238.5,-327.5 238.5,-297.5 43.5,-297.5"/>
<text text-anchor="start" x="50.3892" y="-308.9" font-family="Arial" font-size="14.00" fill="#000000">password    </text>
<text text-anchor="start" x="144.4916" y="-308.9" font-family="Arial" font-size="14.00" fill="#666666">[varchar(255)]</text>
<polygon fill="none" stroke="#000000" points="43.5,-267.5 43.5,-297.5 238.5,-297.5 238.5,-267.5 43.5,-267.5"/>
<text text-anchor="start" x="50.5" y="-278.9" font-family="Arial" font-size="14.00" fill="#000000">createdAt    </text>
<text text-anchor="start" x="144.6136" y="-278.9" font-family="Arial" font-size="14.00" fill="#666666">[timestamp]</text>
<polygon fill="none" stroke="#000000" points="43.5,-237.5 43.5,-267.5 238.5,-267.5 238.5,-237.5 43.5,-237.5"/>
<text text-anchor="start" x="50.5" y="-248.9" font-family="Arial" font-size="14.00" fill="#000000">updatedAt    </text>
<text text-anchor="start" x="148.5182" y="-248.9" font-family="Arial" font-size="14.00" fill="#666666">[timestamp]</text>
<polygon fill="none" stroke="#000000" points="43.5,-207.5 43.5,-237.5 238.5,-237.5 238.5,-207.5 43.5,-207.5"/>
<text text-anchor="start" x="50.5" y="-218.9" font-family="Arial" font-size="14.00" fill="#000000">phone    </text>
<text text-anchor="start" x="123.6178" y="-218.9" font-family="Arial" font-size="14.00" fill="#666666">[varchar(255)]</text>
<polygon fill="none" stroke="#000000" points="43.5,-177.5 43.5,-207.5 238.5,-207.5 238.5,-177.5 43.5,-177.5"/>
<text text-anchor="start" x="50.5" y="-188.9" font-family="Arial" font-size="14.00" fill="#000000">address    </text>
<text text-anchor="start" x="134.4958" y="-188.9" font-family="Arial" font-size="14.00" fill="#666666">[varchar(255)]</text>
<polygon fill="none" stroke="#000000" points="43.5,-147.5 43.5,-177.5 238.5,-177.5 238.5,-147.5 43.5,-147.5"/>
<text text-anchor="start" x="50.5" y="-158.9" font-family="Arial" font-size="14.00" fill="#000000">avatar    </text>
<text text-anchor="start" x="123.6038" y="-158.9" font-family="Arial" font-size="14.00" fill="#666666">[varchar(255)]</text>
</g>
<!-- user_organization_invoices&#45;&gt;users -->
<g id="edge1" class="edge">
<title>user_organization_invoices:userId&#45;&gt;users:id</title>
<path fill="none" stroke="#000000" stroke-dasharray="5,2" d="M276.6484,-815.6498C204.067,-785.7114 327.7106,-402.5 238.5,-402.5"/>
<polygon fill="#000000" stroke="#000000" points="276.6718,-815.6541 285.6693,-821.9227 281.5859,-816.577 286.5,-817.5 286.5,-817.5 286.5,-817.5 281.5859,-816.577 287.3307,-813.0773 276.6718,-815.6541 276.6718,-815.6541"/>
<text text-anchor="start" x="265.2765" y="-827.5" font-family="Arial" font-size="10.00" fill="#000000">1&#45;n</text>
</g>
<!-- organizations -->
<g id="node3" class="node">
<title>organizations</title>
<polygon fill="#efefef" stroke="transparent" points="342.5,-447.5 342.5,-482.5 590.5,-482.5 590.5,-447.5 342.5,-447.5"/>
<polygon fill="none" stroke="#000000" points="342.5,-447.5 342.5,-482.5 590.5,-482.5 590.5,-447.5 342.5,-447.5"/>
<text text-anchor="start" x="349.2029" y="-460.3" font-family="Arial Bold" font-size="18.00" fill="#000000">organizations</text>
<text text-anchor="start" x="456.2291" y="-460.3" font-family="Arial" font-size="14.00" fill="#000000">    </text>
<text text-anchor="start" x="490.4339" y="-460.3" font-family="Arial" font-size="14.00" fill="#666666">[BASE TABLE]</text>
<polygon fill="none" stroke="#000000" points="342.5,-417.5 342.5,-447.5 590.5,-447.5 590.5,-417.5 342.5,-417.5"/>
<text text-anchor="start" x="349.5" y="-428.9" font-family="Arial" font-size="14.00" fill="#000000">id    </text>
<text text-anchor="start" x="394.594" y="-428.9" font-family="Arial" font-size="14.00" fill="#666666">[int]</text>
<polygon fill="none" stroke="#000000" points="342.5,-387.5 342.5,-417.5 590.5,-417.5 590.5,-387.5 342.5,-387.5"/>
<text text-anchor="start" x="349.5" y="-398.9" font-family="Arial" font-size="14.00" fill="#000000">name    </text>
<text text-anchor="start" x="418.7132" y="-398.9" font-family="Arial" font-size="14.00" fill="#666666">[varchar(255)]</text>
<polygon fill="none" stroke="#000000" points="342.5,-357.5 342.5,-387.5 590.5,-387.5 590.5,-357.5 342.5,-357.5"/>
<text text-anchor="start" x="349.5" y="-368.9" font-family="Arial" font-size="14.00" fill="#000000">uniqueName    </text>
<text text-anchor="start" x="463.0568" y="-368.9" font-family="Arial" font-size="14.00" fill="#666666">[varchar(255)]</text>
<polygon fill="none" stroke="#000000" points="342.5,-327.5 342.5,-357.5 590.5,-357.5 590.5,-327.5 342.5,-327.5"/>
<text text-anchor="start" x="349.5" y="-338.9" font-family="Arial" font-size="14.00" fill="#000000">createdAt    </text>
<text text-anchor="start" x="443.6136" y="-338.9" font-family="Arial" font-size="14.00" fill="#666666">[timestamp]</text>
<polygon fill="none" stroke="#000000" points="342.5,-297.5 342.5,-327.5 590.5,-327.5 590.5,-297.5 342.5,-297.5"/>
<text text-anchor="start" x="349.5" y="-308.9" font-family="Arial" font-size="14.00" fill="#000000">updatedAt    </text>
<text text-anchor="start" x="447.5182" y="-308.9" font-family="Arial" font-size="14.00" fill="#666666">[timestamp]</text>
<polygon fill="none" stroke="#000000" points="342.5,-267.5 342.5,-297.5 590.5,-297.5 590.5,-267.5 342.5,-267.5"/>
<text text-anchor="start" x="349.5" y="-278.9" font-family="Arial" font-size="14.00" fill="#000000">phone    </text>
<text text-anchor="start" x="422.6178" y="-278.9" font-family="Arial" font-size="14.00" fill="#666666">[varchar(255)]</text>
<polygon fill="none" stroke="#000000" points="342.5,-237.5 342.5,-267.5 590.5,-267.5 590.5,-237.5 342.5,-237.5"/>
<text text-anchor="start" x="349.5" y="-248.9" font-family="Arial" font-size="14.00" fill="#000000">address    </text>
<text text-anchor="start" x="433.4958" y="-248.9" font-family="Arial" font-size="14.00" fill="#666666">[varchar(255)]</text>
<polygon fill="none" stroke="#000000" points="342.5,-207.5 342.5,-237.5 590.5,-237.5 590.5,-207.5 342.5,-207.5"/>
<text text-anchor="start" x="349.5" y="-218.9" font-family="Arial" font-size="14.00" fill="#000000">dateFormat    </text>
<text text-anchor="start" x="455.2728" y="-218.9" font-family="Arial" font-size="14.00" fill="#666666">[varchar(255)]</text>
<polygon fill="none" stroke="#000000" points="342.5,-177.5 342.5,-207.5 590.5,-207.5 590.5,-177.5 342.5,-177.5"/>
<text text-anchor="start" x="349.5" y="-188.9" font-family="Arial" font-size="14.00" fill="#000000">currency    </text>
<text text-anchor="start" x="437.3738" y="-188.9" font-family="Arial" font-size="14.00" fill="#666666">[enum(&#39;vnd&#39;,&#39;usd&#39;)]</text>
<polygon fill="none" stroke="#000000" points="342.5,-147.5 342.5,-177.5 590.5,-177.5 590.5,-147.5 342.5,-147.5"/>
<text text-anchor="start" x="349.5" y="-158.9" font-family="Arial" font-size="14.00" fill="#000000">bank    </text>
<text text-anchor="start" x="414.0526" y="-158.9" font-family="Arial" font-size="14.00" fill="#666666">[enum(&#39;bidv&#39;,&#39;vcb&#39;)]</text>
<polygon fill="none" stroke="#000000" points="342.5,-117.5 342.5,-147.5 590.5,-147.5 590.5,-117.5 342.5,-117.5"/>
<text text-anchor="start" x="349.5" y="-128.9" font-family="Arial" font-size="14.00" fill="#000000">exchangeRate    </text>
<text text-anchor="start" x="473.9628" y="-128.9" font-family="Arial" font-size="14.00" fill="#666666">[int]</text>
</g>
<!-- user_organization_invoices&#45;&gt;organizations -->
<g id="edge2" class="edge">
<title>user_organization_invoices:organizationId&#45;&gt;organizations:id</title>
<path fill="none" stroke="#000000" stroke-dasharray="5,2" d="M655.6314,-786.664C709.2338,-777.1585 681.7137,-688.8336 645.5,-637 563.3612,-519.4326 424.6388,-643.5674 342.5,-526 318.7003,-491.9348 300.9444,-432.5 342.5,-432.5"/>
<polygon fill="#000000" stroke="#000000" points="655.4661,-786.6775 645.1299,-783.0152 650.4831,-787.0888 645.5,-787.5 645.5,-787.5 645.5,-787.5 650.4831,-787.0888 645.8701,-791.9848 655.4661,-786.6775 655.4661,-786.6775"/>
<text text-anchor="start" x="624.2765" y="-797.5" font-family="Arial" font-size="10.00" fill="#000000">1&#45;n</text>
</g>
<!-- invoices -->
<g id="node4" class="node">
<title>invoices</title>
<polygon fill="#efefef" stroke="transparent" points="695.5,-522.5 695.5,-557.5 936.5,-557.5 936.5,-522.5 695.5,-522.5"/>
<polygon fill="none" stroke="#000000" points="695.5,-522.5 695.5,-557.5 936.5,-557.5 936.5,-522.5 695.5,-522.5"/>
<text text-anchor="start" x="719.7125" y="-535.3" font-family="Arial Bold" font-size="18.00" fill="#000000">invoices</text>
<text text-anchor="start" x="784.7195" y="-535.3" font-family="Arial" font-size="14.00" fill="#000000">    </text>
<text text-anchor="start" x="818.9243" y="-535.3" font-family="Arial" font-size="14.00" fill="#666666">[BASE TABLE]</text>
<polygon fill="none" stroke="#000000" points="695.5,-492.5 695.5,-522.5 936.5,-522.5 936.5,-492.5 695.5,-492.5"/>
<text text-anchor="start" x="702.5" y="-503.9" font-family="Arial" font-size="14.00" fill="#000000">id    </text>
<text text-anchor="start" x="747.594" y="-503.9" font-family="Arial" font-size="14.00" fill="#666666">[int]</text>
<polygon fill="none" stroke="#000000" points="695.5,-462.5 695.5,-492.5 936.5,-492.5 936.5,-462.5 695.5,-462.5"/>
<text text-anchor="start" x="702.5" y="-473.9" font-family="Arial" font-size="14.00" fill="#000000">date    </text>
<text text-anchor="start" x="763.9432" y="-473.9" font-family="Arial" font-size="14.00" fill="#666666">[timestamp]</text>
<polygon fill="none" stroke="#000000" points="695.5,-432.5 695.5,-462.5 936.5,-462.5 936.5,-432.5 695.5,-432.5"/>
<text text-anchor="start" x="702.5" y="-443.9" font-family="Arial" font-size="14.00" fill="#000000">createdAt    </text>
<text text-anchor="start" x="796.6136" y="-443.9" font-family="Arial" font-size="14.00" fill="#666666">[timestamp]</text>
<polygon fill="none" stroke="#000000" points="695.5,-402.5 695.5,-432.5 936.5,-432.5 936.5,-402.5 695.5,-402.5"/>
<text text-anchor="start" x="702.5" y="-413.9" font-family="Arial" font-size="14.00" fill="#000000">updatedAt    </text>
<text text-anchor="start" x="800.5182" y="-413.9" font-family="Arial" font-size="14.00" fill="#666666">[timestamp]</text>
<polygon fill="none" stroke="#000000" points="695.5,-372.5 695.5,-402.5 936.5,-402.5 936.5,-372.5 695.5,-372.5"/>
<text text-anchor="start" x="702.5" y="-383.9" font-family="Arial" font-size="14.00" fill="#000000">organizationId    </text>
<text text-anchor="start" x="824.6206" y="-383.9" font-family="Arial" font-size="14.00" fill="#666666">[int]</text>
<polygon fill="none" stroke="#000000" points="695.5,-342.5 695.5,-372.5 936.5,-372.5 936.5,-342.5 695.5,-342.5"/>
<text text-anchor="start" x="702.5" y="-353.9" font-family="Arial" font-size="14.00" fill="#000000">total    </text>
<text text-anchor="start" x="763.1578" y="-353.9" font-family="Arial" font-size="14.00" fill="#666666">[int]</text>
<polygon fill="none" stroke="#000000" points="695.5,-312.5 695.5,-342.5 936.5,-342.5 936.5,-312.5 695.5,-312.5"/>
<text text-anchor="start" x="702.5" y="-323.9" font-family="Arial" font-size="14.00" fill="#000000">currency    </text>
<text text-anchor="start" x="790.3738" y="-323.9" font-family="Arial" font-size="14.00" fill="#666666">[enum(&#39;vnd&#39;,&#39;usd&#39;)]</text>
<polygon fill="none" stroke="#000000" points="695.5,-282.5 695.5,-312.5 936.5,-312.5 936.5,-282.5 695.5,-282.5"/>
<text text-anchor="start" x="702.4698" y="-293.9" font-family="Arial" font-size="14.00" fill="#000000">type    </text>
<text text-anchor="start" x="763.1304" y="-293.9" font-family="Arial" font-size="14.00" fill="#666666">[enum(&#39;expense&#39;,&#39;income&#39;)]</text>
<polygon fill="none" stroke="#000000" points="695.5,-252.5 695.5,-282.5 936.5,-282.5 936.5,-252.5 695.5,-252.5"/>
<text text-anchor="start" x="702.5" y="-263.9" font-family="Arial" font-size="14.00" fill="#000000">projectId    </text>
<text text-anchor="start" x="790.3836" y="-263.9" font-family="Arial" font-size="14.00" fill="#666666">[int]</text>
<polygon fill="none" stroke="#000000" points="695.5,-222.5 695.5,-252.5 936.5,-252.5 936.5,-222.5 695.5,-222.5"/>
<text text-anchor="start" x="702.5" y="-233.9" font-family="Arial" font-size="14.00" fill="#000000">categoryId    </text>
<text text-anchor="start" x="802.0596" y="-233.9" font-family="Arial" font-size="14.00" fill="#666666">[int]</text>
<polygon fill="none" stroke="#000000" points="695.5,-192.5 695.5,-222.5 936.5,-222.5 936.5,-192.5 695.5,-192.5"/>
<text text-anchor="start" x="702.5" y="-203.9" font-family="Arial" font-size="14.00" fill="#000000">clientName    </text>
<text text-anchor="start" x="806.7062" y="-203.9" font-family="Arial" font-size="14.00" fill="#666666">[varchar(255)]</text>
<polygon fill="none" stroke="#000000" points="695.5,-162.5 695.5,-192.5 936.5,-192.5 936.5,-162.5 695.5,-162.5"/>
<text text-anchor="start" x="702.5" y="-173.9" font-family="Arial" font-size="14.00" fill="#000000">tax    </text>
<text text-anchor="start" x="755.378" y="-173.9" font-family="Arial" font-size="14.00" fill="#666666">[int]</text>
<polygon fill="none" stroke="#000000" points="695.5,-132.5 695.5,-162.5 936.5,-162.5 936.5,-132.5 695.5,-132.5"/>
<text text-anchor="start" x="702.5" y="-143.9" font-family="Arial" font-size="14.00" fill="#000000">uid    </text>
<text text-anchor="start" x="755.3766" y="-143.9" font-family="Arial" font-size="14.00" fill="#666666">[varchar(255)]</text>
<polygon fill="none" stroke="#000000" points="695.5,-102.5 695.5,-132.5 936.5,-132.5 936.5,-102.5 695.5,-102.5"/>
<text text-anchor="start" x="702.5" y="-113.9" font-family="Arial" font-size="14.00" fill="#000000">exchangeRate    </text>
<text text-anchor="start" x="826.9628" y="-113.9" font-family="Arial" font-size="14.00" fill="#666666">[decimal(10,0)]</text>
<polygon fill="none" stroke="#000000" points="695.5,-72.5 695.5,-102.5 936.5,-102.5 936.5,-72.5 695.5,-72.5"/>
<text text-anchor="start" x="702.5" y="-83.9" font-family="Arial" font-size="14.00" fill="#000000">note    </text>
<text text-anchor="start" x="763.9432" y="-83.9" font-family="Arial" font-size="14.00" fill="#666666">[varchar(255)]</text>
<polygon fill="none" stroke="#000000" points="695.5,-42.5 695.5,-72.5 936.5,-72.5 936.5,-42.5 695.5,-42.5"/>
<text text-anchor="start" x="702.5" y="-53.9" font-family="Arial" font-size="14.00" fill="#000000">discount    </text>
<text text-anchor="start" x="788.8324" y="-53.9" font-family="Arial" font-size="14.00" fill="#666666">[int]</text>
</g>
<!-- user_organization_invoices&#45;&gt;invoices -->
<g id="edge3" class="edge">
<title>user_organization_invoices:invoiceId&#45;&gt;invoices:id</title>
<path fill="none" stroke="#000000" stroke-dasharray="5,2" d="M655.571,-756.7378C747.7287,-741.6464 585.8401,-507.5 695.5,-507.5"/>
<polygon fill="#000000" stroke="#000000" points="655.4715,-756.7453 645.1604,-753.0128 650.4857,-757.1226 645.5,-757.5 645.5,-757.5 645.5,-757.5 650.4857,-757.1226 645.8396,-761.9872 655.4715,-756.7453 655.4715,-756.7453"/>
<text text-anchor="start" x="624.2765" y="-767.5" font-family="Arial" font-size="10.00" fill="#000000">n&#45;n</text>
</g>
</g>
</svg>
