<?xml version="1.0" encoding="UTF-8" standalone="no"?>
<!DOCTYPE svg PUBLIC "-//W3C//DTD SVG 1.1//EN"
 "http://www.w3.org/Graphics/SVG/1.1/DTD/svg11.dtd">
<!-- Generated by graphviz version 2.40.1 (20161225.0304)
 -->
<!-- Title: users Pages: 1 -->
<svg width="824pt" height="652pt"
 viewBox="0.00 0.00 824.00 652.00" xmlns="http://www.w3.org/2000/svg" xmlns:xlink="http://www.w3.org/1999/xlink">
<g id="graph0" class="graph" transform="scale(1 1) rotate(0) translate(4 648)">
<title>users</title>
<polygon fill="#ffffff" stroke="transparent" points="-4,4 -4,-648 820,-648 820,4 -4,4"/>
<!-- users -->
<g id="node1" class="node">
<title>users</title>
<polygon fill="#efefef" stroke="transparent" points="325.5,-225.5 325.5,-260.5 510.5,-260.5 510.5,-225.5 325.5,-225.5"/>
<polygon fill="none" stroke="#000000" points="325.5,-225.5 325.5,-260.5 510.5,-260.5 510.5,-225.5 325.5,-225.5"/>
<text text-anchor="start" x="332.2137" y="-238.3" font-family="Arial Bold" font-size="18.00" fill="#000000">users</text>
<text text-anchor="start" x="376.2183" y="-238.3" font-family="Arial" font-size="14.00" fill="#000000">    </text>
<text text-anchor="start" x="410.4231" y="-238.3" font-family="Arial" font-size="14.00" fill="#666666">[BASE TABLE]</text>
<polygon fill="none" stroke="#000000" points="325.5,-195.5 325.5,-225.5 510.5,-225.5 510.5,-195.5 325.5,-195.5"/>
<text text-anchor="start" x="332.5" y="-206.9" font-family="Arial" font-size="14.00" fill="#000000">id </text>
<text text-anchor="start" x="347.2798" y="-206.9" font-family="Arial" font-size="14.00" fill="#666666">[int]</text>
<polygon fill="none" stroke="#000000" points="325.5,-165.5 325.5,-195.5 510.5,-195.5 510.5,-165.5 325.5,-165.5"/>
<text text-anchor="start" x="332.5" y="-176.9" font-family="Arial" font-size="14.00" fill="#000000">name </text>
<text text-anchor="start" x="371.399" y="-176.9" font-family="Arial" font-size="14.00" fill="#666666">[varchar(255)]</text>
<polygon fill="none" stroke="#000000" points="325.5,-135.5 325.5,-165.5 510.5,-165.5 510.5,-135.5 325.5,-135.5"/>
<text text-anchor="start" x="332.5" y="-146.9" font-family="Arial" font-size="14.00" fill="#000000">email </text>
<text text-anchor="start" x="369.8296" y="-146.9" font-family="Arial" font-size="14.00" fill="#666666">[varchar(255)]</text>
<polygon fill="none" stroke="#000000" points="325.5,-105.5 325.5,-135.5 510.5,-135.5 510.5,-105.5 325.5,-105.5"/>
<text text-anchor="start" x="332.5" y="-116.9" font-family="Arial" font-size="14.00" fill="#000000">password </text>
<text text-anchor="start" x="396.2882" y="-116.9" font-family="Arial" font-size="14.00" fill="#666666">[varchar(255)]</text>
<polygon fill="none" stroke="#000000" points="325.5,-75.5 325.5,-105.5 510.5,-105.5 510.5,-75.5 325.5,-75.5"/>
<text text-anchor="start" x="332.5" y="-86.9" font-family="Arial" font-size="14.00" fill="#000000">createdAt </text>
<text text-anchor="start" x="396.2994" y="-86.9" font-family="Arial" font-size="14.00" fill="#666666">[timestamp]</text>
<polygon fill="none" stroke="#000000" points="325.5,-45.5 325.5,-75.5 510.5,-75.5 510.5,-45.5 325.5,-45.5"/>
<text text-anchor="start" x="332.5" y="-56.9" font-family="Arial" font-size="14.00" fill="#000000">updatedAt </text>
<text text-anchor="start" x="400.204" y="-56.9" font-family="Arial" font-size="14.00" fill="#666666">[timestamp]</text>
<polygon fill="none" stroke="#000000" stroke-width="3" points="323.5,-44.5 323.5,-262.5 511.5,-262.5 511.5,-44.5 323.5,-44.5"/>
</g>
<!-- user_organization_roles -->
<g id="node2" class="node">
<title>user_organization_roles</title>
<polygon fill="#efefef" stroke="transparent" points="43.5,-565.5 43.5,-600.5 376.5,-600.5 376.5,-565.5 43.5,-565.5"/>
<polygon fill="none" stroke="#000000" points="43.5,-565.5 43.5,-600.5 376.5,-600.5 376.5,-565.5 43.5,-565.5"/>
<text text-anchor="start" x="50.195" y="-578.3" font-family="Arial Bold" font-size="18.00" fill="#000000">user_organization_roles</text>
<text text-anchor="start" x="242.237" y="-578.3" font-family="Arial" font-size="14.00" fill="#000000">    </text>
<text text-anchor="start" x="276.4418" y="-578.3" font-family="Arial" font-size="14.00" fill="#666666">[BASE TABLE]</text>
<polygon fill="none" stroke="#000000" points="43.5,-535.5 43.5,-565.5 376.5,-565.5 376.5,-535.5 43.5,-535.5"/>
<text text-anchor="start" x="50.5" y="-546.9" font-family="Arial" font-size="14.00" fill="#000000">id    </text>
<text text-anchor="start" x="95.594" y="-546.9" font-family="Arial" font-size="14.00" fill="#666666">[int]</text>
<polygon fill="none" stroke="#000000" points="43.5,-505.5 43.5,-535.5 376.5,-535.5 376.5,-505.5 43.5,-505.5"/>
<text text-anchor="start" x="50.5" y="-516.9" font-family="Arial" font-size="14.00" fill="#000000">userId    </text>
<text text-anchor="start" x="123.6038" y="-516.9" font-family="Arial" font-size="14.00" fill="#666666">[int]</text>
<polygon fill="none" stroke="#000000" points="43.5,-475.5 43.5,-505.5 376.5,-505.5 376.5,-475.5 43.5,-475.5"/>
<text text-anchor="start" x="50.5" y="-486.9" font-family="Arial" font-size="14.00" fill="#000000">organizationId    </text>
<text text-anchor="start" x="172.6206" y="-486.9" font-family="Arial" font-size="14.00" fill="#666666">[int]</text>
<polygon fill="none" stroke="#000000" points="43.5,-445.5 43.5,-475.5 376.5,-475.5 376.5,-445.5 43.5,-445.5"/>
<text text-anchor="start" x="50.5" y="-456.9" font-family="Arial" font-size="14.00" fill="#000000">roleId    </text>
<text text-anchor="start" x="119.7104" y="-456.9" font-family="Arial" font-size="14.00" fill="#666666">[int]</text>
<polygon fill="none" stroke="#000000" points="43.5,-415.5 43.5,-445.5 376.5,-445.5 376.5,-415.5 43.5,-415.5"/>
<text text-anchor="start" x="50.5" y="-426.9" font-family="Arial" font-size="14.00" fill="#000000">createdAt    </text>
<text text-anchor="start" x="144.6136" y="-426.9" font-family="Arial" font-size="14.00" fill="#666666">[timestamp]</text>
<polygon fill="none" stroke="#000000" points="43.5,-385.5 43.5,-415.5 376.5,-415.5 376.5,-385.5 43.5,-385.5"/>
<text text-anchor="start" x="50.5" y="-396.9" font-family="Arial" font-size="14.00" fill="#000000">updatedAt    </text>
<text text-anchor="start" x="148.5182" y="-396.9" font-family="Arial" font-size="14.00" fill="#666666">[timestamp]</text>
</g>
<!-- user_organization_roles&#45;&gt;users -->
<g id="edge1" class="edge">
<title>user_organization_roles:userId&#45;&gt;users:id</title>
<path fill="none" stroke="#000000" stroke-dasharray="5,2" d="M386.8061,-519.8066C451.4095,-510.5082 411.0926,-409.761 376.5,-343 363.7356,-318.3657 338.2644,-331.6343 325.5,-307 305.7684,-268.9196 282.6111,-210.5 325.5,-210.5"/>
<polygon fill="#000000" stroke="#000000" points="386.4774,-519.8286 376.1979,-516.0102 381.4887,-520.1643 376.5,-520.5 376.5,-520.5 376.5,-520.5 381.4887,-520.1643 376.8021,-524.9898 386.4774,-519.8286 386.4774,-519.8286"/>
<text text-anchor="start" x="355.2765" y="-530.5" font-family="Arial" font-size="10.00" fill="#000000">1&#45;n</text>
</g>
<!-- user_organizations -->
<g id="node3" class="node">
<title>user_organizations</title>
<polygon fill="#efefef" stroke="transparent" points="480.5,-550.5 480.5,-585.5 773.5,-585.5 773.5,-550.5 480.5,-550.5"/>
<polygon fill="none" stroke="#000000" points="480.5,-550.5 480.5,-585.5 773.5,-585.5 773.5,-550.5 480.5,-550.5"/>
<text text-anchor="start" x="487.1975" y="-563.3" font-family="Arial Bold" font-size="18.00" fill="#000000">user_organizations</text>
<text text-anchor="start" x="639.2345" y="-563.3" font-family="Arial" font-size="14.00" fill="#000000">    </text>
<text text-anchor="start" x="673.4393" y="-563.3" font-family="Arial" font-size="14.00" fill="#666666">[BASE TABLE]</text>
<polygon fill="none" stroke="#000000" points="480.5,-520.5 480.5,-550.5 773.5,-550.5 773.5,-520.5 480.5,-520.5"/>
<text text-anchor="start" x="487.5" y="-531.9" font-family="Arial" font-size="14.00" fill="#000000">id    </text>
<text text-anchor="start" x="532.594" y="-531.9" font-family="Arial" font-size="14.00" fill="#666666">[int]</text>
<polygon fill="none" stroke="#000000" points="480.5,-490.5 480.5,-520.5 773.5,-520.5 773.5,-490.5 480.5,-490.5"/>
<text text-anchor="start" x="487.5" y="-501.9" font-family="Arial" font-size="14.00" fill="#000000">userId    </text>
<text text-anchor="start" x="560.6038" y="-501.9" font-family="Arial" font-size="14.00" fill="#666666">[int]</text>
<polygon fill="none" stroke="#000000" points="480.5,-460.5 480.5,-490.5 773.5,-490.5 773.5,-460.5 480.5,-460.5"/>
<text text-anchor="start" x="487.5" y="-471.9" font-family="Arial" font-size="14.00" fill="#000000">organizationId    </text>
<text text-anchor="start" x="609.6206" y="-471.9" font-family="Arial" font-size="14.00" fill="#666666">[int]</text>
<polygon fill="none" stroke="#000000" points="480.5,-430.5 480.5,-460.5 773.5,-460.5 773.5,-430.5 480.5,-430.5"/>
<text text-anchor="start" x="487.5" y="-441.9" font-family="Arial" font-size="14.00" fill="#000000">createdAt    </text>
<text text-anchor="start" x="581.6136" y="-441.9" font-family="Arial" font-size="14.00" fill="#666666">[timestamp]</text>
<polygon fill="none" stroke="#000000" points="480.5,-400.5 480.5,-430.5 773.5,-430.5 773.5,-400.5 480.5,-400.5"/>
<text text-anchor="start" x="487.5" y="-411.9" font-family="Arial" font-size="14.00" fill="#000000">updatedAt    </text>
<text text-anchor="start" x="585.5182" y="-411.9" font-family="Arial" font-size="14.00" fill="#666666">[timestamp]</text>
</g>
<!-- user_organizations&#45;&gt;users -->
<g id="edge2" class="edge">
<title>user_organizations:userId&#45;&gt;users:id</title>
<path fill="none" stroke="#000000" stroke-dasharray="5,2" d="M470.4304,-504.7083C420.3197,-496.0237 464.2514,-417.6697 480.5,-358 487.4094,-332.6265 503.5906,-332.3735 510.5,-307 521.7687,-265.618 553.3889,-210.5 510.5,-210.5"/>
<polygon fill="#000000" stroke="#000000" points="470.5308,-504.7161 480.1472,-509.9862 475.5154,-505.108 480.5,-505.5 480.5,-505.5 480.5,-505.5 475.5154,-505.108 480.8528,-501.0138 470.5308,-504.7161 470.5308,-504.7161"/>
<text text-anchor="start" x="459.2765" y="-515.5" font-family="Arial" font-size="10.00" fill="#000000">1&#45;n</text>
</g>
</g>
</svg>
